<?xml version="1.0" encoding="utf-8" standalone="no"?>
<!DOCTYPE svg PUBLIC "-//W3C//DTD SVG 1.1//EN"
  "http://www.w3.org/Graphics/SVG/1.1/DTD/svg11.dtd">
<!-- Created with matplotlib (http://matplotlib.org/) -->
<svg height="288pt" version="1.1" viewBox="0 0 360 288" width="360pt" xmlns="http://www.w3.org/2000/svg" xmlns:xlink="http://www.w3.org/1999/xlink">
 <defs>
  <style type="text/css">
*{stroke-linecap:butt;stroke-linejoin:round;}
  </style>
 </defs>
 <g id="figure_1">
  <g id="patch_1">
   <path d="
M0 288
L360 288
L360 0
L0 0
z
" style="fill:#ffffff;"/>
  </g>
  <g id="axes_1">
   <g id="patch_2">
    <path d="
M45 252
L324 252
L324 28.8
L45 28.8
z
" style="fill:none;"/>
   </g>
   <g id="line2d_1">
    <path clip-path="url(#pf61a67d692)" d="
M124.714 243.013
L128.781 242.215
L132.848 241.352
L136.915 240.419
L140.983 239.411
L145.05 238.324
L149.117 237.15
L153.184 235.886
L157.251 234.523
L161.318 233.056
L165.385 231.478
L169.452 229.78
L173.519 227.956
L177.586 225.996
L181.653 223.893
L185.72 221.636
L189.787 219.217
L193.854 216.625
L197.921 213.85
L201.988 210.88
L206.055 207.704
L210.122 204.309
L214.19 200.684
L218.257 196.813
L222.324 192.685
L226.391 188.283
L230.458 183.594
L234.525 178.601
L238.592 173.287
L242.659 167.637
L246.726 161.632
L250.793 155.254
L254.86 148.484
L258.927 141.303
L262.994 133.691
L267.061 125.626
L271.128 117.088
L275.195 108.054
L279.262 98.5023
L283.329 88.4086
L287.397 77.7494
L291.464 66.5003
L295.531 54.6364
L299.598 42.1321
L303.665 28.9613
L307.732 15.0976
L311.799 0.514036
L312.2 -1" style="fill:none;stroke:#ff0000;stroke-linecap:square;"/>
   </g>
   <g id="patch_3">
    <path d="
M45 28.8
L324 28.8" style="fill:none;stroke:#000000;stroke-linecap:square;stroke-linejoin:miter;"/>
   </g>
   <g id="patch_4">
    <path d="
M324 252
L324 28.8" style="fill:none;stroke:#000000;stroke-linecap:square;stroke-linejoin:miter;"/>
   </g>
   <g id="patch_5">
    <path d="
M45 252
L324 252" style="fill:none;stroke:#000000;stroke-linecap:square;stroke-linejoin:miter;"/>
   </g>
   <g id="patch_6">
    <path d="
M45 252
L45 28.8" style="fill:none;stroke:#000000;stroke-linecap:square;stroke-linejoin:miter;"/>
   </g>
   <g id="matplotlib.axis_1">
    <g id="xtick_1">
     <g id="line2d_2">
      <defs>
       <path d="
M0 0
L0 -4" id="m93b0483c22" style="stroke:#000000;stroke-width:0.5;"/>
      </defs>
      <g>
       <use style="stroke:#000000;stroke-width:0.5;" x="45.0" xlink:href="#m93b0483c22" y="252.0"/>
      </g>
     </g>
     <g id="line2d_3">
      <defs>
       <path d="
M0 0
L0 4" id="m741efc42ff" style="stroke:#000000;stroke-width:0.5;"/>
      </defs>
      <g>
       <use style="stroke:#000000;stroke-width:0.5;" x="45.0" xlink:href="#m741efc42ff" y="28.8"/>
      </g>
     </g>
     <g id="text_1">
      <!-- 0 -->
      <defs>
       <path d="
M31.7812 66.4062
Q24.1719 66.4062 20.3281 58.9062
Q16.5 51.4219 16.5 36.375
Q16.5 21.3906 20.3281 13.8906
Q24.1719 6.39062 31.7812 6.39062
Q39.4531 6.39062 43.2812 13.8906
Q47.125 21.3906 47.125 36.375
Q47.125 51.4219 43.2812 58.9062
Q39.4531 66.4062 31.7812 66.4062
M31.7812 74.2188
Q44.0469 74.2188 50.5156 64.5156
Q56.9844 54.8281 56.9844 36.375
Q56.9844 17.9688 50.5156 8.26562
Q44.0469 -1.42188 31.7812 -1.42188
Q19.5312 -1.42188 13.0625 8.26562
Q6.59375 17.9688 6.59375 36.375
Q6.59375 54.8281 13.0625 64.5156
Q19.5312 74.2188 31.7812 74.2188" id="DejaVuSans-30"/>
      </defs>
      <g transform="translate(42.48046875 263.5984375)scale(0.1 -0.1)">
       <use xlink:href="#DejaVuSans-30"/>
      </g>
     </g>
    </g>
    <g id="xtick_2">
     <g id="line2d_4">
      <g>
       <use style="stroke:#000000;stroke-width:0.5;" x="84.8571428571" xlink:href="#m93b0483c22" y="252.0"/>
      </g>
     </g>
     <g id="line2d_5">
      <g>
       <use style="stroke:#000000;stroke-width:0.5;" x="84.8571428571" xlink:href="#m741efc42ff" y="28.8"/>
      </g>
     </g>
     <g id="text_2">
      <!-- 100 -->
      <defs>
       <path d="
M12.4062 8.29688
L28.5156 8.29688
L28.5156 63.9219
L10.9844 60.4062
L10.9844 69.3906
L28.4219 72.9062
L38.2812 72.9062
L38.2812 8.29688
L54.3906 8.29688
L54.3906 0
L12.4062 0
z
" id="DejaVuSans-31"/>
      </defs>
      <g transform="translate(76.1946428571 263.5984375)scale(0.1 -0.1)">
       <use xlink:href="#DejaVuSans-31"/>
       <use x="63.623046875" xlink:href="#DejaVuSans-30"/>
       <use x="127.24609375" xlink:href="#DejaVuSans-30"/>
      </g>
     </g>
    </g>
    <g id="xtick_3">
     <g id="line2d_6">
      <g>
       <use style="stroke:#000000;stroke-width:0.5;" x="124.714285714" xlink:href="#m93b0483c22" y="252.0"/>
      </g>
     </g>
     <g id="line2d_7">
      <g>
       <use style="stroke:#000000;stroke-width:0.5;" x="124.714285714" xlink:href="#m741efc42ff" y="28.8"/>
      </g>
     </g>
     <g id="text_3">
      <!-- 200 -->
      <defs>
       <path d="
M19.1875 8.29688
L53.6094 8.29688
L53.6094 0
L7.32812 0
L7.32812 8.29688
Q12.9375 14.1094 22.625 23.8906
Q32.3281 33.6875 34.8125 36.5312
Q39.5469 41.8438 41.4219 45.5312
Q43.3125 49.2188 43.3125 52.7812
Q43.3125 58.5938 39.2344 62.25
Q35.1562 65.9219 28.6094 65.9219
Q23.9688 65.9219 18.8125 64.3125
Q13.6719 62.7031 7.8125 59.4219
L7.8125 69.3906
Q13.7656 71.7812 18.9375 73
Q24.125 74.2188 28.4219 74.2188
Q39.75 74.2188 46.4844 68.5469
Q53.2188 62.8906 53.2188 53.4219
Q53.2188 48.9219 51.5312 44.8906
Q49.8594 40.875 45.4062 35.4062
Q44.1875 33.9844 37.6406 27.2188
Q31.1094 20.4531 19.1875 8.29688" id="DejaVuSans-32"/>
      </defs>
      <g transform="translate(115.868973214 263.5984375)scale(0.1 -0.1)">
       <use xlink:href="#DejaVuSans-32"/>
       <use x="63.623046875" xlink:href="#DejaVuSans-30"/>
       <use x="127.24609375" xlink:href="#DejaVuSans-30"/>
      </g>
     </g>
    </g>
    <g id="xtick_4">
     <g id="line2d_8">
      <g>
       <use style="stroke:#000000;stroke-width:0.5;" x="164.571428571" xlink:href="#m93b0483c22" y="252.0"/>
      </g>
     </g>
     <g id="line2d_9">
      <g>
       <use style="stroke:#000000;stroke-width:0.5;" x="164.571428571" xlink:href="#m741efc42ff" y="28.8"/>
      </g>
     </g>
     <g id="text_4">
      <!-- 300 -->
      <defs>
       <path d="
M40.5781 39.3125
Q47.6562 37.7969 51.625 33
Q55.6094 28.2188 55.6094 21.1875
Q55.6094 10.4062 48.1875 4.48438
Q40.7656 -1.42188 27.0938 -1.42188
Q22.5156 -1.42188 17.6562 -0.515625
Q12.7969 0.390625 7.625 2.20312
L7.625 11.7188
Q11.7188 9.32812 16.5938 8.10938
Q21.4844 6.89062 26.8125 6.89062
Q36.0781 6.89062 40.9375 10.5469
Q45.7969 14.2031 45.7969 21.1875
Q45.7969 27.6406 41.2812 31.2656
Q36.7656 34.9062 28.7188 34.9062
L20.2188 34.9062
L20.2188 43.0156
L29.1094 43.0156
Q36.375 43.0156 40.2344 45.9219
Q44.0938 48.8281 44.0938 54.2969
Q44.0938 59.9062 40.1094 62.9062
Q36.1406 65.9219 28.7188 65.9219
Q24.6562 65.9219 20.0156 65.0312
Q15.375 64.1562 9.8125 62.3125
L9.8125 71.0938
Q15.4375 72.6562 20.3438 73.4375
Q25.25 74.2188 29.5938 74.2188
Q40.8281 74.2188 47.3594 69.1094
Q53.9062 64.0156 53.9062 55.3281
Q53.9062 49.2656 50.4375 45.0938
Q46.9688 40.9219 40.5781 39.3125" id="DejaVuSans-33"/>
      </defs>
      <g transform="translate(155.740959821 263.5984375)scale(0.1 -0.1)">
       <use xlink:href="#DejaVuSans-33"/>
       <use x="63.623046875" xlink:href="#DejaVuSans-30"/>
       <use x="127.24609375" xlink:href="#DejaVuSans-30"/>
      </g>
     </g>
    </g>
    <g id="xtick_5">
     <g id="line2d_10">
      <g>
       <use style="stroke:#000000;stroke-width:0.5;" x="204.428571429" xlink:href="#m93b0483c22" y="252.0"/>
      </g>
     </g>
     <g id="line2d_11">
      <g>
       <use style="stroke:#000000;stroke-width:0.5;" x="204.428571429" xlink:href="#m741efc42ff" y="28.8"/>
      </g>
     </g>
     <g id="text_5">
      <!-- 400 -->
      <defs>
       <path d="
M37.7969 64.3125
L12.8906 25.3906
L37.7969 25.3906
z

M35.2031 72.9062
L47.6094 72.9062
L47.6094 25.3906
L58.0156 25.3906
L58.0156 17.1875
L47.6094 17.1875
L47.6094 0
L37.7969 0
L37.7969 17.1875
L4.89062 17.1875
L4.89062 26.7031
z
" id="DejaVuSans-34"/>
      </defs>
      <g transform="translate(195.461383929 263.5984375)scale(0.1 -0.1)">
       <use xlink:href="#DejaVuSans-34"/>
       <use x="63.623046875" xlink:href="#DejaVuSans-30"/>
       <use x="127.24609375" xlink:href="#DejaVuSans-30"/>
      </g>
     </g>
    </g>
    <g id="xtick_6">
     <g id="line2d_12">
      <g>
       <use style="stroke:#000000;stroke-width:0.5;" x="244.285714286" xlink:href="#m93b0483c22" y="252.0"/>
      </g>
     </g>
     <g id="line2d_13">
      <g>
       <use style="stroke:#000000;stroke-width:0.5;" x="244.285714286" xlink:href="#m741efc42ff" y="28.8"/>
      </g>
     </g>
     <g id="text_6">
      <!-- 500 -->
      <defs>
       <path d="
M10.7969 72.9062
L49.5156 72.9062
L49.5156 64.5938
L19.8281 64.5938
L19.8281 46.7344
Q21.9688 47.4688 24.1094 47.8281
Q26.2656 48.1875 28.4219 48.1875
Q40.625 48.1875 47.75 41.5
Q54.8906 34.8125 54.8906 23.3906
Q54.8906 11.625 47.5625 5.09375
Q40.2344 -1.42188 26.9062 -1.42188
Q22.3125 -1.42188 17.5469 -0.640625
Q12.7969 0.140625 7.71875 1.70312
L7.71875 11.625
Q12.1094 9.23438 16.7969 8.0625
Q21.4844 6.89062 26.7031 6.89062
Q35.1562 6.89062 40.0781 11.3281
Q45.0156 15.7656 45.0156 23.3906
Q45.0156 31 40.0781 35.4375
Q35.1562 39.8906 26.7031 39.8906
Q22.75 39.8906 18.8125 39.0156
Q14.8906 38.1406 10.7969 36.2812
z
" id="DejaVuSans-35"/>
      </defs>
      <g transform="translate(235.459933036 263.5984375)scale(0.1 -0.1)">
       <use xlink:href="#DejaVuSans-35"/>
       <use x="63.623046875" xlink:href="#DejaVuSans-30"/>
       <use x="127.24609375" xlink:href="#DejaVuSans-30"/>
      </g>
     </g>
    </g>
    <g id="xtick_7">
     <g id="line2d_14">
      <g>
       <use style="stroke:#000000;stroke-width:0.5;" x="284.142857143" xlink:href="#m93b0483c22" y="252.0"/>
      </g>
     </g>
     <g id="line2d_15">
      <g>
       <use style="stroke:#000000;stroke-width:0.5;" x="284.142857143" xlink:href="#m741efc42ff" y="28.8"/>
      </g>
     </g>
     <g id="text_7">
      <!-- 600 -->
      <defs>
       <path d="
M33.0156 40.375
Q26.375 40.375 22.4844 35.8281
Q18.6094 31.2969 18.6094 23.3906
Q18.6094 15.5312 22.4844 10.9531
Q26.375 6.39062 33.0156 6.39062
Q39.6562 6.39062 43.5312 10.9531
Q47.4062 15.5312 47.4062 23.3906
Q47.4062 31.2969 43.5312 35.8281
Q39.6562 40.375 33.0156 40.375
M52.5938 71.2969
L52.5938 62.3125
Q48.875 64.0625 45.0938 64.9844
Q41.3125 65.9219 37.5938 65.9219
Q27.8281 65.9219 22.6719 59.3281
Q17.5312 52.7344 16.7969 39.4062
Q19.6719 43.6562 24.0156 45.9219
Q28.375 48.1875 33.5938 48.1875
Q44.5781 48.1875 50.9531 41.5156
Q57.3281 34.8594 57.3281 23.3906
Q57.3281 12.1562 50.6875 5.35938
Q44.0469 -1.42188 33.0156 -1.42188
Q20.3594 -1.42188 13.6719 8.26562
Q6.98438 17.9688 6.98438 36.375
Q6.98438 53.6562 15.1875 63.9375
Q23.3906 74.2188 37.2031 74.2188
Q40.9219 74.2188 44.7031 73.4844
Q48.4844 72.75 52.5938 71.2969" id="DejaVuSans-36"/>
      </defs>
      <g transform="translate(275.280357143 263.5984375)scale(0.1 -0.1)">
       <use xlink:href="#DejaVuSans-36"/>
       <use x="63.623046875" xlink:href="#DejaVuSans-30"/>
       <use x="127.24609375" xlink:href="#DejaVuSans-30"/>
      </g>
     </g>
    </g>
    <g id="xtick_8">
     <g id="line2d_16">
      <g>
       <use style="stroke:#000000;stroke-width:0.5;" x="324.0" xlink:href="#m93b0483c22" y="252.0"/>
      </g>
     </g>
     <g id="line2d_17">
      <g>
       <use style="stroke:#000000;stroke-width:0.5;" x="324.0" xlink:href="#m741efc42ff" y="28.8"/>
      </g>
     </g>
     <g id="text_8">
      <!-- 700 -->
      <defs>
       <path d="
M8.20312 72.9062
L55.0781 72.9062
L55.0781 68.7031
L28.6094 0
L18.3125 0
L43.2188 64.5938
L8.20312 64.5938
z
" id="DejaVuSans-37"/>
      </defs>
      <g transform="translate(315.1984375 263.5984375)scale(0.1 -0.1)">
       <use xlink:href="#DejaVuSans-37"/>
       <use x="63.623046875" xlink:href="#DejaVuSans-30"/>
       <use x="127.24609375" xlink:href="#DejaVuSans-30"/>
      </g>
     </g>
    </g>
    <g id="text_9">
     <!-- $  m_{\Sigma_1^\pm}[\rm GeV]$  -->
     <defs>
      <path d="
M2.20312 -25
L2.20312 -21
L11.9219 -21
L11.9219 71
L2.20312 71
L2.20312 75
L15.9219 75
L15.9219 -25
z
" id="Cmr10-5d"/>
      <path d="
M9.28125 0
L9.28125 3.51562
Q21.7812 3.51562 21.7812 6.6875
L21.7812 59.1875
Q16.6094 56.6875 8.6875 56.6875
L8.6875 60.2031
Q20.9531 60.2031 27.2031 66.6094
L28.6094 66.6094
Q28.9531 66.6094 29.2656 66.3281
Q29.5938 66.0625 29.5938 65.7188
L29.5938 6.6875
Q29.5938 3.51562 42.0938 3.51562
L42.0938 0
z
" id="Cmr10-31"/>
      <path d="
M7.71875 1.70312
Q7.71875 2.29688 7.8125 2.59375
L15.2812 32.4219
Q16.0156 35.2031 16.0156 37.3125
Q16.0156 41.6094 13.0938 41.6094
Q9.96875 41.6094 8.45312 37.8594
Q6.9375 34.125 5.51562 28.4219
Q5.51562 28.125 5.21875 27.9531
Q4.9375 27.7812 4.6875 27.7812
L3.51562 27.7812
Q3.17188 27.7812 2.92188 28.1406
Q2.6875 28.5156 2.6875 28.8125
Q3.76562 33.1562 4.76562 36.1719
Q5.76562 39.2031 7.89062 41.6875
Q10.0156 44.1875 13.1875 44.1875
Q16.9375 44.1875 19.8125 41.8125
Q22.7031 39.4531 22.7031 35.7969
Q25.6875 39.7031 29.6875 41.9375
Q33.6875 44.1875 38.1875 44.1875
Q42.9219 44.1875 46.3594 41.7656
Q49.8125 39.3594 49.8125 34.9062
Q52.875 39.2656 57 41.7188
Q61.1406 44.1875 66.0156 44.1875
Q71.1875 44.1875 74.3281 41.375
Q77.4844 38.5781 77.4844 33.4062
Q77.4844 29.2969 75.6562 23.4844
Q73.8281 17.6719 71.0938 10.5
Q69.6719 7.03125 69.6719 4.5
Q69.6719 1.51562 72.0156 1.51562
Q75.9219 1.51562 78.5156 5.70312
Q81.1094 9.90625 82.1719 14.7031
Q82.4688 15.2812 83.0156 15.2812
L84.1875 15.2812
Q84.5781 15.2812 84.8438 15.0156
Q85.1094 14.75 85.1094 14.4062
Q85.1094 14.3125 85.0156 14.1094
Q83.6406 8.45312 80.25 3.65625
Q76.8594 -1.125 71.7812 -1.125
Q68.2656 -1.125 65.7656 1.29688
Q63.2812 3.71875 63.2812 7.17188
Q63.2812 8.9375 64.1094 11.0781
Q66.9375 18.6094 68.8125 24.5156
Q70.7031 30.4219 70.7031 34.9062
Q70.7031 37.7031 69.5781 39.6562
Q68.4531 41.6094 65.8281 41.6094
Q60.3594 41.6094 56.3438 38.25
Q52.3438 34.9062 49.4219 29.3906
Q49.2188 28.4219 49.125 27.875
L42.6719 2.20312
Q42.3281 0.828125 41.125 -0.140625
Q39.9375 -1.125 38.4844 -1.125
Q37.3125 -1.125 36.4062 -0.34375
Q35.5 0.4375 35.5 1.70312
Q35.5 2.29688 35.5938 2.59375
L42 28.0781
Q43.0156 32.1719 43.0156 34.9062
Q43.0156 37.7031 41.8594 39.6562
Q40.7188 41.6094 37.9844 41.6094
Q34.3281 41.6094 31.25 39.9844
Q28.1719 38.375 25.875 35.7188
Q23.5781 33.0625 21.6875 29.3906
L14.8906 2.20312
Q14.5469 0.828125 13.3438 -0.140625
Q12.1562 -1.125 10.6875 -1.125
Q9.46875 -1.125 8.59375 -0.34375
Q7.71875 0.4375 7.71875 1.70312" id="Cmmi10-6d"/>
      <path d="
M11.8125 -25
L11.8125 75
L25.4844 75
L25.4844 71
L15.8281 71
L15.8281 -21
L25.4844 -21
L25.4844 -25
z
" id="Cmr10-5b"/>
      <path d="
M6.59375 0
Q5.60938 0 5.60938 1.125
Q5.60938 1.51562 5.90625 1.8125
L30.5156 29.7812
L5.90625 65.1875
Q5.60938 65.4844 5.60938 65.7188
L5.60938 67.3906
Q5.60938 67.6719 5.92188 67.9844
Q6.25 68.3125 6.59375 68.3125
L63.7188 68.3125
L66.5 45.4062
L63.625 45.4062
Q62.75 52.5469 60.7656 56.4688
Q58.7969 60.4062 55.5469 62.2031
Q52.2969 64.0156 48.1719 64.4062
Q44.0469 64.7969 36.0781 64.7969
L17.4844 64.7969
L38.375 34.9062
Q38.625 34.1875 38.625 34.1875
Q38.625 33.5938 38.375 33.5
L12.9844 4.59375
L35.7969 4.59375
Q43.75 4.59375 47.9219 4.98438
Q52.0938 5.375 55.4062 7.15625
Q58.7344 8.9375 60.7656 12.9688
Q62.7969 17 63.625 24.0312
L66.5 24.0312
L63.7188 0
z
" id="Cmr10-a7"/>
      <path id="DejaVuSans-20"/>
      <path d="
M35.2031 -1.125
L11.625 61.625
Q10.75 63.7188 8.25 64.25
Q5.76562 64.7969 1.90625 64.7969
L1.90625 68.3125
L29.3906 68.3125
L29.3906 64.7969
Q21.0938 64.7969 21.0938 62.2031
Q21.1406 62.0625 21.1562 61.9375
Q21.1875 61.8125 21.1875 61.625
L40.375 10.5938
L58.5 58.8906
Q58.6875 59.2812 58.6875 60.1094
Q58.6875 62.5469 56.4375 63.6719
Q54.2031 64.7969 51.4219 64.7969
L51.4219 68.3125
L73 68.3125
L73 64.7969
Q69.2344 64.7969 66.375 63.4062
Q63.5312 62.0156 62.3125 58.8906
L39.7031 -1.125
Q39.4062 -2.20312 38.0938 -2.20312
L36.8125 -2.20312
Q35.5 -2.20312 35.2031 -1.125" id="Cmr10-56"/>
      <path d="
M23 10.6875
Q26.6094 6.29688 31.8125 3.79688
Q37.0156 1.3125 42.6719 1.3125
Q48.25 1.3125 52.7812 4.14062
Q57.3281 6.98438 57.3281 12.2031
L57.3281 20.6094
Q57.3281 23.7812 44.8281 23.7812
L44.8281 27.2969
L73.4844 27.2969
L73.4844 23.7812
Q70.3125 23.7812 68.4531 23.2344
Q66.6094 22.7031 66.6094 20.6094
L66.6094 0.875
Q66.6094 0.53125 66.3281 0.265625
Q66.0625 0 65.7188 0
Q64.7969 0 62.625 2.1875
Q60.4531 4.39062 59.1875 6.10938
Q56.7344 1.90625 51.5156 -0.140625
Q46.2969 -2.20312 40.5781 -2.20312
Q30.8594 -2.20312 22.875 2.79688
Q14.8906 7.8125 10.25 16.1875
Q5.60938 24.5625 5.60938 34.1875
Q5.60938 41.2656 8.29688 47.9531
Q10.9844 54.6406 15.7969 59.7188
Q20.6094 64.7969 27 67.6562
Q33.4062 70.5156 40.5781 70.5156
Q45.75 70.5156 50.3594 68.2812
Q54.9844 66.0625 58.5938 62.0156
L64.4062 70.2188
Q64.9844 70.5156 65.0938 70.5156
L65.8281 70.5156
Q66.1094 70.5156 66.3594 70.2656
Q66.6094 70.0156 66.6094 69.6719
L66.6094 42.6719
Q66.6094 41.7969 65.8281 41.7969
L64.0156 41.7969
Q63.0938 41.7969 63.0938 42.6719
Q63.0938 45.5625 61.9375 49.125
Q60.7969 52.6875 59.0156 55.875
Q57.2344 59.0781 54.8906 61.5312
Q49.2656 67 42 67
Q36.4219 67 31.3438 64.5
Q26.2656 62.0156 22.7969 57.625
Q19.1406 52.9375 17.7188 46.9531
Q16.3125 40.9688 16.3125 34.1875
Q16.3125 18.8438 23 10.6875" id="Cmr10-47"/>
      <path d="
M24.9062 -1.125
Q18.7969 -1.125 13.6875 2.07812
Q8.59375 5.28125 5.6875 10.625
Q2.78125 15.9688 2.78125 21.9219
Q2.78125 27.7812 5.4375 33.0469
Q8.10938 38.3281 12.8594 41.5781
Q17.625 44.8281 23.4844 44.8281
Q28.0781 44.8281 31.4688 43.2812
Q34.8594 41.75 37.0625 39.0156
Q39.2656 36.2812 40.375 32.5625
Q41.5 28.8594 41.5 24.4219
Q41.5 23.0938 40.4844 23.0938
L11.5312 23.0938
L11.5312 22.0156
Q11.5312 13.7188 14.875 7.76562
Q18.2188 1.8125 25.7812 1.8125
Q28.8594 1.8125 31.4688 3.17188
Q34.0781 4.54688 36 6.98438
Q37.9375 9.42188 38.625 12.2031
Q38.7188 12.5469 38.9844 12.8125
Q39.2656 13.0938 39.5938 13.0938
L40.4844 13.0938
Q41.5 13.0938 41.5 11.8125
Q40.0938 6.15625 35.4062 2.51562
Q30.7188 -1.125 24.9062 -1.125
M11.625 25.5938
L34.4219 25.5938
Q34.4219 29.3438 33.375 33.2031
Q32.3281 37.0625 29.875 39.625
Q27.4375 42.1875 23.4844 42.1875
Q17.8281 42.1875 14.7188 36.8906
Q11.625 31.5938 11.625 25.5938" id="Cmr10-65"/>
      <path d="
M7.51562 0
Q6.6875 0 6.14062 0.578125
Q5.60938 1.17188 5.60938 2
Q5.60938 2.73438 6.14062 3.35938
Q6.6875 4 7.51562 4
L36.9219 4
L36.9219 31.2969
L7.51562 31.2969
Q6.6875 31.2969 6.14062 31.9219
Q5.60938 32.5625 5.60938 33.2969
Q5.60938 34.0312 6.14062 34.6562
Q6.6875 35.2969 7.51562 35.2969
L36.9219 35.2969
L36.9219 64.7969
Q36.9219 65.5781 37.5 66.0938
Q38.0938 66.6094 38.9219 66.6094
Q39.5938 66.6094 40.25 66.0938
Q40.9219 65.5781 40.9219 64.7969
L40.9219 35.2969
L70.3125 35.2969
Q71.0469 35.2969 71.5781 34.6562
Q72.125 34.0312 72.125 33.2969
Q72.125 32.5625 71.5781 31.9219
Q71.0469 31.2969 70.3125 31.2969
L40.9219 31.2969
L40.9219 4
L70.3125 4
Q71.0469 4 71.5781 3.35938
Q72.125 2.73438 72.125 2
Q72.125 1.17188 71.5781 0.578125
Q71.0469 0 70.3125 0
z
" id="Cmsy10-a7"/>
     </defs>
     <g transform="translate(148.05 281.928125)scale(0.15 -0.15)">
      <use xlink:href="#Cmmi10-6d"/>
      <use transform="translate(87.79296875 -25.509375)scale(0.7)" xlink:href="#Cmr10-a7"/>
      <use transform="translate(146.9484375 4.4528125)scale(0.49)" xlink:href="#Cmsy10-a7"/>
      <use transform="translate(138.344726562 -43.3659375)scale(0.49)" xlink:href="#Cmr10-31"/>
      <use transform="translate(200.041523437 0.0)" xlink:href="#Cmr10-5b"/>
      <use transform="translate(227.727070312 0.0)" xlink:href="#Cmr10-47"/>
      <use transform="translate(306.145039063 0.0)" xlink:href="#Cmr10-65"/>
      <use transform="translate(350.529804688 0.0)" xlink:href="#Cmr10-56"/>
      <use transform="translate(425.529804688 0.0)" xlink:href="#Cmr10-5d"/>
      <use transform="translate(453.215351563 0.0)" xlink:href="#DejaVuSans-20"/>
     </g>
    </g>
   </g>
   <g id="matplotlib.axis_2">
    <g id="ytick_1">
     <g id="line2d_18">
      <defs>
       <path d="
M0 0
L4 0" id="m728421d6d4" style="stroke:#000000;stroke-width:0.5;"/>
      </defs>
      <g>
       <use style="stroke:#000000;stroke-width:0.5;" x="45.0" xlink:href="#m728421d6d4" y="252.0"/>
      </g>
     </g>
     <g id="line2d_19">
      <defs>
       <path d="
M0 0
L-4 0" id="mcb0005524f" style="stroke:#000000;stroke-width:0.5;"/>
      </defs>
      <g>
       <use style="stroke:#000000;stroke-width:0.5;" x="324.0" xlink:href="#mcb0005524f" y="252.0"/>
      </g>
     </g>
     <g id="text_10">
      <!-- 0.0 -->
      <defs>
       <path d="
M10.6875 12.4062
L21 12.4062
L21 0
L10.6875 0
z
" id="DejaVuSans-2e"/>
      </defs>
      <g transform="translate(26.4203125 254.759375)scale(0.1 -0.1)">
       <use xlink:href="#DejaVuSans-30"/>
       <use x="63.623046875" xlink:href="#DejaVuSans-2e"/>
       <use x="95.41015625" xlink:href="#DejaVuSans-30"/>
      </g>
     </g>
    </g>
    <g id="ytick_2">
     <g id="line2d_20">
      <g>
       <use style="stroke:#000000;stroke-width:0.5;" x="45.0" xlink:href="#m728421d6d4" y="207.36"/>
      </g>
     </g>
     <g id="line2d_21">
      <g>
       <use style="stroke:#000000;stroke-width:0.5;" x="324.0" xlink:href="#mcb0005524f" y="207.36"/>
      </g>
     </g>
     <g id="text_11">
      <!-- 0.2 -->
      <g transform="translate(26.7578125 210.119375)scale(0.1 -0.1)">
       <use xlink:href="#DejaVuSans-30"/>
       <use x="63.623046875" xlink:href="#DejaVuSans-2e"/>
       <use x="95.41015625" xlink:href="#DejaVuSans-32"/>
      </g>
     </g>
    </g>
    <g id="ytick_3">
     <g id="line2d_22">
      <g>
       <use style="stroke:#000000;stroke-width:0.5;" x="45.0" xlink:href="#m728421d6d4" y="162.72"/>
      </g>
     </g>
     <g id="line2d_23">
      <g>
       <use style="stroke:#000000;stroke-width:0.5;" x="324.0" xlink:href="#mcb0005524f" y="162.72"/>
      </g>
     </g>
     <g id="text_12">
      <!-- 0.4 -->
      <g transform="translate(26.3171875 165.479375)scale(0.1 -0.1)">
       <use xlink:href="#DejaVuSans-30"/>
       <use x="63.623046875" xlink:href="#DejaVuSans-2e"/>
       <use x="95.41015625" xlink:href="#DejaVuSans-34"/>
      </g>
     </g>
    </g>
    <g id="ytick_4">
     <g id="line2d_24">
      <g>
       <use style="stroke:#000000;stroke-width:0.5;" x="45.0" xlink:href="#m728421d6d4" y="118.08"/>
      </g>
     </g>
     <g id="line2d_25">
      <g>
       <use style="stroke:#000000;stroke-width:0.5;" x="324.0" xlink:href="#mcb0005524f" y="118.08"/>
      </g>
     </g>
     <g id="text_13">
      <!-- 0.6 -->
      <g transform="translate(26.3859375 120.839375)scale(0.1 -0.1)">
       <use xlink:href="#DejaVuSans-30"/>
       <use x="63.623046875" xlink:href="#DejaVuSans-2e"/>
       <use x="95.41015625" xlink:href="#DejaVuSans-36"/>
      </g>
     </g>
    </g>
    <g id="ytick_5">
     <g id="line2d_26">
      <g>
       <use style="stroke:#000000;stroke-width:0.5;" x="45.0" xlink:href="#m728421d6d4" y="73.44"/>
      </g>
     </g>
     <g id="line2d_27">
      <g>
       <use style="stroke:#000000;stroke-width:0.5;" x="324.0" xlink:href="#mcb0005524f" y="73.44"/>
      </g>
     </g>
     <g id="text_14">
      <!-- 0.8 -->
      <defs>
       <path d="
M31.7812 34.625
Q24.75 34.625 20.7188 30.8594
Q16.7031 27.0938 16.7031 20.5156
Q16.7031 13.9219 20.7188 10.1562
Q24.75 6.39062 31.7812 6.39062
Q38.8125 6.39062 42.8594 10.1719
Q46.9219 13.9688 46.9219 20.5156
Q46.9219 27.0938 42.8906 30.8594
Q38.875 34.625 31.7812 34.625
M21.9219 38.8125
Q15.5781 40.375 12.0312 44.7188
Q8.5 49.0781 8.5 55.3281
Q8.5 64.0625 14.7188 69.1406
Q20.9531 74.2188 31.7812 74.2188
Q42.6719 74.2188 48.875 69.1406
Q55.0781 64.0625 55.0781 55.3281
Q55.0781 49.0781 51.5312 44.7188
Q48 40.375 41.7031 38.8125
Q48.8281 37.1562 52.7969 32.3125
Q56.7812 27.4844 56.7812 20.5156
Q56.7812 9.90625 50.3125 4.23438
Q43.8438 -1.42188 31.7812 -1.42188
Q19.7344 -1.42188 13.25 4.23438
Q6.78125 9.90625 6.78125 20.5156
Q6.78125 27.4844 10.7812 32.3125
Q14.7969 37.1562 21.9219 38.8125
M18.3125 54.3906
Q18.3125 48.7344 21.8438 45.5625
Q25.3906 42.3906 31.7812 42.3906
Q38.1406 42.3906 41.7188 45.5625
Q45.3125 48.7344 45.3125 54.3906
Q45.3125 60.0625 41.7188 63.2344
Q38.1406 66.4062 31.7812 66.4062
Q25.3906 66.4062 21.8438 63.2344
Q18.3125 60.0625 18.3125 54.3906" id="DejaVuSans-38"/>
      </defs>
      <g transform="translate(26.440625 76.199375)scale(0.1 -0.1)">
       <use xlink:href="#DejaVuSans-30"/>
       <use x="63.623046875" xlink:href="#DejaVuSans-2e"/>
       <use x="95.41015625" xlink:href="#DejaVuSans-38"/>
      </g>
     </g>
    </g>
    <g id="ytick_6">
     <g id="line2d_28">
      <g>
       <use style="stroke:#000000;stroke-width:0.5;" x="45.0" xlink:href="#m728421d6d4" y="28.8"/>
      </g>
     </g>
     <g id="line2d_29">
      <g>
       <use style="stroke:#000000;stroke-width:0.5;" x="324.0" xlink:href="#mcb0005524f" y="28.8"/>
      </g>
     </g>
     <g id="text_15">
      <!-- 1.0 -->
      <g transform="translate(26.859375 31.559375)scale(0.1 -0.1)">
       <use xlink:href="#DejaVuSans-31"/>
       <use x="63.623046875" xlink:href="#DejaVuSans-2e"/>
       <use x="95.41015625" xlink:href="#DejaVuSans-30"/>
      </g>
     </g>
    </g>
    <g id="text_16">
     <!-- ${\mathcal{B}_{e}} + {\mathcal{B}_{\mu}}$  -->
     <defs>
      <path d="
M2.78125 -18.7969
Q2.78125 -18.2188 2.875 -18.0156
L17.5781 41.0156
Q18.0156 42.4375 19.1562 43.3125
Q20.3125 44.1875 21.7812 44.1875
Q23.0469 44.1875 23.9219 43.4219
Q24.8125 42.6719 24.8125 41.4062
Q24.8125 41.1094 24.7812 40.9375
Q24.75 40.7656 24.7031 40.5781
L18.7969 17.1875
Q17.8281 13.0312 17.8281 10.0156
Q17.8281 6.29688 19.5781 3.90625
Q21.3438 1.51562 24.9062 1.51562
Q32.1719 1.51562 37.7031 10.5938
Q37.75 10.6875 37.7656 10.7344
Q37.7969 10.7969 37.7969 10.8906
L45.0156 39.8906
Q45.3594 41.2188 46.5781 42.1562
Q47.7969 43.1094 49.2188 43.1094
Q50.3906 43.1094 51.2969 42.3281
Q52.2031 41.5469 52.2031 40.2812
Q52.2031 39.7031 52.0938 39.5
L44.9219 10.6875
Q44.1875 7.85938 44.1875 5.8125
Q44.1875 1.51562 47.125 1.51562
Q50.25 1.51562 51.8281 5.375
Q53.4219 9.23438 54.5938 14.7031
Q54.7812 15.2812 55.4219 15.2812
L56.5938 15.2812
Q56.9844 15.2812 57.25 14.9688
Q57.5156 14.6562 57.5156 14.3125
Q55.7656 7.32812 53.6875 3.09375
Q51.6094 -1.125 46.9219 -1.125
Q43.6094 -1.125 41.0469 0.78125
Q38.4844 2.6875 37.7031 5.90625
Q35.2031 2.78125 31.8594 0.828125
Q28.5156 -1.125 24.8125 -1.125
Q18.5625 -1.125 14.9844 1.8125
L9.90625 -18.4062
Q9.625 -19.8281 8.45312 -20.7031
Q7.28125 -21.5781 5.8125 -21.5781
Q4.59375 -21.5781 3.6875 -20.8125
Q2.78125 -20.0625 2.78125 -18.7969" id="Cmmi10-b9"/>
      <path d="
M7.51562 23
Q6.6875 23 6.14062 23.625
Q5.60938 24.2656 5.60938 25
Q5.60938 25.7344 6.14062 26.3594
Q6.6875 27 7.51562 27
L36.9219 27
L36.9219 56.5
Q36.9219 57.2812 37.5 57.7812
Q38.0938 58.2969 38.9219 58.2969
Q39.6562 58.2969 40.2812 57.7812
Q40.9219 57.2812 40.9219 56.5
L40.9219 27
L70.3125 27
Q71.0469 27 71.5781 26.3594
Q72.125 25.7344 72.125 25
Q72.125 24.2656 71.5781 23.625
Q71.0469 23 70.3125 23
L40.9219 23
L40.9219 -6.5
Q40.9219 -7.28125 40.2812 -7.78125
Q39.6562 -8.29688 38.9219 -8.29688
Q38.0938 -8.29688 37.5 -7.78125
Q36.9219 -7.28125 36.9219 -6.5
L36.9219 23
z
" id="Cmr10-2b"/>
      <path d="
M20.125 -1.125
Q15.3281 -1.125 11.7344 1.35938
Q8.15625 3.85938 6.26562 8.07812
Q4.39062 12.3125 4.39062 17
Q4.39062 24.125 7.98438 30.3906
Q11.5781 36.6719 17.7188 40.4219
Q23.875 44.1875 30.9062 44.1875
Q35.2031 44.1875 38.4062 41.9688
Q41.6094 39.75 41.6094 35.5938
Q41.6094 29.8281 37.0156 27.0156
Q32.4219 24.2188 26.6562 23.5625
Q20.9062 22.9062 13.9219 22.9062
L13.625 22.9062
Q12.0156 16.9375 12.0156 12.7031
Q12.0156 8.25 14.0625 4.875
Q16.1094 1.51562 20.3125 1.51562
Q26.2656 1.51562 31.75 4.25
Q37.25 6.98438 40.7188 11.8125
Q41.0156 12.1094 41.5 12.1094
Q42 12.1094 42.5 11.5469
Q43.0156 10.9844 43.0156 10.5
Q43.0156 10.1094 42.8281 9.90625
Q39.1562 4.78125 32.9531 1.82812
Q26.7656 -1.125 20.125 -1.125
M14.2031 25.4844
Q20.0156 25.4844 24.9531 26.0156
Q29.8906 26.5625 33.8906 28.7344
Q37.8906 30.9062 37.8906 35.5
Q37.8906 37.3594 36.8594 38.75
Q35.8438 40.1406 34.2031 40.875
Q32.5625 41.6094 30.8125 41.6094
Q26.5625 41.6094 23.1719 39.3125
Q19.7812 37.0156 17.5781 33.3281
Q15.375 29.6406 14.2031 25.4844" id="Cmmi10-65"/>
      <path d="
M3.71875 -2.20312
Q2.98438 -1.8125 2.98438 -1.42188
Q2.98438 -1.125 3.07812 -0.875
Q6.39062 5.32812 9 13.25
Q11.625 21.1875 13.5781 29.8594
Q15.5312 38.5312 16.8906 46.6094
Q18.2656 54.6875 19.3906 63.1875
L16.4062 61.7188
Q14.8906 60.9375 13.375 60.7969
L12.8906 60.7969
Q12.2031 61.1406 12.2031 61.625
Q12.2031 63.2812 16.1094 65.4844
L23.5781 69.2812
Q25.6875 70.4062 27.2969 70.5156
L27.875 70.5156
Q28.6094 70.2656 28.6094 69.5781
Q27.5938 61.9219 26.5156 55.4219
Q29.0469 58.6406 32.0781 61.2969
Q35.1094 63.9688 38.6875 66.0938
Q42.2812 68.2188 46.2344 69.4062
Q50.2031 70.6094 54 70.6094
L54.5938 70.6094
Q59.375 70.6094 62.8906 67.8438
Q66.4062 65.0938 66.4062 60.4062
Q66.4062 53.9062 60.7656 48.9219
Q55.125 43.9531 47.4062 40.4844
Q54 39.3125 58.2969 34.9375
Q62.5938 30.5625 62.5938 24.125
Q62.5938 18.2656 59.375 13.375
Q56.1562 8.5 50.875 5
Q45.6094 1.51562 39.5312 -0.34375
Q33.4531 -2.20312 27.9844 -2.20312
L27.3906 -2.20312
Q23.4375 -2.20312 19.6719 -0.5625
Q15.9219 1.07812 13.625 4.10938
Q13.375 4.4375 13.375 4.6875
Q13.375 6.25 16.25 7.9375
Q19.1406 9.625 21.0938 9.8125
L21.5781 9.8125
Q21.9219 9.67188 23.7969 7.89062
Q25.6875 6.10938 27 5.42188
Q30.5156 3.71875 34.7188 3.71875
Q40.0938 3.71875 44.3281 5.46875
Q48.5781 7.23438 51.1406 10.8438
Q53.7188 14.4531 53.7188 19.8281
Q53.7188 24.6094 51.1719 28.0312
Q48.6406 31.4531 44.4375 33.2344
Q40.2344 35.0156 35.6875 35.0156
Q34.0312 35.0156 31 34.625
L30.4219 34.625
Q30.0312 34.8125 29.8594 34.9531
Q29.6875 35.1094 29.6875 35.4062
Q29.6875 36.5312 31.7812 38.0938
Q33.7969 39.5469 37.6719 40.9375
Q41.5469 42.3281 46.7969 44.3594
Q52.0469 46.3906 54.7812 49.125
Q57.5156 51.8594 57.5156 56.1094
Q57.5156 58.7344 56.0781 60.7188
Q54.6406 62.7031 52.2656 63.7031
Q49.9062 64.7031 47.4062 64.7031
Q41.8438 64.7031 37.8438 61.0781
Q33.8438 57.4688 30.3281 51.4219
Q26.9062 45.4062 24.2969 38.1562
Q21.6875 30.9062 19.6719 22.7969
Q17.1875 12.75 11.8125 2.39062
Q10.8438 0.640625 8.5625 -0.671875
Q6.29688 -2 4.20312 -2.20312
z
" id="Cmsy10-42"/>
     </defs>
     <g transform="translate(15.1671875 165.9)rotate(-90.0)scale(0.15 -0.15)">
      <use transform="translate(0.0 0.390625)" xlink:href="#Cmsy10-42"/>
      <use transform="translate(65.576171875 -25.11875)scale(0.7)" xlink:href="#Cmmi10-65"/>
      <use transform="translate(115.673828125 0.390625)" xlink:href="#Cmr10-2b"/>
      <use transform="translate(199.732421875 0.390625)" xlink:href="#Cmsy10-42"/>
      <use transform="translate(265.30859375 -25.11875)scale(0.7)" xlink:href="#Cmmi10-b9"/>
      <use transform="translate(307.452148438 0.390625)" xlink:href="#DejaVuSans-20"/>
     </g>
    </g>
   </g>
  </g>
 </g>
 <defs>
  <clipPath id="pf61a67d692">
   <rect height="223.2" width="279.0" x="45.0" y="28.8"/>
  </clipPath>
 </defs>
</svg>
