<?xml version="1.0" encoding="UTF-8" standalone="no"?>
<svg
   xmlns:dc="http://purl.org/dc/elements/1.1/"
   xmlns:cc="http://creativecommons.org/ns#"
   xmlns:rdf="http://www.w3.org/1999/02/22-rdf-syntax-ns#"
   xmlns:svg="http://www.w3.org/2000/svg"
   xmlns="http://www.w3.org/2000/svg"
   xmlns:sodipodi="http://sodipodi.sourceforge.net/DTD/sodipodi-0.dtd"
   xmlns:inkscape="http://www.inkscape.org/namespaces/inkscape"
   width="1072pt"
   version="1.1"
   height="392pt"
   viewBox="0 0 1072 392"
   id="svg2"
   inkscape:version="0.48.5 r10040"
   sodipodi:docname="3loop_nu_mass.svg">
  <metadata
     id="metadata225">
    <rdf:RDF>
      <cc:Work
         rdf:about="">
        <dc:format>image/svg+xml</dc:format>
        <dc:type
           rdf:resource="http://purl.org/dc/dcmitype/StillImage" />
      </cc:Work>
    </rdf:RDF>
  </metadata>
  <sodipodi:namedview
     pagecolor="#ffffff"
     bordercolor="#666666"
     borderopacity="1"
     objecttolerance="10"
     gridtolerance="10"
     guidetolerance="10"
     inkscape:pageopacity="0"
     inkscape:pageshadow="2"
     inkscape:window-width="1366"
     inkscape:window-height="768"
     id="namedview223"
     showgrid="false"
     inkscape:zoom="0.87761194"
     inkscape:cx="670"
     inkscape:cy="245"
     inkscape:window-x="0"
     inkscape:window-y="0"
     inkscape:window-maximized="1"
     inkscape:current-layer="svg2" />
  <defs
     id="defs4">
    <clipPath
       id="Clip0">
      <path
         d="M0 0 L1072 0 L1072 392 L0 392 L0 0 Z"
         transform="translate(0, 0)"
         id="path7" />
    </clipPath>
  </defs>
  <g
     id="Background">
    <g
       id="Group1"
       clip-path="url(#Clip0)">
      <path
         style="fill:none;stroke:#000000; stroke-width:3.24; stroke-linecap:round; stroke-linejoin:round; stroke-dasharray:none;"
         d="M0 0 L126.216 0 "
         transform="translate(2.34961, 336.207)"
         id="path11" />
      <path
         style="fill:#000000; fill-rule:nonzero;stroke:none;"
         d="M0 21.128 L39.4267 10.566 L0 0 "
         transform="translate(53.2432, 325.642)"
         id="path13" />
      <path
         style="fill:none;stroke:#000000; stroke-width:3.24; stroke-linecap:round; stroke-linejoin:round; stroke-dasharray:none;"
         d="M0 0 L126.216 0 "
         transform="translate(142.912, 336.207)"
         id="path15" />
      <path
         style="fill:#000000; fill-rule:nonzero;stroke:none;"
         d="M0 21.128 L39.431 10.566 L0 0 "
         transform="translate(193.801, 325.642)"
         id="path17" />
      <path
         style="fill:none;stroke:#000000; stroke-width:3.24; stroke-linecap:round; stroke-linejoin:round; stroke-dasharray:none;"
         d="M0 9.346 L11.444 0 "
         transform="translate(141.295, 322.321)"
         id="path19" />
      <path
         style="fill:none;stroke:#000000; stroke-width:3.24; stroke-linecap:round; stroke-linejoin:round; stroke-dasharray:none;"
         d="M0 9.345 L11.444 0 "
         transform="translate(164.18, 303.631)"
         id="path21" />
      <path
         style="fill:none;stroke:#000000; stroke-width:3.24; stroke-linecap:round; stroke-linejoin:round; stroke-dasharray:none;"
         d="M0 9.349 L11.444 0 "
         transform="translate(187.066, 284.939)"
         id="path23" />
      <path
         style="fill:none;stroke:#000000; stroke-width:3.24; stroke-linecap:round; stroke-linejoin:round; stroke-dasharray:none;"
         d="M0 9.349 L11.448 0 "
         transform="translate(209.947, 266.252)"
         id="path25" />
      <path
         style="fill:none;stroke:#000000; stroke-width:3.24; stroke-linecap:round; stroke-linejoin:round; stroke-dasharray:none;"
         d="M0 9.346 L11.445 0 "
         transform="translate(232.836, 247.563)"
         id="path27" />
      <path
         style="fill:none;stroke:#000000; stroke-width:3.24; stroke-linecap:round; stroke-linejoin:round; stroke-dasharray:none;"
         d="M0 9.349 L11.445 0 "
         transform="translate(255.721, 228.873)"
         id="path29" />
      <path
         style="fill:none;stroke:#000000; stroke-width:3.24; stroke-linecap:round; stroke-linejoin:round; stroke-dasharray:none;"
         d="M0 9.346 L11.445 0 "
         transform="translate(278.606, 210.185)"
         id="path31" />
      <path
         style="fill:none;stroke:#000000; stroke-width:3.24; stroke-linecap:round; stroke-linejoin:round; stroke-dasharray:none;"
         d="M0 9.349 L11.448 0 "
         transform="translate(301.488, 191.494)"
         id="path33" />
      <path
         style="fill:none;stroke:#000000; stroke-width:3.24; stroke-linecap:round; stroke-linejoin:round; stroke-dasharray:none;"
         d="M0 9.346 L11.448 0 "
         transform="translate(324.373, 172.806)"
         id="path35" />
      <path
         style="fill:none;stroke:#000000; stroke-width:3.24; stroke-linecap:round; stroke-linejoin:round; stroke-dasharray:none;"
         d="M0 9.342 L11.441 0 "
         transform="translate(347.266, 154.115)"
         id="path37" />
      <path
         style="fill:none;stroke:#000000; stroke-width:3.24; stroke-linecap:round; stroke-linejoin:round; stroke-dasharray:none;"
         d="M0 9.342 L11.441 0 "
         transform="translate(370.151, 135.428)"
         id="path39" />
      <path
         style="fill:none;stroke:#000000; stroke-width:3.24; stroke-linecap:round; stroke-linejoin:round; stroke-dasharray:none;"
         d="M0 9.342 L11.441 0 "
         transform="translate(393.036, 116.736)"
         id="path41" />
      <path
         style="fill:none;stroke:#000000; stroke-width:3.24; stroke-linecap:round; stroke-linejoin:round; stroke-dasharray:none;"
         d="M0 9.3422 L11.437 0 "
         transform="translate(415.921, 98.0488)"
         id="path43" />
      <path
         style="fill:none;stroke:#000000; stroke-width:3.24; stroke-linecap:round; stroke-linejoin:round; stroke-dasharray:none;"
         d="M0 9.3457 L11.438 0 "
         transform="translate(438.806, 79.3574)"
         id="path45" />
      <path
         style="fill:none;stroke:#000000; stroke-width:3.24; stroke-linecap:round; stroke-linejoin:round; stroke-dasharray:none;"
         d="M0 9.3418 L11.438 0 "
         transform="translate(461.691, 60.6699)"
         id="path47" />
      <path
         style="fill:none;stroke:#000000; stroke-width:3.24; stroke-linecap:round; stroke-linejoin:round; stroke-dasharray:none;"
         d="M0 9.3428 L11.438 0 "
         transform="translate(484.577, 41.9785)"
         id="path49" />
      <path
         style="fill:none;stroke:#000000; stroke-width:3.24; stroke-linecap:round; stroke-linejoin:round; stroke-dasharray:none;"
         d="M0 9.3418 L11.437 0 "
         transform="translate(507.462, 23.291)"
         id="path51" />
      <path
         style="fill:none;stroke:#000000; stroke-width:3.24; stroke-linecap:round; stroke-linejoin:round; stroke-dasharray:none;"
         d="M0 0 L126.216 0 "
         transform="translate(269.128, 336.207)"
         id="path53" />
      <path
         style="fill:#000000; fill-rule:nonzero;stroke:none;"
         d="M0 21.128 L39.424 10.566 L0 0 "
         transform="translate(320.021, 325.642)"
         id="path55" />
      <path
         style="fill:#ff0000;stroke:#ff0000;stroke-width:3.24000000000000021;stroke-linecap:round;stroke-linejoin:round;stroke-dasharray:none"
         d="M0 0 L126.216 0 "
         transform="translate(409.686, 336.207)"
         id="path57" />
      <path
         style="fill:#ff0000;stroke:#ff0000;stroke-width:3.24000000000000021;stroke-linecap:round;stroke-linejoin:round;stroke-dasharray:none"
         d="M0 13.061 L5.332 0 "
         transform="translate(405.225, 316.5)"
         id="path59" />
      <path
         style="fill:#ff0000;stroke:#ff0000;stroke-width:3.24000000000000021;stroke-linecap:round;stroke-linejoin:round;stroke-dasharray:none"
         d="M0 13.068 L5.332 0 "
         transform="translate(415.889, 290.371)"
         id="path61" />
      <path
         style="fill:#ff0000;stroke:#ff0000;stroke-width:3.24000000000000021;stroke-linecap:round;stroke-linejoin:round;stroke-dasharray:none"
         d="M0 13.061 L5.332 0 "
         transform="translate(426.552, 264.25)"
         id="path63" />
      <path
         style="fill:#ff0000;stroke:#ff0000;stroke-width:3.24000000000000021;stroke-linecap:round;stroke-linejoin:round;stroke-dasharray:none"
         d="M0 13.064 L5.332 0 "
         transform="translate(437.219, 238.122)"
         id="path65" />
      <path
         style="fill:#ff0000;stroke:#ff0000;stroke-width:3.24000000000000021;stroke-linecap:round;stroke-linejoin:round;stroke-dasharray:none"
         d="M0 13.064 L5.335 0 "
         transform="translate(447.879, 211.996)"
         id="path67" />
      <path
         style="fill:#ff0000;stroke:#ff0000;stroke-width:3.24000000000000021;stroke-linecap:round;stroke-linejoin:round;stroke-dasharray:none"
         d="M0 13.061 L5.332 0 "
         transform="translate(458.545, 185.871)"
         id="path69" />
      <path
         style="fill:#ff0000;stroke:#ff0000;stroke-width:3.24000000000000021;stroke-linecap:round;stroke-linejoin:round;stroke-dasharray:none"
         d="M0 13.064 L5.332 0 "
         transform="translate(469.208, 159.742)"
         id="path71" />
      <path
         style="fill:#ff0000;stroke:#ff0000;stroke-width:3.24000000000000021;stroke-linecap:round;stroke-linejoin:round;stroke-dasharray:none"
         d="M0 13.064 L5.332 0 "
         transform="translate(479.871, 133.617)"
         id="path73" />
      <path
         style="fill:#ff0000;stroke:#ff0000;stroke-width:3.24000000000000021;stroke-linecap:round;stroke-linejoin:round;stroke-dasharray:none"
         d="M0 13.061 L5.328 0 "
         transform="translate(490.538, 107.491)"
         id="path75" />
      <path
         style="fill:#ff0000;stroke:#ff0000;stroke-width:3.24000000000000021;stroke-linecap:round;stroke-linejoin:round;stroke-dasharray:none"
         d="M0 13.0635 L5.332 0 "
         transform="translate(501.202, 81.3623)"
         id="path77" />
      <path
         style="fill:#ff0000;stroke:#ff0000;stroke-width:3.24000000000000021;stroke-linecap:round;stroke-linejoin:round;stroke-dasharray:none"
         d="M0 13.0635 L5.335 0 "
         transform="translate(511.861, 55.2383)"
         id="path79" />
      <path
         style="fill:#ff0000;stroke:#ff0000;stroke-width:3.24000000000000021;stroke-linecap:round;stroke-linejoin:round;stroke-dasharray:none"
         d="M0 13.0606 L5.332 0 "
         transform="translate(522.528, 29.1123)"
         id="path81" />
      <path
         style="fill:#ff0000;stroke:#ff0000;stroke-width:3.24000000000000021;stroke-linecap:round;stroke-linejoin:round;stroke-dasharray:none"
         d="M0 0 L126.216 0 "
         transform="translate(535.902, 336.207)"
         id="path83" />
      <path
         style="fill:none;stroke:#000000; stroke-width:3.24; stroke-linecap:round; stroke-linejoin:round; stroke-dasharray:none;"
         d="M0 0 L126.216 0 "
         transform="translate(676.464, 336.207)"
         id="path85" />
      <path
         style="fill:#000000; fill-rule:nonzero;stroke:none;"
         d="M0 21.128 L39.427 10.566 L0 0 "
         transform="translate(727.357, 325.642)"
         id="path87" />
      <path
         style="fill:#ff0000;stroke:#ff0000;stroke-width:3.24000000000000021;stroke-linecap:round;stroke-linejoin:round;stroke-dasharray:none"
         d="M5.332 13.064 L0 0 "
         transform="translate(661.247, 316.501)"
         id="path89" />
      <path
         style="fill:#ff0000;stroke:#ff0000;stroke-width:3.24000000000000021;stroke-linecap:round;stroke-linejoin:round;stroke-dasharray:none"
         d="M5.335 13.068 L0 0 "
         transform="translate(650.584, 290.371)"
         id="path91" />
      <path
         style="fill:#ff0000;stroke:#ff0000;stroke-width:3.24000000000000021;stroke-linecap:round;stroke-linejoin:round;stroke-dasharray:none"
         d="M5.332 13.061 L0 0 "
         transform="translate(639.92, 264.25)"
         id="path93" />
      <path
         style="fill:#ff0000;stroke:#ff0000;stroke-width:3.24000000000000021;stroke-linecap:round;stroke-linejoin:round;stroke-dasharray:none"
         d="M5.332 13.064 L0 0 "
         transform="translate(629.257, 238.122)"
         id="path95" />
      <path
         style="fill:#ff0000;stroke:#ff0000;stroke-width:3.24000000000000021;stroke-linecap:round;stroke-linejoin:round;stroke-dasharray:none"
         d="M5.332 13.064 L0 0 "
         transform="translate(618.593, 211.996)"
         id="path97" />
      <path
         style="fill:#ff0000;stroke:#ff0000;stroke-width:3.24000000000000021;stroke-linecap:round;stroke-linejoin:round;stroke-dasharray:none"
         d="M5.328 13.061 L0 0 "
         transform="translate(607.931, 185.871)"
         id="path99" />
      <path
         style="fill:#ff0000;stroke:#ff0000;stroke-width:3.24000000000000021;stroke-linecap:round;stroke-linejoin:round;stroke-dasharray:none"
         d="M5.335 13.064 L0 0 "
         transform="translate(597.264, 159.742)"
         id="path101" />
      <path
         style="fill:#ff0000;stroke:#ff0000;stroke-width:3.24000000000000021;stroke-linecap:round;stroke-linejoin:round;stroke-dasharray:none"
         d="M5.335 13.064 L0 0 "
         transform="translate(586.601, 133.617)"
         id="path103" />
      <path
         style="fill:#ff0000;stroke:#ff0000;stroke-width:3.24000000000000021;stroke-linecap:round;stroke-linejoin:round;stroke-dasharray:none"
         d="M5.332 13.061 L0 0 "
         transform="translate(575.937, 107.491)"
         id="path105" />
      <path
         style="fill:#ff0000;stroke:#ff0000;stroke-width:3.24000000000000021;stroke-linecap:round;stroke-linejoin:round;stroke-dasharray:none"
         d="M5.332 13.0635 L0 0 "
         transform="translate(565.274, 81.3623)"
         id="path107" />
      <path
         style="fill:#ff0000;stroke:#ff0000;stroke-width:3.24000000000000021;stroke-linecap:round;stroke-linejoin:round;stroke-dasharray:none"
         d="M5.331 13.0635 L0 0 "
         transform="translate(554.612, 55.2383)"
         id="path109" />
      <path
         style="fill:#ff0000;stroke:#ff0000;stroke-width:3.24000000000000021;stroke-linecap:round;stroke-linejoin:round;stroke-dasharray:none"
         d="M5.328 13.0606 L0 0 "
         transform="translate(543.948, 29.1123)"
         id="path111" />
      <path
         style="fill:none;stroke:#000000; stroke-width:3.24; stroke-linecap:round; stroke-linejoin:round; stroke-dasharray:none;"
         d="M0 0 L126.216 0 "
         transform="translate(802.68, 336.207)"
         id="path113" />
      <path
         style="fill:#000000; fill-rule:nonzero;stroke:none;"
         d="M0 21.128 L39.427 10.566 L0 0 "
         transform="translate(853.57, 325.642)"
         id="path115" />
      <path
         style="fill:none;stroke:#000000; stroke-width:3.24; stroke-linecap:round; stroke-linejoin:round; stroke-dasharray:none;"
         d="M0 0 L126.218 0 "
         transform="translate(943.242, 336.207)"
         id="path117" />
      <path
         style="fill:#000000; fill-rule:nonzero;stroke:none;"
         d="M0 21.128 L39.428 10.566 L0 0 "
         transform="translate(994.132, 325.642)"
         id="path119" />
      <path
         style="fill:none;stroke:#000000; stroke-width:3.24; stroke-linecap:round; stroke-linejoin:round; stroke-dasharray:none;"
         d="M11.448 9.346 L0 0 "
         transform="translate(919.065, 322.321)"
         id="path121" />
      <path
         style="fill:none;stroke:#000000; stroke-width:3.24; stroke-linecap:round; stroke-linejoin:round; stroke-dasharray:none;"
         d="M11.448 9.349 L0 0 "
         transform="translate(896.179, 303.63)"
         id="path123" />
      <path
         style="fill:none;stroke:#000000; stroke-width:3.24; stroke-linecap:round; stroke-linejoin:round; stroke-dasharray:none;"
         d="M11.448 9.346 L0 0 "
         transform="translate(873.294, 284.942)"
         id="path125" />
      <path
         style="fill:none;stroke:#000000; stroke-width:3.24; stroke-linecap:round; stroke-linejoin:round; stroke-dasharray:none;"
         d="M11.448 9.349 L0 0 "
         transform="translate(850.409, 266.252)"
         id="path127" />
      <path
         style="fill:none;stroke:#000000; stroke-width:3.24; stroke-linecap:round; stroke-linejoin:round; stroke-dasharray:none;"
         d="M11.444 9.346 L0 0 "
         transform="translate(827.527, 247.563)"
         id="path129" />
      <path
         style="fill:none;stroke:#000000; stroke-width:3.24; stroke-linecap:round; stroke-linejoin:round; stroke-dasharray:none;"
         d="M11.445 9.349 L0 0 "
         transform="translate(804.641, 228.873)"
         id="path131" />
      <path
         style="fill:none;stroke:#000000; stroke-width:3.24; stroke-linecap:round; stroke-linejoin:round; stroke-dasharray:none;"
         d="M11.445 9.346 L0 0 "
         transform="translate(781.756, 210.185)"
         id="path133" />
      <path
         style="fill:none;stroke:#000000; stroke-width:3.24; stroke-linecap:round; stroke-linejoin:round; stroke-dasharray:none;"
         d="M11.445 9.349 L0 0 "
         transform="translate(758.871, 191.494)"
         id="path135" />
      <path
         style="fill:none;stroke:#000000; stroke-width:3.24; stroke-linecap:round; stroke-linejoin:round; stroke-dasharray:none;"
         d="M11.445 9.346 L0 0 "
         transform="translate(735.986, 172.806)"
         id="path137" />
      <path
         style="fill:none;stroke:#000000; stroke-width:3.24; stroke-linecap:round; stroke-linejoin:round; stroke-dasharray:none;"
         d="M11.441 9.346 L0 0 "
         transform="translate(713.101, 154.115)"
         id="path139" />
      <path
         style="fill:none;stroke:#000000; stroke-width:3.24; stroke-linecap:round; stroke-linejoin:round; stroke-dasharray:none;"
         d="M11.441 9.342 L0 0 "
         transform="translate(690.216, 135.428)"
         id="path141" />
      <path
         style="fill:none;stroke:#000000; stroke-width:3.24; stroke-linecap:round; stroke-linejoin:round; stroke-dasharray:none;"
         d="M11.441 9.342 L0 0 "
         transform="translate(667.33, 116.736)"
         id="path143" />
      <path
         style="fill:none;stroke:#000000; stroke-width:3.24; stroke-linecap:round; stroke-linejoin:round; stroke-dasharray:none;"
         d="M11.441 9.3422 L0 0 "
         transform="translate(644.445, 98.0488)"
         id="path145" />
      <path
         style="fill:none;stroke:#000000; stroke-width:3.24; stroke-linecap:round; stroke-linejoin:round; stroke-dasharray:none;"
         d="M11.441 9.3457 L0 0 "
         transform="translate(621.56, 79.3574)"
         id="path147" />
      <path
         style="fill:none;stroke:#000000; stroke-width:3.24; stroke-linecap:round; stroke-linejoin:round; stroke-dasharray:none;"
         d="M11.441 9.3418 L0 0 "
         transform="translate(598.675, 60.6699)"
         id="path149" />
      <path
         style="fill:none;stroke:#000000; stroke-width:3.24; stroke-linecap:round; stroke-linejoin:round; stroke-dasharray:none;"
         d="M11.441 9.3428 L0 0 "
         transform="translate(575.79, 41.9785)"
         id="path151" />
      <path
         style="fill:none;stroke:#000000; stroke-width:3.24; stroke-linecap:round; stroke-linejoin:round; stroke-dasharray:none;"
         d="M11.441 9.3418 L0 0 "
         transform="translate(552.905, 23.291)"
         id="path153" />
      <path
         style="fill:#000000; fill-rule:nonzero;stroke:none;"
         d="M14.346 7.175 C14.346 5.27 13.59 3.445 12.244 2.102 C10.901 0.756 9.076 0 7.171 0 C5.27 0 3.445 0.756 2.099 2.102 C0.756 3.445 0 5.27 0 7.175 C0 9.076 0.756 10.901 2.099 12.244 C3.445 13.59 5.27 14.346 7.171 14.346 C9.076 14.346 10.901 13.59 12.244 12.244 C13.59 10.901 14.346 9.076 14.346 7.175 "
         transform="translate(128.566, 329.032)"
         id="path155" />
      <path
         style="fill:none;stroke:#000000; stroke-width:3.24; stroke-linecap:round; stroke-linejoin:round; stroke-dasharray:none;"
         d="M14.346 7.174 C14.346 5.27 13.59 3.444 12.243 2.102 C10.9 0.756 9.075 0 7.171 0 C5.27 0 3.445 0.756 2.099 2.102 C0.756 3.445 0 5.27 0 7.174 C0 9.075 0.756 10.9 2.099 12.243 C3.445 13.589 5.27 14.346 7.171 14.346 C9.075 14.346 10.901 13.59 12.243 12.243 C13.589 10.9 14.346 9.075 14.346 7.174 Z"
         transform="translate(128.566, 329.033)"
         id="path157" />
      <path
         style="fill:#000000; fill-rule:nonzero;stroke:none;"
         d="M8.91 8.91 L17.816 0 L8.91 8.91 L0 0 L8.91 8.91 L0 17.82 L8.91 8.91 L17.816 17.82 "
         transform="translate(260.218, 327.297)"
         id="path159" />
      <path
         style="fill:none;stroke:#000000; stroke-width:3.24; stroke-linecap:round; stroke-linejoin:round; stroke-dasharray:none;"
         d="M8.91 8.91 L17.816 0 L8.91 8.91 L0 0 L8.91 8.91 L0 17.82 L8.91 8.91 L17.816 17.82 L8.91 8.91 Z"
         transform="translate(260.218, 327.297)"
         id="path161" />
      <path
         style="fill:#000000; fill-rule:nonzero;stroke:none;"
         d="M14.342 7.175 C14.342 5.27 13.59 3.445 12.243 2.102 C10.897 0.756 9.072 0 7.171 0 C5.27 0 3.445 0.756 2.099 2.102 C0.753 3.445 0 5.27 0 7.175 C0 9.076 0.752 10.901 2.099 12.244 C3.445 13.59 5.27 14.346 7.171 14.346 C9.072 14.346 10.897 13.59 12.243 12.244 C13.589 10.901 14.342 9.076 14.342 7.175 "
         transform="translate(395.344, 329.032)"
         id="path163" />
      <path
         style="fill:none;stroke:#000000; stroke-width:3.24; stroke-linecap:round; stroke-linejoin:round; stroke-dasharray:none;"
         d="M14.342 7.174 C14.342 5.27 13.59 3.444 12.243 2.102 C10.897 0.756 9.072 0 7.171 0 C5.27 0 3.445 0.756 2.098 2.102 C0.752 3.445 0 5.27 0 7.174 C0 9.075 0.752 10.9 2.098 12.243 C3.444 13.589 5.27 14.346 7.171 14.346 C9.072 14.346 10.897 13.59 12.243 12.243 C13.589 10.9 14.342 9.075 14.342 7.174 Z"
         transform="translate(395.344, 329.033)"
         id="path165" />
      <path
         style="fill:#000000; fill-rule:nonzero;stroke:none;"
         d="M14.346 7.175 C14.346 5.27 13.59 3.449 12.244 2.102 C10.902 0.756 9.076 0 7.171 0 C5.271 0 3.445 0.756 2.103 2.102 C0.757 3.448 0 5.27 0 7.175 C0 9.076 0.756 10.901 2.103 12.247 C3.446 13.59 5.271 14.346 7.171 14.346 C9.076 14.346 10.902 13.59 12.244 12.247 C13.59 10.901 14.346 9.076 14.346 7.175 "
         transform="translate(662.118, 329.032)"
         id="path167" />
      <path
         style="fill:none;stroke:#000000; stroke-width:3.24; stroke-linecap:round; stroke-linejoin:round; stroke-dasharray:none;"
         d="M14.346 7.174 C14.346 5.27 13.59 3.448 12.243 2.102 C10.9 0.756 9.075 0 7.171 0 C5.27 0 3.445 0.756 2.102 2.102 C0.756 3.448 0 5.27 0 7.174 C0 9.075 0.756 10.9 2.102 12.247 C3.445 13.59 5.27 14.346 7.171 14.346 C9.076 14.346 10.902 13.59 12.243 12.247 C13.589 10.901 14.346 9.075 14.346 7.174 Z"
         transform="translate(662.118, 329.033)"
         id="path169" />
      <path
         style="fill:#000000; fill-rule:nonzero;stroke:none;"
         d="M8.91 8.91 L17.82 0 L8.91 8.91 L0 0 L8.91 8.91 L0 17.82 L8.91 8.91 L17.82 17.82 "
         transform="translate(793.77, 327.297)"
         id="path171" />
      <path
         style="fill:none;stroke:#000000; stroke-width:3.24; stroke-linecap:round; stroke-linejoin:round; stroke-dasharray:none;"
         d="M8.91 8.91 L17.82 0 L8.91 8.91 L0 0 L8.91 8.91 L0 17.82 L8.91 8.91 L17.82 17.82 L8.91 8.91 Z"
         transform="translate(793.77, 327.297)"
         id="path173" />
      <path
         style="fill:#000000; fill-rule:nonzero;stroke:none;"
         d="M14.346 7.175 C14.346 5.27 13.59 3.445 12.243 2.102 C10.897 0.756 9.075 0 7.171 0 C5.27 0 3.445 0.756 2.099 2.102 C0.756 3.445 0 5.27 0 7.175 C0 9.076 0.756 10.901 2.099 12.244 C3.445 13.59 5.27 14.346 7.171 14.346 C9.075 14.346 10.897 13.59 12.243 12.244 C13.589 10.901 14.346 9.076 14.346 7.175 "
         transform="translate(928.896, 329.032)"
         id="path175" />
      <path
         style="fill:none;stroke:#000000; stroke-width:3.24; stroke-linecap:round; stroke-linejoin:round; stroke-dasharray:none;"
         d="M14.345 7.174 C14.345 5.27 13.589 3.444 12.243 2.102 C10.897 0.756 9.075 0 7.171 0 C5.27 0 3.445 0.756 2.099 2.102 C0.756 3.445 0 5.27 0 7.174 C0 9.075 0.756 10.9 2.099 12.243 C3.445 13.589 5.27 14.346 7.171 14.346 C9.076 14.346 10.897 13.59 12.243 12.243 C13.589 10.9 14.345 9.075 14.345 7.174 Z"
         transform="translate(928.897, 329.033)"
         id="path177" />
      <path
         style="fill:#000000; fill-rule:nonzero;stroke:none;"
         d="M14.346 7.17383 C14.346 5.26953 13.59 3.44434 12.244 2.10156 C10.901 0.75586 9.076 0 7.171 0 C5.27 0 3.445 0.75586 2.099 2.10156 C0.756 3.44434 0 5.26953 0 7.17383 C0 9.07418 0.756 10.8994 2.099 12.2471 C3.445 13.5899 5.27 14.3447 7.171 14.3447 C9.075 14.3447 10.901 13.5889 12.244 12.2471 C13.59 10.9004 14.346 9.07518 14.346 7.17383 "
         transform="translate(528.731, 2.23242)"
         id="path179" />
      <path
         style="fill:none;stroke:#000000; stroke-width:3.24; stroke-linecap:round; stroke-linejoin:round; stroke-dasharray:none;"
         d="M14.345 7.1748 C14.345 5.2705 13.589 3.44433 12.243 2.10253 C10.9 0.75488 9.075 0 7.171 0 C5.27 0 3.445 0.75488 2.099 2.10253 C0.756 3.44531 0 5.2705 0 7.1748 C0 9.07515 0.756 10.9003 2.099 12.2461 C3.445 13.5899 5.27 14.3448 7.171 14.3448 C9.075 14.3448 10.901 13.5899 12.243 12.2461 C13.589 10.9003 14.345 9.07515 14.345 7.1748 Z"
         transform="translate(528.732, 2.23145)"
         id="path181" />
      <path
         style="fill:#000000; fill-rule:nonzero;stroke:none;"
         d="M6.1416 0.395 C6.1416 0.359 6.1416 0.001 5.6748 0.001 C4.8477 0.001 2.2266 0.287 1.294 0.359 C1.0069 0.395 0.6114 0.431 0.6114 1.078 C0.6114 1.509 0.9336 1.509 1.4737 1.509 C3.1973 1.509 3.2686 1.761 3.2686 2.12 C3.2686 2.372 2.8379 4.059 2.586 5.029 L0.3946 13.827 C0.251 14.366 0 15.371 0 15.443 C0 15.838 0.3584 15.874 0.5752 15.874 L1.0781 15.874 C3.5918 15.443 7.5059 14.043 11.2061 10.594 C15.9473 6.177 16.9151 1.292 16.9151 0.969 C16.9151 0.358 16.4834 0 15.874 0 C15.5869 0 14.7598 0.144 14.4717 1.184 C12.1739 9.337 6.7139 13.359 2.6201 14.687 L6.1397 0.393 "
         transform="translate(47.7031, 357.325)"
         id="path183" />
      <path
         style="fill:#000000; fill-rule:nonzero;stroke:none;"
         d="M8.5987 2.058 C8.8242 1.154 8.8985 0.904 11.2051 0.904 C11.9815 0.904 12.2324 0.904 12.2324 0.352 C12.2324 0.327 12.208 0 11.8057 0 C11.2285 0 10.5528 0.05 9.9512 0.075 C9.3242 0.1 8.5733 0.1 7.9463 0.1 C7.419 0.1 6.7432 0.075 6.2158 0.075 C5.6885 0.075 5.0879 0 4.586 0 C4.4356 0 4.0586 0 4.0586 0.552 C4.0586 0.904 4.3614 0.904 4.8623 0.904 C4.8867 0.904 5.3643 0.904 5.8135 0.954 C6.3408 1.004 6.3907 1.054 6.3907 1.304 C6.3907 1.354 6.3907 1.481 6.291 1.856 L2.958 15.165 C2.7305 16.017 2.6807 16.218 0.752 16.218 C0.3252 16.218 0 16.218 0 16.743 C0 17.12 0.2998 17.12 0.752 17.12 L13.3574 17.12 C13.9854 17.12 14.0108 17.095 14.211 16.618 C14.461 15.941 16.3408 11.079 16.3408 10.879 C16.3408 10.804 16.291 10.527 15.916 10.527 C15.6143 10.527 15.5635 10.654 15.4141 11.054 C14.461 13.435 13.3574 16.218 8.7715 16.218 L5.9385 16.218 C5.1621 16.218 5.1367 16.191 5.1367 15.966 C5.1367 15.941 5.1367 15.816 5.2373 15.439 L8.5957 2.056 "
         transform="translate(65.3281, 361.38)"
         id="path185" />
      <path
         style="fill:#000000; fill-rule:nonzero;stroke:none;"
         d="M5.064 7.577 C6.106 7.577 8.764 7.505 10.559 6.752 C13.073 5.674 13.253 3.555 13.253 3.052 C13.253 1.472 11.887 0 9.409 0 C5.423 0 0 3.483 0 9.769 C0 13.431 2.119 16.269 5.639 16.269 C10.775 16.269 13.792 12.461 13.792 12.031 C13.792 11.815 13.576 11.564 13.361 11.564 C13.181 11.564 13.109 11.636 12.894 11.923 C10.057 15.478 6.142 15.478 5.711 15.478 C2.909 15.478 2.586 12.461 2.586 11.312 C2.586 10.881 2.622 9.768 3.161 7.576 L5.064 7.576 L5.064 7.577 Z M3.376 6.788 C4.776 1.329 8.476 0.79 9.409 0.79 C11.098 0.79 12.067 1.832 12.067 3.052 C12.067 6.788 6.322 6.788 4.848 6.788 L3.376 6.788 Z"
         transform="translate(188.552, 365.726)"
         id="path187" />
      <path
         style="fill:#000000; fill-rule:nonzero;stroke:none;"
         d="M9.422 1.452 C8.519 1.604 8.144 2.305 8.144 2.857 C8.144 3.534 8.671 3.784 9.121 3.784 C9.673 3.784 10.551 3.384 10.551 2.181 C10.551 0.476 8.595 0 7.242 0 C3.483 0 0 3.459 0 6.942 C0 9.098 1.503 11.303 4.636 11.303 C8.872 11.303 10.852 8.822 10.852 8.472 C10.852 8.322 10.627 8.045 10.425 8.045 C10.275 8.045 10.225 8.095 10.025 8.297 C8.07 10.602 5.138 10.602 4.686 10.602 C2.881 10.602 2.08 9.374 2.08 7.821 C2.08 7.094 2.43 4.362 3.735 2.632 C4.687 1.404 5.99 0.702 7.243 0.702 C7.595 0.702 8.798 0.752 9.424 1.454 "
         transform="translate(205.156, 357.448)"
         id="path189" />
      <path
         style="fill:#000000; fill-rule:nonzero;stroke:none;"
         d="M8.599 2.057 C8.824 1.154 8.899 0.904 11.205 0.904 C11.982 0.904 12.233 0.904 12.233 0.352 C12.233 0.327 12.208 0 11.806 0 C11.229 0 10.553 0.05 9.951 0.075 C9.324 0.1 8.573 0.1 7.946 0.1 C7.419 0.1 6.743 0.075 6.216 0.075 C5.689 0.075 5.088 0 4.586 0 C4.436 0 4.059 0 4.059 0.552 C4.059 0.904 4.361 0.904 4.862 0.904 C4.887 0.904 5.364 0.904 5.814 0.954 C6.341 1.004 6.391 1.054 6.391 1.304 C6.391 1.354 6.391 1.481 6.291 1.856 L2.958 15.165 C2.731 16.017 2.681 16.218 0.752 16.218 C0.325 16.218 0 16.218 0 16.743 C0 17.12 0.3 17.12 0.752 17.12 L13.358 17.12 C13.985 17.12 14.011 17.095 14.211 16.618 C14.461 15.941 16.341 11.079 16.341 10.879 C16.341 10.804 16.291 10.527 15.916 10.527 C15.614 10.527 15.564 10.654 15.414 11.054 C14.461 13.435 13.358 16.218 8.772 16.218 L5.939 16.218 C5.162 16.218 5.137 16.191 5.137 15.966 C5.137 15.941 5.137 15.816 5.237 15.439 L8.596 2.056 "
         transform="translate(205.328, 374.28)"
         id="path191" />
      <path
         style="fill:#000000; fill-rule:nonzero;stroke:none;"
         d="M21.296 0.358 C21.296 0.25 21.224 0 20.902 0 C20.722 0 20.686 0.036 20.255 0.537 L18.532 2.584 C17.598 0.896 15.73 0 13.396 0 C8.835 0 4.524 4.13 4.524 8.475 C4.524 11.384 6.429 13.036 8.26 13.575 L12.102 14.58 C13.432 14.903 15.407 15.442 15.407 18.388 C15.407 21.621 12.462 24.996 8.943 24.996 C6.643 24.996 2.657 24.205 2.657 19.752 C2.657 18.891 2.837 18.029 2.873 17.813 C2.909 17.669 2.945 17.633 2.945 17.561 C2.945 17.202 2.693 17.166 2.514 17.166 C2.334 17.166 2.262 17.202 2.155 17.31 C2.011 17.454 0 25.643 0 25.751 C0 25.967 0.18 26.11 0.395 26.11 C0.575 26.11 0.611 26.073 1.042 25.571 L2.801 23.524 C4.345 25.607 6.787 26.11 8.871 26.11 C13.755 26.11 17.993 21.333 17.993 16.88 C17.993 14.402 16.771 13.18 16.232 12.677 C15.407 11.852 14.868 11.708 11.671 10.882 C10.882 10.666 9.588 10.307 9.265 10.235 C8.296 9.912 7.074 8.871 7.074 6.968 C7.074 4.059 9.947 1.005 13.36 1.005 C16.34 1.005 18.532 2.549 18.532 6.572 C18.532 7.72 18.388 8.367 18.388 8.583 C18.388 8.619 18.388 8.942 18.818 8.942 C19.177 8.942 19.213 8.834 19.357 8.223 L21.296 0.357 "
         transform="translate(299.968, 130.781)"
         id="path193" />
      <path
         style="fill:#000000; fill-rule:nonzero;stroke:none;"
         d="M5.064 7.577 C6.106 7.577 8.764 7.505 10.559 6.752 C13.073 5.674 13.253 3.555 13.253 3.052 C13.253 1.472 11.887 0 9.409 0 C5.423 0 0 3.483 0 9.769 C0 13.431 2.119 16.269 5.639 16.269 C10.775 16.269 13.792 12.461 13.792 12.031 C13.792 11.815 13.576 11.564 13.361 11.564 C13.181 11.564 13.109 11.636 12.894 11.923 C10.057 15.478 6.142 15.478 5.711 15.478 C2.909 15.478 2.586 12.461 2.586 11.312 C2.586 10.881 2.622 9.768 3.161 7.576 L5.064 7.576 L5.064 7.577 Z M3.376 6.788 C4.776 1.329 8.476 0.79 9.409 0.79 C11.098 0.79 12.067 1.832 12.067 3.052 C12.067 6.788 6.322 6.788 4.848 6.788 L3.376 6.788 Z"
         transform="translate(313.752, 365.726)"
         id="path195" />
      <path
         style="fill:#000000; fill-rule:nonzero;stroke:none;"
         d="M9.422 1.452 C8.519 1.604 8.144 2.305 8.144 2.857 C8.144 3.534 8.671 3.784 9.121 3.784 C9.673 3.784 10.551 3.384 10.551 2.181 C10.551 0.476 8.595 0 7.242 0 C3.483 0 0 3.459 0 6.942 C0 9.098 1.503 11.303 4.636 11.303 C8.872 11.303 10.852 8.822 10.852 8.472 C10.852 8.322 10.627 8.045 10.425 8.045 C10.275 8.045 10.225 8.095 10.025 8.297 C8.07 10.602 5.138 10.602 4.686 10.602 C2.881 10.602 2.08 9.374 2.08 7.821 C2.08 7.094 2.43 4.362 3.735 2.632 C4.687 1.404 5.99 0.702 7.243 0.702 C7.595 0.702 8.798 0.752 9.424 1.454 "
         transform="translate(330.356, 357.448)"
         id="path197" />
      <path
         style="fill:#000000; fill-rule:nonzero;stroke:none;"
         d="M8.572 1.755 C8.747 1.053 8.797 0.978 9.349 0.903 L10.954 0.903 C13.284 0.903 16.167 0.903 16.167 3.484 C16.167 4.512 15.69 6.09 14.512 6.993 C13.485 7.795 11.931 8.196 10.201 8.196 L6.968 8.196 L8.573 1.754 L8.572 1.755 Z M13.108 8.597 C16.091 7.895 18.747 6.091 18.747 3.859 C18.747 1.704 16.191 0 12.556 0 L4.862 0 C4.385 0 4.059 0 4.059 0.552 C4.059 0.904 4.361 0.904 4.862 0.904 C4.887 0.904 5.364 0.904 5.814 0.954 C6.341 1.004 6.391 1.054 6.391 1.304 C6.391 1.354 6.391 1.481 6.291 1.856 L2.958 15.165 C2.756 16.017 2.706 16.218 0.752 16.218 C0.325 16.218 0 16.218 0 16.743 C0 16.995 0.175 17.12 0.402 17.12 C0.877 17.12 1.454 17.045 1.955 17.045 C2.432 17.045 3.158 17.02 3.61 17.02 C4.112 17.02 4.687 17.045 5.213 17.045 C5.74 17.045 6.366 17.12 6.893 17.12 C7.018 17.12 7.42 17.12 7.42 16.593 C7.42 16.218 7.17 16.218 6.593 16.218 C6.191 16.218 6.091 16.218 5.64 16.166 C5.088 16.091 5.088 16.041 5.088 15.791 C5.088 15.766 5.088 15.616 5.188 15.239 L6.768 8.898 L10.176 8.898 C12.332 8.898 13.259 9.975 13.259 11.153 C13.259 11.48 13.034 12.331 12.909 12.908 C12.607 14.061 12.507 14.438 12.507 14.863 C12.507 16.844 14.337 17.621 16.191 17.621 C18.497 17.621 19.5 15.165 19.5 14.713 C19.5 14.638 19.448 14.363 19.073 14.363 C18.746 14.363 18.696 14.538 18.621 14.788 C18.271 15.891 17.343 16.919 16.29 16.919 C15.638 16.919 15.162 16.642 15.162 15.289 C15.162 14.662 15.314 13.359 15.414 12.683 C15.514 12.006 15.514 11.755 15.514 11.505 C15.514 11.203 15.514 10.402 14.812 9.65 C14.335 9.123 13.659 8.798 13.107 8.597 Z"
         transform="translate(330.58, 374.281)"
         id="path199" />
      <path
         style="fill:#ff0000;fill-rule:nonzero;stroke:#ff0000"
         d="M14.474 2.514 C14.726 1.508 14.868 1.294 15.299 1.186 C15.622 1.114 16.808 1.114 17.562 1.114 C21.19 1.114 22.806 1.258 22.806 4.058 C22.806 4.597 22.662 5.999 22.519 6.931 C22.483 7.075 22.411 7.506 22.411 7.614 C22.411 7.83 22.519 8.081 22.842 8.081 C23.237 8.081 23.309 7.793 23.381 7.254 L24.351 1.006 C24.387 0.862 24.421 0.503 24.421 0.395 C24.421 0 24.063 0 23.452 0 L3.519 0 C2.658 0 2.622 0.036 2.371 0.719 L0.216 7.039 C0.18 7.111 0 7.614 0 7.686 C0 7.902 0.18 8.081 0.43 8.081 C0.789 8.081 0.825 7.901 1.041 7.326 C2.98 1.759 3.914 1.113 9.23 1.113 L10.63 1.113 C11.636 1.113 11.636 1.257 11.636 1.543 C11.636 1.759 11.528 2.19 11.492 2.298 L6.68 21.476 C6.357 22.806 6.249 23.199 2.407 23.199 C1.113 23.199 0.898 23.199 0.898 23.882 C0.898 24.313 1.293 24.313 1.509 24.313 C2.479 24.313 3.484 24.241 4.454 24.241 C5.459 24.241 6.501 24.205 7.507 24.205 C8.512 24.205 9.518 24.241 10.487 24.241 C11.529 24.241 12.606 24.313 13.612 24.313 C13.971 24.313 14.403 24.313 14.403 23.594 C14.403 23.199 14.116 23.199 13.181 23.199 C12.284 23.199 11.817 23.199 10.883 23.127 C9.842 23.021 9.555 22.913 9.555 22.338 C9.555 22.302 9.555 22.122 9.699 21.583 L14.476 2.513 "
         transform="translate(424.162, 152.586)"
         id="path201" />
      <path
         style="fill:#000000; fill-rule:nonzero;stroke:none;"
         d="M5.064 7.577 C6.106 7.577 8.764 7.505 10.559 6.752 C13.073 5.674 13.253 3.555 13.253 3.052 C13.253 1.472 11.887 0 9.409 0 C5.423 0 0 3.483 0 9.769 C0 13.431 2.119 16.269 5.639 16.269 C10.775 16.269 13.792 12.461 13.792 12.031 C13.792 11.815 13.576 11.564 13.361 11.564 C13.181 11.564 13.109 11.636 12.894 11.923 C10.057 15.478 6.142 15.478 5.711 15.478 C2.909 15.478 2.586 12.461 2.586 11.312 C2.586 10.881 2.622 9.768 3.161 7.576 L5.064 7.576 L5.064 7.577 Z M3.376 6.788 C4.776 1.329 8.476 0.79 9.409 0.79 C11.098 0.79 12.067 1.832 12.067 3.052 C12.067 6.788 6.322 6.788 4.848 6.788 L3.376 6.788 Z"
         transform="translate(721.052, 357.326)"
         id="path203" />
      <path
         style="fill:#000000; fill-rule:nonzero;stroke:none;"
         d="M8.572 1.755 C8.747 1.053 8.797 0.978 9.349 0.903 L10.954 0.903 C13.284 0.903 16.167 0.903 16.167 3.484 C16.167 4.512 15.69 6.09 14.512 6.993 C13.485 7.795 11.931 8.196 10.201 8.196 L6.968 8.196 L8.573 1.754 L8.572 1.755 Z M13.108 8.597 C16.091 7.895 18.747 6.091 18.747 3.859 C18.747 1.704 16.191 0 12.556 0 L4.862 0 C4.385 0 4.059 0 4.059 0.552 C4.059 0.904 4.361 0.904 4.862 0.904 C4.887 0.904 5.364 0.904 5.814 0.954 C6.341 1.004 6.391 1.054 6.391 1.304 C6.391 1.354 6.391 1.481 6.291 1.856 L2.958 15.165 C2.756 16.017 2.706 16.218 0.752 16.218 C0.325 16.218 0 16.218 0 16.743 C0 16.995 0.175 17.12 0.402 17.12 C0.877 17.12 1.454 17.045 1.955 17.045 C2.432 17.045 3.158 17.02 3.61 17.02 C4.112 17.02 4.687 17.045 5.213 17.045 C5.74 17.045 6.366 17.12 6.893 17.12 C7.018 17.12 7.42 17.12 7.42 16.593 C7.42 16.218 7.17 16.218 6.593 16.218 C6.191 16.218 6.091 16.218 5.64 16.166 C5.088 16.091 5.088 16.041 5.088 15.791 C5.088 15.766 5.088 15.616 5.188 15.239 L6.768 8.898 L10.176 8.898 C12.332 8.898 13.259 9.975 13.259 11.153 C13.259 11.48 13.034 12.331 12.909 12.908 C12.607 14.061 12.507 14.438 12.507 14.863 C12.507 16.844 14.337 17.621 16.191 17.621 C18.497 17.621 19.5 15.165 19.5 14.713 C19.5 14.638 19.448 14.363 19.073 14.363 C18.746 14.363 18.696 14.538 18.621 14.788 C18.271 15.891 17.343 16.919 16.29 16.919 C15.638 16.919 15.162 16.642 15.162 15.289 C15.162 14.662 15.314 13.359 15.414 12.683 C15.514 12.006 15.514 11.755 15.514 11.505 C15.514 11.203 15.514 10.402 14.812 9.65 C14.335 9.123 13.659 8.798 13.107 8.597 Z"
         transform="translate(737.88, 361.381)"
         id="path205" />
      <path
         style="fill:#ff0000;fill-rule:nonzero;stroke:#ff0000"
         d="M14.474 2.514 C14.726 1.508 14.868 1.294 15.299 1.186 C15.622 1.114 16.808 1.114 17.562 1.114 C21.19 1.114 22.806 1.258 22.806 4.058 C22.806 4.597 22.662 5.999 22.519 6.931 C22.483 7.075 22.411 7.506 22.411 7.614 C22.411 7.83 22.519 8.081 22.842 8.081 C23.237 8.081 23.309 7.793 23.381 7.254 L24.351 1.006 C24.387 0.862 24.421 0.503 24.421 0.395 C24.421 0 24.063 0 23.452 0 L3.519 0 C2.658 0 2.622 0.036 2.371 0.719 L0.216 7.039 C0.18 7.111 0 7.614 0 7.686 C0 7.902 0.18 8.081 0.43 8.081 C0.789 8.081 0.825 7.901 1.041 7.326 C2.98 1.759 3.914 1.113 9.23 1.113 L10.63 1.113 C11.636 1.113 11.636 1.257 11.636 1.543 C11.636 1.759 11.528 2.19 11.492 2.298 L6.68 21.476 C6.357 22.806 6.249 23.199 2.407 23.199 C1.113 23.199 0.898 23.199 0.898 23.882 C0.898 24.313 1.293 24.313 1.509 24.313 C2.479 24.313 3.484 24.241 4.454 24.241 C5.459 24.241 6.501 24.205 7.507 24.205 C8.512 24.205 9.518 24.241 10.487 24.241 C11.529 24.241 12.606 24.313 13.612 24.313 C13.971 24.313 14.403 24.313 14.403 23.594 C14.403 23.199 14.116 23.199 13.181 23.199 C12.284 23.199 11.817 23.199 10.883 23.127 C9.842 23.021 9.555 22.913 9.555 22.338 C9.555 22.302 9.555 22.122 9.699 21.583 L14.476 2.513 "
         transform="translate(623.362, 152.586)"
         id="path207" />
      <path
         style="fill:#000000; fill-rule:nonzero;stroke:none;"
         d="M5.064 7.577 C6.106 7.577 8.764 7.505 10.559 6.752 C13.073 5.674 13.253 3.555 13.253 3.052 C13.253 1.472 11.887 0 9.409 0 C5.423 0 0 3.483 0 9.769 C0 13.431 2.119 16.269 5.639 16.269 C10.775 16.269 13.792 12.461 13.792 12.031 C13.792 11.815 13.576 11.564 13.361 11.564 C13.181 11.564 13.109 11.636 12.894 11.923 C10.057 15.478 6.142 15.478 5.711 15.478 C2.909 15.478 2.586 12.461 2.586 11.312 C2.586 10.881 2.622 9.768 3.161 7.576 L5.064 7.576 L5.064 7.577 Z M3.377 6.788 C4.776 1.329 8.476 0.79 9.409 0.79 C11.098 0.79 12.067 1.832 12.067 3.052 C12.067 6.788 6.322 6.788 4.848 6.788 L3.376 6.788 Z"
         transform="translate(848.352, 357.326)"
         id="path209" />
      <path
         style="fill:#000000; fill-rule:nonzero;stroke:none;"
         d="M8.599 2.058 C8.824 1.154 8.899 0.904 11.205 0.904 C11.982 0.904 12.233 0.904 12.233 0.352 C12.233 0.327 12.208 0 11.806 0 C11.229 0 10.553 0.05 9.951 0.075 C9.324 0.1 8.573 0.1 7.946 0.1 C7.419 0.1 6.743 0.075 6.216 0.075 C5.689 0.075 5.088 0 4.586 0 C4.436 0 4.059 0 4.059 0.552 C4.059 0.904 4.361 0.904 4.862 0.904 C4.887 0.904 5.364 0.904 5.814 0.954 C6.341 1.004 6.391 1.054 6.391 1.304 C6.391 1.354 6.391 1.481 6.291 1.856 L2.958 15.165 C2.731 16.017 2.681 16.218 0.752 16.218 C0.325 16.218 0 16.218 0 16.743 C0 17.12 0.3 17.12 0.752 17.12 L13.358 17.12 C13.985 17.12 14.011 17.095 14.211 16.618 C14.461 15.941 16.341 11.079 16.341 10.879 C16.341 10.804 16.291 10.527 15.916 10.527 C15.614 10.527 15.564 10.654 15.414 11.054 C14.461 13.435 13.358 16.218 8.772 16.218 L5.939 16.218 C5.162 16.218 5.137 16.191 5.137 15.966 C5.137 15.941 5.137 15.816 5.237 15.439 L8.596 2.056 "
         transform="translate(865.128, 361.38)"
         id="path211" />
      <path
         style="fill:#000000; fill-rule:nonzero;stroke:none;"
         d="M6.141 0.395 C6.141 0.359 6.141 0.001 5.674 0.001 C4.847 0.001 2.226 0.287 1.293 0.359 C1.006 0.395 0.61 0.431 0.61 1.078 C0.61 1.509 0.933 1.509 1.473 1.509 C3.196 1.509 3.268 1.761 3.268 2.12 C3.268 2.372 2.837 4.059 2.585 5.029 L0.394 13.827 C0.25 14.366 0 15.371 0 15.443 C0 15.838 0.358 15.874 0.574 15.874 L1.077 15.874 C3.591 15.443 7.505 14.043 11.205 10.594 C15.946 6.177 16.916 1.292 16.916 0.969 C16.916 0.358 16.486 0 15.876 0 C15.586 0 14.756 0.144 14.476 1.184 C12.176 9.337 6.713 13.359 2.619 14.687 L6.139 0.393 "
         transform="translate(988.604, 365.725)"
         id="path213" />
      <path
         style="fill:#000000; fill-rule:nonzero;stroke:none;"
         d="M9.42 1.452 C8.52 1.604 8.14 2.305 8.14 2.857 C8.14 3.534 8.67 3.784 9.12 3.784 C9.67 3.784 10.55 3.384 10.55 2.181 C10.55 0.476 8.59 0 7.24 0 C3.48 0 0 3.459 0 6.942 C0 9.098 1.5 11.303 4.63 11.303 C8.87 11.303 10.85 8.822 10.85 8.472 C10.85 8.322 10.62 8.045 10.42 8.045 C10.27 8.045 10.22 8.095 10.02 8.297 C8.07 10.602 5.14 10.602 4.68 10.602 C2.88 10.602 2.08 9.374 2.08 7.821 C2.08 7.094 2.43 4.362 3.73 2.632 C4.69 1.404 5.99 0.702 7.24 0.702 C7.59 0.702 8.8 0.752 9.42 1.454 "
         transform="translate(1008.26, 357.448)"
         id="path215" />
      <path
         style="fill:#000000; fill-rule:nonzero;stroke:none;"
         d="M8.6 2.057 C8.82 1.154 8.9 0.904 11.21 0.904 C11.98 0.904 12.23 0.904 12.23 0.352 C12.23 0.327 12.21 0 11.81 0 C11.23 0 10.55 0.05 9.95 0.075 C9.32 0.1 8.57 0.1 7.95 0.1 C7.42 0.1 6.74 0.075 6.22 0.075 C5.69 0.075 5.09 0 4.59 0 C4.44 0 4.06 0 4.06 0.552 C4.06 0.904 4.36 0.904 4.86 0.904 C4.89 0.904 5.36 0.904 5.81 0.954 C6.34 1.004 6.39 1.054 6.39 1.304 C6.39 1.354 6.39 1.481 6.29 1.856 L2.96 15.165 C2.73 16.017 2.68 16.218 0.75 16.218 C0.33 16.218 0 16.218 0 16.743 C0 17.12 0.3 17.12 0.75 17.12 L13.36 17.12 C13.99 17.12 14.01 17.095 14.21 16.618 C14.46 15.941 16.34 11.079 16.34 10.879 C16.34 10.804 16.29 10.527 15.92 10.527 C15.61 10.527 15.56 10.654 15.41 11.054 C14.46 13.435 13.36 16.218 8.77 16.218 L5.94 16.218 C5.16 16.218 5.14 16.191 5.14 15.966 C5.14 15.941 5.14 15.816 5.24 15.439 L8.6 2.056 "
         transform="translate(1006.23, 374.28)"
         id="path217" />
      <path
         style="fill:#000000; fill-rule:nonzero;stroke:none;"
         d="M21.296 0.358 C21.296 0.25 21.224 0 20.902 0 C20.722 0 20.686 0.036 20.255 0.537 L18.532 2.584 C17.598 0.896 15.73 0 13.396 0 C8.835 0 4.524 4.13 4.524 8.475 C4.524 11.384 6.429 13.036 8.261 13.575 L12.102 14.58 C13.432 14.903 15.407 15.442 15.407 18.388 C15.407 21.621 12.462 24.996 8.943 24.996 C6.643 24.996 2.657 24.205 2.657 19.752 C2.657 18.891 2.837 18.029 2.873 17.813 C2.909 17.669 2.945 17.633 2.945 17.561 C2.945 17.202 2.693 17.166 2.514 17.166 C2.334 17.166 2.262 17.202 2.155 17.31 C2.011 17.454 0 25.643 0 25.751 C0 25.967 0.18 26.11 0.395 26.11 C0.575 26.11 0.611 26.073 1.042 25.571 L2.801 23.524 C4.345 25.607 6.787 26.11 8.871 26.11 C13.755 26.11 17.993 21.333 17.993 16.88 C17.993 14.402 16.771 13.18 16.232 12.677 C15.407 11.852 14.868 11.708 11.671 10.882 C10.882 10.666 9.588 10.307 9.265 10.235 C8.296 9.912 7.074 8.871 7.074 6.968 C7.074 4.059 9.947 1.005 13.36 1.005 C16.34 1.005 18.532 2.549 18.532 6.572 C18.532 7.72 18.388 8.367 18.388 8.583 C18.388 8.619 18.388 8.942 18.818 8.942 C19.178 8.942 19.213 8.834 19.357 8.223 L21.296 0.357 "
         transform="translate(751.468, 130.781)"
         id="path219" />
    </g>
  </g>
  <text
     xml:space="preserve"
     style="font-size:38.39999999999999858px;font-style:normal;font-weight:normal;line-height:125%;letter-spacing:0px;word-spacing:0px;fill:#ff0000;fill-opacity:1;stroke:#ff0000;font-family:Sans"
     x="520.50342"
     y="374.02997"
     id="text3213"
     sodipodi:linespacing="125%"><tspan
       sodipodi:role="line"
       id="tspan3215"
       x="520.50342"
       y="374.02997"
       style="font-style:italic;font-variant:normal;font-weight:normal;font-stretch:normal;font-family:Serif;-inkscape-font-specification:Serif Italic;font-size:38.39999999999999858px;fill:#ff0000;stroke:#ff0000">F</tspan></text>
</svg>
