<?xml version="1.0" encoding="UTF-8" standalone="no"?>
<!-- Created with Inkscape (http://www.inkscape.org/) -->

<svg
   xmlns:dc="http://purl.org/dc/elements/1.1/"
   xmlns:cc="http://creativecommons.org/ns#"
   xmlns:rdf="http://www.w3.org/1999/02/22-rdf-syntax-ns#"
   xmlns:svg="http://www.w3.org/2000/svg"
   xmlns="http://www.w3.org/2000/svg"
   xmlns:xlink="http://www.w3.org/1999/xlink"
   xmlns:sodipodi="http://sodipodi.sourceforge.net/DTD/sodipodi-0.dtd"
   xmlns:inkscape="http://www.inkscape.org/namespaces/inkscape"
   width="1024"
   height="768"
   id="svg2"
   version="1.1"
   inkscape:version="0.48.3.1 r9886"
   sodipodi:docname="brpv3.pdf">
  <sodipodi:namedview
     id="base"
     pagecolor="#ffffff"
     bordercolor="#666666"
     borderopacity="1.0"
     inkscape:pageopacity="0.0"
     inkscape:pageshadow="2"
     inkscape:zoom="0.66666667"
     inkscape:cx="512"
     inkscape:cy="384"
     inkscape:document-units="px"
     inkscape:current-layer="layer3"
     showgrid="false"
     inkscape:window-width="1366"
     inkscape:window-height="710"
     inkscape:window-x="0"
     inkscape:window-y="26"
     inkscape:window-maximized="1" />
  <defs
     id="defs4">
    <path
       sodipodi:nodetypes="ccc"
       inkscape:connector-curvature="0"
       id="path6122"
       d="m 11.808109,458.07656 c 0.46251,69.10829 9.13285,114.92686 70.87248,198.92952 56.420301,56.45886 136.661941,97.92792 212.319311,94.32514"
       style="fill:none;stroke:none" />
    <path
       sodipodi:nodetypes="ccc"
       inkscape:connector-curvature="0"
       id="path6042"
       d="M 274.41726,160.69065 C 324.29736,92.239809 394.43645,63.717027 474.2446,62.489208 577.53477,76.609114 619.57314,114.80096 657.02158,167.59712"
       style="fill:none;stroke:none" />
    <path
       sodipodi:nodetypes="ccc"
       inkscape:connector-curvature="0"
       id="path4239"
       d="m 11.808109,458.07656 c 0.46251,69.10829 9.13285,114.92686 70.87248,198.92952 56.420301,56.45886 136.661941,97.92792 212.319311,94.32514"
       style="fill:none;stroke:none" />
  </defs>
  <metadata
     id="metadata7">
    <rdf:RDF>
      <cc:Work
         rdf:about="">
        <dc:format>image/svg+xml</dc:format>
        <dc:type
           rdf:resource="http://purl.org/dc/dcmitype/StillImage" />
        <dc:title></dc:title>
      </cc:Work>
    </rdf:RDF>
  </metadata>
  <g
     style="display:inline"
     inkscape:label="Layer 1"
     inkscape:groupmode="layer"
     id="layer1"
     transform="translate(0,-284.36218)">
    <g
       id="g3575"
       transform="matrix(1.7242059,0,0,1.724206,-1499.852,-150.28667)">
      <g
         word-spacing="normal"
         letter-spacing="normal"
         font-size-adjust="none"
         font-stretch="normal"
         font-weight="normal"
         font-variant="normal"
         font-style="normal"
         stroke-miterlimit="10.433"
         xml:space="preserve"
         transform="matrix(1.0971429,0,0,-1.0971429,-192,768)"
         id="g3577"
         style="font-style:normal;font-variant:normal;font-weight:normal;font-stretch:normal;letter-spacing:normal;word-spacing:normal;text-anchor:start;fill:none;stroke:#000000;stroke-linecap:butt;stroke-linejoin:miter;stroke-miterlimit:10.43299961;stroke-opacity:1;stroke-dasharray:none;stroke-dashoffset:0"><path
           id="path3579"
           d="m 1035.2,374.69 0.2,0.41 0.3,0.39 0.2,0.38 0.3,0.37 0.1,0.18 0.1,0.17 0.2,0.17 0.1,0.17 0.1,0.16 0.2,0.15 0.1,0.15 0.2,0.15 0.1,0.13 0.2,0.14 0.2,0.12 0.2,0.12 0.2,0.12 0.2,0.1 0.2,0.1 0.2,0.1 0.2,0.08 0.2,0.08 0.2,0.07 0.3,0.06 0.3,0.06 0.2,0.04 0.3,0.04 0.3,0.03 c 0.4,0.04 0.9,0.04 0.9,1 0,0.18 -0.2,0.54 -0.6,0.54 -1.2,0 -2.5,-0.15 -3.8,-0.15 -1.7,0 -3.5,0.15 -5.2,0.15 -0.3,0 -0.9,0 -0.9,-0.95 0,-0.55 0.4,-0.59 0.7,-0.59 1.2,-0.05 3,-0.46 3,-1.94 0,-0.55 -0.3,-0.95 -0.7,-1.66 l -13.4,-23.45 -1.9,24.7 c 0,1 -0.1,2.3 3.5,2.35 0.8,0 1.4,0 1.4,1 0,0.5 -0.6,0.54 -0.8,0.54 -2,0 -4.1,-0.15 -6.1,-0.15 -1.1,0 -4.1,0.15 -5.2,0.15 -0.3,0 -1,0 -1,-1 0,-0.54 0.5,-0.54 1.2,-0.54 2.2,0 2.6,-0.3 2.7,-1.25 l 0.3,-3.83 -12.6,-21.97 -1.9,25.25 c 0,0.59 0,1.75 3.8,1.8 0.5,0 1,0 1,1 0,0.54 -0.6,0.54 -0.7,0.54 -2,0 -4.1,-0.15 -6.1,-0.15 -1.75,0 -3.55,0.15 -5.24,0.15 -0.25,0 -0.91,0 -0.91,-0.95 0,-0.59 0.46,-0.59 1.25,-0.59 2.5,0 2.55,-0.46 2.65,-1.85 l 2.25,-30.44 c 0.04,-0.9 0.09,-1.29 0.79,-1.29 0.59,0 0.74,0.29 1.21,1.04 l 14.6,25.41 1.9,-25.16 c 0.1,-1.04 0.2,-1.29 0.8,-1.29 0.6,0 0.9,0.5 1.2,0.94 z"
           inkscape:connector-curvature="0"
           style="fill:#000000;stroke-width:0" /><path
           id="path3581"
           d="m 1091.6,362.74 0.1,0 0.1,0 0.2,0 0.1,0.01 0,0 0.1,0.01 0.1,0.01 0,0.01 0.1,0.01 0.1,0.01 0,0.02 0.1,0.02 0.1,0.02 0,0.03 0.1,0.02 0,0.03 0.1,0.04 0.1,0.04 0,0.04 0,0.04 0.1,0.05 0,0.03 0,0.03 0,0.03 0,0.03 0.1,0.03 0,0.03 0,0.03 0,0.04 0,0.03 0,0.04 0,0.04 0,0.04 0,0.04 0,0.04 0,0.05 0,0.04 c 0,1 -0.9,1 -1.6,1 h -29.8 c -0.7,0 -1.7,0 -1.7,-1 0,-0.98 1,-0.98 1.7,-0.98 z"
           inkscape:connector-curvature="0"
           style="fill:#000000;stroke-width:0" /><path
           id="path3583"
           d="m 1091.6,353.07 0.1,0 0,0 0.2,0 0.1,0 0.1,0.01 0,0 0.1,0.01 0.1,0.01 0.1,0.01 0,0.01 0.1,0.01 0.1,0.02 0,0.02 0.1,0.02 0,0.03 0.1,0.02 0.1,0.04 0,0.03 0.1,0.04 0,0.04 0,0.05 0.1,0.02 0,0.03 0,0.02 0,0.03 0,0.03 0,0.03 0.1,0.03 0,0.04 0,0.03 0,0.04 0,0.03 0,0.04 0,0.04 0,0.04 0,0.04 0,0.05 0,0.04 0,0.05 c 0,1 -0.9,1 -1.6,1 h -29.8 c -0.7,0 -1.7,0 -1.7,-1 0,-1 1,-1 1.7,-1 z"
           inkscape:connector-curvature="0"
           style="fill:#000000;stroke-width:0" /><path
           id="path3585"
           d="m 1155.6,374.69 0.2,0.41 0.2,0.39 0.3,0.38 0.2,0.37 0.1,0.18 0.2,0.17 0.1,0.17 0.1,0.17 0.2,0.16 0.1,0.15 0.2,0.15 0.1,0.15 0.2,0.13 0.2,0.14 0.1,0.12 0.2,0.12 0.2,0.12 0.2,0.1 0.2,0.1 0.2,0.1 0.2,0.08 0.3,0.08 0.2,0.07 0.2,0.06 0.3,0.06 0.3,0.04 0.3,0.04 0.2,0.03 c 0.5,0.04 1,0.04 1,1 0,0.18 -0.2,0.54 -0.6,0.54 -1.2,0 -2.6,-0.15 -3.8,-0.15 -1.8,0 -3.6,0.15 -5.2,0.15 -0.3,0 -1,0 -1,-0.95 0,-0.55 0.5,-0.59 0.8,-0.59 1.2,-0.05 2.9,-0.46 2.9,-1.94 0,-0.55 -0.2,-0.95 -0.6,-1.66 l -13.5,-23.45 -1.8,24.7 c -0.1,1 -0.2,2.3 3.5,2.35 0.8,0 1.3,0 1.3,1 0,0.5 -0.5,0.54 -0.7,0.54 -2,0 -4.1,-0.15 -6.1,-0.15 -1.2,0 -4.1,0.15 -5.2,0.15 -0.3,0 -1,0 -1,-1 0,-0.54 0.5,-0.54 1.2,-0.54 2.2,0 2.5,-0.3 2.6,-1.25 l 0.3,-3.83 -12.6,-21.97 -1.9,25.25 c 0,0.59 0,1.75 3.8,1.8 0.5,0 1.1,0 1.1,1 0,0.54 -0.6,0.54 -0.7,0.54 -2,0 -4.1,-0.15 -6.1,-0.15 -1.8,0 -3.6,0.15 -5.3,0.15 -0.2,0 -0.9,0 -0.9,-0.95 0,-0.59 0.5,-0.59 1.3,-0.59 2.5,0 2.5,-0.46 2.6,-1.85 l 2.3,-30.44 c 0,-0.9 0,-1.29 0.8,-1.29 0.5,0 0.7,0.29 1.1,1.04 l 14.7,25.41 1.8,-25.16 c 0.1,-1.04 0.2,-1.29 0.8,-1.29 0.7,0 1,0.5 1.2,0.94 z"
           inkscape:connector-curvature="0"
           style="fill:#000000;stroke-width:0" /><path
           id="path3587"
           d="m 1166.5,361.91 0,0.07 -0.1,0.06 0,0.07 0,0.05 0,0.06 -0.1,0.05 0,0.04 0,0.04 -0.1,0.04 0,0.04 0,0.03 -0.1,0.03 0,0.03 0,0.02 -0.1,0.02 0,0.02 0,0.02 -0.1,0.01 0,0.01 -0.1,0.02 0,0 0,0.01 -0.1,0.01 0,0 -0.1,0.01 0,0 -0.1,0 -0.1,0 0,0.01 -0.1,0 0,0 -0.1,0 h -6.1 v -1.25 h 0.8 c 2.7,0 2.8,-0.35 2.8,-1.58 v -17.21 c 0,-0.93 0,-2.51 -3.6,-2.51 v -1.25 c 1.4,0.11 2.8,0.14 4.2,0.14 1.5,0 2.9,-0.03 4.3,-0.14 v 1.25 c -3.6,0 -3.6,1.58 -3.6,2.51 V 361 l 0,0.04 9.1,-21.36 c 0.2,-0.41 0.3,-0.8 0.8,-0.8 0.3,0 0.6,0.11 0.9,0.73 l 9.2,21.78 0,-0.04 v -19.64 c 0,-1.19 0,-1.58 -2.7,-1.58 h -0.9 v -1.25 c 1.7,0.06 3.7,0.14 5.1,0.14 1.4,0 3.4,-0.08 5.1,-0.14 v 1.25 h -0.9 c -2.7,0 -2.8,0.36 -2.8,1.58 v 18.14 c 0,1.19 0.1,1.58 2.8,1.58 h 0.9 v 1.25 h -6.1 c -0.7,0 -1,0 -1.3,-0.69 l -8.4,-19.77 z"
           inkscape:connector-curvature="0"
           style="fill:#000000;stroke-width:0" /><path
           id="path3589"
           d="m 1201.5,353.41 -0.3,0.07 -0.3,0.08 -0.2,0.09 -0.3,0.09 -0.2,0.1 -0.2,0.11 -0.2,0.11 -0.2,0.12 -0.2,0.13 -0.2,0.13 -0.2,0.13 -0.1,0.14 -0.2,0.14 -0.1,0.15 -0.2,0.15 -0.1,0.15 -0.1,0.16 -0.1,0.15 -0.1,0.16 -0.1,0.16 0,0.16 -0.1,0.16 -0.1,0.16 0,0.16 -0.1,0.16 0,0.15 -0.1,0.16 0,0.15 0,0.15 0,0.15 0,0.14 0,0.14 c 0,2.3 2.1,4.48 5.3,4.48 4.7,0 6.7,-3.12 7.3,-6.79 0,-0.52 0.1,-0.69 0.6,-0.69 0.6,0 0.6,0.25 0.6,0.91 v 6.79 c 0,0.6 0,0.91 -0.5,0.91 -0.3,0 -0.4,-0.11 -0.6,-0.5 l -1.3,-1.94 c -2.3,2.33 -5.2,2.44 -6.1,2.44 -4.4,0 -7.6,-3.14 -7.6,-6.66 0,-1.95 0.9,-3.45 2.2,-4.64 1.4,-1.36 2.5,-1.59 6.3,-2.44 3.1,-0.7 3.8,-0.82 4.9,-1.81 0.7,-0.79 1.5,-1.92 1.5,-3.48 0,-2.44 -2,-4.91 -5.4,-4.91 -3.4,0 -8,1.31 -8.3,6.58 0,0.56 0,0.77 -0.6,0.77 -0.6,0 -0.6,-0.24 -0.6,-0.94 v -6.77 c 0,-0.59 0,-0.9 0.5,-0.9 0.3,0 0.4,0.11 0.6,0.42 0.3,0.42 1,1.53 1.3,1.98 2.2,-1.9 4.9,-2.4 7.1,-2.4 4.6,0 7.6,3.45 7.6,7.15 0,3.13 -2.2,6.1 -5.7,6.89 z"
           inkscape:connector-curvature="0"
           style="fill:#000000;stroke-width:0" /><path
           id="path3591"
           d="m 1223.4,353.41 -0.3,0.07 -0.2,0.08 -0.3,0.09 -0.2,0.09 -0.3,0.1 -0.2,0.11 -0.2,0.11 -0.2,0.12 -0.2,0.13 -0.2,0.13 -0.1,0.13 -0.2,0.14 -0.1,0.14 -0.2,0.15 -0.1,0.15 -0.1,0.15 -0.1,0.16 -0.1,0.15 -0.1,0.16 -0.1,0.16 -0.1,0.16 -0.1,0.16 0,0.16 -0.1,0.16 0,0.16 -0.1,0.15 0,0.16 0,0.15 0,0.15 -0.1,0.15 0,0.14 0,0.14 c 0,2.3 2.2,4.48 5.3,4.48 4.7,0 6.7,-3.12 7.3,-6.79 0.1,-0.52 0.1,-0.69 0.6,-0.69 0.6,0 0.6,0.25 0.6,0.91 v 6.79 c 0,0.6 0,0.91 -0.5,0.91 -0.2,0 -0.3,-0.11 -0.5,-0.5 l -1.3,-1.94 c -2.3,2.33 -5.2,2.44 -6.2,2.44 -4.4,0 -7.5,-3.14 -7.5,-6.66 0,-1.95 0.9,-3.45 2.1,-4.64 1.4,-1.36 2.6,-1.59 6.3,-2.44 3.2,-0.7 3.9,-0.82 4.9,-1.81 0.8,-0.79 1.5,-1.92 1.5,-3.48 0,-2.44 -2,-4.91 -5.3,-4.91 -3.4,0 -8.1,1.31 -8.3,6.58 -0.1,0.56 -0.1,0.77 -0.6,0.77 -0.6,0 -0.6,-0.24 -0.6,-0.94 v -6.77 c 0,-0.59 0,-0.9 0.5,-0.9 0.3,0 0.3,0.11 0.5,0.42 0.4,0.42 1.1,1.53 1.3,1.98 2.2,-1.9 4.9,-2.4 7.2,-2.4 4.6,0 7.6,3.45 7.6,7.15 0,3.13 -2.2,6.1 -5.7,6.89 z"
           inkscape:connector-curvature="0"
           style="fill:#000000;stroke-width:0" /><path
           id="path3593"
           d="m 1246.3,361.91 0,0.07 -0.1,0.06 0,0.07 0,0.05 -0.1,0.06 0,0.05 0,0.04 0,0.04 -0.1,0.04 0,0.04 0,0.03 -0.1,0.03 0,0.03 0,0.02 -0.1,0.02 0,0.02 0,0.02 -0.1,0.01 0,0.01 -0.1,0.02 0,0 -0.1,0.01 0,0.01 -0.1,0 0,0.01 -0.1,0 0,0 -0.1,0 0,0.01 -0.1,0 -0.1,0 0,0 h -6.1 v -1.25 h 0.8 c 2.7,0 2.8,-0.35 2.8,-1.58 v -17.21 c 0,-0.93 0,-2.51 -3.6,-2.51 v -1.25 c 1.4,0.11 2.8,0.14 4.2,0.14 1.5,0 2.8,-0.03 4.3,-0.14 v 1.25 c -3.6,0 -3.6,1.58 -3.6,2.51 V 361 l 0,0.04 9.1,-21.36 c 0.2,-0.41 0.3,-0.8 0.9,-0.8 0.2,0 0.5,0.11 0.8,0.73 l 9.2,21.78 0,-0.04 v -19.64 c 0,-1.19 0,-1.58 -2.7,-1.58 h -0.9 v -1.25 c 1.7,0.06 3.7,0.14 5.1,0.14 1.4,0 3.4,-0.08 5,-0.14 v 1.25 h -0.8 c -2.7,0 -2.7,0.36 -2.7,1.58 v 18.14 c 0,1.19 0,1.58 2.7,1.58 h 0.8 v 1.25 h -6 c -0.7,0 -1,0 -1.3,-0.69 l -8.4,-19.77 z"
           inkscape:connector-curvature="0"
           style="fill:#000000;stroke-width:0" /><path
           id="path3595"
           d="m 1306.5,357.89 h 13.9 c 0.7,0 1.7,0 1.7,1 0,1 -1,1 -1.7,1 h -13.9 v 13.96 c 0,0.69 0,1.64 -1,1.64 -0.9,0 -0.9,-0.95 -0.9,-1.64 v -13.96 h -14 c -0.7,0 -1.6,0 -1.6,-1 0,-1 0.9,-1 1.6,-1 h 14 v -13.93 c 0,-0.71 0,-1.66 0.9,-1.66 1,0 1,0.95 1,1.66 z"
           inkscape:connector-curvature="0"
           style="fill:#000000;stroke-width:0" /><path
           id="path3597"
           d="m 1350.8,357.71 0.2,0 0.1,0 0.2,0 0,0.01 0.1,0 0.1,0.01 0,0 0.1,0.01 0.1,0.01 0.1,0.01 0,0.02 0.1,0.01 0,0.02 0.1,0.02 0.1,0.03 0,0.02 0.1,0.03 0,0.04 0.1,0.03 0,0.04 0,0.04 0.1,0.05 0,0.02 0,0.03 0,0.03 0,0.02 0,0.03 0.1,0.03 0,0.03 0,0.04 0,0.03 0,0.03 0,0.04 0,0.03 0,0.04 0,0.04 c 0,0.69 -0.6,0.69 -1.4,0.69 h -8.1 c 1.2,4.23 4,7.12 8.5,7.12 h 1.6 c 0.8,0 1.6,0 1.6,0.86 0,0.69 -0.7,0.69 -1.5,0.69 h -1.7 c -6.5,0 -13.2,-4.98 -13.2,-12.59 0,-5.49 3.7,-9.43 9,-9.43 3.3,0 6.5,1.99 6.5,2.55 0,0.14 -0.1,0.69 -0.5,0.69 -0.1,0 -0.2,0 -0.7,-0.3 -1.5,-1 -3.4,-1.84 -5.2,-1.84 -2.9,0 -5.4,2.09 -5.4,6.48 0,1.74 0.4,3.63 0.6,4.24 z"
           inkscape:connector-curvature="0"
           style="fill:#ff0000;stroke-width:0" /><path
           id="path3599"
           d="m 1367.4,360.66 0,0.05 0,0.06 0,0.05 0,0.05 0,0.06 0,0.06 0,0.05 -0.1,0.06 0,0.05 0,0.06 0,0.06 -0.1,0.05 0,0.05 0,0.06 -0.1,0.05 0,0.05 -0.1,0.05 0,0.04 -0.1,0.05 0,0.04 -0.1,0.04 0,0.04 -0.1,0.04 -0.1,0.03 0,0.03 -0.1,0.02 -0.1,0.02 0,0.02 -0.1,0.02 -0.1,0.01 -0.1,0.01 -0.1,0 c -0.9,0 -1.9,-0.91 -1.9,-1.92 0,-0.6 0.4,-1.33 1.4,-1.33 1,0 1.9,0.98 1.9,1.92 z"
           inkscape:connector-curvature="0"
           style="fill:#ff0000;stroke-width:0" /><path
           id="path3601"
           d="m 1360.3,342.96 0,-0.17 -0.1,-0.17 0,-0.08 0,-0.09 -0.1,-0.09 0,-0.08 0,-0.09 0,-0.1 -0.1,-0.09 0,-0.1 0,-0.09 0,-0.06 0,-0.05 0,-0.05 0,-0.05 0,-0.06 0,-0.05 c 0,-1.64 1.4,-2.95 3.3,-2.95 3.5,0 5,4.79 5,5.32 0,0.46 -0.4,0.46 -0.5,0.46 -0.5,0 -0.6,-0.21 -0.7,-0.6 -0.8,-2.78 -2.3,-4.22 -3.7,-4.22 -0.7,0 -0.9,0.46 -0.9,1.22 0,0.8 0.3,1.47 0.6,2.24 0.3,0.93 0.7,1.87 1.1,2.78 0.3,0.84 1.6,4.01 1.7,4.44 0.1,0.34 0.2,0.76 0.2,1.11 0,1.64 -1.4,2.95 -3.3,2.95 -3.4,0 -5,-4.74 -5,-5.33 0,-0.45 0.4,-0.45 0.6,-0.45 0.4,0 0.5,0.17 0.6,0.56 0.9,3 2.4,4.25 3.7,4.25 0.6,0 0.9,-0.28 0.9,-1.22 0,-0.8 -0.2,-1.33 -1.1,-3.48 z"
           inkscape:connector-curvature="0"
           style="fill:#ff0000;stroke-width:0" /><path
           id="path3603"
           d="m 1391.4,376.58 0.1,0.17 0,0.15 0.1,0.16 0,0.14 0,0.14 0.1,0.13 0,0.12 0.1,0.12 0.1,0.11 0,0.1 0.1,0.1 0.1,0.09 0.1,0.09 0.1,0.08 0.1,0.08 0.1,0.07 0.1,0.06 0.2,0.06 0.1,0.06 0.2,0.05 0.1,0.02 0.1,0.02 0.1,0.02 0.1,0.02 0.1,0.02 0.1,0.02 0.2,0.02 0.1,0.01 0.1,0.02 0.1,0.01 0.2,0.01 0.1,0.01 0.2,0.01 0.1,0.01 0.2,0.01 0.2,0.01 0.1,0.01 0.2,0 0.2,0.01 0.2,0 0.2,0 0.2,0 0.2,0.01 0.2,0 c 1.5,0 1.9,0 1.9,0.95 0,0.59 -0.5,0.59 -0.8,0.59 -1.6,0 -5.7,-0.15 -7.4,-0.15 -1.5,0 -5.1,0.15 -6.6,0.15 -0.3,0 -0.9,0 -0.9,-1 0,-0.54 0.4,-0.54 1.3,-0.54 0.2,0 1.1,0 2,-0.1 0.9,-0.11 1.3,-0.15 1.3,-0.79 0,-0.21 -0.1,-0.36 -0.2,-0.96 l -6.7,-26.75 c -0.5,-1.95 -0.6,-2.34 -4.5,-2.34 -0.9,0 -1.4,0 -1.4,-1 0,-0.55 0.5,-0.55 1.4,-0.55 h 23.1 c 1.1,0 1.2,0 1.5,0.85 l 3.9,10.76 c 0.2,0.55 0.2,0.64 0.2,0.7 0,0.19 -0.1,0.55 -0.6,0.55 -0.4,0 -0.5,-0.25 -0.8,-1.05 -1.7,-4.59 -3.9,-10.26 -12.5,-10.26 h -4.7 c -0.7,0 -0.8,0 -1.1,0.05 -0.5,0.04 -0.6,0.09 -0.6,0.5 0,0.14 0,0.25 0.2,1.14 z"
           inkscape:connector-curvature="0"
           style="fill:#000000;stroke-width:0" /><path
           id="path3605"
           d="m 1418.1,360.66 0,0.05 0,0.06 -0.1,0.05 0,0.05 0,0.06 0,0.06 0,0.05 0,0.06 0,0.05 -0.1,0.06 0,0.06 0,0.05 -0.1,0.05 0,0.06 0,0.05 -0.1,0.05 0,0.05 -0.1,0.04 0,0.05 -0.1,0.04 0,0.04 -0.1,0.04 0,0.04 -0.1,0.03 -0.1,0.03 -0.1,0.02 0,0.02 -0.1,0.02 -0.1,0.02 -0.1,0.01 -0.1,0.01 0,0 c -1,0 -2,-0.91 -2,-1.92 0,-0.6 0.5,-1.33 1.4,-1.33 1,0 2,0.98 2,1.92 z"
           inkscape:connector-curvature="0"
           style="fill:#000000;stroke-width:0" /><path
           id="path3607"
           d="m 1410.9,342.96 0,-0.17 -0.1,-0.17 0,-0.08 0,-0.09 0,-0.09 -0.1,-0.08 0,-0.09 0,-0.1 0,-0.09 0,-0.1 0,-0.09 0,-0.06 -0.1,-0.05 0,-0.05 0,-0.05 0,-0.06 0,-0.05 c 0,-1.64 1.4,-2.95 3.3,-2.95 3.5,0 5.1,4.79 5.1,5.32 0,0.46 -0.5,0.46 -0.6,0.46 -0.5,0 -0.5,-0.21 -0.7,-0.6 -0.8,-2.78 -2.3,-4.22 -3.7,-4.22 -0.7,0 -0.8,0.46 -0.8,1.22 0,0.8 0.2,1.47 0.5,2.24 0.4,0.93 0.8,1.87 1.1,2.78 0.4,0.84 1.6,4.01 1.8,4.44 0.1,0.34 0.2,0.76 0.2,1.11 0,1.64 -1.4,2.95 -3.4,2.95 -3.4,0 -5,-4.74 -5,-5.33 0,-0.45 0.5,-0.45 0.6,-0.45 0.5,0 0.5,0.17 0.6,0.56 0.9,3 2.5,4.25 3.7,4.25 0.6,0 0.9,-0.28 0.9,-1.22 0,-0.8 -0.2,-1.33 -1.1,-3.48 z"
           inkscape:connector-curvature="0"
           style="fill:#000000;stroke-width:0" /><path
           id="path3609"
           d="m 1461.3,376.63 0.1,0.16 0,0.16 0.1,0.15 0,0.14 0,0.14 0.1,0.13 0,0.12 0.1,0.12 0,0.11 0.1,0.1 0,0.09 0.1,0.1 0.1,0.08 0.1,0.08 0,0.07 0.1,0.07 0.1,0.06 0.2,0.06 0.1,0.05 0.1,0.05 0.2,0.05 0,0.02 0.1,0.02 0.1,0.01 0.1,0.02 0.1,0.02 0.1,0.01 0.1,0.01 0.1,0.02 0.1,0.01 0.1,0.01 0.1,0.01 0.2,0.01 0.1,0 0.1,0.01 0.1,0.01 0.2,0 0.1,0.01 0.2,0 0.1,0 0.2,0 0.2,0.01 0.1,0 c 1.3,0 1.7,0 1.7,1 0,0.54 -0.5,0.54 -0.7,0.54 -1.4,0 -5,-0.15 -6.4,-0.15 -1.4,0 -4.9,0.15 -6.4,0.15 -0.4,0 -0.9,0 -0.9,-1 0,-0.54 0.4,-0.54 1.4,-0.54 0.1,0 1,0 1.9,-0.1 0.8,-0.11 1.3,-0.15 1.3,-0.79 0,-0.21 -0.1,-0.32 -0.2,-0.96 l -3,-12.15 H 1439 l 3,11.7 c 0.4,1.8 0.6,2.3 4.1,2.3 1.3,0 1.7,0 1.7,1 0,0.54 -0.5,0.54 -0.7,0.54 -1.4,0 -4.9,-0.15 -6.3,-0.15 -1.5,0 -5,0.15 -6.5,0.15 -0.4,0 -0.9,0 -0.9,-1 0,-0.54 0.4,-0.54 1.4,-0.54 0.1,0 1,0 1.9,-0.1 0.9,-0.11 1.3,-0.15 1.3,-0.79 0,-0.21 0,-0.36 -0.2,-0.96 l -6.6,-26.75 c -0.5,-1.95 -0.7,-2.34 -4.6,-2.34 -0.9,0 -1.3,0 -1.3,-1 0,-0.55 0.6,-0.55 0.7,-0.55 1.3,0 4.9,0.16 6.3,0.16 1,0 2.1,-0.06 3.2,-0.06 1.1,0 2.2,-0.1 3.2,-0.1 0.4,0 1,0 1,1 0,0.55 -0.4,0.55 -1.4,0.55 -1.8,0 -3.2,0 -3.2,0.89 0,0.3 0.1,0.55 0.1,0.84 l 3.4,13.66 h 15.2 c -2.1,-8.27 -3.2,-13 -3.4,-13.75 -0.5,-1.59 -1.5,-1.64 -4.6,-1.64 -0.7,0 -1.1,0 -1.1,-1 0,-0.55 0.5,-0.55 0.6,-0.55 1.4,0 5,0.16 6.4,0.16 1,0 2.1,-0.06 3.1,-0.06 1.2,0 2.3,-0.1 3.3,-0.1 0.4,0 1,0 1,1 0,0.55 -0.4,0.55 -1.4,0.55 -1.9,0 -3.2,0 -3.2,0.89 0,0.3 0.1,0.55 0.1,0.84 z"
           inkscape:connector-curvature="0"
           style="fill:#000000;stroke-width:0" /><path
           id="path3611"
           d="m 1479.4,344.52 0,-0.07 0,-0.07 0,-0.07 0,-0.07 0,-0.08 -0.1,-0.08 0,-0.08 0,-0.09 0,-0.16 -0.1,-0.17 0,-0.17 0,-0.08 -0.1,-0.08 0,-0.08 0,-0.07 0,-0.08 0,-0.07 -0.1,-0.06 0,-0.07 0,-0.06 0,-0.05 0,-0.05 0,-0.05 0,-0.03 -0.1,-0.04 0,-0.01 0,-0.02 0,-0.01 0,-0.01 0,0 0,-0.01 0,0 0,-0.01 c -0.7,-1.08 -2.1,-2.97 -4.2,-2.97 -2.4,0 -2.4,2.27 -2.4,2.89 0,2.07 0.9,4.54 1.9,7.08 0.3,0.71 0.5,1.22 0.5,1.78 0,1.82 -1.5,2.99 -3.3,2.99 -3.5,0 -5,-4.77 -5,-5.33 0,-0.45 0.4,-0.45 0.5,-0.45 0.5,0 0.6,0.17 0.7,0.56 0.8,2.86 2.3,4.25 3.7,4.25 0.6,0 0.9,-0.39 0.9,-1.22 0,-0.8 -0.3,-1.53 -0.6,-2.33 -1.9,-4.81 -1.9,-5.83 -1.9,-6.76 0,-0.6 0,-2.21 1.2,-3.32 1.1,-0.82 2.4,-1.1 3.7,-1.1 2.1,0 3.3,1.18 4.5,2.29 0.7,-2.23 3.1,-2.29 3.5,-2.29 1.2,0 2.1,0.68 2.7,1.84 0.8,1.36 1.3,3.37 1.3,3.48 0,0.46 -0.5,0.46 -0.6,0.46 -0.5,0 -0.5,-0.14 -0.8,-1.08 -0.4,-1.64 -1,-3.74 -2.5,-3.74 -0.9,0 -1.1,0.8 -1.1,1.71 0,0.59 0.2,1.86 0.5,2.76 0.2,0.94 0.6,2.36 0.7,3.13 l 0.8,3.11 c 0.2,0.87 0.6,2.4 0.6,2.58 0,0.68 -0.5,1.1 -1.1,1.1 -1.3,0 -1.5,-1.01 -1.8,-2.12 z"
           inkscape:connector-curvature="0"
           style="fill:#000000;stroke-width:0" /></g>    </g>
    <g
       style="fill:#ff0000"
       transform="matrix(1.0647877,0,0,1.0647877,-1018.1457,218.38545)"
       id="g3736">
      <g
         style="font-style:normal;font-variant:normal;font-weight:normal;font-stretch:normal;letter-spacing:normal;word-spacing:normal;text-anchor:start;fill:#ff0000;stroke:#000000;stroke-linecap:butt;stroke-linejoin:miter;stroke-miterlimit:10.43299961;stroke-opacity:1;stroke-dasharray:none;stroke-dashoffset:0"
         id="content"
         transform="matrix(1.0971429,0,0,-1.0971429,-192,768)"
         xml:space="preserve"
         stroke-miterlimit="10.433"
         font-style="normal"
         font-variant="normal"
         font-weight="normal"
         font-stretch="normal"
         font-size-adjust="none"
         letter-spacing="normal"
         word-spacing="normal"><path
           style="fill:#ff0000;stroke-width:0"
           inkscape:connector-curvature="0"
           d="m 1153,377.58 0,0.1 0,0.09 -0.1,0.09 0,0.09 0,0.08 0,0.09 0,0.08 -0.1,0.08 0,0.08 0,0.08 -0.1,0.08 0,0.07 -0.1,0.07 0,0.07 -0.1,0.06 0,0.07 -0.1,0.05 -0.1,0.06 0,0.05 -0.1,0.05 -0.1,0.05 -0.1,0.04 0,0.04 -0.1,0.04 -0.1,0.03 -0.1,0.03 -0.1,0.02 -0.1,0.02 -0.1,0.02 -0.1,0.01 -0.1,0.01 -0.1,0 c -1.3,0 -2.7,-1.3 -2.7,-2.64 0,-0.95 0.7,-1.8 1.9,-1.8 1.2,0 2.7,1.14 2.7,2.64 z"
           id="path3739" /><path
           style="fill:#ff0000;stroke-width:0"
           inkscape:connector-curvature="0"
           d="m 1149.2,358.85 0,0.13 0.1,0.12 0,0.12 0.1,0.11 0,0.1 0,0.1 0.1,0.1 0,0.09 0,0.08 0.1,0.08 0,0.08 0,0.08 0.1,0.07 0,0.08 0,0.14 0.1,0.14 0,0.14 0.1,0.08 0,0.07 0,0.08 0.1,0.08 0,0.09 0,0.09 0,0.09 0.1,0.1 0,0.1 0.1,0.11 0,0.12 0,0.12 c 0.5,1 0.7,1.69 0.7,2.64 0,2.23 -1.6,4.08 -4.1,4.08 -4.7,0 -6.6,-7.22 -6.6,-7.67 0,-0.5 0.5,-0.5 0.6,-0.5 0.5,0 0.6,0.1 0.8,0.9 1.4,4.69 3.4,6.17 5.1,6.17 0.4,0 1.2,0 1.2,-1.59 0,-1.05 -0.3,-2.09 -0.5,-2.59 -0.4,-1.3 -2.7,-7.07 -3.5,-9.22 -0.5,-1.28 -1.1,-2.94 -1.1,-3.99 0,-2.33 1.7,-4.08 4.1,-4.08 4.7,0 6.5,7.22 6.5,7.68 0,0.5 -0.4,0.5 -0.6,0.5 -0.5,0 -0.5,-0.16 -0.7,-0.91 -0.9,-3.12 -2.6,-6.17 -5.1,-6.17 -0.9,0 -1.2,0.5 -1.2,1.64 0,1.25 0.3,1.95 1.4,4.98 z"
           id="path3741" /><path
           style="fill:#ff0000;stroke-width:0"
           inkscape:connector-curvature="0"
           d="m 1204.1,362.74 0.1,0 0.2,0 0.1,0 0.1,0.01 0.1,0 0.1,0.01 0,0.01 0.1,0.01 0.1,0.01 0,0.01 0.1,0.02 0.1,0.02 0,0.02 0.1,0.03 0,0.02 0.1,0.03 0.1,0.04 0,0.04 0.1,0.04 0,0.04 0,0.05 0.1,0.03 0,0.03 0,0.03 0,0.03 0,0.03 0,0.03 0,0.03 0.1,0.04 0,0.03 0,0.04 0,0.04 0,0.04 0,0.04 0,0.04 0,0.05 0,0.04 c 0,1 -1,1 -1.6,1 h -29.9 c -0.7,0 -1.6,0 -1.6,-1 0,-0.98 0.9,-0.98 1.7,-0.98 z"
           id="path3743" /><path
           style="fill:#ff0000;stroke-width:0"
           inkscape:connector-curvature="0"
           d="m 1204.2,353.07 0,0 0.1,0 0.1,0 0.2,0 0,0.01 0.1,0 0.1,0.01 0,0.01 0.1,0.01 0.1,0.01 0,0.01 0.1,0.02 0.1,0.02 0,0.02 0.1,0.03 0.1,0.02 0,0.04 0.1,0.03 0,0.04 0.1,0.04 0,0.05 0,0.02 0,0.03 0.1,0.02 0,0.03 0,0.03 0,0.03 0,0.03 0,0.04 0,0.03 0.1,0.04 0,0.03 0,0.04 0,0.04 0,0.04 0,0.04 0,0.05 0,0.04 0,0.05 c 0,1 -1,1 -1.7,1 h -29.7 c -0.8,0 -1.7,0 -1.7,-1 0,-1 0.9,-1 1.6,-1 z"
           id="path3745" /><path
           style="fill:#ff0000;stroke-width:0"
           inkscape:connector-curvature="0"
           d="m 1237.1,378.33 0,0.06 0,0.05 0,0.05 0,0.05 0,0.05 0,0.05 0,0.04 0,0.05 0,0.04 0,0.04 0,0.04 0,0.04 0,0.04 0,0.04 0,0.03 0,0.04 -0.1,0.06 0,0.06 0,0.05 0,0.05 0,0.05 0,0.04 0,0.04 -0.1,0.04 0,0.03 0,0.03 -0.1,0.02 0,0.02 -0.1,0.02 0,0.01 0,0.01 0,0 -0.1,0.01 0,0.01 0,0 0,0.01 -0.1,0 0,0.01 0,0 -0.1,0 0,0.01 -0.1,0 0,0 0,0 -0.1,0.01 0,0 -0.1,0 0,0 -0.1,0 0,0 -0.1,0 c -3.1,-3.19 -7.4,-3.19 -9,-3.19 v -1.55 c 1,0 3.9,0 6.5,1.3 v -25.81 c 0,-1.8 -0.2,-2.39 -4.6,-2.39 h -1.6 v -1.55 c 1.7,0.16 6,0.16 8,0.16 2,0 6.4,0 8.1,-0.16 v 1.55 h -1.6 c -4.5,0 -4.6,0.55 -4.6,2.39 z"
           id="path3747" /><path
           style="fill:#ff0000;stroke-width:0"
           inkscape:connector-curvature="0"
           d="m 1257.5,346.49 0,0.3 0,0.3 0,0.29 -0.1,0.28 0,0.27 0,0.27 -0.1,0.25 0,0.25 -0.1,0.23 0,0.23 -0.1,0.22 -0.1,0.21 -0.1,0.2 -0.1,0.2 -0.1,0.18 -0.1,0.17 -0.1,0.17 -0.1,0.15 -0.1,0.14 -0.1,0.14 -0.1,0.12 -0.2,0.11 -0.1,0.11 -0.2,0.09 -0.1,0.08 -0.2,0.07 -0.1,0.06 -0.2,0.05 -0.2,0.04 -0.1,0.03 -0.2,0.02 -0.2,0 c -1.6,0 -2.6,-1.25 -2.6,-2.64 0,-1.34 1,-2.64 2.6,-2.64 0.6,0 1.3,0.2 1.8,0.64 0.1,0.11 0.2,0.16 0.2,0.16 0.1,0 0.1,-0.05 0.1,-0.75 0,-3.69 -1.7,-6.67 -3.4,-8.31 -0.5,-0.55 -0.5,-0.66 -0.5,-0.8 0,-0.36 0.2,-0.55 0.5,-0.55 0.5,0 4.5,3.83 4.5,9.66 z"
           id="path3749" /><path
           style="fill:#ff0000;stroke-width:0"
           inkscape:connector-curvature="0"
           d="m 1275.8,350.29 5.3,5.12 c 7.7,6.88 10.7,9.56 10.7,14.55 0,5.68 -4.4,9.67 -10.5,9.67 -5.7,0 -9.4,-4.59 -9.4,-9.03 0,-2.78 2.5,-2.78 2.7,-2.78 0.8,0 2.6,0.59 2.6,2.64 0,1.29 -0.9,2.59 -2.6,2.59 -0.4,0 -0.5,0 -0.7,-0.05 1.2,3.24 3.8,5.08 6.7,5.08 4.6,0 6.7,-4.04 6.7,-8.12 0,-3.99 -2.5,-7.92 -5.2,-11.02 l -9.6,-10.65 c -0.6,-0.55 -0.6,-0.65 -0.6,-1.85 h 18.5 l 1.4,8.67 h -1.2 c -0.3,-1.5 -0.6,-3.68 -1.1,-4.43 -0.4,-0.39 -3.6,-0.39 -4.7,-0.39 z"
           id="path3751" /><path
           style="fill:#ff0000;stroke-width:0"
           inkscape:connector-curvature="0"
           d="m 1304.5,346.49 0,0.3 0,0.3 0,0.29 0,0.28 0,0.27 -0.1,0.27 0,0.25 -0.1,0.25 0,0.23 -0.1,0.23 -0.1,0.22 -0.1,0.21 0,0.2 -0.1,0.2 -0.1,0.18 -0.1,0.17 -0.1,0.17 -0.1,0.15 -0.2,0.14 -0.1,0.14 -0.1,0.12 -0.1,0.11 -0.2,0.11 -0.1,0.09 -0.2,0.08 -0.1,0.07 -0.2,0.06 -0.2,0.05 -0.1,0.04 -0.2,0.03 -0.2,0.02 -0.2,0 c -1.6,0 -2.6,-1.25 -2.6,-2.64 0,-1.34 1,-2.64 2.6,-2.64 0.6,0 1.3,0.2 1.8,0.64 0.1,0.11 0.2,0.16 0.2,0.16 0.1,0 0.1,-0.05 0.1,-0.75 0,-3.69 -1.7,-6.67 -3.3,-8.31 -0.6,-0.55 -0.6,-0.66 -0.6,-0.8 0,-0.36 0.3,-0.55 0.5,-0.55 0.6,0 4.5,3.83 4.5,9.66 z"
           id="path3753" /><path
           style="fill:#ff0000;stroke-width:0"
           inkscape:connector-curvature="0"
           d="m 1330.9,363.97 0.4,0.14 0.4,0.14 0.4,0.16 0.3,0.16 0.4,0.18 0.3,0.19 0.3,0.21 0.4,0.21 0.3,0.22 0.3,0.23 0.3,0.24 0.2,0.25 0.3,0.26 0.3,0.27 0.2,0.28 0.3,0.28 0.2,0.29 0.2,0.3 0.2,0.31 0.2,0.31 0.2,0.32 0.1,0.32 0.2,0.33 0.1,0.34 0.1,0.34 0.1,0.35 0.1,0.35 0.1,0.35 0,0.36 0.1,0.36 0,0.37 0,0.36 c 0,4.08 -4.4,6.88 -9.1,6.88 -5.1,0 -8.9,-3 -8.9,-6.78 0,-1.64 1.1,-2.6 2.6,-2.6 1.5,0 2.5,1.1 2.5,2.55 0,2.49 -2.3,2.49 -3.1,2.49 1.6,2.43 4.9,3.09 6.7,3.09 2,0 4.7,-1.09 4.7,-5.58 0,-0.61 -0.1,-3.48 -1.4,-5.69 -1.5,-2.39 -3.1,-2.53 -4.4,-2.59 -0.4,-0.05 -1.6,-0.14 -1.9,-0.14 -0.4,-0.05 -0.8,-0.09 -0.8,-0.59 0,-0.55 0.4,-0.55 1.2,-0.55 h 2.2 c 4.1,0 5.9,-3.39 5.9,-8.28 0,-6.77 -3.4,-8.22 -5.6,-8.22 -2.1,0 -5.9,0.84 -7.6,3.78 1.7,-0.23 3.3,0.86 3.3,2.75 0,1.8 -1.4,2.78 -2.8,2.78 -1.2,0 -2.8,-0.69 -2.8,-2.89 0,-4.53 4.6,-7.81 10.1,-7.81 6,0 10.6,4.53 10.6,9.61 0,4.09 -3.2,7.97 -8.4,9.01 z"
           id="path3755" /></g>    </g>
    <text
       sodipodi:linespacing="190%"
       id="text3819"
       y="341.06226"
       x="1010.3084"
       style="font-size:38px;font-style:normal;font-variant:normal;font-weight:normal;font-stretch:normal;text-align:end;line-height:189.99999762%;letter-spacing:0px;word-spacing:0px;writing-mode:lr-tb;text-anchor:end;fill:#000000;fill-opacity:1;stroke:none;font-family:LMRomanDunh10;-inkscape-font-specification:LMRomanDunh10"
       xml:space="preserve"><tspan
         y="341.06226"
         x="1022.9998"
         id="tspan3821"
         sodipodi:role="line">Bilinear R-parity Violation (<tspan
   id="tspan3825"
   style="line-height:189.99999762%;fill:#ff0000">BRpV</tspan>) </tspan><tspan
         id="tspan3823"
         y="413.26227"
         x="1010.3084"
         sodipodi:role="line">Supersymmetric Model</tspan></text>
  </g>
  <g
     style="display:inline"
     inkscape:label="Layer"
     id="layer2"
     inkscape:groupmode="layer">
    <g
       transform="matrix(1.6827864,0,0,1.6827865,271.77974,-156.07996)"
       id="g3065">
      <g
         style="font-style:normal;font-variant:normal;font-weight:normal;font-stretch:normal;letter-spacing:normal;word-spacing:normal;text-anchor:start;fill:none;stroke:#000000;stroke-linecap:butt;stroke-linejoin:miter;stroke-miterlimit:10.43299961;stroke-opacity:1;stroke-dasharray:none;stroke-dashoffset:0"
         word-spacing="normal"
         letter-spacing="normal"
         font-size-adjust="none"
         font-stretch="normal"
         font-weight="normal"
         font-variant="normal"
         font-style="normal"
         stroke-miterlimit="10.433"
         xml:space="preserve"
         transform="matrix(1.0971429,0,0,-1.0971429,-192,768)"
         id="g3067"><path
           style="fill:#000000;stroke-width:0"
           inkscape:connector-curvature="0"
           id="path3069"
           d="m 478.83,424.73 0,0.12 0,0.13 -0.01,0.12 0,0.11 -0.01,0.12 -0.01,0.11 -0.01,0.11 -0.02,0.1 -0.03,0.21 -0.03,0.19 -0.05,0.18 -0.04,0.18 -0.06,0.16 -0.06,0.16 -0.06,0.15 -0.07,0.13 -0.07,0.13 -0.07,0.12 -0.08,0.12 -0.08,0.1 -0.08,0.1 -0.09,0.09 -0.08,0.08 -0.09,0.07 -0.09,0.07 -0.09,0.06 -0.1,0.05 -0.09,0.05 -0.09,0.04 -0.09,0.03 -0.09,0.03 -0.1,0.03 -0.09,0.01 -0.08,0.02 -0.09,0 -0.09,0 c -1.25,0 -2.43,-1.29 -2.43,-2.39 0,-0.64 0.25,-0.93 0.79,-1.48 1.05,-1 1.69,-2.3 1.69,-4.09 0,-2.1 -3.03,-13.5 -8.86,-13.5 -2.54,0 -3.69,1.75 -3.69,4.32 0,2.8 1.35,6.44 2.9,10.57 0.34,0.86 0.59,1.54 0.59,2.5 0,2.23 -1.59,4.07 -4.09,4.07 -4.68,0 -6.58,-7.21 -6.58,-7.67 0,-0.5 0.5,-0.5 0.61,-0.5 0.5,0 0.54,0.11 0.79,0.91 1.44,5.03 3.58,6.17 5.03,6.17 0.4,0 1.25,0 1.25,-1.59 0,-1.25 -0.5,-2.6 -0.85,-3.49 -2.19,-5.78 -2.83,-8.08 -2.83,-10.22 0,-5.37 4.37,-6.17 6.67,-6.17 8.37,0 11.2,16.49 11.2,19.08 z" /><path
           style="fill:#000000;stroke-width:0"
           inkscape:connector-curvature="0"
           id="path3071"
           d="m 490.94,420.54 0,0.05 -0.01,0.06 0,0.05 -0.01,0.06 -0.01,0.05 -0.02,0.06 -0.01,0.05 -0.02,0.06 -0.03,0.06 -0.02,0.05 -0.03,0.06 -0.03,0.05 -0.03,0.06 -0.04,0.05 -0.03,0.05 -0.05,0.05 -0.04,0.05 -0.05,0.05 -0.05,0.04 -0.05,0.05 -0.06,0.04 -0.06,0.03 -0.06,0.04 -0.06,0.03 -0.07,0.03 -0.07,0.03 -0.08,0.02 -0.08,0.02 -0.08,0.01 -0.08,0.01 -0.09,0.01 -0.09,0 c -0.94,0 -1.95,-0.91 -1.95,-1.92 0,-0.59 0.45,-1.33 1.4,-1.33 1,0 1.96,0.99 1.96,1.92 z" /><path
           style="fill:#000000;stroke-width:0"
           inkscape:connector-curvature="0"
           id="path3073"
           d="m 483.83,402.84 -0.06,-0.17 -0.05,-0.17 -0.03,-0.08 -0.02,-0.09 -0.03,-0.08 -0.02,-0.09 -0.02,-0.09 -0.02,-0.09 -0.02,-0.1 -0.01,-0.09 -0.02,-0.1 0,-0.05 -0.01,-0.05 0,-0.06 0,-0.05 0,-0.05 0,-0.06 c 0,-1.64 1.39,-2.95 3.29,-2.95 3.49,0 5.03,4.79 5.03,5.33 0,0.45 -0.45,0.45 -0.56,0.45 -0.48,0 -0.53,-0.2 -0.67,-0.59 -0.8,-2.79 -2.33,-4.22 -3.69,-4.22 -0.7,0 -0.87,0.45 -0.87,1.22 0,0.79 0.25,1.46 0.56,2.23 0.34,0.94 0.73,1.87 1.11,2.78 0.31,0.84 1.58,4.02 1.72,4.44 0.09,0.34 0.2,0.76 0.2,1.11 0,1.64 -1.39,2.95 -3.31,2.95 -3.45,0 -5.05,-4.73 -5.05,-5.33 0,-0.45 0.49,-0.45 0.6,-0.45 0.48,0 0.51,0.17 0.62,0.56 0.91,3 2.44,4.25 3.72,4.25 0.56,0 0.87,-0.28 0.87,-1.22 0,-0.79 -0.2,-1.32 -1.07,-3.48 z" /></g>    </g>
    <g
       transform="matrix(0,0.99999996,-1,0,1124.3133,-879.98267)"
       id="g3473">
      <g
         style="font-style:normal;font-variant:normal;font-weight:normal;font-stretch:normal;letter-spacing:normal;word-spacing:normal;text-anchor:start;fill:none;stroke:#000000;stroke-linecap:butt;stroke-linejoin:miter;stroke-miterlimit:10.43299961;stroke-opacity:1;stroke-dasharray:none;stroke-dashoffset:0"
         id="g3475"
         transform="matrix(1.0971429,0,0,-1.0971429,-192,768)"
         xml:space="preserve"
         stroke-miterlimit="10.433"
         font-style="normal"
         font-variant="normal"
         font-weight="normal"
         font-stretch="normal"
         font-size-adjust="none"
         letter-spacing="normal"
         word-spacing="normal"><path
           style="fill:#000000;stroke-width:0"
           inkscape:connector-curvature="0"
           d="m 1256.8,416.22335 -0.3,-0.19 -0.2,-0.2 -0.2,-0.19 -0.3,-0.19 -0.2,-0.2 -0.2,-0.19 -0.2,-0.19 -0.2,-0.18 -0.2,-0.19 -0.2,-0.18 -0.2,-0.18 -0.1,-0.18 -0.2,-0.17 -0.1,-0.17 -0.2,-0.16 -0.1,-0.16 -0.2,-0.16 -0.1,-0.16 -0.1,-0.14 -0.1,-0.15 -0.1,-0.14 -0.1,-0.13 -0.1,-0.13 -0.1,-0.12 -0.1,-0.11 -0.1,-0.11 0,-0.1 -0.1,-0.1 -0.1,-0.09 0,-0.08 -0.1,-0.07 0,-0.07 c -2.2,-3.43 -2.6,-6.57 -2.6,-6.62 0,-0.6 0.6,-0.6 1,-0.6 0.8,0 0.9,0.1 1.1,1 1.1,4.88 4,9.07 9.7,11.36 0.6,0.19 0.7,0.3 0.7,0.64 0,0.35 -0.3,0.5 -0.4,0.55 -2.2,0.85 -8.2,3.35 -10.1,11.72 -0.1,0.59 -0.2,0.73 -1,0.73 -0.4,0 -1,0 -1,-0.59 0,-0.09 0.4,-3.23 2.5,-6.58 1,-1.48 2.4,-3.23 4.6,-4.83 h -37 c -0.9,0 -1.8,0 -1.8,-1 0,-1 0.9,-1 1.8,-1 z"
           id="path3477" /></g>    </g>
  </g>
  <g
     style="display:inline"
     inkscape:label="Layer#1"
     id="layer3"
     inkscape:groupmode="layer">
    <text
       xml:space="preserve"
       style="font-size:20px;font-style:normal;font-variant:normal;font-weight:normal;font-stretch:normal;text-align:start;line-height:125%;letter-spacing:0px;word-spacing:0px;writing-mode:lr-tb;text-anchor:start;fill:#ff0000;fill-opacity:1;stroke:none;font-family:FreeSerif;-inkscape-font-specification:FreeSerif"
       x="313.25943"
       y="735.70001"
       id="text3679"
       sodipodi:linespacing="125%"><tspan
         sodipodi:role="line"
         id="tspan3681"
         x="313.25943"
         y="735.70001"
         style="font-size:56px;fill:#ff0000">6  new parameters</tspan></text>
    <g
       id="g4575"
       transform="matrix(1.5144475,0,0,1.5144475,-1176.8023,-47.748542)">
      <g
         word-spacing="normal"
         letter-spacing="normal"
         font-size-adjust="none"
         font-stretch="normal"
         font-weight="normal"
         font-variant="normal"
         font-style="normal"
         stroke-miterlimit="10.433"
         xml:space="preserve"
         transform="matrix(1.0971429,0,0,-1.0971429,-192,768)"
         id="g4577"
         style="font-style:normal;font-variant:normal;font-weight:normal;font-stretch:normal;letter-spacing:normal;word-spacing:normal;text-anchor:start;fill:none;stroke:#000000;stroke-linecap:butt;stroke-linejoin:miter;stroke-miterlimit:10.43299961;stroke-opacity:1;stroke-dasharray:none;stroke-dashoffset:0"><path
           id="path4579"
           d="m 1115.2,401.82 0,0.05 0,0.04 0,0.04 0,0.04 0,0.04 0,0.04 -0.1,0.07 0,0.07 0,0.06 -0.1,0.06 0,0.06 0,0.05 0,0.05 -0.1,0.04 0,0.04 0,0.04 -0.1,0.04 0,0.03 0,0.02 -0.1,0.03 0,0.02 0,0.02 -0.1,0.02 0,0.02 -0.1,0.01 0,0.01 0,0.01 -0.1,0.01 0,0.01 -0.1,0 0,0.01 -0.1,0 0,0 -0.1,0 0,0 c -0.8,0 -0.9,-0.2 -1.2,-1.05 l -9.5,-29.64 c -0.5,-1.5 -1.5,-3.43 -5,-3.43 v -1.55 c 1.6,0.09 4.2,0.16 4.6,0.16 1.5,0 4.1,-0.11 5.7,-0.16 v 1.55 c -2.7,0.04 -3.9,1.39 -3.9,2.59 0,0.25 0,0.39 0.3,1.09 l 7.5,23.22 7.8,-24.51 c 0.3,-0.71 0.3,-0.8 0.3,-0.89 0,-1.5 -3,-1.5 -4.3,-1.5 v -1.55 c 1.8,0.16 5.3,0.16 7.2,0.16 2,0 4.2,-0.11 6.1,-0.16 v 1.55 c -3.8,0 -3.9,0.29 -4.5,2.14 z"
           inkscape:connector-curvature="0"
           style="fill:#ff0000;stroke-width:0" /><path
           id="path4581"
           d="m 1142.7,381.42 0,0.05 0,0.06 -0.1,0.05 0,0.06 0,0.05 0,0.06 0,0.05 0,0.06 0,0.06 -0.1,0.05 0,0.06 0,0.05 -0.1,0.06 0,0.05 0,0.05 -0.1,0.05 0,0.05 -0.1,0.05 0,0.04 -0.1,0.04 0,0.04 -0.1,0.04 -0.1,0.04 0,0.03 -0.1,0.03 -0.1,0.02 0,0.03 -0.1,0.02 -0.1,0.01 -0.1,0.01 -0.1,0.01 -0.1,0 c -0.9,0 -1.9,-0.91 -1.9,-1.92 0,-0.6 0.5,-1.33 1.4,-1.33 1,0 2,0.98 2,1.92 z"
           inkscape:connector-curvature="0"
           style="fill:#ff0000;stroke-width:0" /><path
           id="path4583"
           d="m 1135.6,363.72 -0.1,-0.09 0,-0.08 -0.1,-0.17 0,-0.08 0,-0.09 0,-0.08 -0.1,-0.09 0,-0.09 0,-0.09 0,-0.1 0,-0.09 0,-0.05 -0.1,-0.05 0,-0.05 0,-0.05 0,-0.06 0,-0.05 0,-0.05 0,-0.06 c 0,-1.64 1.4,-2.95 3.3,-2.95 3.5,0 5.1,4.79 5.1,5.32 0,0.46 -0.5,0.46 -0.6,0.46 -0.5,0 -0.5,-0.2 -0.7,-0.6 -0.8,-2.78 -2.3,-4.21 -3.7,-4.21 -0.7,0 -0.8,0.45 -0.8,1.21 0,0.8 0.2,1.47 0.5,2.24 0.4,0.94 0.8,1.87 1.1,2.78 0.4,0.84 1.6,4.02 1.8,4.44 0,0.34 0.2,0.76 0.2,1.11 0,1.64 -1.4,2.95 -3.3,2.95 -3.5,0 -5.1,-4.73 -5.1,-5.33 0,-0.45 0.5,-0.45 0.6,-0.45 0.5,0 0.5,0.17 0.6,0.56 0.9,3 2.5,4.25 3.7,4.25 0.6,0 0.9,-0.28 0.9,-1.22 0,-0.79 -0.2,-1.33 -1.1,-3.48 z"
           inkscape:connector-curvature="0"
           style="fill:#ff0000;stroke-width:0" /><polyline
           id="polyline4585"
           points="1080,345 1165.8,345 1165.8,347.04 1080,347.04 "
           style="fill:#000000;fill-rule:nonzero;stroke-width:0" /><path
           id="path4587"
           d="m 1091.2,316.77 0,0.1 0,0.1 0,0.11 0.1,0.11 0,0.12 0,0.12 0.1,0.24 0,0.25 0.1,0.25 0.1,0.25 0,0.24 0,0.12 0.1,0.11 0,0.11 0,0.11 0,0.1 0.1,0.1 0,0.1 0,0.09 0,0.08 0,0.08 0.1,0.07 0,0.06 0,0.05 0,0.05 0,0.03 0,0.02 0,0.01 c 0,0.85 -0.6,1.35 -1.5,1.35 -0.1,0 -1.5,-0.05 -2,-1.78 l -7.1,-28.86 c -0.2,-0.6 -0.2,-0.69 -0.2,-0.8 0,-0.74 0.6,-1.34 1.4,-1.34 1.1,0 1.7,0.9 1.8,1.04 0.2,0.46 0.8,3.05 2.7,10.72 1.6,-1.34 3.8,-1.55 4.8,-1.55 3.5,0 5.5,2.24 6.7,3.65 0.4,-2.26 2.3,-3.65 4.4,-3.65 1.8,0 2.9,1.15 3.7,2.74 0.9,1.8 1.5,4.84 1.5,4.94 0,0.5 -0.4,0.5 -0.5,0.5 -0.5,0 -0.6,-0.21 -0.8,-0.91 -0.8,-3.23 -1.7,-6.17 -3.7,-6.17 -1.4,0 -1.5,1.29 -1.5,2.29 0,1.1 0.6,3.44 1,5.18 l 1.3,5.39 c 0.2,0.75 0.7,2.64 0.9,3.39 0.3,1.14 0.8,3.03 0.8,3.33 0,0.9 -0.8,1.34 -1.5,1.34 -0.2,0 -1.5,-0.05 -1.9,-1.73 l -2.4,-9.33 c -0.6,-2.49 -1.1,-4.58 -1.3,-5.08 0,-0.25 -2.4,-4.78 -6.4,-4.78 -2.5,0 -3.7,1.64 -3.7,4.33 0,1.45 0.3,2.84 0.7,4.25 z"
           inkscape:connector-curvature="0"
           style="fill:#000000;stroke-width:0" /><path
           id="path4589"
           d="m 1141.2,317.81 0,0.13 0,0.12 0,0.12 0,0.11 0,0.12 0,0.11 0,0.11 0,0.1 -0.1,0.21 0,0.19 0,0.19 -0.1,0.17 0,0.17 -0.1,0.15 -0.1,0.15 0,0.14 -0.1,0.13 -0.1,0.12 -0.1,0.11 0,0.1 -0.1,0.1 -0.1,0.09 -0.1,0.08 -0.1,0.07 -0.1,0.07 -0.1,0.06 0,0.05 -0.1,0.05 -0.1,0.04 -0.1,0.04 -0.1,0.02 -0.1,0.03 -0.1,0.02 -0.1,0.01 -0.1,0 -0.1,0.01 c -1.2,0 -2.4,-1.3 -2.4,-2.39 0,-0.64 0.3,-0.94 0.8,-1.49 1,-1 1.7,-2.3 1.7,-4.09 0,-2.1 -3,-13.5 -8.9,-13.5 -2.5,0 -3.7,1.75 -3.7,4.33 0,2.79 1.4,6.43 2.9,10.56 0.4,0.86 0.6,1.55 0.6,2.5 0,2.23 -1.6,4.08 -4.1,4.08 -4.6,0 -6.5,-7.22 -6.5,-7.68 0,-0.5 0.5,-0.5 0.6,-0.5 0.5,0 0.5,0.11 0.8,0.91 1.4,5.03 3.5,6.17 5,6.17 0.4,0 1.2,0 1.2,-1.59 0,-1.25 -0.5,-2.59 -0.8,-3.49 -2.2,-5.78 -2.8,-8.07 -2.8,-10.21 0,-5.38 4.3,-6.18 6.6,-6.18 8.4,0 11.2,16.49 11.2,19.08 z"
           inkscape:connector-curvature="0"
           style="fill:#000000;stroke-width:0" /><path
           id="path4591"
           d="m 1161.9,314.98 0,0 0,0.01 0,0 0,0.01 0,0 0,0.01 0,0 0.1,0.01 0,0.01 0,0.01 0,0.01 0,0.02 0,0.02 0,0.02 0,0.02 0,0.02 0,0.02 0,0.03 0,0.02 0,0.05 0,0.02 0,0.02 0,0.02 0,0.03 0,0.02 0,0.02 0.1,0.02 0,0.02 0,0.01 0,0.02 0,0.01 0,0 0,0.01 0,0.01 0,0 0,0.01 0,0 0,0.01 0,0 0,0 0,0.01 0,0 c 0,0.18 -0.2,0.5 -0.6,0.5 -0.7,0 -3.6,-0.28 -4.4,-0.36 -0.3,-0.03 -0.8,-0.06 -0.8,-0.8 0,-0.48 0.5,-0.48 0.9,-0.48 1.7,0 1.7,-0.25 1.7,-0.53 0,-0.24 -0.1,-0.46 -0.2,-0.77 l -2,-7.94 c -0.7,1.14 -1.9,2.05 -3.5,2.05 v -0.97 c 2.4,0 3.1,-2.64 3.1,-3.03 0,-0.14 -0.1,-0.39 -0.1,-0.49 l -1.7,-6.51 c -0.2,-0.99 -1,-1.67 -1.8,-2.34 -0.3,-0.27 -1.7,-1.4 -3.2,-1.4 -1.3,0 -2.5,0.91 -2.5,3.38 0,1.86 1,5.69 1.8,7.08 1.6,2.79 3.4,3.31 4.4,3.31 v 0.97 c -4.5,0 -9,-4.91 -9,-9.92 0,-3.38 2.2,-5.78 5.2,-5.78 1.9,0 3.6,1.07 5,2.43 0.6,-2.09 2.7,-2.43 3.6,-2.43 1.2,0 2.1,0.76 2.7,1.84 0.8,1.36 1.2,3.34 1.2,3.48 0,0.46 -0.4,0.46 -0.5,0.46 -0.5,0 -0.6,-0.14 -0.8,-1.08 -0.4,-1.67 -1.1,-3.74 -2.5,-3.74 -0.9,0 -1.2,0.77 -1.2,1.71 0,0.67 0.1,0.98 0.2,1.44 z"
           inkscape:connector-curvature="0"
           style="fill:#000000;stroke-width:0" /><path
           id="path4593"
           d="m 1219.4,349.78 0.1,0 0.1,0 0.2,0 0.1,0.01 0,0 0.1,0.01 0.1,0.01 0,0.01 0.1,0.01 0.1,0.01 0,0.02 0.1,0.02 0.1,0.02 0,0.02 0.1,0.03 0,0.03 0.1,0.04 0.1,0.04 0,0.04 0,0.04 0.1,0.05 0,0.03 0,0.03 0,0.03 0,0.03 0.1,0.03 0,0.03 0,0.03 0,0.04 0,0.03 0,0.04 0,0.04 0,0.04 0,0.04 0,0.04 0,0.05 0,0.04 c 0,1 -0.9,1 -1.6,1 h -29.8 c -0.7,0 -1.7,0 -1.7,-1 0,-0.98 1,-0.98 1.7,-0.98 z"
           inkscape:connector-curvature="0"
           style="fill:#000000;stroke-width:0" /><path
           id="path4595"
           d="m 1219.4,340.11 0.1,0 0,0 0.2,0 0.1,0 0.1,0.01 0,0 0.1,0.01 0.1,0.01 0.1,0.01 0,0.01 0.1,0.01 0.1,0.02 0,0.02 0.1,0.02 0,0.02 0.1,0.03 0.1,0.03 0,0.04 0.1,0.04 0,0.04 0,0.05 0.1,0.02 0,0.03 0,0.02 0,0.03 0,0.03 0,0.03 0.1,0.03 0,0.04 0,0.03 0,0.03 0,0.04 0,0.04 0,0.04 0,0.04 0,0.04 0,0.04 0,0.05 0,0.05 c 0,1 -0.9,1 -1.6,1 h -29.8 c -0.7,0 -1.7,0 -1.7,-1 0,-1 1,-1 1.7,-1 z"
           inkscape:connector-curvature="0"
           style="fill:#000000;stroke-width:0" /><path
           id="path4597"
           d="m 1258.5,378.46 0.2,0.01 0.1,0 0.2,0 0.1,0 0,0.01 0.1,0 0.1,0.01 0,0.01 0.1,0.01 0.1,0.01 0,0.02 0.1,0.01 0.1,0.02 0,0.02 0.1,0.03 0,0.02 0.1,0.03 0,0.03 0.1,0.04 0,0.04 0.1,0.04 0,0.05 0,0.02 0,0.03 0.1,0.02 0,0.03 0,0.03 0,0.03 0,0.03 0,0.03 0,0.04 0,0.03 0,0.04 0,0.03 0,0.04 0,0.04 c 0,0.69 -0.6,0.69 -1.4,0.69 h -8.1 c 1.2,4.23 4,7.12 8.5,7.12 h 1.6 c 0.8,0 1.6,0 1.6,0.86 0,0.69 -0.6,0.69 -1.5,0.69 h -1.7 c -6.5,0 -13.2,-4.99 -13.2,-12.6 0,-5.48 3.8,-9.42 9,-9.42 3.3,0 6.5,1.99 6.5,2.55 0,0.14 0,0.69 -0.5,0.69 -0.1,0 -0.2,0 -0.6,-0.3 -1.6,-1 -3.4,-1.84 -5.3,-1.84 -2.9,0 -5.3,2.09 -5.3,6.48 0,1.73 0.4,3.63 0.5,4.23 z"
           inkscape:connector-curvature="0"
           style="fill:#000000;stroke-width:0" /><path
           id="path4599"
           d="m 1275.1,381.42 0,0.05 0,0.06 0,0.05 0,0.06 0,0.05 0,0.06 0,0.05 0,0.06 -0.1,0.06 0,0.05 0,0.06 0,0.05 -0.1,0.06 0,0.05 -0.1,0.05 0,0.05 0,0.05 -0.1,0.05 0,0.04 -0.1,0.04 0,0.04 -0.1,0.04 -0.1,0.04 0,0.03 -0.1,0.03 -0.1,0.02 -0.1,0.03 0,0.02 -0.1,0.01 -0.1,0.01 -0.1,0.01 -0.1,0 c -0.9,0 -1.9,-0.91 -1.9,-1.92 0,-0.6 0.4,-1.33 1.4,-1.33 1,0 1.9,0.98 1.9,1.92 z"
           inkscape:connector-curvature="0"
           style="fill:#000000;stroke-width:0" /><path
           id="path4601"
           d="m 1268,363.72 0,-0.09 0,-0.08 -0.1,-0.17 0,-0.08 0,-0.09 -0.1,-0.08 0,-0.09 0,-0.09 0,-0.09 0,-0.1 -0.1,-0.09 0,-0.05 0,-0.05 0,-0.05 0,-0.05 0,-0.06 0,-0.05 0,-0.05 0,-0.06 c 0,-1.64 1.4,-2.95 3.3,-2.95 3.5,0 5,4.79 5,5.32 0,0.46 -0.4,0.46 -0.5,0.46 -0.5,0 -0.6,-0.2 -0.7,-0.6 -0.8,-2.78 -2.3,-4.21 -3.7,-4.21 -0.7,0 -0.9,0.45 -0.9,1.21 0,0.8 0.3,1.47 0.6,2.24 0.4,0.94 0.7,1.87 1.1,2.78 0.3,0.84 1.6,4.02 1.7,4.44 0.1,0.34 0.2,0.76 0.2,1.11 0,1.64 -1.4,2.95 -3.3,2.95 -3.4,0 -5,-4.73 -5,-5.33 0,-0.45 0.5,-0.45 0.6,-0.45 0.5,0 0.5,0.17 0.6,0.56 0.9,3 2.4,4.25 3.7,4.25 0.6,0 0.9,-0.28 0.9,-1.22 0,-0.79 -0.2,-1.33 -1.1,-3.48 z"
           inkscape:connector-curvature="0"
           style="fill:#000000;stroke-width:0" /><polyline
           id="polyline4603"
           points="1244,345 1280.8,345 1280.8,347.04 1244,347.04 "
           style="fill:#000000;fill-rule:nonzero;stroke-width:0" /><path
           id="path4605"
           d="m 1258.6,316.77 0,0.1 0,0.1 0,0.11 0.1,0.11 0,0.12 0,0.12 0.1,0.24 0,0.25 0.1,0.25 0.1,0.25 0,0.24 0,0.12 0.1,0.11 0,0.11 0,0.11 0,0.1 0.1,0.1 0,0.1 0,0.09 0,0.08 0,0.08 0.1,0.07 0,0.06 0,0.05 0,0.05 0,0.03 0,0.02 0,0.01 c 0,0.85 -0.6,1.35 -1.5,1.35 -0.1,0 -1.5,-0.05 -2,-1.78 l -7.1,-28.86 c -0.2,-0.6 -0.2,-0.69 -0.2,-0.8 0,-0.74 0.6,-1.34 1.4,-1.34 1.1,0 1.7,0.9 1.8,1.04 0.2,0.46 0.8,3.05 2.7,10.72 1.6,-1.34 3.8,-1.55 4.8,-1.55 3.5,0 5.5,2.24 6.7,3.65 0.4,-2.26 2.3,-3.65 4.4,-3.65 1.8,0 2.9,1.15 3.7,2.74 0.9,1.8 1.5,4.84 1.5,4.94 0,0.5 -0.4,0.5 -0.6,0.5 -0.5,0 -0.5,-0.21 -0.7,-0.91 -0.8,-3.23 -1.7,-6.17 -3.7,-6.17 -1.4,0 -1.5,1.29 -1.5,2.29 0,1.1 0.6,3.44 1,5.18 l 1.3,5.39 c 0.2,0.75 0.7,2.64 0.9,3.39 0.2,1.14 0.7,3.03 0.7,3.33 0,0.9 -0.7,1.34 -1.4,1.34 -0.2,0 -1.5,-0.05 -1.9,-1.73 l -2.4,-9.33 c -0.6,-2.49 -1.1,-4.58 -1.3,-5.08 0,-0.25 -2.4,-4.78 -6.5,-4.78 -2.4,0 -3.6,1.64 -3.6,4.33 0,1.45 0.3,2.84 0.7,4.25 z"
           inkscape:connector-curvature="0"
           style="fill:#000000;stroke-width:0" /><path
           id="path4607"
           d="m 1317.8,344.93 h 13.9 c 0.7,0 1.7,0 1.7,1 0,1 -1,1 -1.7,1 h -13.9 v 13.96 c 0,0.68 0,1.64 -1,1.64 -1,0 -1,-0.96 -1,-1.64 v -13.96 h -13.9 c -0.7,0 -1.7,0 -1.7,-1 0,-1 1,-1 1.7,-1 h 13.9 V 331 c 0,-0.71 0,-1.66 1,-1.66 1,0 1,0.95 1,1.66 z"
           inkscape:connector-curvature="0"
           style="fill:#000000;stroke-width:0" /><path
           id="path4609"
           d="m 1379.9,385.73 0,0.12 0,0.13 0,0.12 0,0.11 0,0.12 0,0.11 0,0.11 0,0.1 -0.1,0.21 0,0.19 -0.1,0.18 0,0.18 -0.1,0.16 0,0.16 -0.1,0.15 0,0.13 -0.1,0.13 -0.1,0.12 -0.1,0.12 0,0.1 -0.1,0.1 -0.1,0.09 -0.1,0.08 -0.1,0.07 -0.1,0.07 -0.1,0.06 -0.1,0.05 -0.1,0.05 0,0.04 -0.1,0.03 -0.1,0.03 -0.1,0.03 -0.1,0.01 -0.1,0.02 -0.1,0 -0.1,0 c -1.2,0 -2.4,-1.29 -2.4,-2.39 0,-0.64 0.2,-0.93 0.8,-1.48 1,-1 1.7,-2.3 1.7,-4.09 0,-2.1 -3.1,-13.5 -8.9,-13.5 -2.5,0 -3.7,1.75 -3.7,4.32 0,2.8 1.4,6.44 2.9,10.57 0.4,0.86 0.6,1.54 0.6,2.5 0,2.23 -1.6,4.07 -4.1,4.07 -4.7,0 -6.6,-7.21 -6.6,-7.67 0,-0.5 0.5,-0.5 0.7,-0.5 0.5,0 0.5,0.11 0.7,0.91 1.5,5.03 3.6,6.17 5.1,6.17 0.4,0 1.2,0 1.2,-1.59 0,-1.25 -0.5,-2.6 -0.8,-3.49 -2.2,-5.78 -2.9,-8.08 -2.9,-10.22 0,-5.37 4.4,-6.17 6.7,-6.17 8.4,0 11.2,16.49 11.2,19.08 z"
           inkscape:connector-curvature="0"
           style="fill:#000000;stroke-width:0" /><path
           id="path4611"
           d="m 1392,381.42 0,0.05 0,0.06 0,0.05 0,0.06 0,0.05 0,0.06 0,0.05 -0.1,0.06 0,0.06 0,0.05 0,0.06 -0.1,0.05 0,0.06 0,0.05 -0.1,0.05 0,0.05 -0.1,0.05 0,0.05 -0.1,0.04 0,0.04 -0.1,0.04 0,0.04 -0.1,0.04 -0.1,0.03 0,0.03 -0.1,0.02 -0.1,0.03 0,0.02 -0.1,0.01 -0.1,0.01 -0.1,0.01 -0.1,0 c -0.9,0 -1.9,-0.91 -1.9,-1.92 0,-0.6 0.4,-1.33 1.4,-1.33 1,0 1.9,0.98 1.9,1.92 z"
           inkscape:connector-curvature="0"
           style="fill:#000000;stroke-width:0" /><path
           id="path4613"
           d="m 1384.9,363.72 0,-0.09 0,-0.08 -0.1,-0.17 0,-0.08 -0.1,-0.09 0,-0.08 0,-0.09 0,-0.09 0,-0.09 -0.1,-0.1 0,-0.09 0,-0.05 0,-0.05 0,-0.05 0,-0.05 0,-0.06 0,-0.05 0,-0.05 0,-0.06 c 0,-1.64 1.4,-2.95 3.3,-2.95 3.5,0 5,4.79 5,5.32 0,0.46 -0.4,0.46 -0.5,0.46 -0.5,0 -0.6,-0.2 -0.7,-0.6 -0.8,-2.78 -2.3,-4.21 -3.7,-4.21 -0.7,0 -0.9,0.45 -0.9,1.21 0,0.8 0.3,1.47 0.6,2.24 0.3,0.94 0.7,1.87 1.1,2.78 0.3,0.84 1.6,4.02 1.7,4.44 0.1,0.34 0.2,0.76 0.2,1.11 0,1.64 -1.4,2.95 -3.3,2.95 -3.5,0 -5,-4.73 -5,-5.33 0,-0.45 0.4,-0.45 0.5,-0.45 0.5,0 0.6,0.17 0.7,0.56 0.9,3 2.4,4.25 3.7,4.25 0.6,0 0.9,-0.28 0.9,-1.22 0,-0.79 -0.2,-1.33 -1.1,-3.48 z"
           inkscape:connector-curvature="0"
           style="fill:#000000;stroke-width:0" /><polyline
           id="polyline4615"
           points="1353,345 1400.4,345 1400.4,347.04 1353,347.04 "
           style="fill:#000000;fill-rule:nonzero;stroke-width:0" /><path
           id="path4617"
           d="m 1376.6,317.81 -0.1,0.13 0,0.12 0,0.12 0,0.11 0,0.12 0,0.11 0,0.11 0,0.1 0,0.21 -0.1,0.19 0,0.19 -0.1,0.17 0,0.17 -0.1,0.15 0,0.15 -0.1,0.14 -0.1,0.13 -0.1,0.12 0,0.11 -0.1,0.1 -0.1,0.1 -0.1,0.09 -0.1,0.08 -0.1,0.07 0,0.07 -0.1,0.06 -0.1,0.05 -0.1,0.05 -0.1,0.04 -0.1,0.04 -0.1,0.02 -0.1,0.03 -0.1,0.02 -0.1,0.01 -0.1,0 0,0.01 c -1.3,0 -2.5,-1.3 -2.5,-2.39 0,-0.64 0.3,-0.94 0.8,-1.49 1.1,-1 1.7,-2.3 1.7,-4.09 0,-2.1 -3,-13.5 -8.8,-13.5 -2.6,0 -3.7,1.75 -3.7,4.33 0,2.79 1.3,6.43 2.9,10.56 0.3,0.86 0.5,1.55 0.5,2.5 0,2.23 -1.5,4.08 -4.1,4.08 -4.6,0 -6.5,-7.22 -6.5,-7.68 0,-0.5 0.5,-0.5 0.6,-0.5 0.5,0 0.5,0.11 0.8,0.91 1.4,5.03 3.6,6.17 5,6.17 0.4,0 1.3,0 1.3,-1.59 0,-1.25 -0.5,-2.59 -0.9,-3.49 -2.2,-5.78 -2.8,-8.07 -2.8,-10.21 0,-5.38 4.4,-6.18 6.6,-6.18 8.4,0 11.3,16.49 11.3,19.08 z"
           inkscape:connector-curvature="0"
           style="fill:#000000;stroke-width:0" /><path
           id="path4619"
           d="m 1397.2,314.98 0.1,0 0,0.01 0,0 0,0.01 0,0 0,0.01 0,0 0,0.01 0,0.01 0,0.01 0,0.01 0,0.02 0,0.02 0,0.02 0,0.02 0,0.02 0,0.02 0,0.03 0,0.02 0,0.05 0,0.02 0,0.02 0.1,0.02 0,0.03 0,0.02 0,0.02 0,0.02 0,0.02 0,0.01 0,0.02 0,0.01 0,0 0,0.01 0,0.01 0,0 0,0.01 0,0 0,0.01 0,0 0,0 0,0.01 0,0 c 0,0.18 -0.2,0.5 -0.6,0.5 -0.7,0 -3.6,-0.28 -4.4,-0.36 -0.3,-0.03 -0.8,-0.06 -0.8,-0.8 0,-0.48 0.5,-0.48 0.9,-0.48 1.7,0 1.7,-0.25 1.7,-0.53 0,-0.24 -0.1,-0.46 -0.1,-0.77 l -2,-7.94 c -0.8,1.14 -2,2.05 -3.6,2.05 v -0.97 c 2.4,0 3.1,-2.64 3.1,-3.03 0,-0.14 -0.1,-0.39 -0.1,-0.49 l -1.7,-6.51 c -0.2,-0.99 -1,-1.67 -1.7,-2.34 -0.3,-0.27 -1.8,-1.4 -3.3,-1.4 -1.2,0 -2.5,0.91 -2.5,3.38 0,1.86 1,5.69 1.8,7.08 1.6,2.79 3.4,3.31 4.4,3.31 v 0.97 c -4.5,0 -9,-4.91 -9,-9.92 0,-3.38 2.3,-5.78 5.3,-5.78 1.8,0 3.5,1.07 4.9,2.43 0.7,-2.09 2.7,-2.43 3.6,-2.43 1.2,0 2.1,0.76 2.7,1.84 0.8,1.36 1.2,3.34 1.2,3.48 0,0.46 -0.4,0.46 -0.5,0.46 -0.5,0 -0.5,-0.14 -0.8,-1.08 -0.4,-1.67 -1.1,-3.74 -2.5,-3.74 -0.9,0 -1.2,0.77 -1.2,1.71 0,0.67 0.1,0.98 0.2,1.44 z"
           inkscape:connector-curvature="0"
           style="fill:#000000;stroke-width:0" /></g>    </g>
  </g>
  <g
     style="display:inline"
     inkscape:label="Layer#2"
     id="layer4"
     inkscape:groupmode="layer">
    <path
       sodipodi:type="arc"
       style="fill:#009449;fill-opacity:1;stroke:none;display:inline"
       id="path5819"
       sodipodi:cx="497.26617"
       sodipodi:cy="305.72662"
       sodipodi:rx="189.69785"
       sodipodi:ry="176.80576"
       d="m 686.96402,305.72662 a 189.69785,176.80576 0 1 1 -379.39569,0 189.69785,176.80576 0 1 1 379.39569,0 z"
       transform="matrix(0.21584671,0,0,0.22838413,-45.828485,30.440699)" />
    <path
       transform="matrix(0.21584671,0,0,0.22838413,-26.135185,-4.4776749)"
       d="m 686.96402,305.72662 a 189.69785,176.80576 0 1 1 -379.39569,0 189.69785,176.80576 0 1 1 379.39569,0 z"
       sodipodi:ry="176.80576"
       sodipodi:rx="189.69785"
       sodipodi:cy="305.72662"
       sodipodi:cx="497.26617"
       id="path5049"
       style="fill:#00adef;fill-opacity:1;stroke:none;display:inline"
       sodipodi:type="arc" />
    <text
       sodipodi:linespacing="125%"
       id="text5942"
       y="71.436012"
       x="44.515522"
       style="font-size:2.51596403px;font-style:italic;font-variant:normal;font-weight:normal;font-stretch:normal;text-align:start;line-height:125%;letter-spacing:0px;word-spacing:0px;writing-mode:lr-tb;text-anchor:start;fill:#000000;fill-opacity:1;stroke:none;display:inline;font-family:FreeSerif;-inkscape-font-specification:FreeSerif Italic"
       xml:space="preserve"><tspan
         y="71.436012"
         x="44.515522"
         id="tspan5944"
         sodipodi:role="line" /></text>
    <path
       inkscape:connector-curvature="0"
       id="path5822"
       d="m 61.507122,59.886265 c -7.780737,0 -15.056267,2.141389 -21.25091,5.857479 0.216871,22.117489 18.461786,39.980236 40.940575,39.980236 7.777939,0 15.052101,-2.13824 21.245293,-5.851859 C 102.22823,77.752057 83.987802,59.886265 61.507122,59.886265 z"
       style="fill:#9fd0d5;fill-opacity:1;stroke:none;display:inline" />
    <path
       transform="matrix(0.21584671,0,0,0.22838413,-5.9324849,30.440699)"
       d="m 686.96402,305.72662 a 189.69785,176.80576 0 1 1 -379.39569,0 189.69785,176.80576 0 1 1 379.39569,0 z"
       sodipodi:ry="176.80576"
       sodipodi:rx="189.69785"
       sodipodi:cy="305.72662"
       sodipodi:cx="497.26617"
       id="path5831"
       style="fill:#dc1a22;fill-opacity:1;stroke:none;display:inline"
       sodipodi:type="arc" />
    <path
       inkscape:connector-curvature="0"
       id="path5833"
       d="m 81.455123,64.991201 c -12.529079,6.90476 -20.998191,20.114079 -20.998191,35.274039 0,15.15996 8.469112,28.36367 20.998191,35.26843 12.526716,-6.90542 20.992577,-20.1102 20.992577,-35.26843 0,-15.158226 -8.465861,-28.368627 -20.992577,-35.274039 z"
       style="fill:#dfc9b2;fill-opacity:1;stroke:none;display:inline" />
    <path
       inkscape:connector-curvature="0"
       id="path5866"
       d="m 101.40312,59.886265 c -22.579468,0 -40.890871,18.023333 -40.946188,40.277885 6.083414,3.53212 13.169704,5.55983 20.739855,5.55983 22.579473,0 40.890873,-18.023329 40.946193,-40.277884 -6.08342,-3.53212 -13.16971,-5.559831 -20.73986,-5.559831 z"
       style="fill:#c7c4e2;fill-opacity:1;stroke:none;display:inline" />
    <path
       inkscape:connector-curvature="0"
       id="path5871"
       d="m 81.455123,64.996817 c -12.499169,6.889836 -20.960619,20.051421 -20.998191,35.167333 0.190106,0.11038 0.380782,0.21831 0.572831,0.32573 0.18501,0.10347 0.369193,0.20819 0.555983,0.30888 0.0096,0.005 0.01849,0.0117 0.02808,0.0168 0.125896,0.0677 0.255196,0.13009 0.381888,0.19656 0.195965,0.10284 0.391841,0.20348 0.589679,0.30326 0.0381,0.0192 0.07415,0.0427 0.11232,0.0618 0.240033,0.12012 0.481744,0.23824 0.724462,0.35381 0.03943,0.0188 0.07844,0.0375 0.117936,0.0562 0.145885,0.0689 0.296832,0.13493 0.443664,0.20217 0.201289,0.0922 0.403485,0.18054 0.606527,0.26957 0.101175,0.0443 0.201656,0.0912 0.303263,0.13478 0.101609,0.0436 0.201229,0.0864 0.303264,0.12917 0.05034,0.0211 0.10119,0.0409 0.151631,0.0618 0.228479,0.0947 0.460206,0.18445 0.690767,0.27518 0.07719,0.0304 0.152834,0.0656 0.230256,0.0955 0.263403,0.10182 0.531445,0.20109 0.797471,0.29765 0.166792,0.0605 0.332021,0.12126 0.499823,0.17971 0.10085,0.0351 0.202051,0.0667 0.303263,0.10109 0.138312,0.0469 0.276605,0.0949 0.415584,0.1404 0.228023,0.0747 0.460984,0.14817 0.690767,0.21902 0.203031,0.0626 0.402151,0.12016 0.606527,0.17971 0.06924,0.0202 0.138397,0.042 0.207791,0.0618 0.09546,0.0273 0.190669,0.052 0.286416,0.0786 0.280718,0.078 0.564884,0.15805 0.848014,0.23026 0.03169,0.008 0.06375,0.0145 0.09547,0.0225 0.187238,0.0473 0.373337,0.0901 0.561599,0.13479 0.220232,0.0523 0.441083,0.10284 0.662687,0.15163 0.205781,0.0453 0.410823,0.0926 0.617759,0.13478 0.01687,0.003 0.03367,0.008 0.05054,0.0112 0.0952,0.0193 0.190978,0.0375 0.286416,0.0562 0.222686,0.0435 0.44433,0.0836 0.668303,0.12356 0.07301,0.013 0.145877,0.0267 0.219023,0.0393 0.281441,0.0486 0.564622,0.0919 0.848015,0.13478 0.0953,0.0144 0.190897,0.0312 0.286416,0.0449 0.214227,0.0309 0.430546,0.0566 0.645838,0.0842 0.04886,0.006 0.0971,0.0164 0.146016,0.0225 0.05591,0.007 0.112496,0.0101 0.16848,0.0168 0.04135,0.005 0.08216,0.012 0.123552,0.0168 0.56657,0.0665 1.13383,0.11939 1.707261,0.16287 0.05047,0.004 0.101113,0.008 0.151632,0.0112 0.305247,0.0221 0.608326,0.0463 0.915406,0.0618 0.0075,3.6e-4 0.01499,-3.6e-4 0.02246,0 0.285503,0.0142 0.572222,0.0253 0.859247,0.0337 0.06185,0.002 0.123406,0.004 0.185328,0.006 0.113813,0.003 0.228532,0.004 0.342575,0.006 0.235697,0.004 0.470963,0.006 0.707615,0.006 0.24306,0 0.48802,-0.001 0.730079,-0.006 0.108398,-0.002 0.217535,-0.003 0.325727,-0.006 0.04684,-0.001 0.0936,-0.004 0.1404,-0.006 0.21732,-0.006 0.434996,-0.013 0.651455,-0.0225 0.285562,-0.0125 0.569612,-0.0323 0.853631,-0.0506 0.06376,-0.004 0.127259,-0.007 0.190943,-0.0112 0.01121,-7.2e-4 0.02248,7.2e-4 0.0337,0 0.197532,-0.0138 0.392927,-0.034 0.589679,-0.0505 0.02996,-0.003 0.05992,-0.003 0.08986,-0.006 0.190937,-0.0164 0.382653,-0.0315 0.572831,-0.0505 0.28346,-0.0284 0.566295,-0.0615 0.848015,-0.0955 0.06022,-0.007 0.119576,-0.0149 0.179712,-0.0225 0.01865,-0.002 0.03752,-0.003 0.05616,-0.006 0.322269,-0.0408 0.64607,-0.0867 0.96595,-0.13478 0.338379,-0.0509 0.675278,-0.10384 1.010878,-0.16287 0.335601,-0.059 0.66693,-0.1239 0.999647,-0.19094 0.319367,-0.0643 0.638106,-0.13054 0.954718,-0.20218 0.0133,-0.003 0.02601,-0.008 0.03931,-0.0112 0.329726,-0.0749 0.656171,-0.15313 0.982799,-0.23587 0.110476,-0.028 0.22123,-0.0554 0.331343,-0.0842 0.216833,-0.0568 0.430435,-0.11388 0.645839,-0.17409 0.0074,-0.002 0.01502,-0.004 0.02246,-0.006 0.285655,-0.08 0.570556,-0.16113 0.853631,-0.24711 0.02993,-0.009 0.05996,-0.0189 0.08986,-0.0281 0.129751,-0.0397 0.258311,-0.0826 0.387504,-0.12355 0.189714,-0.0601 0.378719,-0.12256 0.567215,-0.18532 0.02986,-0.01 0.06003,-0.0181 0.08986,-0.0281 0.286162,-0.096 0.570356,-0.1956 0.85363,-0.29765 0.147945,-0.0533 0.296523,-0.1079 0.443664,-0.16287 0.165559,-0.0618 0.329681,-0.12147 0.494207,-0.18532 0.04877,-0.0189 0.09734,-0.037 0.146016,-0.0562 0.260075,-0.10209 0.517589,-0.20734 0.775006,-0.3145 0.163818,-0.0682 0.32587,-0.13754 0.488592,-0.20779 0.140284,-0.0605 0.281741,-0.12328 0.421199,-0.18533 0.275295,-0.12253 0.553535,-0.24794 0.825551,-0.37627 0.02655,-0.0125 0.05211,-0.0267 0.07862,-0.0393 0.178958,-0.0849 0.356016,-0.17097 0.533519,-0.25834 0.117551,-0.0579 0.236905,-0.11516 0.353807,-0.17409 0.01722,-0.009 0.03335,-0.0194 0.05054,-0.0281 0.193546,-0.0979 0.386696,-0.19678 0.578446,-0.29765 0.0821,-0.0432 0.1653,-0.0854 0.2471,-0.12917 0.0645,-0.0345 0.12667,-0.0719 0.19095,-0.1067 0.22456,-0.12164 0.44632,-0.24501 0.6683,-0.37066 0.28551,-0.16161 0.5725,-0.32606 0.85363,-0.494205 0.013,-0.0078 0.0263,-0.01468 0.0393,-0.02246 C 102.29713,84.879032 93.870576,71.842329 81.455123,64.996817 z"
       style="fill:#ffffff;fill-opacity:1;stroke:none;display:inline" />
    <text
       sodipodi:linespacing="125%"
       id="text5946"
       y="71.941109"
       x="57.25563"
       style="font-size:3.23481083px;font-style:normal;font-variant:normal;font-weight:600;font-stretch:normal;text-align:center;line-height:125%;letter-spacing:0px;word-spacing:0px;writing-mode:lr-tb;text-anchor:middle;fill:#ffffff;fill-opacity:1;stroke:none;display:inline;font-family:FreeSans;-inkscape-font-specification:FreeSans Semi-Bold"
       xml:space="preserve"><tspan
         y="71.941109"
         x="57.25563"
         id="tspan5948"
         sodipodi:role="line">Matter/Anti-matter</tspan><tspan
         id="tspan5950"
         y="75.984619"
         x="57.25563"
         sodipodi:role="line">Assymetry</tspan></text>
    <text
       sodipodi:linespacing="125%"
       id="text5952"
       y="81.874741"
       x="67.283005"
       style="font-size:3.23481083px;font-style:normal;font-variant:normal;font-weight:600;font-stretch:normal;text-align:start;line-height:125%;letter-spacing:0px;word-spacing:0px;writing-mode:lr-tb;text-anchor:start;fill:#000000;fill-opacity:1;stroke:none;display:inline;font-family:FreeSans;-inkscape-font-specification:FreeSans Semi-Bold"
       xml:space="preserve"><tspan
         y="81.874741"
         x="67.283005"
         id="tspan5954"
         sodipodi:role="line">Origin of Universe</tspan></text>
    <text
       sodipodi:linespacing="125%"
       id="text5964"
       y="88.609413"
       x="65.633331"
       style="font-size:3.23481083px;font-style:normal;font-variant:normal;font-weight:600;font-stretch:normal;text-align:start;line-height:125%;letter-spacing:0px;word-spacing:0px;writing-mode:lr-tb;text-anchor:start;fill:#000000;fill-opacity:1;stroke:none;display:inline;font-family:FreeSans;-inkscape-font-specification:FreeSans Semi-Bold"
       xml:space="preserve"><tspan
         y="88.609413"
         x="65.633331"
         id="tspan5966"
         sodipodi:role="line">Unification of forces</tspan></text>
    <text
       sodipodi:linespacing="125%"
       id="text5968"
       y="94.670616"
       x="81.448753"
       style="font-size:3.05509901px;font-style:normal;font-variant:normal;font-weight:600;font-stretch:normal;text-align:center;line-height:125%;letter-spacing:0px;word-spacing:0px;writing-mode:lr-tb;text-anchor:middle;fill:#000000;fill-opacity:1;stroke:none;display:inline;font-family:FreeSans;-inkscape-font-specification:FreeSans Semi-Bold"
       xml:space="preserve"><tspan
         y="94.670616"
         x="81.448753"
         id="tspan5970"
         sodipodi:role="line">New physics</tspan><tspan
         id="tspan5972"
         y="98.489487"
         x="81.448753"
         sodipodi:role="line">beyond the standard model</tspan></text>
    <text
       sodipodi:linespacing="125%"
       id="text5974"
       y="108.64504"
       x="28.689049"
       style="font-size:3.23481083px;font-style:normal;font-variant:normal;font-weight:600;font-stretch:normal;text-align:start;line-height:125%;letter-spacing:0px;word-spacing:0px;writing-mode:lr-tb;text-anchor:start;fill:#ffffff;fill-opacity:1;stroke:none;display:inline;font-family:FreeSans;-inkscape-font-specification:FreeSans Semi-Bold"
       xml:space="preserve"><tspan
         y="108.64504"
         x="28.689049"
         id="tspan5976"
         sodipodi:role="line">Neutrino physics</tspan></text>
    <text
       sodipodi:linespacing="125%"
       id="text5978"
       y="124.63988"
       x="38.622684"
       style="font-size:3.23481083px;font-style:normal;font-variant:normal;font-weight:600;font-stretch:normal;text-align:start;line-height:125%;letter-spacing:0px;word-spacing:0px;writing-mode:lr-tb;text-anchor:start;fill:#ffffff;fill-opacity:1;stroke:none;display:inline;font-family:FreeSans;-inkscape-font-specification:FreeSans Semi-Bold"
       xml:space="preserve"><tspan
         y="124.63988"
         x="38.622684"
         id="tspan5980"
         sodipodi:role="line">Proton-decays</tspan></text>
    <text
       sodipodi:linespacing="125%"
       id="text5982"
       y="92.313477"
       x="25.995182"
       style="font-size:3.23481083px;font-style:normal;font-variant:normal;font-weight:600;font-stretch:normal;text-align:start;line-height:125%;letter-spacing:0px;word-spacing:0px;writing-mode:lr-tb;text-anchor:start;fill:#ffffff;fill-opacity:1;stroke:none;display:inline;font-family:FreeSans;-inkscape-font-specification:FreeSans Semi-Bold"
       xml:space="preserve"><tspan
         y="92.313477"
         x="25.995182"
         id="tspan5984"
         sodipodi:role="line">B-physics</tspan></text>
    <text
       sodipodi:linespacing="125%"
       id="text5986"
       y="70.425812"
       x="97.719398"
       style="font-size:3.23481083px;font-style:normal;font-variant:normal;font-weight:600;font-stretch:normal;text-align:start;line-height:125%;letter-spacing:0px;word-spacing:0px;writing-mode:lr-tb;text-anchor:start;fill:#ffffff;fill-opacity:1;stroke:none;display:inline;font-family:FreeSans;-inkscape-font-specification:FreeSans Semi-Bold"
       xml:space="preserve"><tspan
         y="70.425812"
         x="97.719398"
         id="tspan5988"
         sodipodi:role="line">Dark Matter</tspan></text>
    <text
       sodipodi:linespacing="125%"
       id="text5990"
       y="109.65524"
       x="116.4081"
       style="font-size:3.23481083px;font-style:normal;font-variant:normal;font-weight:600;font-stretch:normal;text-align:start;line-height:125%;letter-spacing:0px;word-spacing:0px;writing-mode:lr-tb;text-anchor:start;fill:#ffffff;fill-opacity:1;stroke:none;display:inline;font-family:FreeSans;-inkscape-font-specification:FreeSans Semi-Bold"
       xml:space="preserve"><tspan
         y="109.65524"
         x="116.4081"
         id="tspan5992"
         sodipodi:role="line">Dark Energy</tspan></text>
    <text
       sodipodi:linespacing="125%"
       id="text5994"
       y="126.49192"
       x="99.739792"
       style="font-size:3.23481083px;font-style:normal;font-variant:normal;font-weight:600;font-stretch:normal;text-align:start;line-height:125%;letter-spacing:0px;word-spacing:0px;writing-mode:lr-tb;text-anchor:start;fill:#ffffff;fill-opacity:1;stroke:none;display:inline;font-family:FreeSans;-inkscape-font-specification:FreeSans Semi-Bold"
       xml:space="preserve"><tspan
         y="126.49192"
         x="99.739792"
         id="tspan5996"
         sodipodi:role="line">Cosmic particles</tspan></text>
    <path
       sodipodi:nodetypes="ccc"
       inkscape:connector-curvature="0"
       id="path4272"
       d="M 47.19394,42.437947 C 56.157978,30.13653 68.762794,25.010652 83.105253,24.789998 c 18.562457,2.537514 26.117237,9.401035 32.847167,18.889123"
       style="fill:none;stroke:none;display:inline" />
    <path
       sodipodi:nodetypes="ccc"
       inkscape:connector-curvature="0"
       id="path4274"
       d="m 0,95.881679 c 0.08311846,12.419571 1.6412801,20.653701 12.736615,35.749961 10.139388,10.14632 24.559751,17.5988 38.156266,16.95134"
       style="fill:none;stroke:none;display:inline" />
    <text
       transform="matrix(0.17971171,0,0,0.17971171,9.9293561,15.035638)"
       xml:space="preserve"
       style="font-size:48px;font-style:normal;font-variant:normal;font-weight:normal;font-stretch:normal;text-align:start;line-height:125%;letter-spacing:0px;word-spacing:0px;writing-mode:lr-tb;text-anchor:start;fill:#000000;fill-opacity:1;stroke:none;display:inline;font-family:FreeSans;-inkscape-font-specification:FreeSans"
       id="text6103"
       sodipodi:linespacing="125%"><textPath
         id="textPath6146"
         xlink:href="#path6122"><tspan
   id="tspan6105">The intensity frontier</tspan></textPath></text>
    <text
       transform="matrix(0.17971171,0,0,0.17971171,-2.1220557,10.325145)"
       sodipodi:linespacing="125%"
       id="text6038"
       style="font-size:48px;font-style:normal;font-variant:normal;font-weight:normal;font-stretch:normal;text-align:start;line-height:125%;letter-spacing:0px;word-spacing:0px;writing-mode:lr-tb;text-anchor:start;fill:#000000;fill-opacity:1;stroke:none;display:inline;font-family:FreeSans;-inkscape-font-specification:FreeSans"
       xml:space="preserve"><textPath
         id="textPath6107"
         xlink:href="#path6042"><tspan
   id="tspan6040">The energy frontier</tspan></textPath></text>
    <text
       sodipodi:linespacing="125%"
       id="text6149"
       style="font-size:48px;font-style:normal;font-variant:normal;font-weight:normal;font-stretch:normal;text-align:start;line-height:125%;letter-spacing:0px;word-spacing:0px;writing-mode:lr-tb;text-anchor:start;fill:#000000;fill-opacity:1;stroke:none;display:inline;font-family:FreeSans;-inkscape-font-specification:FreeSans"
       xml:space="preserve"
       transform="matrix(0.01247591,-0.17927814,0.17927814,0.01247591,12.947958,145.47411)"><textPath
         xlink:href="#path6122"
         id="textPath6151"><tspan
   id="tspan6153">The cosmic frontier</tspan></textPath></text>
    <text
       xml:space="preserve"
       style="font-size:3.23481083px;font-style:normal;font-variant:normal;font-weight:600;font-stretch:normal;text-align:start;line-height:125%;letter-spacing:0px;word-spacing:0px;writing-mode:lr-tb;text-anchor:start;fill:#ffff00;fill-opacity:1;stroke:none;display:inline;font-family:FreeSans;-inkscape-font-specification:FreeSans Semi-Bold"
       x="28.689049"
       y="108.64504"
       id="text3390"
       sodipodi:linespacing="125%"><tspan
         sodipodi:role="line"
         id="tspan3392"
         x="28.689049"
         y="108.64504">Neutrino physics</tspan></text>
    <text
       xml:space="preserve"
       style="font-size:3.05509901px;font-style:normal;font-variant:normal;font-weight:600;font-stretch:normal;text-align:center;line-height:125%;letter-spacing:0px;word-spacing:0px;writing-mode:lr-tb;text-anchor:middle;fill:#ff0000;fill-opacity:1;stroke:none;display:inline;font-family:FreeSans;-inkscape-font-specification:FreeSans Semi-Bold"
       x="81.448753"
       y="94.670616"
       id="text3375"
       sodipodi:linespacing="125%"><tspan
         sodipodi:role="line"
         id="tspan3377"
         x="81.448753"
         y="94.670616">New physics</tspan><tspan
         sodipodi:role="line"
         x="81.448753"
         y="98.489487"
         id="tspan3379">beyond the standard model</tspan></text>
    <text
       xml:space="preserve"
       style="font-size:3.23481083px;font-style:normal;font-variant:normal;font-weight:600;font-stretch:normal;text-align:start;line-height:125%;letter-spacing:0px;word-spacing:0px;writing-mode:lr-tb;text-anchor:start;fill:#ffff00;fill-opacity:1;stroke:none;display:inline;font-family:FreeSans;-inkscape-font-specification:FreeSans Semi-Bold"
       x="97.719398"
       y="70.425812"
       id="text3384"
       sodipodi:linespacing="125%"><tspan
         sodipodi:role="line"
         id="tspan3386"
         x="97.719398"
         y="70.425812">Dark Matter</tspan></text>
    <text
       xml:space="preserve"
       style="font-size:3.23481083px;font-style:normal;font-variant:normal;font-weight:600;font-stretch:normal;text-align:start;line-height:125%;letter-spacing:0px;word-spacing:0px;writing-mode:lr-tb;text-anchor:start;fill:#ffff00;fill-opacity:1;stroke:none;display:inline;font-family:FreeSans;-inkscape-font-specification:FreeSans Semi-Bold"
       x="71.416046"
       y="45.552917"
       id="text3396"
       sodipodi:linespacing="125%"><tspan
         sodipodi:role="line"
         id="tspan3398"
         x="71.416046"
         y="45.552917">Hierarchy of masses</tspan></text>
  </g>
</svg>
