<?xml version="1.0" encoding="UTF-8" standalone="no"?>
<!-- Created with Inkscape (http://www.inkscape.org/) -->

<svg
   xmlns:dc="http://purl.org/dc/elements/1.1/"
   xmlns:cc="http://creativecommons.org/ns#"
   xmlns:rdf="http://www.w3.org/1999/02/22-rdf-syntax-ns#"
   xmlns:svg="http://www.w3.org/2000/svg"
   xmlns="http://www.w3.org/2000/svg"
   xmlns:sodipodi="http://sodipodi.sourceforge.net/DTD/sodipodi-0.dtd"
   xmlns:inkscape="http://www.inkscape.org/namespaces/inkscape"
   id="svg2"
   version="1.1"
   inkscape:version="0.48.3.1 r9886"
   width="617.03363"
   height="130.13538"
   xml:space="preserve"
   sodipodi:docname="coan.svg"><metadata
     id="metadata8"><rdf:RDF><cc:Work
         rdf:about=""><dc:format>image/svg+xml</dc:format><dc:type
           rdf:resource="http://purl.org/dc/dcmitype/StillImage" /><dc:title /></cc:Work></rdf:RDF></metadata><defs
     id="defs6" /><sodipodi:namedview
     pagecolor="#ffffff"
     bordercolor="#666666"
     borderopacity="1"
     objecttolerance="10"
     gridtolerance="10"
     guidetolerance="10"
     inkscape:pageopacity="0"
     inkscape:pageshadow="2"
     inkscape:window-width="1366"
     inkscape:window-height="709"
     id="namedview4"
     showgrid="false"
     fit-margin-top="0"
     fit-margin-left="0"
     fit-margin-right="0"
     fit-margin-bottom="0"
     inkscape:zoom="1.9237201"
     inkscape:cx="308.51682"
     inkscape:cy="65.067688"
     inkscape:window-x="0"
     inkscape:window-y="27"
     inkscape:window-maximized="1"
     inkscape:current-layer="g10" /><g
     id="g10"
     inkscape:groupmode="layer"
     inkscape:label="ink_ext_XXXXXX"
     transform="matrix(1.25,0,0,-1.25,12.649419,130.77038)"><g
   id="g12"
   transform="scale(0.1,0.1)"><g
     id="g14"
     transform="matrix(4620,0,0,-1006.8,13.48,1016.68)"><rect
       x="0"
       y="0"
       width="1"
       height="1"
       transform="matrix(1,0,0,-1,0,1)"
       style="fill:#ffffff;fill-opacity:1;fill-rule:nonzero"
       id="rect16" /></g><path
     d="M 320.453,736.613 89.7695,967.301"
     style="fill:none;stroke:#231f20;stroke-width:10;stroke-linecap:butt;stroke-linejoin:miter;stroke-miterlimit:10;stroke-opacity:1;stroke-dasharray:65.2476, 65.2476;stroke-dashoffset:0"
     id="path18"
     inkscape:connector-curvature="0" /><path
     d="m 338.133,718.938 -21.215,49.496 -7.07,-21.211 -21.211,-7.071 49.496,-21.214 z"
     style="fill:none;stroke:#231f20;stroke-width:10;stroke-linecap:butt;stroke-linejoin:miter;stroke-miterlimit:10;stroke-opacity:1;stroke-dasharray:none"
     id="path20"
     inkscape:connector-curvature="0" /><path
     d="m 338.133,718.938 -21.215,49.496 -7.07,-21.211 -21.211,-7.071"
     style="fill:#231f20;fill-opacity:1;fill-rule:nonzero;stroke:none"
     id="path22"
     inkscape:connector-curvature="0" /><path
     d="M 551.141,505.93 320.453,736.613"
     style="fill:none;stroke:#231f20;stroke-width:10;stroke-linecap:butt;stroke-linejoin:miter;stroke-miterlimit:10;stroke-opacity:1;stroke-dasharray:65.2476, 65.2476;stroke-dashoffset:0"
     id="path24"
     inkscape:connector-curvature="0" /><path
     d="M 320.453,275.246 89.7695,44.5586"
     style="fill:none;stroke:#231f20;stroke-width:10;stroke-linecap:butt;stroke-linejoin:miter;stroke-miterlimit:10;stroke-opacity:1;stroke-dasharray:65.2476, 65.2476;stroke-dashoffset:0"
     id="path26"
     inkscape:connector-curvature="0" /><path
     d="m 338.133,292.922 -49.496,-21.211 21.211,-7.074 7.07,-21.211 21.215,49.496 z"
     style="fill:none;stroke:#231f20;stroke-width:10;stroke-linecap:butt;stroke-linejoin:miter;stroke-miterlimit:10;stroke-opacity:1;stroke-dasharray:none"
     id="path28"
     inkscape:connector-curvature="0" /><path
     d="m 338.133,292.922 -49.496,-21.211 21.211,-7.074 7.07,-21.211"
     style="fill:#231f20;fill-opacity:1;fill-rule:nonzero;stroke:none"
     id="path30"
     inkscape:connector-curvature="0" /><path
     d="M 551.141,505.93 320.453,275.246"
     style="fill:none;stroke:#231f20;stroke-width:10;stroke-linecap:butt;stroke-linejoin:miter;stroke-miterlimit:10;stroke-opacity:1;stroke-dasharray:65.2476, 65.2476;stroke-dashoffset:0"
     id="path32"
     inkscape:connector-curvature="0" /><path
     d="m 1243.19,505.93 c -16.23,22 -23.81,52.652 2.14,78.601 51.71,51.715 128.17,-24.754 93.76,-59.164 -34.41,-34.41 -110.87,42.059 -47.63,105.305 63.25,63.242 139.72,-13.223 105.31,-47.633 -34.41,-34.41 -110.88,42.059 -47.63,105.301 63.24,63.246 139.71,-13.219 105.3,-47.629 -34.41,-34.41 -110.88,42.055 -47.64,105.301 63.25,63.246 139.72,-13.219 105.31,-47.629 -34.41,-34.41 -110.88,42.055 -47.63,105.301 63.24,63.246 139.71,-13.219 105.3,-47.629 -34.41,-34.41 -110.88,42.054 -47.63,105.3 63.24,63.247 139.71,-13.222 105.3,-47.632 -34.41,-34.411 -110.88,42.058 -47.63,105.304 63.25,63.246 139.71,-13.222 105.3,-47.632 -34.41,-34.411 -110.87,42.058 -59.16,93.769 25.95,25.953 56.6,18.367 78.6,2.137"
     style="fill:none;stroke:#231f20;stroke-width:10;stroke-linecap:butt;stroke-linejoin:miter;stroke-miterlimit:10;stroke-opacity:1;stroke-dasharray:none"
     id="path34"
     inkscape:connector-curvature="0" /><path
     d="m 1243.19,505.93 c 22,16.234 52.65,23.816 78.6,-2.137 51.71,-51.711 -24.75,-128.176 -59.16,-93.766 -34.41,34.407 42.05,110.875 105.3,47.629 63.25,-63.246 -13.22,-139.711 -47.63,-105.301 -34.41,34.411 42.06,110.875 105.3,47.629 63.25,-63.246 -13.22,-139.711 -47.63,-105.3 -34.41,34.41 42.06,110.875 105.3,47.628 63.25,-63.242 -13.22,-139.71 -47.63,-105.3 -34.41,34.41 42.06,110.875 105.31,47.633 63.24,-63.247 -13.23,-139.715 -47.64,-105.305 -34.41,34.41 42.06,110.879 105.3,47.633 63.25,-63.246 -13.22,-139.7152 -47.63,-105.305 -34.41,34.41 42.06,110.879 105.31,47.633 63.24,-63.246 -13.22,-139.7112 -47.63,-105.301 -34.41,34.4062 42.05,110.875 93.76,59.164 25.96,-25.9531 18.37,-56.6054 2.14,-78.6054"
     style="fill:none;stroke:#231f20;stroke-width:10;stroke-linecap:butt;stroke-linejoin:miter;stroke-miterlimit:10;stroke-opacity:1;stroke-dasharray:none"
     id="path36"
     inkscape:connector-curvature="0" /><path
     d="M 3088.66,736.613 2857.98,967.301"
     style="fill:none;stroke:#231f20;stroke-width:10;stroke-linecap:butt;stroke-linejoin:miter;stroke-miterlimit:10;stroke-opacity:1;stroke-dasharray:65.2468, 65.2468;stroke-dashoffset:0"
     id="path38"
     inkscape:connector-curvature="0" /><path
     d="m 3106.34,718.938 -21.22,49.496 -7.07,-21.211 -21.21,-7.071 49.5,-21.214 z"
     style="fill:none;stroke:#231f20;stroke-width:10;stroke-linecap:butt;stroke-linejoin:miter;stroke-miterlimit:10;stroke-opacity:1;stroke-dasharray:none"
     id="path40"
     inkscape:connector-curvature="0" /><path
     d="m 3106.34,718.938 -21.22,49.496 -7.07,-21.211 -21.21,-7.071"
     style="fill:#231f20;fill-opacity:1;fill-rule:nonzero;stroke:none"
     id="path42"
     inkscape:connector-curvature="0" /><path
     d="M 3319.34,505.93 3088.66,736.613"
     style="fill:none;stroke:#231f20;stroke-width:10;stroke-linecap:butt;stroke-linejoin:miter;stroke-miterlimit:10;stroke-opacity:1;stroke-dasharray:65.2468, 65.2468;stroke-dashoffset:0"
     id="path44"
     inkscape:connector-curvature="0" /><path
     d="M 3088.66,275.246 2857.98,44.5586"
     style="fill:none;stroke:#231f20;stroke-width:10;stroke-linecap:butt;stroke-linejoin:miter;stroke-miterlimit:10;stroke-opacity:1;stroke-dasharray:none"
     id="path46"
     inkscape:connector-curvature="0" /><path
     d="m 3106.34,292.922 -49.5,-21.211 21.21,-7.074 7.07,-21.211 21.22,49.496 z"
     style="fill:none;stroke:#231f20;stroke-width:10;stroke-linecap:butt;stroke-linejoin:miter;stroke-miterlimit:10;stroke-opacity:1;stroke-dasharray:none"
     id="path48"
     inkscape:connector-curvature="0" /><path
     d="m 3106.34,292.922 -49.5,-21.211 21.21,-7.074 7.07,-21.211"
     style="fill:#231f20;fill-opacity:1;fill-rule:nonzero;stroke:none"
     id="path50"
     inkscape:connector-curvature="0" /><path
     d="M 3319.34,505.93 3088.66,275.246"
     style="fill:none;stroke:#231f20;stroke-width:10;stroke-linecap:butt;stroke-linejoin:miter;stroke-miterlimit:10;stroke-opacity:1;stroke-dasharray:none"
     id="path52"
     inkscape:connector-curvature="0" /><path
     d="m 3723.04,505.93 -403.7,0"
     style="fill:none;stroke:#231f20;stroke-width:10;stroke-linecap:butt;stroke-linejoin:miter;stroke-miterlimit:10;stroke-opacity:1;stroke-dasharray:none;stroke-dashoffset:0"
     id="path54"
     inkscape:connector-curvature="0" /><path
     d="m 3748.04,505.93 -50,20 10,-20 -10,-20 50,20 z"
     style="fill:none;stroke:#231f20;stroke-width:10;stroke-linecap:butt;stroke-linejoin:miter;stroke-miterlimit:10;stroke-opacity:1;stroke-dasharray:none"
     id="path56"
     inkscape:connector-curvature="0" /><path
     d="m 3748.04,505.93 -50,20 10,-20 -10,-20"
     style="fill:#231f20;fill-opacity:1;fill-rule:nonzero;stroke:none"
     id="path58"
     inkscape:connector-curvature="0" /><path
     d="m 4126.74,505.93 -403.7,0"
     style="fill:none;stroke:#231f20;stroke-width:10;stroke-linecap:butt;stroke-linejoin:miter;stroke-miterlimit:10;stroke-opacity:1;stroke-dasharray:none;stroke-dashoffset:0"
     id="path60"
     inkscape:connector-curvature="0" /><path
     d="m 4126.74,505.93 c -16.23,22 -23.81,52.652 2.14,78.601 51.71,51.715 128.17,-24.754 93.76,-59.164 -34.41,-34.41 -110.87,42.059 -47.63,105.305 63.25,63.242 139.72,-13.223 105.31,-47.633 -34.41,-34.41 -110.88,42.059 -47.64,105.301 63.25,63.246 139.72,-13.219 105.31,-47.629 -34.41,-34.41 -110.88,42.055 -47.63,105.301 63.24,63.246 139.71,-13.219 105.3,-47.629 -34.41,-34.41 -110.88,42.055 -47.63,105.301 63.24,63.246 139.71,-13.219 105.3,-47.629 -34.41,-34.41 -110.88,42.054 -47.63,105.3 63.25,63.247 139.71,-13.222 105.3,-47.632 -34.41,-34.411 -110.88,42.058 -47.63,105.304 63.24,63.246 139.71,-13.222 105.3,-47.632 -34.41,-34.411 -110.87,42.058 -59.16,93.769 25.95,25.953 56.6,18.367 78.6,2.137"
     style="fill:none;stroke:#231f20;stroke-width:10;stroke-linecap:butt;stroke-linejoin:miter;stroke-miterlimit:10;stroke-opacity:1;stroke-dasharray:none"
     id="path62"
     inkscape:connector-curvature="0" /><path
     d="M 4357.43,275.246 4126.74,505.93"
     style="fill:none;stroke:#231f20;stroke-width:10;stroke-linecap:butt;stroke-linejoin:miter;stroke-miterlimit:10;stroke-opacity:1;stroke-dasharray:none"
     id="path64"
     inkscape:connector-curvature="0" /><path
     d="m 4375.1,257.566 -21.21,49.5 -7.07,-21.214 -21.21,-7.071 49.49,-21.215 z"
     style="fill:none;stroke:#231f20;stroke-width:10;stroke-linecap:butt;stroke-linejoin:miter;stroke-miterlimit:10;stroke-opacity:1;stroke-dasharray:none"
     id="path66"
     inkscape:connector-curvature="0" /><path
     d="m 4375.1,257.566 -21.21,49.5 -7.07,-21.214 -21.21,-7.071"
     style="fill:#231f20;fill-opacity:1;fill-rule:nonzero;stroke:none"
     id="path68"
     inkscape:connector-curvature="0" /><path
     d="M 4588.11,44.5586 4357.43,275.246"
     style="fill:none;stroke:#231f20;stroke-width:10;stroke-linecap:butt;stroke-linejoin:miter;stroke-miterlimit:10;stroke-opacity:1;stroke-dasharray:none"
     id="path70"
     inkscape:connector-curvature="0" /><path
     d="m 551.141,505.93 c 3.843,27.035 19.222,54.07 53.824,54.07 71.734,0 71.734,-108.141 23.07,-108.141 -48.664,0 -48.664,108.141 38.445,108.141 87.114,0 87.114,-108.141 38.45,-108.141 -48.664,0 -48.664,108.141 38.445,108.141 87.109,0 87.109,-108.141 38.449,-108.141 -48.664,0 -48.664,108.141 38.446,108.141 87.109,0 87.109,-108.141 38.449,-108.141 -48.664,0 -48.664,108.141 38.445,108.141 87.109,0 87.109,-108.141 38.449,-108.141 -48.664,0 -48.664,108.141 38.446,108.141 87.111,0 87.111,-108.141 38.451,-108.141 -48.666,0 -48.666,108.141 38.44,108.141 87.11,0 87.11,-108.141 38.45,-108.141 -48.66,0 -48.66,108.141 38.45,108.141 87.11,0 87.11,-108.141 38.45,-108.141 -48.67,0 -48.67,108.141 23.06,108.141 34.6,0 49.98,-27.035 53.83,-54.07"
     style="fill:none;stroke:#231f20;stroke-width:10;stroke-linecap:butt;stroke-linejoin:miter;stroke-miterlimit:10;stroke-opacity:1;stroke-dasharray:none"
     id="path72"
     inkscape:connector-curvature="0" /><g
     id="g74"
     transform="matrix(4628.4,0,0,-4.8,9.88,1020.28)"><rect
       x="0"
       y="0"
       width="1"
       height="1"
       transform="matrix(1,0,0,-1,0,1)"
       style="fill:#ffffff;fill-opacity:1;fill-rule:nonzero"
       id="rect76" /></g><g
     id="g78"
     transform="matrix(4.8,0,0,-1010.4,9.88,1017.88)"><rect
       x="0"
       y="0"
       width="1"
       height="1"
       transform="matrix(1,0,0,-1,0,1)"
       style="fill:#ffffff;fill-opacity:1;fill-rule:nonzero"
       id="rect80" /></g><g
     id="g82"
     transform="matrix(4.8,0,0,-1010.4,4633.48,1017.88)"><rect
       x="0"
       y="0"
       width="1"
       height="1"
       transform="matrix(1,0,0,-1,0,1)"
       style="fill:#ffffff;fill-opacity:1;fill-rule:nonzero"
       id="rect84" /></g><g
     id="g86"
     transform="matrix(4628.4,0,0,-4.8,9.88,9.88007)"><rect
       x="0"
       y="0"
       width="1"
       height="1"
       transform="matrix(1,0,0,-1,0,1)"
       style="fill:#ffffff;fill-opacity:1;fill-rule:nonzero"
       id="rect88" /></g></g><text
   xml:space="preserve"
   style="font-size:19.20000076px;font-style:italic;font-variant:normal;font-weight:normal;font-stretch:normal;text-align:center;line-height:125%;letter-spacing:0px;word-spacing:0px;writing-mode:lr-tb;text-anchor:middle;fill:#000000;fill-opacity:1;stroke:none;font-family:FreeSerif;-inkscape-font-specification:FreeSerif Italic"
   x="-2.7422075"
   y="-5.4844146"
   id="text3065"
   sodipodi:linespacing="125%"
   transform="scale(1,-1)"><tspan
     sodipodi:role="line"
     id="tspan3067"
     x="-1.9422077"
     y="-5.4844146">η<tspan
   style="font-size:52.00042725%;font-style:normal;letter-spacing:1.60000002px;baseline-shift:super;-inkscape-font-specification:FreeSerif"
   id="tspan3069">+</tspan></tspan></text>


<text
   transform="scale(1,-1)"
   sodipodi:linespacing="125%"
   id="text3071"
   y="-91.884361"
   x="-2.7422075"
   style="font-size:19.20000076px;font-style:italic;font-variant:normal;font-weight:normal;font-stretch:normal;text-align:center;line-height:125%;letter-spacing:0px;word-spacing:0px;writing-mode:lr-tb;text-anchor:middle;fill:#000000;fill-opacity:1;stroke:none;font-family:FreeSerif;-inkscape-font-specification:FreeSerif Italic"
   xml:space="preserve"><tspan
     y="-91.884361"
     x="-2.7422078"
     id="tspan3073"
     sodipodi:role="line">η<tspan
   id="tspan3075"
   style="font-size:52.00042725000000132%;baseline-shift:super;font-style:normal;-inkscape-font-specification:FreeSerif">0</tspan></tspan></text>


<text
   transform="scale(1,-1)"
   sodipodi:linespacing="125%"
   id="text3096"
   y="-5.4844146"
   x="184.45795"
   style="font-size:19.20000076px;font-style:italic;font-variant:normal;font-weight:normal;font-stretch:normal;text-align:center;line-height:125%;letter-spacing:1.60000002px;word-spacing:0px;writing-mode:lr-tb;text-anchor:middle;fill:#000000;fill-opacity:1;stroke:none;font-family:FreeSerif;-inkscape-font-specification:FreeSerif Italic"
   xml:space="preserve"><tspan
     y="-5.4844146"
     x="185.25795"
     id="tspan3098"
     sodipodi:role="line">Z<tspan
   id="tspan3100"
   style="font-size:52.00042725%;font-style:normal;letter-spacing:1.60000002px;baseline-shift:super;-inkscape-font-specification:FreeSerif">0</tspan></tspan></text>


<text
   xml:space="preserve"
   style="font-size:19.20000076px;font-style:italic;font-variant:normal;font-weight:normal;font-stretch:normal;text-align:center;line-height:125%;letter-spacing:0px;word-spacing:0px;writing-mode:lr-tb;text-anchor:middle;fill:#000000;fill-opacity:1;stroke:none;font-family:FreeSerif;-inkscape-font-specification:FreeSerif Italic"
   x="184.45795"
   y="-91.884361"
   id="text3102"
   sodipodi:linespacing="125%"
   transform="scale(1,-1)"><tspan
     sodipodi:role="line"
     id="tspan3104"
     x="184.45795"
     y="-91.884361">W<tspan
   style="font-size:52.00042725%;baseline-shift:super"
   id="tspan3106">+</tspan></tspan></text>


<text
   xml:space="preserve"
   style="font-size:19.20000076px;font-style:italic;font-variant:normal;font-weight:normal;font-stretch:normal;text-align:center;line-height:125%;letter-spacing:0px;word-spacing:0px;writing-mode:lr-tb;text-anchor:middle;fill:#000000;fill-opacity:1;stroke:none;font-family:FreeSerif;-inkscape-font-specification:FreeSerif Italic"
   x="280.45831"
   y="-5.4844146"
   id="text3108"
   sodipodi:linespacing="125%"
   transform="scale(1,-1)"><tspan
     sodipodi:role="line"
     id="tspan3110"
     x="280.45831"
     y="-5.4844146">N</tspan></text>


<text
   transform="scale(1,-1)"
   sodipodi:linespacing="125%"
   id="text3114"
   y="-91.884361"
   x="280.45831"
   style="font-size:19.20000076px;font-style:italic;font-variant:normal;font-weight:normal;font-stretch:normal;text-align:center;line-height:125%;letter-spacing:0px;word-spacing:0px;writing-mode:lr-tb;text-anchor:middle;fill:#000000;fill-opacity:1;stroke:none;font-family:FreeSerif;-inkscape-font-specification:FreeSerif Italic"
   xml:space="preserve"><tspan
     y="-91.884361"
     x="280.45831"
     id="tspan3116"
     sodipodi:role="line">η<tspan
   id="tspan3118"
   style="font-size:52.00042725000000132%;baseline-shift:super;font-style:normal;-inkscape-font-specification:FreeSerif">0</tspan></tspan></text>


<text
   transform="scale(1,-1)"
   sodipodi:linespacing="125%"
   id="text3120"
   y="-5.4844146"
   x="472.45901"
   style="font-size:19.20000076px;font-style:italic;font-variant:normal;font-weight:normal;font-stretch:normal;text-align:center;line-height:125%;letter-spacing:0px;word-spacing:0px;writing-mode:lr-tb;text-anchor:middle;fill:#000000;fill-opacity:1;stroke:none;font-family:FreeSerif;-inkscape-font-specification:FreeSerif Italic"
   xml:space="preserve"><tspan
     y="-5.4844146"
     x="472.45901"
     id="tspan3122"
     sodipodi:role="line">l<tspan
   style="font-size:52%;baseline-shift:super"
   id="tspan3053">+</tspan></tspan></text>


<text
   xml:space="preserve"
   style="font-size:19.20000076px;font-style:italic;font-variant:normal;font-weight:normal;font-stretch:normal;text-align:center;line-height:125%;letter-spacing:0px;word-spacing:0px;writing-mode:lr-tb;text-anchor:middle;fill:#000000;fill-opacity:1;stroke:none;font-family:FreeSerif;-inkscape-font-specification:FreeSerif Italic"
   x="472.45901"
   y="-91.884361"
   id="text3126"
   sodipodi:linespacing="125%"
   transform="scale(1,-1)"><tspan
     sodipodi:role="line"
     id="tspan3128"
     x="472.45901"
     y="-91.884361">W<tspan
   style="font-size:52.00042725%;baseline-shift:super"
   id="tspan3130">+</tspan></tspan></text>


<text
   xml:space="preserve"
   style="font-size:19.20000076px;font-style:italic;font-variant:normal;font-weight:normal;font-stretch:normal;text-align:center;line-height:125%;letter-spacing:0px;word-spacing:0px;writing-mode:lr-tb;text-anchor:middle;fill:#000000;fill-opacity:1;stroke:none;font-family:FreeSerif;-inkscape-font-specification:FreeSerif Italic"
   x="86.166565"
   y="-25.146338"
   id="text3102-2"
   sodipodi:linespacing="125%"
   transform="scale(1,-1)"><tspan
     sodipodi:role="line"
     id="tspan3104-4"
     x="86.166565"
     y="-25.146338">W<tspan
   style="font-size:9.98408222px;baseline-shift:super"
   id="tspan3106-7">+</tspan></tspan></text>


<text
   xml:space="preserve"
   style="font-size:24px;font-style:italic;font-variant:normal;font-weight:normal;font-stretch:normal;text-align:center;line-height:125%;letter-spacing:0px;word-spacing:0px;writing-mode:lr-tb;text-anchor:middle;fill:#000000;fill-opacity:1;stroke:none;font-family:FreeSerif;-inkscape-font-specification:FreeSerif Italic"
   x="465.19586"
   y="89.08593"
   id="text3158"
   sodipodi:linespacing="125%"
   transform="matrix(0.8,0,0,-0.8,0,103)"><tspan
     sodipodi:role="line"
     id="tspan3160"
     x="465.19586"
     y="89.08593" /></text>


<text
   xml:space="preserve"
   style="font-size:19.20000076px;font-style:italic;font-variant:normal;font-weight:normal;font-stretch:normal;text-align:center;line-height:125%;letter-spacing:0px;word-spacing:0px;writing-mode:lr-tb;text-anchor:middle;fill:#000000;fill-opacity:1;stroke:none;font-family:FreeSerif;-inkscape-font-specification:FreeSerif Italic"
   x="369.56146"
   y="-35.024456"
   id="text3049"
   sodipodi:linespacing="125%"
   transform="scale(1,-1)"><tspan
     sodipodi:role="line"
     id="tspan3051"
     x="369.56146"
     y="-35.024456">ν</tspan></text>
</g></svg>