<?xml version="1.0" encoding="UTF-8" standalone="no"?>
<svg
   xmlns:dc="http://purl.org/dc/elements/1.1/"
   xmlns:cc="http://creativecommons.org/ns#"
   xmlns:rdf="http://www.w3.org/1999/02/22-rdf-syntax-ns#"
   xmlns:svg="http://www.w3.org/2000/svg"
   xmlns="http://www.w3.org/2000/svg"
   xmlns:xlink="http://www.w3.org/1999/xlink"
   xmlns:sodipodi="http://sodipodi.sourceforge.net/DTD/sodipodi-0.dtd"
   xmlns:inkscape="http://www.inkscape.org/namespaces/inkscape"
   width="210mm"
   height="297mm"
   viewBox="0 0 210 297"
   version="1.1"
   id="svg8"
   inkscape:version="1.0.2 (e86c870879, 2021-01-15)"
   sodipodi:docname="darkscotomaj.svg">
  <defs
     id="defs2">
    <marker
       style="overflow:visible"
       id="marker6483"
       refX="0.0"
       refY="0.0"
       orient="auto"
       inkscape:stockid="Arrow1Mstart"
       inkscape:isstock="true">
      <path
         transform="scale(0.4) translate(10,0)"
         style="fill-rule:evenodd;stroke:#000000;stroke-width:1pt;stroke-opacity:1;fill:#000000;fill-opacity:1"
         d="M 0.0,0.0 L 5.0,-5.0 L -12.5,0.0 L 5.0,5.0 L 0.0,0.0 z "
         id="path6481" />
    </marker>
    <marker
       style="overflow:visible;"
       id="marker6317"
       refX="0.0"
       refY="0.0"
       orient="auto"
       inkscape:stockid="Arrow1Mend"
       inkscape:isstock="true">
      <path
         transform="scale(0.4) rotate(180) translate(10,0)"
         style="fill-rule:evenodd;stroke:#000000;stroke-width:1pt;stroke-opacity:1;fill:#000000;fill-opacity:1"
         d="M 0.0,0.0 L 5.0,-5.0 L -12.5,0.0 L 5.0,5.0 L 0.0,0.0 z "
         id="path6315" />
    </marker>
    <marker
       style="overflow:visible"
       id="marker6127"
       refX="0.0"
       refY="0.0"
       orient="auto"
       inkscape:stockid="Arrow1Mstart"
       inkscape:isstock="true"
       inkscape:collect="always">
      <path
         transform="scale(0.4) translate(10,0)"
         style="fill-rule:evenodd;stroke:#000000;stroke-width:1pt;stroke-opacity:1;fill:#000000;fill-opacity:1"
         d="M 0.0,0.0 L 5.0,-5.0 L -12.5,0.0 L 5.0,5.0 L 0.0,0.0 z "
         id="path6125" />
    </marker>
    <marker
       style="overflow:visible"
       id="marker5829"
       refX="0.0"
       refY="0.0"
       orient="auto"
       inkscape:stockid="Arrow1Mstart"
       inkscape:isstock="true">
      <path
         transform="scale(0.4) translate(10,0)"
         style="fill-rule:evenodd;stroke:#000000;stroke-width:1pt;stroke-opacity:1;fill:#000000;fill-opacity:1"
         d="M 0.0,0.0 L 5.0,-5.0 L -12.5,0.0 L 5.0,5.0 L 0.0,0.0 z "
         id="path5827" />
    </marker>
    <marker
       style="overflow:visible;"
       id="marker5361"
       refX="0.0"
       refY="0.0"
       orient="auto"
       inkscape:stockid="Arrow1Mend"
       inkscape:isstock="true">
      <path
         transform="scale(0.4) rotate(180) translate(10,0)"
         style="fill-rule:evenodd;stroke:#000000;stroke-width:1pt;stroke-opacity:1;fill:#000000;fill-opacity:1"
         d="M 0.0,0.0 L 5.0,-5.0 L -12.5,0.0 L 5.0,5.0 L 0.0,0.0 z "
         id="path5359" />
    </marker>
    <marker
       style="overflow:visible"
       id="marker5351"
       refX="0.0"
       refY="0.0"
       orient="auto"
       inkscape:stockid="Arrow1Mstart"
       inkscape:isstock="true"
       inkscape:collect="always">
      <path
         transform="scale(0.4) translate(10,0)"
         style="fill-rule:evenodd;stroke:#000000;stroke-width:1pt;stroke-opacity:1;fill:#000000;fill-opacity:1"
         d="M 0.0,0.0 L 5.0,-5.0 L -12.5,0.0 L 5.0,5.0 L 0.0,0.0 z "
         id="path5349" />
    </marker>
    <marker
       style="overflow:visible;"
       id="marker5341"
       refX="0.0"
       refY="0.0"
       orient="auto"
       inkscape:stockid="Arrow1Mend"
       inkscape:isstock="true">
      <path
         transform="scale(0.4) rotate(180) translate(10,0)"
         style="fill-rule:evenodd;stroke:#000000;stroke-width:1pt;stroke-opacity:1;fill:#000000;fill-opacity:1"
         d="M 0.0,0.0 L 5.0,-5.0 L -12.5,0.0 L 5.0,5.0 L 0.0,0.0 z "
         id="path5339" />
    </marker>
    <inkscape:path-effect
       effect="bspline"
       id="path-effect5337"
       is_visible="true"
       lpeversion="1"
       weight="33.333333"
       steps="2"
       helper_size="0"
       apply_no_weight="true"
       apply_with_weight="true"
       only_selected="false" />
    <inkscape:path-effect
       effect="bspline"
       id="path-effect5333"
       is_visible="true"
       lpeversion="1"
       weight="33.333333"
       steps="2"
       helper_size="0"
       apply_no_weight="true"
       apply_with_weight="true"
       only_selected="false" />
    <inkscape:path-effect
       effect="bspline"
       id="path-effect5329"
       is_visible="true"
       lpeversion="1"
       weight="33.333333"
       steps="2"
       helper_size="0"
       apply_no_weight="true"
       apply_with_weight="true"
       only_selected="false" />
    <marker
       style="overflow:visible;"
       id="marker4913"
       refX="0.0"
       refY="0.0"
       orient="auto"
       inkscape:stockid="Arrow1Mend"
       inkscape:isstock="true">
      <path
         transform="scale(0.4) rotate(180) translate(10,0)"
         style="fill-rule:evenodd;stroke:#000000;stroke-width:1pt;stroke-opacity:1;fill:#000000;fill-opacity:1"
         d="M 0.0,0.0 L 5.0,-5.0 L -12.5,0.0 L 5.0,5.0 L 0.0,0.0 z "
         id="path4911" />
    </marker>
    <marker
       style="overflow:visible;"
       id="marker4903"
       refX="0.0"
       refY="0.0"
       orient="auto"
       inkscape:stockid="Arrow1Mend"
       inkscape:isstock="true"
       inkscape:collect="always">
      <path
         transform="scale(0.4) rotate(180) translate(10,0)"
         style="fill-rule:evenodd;stroke:#000000;stroke-width:1pt;stroke-opacity:1;fill:#000000;fill-opacity:1"
         d="M 0.0,0.0 L 5.0,-5.0 L -12.5,0.0 L 5.0,5.0 L 0.0,0.0 z "
         id="path4901" />
    </marker>
    <inkscape:path-effect
       effect="bspline"
       id="path-effect4899"
       is_visible="true"
       lpeversion="1"
       weight="33.333333"
       steps="2"
       helper_size="0"
       apply_no_weight="true"
       apply_with_weight="true"
       only_selected="false" />
    <inkscape:path-effect
       effect="bspline"
       id="path-effect4895"
       is_visible="true"
       lpeversion="1"
       weight="33.333333"
       steps="2"
       helper_size="0"
       apply_no_weight="true"
       apply_with_weight="true"
       only_selected="false" />
    <marker
       style="overflow:visible;"
       id="marker4705"
       refX="0.0"
       refY="0.0"
       orient="auto"
       inkscape:stockid="Arrow1Mend"
       inkscape:isstock="true"
       inkscape:collect="always">
      <path
         transform="scale(0.4) rotate(180) translate(10,0)"
         style="fill-rule:evenodd;stroke:#000000;stroke-width:1pt;stroke-opacity:1;fill:#000000;fill-opacity:1"
         d="M 0.0,0.0 L 5.0,-5.0 L -12.5,0.0 L 5.0,5.0 L 0.0,0.0 z "
         id="path4703" />
    </marker>
    <inkscape:path-effect
       effect="bspline"
       id="path-effect4701"
       is_visible="true"
       lpeversion="1"
       weight="33.333333"
       steps="2"
       helper_size="0"
       apply_no_weight="true"
       apply_with_weight="true"
       only_selected="false" />
    <marker
       style="overflow:visible;"
       id="marker4519"
       refX="0.0"
       refY="0.0"
       orient="auto"
       inkscape:stockid="Arrow1Mend"
       inkscape:isstock="true"
       inkscape:collect="always">
      <path
         transform="scale(0.4) rotate(180) translate(10,0)"
         style="fill-rule:evenodd;stroke:#000000;stroke-width:1pt;stroke-opacity:1;fill:#000000;fill-opacity:1"
         d="M 0.0,0.0 L 5.0,-5.0 L -12.5,0.0 L 5.0,5.0 L 0.0,0.0 z "
         id="path4517" />
    </marker>
    <inkscape:path-effect
       effect="bspline"
       id="path-effect4515"
       is_visible="true"
       lpeversion="1"
       weight="33.333333"
       steps="2"
       helper_size="0"
       apply_no_weight="true"
       apply_with_weight="true"
       only_selected="false" />
    <marker
       style="overflow:visible;"
       id="marker4345"
       refX="0.0"
       refY="0.0"
       orient="auto"
       inkscape:stockid="Arrow1Mend"
       inkscape:isstock="true">
      <path
         transform="scale(0.4) rotate(180) translate(10,0)"
         style="fill-rule:evenodd;stroke:#000000;stroke-width:1pt;stroke-opacity:1;fill:#000000;fill-opacity:1"
         d="M 0.0,0.0 L 5.0,-5.0 L -12.5,0.0 L 5.0,5.0 L 0.0,0.0 z "
         id="path4343" />
    </marker>
    <inkscape:path-effect
       effect="bspline"
       id="path-effect4341"
       is_visible="true"
       lpeversion="1"
       weight="33.333333"
       steps="2"
       helper_size="0"
       apply_no_weight="true"
       apply_with_weight="true"
       only_selected="false" />
    <inkscape:path-effect
       effect="bspline"
       id="path-effect4183"
       is_visible="true"
       lpeversion="1"
       weight="33.333333"
       steps="2"
       helper_size="0"
       apply_no_weight="true"
       apply_with_weight="true"
       only_selected="false" />
    <marker
       style="overflow:visible;"
       id="marker3133"
       refX="0.0"
       refY="0.0"
       orient="auto"
       inkscape:stockid="Arrow1Mend"
       inkscape:isstock="true">
      <path
         transform="scale(0.4) rotate(180) translate(10,0)"
         style="fill-rule:evenodd;stroke:#000000;stroke-width:1pt;stroke-opacity:1;fill:#000000;fill-opacity:1"
         d="M 0.0,0.0 L 5.0,-5.0 L -12.5,0.0 L 5.0,5.0 L 0.0,0.0 z "
         id="path3131" />
    </marker>
    <marker
       style="overflow:visible;"
       id="marker3123"
       refX="0.0"
       refY="0.0"
       orient="auto"
       inkscape:stockid="Arrow1Mend"
       inkscape:isstock="true">
      <path
         transform="scale(0.4) rotate(180) translate(10,0)"
         style="fill-rule:evenodd;stroke:#000000;stroke-width:1pt;stroke-opacity:1;fill:#000000;fill-opacity:1"
         d="M 0.0,0.0 L 5.0,-5.0 L -12.5,0.0 L 5.0,5.0 L 0.0,0.0 z "
         id="path3121" />
    </marker>
    <marker
       style="overflow:visible;"
       id="marker3113"
       refX="0.0"
       refY="0.0"
       orient="auto"
       inkscape:stockid="Arrow1Mend"
       inkscape:isstock="true">
      <path
         transform="scale(0.4) rotate(180) translate(10,0)"
         style="fill-rule:evenodd;stroke:#000000;stroke-width:1pt;stroke-opacity:1;fill:#000000;fill-opacity:1"
         d="M 0.0,0.0 L 5.0,-5.0 L -12.5,0.0 L 5.0,5.0 L 0.0,0.0 z "
         id="path3111" />
    </marker>
    <inkscape:path-effect
       effect="bspline"
       id="path-effect3109"
       is_visible="true"
       lpeversion="1"
       weight="33.333333"
       steps="2"
       helper_size="0"
       apply_no_weight="true"
       apply_with_weight="true"
       only_selected="false" />
    <inkscape:path-effect
       effect="bspline"
       id="path-effect3105"
       is_visible="true"
       lpeversion="1"
       weight="33.333333"
       steps="2"
       helper_size="0"
       apply_no_weight="true"
       apply_with_weight="true"
       only_selected="false" />
    <inkscape:path-effect
       effect="bspline"
       id="path-effect3101"
       is_visible="true"
       lpeversion="1"
       weight="33.333333"
       steps="2"
       helper_size="0"
       apply_no_weight="true"
       apply_with_weight="true"
       only_selected="false" />
    <marker
       style="overflow:visible;"
       id="marker2919"
       refX="0.0"
       refY="0.0"
       orient="auto"
       inkscape:stockid="Arrow1Mend"
       inkscape:isstock="true">
      <path
         transform="scale(0.4) rotate(180) translate(10,0)"
         style="fill-rule:evenodd;stroke:#000000;stroke-width:1pt;stroke-opacity:1;fill:#000000;fill-opacity:1"
         d="M 0.0,0.0 L 5.0,-5.0 L -12.5,0.0 L 5.0,5.0 L 0.0,0.0 z "
         id="path2917" />
    </marker>
    <inkscape:path-effect
       effect="bspline"
       id="path-effect2915"
       is_visible="true"
       lpeversion="1"
       weight="33.333333"
       steps="2"
       helper_size="0"
       apply_no_weight="true"
       apply_with_weight="true"
       only_selected="false" />
    <inkscape:path-effect
       effect="bspline"
       id="path-effect2713"
       is_visible="true"
       lpeversion="1"
       weight="33.333333"
       steps="2"
       helper_size="0"
       apply_no_weight="true"
       apply_with_weight="true"
       only_selected="false" />
    <inkscape:path-effect
       effect="bspline"
       id="path-effect2527"
       is_visible="true"
       lpeversion="1"
       weight="33.333333"
       steps="2"
       helper_size="0"
       apply_no_weight="true"
       apply_with_weight="true"
       only_selected="false" />
    <marker
       style="overflow:visible;"
       id="marker2399"
       refX="0.0"
       refY="0.0"
       orient="auto"
       inkscape:stockid="Arrow1Mend"
       inkscape:isstock="true"
       inkscape:collect="always">
      <path
         transform="scale(0.4) rotate(180) translate(10,0)"
         style="fill-rule:evenodd;stroke:#000000;stroke-width:1pt;stroke-opacity:1;fill:#000000;fill-opacity:1"
         d="M 0.0,0.0 L 5.0,-5.0 L -12.5,0.0 L 5.0,5.0 L 0.0,0.0 z "
         id="path2397" />
    </marker>
    <inkscape:path-effect
       effect="bspline"
       id="path-effect2395"
       is_visible="true"
       lpeversion="1"
       weight="33.333333"
       steps="2"
       helper_size="0"
       apply_no_weight="true"
       apply_with_weight="true"
       only_selected="false" />
    <marker
       style="overflow:visible"
       id="marker2027"
       refX="0.0"
       refY="0.0"
       orient="auto"
       inkscape:stockid="Arrow1Mstart"
       inkscape:isstock="true">
      <path
         transform="scale(0.4) translate(10,0)"
         style="fill-rule:evenodd;stroke:#000000;stroke-width:1pt;stroke-opacity:1;fill:#000000;fill-opacity:1"
         d="M 0.0,0.0 L 5.0,-5.0 L -12.5,0.0 L 5.0,5.0 L 0.0,0.0 z "
         id="path2025" />
    </marker>
    <marker
       style="overflow:visible"
       id="marker2017"
       refX="0.0"
       refY="0.0"
       orient="auto"
       inkscape:stockid="Arrow1Mstart"
       inkscape:isstock="true"
       inkscape:collect="always">
      <path
         transform="scale(0.4) translate(10,0)"
         style="fill-rule:evenodd;stroke:#000000;stroke-width:1pt;stroke-opacity:1;fill:#000000;fill-opacity:1"
         d="M 0.0,0.0 L 5.0,-5.0 L -12.5,0.0 L 5.0,5.0 L 0.0,0.0 z "
         id="path2015" />
    </marker>
    <inkscape:path-effect
       effect="bspline"
       id="path-effect2013"
       is_visible="true"
       lpeversion="1"
       weight="33.333333"
       steps="2"
       helper_size="0"
       apply_no_weight="true"
       apply_with_weight="true"
       only_selected="false" />
    <inkscape:path-effect
       effect="bspline"
       id="path-effect2009"
       is_visible="true"
       lpeversion="1"
       weight="33.333333"
       steps="2"
       helper_size="0"
       apply_no_weight="true"
       apply_with_weight="true"
       only_selected="false" />
    <inkscape:path-effect
       effect="bspline"
       id="path-effect1849"
       is_visible="true"
       lpeversion="1"
       weight="33.333333"
       steps="2"
       helper_size="0"
       apply_no_weight="true"
       apply_with_weight="true"
       only_selected="false" />
    <marker
       style="overflow:visible"
       id="marker1711"
       refX="0.0"
       refY="0.0"
       orient="auto"
       inkscape:stockid="Arrow1Mstart"
       inkscape:isstock="true">
      <path
         transform="scale(0.4) translate(10,0)"
         style="fill-rule:evenodd;stroke:#000000;stroke-width:1pt;stroke-opacity:1;fill:#000000;fill-opacity:1"
         d="M 0.0,0.0 L 5.0,-5.0 L -12.5,0.0 L 5.0,5.0 L 0.0,0.0 z "
         id="path1709" />
    </marker>
    <inkscape:path-effect
       effect="bspline"
       id="path-effect1707"
       is_visible="true"
       lpeversion="1"
       weight="33.333333"
       steps="2"
       helper_size="0"
       apply_no_weight="true"
       apply_with_weight="true"
       only_selected="false" />
    <marker
       style="overflow:visible;"
       id="marker1493"
       refX="0.0"
       refY="0.0"
       orient="auto"
       inkscape:stockid="Arrow1Mend"
       inkscape:isstock="true">
      <path
         transform="scale(0.4) rotate(180) translate(10,0)"
         style="fill-rule:evenodd;stroke:#000000;stroke-width:1pt;stroke-opacity:1;fill:#000000;fill-opacity:1"
         d="M 0.0,0.0 L 5.0,-5.0 L -12.5,0.0 L 5.0,5.0 L 0.0,0.0 z "
         id="path1491" />
    </marker>
    <inkscape:path-effect
       effect="bspline"
       id="path-effect1489"
       is_visible="true"
       lpeversion="1"
       weight="33.333333"
       steps="2"
       helper_size="0"
       apply_no_weight="true"
       apply_with_weight="true"
       only_selected="false" />
    <inkscape:path-effect
       effect="bspline"
       id="path-effect1403"
       is_visible="true"
       lpeversion="1"
       weight="33.333333"
       steps="2"
       helper_size="0"
       apply_no_weight="true"
       apply_with_weight="true"
       only_selected="false" />
    <marker
       style="overflow:visible;"
       id="marker1335"
       refX="0.0"
       refY="0.0"
       orient="auto"
       inkscape:stockid="Arrow1Mend"
       inkscape:isstock="true">
      <path
         transform="scale(0.4) rotate(180) translate(10,0)"
         style="fill-rule:evenodd;stroke:#000000;stroke-width:1pt;stroke-opacity:1;fill:#000000;fill-opacity:1"
         d="M 0.0,0.0 L 5.0,-5.0 L -12.5,0.0 L 5.0,5.0 L 0.0,0.0 z "
         id="path1333" />
    </marker>
    <inkscape:path-effect
       effect="bspline"
       id="path-effect1331"
       is_visible="true"
       lpeversion="1"
       weight="33.333333"
       steps="2"
       helper_size="0"
       apply_no_weight="true"
       apply_with_weight="true"
       only_selected="false" />
    <marker
       style="overflow:visible;"
       id="marker1295"
       refX="0.0"
       refY="0.0"
       orient="auto"
       inkscape:stockid="Arrow1Mend"
       inkscape:isstock="true">
      <path
         transform="scale(0.4) rotate(180) translate(10,0)"
         style="fill-rule:evenodd;stroke:#000000;stroke-width:1pt;stroke-opacity:1;fill:#000000;fill-opacity:1"
         d="M 0.0,0.0 L 5.0,-5.0 L -12.5,0.0 L 5.0,5.0 L 0.0,0.0 z "
         id="path1293" />
    </marker>
    <inkscape:path-effect
       effect="bspline"
       id="path-effect1213"
       is_visible="true"
       lpeversion="1"
       weight="33.333333"
       steps="2"
       helper_size="0"
       apply_no_weight="true"
       apply_with_weight="true"
       only_selected="false" />
    <inkscape:path-effect
       effect="bspline"
       id="path-effect1157"
       is_visible="true"
       lpeversion="1"
       weight="33.333333"
       steps="2"
       helper_size="0"
       apply_no_weight="true"
       apply_with_weight="true"
       only_selected="false" />
    <marker
       style="overflow:visible;"
       id="Arrow1Mend"
       refX="0.0"
       refY="0.0"
       orient="auto"
       inkscape:stockid="Arrow1Mend"
       inkscape:isstock="true"
       inkscape:collect="always">
      <path
         transform="scale(0.4) rotate(180) translate(10,0)"
         style="fill-rule:evenodd;stroke:#000000;stroke-width:1pt;stroke-opacity:1;fill:#000000;fill-opacity:1"
         d="M 0.0,0.0 L 5.0,-5.0 L -12.5,0.0 L 5.0,5.0 L 0.0,0.0 z "
         id="path850" />
    </marker>
    <marker
       style="overflow:visible"
       id="Arrow1Lstart"
       refX="0.0"
       refY="0.0"
       orient="auto"
       inkscape:stockid="Arrow1Lstart"
       inkscape:isstock="true">
      <path
         transform="scale(0.8) translate(12.5,0)"
         style="fill-rule:evenodd;stroke:#000000;stroke-width:1pt;stroke-opacity:1;fill:#000000;fill-opacity:1"
         d="M 0.0,0.0 L 5.0,-5.0 L -12.5,0.0 L 5.0,5.0 L 0.0,0.0 z "
         id="path841" />
    </marker>
    <inkscape:path-effect
       effect="bspline"
       id="path-effect839"
       is_visible="true"
       lpeversion="1"
       weight="33.333333"
       steps="2"
       helper_size="0"
       apply_no_weight="true"
       apply_with_weight="true"
       only_selected="false" />
    <inkscape:path-effect
       effect="bspline"
       id="path-effect12"
       is_visible="true"
       lpeversion="1"
       weight="33.333333"
       steps="2"
       helper_size="0"
       apply_no_weight="true"
       apply_with_weight="true"
       only_selected="false" />
    <g
       id="g6440">
      <symbol
         overflow="visible"
         id="symbol7781">
        <path
           style="stroke:none;"
           d=""
           id="path9402" />
      </symbol>
      <symbol
         overflow="visible"
         id="symbol4042">
        <path
           style="stroke:none;"
           d="M 5.15625 -3.71875 C 5.296875 -3.71875 5.65625 -3.71875 5.65625 -4.0625 C 5.65625 -4.296875 5.4375 -4.296875 5.265625 -4.296875 L 2.984375 -4.296875 C 1.484375 -4.296875 0.375 -2.65625 0.375 -1.46875 C 0.375 -0.59375 0.96875 0.109375 1.875 0.109375 C 3.046875 0.109375 4.375 -1.09375 4.375 -2.625 C 4.375 -2.796875 4.375 -3.28125 4.0625 -3.71875 Z M 1.890625 -0.109375 C 1.390625 -0.109375 1 -0.46875 1 -1.1875 C 1 -1.484375 1.109375 -2.296875 1.46875 -2.890625 C 1.890625 -3.578125 2.484375 -3.71875 2.828125 -3.71875 C 3.65625 -3.71875 3.734375 -3.0625 3.734375 -2.75 C 3.734375 -2.28125 3.53125 -1.46875 3.203125 -0.953125 C 2.8125 -0.375 2.265625 -0.109375 1.890625 -0.109375 Z M 1.890625 -0.109375 "
           id="path298" />
      </symbol>
      <symbol
         overflow="visible"
         id="symbol8827">
        <path
           style="stroke:none;"
           d="M 4.8125 -6.65625 C 4.8125 -6.703125 4.828125 -6.765625 4.828125 -6.8125 C 4.828125 -6.90625 4.765625 -6.921875 4.71875 -6.921875 C 4.609375 -6.921875 4.609375 -6.890625 4.5625 -6.71875 L 2.90625 -0.125 C 2.15625 -0.21875 1.78125 -0.59375 1.78125 -1.25 C 1.78125 -1.453125 1.78125 -1.703125 2.3125 -3.09375 C 2.359375 -3.21875 2.421875 -3.390625 2.421875 -3.59375 C 2.421875 -4.03125 2.109375 -4.40625 1.609375 -4.40625 C 0.65625 -4.40625 0.296875 -2.953125 0.296875 -2.875 C 0.296875 -2.765625 0.390625 -2.765625 0.40625 -2.765625 C 0.515625 -2.765625 0.515625 -2.796875 0.5625 -2.953125 C 0.84375 -3.890625 1.234375 -4.1875 1.578125 -4.1875 C 1.65625 -4.1875 1.828125 -4.1875 1.828125 -3.875 C 1.828125 -3.609375 1.71875 -3.359375 1.59375 -3.015625 C 1.109375 -1.75 1.109375 -1.5 1.109375 -1.328125 C 1.109375 -0.375 1.890625 0.03125 2.84375 0.09375 C 2.765625 0.453125 2.765625 0.46875 2.625 1 C 2.609375 1.109375 2.40625 1.90625 2.40625 1.9375 C 2.40625 1.953125 2.40625 2.046875 2.515625 2.046875 C 2.546875 2.046875 2.59375 2.046875 2.609375 2 C 2.640625 1.984375 2.703125 1.734375 2.734375 1.59375 L 3.109375 0.109375 C 3.484375 0.109375 4.359375 0.109375 5.296875 -0.953125 C 5.703125 -1.421875 5.90625 -1.859375 6.015625 -2.15625 C 6.109375 -2.40625 6.328125 -3.265625 6.328125 -3.703125 C 6.328125 -4.265625 6.0625 -4.40625 5.890625 -4.40625 C 5.640625 -4.40625 5.390625 -4.140625 5.390625 -3.921875 C 5.390625 -3.796875 5.453125 -3.734375 5.546875 -3.65625 C 5.65625 -3.546875 5.90625 -3.296875 5.90625 -2.8125 C 5.90625 -2.171875 5.390625 -1.359375 5.03125 -1 C 4.15625 -0.109375 3.515625 -0.109375 3.15625 -0.109375 Z M 4.8125 -6.65625 "
           id="path8065" />
      </symbol>
      <symbol
         overflow="visible"
         id="symbol9187">
        <path
           style="stroke:none;"
           d="M 4.859375 -2.765625 C 4.921875 -2.9375 4.9375 -3.078125 4.9375 -3.34375 C 4.9375 -3.984375 4.546875 -4.40625 3.796875 -4.40625 C 3.015625 -4.40625 2.5 -3.890625 2.25 -3.53125 C 2.203125 -4.109375 1.78125 -4.40625 1.328125 -4.40625 C 0.875 -4.40625 0.6875 -4.015625 0.59375 -3.84375 C 0.421875 -3.5 0.296875 -2.90625 0.296875 -2.875 C 0.296875 -2.765625 0.390625 -2.765625 0.40625 -2.765625 C 0.515625 -2.765625 0.515625 -2.78125 0.578125 -3 C 0.75 -3.703125 0.953125 -4.1875 1.3125 -4.1875 C 1.46875 -4.1875 1.609375 -4.109375 1.609375 -3.734375 C 1.609375 -3.515625 1.578125 -3.40625 1.453125 -2.890625 L 0.875 -0.59375 C 0.84375 -0.4375 0.78125 -0.203125 0.78125 -0.15625 C 0.78125 0.015625 0.921875 0.109375 1.078125 0.109375 C 1.203125 0.109375 1.375 0.03125 1.453125 -0.171875 C 1.453125 -0.1875 1.578125 -0.65625 1.640625 -0.90625 L 1.859375 -1.796875 C 1.90625 -2.03125 1.96875 -2.25 2.03125 -2.46875 C 2.046875 -2.53125 2.125 -2.859375 2.140625 -2.921875 C 2.15625 -3.015625 2.46875 -3.5625 2.8125 -3.84375 C 3.03125 -4 3.34375 -4.1875 3.765625 -4.1875 C 4.203125 -4.1875 4.3125 -3.84375 4.3125 -3.484375 C 4.3125 -3.4375 4.3125 -3.265625 4.203125 -2.859375 L 3.078125 1.71875 C 3.046875 1.84375 3.046875 1.859375 3.046875 1.890625 C 3.046875 2.03125 3.15625 2.15625 3.3125 2.15625 C 3.625 2.15625 3.703125 1.859375 3.734375 1.75 Z M 4.859375 -2.765625 "
           id="path7607" />
      </symbol>
      <symbol
         overflow="visible"
         id="symbol2712">
        <path
           style="stroke:none;"
           d="M 7.609375 -6.046875 C 7.703125 -6.40625 7.71875 -6.5 8.4375 -6.5 C 8.703125 -6.5 8.78125 -6.5 8.78125 -6.703125 C 8.78125 -6.8125 8.671875 -6.8125 8.640625 -6.8125 C 8.359375 -6.8125 7.640625 -6.78125 7.359375 -6.78125 C 7.078125 -6.78125 6.375 -6.8125 6.078125 -6.8125 C 6 -6.8125 5.890625 -6.8125 5.890625 -6.609375 C 5.890625 -6.5 5.984375 -6.5 6.171875 -6.5 C 6.1875 -6.5 6.375 -6.5 6.546875 -6.484375 C 6.734375 -6.453125 6.8125 -6.453125 6.8125 -6.3125 C 6.8125 -6.28125 6.8125 -6.265625 6.78125 -6.125 L 6.1875 -3.703125 L 3.140625 -3.703125 L 3.734375 -6.046875 C 3.8125 -6.40625 3.84375 -6.5 4.5625 -6.5 C 4.828125 -6.5 4.90625 -6.5 4.90625 -6.703125 C 4.90625 -6.8125 4.796875 -6.8125 4.765625 -6.8125 C 4.484375 -6.8125 3.765625 -6.78125 3.484375 -6.78125 C 3.203125 -6.78125 2.5 -6.8125 2.203125 -6.8125 C 2.125 -6.8125 2.015625 -6.8125 2.015625 -6.609375 C 2.015625 -6.5 2.109375 -6.5 2.296875 -6.5 C 2.3125 -6.5 2.5 -6.5 2.671875 -6.484375 C 2.84375 -6.453125 2.9375 -6.453125 2.9375 -6.3125 C 2.9375 -6.28125 2.9375 -6.25 2.90625 -6.125 L 1.5625 -0.78125 C 1.46875 -0.390625 1.453125 -0.3125 0.65625 -0.3125 C 0.484375 -0.3125 0.390625 -0.3125 0.390625 -0.109375 C 0.390625 0 0.515625 0 0.53125 0 C 0.8125 0 1.515625 -0.03125 1.796875 -0.03125 C 2 -0.03125 2.21875 -0.015625 2.4375 -0.015625 C 2.65625 -0.015625 2.875 0 3.078125 0 C 3.15625 0 3.28125 0 3.28125 -0.203125 C 3.28125 -0.3125 3.1875 -0.3125 3 -0.3125 C 2.625 -0.3125 2.359375 -0.3125 2.359375 -0.484375 C 2.359375 -0.546875 2.375 -0.59375 2.375 -0.65625 L 3.0625 -3.390625 L 6.09375 -3.390625 C 5.6875 -1.734375 5.453125 -0.78125 5.40625 -0.640625 C 5.3125 -0.3125 5.125 -0.3125 4.5 -0.3125 C 4.359375 -0.3125 4.265625 -0.3125 4.265625 -0.109375 C 4.265625 0 4.390625 0 4.40625 0 C 4.6875 0 5.390625 -0.03125 5.671875 -0.03125 C 5.875 -0.03125 6.09375 -0.015625 6.3125 -0.015625 C 6.53125 -0.015625 6.75 0 6.953125 0 C 7.03125 0 7.15625 0 7.15625 -0.203125 C 7.15625 -0.3125 7.0625 -0.3125 6.875 -0.3125 C 6.515625 -0.3125 6.234375 -0.3125 6.234375 -0.484375 C 6.234375 -0.546875 6.25 -0.59375 6.265625 -0.65625 Z M 7.609375 -6.046875 "
           id="path3659" />
      </symbol>
      <symbol
         overflow="visible"
         id="symbol1885">
        <path
           style="stroke:none;"
           d="M 3.734375 -6.03125 C 3.8125 -6.390625 3.84375 -6.5 4.78125 -6.5 C 5.078125 -6.5 5.15625 -6.5 5.15625 -6.6875 C 5.15625 -6.8125 5.046875 -6.8125 5 -6.8125 C 4.671875 -6.8125 3.859375 -6.78125 3.53125 -6.78125 C 3.234375 -6.78125 2.5 -6.8125 2.203125 -6.8125 C 2.140625 -6.8125 2.015625 -6.8125 2.015625 -6.609375 C 2.015625 -6.5 2.109375 -6.5 2.296875 -6.5 C 2.3125 -6.5 2.5 -6.5 2.671875 -6.484375 C 2.84375 -6.453125 2.9375 -6.453125 2.9375 -6.3125 C 2.9375 -6.28125 2.9375 -6.25 2.90625 -6.125 L 1.5625 -0.78125 C 1.46875 -0.390625 1.453125 -0.3125 0.65625 -0.3125 C 0.484375 -0.3125 0.390625 -0.3125 0.390625 -0.109375 C 0.390625 0 0.484375 0 0.65625 0 L 5.28125 0 C 5.515625 0 5.515625 0 5.578125 -0.171875 L 6.375 -2.328125 C 6.40625 -2.4375 6.40625 -2.453125 6.40625 -2.46875 C 6.40625 -2.5 6.375 -2.578125 6.296875 -2.578125 C 6.203125 -2.578125 6.1875 -2.515625 6.125 -2.359375 C 5.78125 -1.453125 5.34375 -0.3125 3.625 -0.3125 L 2.6875 -0.3125 C 2.546875 -0.3125 2.515625 -0.3125 2.46875 -0.3125 C 2.359375 -0.328125 2.328125 -0.34375 2.328125 -0.421875 C 2.328125 -0.453125 2.328125 -0.46875 2.375 -0.640625 Z M 3.734375 -6.03125 "
           id="path5591" />
      </symbol>
      <symbol
         overflow="visible"
         id="symbol9548">
        <path
           style="stroke:none;"
           d=""
           id="path8216" />
      </symbol>
      <symbol
         overflow="visible"
         id="symbol8493">
        <path
           style="stroke:none;"
           d="M 1.734375 -0.734375 C 1.671875 -0.5 1.4375 -0.125 1.078125 -0.125 C 1.0625 -0.125 0.84375 -0.125 0.703125 -0.21875 C 0.984375 -0.3125 1.015625 -0.5625 1.015625 -0.609375 C 1.015625 -0.765625 0.890625 -0.859375 0.734375 -0.859375 C 0.53125 -0.859375 0.328125 -0.703125 0.328125 -0.4375 C 0.328125 -0.09375 0.71875 0.0625 1.0625 0.0625 C 1.390625 0.0625 1.671875 -0.125 1.84375 -0.421875 C 2.015625 -0.0625 2.390625 0.0625 2.671875 0.0625 C 3.484375 0.0625 3.90625 -0.796875 3.90625 -1 C 3.90625 -1.09375 3.8125 -1.09375 3.796875 -1.09375 C 3.6875 -1.09375 3.6875 -1.046875 3.65625 -0.96875 C 3.515625 -0.484375 3.09375 -0.125 2.703125 -0.125 C 2.421875 -0.125 2.28125 -0.3125 2.28125 -0.578125 C 2.28125 -0.765625 2.453125 -1.390625 2.640625 -2.171875 C 2.78125 -2.703125 3.09375 -2.875 3.328125 -2.875 C 3.34375 -2.875 3.546875 -2.875 3.703125 -2.78125 C 3.484375 -2.71875 3.390625 -2.515625 3.390625 -2.390625 C 3.390625 -2.25 3.515625 -2.140625 3.671875 -2.140625 C 3.828125 -2.140625 4.0625 -2.265625 4.0625 -2.5625 C 4.0625 -2.953125 3.609375 -3.078125 3.34375 -3.078125 C 2.984375 -3.078125 2.703125 -2.84375 2.5625 -2.578125 C 2.4375 -2.859375 2.109375 -3.078125 1.71875 -3.078125 C 0.9375 -3.078125 0.5 -2.21875 0.5 -2 C 0.5 -1.921875 0.59375 -1.921875 0.609375 -1.921875 C 0.703125 -1.921875 0.703125 -1.9375 0.75 -2.03125 C 0.921875 -2.578125 1.359375 -2.875 1.703125 -2.875 C 1.9375 -2.875 2.125 -2.75 2.125 -2.421875 C 2.125 -2.28125 2.03125 -1.9375 1.96875 -1.6875 Z M 1.734375 -0.734375 "
           id="path2195" />
      </symbol>
      <symbol
         overflow="visible"
         id="symbol3293">
        <path
           style="stroke:none;"
           d="M 3.875 -2.625 C 3.90625 -2.71875 3.90625 -2.734375 3.90625 -2.78125 C 3.90625 -2.921875 3.796875 -3 3.671875 -3 C 3.59375 -3 3.46875 -2.96875 3.390625 -2.84375 C 3.359375 -2.796875 3.3125 -2.578125 3.28125 -2.4375 L 3.125 -1.859375 C 3.09375 -1.6875 2.875 -0.8125 2.84375 -0.734375 C 2.84375 -0.734375 2.53125 -0.125 2 -0.125 C 1.515625 -0.125 1.515625 -0.578125 1.515625 -0.703125 C 1.515625 -1.078125 1.671875 -1.515625 1.890625 -2.0625 C 1.96875 -2.28125 2 -2.359375 2 -2.484375 C 2 -2.8125 1.71875 -3.078125 1.34375 -3.078125 C 0.640625 -3.078125 0.328125 -2.125 0.328125 -2 C 0.328125 -1.921875 0.421875 -1.921875 0.453125 -1.921875 C 0.546875 -1.921875 0.546875 -1.953125 0.578125 -2.03125 C 0.75 -2.609375 1.046875 -2.875 1.328125 -2.875 C 1.4375 -2.875 1.5 -2.796875 1.5 -2.640625 C 1.5 -2.46875 1.4375 -2.328125 1.40625 -2.234375 C 1.0625 -1.375 1 -1.125 1 -0.8125 C 1 -0.703125 1 -0.375 1.265625 -0.140625 C 1.484375 0.03125 1.78125 0.0625 1.96875 0.0625 C 2.25 0.0625 2.5 -0.03125 2.71875 -0.25 C 2.640625 0.140625 2.5625 0.4375 2.265625 0.78125 C 2.078125 1 1.796875 1.21875 1.421875 1.21875 C 1.375 1.21875 1.046875 1.21875 0.90625 1 C 1.28125 0.953125 1.28125 0.625 1.28125 0.609375 C 1.28125 0.390625 1.078125 0.34375 1.015625 0.34375 C 0.84375 0.34375 0.609375 0.484375 0.609375 0.8125 C 0.609375 1.15625 0.9375 1.421875 1.4375 1.421875 C 2.140625 1.421875 3 0.875 3.21875 0 Z M 3.875 -2.625 "
           id="path5868" />
      </symbol>
      <symbol
         overflow="visible"
         id="symbol9578">
        <path
           style="stroke:none;"
           d=""
           id="path433" />
      </symbol>
      <symbol
         overflow="visible"
         id="symbol2700">
        <path
           style="stroke:none;"
           d="M 3.984375 -1.34375 C 5.515625 -1.46875 6.625 -2.390625 6.625 -3.40625 C 6.625 -4.4375 5.5 -5.34375 3.984375 -5.46875 L 3.984375 -6.015625 C 3.984375 -6.359375 3.984375 -6.5 4.921875 -6.5 L 5.25 -6.5 L 5.25 -6.8125 C 4.890625 -6.78125 3.984375 -6.78125 3.5625 -6.78125 C 3.15625 -6.78125 2.234375 -6.78125 1.875 -6.8125 L 1.875 -6.5 L 2.203125 -6.5 C 3.15625 -6.5 3.15625 -6.375 3.15625 -6.015625 L 3.15625 -5.46875 C 1.625 -5.3125 0.5625 -4.390625 0.5625 -3.40625 C 0.5625 -2.375 1.671875 -1.5 3.15625 -1.34375 L 3.15625 -0.78125 C 3.15625 -0.453125 3.15625 -0.3125 2.203125 -0.3125 L 1.875 -0.3125 L 1.875 0 C 2.234375 -0.03125 3.15625 -0.03125 3.5625 -0.03125 C 3.96875 -0.03125 4.890625 -0.03125 5.25 0 L 5.25 -0.3125 L 4.921875 -0.3125 C 3.984375 -0.3125 3.984375 -0.4375 3.984375 -0.78125 Z M 3.15625 -1.578125 C 1.734375 -1.765625 1.5625 -2.78125 1.5625 -3.40625 C 1.5625 -3.921875 1.65625 -5.03125 3.15625 -5.234375 Z M 3.984375 -5.25 C 5.359375 -5.078125 5.625 -4.171875 5.625 -3.40625 C 5.625 -2.8125 5.484375 -1.75 3.984375 -1.5625 Z M 3.984375 -5.25 "
           id="path4927" />
      </symbol>
      <symbol
         overflow="visible"
         id="symbol9500">
        <path
           style="stroke:none;"
           d=""
           id="path7034" />
      </symbol>
      <symbol
         overflow="visible"
         id="symbol2650">
        <path
           style="stroke:none;"
           d="M 2.25 -1.734375 C 2.828125 -1.984375 3.078125 -2.078125 3.25 -2.171875 C 3.390625 -2.21875 3.453125 -2.25 3.453125 -2.390625 C 3.453125 -2.5 3.359375 -2.609375 3.234375 -2.609375 C 3.1875 -2.609375 3.171875 -2.609375 3.09375 -2.546875 L 2.140625 -1.90625 L 2.25 -2.9375 C 2.265625 -3.0625 2.25 -3.234375 2.03125 -3.234375 C 1.953125 -3.234375 1.8125 -3.1875 1.8125 -3.03125 C 1.8125 -2.96875 1.84375 -2.765625 1.859375 -2.6875 C 1.875 -2.578125 1.921875 -2.0625 1.9375 -1.90625 L 0.984375 -2.546875 C 0.921875 -2.578125 0.90625 -2.609375 0.84375 -2.609375 C 0.703125 -2.609375 0.625 -2.5 0.625 -2.390625 C 0.625 -2.25 0.703125 -2.203125 0.765625 -2.1875 L 1.8125 -1.734375 C 1.25 -1.484375 0.984375 -1.390625 0.8125 -1.3125 C 0.6875 -1.25 0.625 -1.21875 0.625 -1.09375 C 0.625 -0.96875 0.703125 -0.875 0.84375 -0.875 C 0.890625 -0.875 0.90625 -0.875 0.984375 -0.9375 L 1.9375 -1.5625 L 1.8125 -0.453125 C 1.8125 -0.296875 1.953125 -0.234375 2.03125 -0.234375 C 2.125 -0.234375 2.25 -0.296875 2.25 -0.453125 C 2.25 -0.515625 2.21875 -0.71875 2.21875 -0.78125 C 2.203125 -0.90625 2.15625 -1.40625 2.140625 -1.5625 L 2.96875 -1.015625 C 3.15625 -0.875 3.171875 -0.875 3.234375 -0.875 C 3.359375 -0.875 3.453125 -0.96875 3.453125 -1.09375 C 3.453125 -1.234375 3.359375 -1.265625 3.296875 -1.296875 Z M 2.25 -1.734375 "
           id="path8920" />
      </symbol>
    </g>
  </defs>
  <sodipodi:namedview
     id="base"
     pagecolor="#ffffff"
     bordercolor="#666666"
     borderopacity="1.0"
     inkscape:pageopacity="0.0"
     inkscape:pageshadow="2"
     inkscape:zoom="1.4641868"
     inkscape:cx="473.33945"
     inkscape:cy="162.72093"
     inkscape:document-units="mm"
     inkscape:current-layer="layer1"
     inkscape:document-rotation="0"
     showgrid="false"
     inkscape:window-width="1920"
     inkscape:window-height="1013"
     inkscape:window-x="0"
     inkscape:window-y="0"
     inkscape:window-maximized="1" />
  <metadata
     id="metadata5">
    <rdf:RDF>
      <cc:Work
         rdf:about="">
        <dc:format>image/svg+xml</dc:format>
        <dc:type
           rdf:resource="http://purl.org/dc/dcmitype/StillImage" />
        <dc:title />
      </cc:Work>
    </rdf:RDF>
  </metadata>
  <g
     inkscape:label="Layer 1"
     inkscape:groupmode="layer"
     id="layer1">
    <path
       style="fill:none;stroke:#000000;stroke-width:0.265;stroke-linecap:butt;stroke-linejoin:miter;stroke-miterlimit:4;stroke-dasharray:none;stroke-opacity:1;marker-mid:url(#Arrow1Mend)"
       d="m 12.009836,67.830805 c 0,0 15.361454,0 15.361454,0 0,0 15.361454,0 15.361454,0"
       id="path10"
       inkscape:path-effect="#path-effect12"
       inkscape:original-d="M 12.009836,67.830805 H 27.37129 42.732744"
       sodipodi:nodetypes="ccc" />
    <path
       style="fill:none;stroke:#000000;stroke-width:0.265;stroke-linecap:butt;stroke-linejoin:miter;stroke-miterlimit:4;stroke-dasharray:none;stroke-opacity:1;marker-mid:url(#marker2399)"
       d="m 42.701522,67.830805 c 0,0 15.361454,0 15.361454,0 0,0 15.361454,0 15.361454,0"
       id="path2393"
       inkscape:path-effect="#path-effect2395"
       inkscape:original-d="M 42.701522,67.830805 H 58.062976 73.42443"
       sodipodi:nodetypes="ccc" />
    <path
       style="fill:none;stroke:#000000;stroke-width:0.265;stroke-linecap:butt;stroke-linejoin:miter;stroke-miterlimit:4;stroke-dasharray:none;stroke-opacity:1;marker-mid:url(#marker2017)"
       d="m 73.361978,67.830805 c 0,0 15.361454,0 15.361454,0 0,0 15.361478,0 15.361478,0"
       id="path2525"
       inkscape:path-effect="#path-effect2527"
       inkscape:original-d="M 73.361978,67.830805 H 88.723432 104.08491"
       sodipodi:nodetypes="ccc" />
    <path
       style="fill:none;stroke:#000000;stroke-width:0.265;stroke-linecap:butt;stroke-linejoin:miter;stroke-miterlimit:4;stroke-dasharray:none;stroke-opacity:1;marker-mid:url(#marker2027)"
       d="m 104.08491,67.830805 c 0,0 15.36155,0 15.36155,0 0,0 15.36154,0 15.36154,0"
       id="path2913"
       inkscape:path-effect="#path-effect2915"
       inkscape:original-d="M 104.08491,67.830805 H 119.44646 134.808"
       sodipodi:nodetypes="ccc" />
    <path
       style="fill:none;stroke:#000000;stroke-width:0.265;stroke-linecap:butt;stroke-linejoin:miter;stroke-miterlimit:4;stroke-dasharray:0.795, 0.79500000000000004;stroke-dashoffset:0;stroke-opacity:1;marker-mid:url(#marker5829)"
       d="m 42.732744,67.830805 c 0,0 10.636276,-11.083497 10.636276,-11.083497 0,0 10.636276,-11.083497 10.636276,-11.083497"
       id="path4181"
       inkscape:path-effect="#path-effect4183"
       inkscape:original-d="M 42.732744,67.830805 53.36902,56.747308 64.005296,45.663811"
       sodipodi:nodetypes="ccc" />
    <path
       style="fill:none;stroke:#000000;stroke-width:0.265;stroke-linecap:butt;stroke-linejoin:miter;stroke-miterlimit:4;stroke-dasharray:0.795, 0.795;stroke-dashoffset:0;stroke-opacity:1;marker-mid:url(#marker4519)"
       d="m 73.42443,67.830805 c 0,0 0,11.12812 0,11.12812 0,0 0,11.128121 0,11.128121"
       id="path4513"
       inkscape:path-effect="#path-effect4515"
       inkscape:original-d="m 73.42443,67.830805 v 11.12812 11.128121"
       sodipodi:nodetypes="ccc" />
    <path
       style="fill:none;stroke:#000000;stroke-width:0.265;stroke-linecap:butt;stroke-linejoin:miter;stroke-miterlimit:4;stroke-dasharray:0.795, 0.795;stroke-dashoffset:0;stroke-opacity:1;marker-mid:url(#marker4705)"
       d="m 42.732744,23.496817 c 0,0 10.636276,11.083497 10.636276,11.083497 0,0 10.636276,11.083497 10.636276,11.083497"
       id="path4699"
       inkscape:path-effect="#path-effect4701"
       inkscape:original-d="M 42.732744,23.496817 53.36902,34.580314 64.005296,45.663811"
       sodipodi:nodetypes="ccc" />
    <path
       style="fill:none;stroke:#000000;stroke-width:0.265;stroke-linecap:butt;stroke-linejoin:miter;stroke-miterlimit:4;stroke-dasharray:0.795, 0.79500000000000004;stroke-dashoffset:0;stroke-opacity:1;marker-mid:url(#marker6127)"
       d="m 104.08491,67.830805 c 0,0 -10.636294,-11.083497 -10.636294,-11.083497 0,0 -10.636295,-11.083497 -10.636295,-11.083497"
       id="path4893"
       inkscape:path-effect="#path-effect4895"
       inkscape:original-d="M 104.08491,67.830805 93.448616,56.747308 82.812321,45.663811"
       sodipodi:nodetypes="ccc" />
    <path
       style="fill:none;stroke:#000000;stroke-width:0.265;stroke-linecap:butt;stroke-linejoin:miter;stroke-miterlimit:4;stroke-dasharray:0.795, 0.795;stroke-dashoffset:0;stroke-opacity:1;marker-mid:url(#marker4903)"
       d="m 104.08491,23.496817 c 0,0 -10.636294,11.083497 -10.636294,11.083497 0,0 -10.636295,11.083497 -10.636295,11.083497"
       id="path4897"
       inkscape:path-effect="#path-effect4899"
       inkscape:original-d="M 104.08491,23.496817 93.448616,34.580314 82.812321,45.663811"
       sodipodi:nodetypes="ccc" />
    <path
       style="fill:none;stroke:#000000;stroke-width:0.265;stroke-linecap:butt;stroke-linejoin:miter;stroke-miterlimit:4;stroke-dasharray:0.795, 0.795;stroke-dashoffset:0;stroke-opacity:1;marker-mid:url(#marker5361)"
       d="m 63.868189,45.493318 c 0,0 4.77812,0 4.77812,0 0,0 4.778121,0 4.778121,0"
       id="path5327"
       inkscape:path-effect="#path-effect5329"
       inkscape:original-d="m 63.868189,45.493318 h 4.77812 4.778121"
       sodipodi:nodetypes="ccc" />
    <path
       style="fill:none;stroke:#000000;stroke-width:0.265;stroke-linecap:butt;stroke-linejoin:miter;stroke-miterlimit:4;stroke-dasharray:0.795, 0.795;stroke-dashoffset:0;stroke-opacity:1;marker-mid:url(#marker5351)"
       d="m 73.361978,45.493318 c 0,0 4.778132,0 4.778132,0 0,0 4.778133,0 4.778133,0"
       id="path5331"
       inkscape:path-effect="#path-effect5333"
       inkscape:original-d="m 73.361978,45.493318 h 4.778132 4.778133"
       sodipodi:nodetypes="ccc" />
    <path
       style="fill:none;stroke:#000000;stroke-width:0.265;stroke-linecap:butt;stroke-linejoin:miter;stroke-miterlimit:4;stroke-dasharray:0.795, 0.79500000000000004;stroke-dashoffset:0;stroke-opacity:1;marker-mid:url(#marker6483)"
       d="m 73.42443,45.493318 c 0,0 0,-11.128121 0,-11.128121 0,0 0,-11.12812 0,-11.12812"
       id="path5335"
       inkscape:path-effect="#path-effect5337"
       inkscape:original-d="M 73.42443,45.493318 V 34.365197 23.237077"
       sodipodi:nodetypes="ccc" />
    <g
       inkscape:label=""
       transform="matrix(0.71154458,0,0,0.71154458,-47.319749,30.378489)"
       id="g6800">
      <g
         id="g8134">
        <g
           style="fill:#000000;fill-opacity:1"
           id="g9479" />
        <g
           style="fill:#000000;fill-opacity:1"
           id="g895" />
        <g
           style="fill:#000000;fill-opacity:1"
           id="g7826" />
        <g
           style="fill:#000000;fill-opacity:1"
           id="g3796" />
        <g
           style="fill:#000000;fill-opacity:1"
           id="g6521" />
        <g
           style="fill:#000000;fill-opacity:1"
           id="g7381" />
        <g
           style="fill:#000000;fill-opacity:1"
           id="g7728" />
        <g
           style="fill:#000000;fill-opacity:1"
           id="g3500" />
        <g
           style="fill:#000000;fill-opacity:1"
           id="g3055" />
        <g
           style="fill:#000000;fill-opacity:1"
           id="g2071" />
        <g
           style="fill:#000000;fill-opacity:1"
           id="g4696" />
        <g
           style="fill:#000000;fill-opacity:1"
           id="g1025" />
        <g
           style="fill:#000000;fill-opacity:1"
           id="g4032">
          <use
             xlink:href="#symbol2700"
             x="172.202"
             y="81.962997"
             id="use7402"
             width="100%"
             height="100%" />
          <use
             xlink:href="#symbol2700"
             x="179.39699"
             y="81.962997"
             id="use7996"
             width="100%"
             height="100%"
             transform="translate(-7.436873,-79.574513)" />
        </g>
        <g
           style="fill:#000000;fill-opacity:1"
           id="g5639">
          <use
             xlink:href="#symbol2650"
             x="186.592"
             y="78.347"
             id="use5079"
             width="100%"
             height="100%"
             transform="translate(-7.436873,-79.574513)" />
        </g>
        <g
           style="fill:#000000;fill-opacity:1"
           id="g8181" />
        <g
           style="fill:#000000;fill-opacity:1"
           id="g6949" />
      </g>
    </g>
    <use
       xlink:href="#symbol1885"
       x="200.26189"
       y="81.962997"
       id="use6788"
       width="100%"
       height="100%"
       style="fill:#000000;fill-opacity:1"
       transform="matrix(0.71154457,0,0,0.71154457,-118.81933,16.554292)" />
    <use
       xlink:href="#symbol1885"
       x="200.26189"
       y="81.962997"
       id="use6890"
       width="100%"
       height="100%"
       style="fill:#000000;fill-opacity:1"
       transform="matrix(0.71154457,0,0,0.71154457,-25.156666,16.554292)" />
    <use
       xlink:href="#symbol4042"
       x="91.925003"
       y="81.962997"
       id="use6793"
       width="100%"
       height="100%"
       style="fill:#000000;fill-opacity:1"
       transform="matrix(0.71154457,0,0,0.71154457,-1.2783894,-7.5904178)" />
    <use
       xlink:href="#symbol8493"
       x="97.617996"
       y="83.457001"
       id="use9569"
       width="100%"
       height="100%"
       style="fill:#000000;fill-opacity:1"
       transform="matrix(0.71154457,0,0,0.71154457,-1.2783894,-7.5904178)" />
    <use
       xlink:href="#symbol4042"
       x="105.955"
       y="81.962997"
       id="use6805"
       width="100%"
       height="100%"
       style="fill:#000000;fill-opacity:1"
       transform="matrix(0.71154457,0,0,0.71154457,2.5327846,-7.6532301)" />
    <use
       xlink:href="#symbol3293"
       x="111.648"
       y="83.457001"
       id="use1762"
       width="100%"
       height="100%"
       style="fill:#000000;fill-opacity:1"
       transform="matrix(0.71154457,0,0,0.71154457,2.5327846,-7.6532301)" />
    <use
       xlink:href="#symbol8827"
       x="119.757"
       y="81.962997"
       id="use1906"
       width="100%"
       height="100%"
       style="fill:#000000;fill-opacity:1"
       transform="matrix(0.71154457,0,0,0.71154457,-30.885642,16.093021)" />
    <use
       xlink:href="#symbol8493"
       x="126.247"
       y="83.457001"
       id="use9565"
       width="100%"
       height="100%"
       style="fill:#000000;fill-opacity:1"
       transform="matrix(0.71154457,0,0,0.71154457,-30.885642,16.093021)" />
    <use
       xlink:href="#symbol8827"
       x="134.584"
       y="81.962997"
       id="use7455"
       width="100%"
       height="100%"
       style="fill:#000000;fill-opacity:1"
       transform="matrix(0.71154457,0,0,0.71154457,-9.1897956,16.093021)" />
    <use
       xlink:href="#symbol3293"
       x="141.073"
       y="83.457001"
       id="use8918"
       width="100%"
       height="100%"
       style="fill:#000000;fill-opacity:1"
       transform="matrix(0.71154457,0,0,0.71154457,-9.1897956,16.093021)" />
    <use
       xlink:href="#symbol9187"
       x="149.183"
       y="81.962997"
       id="use7625"
       width="100%"
       height="100%"
       style="fill:#000000;fill-opacity:1"
       transform="matrix(0.71154457,0,0,0.71154457,-61.946205,-2.1290736)" />
    <use
       xlink:href="#symbol8493"
       x="154.13"
       y="83.457001"
       id="use2819"
       width="100%"
       height="100%"
       style="fill:#000000;fill-opacity:1"
       transform="matrix(0.71154457,0,0,0.71154457,-61.946205,-2.1290736)" />
    <use
       xlink:href="#symbol9187"
       x="162.466"
       y="81.962997"
       id="use2004"
       width="100%"
       height="100%"
       style="fill:#000000;fill-opacity:1"
       transform="matrix(0.71154457,0,0,0.71154457,-20.671179,-2.1290736)" />
    <use
       xlink:href="#symbol3293"
       x="167.41299"
       y="83.457001"
       id="use1592"
       width="100%"
       height="100%"
       style="fill:#000000;fill-opacity:1"
       transform="matrix(0.71154457,0,0,0.71154457,-20.671179,-2.1290736)" />
    <use
       xlink:href="#symbol2712"
       x="191.173"
       y="81.962997"
       id="use9769"
       width="100%"
       height="100%"
       style="fill:#000000;fill-opacity:1"
       transform="matrix(0.71154457,0,0,0.71154457,-96.399327,-22.621242)" />
    <use
       xlink:href="#symbol2712"
       x="191.173"
       y="81.962997"
       id="use7076"
       width="100%"
       height="100%"
       style="fill:#000000;fill-opacity:1"
       transform="matrix(0.71154457,0,0,0.71154457,-36.074289,-22.621242)" />
  </g>
</svg>
