<?xml version="1.0" encoding="utf-8"?>
<!-- Generator: Adobe Illustrator 13.0.2, SVG Export Plug-In . SVG Version: 6.00 Build 14948)  -->
<!DOCTYPE svg PUBLIC "-//W3C//DTD SVG 1.1//EN" "http://www.w3.org/Graphics/SVG/1.1/DTD/svg11.dtd">
<svg version="1.1" id="Layer_1" xmlns="http://www.w3.org/2000/svg" xmlns:xlink="http://www.w3.org/1999/xlink" x="0px" y="0px"
	 width="588.01px" height="351.686px" viewBox="0 0 588.01 351.686" enable-background="new 0 0 588.01 351.686"
	 xml:space="preserve">
<g>
	<g>
		<line fill="none" stroke="#000000" x1="226.54" y1="157.568" x2="226.497" y2="135.867"/>
		<g>
			<line fill="none" stroke="#000000" x1="56.772" y1="97.09" x2="55.683" y2="80.049"/>
			<line fill="none" stroke="#000000" x1="70.142" y1="101.853" x2="66.593" y2="41.864"/>
			<line fill="none" stroke="#000000" x1="84.157" y1="106.845" x2="79.916" y2="28.482"/>
			<line fill="none" stroke="#000000" x1="98.868" y1="112.086" x2="95.802" y2="49.29"/>
			<line fill="none" stroke="#000000" x1="114.327" y1="117.593" x2="113.52" y2="98.948"/>
			<line fill="none" stroke="#000000" x1="130.59" y1="123.388" x2="131.294" y2="142.215"/>
			<line fill="none" stroke="#000000" x1="147.726" y1="129.492" x2="149.727" y2="193.814"/>
			<line fill="none" stroke="#000000" x1="165.804" y1="135.932" x2="167.838" y2="219.023"/>
			<line fill="none" stroke="#000000" x1="184.903" y1="142.735" x2="186.083" y2="210.273"/>
			<line fill="none" stroke="#000000" x1="205.115" y1="149.937" x2="205.323" y2="170.733"/>
			<line fill="none" stroke="#000000" x1="249.289" y1="165.672" x2="249.789" y2="88.45"/>
			<line fill="none" stroke="#000000" x1="273.486" y1="174.293" x2="275.076" y2="72.561"/>
			<line fill="none" stroke="#000000" x1="299.279" y1="183.481" x2="301.359" y2="101.565"/>
			<line fill="none" stroke="#000000" x1="326.833" y1="193.297" x2="327.704" y2="168.939"/>
			<line fill="none" stroke="#000000" x1="356.324" y1="203.804" x2="355.16" y2="228.456"/>
			<line fill="none" stroke="#000000" x1="387.977" y1="215.08" x2="382.957" y2="299.403"/>
			<line fill="none" stroke="#000000" x1="422.028" y1="227.208" x2="414.056" y2="336.677"/>
			<line fill="none" stroke="#000000" x1="458.767" y1="240.296" x2="450.916" y2="330.171"/>
			<line fill="none" stroke="#000000" x1="498.521" y1="254.458" x2="495.621" y2="282.565"/>
		</g>
	</g>
	<polyline fill="none" stroke="#000000" points="50.316,94.792 52.219,85.576 54.165,76.37 56.164,67.334 58.226,58.637 
		60.362,50.442 62.581,42.909 64.889,36.194 67.295,30.441 69.804,25.778 72.418,22.32 75.142,20.159 77.973,19.366 80.913,19.986 
		83.956,22.04 87.1,25.523 90.338,30.402 93.665,36.617 97.07,44.085 100.545,52.701 104.082,62.34 107.672,72.858 111.302,84.098 
		114.965,95.896 118.652,108.073 122.354,120.453 126.063,132.859 129.773,145.115 133.479,157.047 137.175,168.496 
		140.858,179.307 144.528,189.337 148.18,198.458 151.817,206.552 155.441,213.52 159.053,219.274 162.657,223.748 166.256,226.885 
		169.857,228.654 173.465,229.029 177.085,228.011 180.727,225.619 184.396,221.881 188.102,216.855 191.85,210.608 
		195.649,203.229 199.506,194.824 203.431,185.517 207.429,175.453 211.507,164.788 215.67,153.697 219.921,142.366 
		224.266,130.995 228.707,119.792 233.244,108.974 237.877,98.752 242.603,89.34 247.42,80.95 252.325,73.773 257.307,67.99 
		262.362,63.761 267.48,61.217 272.654,60.459 277.873,61.56 283.126,64.555 288.406,69.444 293.702,76.186 299.009,84.706 
		304.316,94.899 309.621,106.628 314.92,119.717 320.209,133.984 325.49,149.218 330.768,165.196 336.041,181.688 341.323,198.459 
		346.617,215.276 351.939,231.91 357.296,248.139 362.703,263.753 368.181,278.555 373.739,292.365 379.401,305.018 
		385.182,316.364 391.103,326.28 397.181,334.649 403.441,341.386 409.9,346.417 416.578,349.695 423.493,351.183 430.67,350.873 
		438.12,348.777 445.864,344.92 453.916,339.36 462.291,332.168 470.996,323.444 480.042,313.313 489.43,301.917 499.165,289.429 
		509.239,276.044 519.649,261.988 	"/>
</g>
<g>
	<line fill="none" stroke="#000000" stroke-dasharray="6" x1="56.772" y1="97.09" x2="41.084" y2="99.804"/>
	<line fill="none" stroke="#000000" stroke-dasharray="6" x1="70.142" y1="101.853" x2="14.439" y2="111.828"/>
	<line fill="none" stroke="#000000" stroke-dasharray="6" x1="84.157" y1="106.845" x2="11.568" y2="120.324"/>
	<line fill="none" stroke="#000000" stroke-dasharray="6" x1="98.868" y1="112.086" x2="41.725" y2="123.102"/>
	<line fill="none" stroke="#000000" stroke-dasharray="6" x1="114.327" y1="117.593" x2="97.874" y2="120.891"/>
	<line fill="none" stroke="#000000" stroke-dasharray="6" x1="130.59" y1="123.388" x2="146.739" y2="120.018"/>
	<line fill="none" stroke="#000000" stroke-dasharray="6" x1="147.726" y1="129.492" x2="201.129" y2="117.866"/>
	<line fill="none" stroke="#000000" stroke-dasharray="6" x1="165.804" y1="135.932" x2="233.266" y2="120.583"/>
	<line fill="none" stroke="#000000" stroke-dasharray="6" x1="184.903" y1="142.735" x2="239.225" y2="129.794"/>
	<line fill="none" stroke="#000000" stroke-dasharray="6" x1="205.115" y1="149.937" x2="221.887" y2="145.742"/>
	<line fill="none" stroke="#000000" stroke-dasharray="6" x1="226.54" y1="157.568" x2="209.046" y2="162.17"/>
	<line fill="none" stroke="#000000" stroke-dasharray="6" x1="249.289" y1="165.672" x2="186.766" y2="183.026"/>
	<line fill="none" stroke="#000000" stroke-dasharray="6" x1="273.486" y1="174.293" x2="192.006" y2="198.224"/>
	<line fill="none" stroke="#000000" stroke-dasharray="6" x1="299.279" y1="183.481" x2="235.79" y2="203.281"/>
	<line fill="none" stroke="#000000" stroke-dasharray="6" x1="326.833" y1="193.297" x2="308.91" y2="199.254"/>
	<line fill="none" stroke="#000000" stroke-dasharray="6" x1="356.324" y1="203.804" x2="373.566" y2="197.668"/>
	<line fill="none" stroke="#000000" stroke-dasharray="6" x1="387.977" y1="215.08" x2="443.601" y2="193.786"/>
	<line fill="none" stroke="#000000" stroke-dasharray="6" x1="422.028" y1="227.208" x2="490.872" y2="198.695"/>
	<line fill="none" stroke="#000000" stroke-dasharray="6" x1="458.767" y1="240.296" x2="513.405" y2="215.642"/>
	<line fill="none" stroke="#000000" stroke-dasharray="6" x1="498.521" y1="254.458" x2="515.247" y2="246.172"/>
	<polyline fill="none" stroke="#000000" stroke-dasharray="6" points="50.316,94.792 43.558,97.301 36.778,99.849 30.13,102.409 
		23.773,104.953 17.869,107.452 12.581,109.878 8.067,112.201 4.476,114.39 1.943,116.42 0.589,118.265 0.51,119.9 1.776,121.31 
		4.431,122.484 8.488,123.414 13.929,124.092 20.704,124.528 28.737,124.73 37.926,124.709 48.142,124.49 59.245,124.092 
		71.076,123.543 83.472,122.874 96.262,122.115 109.277,121.297 122.354,120.453 135.333,119.616 148.067,118.817 160.417,118.083 
		172.261,117.446 183.487,116.928 193.996,116.558 203.706,116.352 212.543,116.333 220.451,116.52 227.383,116.928 233.303,117.57 
		238.186,118.458 242.021,119.602 244.8,121.011 246.536,122.688 247.24,124.637 246.944,126.862 245.684,129.359 243.511,132.125 
		240.484,135.152 236.681,138.429 232.188,141.944 227.108,145.677 221.559,149.603 215.67,153.697 209.587,157.923 
		203.472,162.246 197.496,166.624 191.841,171.007 186.693,175.348 182.246,179.592 178.686,183.684 176.193,187.567 
		174.934,191.19 175.052,194.502 176.669,197.456 179.869,200.016 184.706,202.154 191.189,203.85 199.294,205.095 208.954,205.894 
		220.068,206.264 232.499,206.229 246.088,205.825 260.658,205.093 276.013,204.089 291.953,202.865 308.28,201.479 
		324.799,199.991 341.323,198.459 357.683,196.944 373.72,195.498 389.298,194.177 404.293,193.031 418.603,192.101 
		432.143,191.435 444.839,191.069 456.64,191.037 467.501,191.372 477.394,192.101 486.301,193.254 494.214,194.852 
		501.135,196.917 507.074,199.469 512.054,202.522 516.095,206.094 519.241,210.195 521.531,214.833 523.021,220.01 
		523.777,225.729 523.873,231.983 523.399,238.762 522.455,246.042 521.16,253.796 519.649,261.988 	"/>
</g>
<g>
	
		<line fill="none" stroke="#999999" stroke-linecap="round" stroke-linejoin="round" stroke-miterlimit="10" x1="78.694" y1="5.909" x2="275.536" y2="42.908"/>
	<g>
		
			<line fill="none" stroke="#999999" stroke-linecap="round" stroke-linejoin="round" stroke-miterlimit="10" x1="78.866" y1="9.091" x2="78.521" y2="2.721"/>
		
			<line fill="none" stroke="#999999" stroke-linecap="round" stroke-linejoin="round" stroke-miterlimit="10" x1="275.471" y1="47.095" x2="275.603" y2="38.704"/>
	</g>
</g>
<polygon fill="#999999" points="535.137,268.228 571.822,281.322 567.841,283.68 588.01,286.338 577.314,278.067 573.399,280.387 
	536.749,267.355 "/>
<path fill="#999999" d="M165.572,3.41c0.561-1.101,1.51-2.266,1.985-2.266c0.691,0,0.755,2.072,0.907,4.101v0.3
	c0,0.088-0.043,0.151-0.086,0.237c-1.898,3.538-4.38,6.926-6.861,10.422l1.897-0.216l5.179-8.739l0.346,6.063
	c0.085,1.533,0.215,2.935,1.64,2.935c1.402,0,2.674-1.252,3.429-3.107l-0.539-0.324c-0.561,1.144-1.424,2.287-1.877,2.287
	c-0.841,0-0.82-1.791-0.928-4.056l-0.388-8.112C170.211,1.705,169.606,0,168.485,0c-1.575,0-2.676,1.295-3.431,3.106L165.572,3.41"
	/>
<g>
	<polygon points="54.226,79.573 55.157,71.821 57.148,80.528 	"/>
	<polygon points="65.049,41.469 66.08,33.189 68.146,42.258 	"/>
	<polygon points="78.286,28.115 79.429,19.498 81.554,28.853 	"/>
	<polygon points="94.097,48.858 95.358,40.2 97.515,49.725 	"/>
	<polygon points="111.75,98.372 113.13,89.938 115.301,99.53 	"/>
	<polygon points="129.451,141.504 131.627,151.131 133.148,142.929 	"/>
	<polygon points="147.812,192.946 150,202.641 151.651,194.683 	"/>
	<polygon points="165.833,218.065 168.056,227.943 169.856,219.989 	"/>
	<polygon points="183.952,209.307 186.243,219.528 188.226,211.242 	"/>
	<polygon points="203.032,169.852 205.421,180.571 207.631,171.623 	"/>
	<polygon points="224.026,135.06 226.474,125.359 228.982,136.679 	"/>
	<polygon points="247.108,87.769 249.863,77.198 252.487,89.136 	"/>
	<polygon points="272.192,71.909 275.257,60.775 277.979,73.215 	"/>
	<polygon points="298.302,100.789 301.664,89.603 304.439,102.347 	"/>
	<polygon points="324.511,167.896 328.128,157.128 330.925,169.992 	"/>
	<polygon points="351.81,227.166 354.609,240.088 358.539,229.758 	"/>
	<polygon points="379.451,297.817 382.275,310.863 386.487,301.003 	"/>
	<polygon points="410.33,334.898 413.209,348.279 417.811,338.472 	"/>
	<polygon points="446.859,328.335 449.853,342.348 455.006,332.023 	"/>
	<polygon points="491.093,280.822 494.255,295.798 500.189,284.326 	"/>
</g>
<path fill="#999999" d="M363.227,328.234l-0.15,0.627l1.292,0.086c0.498,0.042,0.647,0.302,0.476,1.034l-2.588,11.392
	c-0.172,0.734-0.368,0.992-0.885,1.037l-1.209,0.128l-0.131,0.627h11.263l1.102-3.797h-0.648c-1.101,2.653-2.072,3.042-4.724,3.042
	c-1.057,0-2.136-0.064-2.417-0.281c-0.321-0.26-0.345-0.583-0.109-1.597l1.102-4.724h2.825c1.898,0,1.964,0.452,1.878,1.854h0.646
	l0.992-4.51h-0.646c-0.562,1.488-0.797,1.835-2.697,1.835h-2.823l1.229-5.373c0.105-0.518,0.235-0.626,0.602-0.626h2.611
	c2.717,0,2.654,0.907,2.459,2.849h0.647l0.819-3.604H363.227 M373.045,324.13c-1.36-0.431-2.569-1.122-3.432-1.856l-0.41,0.584
	l0.886,1.056h-6.646v0.021h-0.042v1.058h6.688l-0.886,1.058l0.41,0.582c0.862-0.732,2.093-1.423,3.432-1.854V324.13z"/>
<g>
	<polygon points="39.653,99.272 33.428,101.127 42.521,100.337 	"/>
	<polygon points="12.999,111.233 6.147,113.314 15.888,112.428 	"/>
	<polygon points="10.08,119.68 2.929,121.928 13.067,120.971 	"/>
	<polygon points="40.13,122.442 33.195,124.747 43.329,123.764 	"/>
	<polygon points="96.134,120.245 89.828,122.503 99.624,121.54 	"/>
	<polygon points="144.867,119.376 154.298,118.439 148.623,120.661 	"/>
	<polygon points="199.12,117.236 208.237,116.318 203.149,118.498 	"/>
	<polygon points="231.142,119.937 240.235,118.997 235.404,121.23 	"/>
	<polygon points="236.995,129.096 246.433,128.076 241.467,130.495 	"/>
	<polygon points="219.56,144.947 229.716,143.784 224.227,146.544 	"/>
	<polygon points="206.611,161.268 200.457,164.43 211.496,163.082 	"/>
	<polygon points="184.223,181.976 177.295,185.653 189.326,184.084 	"/>
	<polygon points="189.31,197.061 182.082,201.139 194.723,199.398 	"/>
	<polygon points="232.879,202.078 226.127,206.294 238.725,204.494 	"/>
	<polygon points="305.756,198.082 300.082,202.189 312.091,200.434 	"/>
	<polygon points="370.18,196.509 381.573,194.82 376.98,198.836 	"/>
	<polygon points="439.991,192.655 450.854,191.009 447.238,194.924 	"/>
	<polygon points="487.021,197.526 497.797,195.825 494.751,199.872 	"/>
	<polygon points="509.246,214.341 520.49,212.445 517.595,216.955 	"/>
	<polygon points="510.688,244.61 522.978,242.34 519.846,247.746 	"/>
</g>
<path fill="#999999" d="M507.265,179.485h6.559c5.22,0,6.255-2.676,6.255-4.466c0-2.266-1.683-3.258-3.257-3.561l0.022-0.064
	c2.868-0.346,4.076-1.943,4.076-3.582c0-1.12-0.454-2.005-1.359-2.544c-0.951-0.584-2.353-0.734-3.906-0.714h-5.197l-0.131,0.628
	l1.274,0.129c0.496,0.042,0.625,0.302,0.452,1.036l-2.546,11.348c-0.151,0.712-0.389,0.972-0.905,1.035l-1.209,0.131
	L507.265,179.485 M513.736,171.824c2.136,0,4.012,0.604,4.012,3.064c0,1.92-1.163,3.84-4.056,3.84c-2.136,0-2.222-0.539-2.028-1.38
	l1.231-5.525H513.736z M513.045,171.07l1.143-5.006c0.151-0.645,0.26-0.753,1.706-0.753c1.811,0,2.826,0.907,2.826,2.417
	c0,1.101-0.52,1.94-1.274,2.544c-0.711,0.54-1.831,0.799-2.998,0.799H513.045z M521.256,160.452
	c-1.36-0.431-2.569-1.122-3.432-1.855l-0.409,0.583l0.886,1.055h-6.646v0.021h-0.042v1.058h6.688l-0.886,1.06l0.409,0.58
	c0.862-0.731,2.093-1.421,3.432-1.853V160.452z"/>
</svg>
