<?xml version="1.0" encoding="UTF-8" standalone="no"?>
<!-- Creator: CorelDRAW -->

<svg
   xmlns:dc="http://purl.org/dc/elements/1.1/"
   xmlns:cc="http://creativecommons.org/ns#"
   xmlns:rdf="http://www.w3.org/1999/02/22-rdf-syntax-ns#"
   xmlns:svg="http://www.w3.org/2000/svg"
   xmlns="http://www.w3.org/2000/svg"
   xmlns:sodipodi="http://sodipodi.sourceforge.net/DTD/sodipodi-0.dtd"
   xmlns:inkscape="http://www.inkscape.org/namespaces/inkscape"
   xml:space="preserve"
   width="303.74304"
   height="311.02896"
   style="fill-rule:evenodd"
   viewBox="0 0 88.862238 90.99392"
   id="svg2"
   version="1.1"
   inkscape:version="0.48.3.1 r9886"
   sodipodi:docname="Enterprise.pdf"><metadata
   id="metadata19"><rdf:RDF><cc:Work
       rdf:about=""><dc:format>image/svg+xml</dc:format><dc:type
         rdf:resource="http://purl.org/dc/dcmitype/StillImage" /><dc:title></dc:title></cc:Work></rdf:RDF></metadata><sodipodi:namedview
   pagecolor="#ffffff"
   bordercolor="#666666"
   borderopacity="1"
   objecttolerance="10"
   gridtolerance="10"
   guidetolerance="10"
   inkscape:pageopacity="0"
   inkscape:pageshadow="2"
   inkscape:window-width="1366"
   inkscape:window-height="710"
   id="namedview17"
   showgrid="false"
   fit-margin-top="0"
   fit-margin-left="0"
   fit-margin-right="0"
   fit-margin-bottom="0"
   inkscape:zoom="0.85891457"
   inkscape:cx="490.89967"
   inkscape:cy="217.87734"
   inkscape:window-x="0"
   inkscape:window-y="26"
   inkscape:window-maximized="1"
   inkscape:current-layer="svg2" />
 <defs
   id="defs4">
  <style
   type="text/css"
   id="style6">
   
    .fil2 {fill:#00285A}
    .fil3 {fill:#004496}
    .fil0 {fill:#005FBE}
    .fil4 {fill:#48C8F5}
    .fil1 {fill:#D1F3FF}
   
  </style>
 </defs>
 <g
   id="图层_x0020_1"
   transform="matrix(0.2037066,0,0,0.2037066,-3.1631449e-4,55.468809)">
  <metadata
   id="CorelCorpID_0Corel-Layer" />
  <g
   id="_79272864">
   <path
   id="_79271784"
   class="fil0"
   d="m 282.83,69.6527 4.40491,-0.689767 -1.55047,-5.69333 C 275.84069,26.936303 243.92834,3e-6 205.76454,3e-6 c -16.2741,0 -31.9491,4.93877 -45.3668,14.129 l -1.50652,1.03164 0,2.4203 -15.2573,7.0174 0,5.56385 c -3.21487,3.41369 -6.21236,7.80461 -9.04607,12.9319 -9.31072,1.78195 -19.0281,1.25804 -28.9114,-0.2038 -1.52197,-4.10025 -3.25229,-7.94041 -5.15563,-11.5652 0.29938,-0.136627 0.49115,-0.380854 0.57512,-0.732476 6.37408,0.353384 12.2237,0.379403 17.8353,0.256045 l 9.52395,-3.496 0,-1.86913 c 4.47416,-4.78504 4.47416,-9.5226 0,-14.2127 l 0,-1.8032 -8.07507,-2.944 c -6.57342,-0.348823 -13.2766,0.237801 -19.3624,0.751135 -0.26123,-0.695261 -0.63887,-1.29349 -1.187453,-1.75064 -8.86549,-0.105113 -17.4079,0.135175 -26.2739,0.791252 -0.889006,0.16814 -1.58116,0.500066 -2.18385,0.906006 -29.6042,2.06806 -56.4801,-1.6023 -71.3718,5.94792 l 0,10.7812 c 9.80633,9.31766 53.4413,6.35044 61.8288,7.39214 l 13.0016,16.4732 8.36262,20.0476 3.10354,1.23741 3.29707,8.30945 -4.0169,1.64481 -3.11e-4,16.2832 4.01701,1.64481 -3.29707,8.309455 -3.10354,1.2374 -8.36262,20.04761 -13.0017,16.47319 c -8.3874,1.04149 -52.0225,-1.92552 -61.828699986,7.39183 l 0,10.7815 C 14.892216,168.77433 41.768116,165.10377 71.372316,167.17182 c 0.602691,0.40615 1.29474,0.73787 2.18374,0.90601 8.86611,0.65628 17.4084,0.89637 26.274,0.79125 0.548474,-0.45715 0.926224,-1.05518 1.187454,-1.75075 6.08569,0.51334 12.7889,1.10027 19.3624,0.75114 l 8.07496,-2.944 0,-1.80289 c 4.47416,-4.69029 4.47416,-9.42765 0,-14.213 l 0,-1.86882 -9.52385,-3.49631 c -5.61154,-0.12305 -11.4612,-0.0972 -17.8353,0.25635 -0.084,-0.35183 -0.27574,-0.59585 -0.57512,-0.73268 1.90334,-3.62485 3.63356,-7.4647 5.15563,-11.5652 9.88335,-1.46163 19.6007,-1.98585 28.9114,-0.2039 2.83371,5.12733 5.8312,9.51856 9.04596,12.9323 l 0,5.56365 15.2574,7.01761 0,2.42009 1.50652,1.03154 c 13.4177,9.19037 29.0926,14.1293 45.3668,14.1293 38.1638,0 70.0762,-26.9365 79.9198,-63.2698 l 1.55058,-5.69333 -4.40491,-0.68987 c 1.10856,-11.603503 1.18019,-23.293903 2.1e-4,-35.088003 z m -74.6934,17.5441 0.42222,0 c 0,-1.99104 -1.61402,-3.60505 -3.60505,-3.60505 -0.83438,0 -1.60251,0.282894 -2.21329,0.758703 -1.07809,0.623216 -1.80341,1.78838 -1.80341,3.12334 l 7.21011,0 c 0,-0.09309 -0.004,-0.185451 -0.0106,-0.276985 z m -6.5702,-1.23638 c -0.0177,0.048 -0.034,0.09672 -0.0495,0.145749 0.0155,-0.04924 0.0318,-0.09755 0.0495,-0.145749 z m 9.96161,-2.82417 c -0.0271,-0.04976 -0.0551,-0.09848 -0.0834,-0.1472 0.0281,0.04872 0.0561,0.09744 0.0834,0.1472 z m -2.78602,-2.88056 c -0.0494,-0.02903 -0.0992,-0.05681 -0.14917,-0.08469 0.05,0.02757 0.0997,0.05567 0.14917,0.08469 z m -0.2491,-0.139322 c -0.0471,-0.02509 -0.0938,-0.05017 -0.14129,-0.07433 0.0475,0.02415 0.0942,0.04924 0.14129,0.07433 z m -4.02883,-0.871279 c -0.0783,0.0054 -0.15674,0.0113 -0.23511,0.01897 0.0786,-0.0077 0.15664,-0.01358 0.23511,-0.01897 z m -0.72895,0.08397 c -0.06,0.0098 -0.11994,0.02094 -0.17975,0.03245 0.0598,-0.01151 0.11973,-0.0226 0.17975,-0.03245 z m -0.28455,0.05339 c -0.0591,0.01213 -0.11849,0.02467 -0.17758,0.03846 0.0591,-0.01379 0.11818,-0.02633 0.17758,-0.03846 z m -0.29824,0.06821 c -0.0534,0.01327 -0.10677,0.02612 -0.16026,0.04064 m -0.26196,0.07702 c -0.0588,0.01856 -0.11744,0.03846 -0.1757,0.05836 0.0586,-0.0199 0.11714,-0.04012 0.1757,-0.05836 z m -0.27719,0.09309 c -0.0616,0.02198 -0.12284,0.04478 -0.18389,0.06842 0.0613,-0.02363 0.12232,-0.04644 0.18389,-0.06842 z m -0.2775,0.105424 c -0.0611,0.02457 -0.12211,0.04945 -0.18317,0.07578 0.0608,-0.02633 0.12191,-0.05121 0.18317,-0.07578 z m -0.27294,0.116205 c -0.11704,0.05245 -0.23366,0.108016 -0.34914,0.166896 0.11548,-0.05888 0.2321,-0.114443 0.34914,-0.166896 z m -0.42471,0.205044 c -0.0557,0.02902 -0.11081,0.05981 -0.16575,0.0906 0.0552,-0.03079 0.11009,-0.06158 0.16575,-0.0906 z m -0.27159,0.149895 c -0.0559,0.03234 -0.11123,0.06551 -0.16669,0.09931 0.0555,-0.034 0.11102,-0.06697 0.16669,-0.09931 z m -0.26247,0.15881 c -0.0571,0.03597 -0.11393,0.07267 -0.17063,0.110296 0.0564,-0.03763 0.11351,-0.07412 0.17063,-0.110296 z m -0.23459,0.154145 c -1.3334,0.90922 -2.49888,2.3015 -3.29811,4.22547 l -0.2944,0.01016 c -0.0394,0.08832 -0.0793,0.176018 -0.11724,0.266826 l -34.5567,1.17097 0,-1.71353 0.41164,-0.02446 0,-0.252521 18.3845,-1.09073 c 0.44119,-0.576776 0.97525,-1.02833 1.53316,-1.43624 l 0.0634,-0.01337 c 0.11476,-0.09029 0.23075,-0.177677 0.3482,-0.263613 7.48119,-1.56063 15.0616,-2.97116 23.0187,-3.86576 5.50445,0.103558 9.88998,4.79313 9.59237,10.4895 l -0.40138,0 c -0.002,0.09205 -0.006,0.184415 -0.0103,0.276985 l -3.2269,0 c 0.36334,-7.46771 -6.689,-10.7734 -11.6294,-7.65254 0.0601,-0.04364 0.12139,-0.08573 0.18245,-0.12709 z m -50.1962,5.32502 c -0.36168,-1.63496 -4.68293,-3.26629 -8.18536,-3.2129 l -0.0357,2.03489 0.0307,-1.75614 c -0.13632,-0.003 -0.27222,-0.0039 -0.40667,-0.0018 l -0.0357,2.03478 c 0.68261,0.204629 1.20061,0.543915 1.35652,1.17812 l 6.8645,0 c -0.0204,-0.09257 -0.0539,-0.184933 -0.099,-0.276985 l 0.51064,0 z m 99.9064,0 0.41164,0 0,-18.4949 -100.893,0 -0.35805,0.276985 -0.0536,0 -3.32641,2.57331 0,5.60459 32.6286,0 c 11.5777,-1.56872 26.3517,-3.59935 29.9425,-3.47133 7.56277,0.219867 13.0706,5.68939 13.112,13.7883 l 28.5365,0 0,-0.276985 z m 10.5351,2.10621 11.1926,6.91664 -0.44222,-30.4524 2.13803,-0.797161 c -0.0101,-0.03742 -0.0217,-0.07391 -0.032,-0.11154 l -2.10766,0.785862 2.55133,-0.951307 c -12.822,-47.4658 -67.2831,-66.2518002 -106.078,-40.2456 l 0,0.01037 c -0.13663,0.09008 -0.27523,0.175293 -0.41164,0.266619 l 0,2.76456 -13.4254,6.39128 0,0.08096 -0.41165,0.196025 0,9.44289 14.1197,0.92819 10.3169,-4.78369 0.001,-0.08666 -9.90646,4.59337 10.3169,-4.78359 0.0335,-2.50634 c 33.1833,-18.4739 69.7093,-3.35958 81.0507,29.6916 l 0.68272,22.9269 11.1926,6.91664 -0.008,-0.536244 -10.7731,-6.65738 z m -140.736,-70.4105 -0.41164,0.0045 0,0.272528 c -36.436201,0.4035 -72.657501,-0.275279 -109.166001,0.229866 0.0962,-0.292016 0.371732,-0.558842 0.811466,-0.803795 l -0.0037,0.0032 c 3.82471,-3.16511 32.5042,-2.93198 62.7361,-3.01128 l -0.134657,2.07e-4 1.33092,-1.32947 0.13445,0 0.277192,-0.276881 19.857,0 1.65051,1.86094 20.4367,-0.934099 2.48136,1.65963 0,2.32462 z m -72.099599,0.0369 c -1.57805,-0.0015 -3.1562,-0.0027 -4.73487,-0.0024 1.57867,-3.11e-4 3.15703,9.33e-4 4.73487,0.0024 z m -37.0659,0.193019 c 0.01741,-0.05318 0.04178,-0.105113 0.07215,-0.15653 -0.03006,0.05142 -0.05442,0.103351 -0.07215,0.15653 z m 0.08936,-0.185348 c 0.02633,-0.04188 0.05608,-0.08345 0.09008,-0.124083 -0.034,0.04064 -0.06396,0.08252 -0.09008,0.124083 z m 0.14917,-0.190324 c 0.02861,-0.03027 0.05857,-0.06033 0.09133,-0.09008 -0.03276,0.02954 -0.06272,0.05981 -0.09133,0.09008 z m 209.981999,40.1733 0.7361,0.0074 c -6.59664,-6.15317 -34.6803,-7.29086 -68.7659,-7.2579 l -9.26345,2.40506 c -17.8274,0.200897 -37.2023,-1.26737 -56.657395,-1.85503 l 0.09848,0.292742 -0.510121,-0.01576 1.80144,5.35964 132.884996,1.34823 c -0.10294,-0.09599 -0.21126,-0.191049 -0.32446,-0.284345 z m -109.692,23.6196 c -6.67293,0.109156 -13.151199,0.363957 -17.910599,1.90831 l 0,0.148237 c -0.138389,0.04188 -0.276052,0.08469 -0.411642,0.128748 l 0,2.67738 19.848401,0 c 0.0145,-0.09236 0.0261,-0.184415 0.0345,-0.276985 l 0.37712,0 c 0.22878,-1.46163 -0.30083,-2.98122 -1.93775,-4.5857 z m -21.670599,31.040101 -0.429161,3.14687 0.391739,-2.87341 -0.37422,0.004 -0.429161,3.14687 130.254992,0.66738 c 0.72947,-0.0103 1.64211,-0.28849 2.22873,-0.76762 0.57688,-0.32104 1.00625,-0.7871 1.00625,-1.36191 -26.7193,-0.388 -53.4384,-0.24578 -80.1572,-0.0584 l -2.72693,-1.71872 c -16.5889,-0.2009 -33.178,-0.33089 -49.764992,-0.18462 z m 5.75926,18.6329 -6.85413,13.9581 -0.275741,0 -0.135901,0.27698 -13.4933,0 c -0.312956,-0.0913 -0.267448,-0.71589 -0.143572,-0.92808 l 8.96034,-13.03 0.221111,0 -8.76981,12.753 8.96034,-13.03 11.5306,0 z m 23.917999,25.1374 -0.6029,0.002 0.19126,-4.2e-4 0,0.27543 c -36.436401,0.15363 -72.872701,-0.90797 -109.3090013,-1.04087 0.1573593,-0.33659 0.4926023,-0.64871 0.9845823,-0.93855 l -0.01182,0.009 0.01202,-0.01 c 4.43798,-3.45288 30.1045,-3.89956 56.7998,-2.59497 l 1.24322,-1.37477 0.161091,0 -1.24975,1.38223 1.5003,-1.65911 25.7846,0 1.57877,2.09387 20.436708,-0.59409 2.48136,1.65942 0,2.79006 z m -15.3708,-0.002 c -1.13862,-0.005 -2.27756,-0.0101 -3.41598,-0.0163 1.13842,0.006 2.27756,0.0118 3.41598,0.0163 z m -93.938299,-1.03869 c 0.02861,-0.0616 0.06354,-0.12211 0.104388,-0.18192 -0.04064,0.0598 -0.07578,0.12087 -0.104388,0.18192 z m 0.115687,-0.19799 c 0.03524,-0.0502 0.07412,-0.0996 0.117242,-0.14865 -0.04333,0.0492 -0.0822,0.0985 -0.117242,0.14865 z m 0.165756,-0.20204 c 0.03421,-0.0363 0.07059,-0.0721 0.10926,-0.10791 -0.03867,0.0358 -0.07484,0.0714 -0.10926,0.10791 z m 137.820996,-44.6415 104.815,0 -2.1e-4,-45.501199 -104.815,-2.08e-4 -3.24493,2.51484 -0.90497,-1.16765 3.64445,-2.82438 79.9029,2.08e-4 0,-2.82241 c -1.40141,-3.04984 -5.12764,-4.93597 -8.09082,-6.07045 -2.42631,-0.929227 -4.98532,-1.60624 -7.52255,-2.15348 -3.11567,-0.671937 -6.28223,-1.15894 -9.44486,-1.54809 -7.77787,-0.957526 -15.6988,-1.36202 -23.5296,-1.58727 -9.26417,-0.266619 -18.5463,-0.254076 -27.8131,-0.1472 l -13.9405,3.76729 -0.40148,-2.64266 -55.248997,-0.89989 6.93592,18.3957 c 0.551171,0.198409 0.979814,0.25335 1.55078,0.0566 0.388214,-0.149688 0.532719,-0.133724 0.989973,-0.134968 3.5583,-0.0079 7.1163,0.01856 10.674394,0.03773 5.25701,0.02809 10.0567,0.0537 15.3373,-0.08252 4.24911,-0.109571 8.6366,-0.298858 12.8451,-0.910671 l 0.84475,-0.12284 0,1.90904 5.69208,3.02403 0.28216,6.24916 -2.83277,3.26287 7.3e-4,13.2966 2.83277,3.26287 -0.28238,6.249268 -5.69188,3.02403 0,1.90904 -0.84494,-0.12284 c -4.20826,-0.61181 -8.59597,-0.8012 -12.8449,-0.91078 -5.11126,-0.13165 -10.225,-0.10977 -15.3373,-0.0824 -3.558102,0.0192 -7.116402,0.0455 -10.674402,0.0376 -0.37619,-9.3e-4 -0.638869,5.2e-4 -0.99018,-0.13486 -0.570971,-0.19675 -0.999613,-0.14181 -1.55089,0.0566 l -6.93561,18.3957 55.248402,-0.89989 0.40127,-2.64266 13.9405,3.76729 c 9.26708,0.10687 18.549,0.11942 27.8134,-0.1472 7.83063,-0.22526 15.7516,-0.62985 23.5296,-1.58727 3.16242,-0.38925 6.32898,-0.87626 9.44465,-1.54809 2.53754,-0.54734 5.09623,-1.22435 7.52275,-2.15348 2.96328,-1.13448 6.68921,-3.02061 8.09082,-6.07045 l 0,-2.82344 -79.9031,0 -3.64424,-2.82438 0.90476,-1.16775 3.24493,2.51494 z m -36.1849,-29.720899 -15.803396,0.277192 0.181409,0.471455 -5.19917,1.23793 7.25e-4,9.96856 5.19917,1.23783 -0.181616,0.471455 15.799998,0.277296 0.12408,-0.085 c 6.8305,-4.67578 6.67293,-9.05861 -0.009,-13.7779 l -0.11175,-0.07878 z m -15.991696,-0.211989 15.751696,-0.276259 -4.26165,-11.0205 c -1.922,-9.33e-4 -3.84389,-0.01026 -5.76465,-0.02063 -3.365796,-0.01804 -6.732016,-0.04281 -10.097996,-0.03867 l 4.37267,11.3561 z m 40.606096,-31.7306 -0.0385,-0.253868 7.38281,-11.8571 3.16335,-0.790734 0,-6.7542 15.5074,-7.43817 0,-3.28526 0.31835,-0.220075 c 12.5539,-8.6872904 27.2273,-13.3833004 42.518,-13.3833004 36.0859,0 65.8561,25.8820004 75.0438,60.1425004 l 0.18514,0.690078 -3.04994,0.927257 c 1.17418,14.0687 1.17418,28.2039 3.1e-4,42.2726 l 3.04963,0.92715 -0.18514,0.69008 c -9.18767,34.2606 -38.9575,60.1426 -75.0434,60.1426 -15.2911,0 -29.9642,-4.69599 -42.5183,-13.3833 l -0.31835,-0.22018 0,-3.28526 -15.5074,-7.43806 0,-6.7542 -3.16335,-0.79073 -7.38281,-11.8572 0.0387,-0.25356 -33.9876,0.55345 -9.214828,20.1234 3.23819,0 0.197684,0.14948 c 0.422008,0.31908 0.844016,0.63815 1.26592,0.95722 l 18.701894,0 0.0641,0.0113 c 1.98927,0.35286 3.70799,0.94446 5.36047,2.09885 3.43422,0.11009 6.78292,2.5504 6.78292,6.19681 0,3.6459 -3.34849,6.08621 -6.7824,6.1963 -0.88466,0.62705 -1.88841,1.2512 -2.99573,1.2709 -6.83299,0.12108 -13.6544,-0.38365 -20.478201,-0.64955 l -1.84746,1.56343 -22.1277,-0.25563 -1.81844,-1.21222 c -4.34717,-0.019 -8.69424,5.2e-4 -13.0413,0.0192 -5.50943,0.024 -11.0198,0.0496 -16.5292,-0.005 -5.14205,-0.051 -10.2943,-0.16628 -15.4282,-0.47032 -4.40647,-0.26071 -8.86953,-0.65234 -13.2211,-1.40628 -3.31304,-0.57356 -6.8971499,-1.40524 -9.9480299,-2.84843 l -0.422734,-0.19996 0,-5.61579 0.244228,-0.22008 c 1.49491,-1.34667 5.06202,-2.05914 6.9943899,-2.40931 4.24921,-0.7701 8.69331,-1.16029 12.9981,-1.47884 5.88282,-0.43558 11.7896,-0.69381 17.6848,-0.89667 6.83247,-0.2349 13.6691,-0.38428 20.5048,-0.5037 l 17.0583,-21.1649 7.50772,-19.9132 0.299169,-0.12159 c 0.889939,-0.36168 1.62221,-0.50774 2.44839,-0.32405 l 4.27057,-11.090902 -4.69081,-1.11675 -7.26e-4,-12.302 4.69081,-1.11675 -4.27036,-11.091 c -0.826394,0.183689 -1.55835,0.03773 -2.44839,-0.323944 l -0.299169,-0.121596 -7.50803,-19.9132 -17.0582,-21.1649 c -6.83548,-0.119419 -13.6721,-0.268899 -20.5046,-0.503694 -5.89526,-0.202867 -11.802,-0.461192 -17.6852,-0.896677 -4.30467,-0.318553 -8.74887,-0.708841 -12.998,-1.47895 -1.9321595,-0.350067 -5.4994795,-1.06254 -6.9943895,-2.40921 l -0.244228,-0.220178 0,-5.61568 0.42263,-0.199964 c 3.05119,-1.44318 6.6350995,-2.27486 9.9483395,-2.84853 4.35132,-0.75383 8.81469,-1.14557 13.2208,-1.40628 5.13397,-0.304041 10.2861,-0.419209 15.4284,-0.470211 5.50912,-0.05442 11.0196,-0.02882 16.5292,-0.005 4.34686,0.01876 8.69424,0.03825 13.0413,0.01928 l 1.81813,-1.21233 22.1278,-0.2555275 1.84767,1.5633305 c 6.823871,-0.265893 13.645001,-0.770624 20.478201,-0.649443 1.10742,0.0197 2.11087,0.643845 2.99542,1.2709 3.43401,0.109985 6.78281,2.55029 6.78281,6.1963 0,3.64642 -3.34901,6.08672 -6.78323,6.19681 -1.65248,1.15438 -3.37119,1.74598 -5.36047,2.09874 l -0.0641,0.0114 -18.701594,0 c -0.422008,0.319072 -0.844016,0.638144 -1.26623,0.957215 l -0.197684,0.149377 -3.23799,0 9.214618,20.1235 33.9881,0.553659 z m -15.3543,112.998998 0,-10.1593 c -1.41499,-0.95618 -2.88108,-1.44567 -4.57492,-1.75168 l -19.066796,0 -0.197684,-0.14948 c -0.421905,-0.31907 -0.843705,-0.63814 -1.26571,-0.95721 l -5.04409,0 9.8792,-21.574 -19.9595,0.32498 -0.274186,0.14948 -17.2309,21.3793 -0.345402,0.006 c -6.94225,0.12014 -13.8857,0.27035 -20.8249,0.50887 -5.87598,0.20214 -11.7633,0.45974 -17.627,0.89347 -3.33346,0.24692 -15.8250003,1.16703 -18.8683003,3.31905 l 0,3.99078 c 2.83174,1.26426 6.1231103,2.01073 9.1456903,2.53412 4.29638,0.74429 8.70554,1.12981 13.0561,1.38731 5.10981,0.30238 10.2379,0.41713 15.3556,0.46762 5.50248,0.0543 11.0058,0.0287 16.5083,0.005 4.42533,-0.019 8.85098,-0.0387 13.2764,-0.0182 l 0.221629,0.001 1.8231,1.21544 21.139,0.24423 1.86467,-1.57815 0.286626,0.0109 c 6.890513,0.26196 13.782593,0.78213 20.681993,0.65981 0.67629,-0.012 1.44121,-0.48897 2.041,-0.90901 z m -8.3e-4,-138.010998 0,-10.1594 c -0.59948,-0.420039 -1.3644,-0.896884 -2.04069,-0.908909 -6.89943,-0.122425 -13.7917,0.397855 -20.682296,0.659809 l -0.286315,0.01078 -1.86488,-1.57815 -21.1391,0.244228 -1.82279,1.21554 -0.221837,9.33e-4 c -4.42544,0.02042 -8.85077,7.26e-4 -13.2762,-0.01814 -5.50248,-0.02395 -11.006,-0.04955 -16.5083,0.0049 -5.1179,0.05048 -10.246,0.165237 -15.3556,0.467516 -4.35059,0.257497 -8.75965,0.643119 -13.0563,1.38731 -3.02227,0.523493 -6.3139496,1.26996 -9.1456896,2.53412 l 0,3.99089 c 3.04341,2.15202 15.5347996,3.07202 18.8685996,3.31895 5.86364,0.433826 11.7509,0.691322 17.6267,0.893463 6.93934,0.23863 13.8828,0.388733 20.8249,0.508877 l 0.345402,0.0059 17.2309,21.3794 0.274497,0.149377 19.959199,0.324981 -9.878889,-21.574 5.04378,0 c 0.422008,-0.319072 0.844016,-0.638144 1.26602,-0.957215 l 0.197684,-0.149377 19.066795,0 c 1.69384,-0.30601 3.15962,-0.795503 4.5745,-1.75168 z m -13.7602,82.405598 4.26144,-11.020498 -15.751696,-0.276259 -4.37247,11.356197 c 3.3657,0.004 6.73202,-0.0207 10.097996,-0.0387 1.92075,-0.0104 3.84265,-0.0197 5.76465,-0.0207 z m 121.561,-42.707798 25.4176,0 2.1e-4,48.455598 -25.4176,0 0,3.13308 -0.0605,0.14015 c -1.53606,3.55602 -5.54468,5.68514 -8.97931,7.0003 -2.49774,0.95628 -5.12764,1.65445 -7.73951,2.21775 -3.159,0.68127 -6.3691,1.17563 -9.57557,1.57027 -7.8242,0.96313 -15.7906,1.37114 -23.6675,1.59764 -9.31559,0.26807 -18.6487,0.2548 -27.9668,0.14668 l -0.0938,-9.3e-4 -12.5238,-3.38457 -0.33452,2.20199 6.77825,10.8867 3.7026,0.92539 0,6.9777 15.5074,7.43817 0,3.43961 c 12.2366,8.3761 26.498,12.9018 41.3595,12.9018 35.1735,0 64.2029,-25.0876 73.4288,-58.3586 l -2.82334,-0.85853 0.0512,-0.59585 c 1.23389,-14.380095 1.23389,-28.831795 -2.1e-4,-43.211995 l -0.051,-0.595746 2.82313,-0.858529 C 269.86577,30.86609 240.8367,5.7785896 205.6629,5.7785896 c -14.8614,0 -29.1226,4.5255704 -41.3592,12.9018004 l 0,3.43961 -15.5074,7.43806 0,6.9777 -3.7026,0.925495 -6.77825,10.8866 0.33452,2.20199 12.5238,-3.38446 0.0936,-9.33e-4 c 9.31828,-0.10812 18.6514,-0.121388 27.9668,0.146682 7.87707,0.226502 15.8433,0.634412 23.6674,1.59754 3.20679,0.394745 6.41668,0.889109 9.57568,1.57027 2.61208,0.5633 5.24198,1.26157 7.73941,2.21775 3.43474,1.31516 7.44356,3.44428 8.97931,7.0004 l 0.0607,0.140047 0,3.13215 z m -18.4807,24.2283 c 3.1e-4,3.21404 -2.60648,5.82104 -5.82052,5.82104 -3.21435,0 -5.82114,-2.60669 -5.82114,-5.82104 0,-3.21415 2.60679,-5.82083 5.82083,-5.82083 3.21415,0 5.82083,2.60669 5.82083,5.82083 z m -1.47718,0 c 0,-2.39874 -1.94491,-4.34365 -4.34365,-4.34365 -2.39864,0 -4.34365,1.9447 -4.34365,4.34365 0,2.39895 1.94501,4.34385 4.34396,4.34385 2.39864,0 4.34365,-1.94491 4.34334,-4.34385 z m -55.2723,-2.12746 4.91171,0 2.34255,-2.8393 18.2786,-1.14681 2.03292,-2.03292 0.21614,-0.04478 c 4.34862,-0.900823 8.74669,-1.71913 13.1267,-2.44249 2.12911,-0.351829 4.26683,-0.680541 6.40849,-0.94488 1.63952,-0.202141 3.38135,-0.400343 5.03352,-0.400343 6.61457,0 11.9788,5.36441 11.9788,11.979 2e-4,6.61436 -5.3642,11.9787 -11.9785,11.9787 -1.65248,0 -3.3941,-0.197891 -5.03352,-0.400239 -2.14166,-0.264235 -4.27969,-0.593154 -6.40849,-0.944672 -4.38034,-0.723354 -8.77821,-1.54166 -13.1268,-2.44259 l -0.21635,-0.04478 -2.03292,-2.03281 -18.2786,-1.14681 -2.34235,-2.83941 -4.91161,0 c -3.94807,4.08149 -9.99883,4.80059 -15.411,4.79199 l -0.73734,-0.0012 0,-4.44855 0.27055,-0.221526 c 1.91619,-1.56996 1.80787,-2.91892 -0.0174,-4.51054 l -0.25314,-0.220904 0,-4.43477 0.73734,-0.0012 c 5.41199,-0.0086 11.4627,0.710603 15.4107,4.79199 z m -14.6709,5.28718 0,2.2788 c 4.87201,-0.05598 10.365,-0.798198 13.808,-4.549 l 0.21966,-0.239356 6.25113,0 2.37801,2.88253 18.1967,1.14163 2.11533,2.11533 c 4.25844,0.878847 8.56373,1.6785 12.8517,2.38661 2.109,0.348304 4.22703,0.674322 6.34847,0.936276 1.57763,0.19447 3.26287,0.38894 4.85283,0.38894 5.79885,0 10.5015,-4.70232 10.5013,-10.5015 0,-5.79917 -4.70242,-10.5018 -10.5016,-10.5018 -1.58966,0 -3.2751,0.194677 -4.85252,0.389251 -2.12175,0.261643 -4.23947,0.587867 -6.34868,0.935965 -4.28798,0.708323 -8.59307,1.50797 -12.8517,2.38692 l -2.11512,2.11533 -18.1967,1.14163 -2.37801,2.88243 -6.25113,0 -0.21966,-0.239252 c -3.44334,-3.7508 -8.93598,-4.49313 -13.808,-4.549 l 0,2.29166 c 2.18478,2.0552 2.26968,4.283 0,6.30659 z"
   inkscape:connector-curvature="0"
   style="fill:#005fbe" />
   <path
   id="_79046224"
   class="fil1"
   d="m 127.741,156.201 c 0,-0.54018 -0.10708,-1.06917 -0.31389,-1.56799 -0.75269,-1.81543 -2.59767,-2.88937 -4.4952,-3.11193 l 0,9.35965 c 1.89784,-0.22267 3.74324,-1.29681 4.49562,-3.11266 0.2066,-0.49851 0.31348,-1.02729 0.31348,-1.56706 z"
   inkscape:connector-curvature="0"
   style="fill:#d1f3ff" />
   <path
   id="_79046152"
   class="fil2"
   d="m 148.38,109.947 104.815,0 0,-45.5011 -104.815,-1.04e-4 -3.24493,2.51474 -0.90487,-1.16755 3.64434,-2.82438 79.903,1.04e-4 0,-2.8223 c -1.40151,-3.04984 -5.12754,-4.93597 -8.09082,-6.07066 -2.42642,-0.929019 -4.98521,-1.60614 -7.52265,-2.15337 -3.11567,-0.671834 -6.28223,-1.15884 -9.44475,-1.54809 -7.77797,-0.957423 -15.6989,-1.36191 -23.5296,-1.58717 -9.26428,-0.266619 -18.5463,-0.254179 -27.8133,-0.1472 l -13.9405,3.76729 -0.40138,-2.64266 -55.248995,-0.89989 6.93582,18.3957 c 0.551171,0.198305 0.979814,0.25335 1.55078,0.0565 0.388318,-0.149688 0.532719,-0.13362 0.990076,-0.134864 3.5582,-0.008 7.1163,0.01856 10.674399,0.03763 5.25701,0.0282 10.0567,0.05359 15.3373,-0.08252 4.249,-0.109571 8.6366,-0.298754 12.845,-0.910671 l 0.84485,-0.122736 0,1.90904 5.69198,3.02393 0.28227,6.24916 -2.83277,3.26297 5.2e-4,13.2964 2.83277,3.26297 -0.28227,6.249271 -5.69198,3.02393 0,1.90904 -0.84485,-0.12274 c -4.20837,-0.61191 -8.59597,-0.8012 -12.845,-0.91067 -5.11116,-0.13175 -10.2251,-0.10998 -15.3374,-0.0825 -3.557991,0.0191 -7.116191,0.0455 -10.674301,0.0375 -0.37619,-9.3e-4 -0.638973,5.2e-4 -0.990076,-0.13476 -0.570971,-0.19685 -0.999613,-0.14181 -1.55089,0.0565 l -6.93572,18.3957 55.248397,-0.89979 0.40138,-2.64276 13.9405,3.76729 c 9.26697,0.10698 18.549,0.11942 27.8133,-0.1472 7.83073,-0.22526 15.7517,-0.62975 23.5296,-1.58727 3.16252,-0.38925 6.32909,-0.87615 9.44475,-1.54809 2.53744,-0.54713 5.09623,-1.22435 7.52265,-2.15337 2.96328,-1.13458 6.68931,-3.02071 8.09082,-6.07055 l 0,-2.82344 -79.903,0 -3.64434,-2.82438 0.90487,-1.16755 3.24493,2.51474 z m -36.1848,-29.7207 -15.8035,0.277089 0.181512,0.471455 -5.19917,1.23804 5.18e-4,9.96835 5.19917,1.23793 -0.181512,0.471455 15.800002,0.277089 0.12408,-0.0849 c 6.8305,-4.67578 6.67304,-9.0583 -0.009,-13.7777 l -0.11165,-0.07878 z m -15.9918,-0.212093 15.7517,-0.276259 -4.26155,-11.0205 c -1.922,-8.29e-4 -3.84389,-0.01037 -5.76465,-0.02063 -3.36591,-0.01804 -6.73212,-0.04271 -10.098,-0.03867 l 4.37257,11.3561 z m 40.6062,-31.7305 -0.0386,-0.253972 7.38281,-11.857 3.16335,-0.790941 0,-6.7542 15.5074,-7.43806 0,-3.28515 0.31834,-0.220178 c 12.554,-8.68729 27.2273,-13.3834 42.5182,-13.3834 36.0859,0 65.8559,25.882 75.0435,60.1426 l 0.18514,0.690078 -3.04984,0.927361 c 1.17408,14.0686 1.17387,28.2037 0,42.272305 l 3.04984,0.92725 -0.18514,0.69008 c -9.18767,34.2606 -38.9576,60.1426 -75.0435,60.1426 -15.291,0 -29.9642,-4.6961 -42.5182,-13.3833 l -0.31834,-0.22018 0,-3.28515 -15.5074,-7.43817 0,-6.7542 -3.16335,-0.79084 -7.38281,-11.8571 0.0386,-0.25366 -33.9876,0.55346 -9.21473,20.1236 3.23809,0 0.197684,0.14927 c 0.422112,0.31907 0.84412,0.63814 1.26602,0.95732 l 18.701796,0 0.0641,0.0114 c 1.98927,0.35276 3.70799,0.94436 5.36047,2.09864 3.43422,0.11009 6.78302,2.5505 6.78302,6.19681 0,3.64611 -3.3486,6.08631 -6.78261,6.1964 -0.88455,0.62695 -1.8882,1.2512 -2.99552,1.27079 -6.83309,0.12108 -13.6544,-0.38345 -20.478203,-0.64944 l -1.84757,1.56333 -22.1278,-0.25553 -1.81823,-1.21222 c -4.34717,-0.0189 -8.69434,4.1e-4 -13.0413,0.0193 -5.50953,0.0238 -11.02,0.0495 -16.5292,-0.005 -5.14226,-0.0509 -10.2944,-0.16628 -15.4283,-0.47022 -4.40636,-0.26071 -8.86953,-0.65255 -13.221,-1.40628 -3.31314,-0.57376 -6.8971499,-1.40535 -9.9482399,-2.84853 l -0.422734,-0.20006 0,-5.61558 0.244228,-0.22008 c 1.49491,-1.34688 5.06223,-2.05925 6.9944899,-2.40942 4.24911,-0.7701 8.6932,-1.16039 12.998,-1.47895 5.88303,-0.43538 11.7898,-0.69381 17.6851,-0.89657 6.83247,-0.235 13.6691,-0.38438 20.5047,-0.5037 l 17.0582,-21.165 7.50793,-19.9132 0.299169,-0.12159 c 0.889939,-0.36168 1.622,-0.50753 2.44839,-0.32395 l 4.27046,-11.090896 -4.69081,-1.11685 -5.18e-4,-12.3018 4.69081,-1.11685 -4.27046,-11.091 c -0.82629,0.183689 -1.55835,0.03784 -2.44839,-0.32384 l -0.299169,-0.121596 -7.50783,-19.9133 -17.0583,-21.165 c -6.83558,-0.119211 -13.6722,-0.268692 -20.5047,-0.503694 -5.89526,-0.202763 -11.802,-0.461089 -17.685,-0.896469 -4.30477,-0.318657 -8.74887,-0.708841 -12.9981,-1.47895 -1.9322602,-0.35017 -5.4994802,-1.06254 -6.9943902,-2.40942 l -0.244228,-0.220075 0,-5.61568 0.422734,-0.199964 c 3.05098,-1.44329 6.6349902,-2.27476 9.9481402,-2.84853 4.35142,-0.753727 8.81469,-1.14557 13.221,-1.40628 5.13397,-0.303937 10.2862,-0.419313 15.4283,-0.470315 5.50933,-0.05432 11.0197,-0.02871 16.5292,-0.0049 4.34696,0.01887 8.69424,0.03815 13.0413,0.01918 l 1.81834,-1.21212 22.1277,-0.2555275 1.84757,1.5633305 c 6.823871,-0.265997 13.645101,-0.770624 20.478201,-0.649443 1.10742,0.01949 2.11097,0.643741 2.99563,1.27069 3.43391,0.110193 6.78261,2.5504 6.78261,6.1964 0,3.64631 -3.34891,6.08683 -6.78313,6.19681 -1.65248,1.15428 -3.37119,1.74598 -5.36047,2.09874 l -0.064,0.0113 -18.701801,0 c -0.422008,0.319175 -0.844016,0.638247 -1.26613,0.957319 l -0.197684,0.149377 -3.23809,0 9.214735,20.1236 33.9881,0.553659 z m -13.8774,103.238003 0,9.35965 c 1.89784,-0.22267 3.74324,-1.29681 4.49562,-3.11266 0.2066,-0.49851 0.31347,-1.02729 0.31347,-1.56706 0,-0.54019 -0.10708,-1.06917 -0.31389,-1.56799 -0.75269,-1.81543 -2.59766,-2.88937 -4.4952,-3.11193 z m -1.47718,9.76123 0,-10.1594 c -1.41488,-0.95618 -2.88087,-1.44567 -4.57471,-1.75158 l -19.0668,0 -0.197684,-0.14938 c -0.421905,-0.31907 -0.843809,-0.63825 -1.26582,-0.95721 l -5.04399,0 9.879104,-21.574 -19.959404,0.32498 -0.274393,0.14937 -17.2308,21.3793 -0.345402,0.006 c -6.94214,0.12025 -13.8856,0.27046 -20.8249,0.50898 -5.87588,0.20214 -11.7632,0.45954 -17.6269,0.89347 -3.33356,0.24681 -15.825,1.16692 -18.8685,3.31895 l 0,3.99089 c 2.83184,1.26426 6.12332,2.01073 9.14579,2.53412 4.29648,0.74408 8.70564,1.12971 13.0562,1.38721 5.10971,0.30248 10.2378,0.41703 15.3556,0.46761 5.50238,0.0544 11.0058,0.0288 16.5083,0.005 4.42533,-0.0191 8.85087,-0.0388 13.2763,-0.0182 l 0.221733,9.3e-4 1.8229,1.21544 21.1391,0.24423 1.86478,-1.57805 0.286418,0.0109 c 6.890618,0.26175 13.782798,0.78203 20.682198,0.6596 0.67629,-0.0119 1.44121,-0.48876 2.04079,-0.90891 z m 1.47677,-147.769003 0,9.35975 c 1.89743,-0.222562 3.74241,-1.2965 4.4952,-3.11193 0.20681,-0.498822 0.31389,-1.02791 0.31389,-1.5681 0,-0.539768 -0.10698,-1.06844 -0.31358,-1.56696 -0.75238,-1.81585 -2.59777,-2.88999 -4.49551,-3.11276 z m -1.47718,9.75781 0,-10.1593 c -0.59969,-0.420142 -1.36461,-0.897091 -2.0409,-0.909012 -6.89943,-0.122321 -13.7916,0.397855 -20.6821,0.659705 l -0.286522,0.01089 -1.86478,-1.57805 -21.139,0.244228 -1.823,1.21533 -0.221733,0.001 c -4.42533,0.02052 -8.85087,8.29e-4 -13.2763,-0.01824 -5.50248,-0.02384 -11.0059,-0.04945 -16.5083,0.0049 -5.1178,0.05069 -10.2459,0.165237 -15.3556,0.467723 -4.35059,0.257497 -8.75965,0.643016 -13.0562,1.38721 -3.02237,0.52339 -6.31395,1.26986 -9.14569,2.53412 l 0,3.99078 c 3.04331,2.15202 15.5348,3.07223 18.8685,3.31905 5.86364,0.433929 11.7509,0.691322 17.6268,0.893463 6.93924,0.238526 13.8827,0.388733 20.8249,0.508981 l 0.345402,0.0059 17.2309,21.3792 0.274393,0.149481 19.9593,0.324981 -9.87899,-21.574 5.04388,0 c 0.422008,-0.318968 0.843913,-0.638144 1.26592,-0.957215 l 0.197684,-0.149481 19.066796,0 c 1.69384,-0.305907 3.15983,-0.795295 4.57471,-1.75158 z m -13.7605,82.405603 4.26144,-11.020503 -15.7516,-0.276259 -4.37267,11.356202 c 3.36591,0.004 6.73223,-0.0207 10.098,-0.0387 1.92086,-0.0104 3.84265,-0.0198 5.76475,-0.0207 z m 1.58323,0.002 c 2.67935,0.006 5.35839,0.0331 8.03536,0.10211 4.02509,0.10376 8.16774,0.27999 12.1746,0.80846 l 0,-1.0954 5.73158,-3.04487 0.21748,-4.817281 -2.80758,-3.23415 -5.2e-4,-14.3999 2.80769,-3.23415 -0.21758,-4.81738 -5.73158,-3.04487 0,-1.09529 c -4.00685,0.528469 -8.1495,0.704591 -12.1746,0.808357 -2.67686,0.06904 -5.35601,0.0961 -8.03536,0.102211 l 4.06521,10.5128 c 7.2948,5.24001 7.44117,10.754 -0.002,15.942 l -4.06303,10.507403 z m 119.978,-42.709398 25.4176,0 0,48.455498 -25.4176,0 0,3.13308 -0.0606,0.14026 c -1.53586,3.55592 -5.54457,5.68514 -8.97931,7.0003 -2.49753,0.95618 -5.12744,1.65455 -7.73941,2.21775 -3.159,0.68116 -6.369,1.17553 -9.57557,1.57017 -7.8242,0.96312 -15.7905,1.37114 -23.6675,1.59774 -9.31549,0.26807 -18.6486,0.2548 -27.9668,0.14668 l -0.0937,-0.001 -12.5238,-3.38446 -0.33452,2.20209 6.77825,10.8865 3.7026,0.9256 0,6.9777 15.5074,7.43806 0,3.43971 c 12.2366,8.3761 26.4979,12.9017 41.3594,12.9017 35.1736,0 64.2029,-25.0877 73.4288,-58.3587 l -2.82324,-0.85853 0.0511,-0.59585 c 1.23389,-14.379998 1.23399,-28.831698 0,-43.211798 l -0.0511,-0.595746 2.82324,-0.858529 c -9.22592,-33.2712 -38.2552,-58.3587997 -73.4288,-58.3587997 -14.8615,0 -29.1228,4.5256797 -41.3594,12.9017997 l 0,3.43961 -15.5074,7.43817 0,6.9777 -3.7026,0.925598 -6.77825,10.8865 0.33452,2.20209 12.5238,-3.38446 0.0937,-0.0011 c 9.31818,-0.108016 18.6513,-0.121388 27.9668,0.146785 7.87697,0.226605 15.8433,0.634515 23.6675,1.59764 3.20658,0.394641 6.41658,0.889006 9.57557,1.57027 2.61197,0.563196 5.24188,1.26157 7.73941,2.21775 3.43474,1.31506 7.44345,3.44428 8.97931,7.0003 l 0.0606,0.140151 0,3.13205 z m -18.4806,24.2283 c 0,3.21404 -2.60679,5.82093 -5.82083,5.82093 -3.21425,0 -5.82104,-2.60669 -5.82104,-5.82093 0,-3.21415 2.60689,-5.82083 5.82104,-5.82083 3.21404,0 5.82083,2.60669 5.82083,5.82083 z m -1.47718,0 c 0,-2.39874 -1.94501,-4.34365 -4.34365,-4.34365 -2.39884,0 -4.34385,1.9448 -4.34385,4.34365 0,2.39884 1.94501,4.34375 4.34385,4.34375 2.39874,0 4.34365,-1.94491 4.34365,-4.34375 z m -55.2723,-2.12746 4.91161,0 2.34245,-2.8392 18.2786,-1.14692 2.03292,-2.03292 0.21624,-0.04478 c 4.34862,-0.90072 8.74659,-1.71924 13.1267,-2.44249 2.12901,-0.351725 4.26694,-0.680541 6.40859,-0.944776 1.63942,-0.202245 3.38114,-0.400343 5.03352,-0.400343 6.61436,0 11.9787,5.36441 11.9787,11.9789 0,6.61436 -5.36441,11.9788 -11.9787,11.9788 -1.65237,0 -3.3941,-0.197995 -5.03352,-0.400343 -2.14166,-0.264235 -4.27958,-0.593154 -6.40859,-0.944672 -4.38014,-0.723354 -8.7781,-1.54187 -13.1267,-2.44249 l -0.21624,-0.04489 -2.03292,-2.03281 -18.2786,-1.14692 -2.34245,-2.8393 -4.91161,0 c -3.94807,4.08138 -9.99883,4.80049 -15.4109,4.79188 l -0.73735,-0.0012 0,-4.44855 0.27056,-0.221526 c 1.9163,-1.57007 1.80787,-2.91871 -0.0173,-4.51044 l -0.25325,-0.2208 0,-4.43477 0.73735,-0.0011 c 5.41209,-0.0087 11.4628,0.7105 15.4109,4.79178 z m -14.6711,5.28697 0,2.27901 c 4.87201,-0.05608 10.3648,-0.798198 13.8081,-4.54911 l 0.21956,-0.239252 6.25124,0 2.3779,2.88243 18.1967,1.14173 2.11522,2.11512 c 4.25854,0.879054 8.56373,1.6787 12.8517,2.38682 2.10911,0.348408 4.22703,0.674322 6.34857,0.936172 1.57753,0.194574 3.26287,0.389147 4.85273,0.389147 5.79896,0 10.5015,-4.70252 10.5015,-10.5016 0,-5.79917 -4.70232,-10.5017 -10.5015,-10.5017 -1.58986,0 -3.2752,0.194574 -4.85273,0.389251 -2.12155,0.261643 -4.23947,0.587764 -6.34857,0.936068 -4.28798,0.708115 -8.59317,1.50776 -12.8517,2.38682 l -2.11522,2.11522 -18.1967,1.14173 -2.3779,2.88232 -6.25124,0 -0.21956,-0.239148 c -3.44334,-3.75091 -8.93608,-4.49313 -13.8081,-4.54911 l 0,2.29176 c 2.18488,2.0551 2.26968,4.2829 0,6.30628 z"
   inkscape:connector-curvature="0"
   style="fill:#00285a" />
   <path
   id="_79046080"
   class="fil1"
   d="m 122.932,22.8726 c 1.89743,-0.222562 3.74241,-1.2965 4.4952,-3.11193 0.20681,-0.498822 0.31389,-1.02791 0.31389,-1.5681 0,-0.539768 -0.10698,-1.06844 -0.31358,-1.56696 -0.75238,-1.81585 -2.59777,-2.88999 -4.49551,-3.11276 l 0,9.35975 z"
   inkscape:connector-curvature="0"
   style="fill:#d1f3ff" />
   <path
   id="_79046008"
   class="fil3"
   d="m 200.937,87.4738 7.21032,0 c 0,-0.09319 -0.004,-0.185555 -0.0108,-0.276985 l -6.78789,0 c 0,-1.15791 0.54557,-2.18789 1.39415,-2.84739 -1.07954,0.622698 -1.80579,1.78848 -1.80579,3.12437 z m 59.6056,0.785344 11.1926,6.91664 -0.008,-0.536244 -10.7732,-6.65738 -0.68252,-22.9267 c -11.3881,-33.1877 -48.1698,-48.295 -81.4617,-29.4665 l -7.2e-4,0.05162 c 33.1833,-18.4738 69.7094,-3.35948 81.0508,29.6917 l 0.68251,22.9268 z m 11.1623,-23.8126 2.13793,-0.797161 c -0.0101,-0.03753 -0.0218,-0.07402 -0.032,-0.11154 l -2.10766,0.785862 0.002,0.12284 z m -103.529,-41.3096 c -0.13673,0.09029 -0.27522,0.175293 -0.41164,0.266826 l 0,2.76456 0.41164,-0.196025 0,-2.83536 z m -13.837,9.50363 -0.41164,0.196025 0,9.44278 14.1197,0.928086 10.3169,-4.78359 0.001,-0.08666 -9.90636,4.59327 -14.1197,-0.928086 0,-9.36182 z m -8.13954,43.1955 32.6286,0 c 11.5776,-1.56861 26.3516,-3.59925 29.9424,-3.47123 7.56287,0.219867 13.0706,5.68939 13.112,13.7882 l 28.5366,0 0,-0.276985 -28.125,0 c -0.0414,-8.0988 -5.54913,-13.5683 -13.112,-13.7882 -3.59075,-0.128023 -18.3648,1.90261 -29.9424,3.47123 l -32.6286,0 0,-5.60459 2.96826,-2.29622 -0.0535,0 -3.32641,2.5731 0,5.6047 z m 65.9562,12.4946 c 0.36344,-7.46761 -6.689,-10.7734 -11.6293,-7.65254 4.94945,-3.58183 12.4147,-0.301864 12.041,7.37555 l 2.82572,0 c -0.002,0.09205 -0.006,0.184415 -0.0105,0.276985 l -3.2269,0 z m -15.0394,-3.54421 c -0.0394,0.08853 -0.0794,0.176225 -0.11714,0.267033 l -34.5568,1.17097 0,-1.71353 0.41164,-0.02446 0,1.46101 34.2623,-1.16101 z m -15.8779,-1.64325 c 0.44119,-0.576672 0.97525,-1.02833 1.53316,-1.43624 l 0.0646,-0.01348 c -0.51105,0.403142 -0.98873,0.859255 -1.37539,1.43655 l -0.22235,0.01317 z m -31.1374,3.00983 c -0.0204,-0.09257 -0.054,-0.184829 -0.099,-0.276985 l -6.35386,0 c -0.1558,-0.634204 -0.67401,-0.973387 -1.35652,-1.17802 l 0.0308,-1.75614 c -0.13652,-0.0029 -0.27242,-0.0038 -0.40677,-0.0018 l -0.0357,2.03478 c 0.68251,0.204733 1.20072,0.543915 1.35652,1.17812 l 6.8645,0 z m -30.2948,-68.3044 c -36.4364,0.40366 -72.6576,-0.275119 -109.166,0.230026 0.0962,-0.292016 0.371628,-0.558946 0.811466,-0.803899 -0.202037,0.166378 -0.338664,0.341255 -0.399825,0.526914 36.3706,-0.503279 72.4565,0.168451 108.753999,-0.225569 l 0,0.272528 z m -45.7565,-3.58152 1.33092,-1.32957 0.13445,0 -1.33071,1.32915 -0.134657,4.15e-4 z m 14.6619,42.2683 132.885,1.34823 c -0.10294,-0.09609 -0.21137,-0.190945 -0.32467,-0.284552 l -132.149,-1.34066 -1.70296,-5.0669 -0.510121,-0.01586 1.80144,5.35974 z m 4.95857,26.74 c -0.138492,0.04198 -0.275948,0.08469 -0.411642,0.128748 l 0,2.67738 19.848502,0 c 0.0143,-0.09216 0.026,-0.184311 0.0343,-0.276985 l -19.4712,0 0,-2.52915 z m -4.17178,29.260496 -0.429161,3.14687 130.255001,0.66759 c 0.72978,-0.0104 1.64346,-0.28911 2.23029,-0.76907 -0.55387,0.30881 -1.24332,0.48389 -1.81865,0.49208 l -130.255001,-0.66758 0.391843,-2.8732 -0.374324,0.003 z m 29.6773,43.7705 c -36.4363,0.15373 -72.8727,-0.90797 -109.309,-1.04087 0.157463,-0.33648 0.492913,-0.64902 0.984789,-0.93876 -0.269521,0.20961 -0.464717,0.42989 -0.573147,0.66178 36.2992,0.13237 72.5985,1.18631 108.896998,1.04232 l 0,0.27553 z m -51.5245,-4.5745 1.24312,-1.37477 0.161194,0 -1.24985,1.38213 -0.154456,-0.007 z m 20.8883,-6.88171 -0.136005,0.27699 -13.4934,0 c -0.312852,-0.0913 -0.267241,-0.7161 -0.143468,-0.92819 l 8.96034,-13.03 0.221215,0 -8.76991,12.753 c -0.123772,0.21209 -0.169384,0.83686 0.143468,0.92819 l 13.2177,0 z"
   inkscape:connector-curvature="0"
   style="fill:#004496" />
   <path
   id="_79045936"
   class="fil4"
   d="m 201.348,87.1968 7.21032,0 c 0,-1.99104 -1.61412,-3.60505 -3.60505,-3.60505 -1.99114,0 -3.60526,1.61391 -3.60526,3.60505 z m 11.219,0.856767 c 0.46855,-9.62792 -11.3913,-12.3414 -15.1565,-3.27717 l -34.5568,1.17097 0,-1.71353 18.6067,-1.1039 c 0.47322,-0.706457 1.08213,-1.23192 1.72245,-1.70006 7.48119,-1.56063 15.0617,-2.97116 23.0188,-3.86566 5.50435,0.103662 9.88998,4.79323 9.59226,10.4894 l -3.2269,0 z m -62.0547,-2.17763 c -0.36178,-1.63485 -4.68304,-3.26629 -8.18536,-3.2129 l -0.0357,2.03489 c 0.68251,0.204629 1.20072,0.543811 1.35652,1.17802 l 6.8645,0 z m -3.90153,-10.317 32.6286,0 c 11.5776,-1.56861 26.3516,-3.59925 29.9424,-3.47123 7.56287,0.219867 13.0706,5.68939 13.112,13.7882 l 28.5366,0 0,-18.4948 -100.893,0 -3.32641,2.5732 0,5.60459 z m 114.343,12.4232 11.1926,6.91664 -0.44367,-30.5751 2.55133,-0.951307 c -12.8221,-47.4659 -67.2832,-66.2519 -106.078,-40.2456 l 0,2.84552 -13.837,6.58731 0,9.44278 14.1197,0.928086 10.3169,-4.78359 0.0341,-2.55786 c 33.2919,-18.8286 70.0736,-3.72126 81.4617,29.4665 l 0.68251,22.9267 z m -134.825,-70.5779 -2.83474,0 0,-2.87165 c 1.91464,0.433411 2.82956,1.40669 2.83474,2.87165 z m -5.91143,0.167414 c -36.4364,0.403556 -72.6576,-0.275223 -109.166,0.229922 1.22435,-3.71494 31.3208,-3.45143 63.1322,-3.53498 l 1.6079,-1.60614 19.8571,0 1.65051,1.86115 20.4366,-0.934099 2.48146,1.65953 0,2.32462 z m -31.0947,38.6867 132.885,1.34823 c -6.59643,-6.15328 -34.6802,-7.29076 -68.7658,-7.25779 l -9.26345,2.40506 c -17.8274,0.200793 -37.2024,-1.26748 -56.6575,-1.85524 l 1.80144,5.35974 z m 22.4574,24.9607 c -6.67283,0.109052 -13.1511,0.363854 -17.9105,1.90811 l 0,2.67738 19.8485,0 c 0.22858,-1.46153 -0.30093,-2.98111 -1.93796,-4.58549 z m -21.6707,31.039799 -0.429161,3.14687 130.255001,0.66759 c 1.17345,-0.0167 2.82324,-0.72616 2.82324,-1.85265 -26.7193,-0.38801 -53.4383,-0.24568 -80.1571,-0.0585 l -2.72704,-1.71861 c -16.589,-0.201 -33.1779,-0.33089 -49.765001,-0.18473 z m 5.75926,18.633 -6.85413,13.9582 -13.4934,0 c -0.312852,-0.0913 -0.267241,-0.7161 -0.143468,-0.92819 l 8.96034,-13.03 11.5306,0 z m 30.4601,25.1559 -2.83474,0 0,-2.87165 c 1.91464,0.43341 2.82956,1.4068 2.83474,2.87165 z m -6.54201,-0.0185 c -36.4363,0.15373 -72.8727,-0.90798 -109.309,-1.04087 1.89961,-4.06158 29.1575,-4.64271 57.5275,-3.24929 l 1.5003,-1.65911 25.7847,0 1.57867,2.09377 20.4367,-0.59409 2.48136,1.65953 0,2.79006 z"
   inkscape:connector-curvature="0"
   style="fill:#48c8f5" />
  </g>
 </g>
<text
   xml:space="preserve"
   style="font-size:1.19191873px;font-style:normal;font-variant:normal;font-weight:normal;font-stretch:normal;text-align:start;line-height:125%;letter-spacing:0px;word-spacing:0px;writing-mode:lr-tb;text-anchor:start;fill:#000000;fill-opacity:1;stroke:none;font-family:Bitstream Charter;-inkscape-font-specification:Bitstream Charter"
   x="-5.4078922"
   y="56.159447"
   id="text2996"
   sodipodi:linespacing="125%"><tspan
     sodipodi:role="line"
     id="tspan2998"
     x="-5.4078922"
     y="56.159447" /></text>
<text
   xml:space="preserve"
   style="font-size:5.85115433px;font-style:normal;font-variant:normal;font-weight:normal;font-stretch:normal;text-align:start;line-height:125%;letter-spacing:0px;word-spacing:0px;writing-mode:lr-tb;text-anchor:start;fill:#000000;fill-opacity:1;stroke:none;font-family:Bitstream Charter;-inkscape-font-specification:Bitstream Charter"
   x="81.746254"
   y="73.963745"
   id="text3000"
   sodipodi:linespacing="125%"><tspan
     sodipodi:role="line"
     id="tspan3002"
     x="81.746254"
     y="73.963745" /></text>
<g
   style="fill-rule:evenodd"
   id="图层_x0020_1-8"
   transform="matrix(-0.2037066,0,0,0.2037066,88.862262,-6.111198e-7)"><metadata
     id="CorelCorpID_0Corel-Layer-9" /><g
     id="_79272864-3"><path
       id="_79271784-4"
       class="fil0"
       d="m 282.83,69.6527 4.40491,-0.689767 -1.55047,-5.69333 C 275.84069,26.936303 243.92834,3e-6 205.76454,3e-6 c -16.2741,0 -31.9491,4.93877 -45.3668,14.129 l -1.50652,1.03164 0,2.4203 -15.2573,7.0174 0,5.56385 c -3.21487,3.41369 -6.21236,7.80461 -9.04607,12.9319 -9.31072,1.78195 -19.0281,1.25804 -28.9114,-0.2038 -1.52197,-4.10025 -3.25229,-7.94041 -5.15563,-11.5652 0.29938,-0.136627 0.49115,-0.380854 0.57512,-0.732476 6.37408,0.353384 12.2237,0.379403 17.8353,0.256045 l 9.52395,-3.496 0,-1.86913 c 4.47416,-4.78504 4.47416,-9.5226 0,-14.2127 l 0,-1.8032 -8.07507,-2.944 c -6.57342,-0.348823 -13.2766,0.237801 -19.3624,0.751135 -0.26123,-0.695261 -0.63887,-1.29349 -1.187453,-1.75064 -8.86549,-0.105113 -17.4079,0.135175 -26.2739,0.791252 -0.889006,0.16814 -1.58116,0.500066 -2.18385,0.906006 -29.6042,2.06806 -56.4801,-1.6023 -71.3718,5.94792 l 0,10.7812 c 9.80633,9.31766 53.4413,6.35044 61.8288,7.39214 l 13.0016,16.4732 8.36262,20.0476 3.10354,1.23741 3.29707,8.30945 -4.0169,1.64481 -3.11e-4,16.2832 4.01701,1.64481 -3.29707,8.309455 -3.10354,1.2374 -8.36262,20.04761 -13.0017,16.47319 c -8.3874,1.04149 -52.0225,-1.92552 -61.828699986,7.39183 l 0,10.7815 C 14.892216,168.77433 41.768116,165.10377 71.372316,167.17182 c 0.602691,0.40615 1.29474,0.73787 2.18374,0.90601 8.86611,0.65628 17.4084,0.89637 26.274,0.79125 0.548474,-0.45715 0.926224,-1.05518 1.187454,-1.75075 6.08569,0.51334 12.7889,1.10027 19.3624,0.75114 l 8.07496,-2.944 0,-1.80289 c 4.47416,-4.69029 4.47416,-9.42765 0,-14.213 l 0,-1.86882 -9.52385,-3.49631 c -5.61154,-0.12305 -11.4612,-0.0972 -17.8353,0.25635 -0.084,-0.35183 -0.27574,-0.59585 -0.57512,-0.73268 1.90334,-3.62485 3.63356,-7.4647 5.15563,-11.5652 9.88335,-1.46163 19.6007,-1.98585 28.9114,-0.2039 2.83371,5.12733 5.8312,9.51856 9.04596,12.9323 l 0,5.56365 15.2574,7.01761 0,2.42009 1.50652,1.03154 c 13.4177,9.19037 29.0926,14.1293 45.3668,14.1293 38.1638,0 70.0762,-26.9365 79.9198,-63.2698 l 1.55058,-5.69333 -4.40491,-0.68987 c 1.10856,-11.603503 1.18019,-23.293903 2.1e-4,-35.088003 z m -74.6934,17.5441 0.42222,0 c 0,-1.99104 -1.61402,-3.60505 -3.60505,-3.60505 -0.83438,0 -1.60251,0.282894 -2.21329,0.758703 -1.07809,0.623216 -1.80341,1.78838 -1.80341,3.12334 l 7.21011,0 c 0,-0.09309 -0.004,-0.185451 -0.0106,-0.276985 z m -6.5702,-1.23638 c -0.0177,0.048 -0.034,0.09672 -0.0495,0.145749 0.0155,-0.04924 0.0318,-0.09755 0.0495,-0.145749 z m 9.96161,-2.82417 c -0.0271,-0.04976 -0.0551,-0.09848 -0.0834,-0.1472 0.0281,0.04872 0.0561,0.09744 0.0834,0.1472 z m -2.78602,-2.88056 c -0.0494,-0.02903 -0.0992,-0.05681 -0.14917,-0.08469 0.05,0.02757 0.0997,0.05567 0.14917,0.08469 z m -0.2491,-0.139322 c -0.0471,-0.02509 -0.0938,-0.05017 -0.14129,-0.07433 0.0475,0.02415 0.0942,0.04924 0.14129,0.07433 z m -4.02883,-0.871279 c -0.0783,0.0054 -0.15674,0.0113 -0.23511,0.01897 0.0786,-0.0077 0.15664,-0.01358 0.23511,-0.01897 z m -0.72895,0.08397 c -0.06,0.0098 -0.11994,0.02094 -0.17975,0.03245 0.0598,-0.01151 0.11973,-0.0226 0.17975,-0.03245 z m -0.28455,0.05339 c -0.0591,0.01213 -0.11849,0.02467 -0.17758,0.03846 0.0591,-0.01379 0.11818,-0.02633 0.17758,-0.03846 z m -0.29824,0.06821 c -0.0534,0.01327 -0.10677,0.02612 -0.16026,0.04064 m -0.26196,0.07702 c -0.0588,0.01856 -0.11744,0.03846 -0.1757,0.05836 0.0586,-0.0199 0.11714,-0.04012 0.1757,-0.05836 z m -0.27719,0.09309 c -0.0616,0.02198 -0.12284,0.04478 -0.18389,0.06842 0.0613,-0.02363 0.12232,-0.04644 0.18389,-0.06842 z m -0.2775,0.105424 c -0.0611,0.02457 -0.12211,0.04945 -0.18317,0.07578 0.0608,-0.02633 0.12191,-0.05121 0.18317,-0.07578 z m -0.27294,0.116205 c -0.11704,0.05245 -0.23366,0.108016 -0.34914,0.166896 0.11548,-0.05888 0.2321,-0.114443 0.34914,-0.166896 z m -0.42471,0.205044 c -0.0557,0.02902 -0.11081,0.05981 -0.16575,0.0906 0.0552,-0.03079 0.11009,-0.06158 0.16575,-0.0906 z m -0.27159,0.149895 c -0.0559,0.03234 -0.11123,0.06551 -0.16669,0.09931 0.0555,-0.034 0.11102,-0.06697 0.16669,-0.09931 z m -0.26247,0.15881 c -0.0571,0.03597 -0.11393,0.07267 -0.17063,0.110296 0.0564,-0.03763 0.11351,-0.07412 0.17063,-0.110296 z m -0.23459,0.154145 c -1.3334,0.90922 -2.49888,2.3015 -3.29811,4.22547 l -0.2944,0.01016 c -0.0394,0.08832 -0.0793,0.176018 -0.11724,0.266826 l -34.5567,1.17097 0,-1.71353 0.41164,-0.02446 0,-0.252521 18.3845,-1.09073 c 0.44119,-0.576776 0.97525,-1.02833 1.53316,-1.43624 l 0.0634,-0.01337 c 0.11476,-0.09029 0.23075,-0.177677 0.3482,-0.263613 7.48119,-1.56063 15.0616,-2.97116 23.0187,-3.86576 5.50445,0.103558 9.88998,4.79313 9.59237,10.4895 l -0.40138,0 c -0.002,0.09205 -0.006,0.184415 -0.0103,0.276985 l -3.2269,0 c 0.36334,-7.46771 -6.689,-10.7734 -11.6294,-7.65254 0.0601,-0.04364 0.12139,-0.08573 0.18245,-0.12709 z m -50.1962,5.32502 c -0.36168,-1.63496 -4.68293,-3.26629 -8.18536,-3.2129 l -0.0357,2.03489 0.0307,-1.75614 c -0.13632,-0.003 -0.27222,-0.0039 -0.40667,-0.0018 l -0.0357,2.03478 c 0.68261,0.204629 1.20061,0.543915 1.35652,1.17812 l 6.8645,0 c -0.0204,-0.09257 -0.0539,-0.184933 -0.099,-0.276985 l 0.51064,0 z m 99.9064,0 0.41164,0 0,-18.4949 -100.893,0 -0.35805,0.276985 -0.0536,0 -3.32641,2.57331 0,5.60459 32.6286,0 c 11.5777,-1.56872 26.3517,-3.59935 29.9425,-3.47133 7.56277,0.219867 13.0706,5.68939 13.112,13.7883 l 28.5365,0 0,-0.276985 z m 10.5351,2.10621 11.1926,6.91664 -0.44222,-30.4524 2.13803,-0.797161 c -0.0101,-0.03742 -0.0217,-0.07391 -0.032,-0.11154 l -2.10766,0.785862 2.55133,-0.951307 c -12.822,-47.4658 -67.2831,-66.2518002 -106.078,-40.2456 l 0,0.01037 c -0.13663,0.09008 -0.27523,0.175293 -0.41164,0.266619 l 0,2.76456 -13.4254,6.39128 0,0.08096 -0.41165,0.196025 0,9.44289 14.1197,0.92819 10.3169,-4.78369 0.001,-0.08666 -9.90646,4.59337 10.3169,-4.78359 0.0335,-2.50634 c 33.1833,-18.4739 69.7093,-3.35958 81.0507,29.6916 l 0.68272,22.9269 11.1926,6.91664 -0.008,-0.536244 -10.7731,-6.65738 z m -140.736,-70.4105 -0.41164,0.0045 0,0.272528 c -36.436201,0.4035 -72.657501,-0.275279 -109.166001,0.229866 0.0962,-0.292016 0.371732,-0.558842 0.811466,-0.803795 l -0.0037,0.0032 c 3.82471,-3.16511 32.5042,-2.93198 62.7361,-3.01128 l -0.134657,2.07e-4 1.33092,-1.32947 0.13445,0 0.277192,-0.276881 19.857,0 1.65051,1.86094 20.4367,-0.934099 2.48136,1.65963 0,2.32462 z m -72.099599,0.0369 c -1.57805,-0.0015 -3.1562,-0.0027 -4.73487,-0.0024 1.57867,-3.11e-4 3.15703,9.33e-4 4.73487,0.0024 z m -37.0659,0.193019 c 0.01741,-0.05318 0.04178,-0.105113 0.07215,-0.15653 -0.03006,0.05142 -0.05442,0.103351 -0.07215,0.15653 z m 0.08936,-0.185348 c 0.02633,-0.04188 0.05608,-0.08345 0.09008,-0.124083 -0.034,0.04064 -0.06396,0.08252 -0.09008,0.124083 z m 0.14917,-0.190324 c 0.02861,-0.03027 0.05857,-0.06033 0.09133,-0.09008 -0.03276,0.02954 -0.06272,0.05981 -0.09133,0.09008 z m 209.981999,40.1733 0.7361,0.0074 c -6.59664,-6.15317 -34.6803,-7.29086 -68.7659,-7.2579 l -9.26345,2.40506 c -17.8274,0.200897 -37.2023,-1.26737 -56.657395,-1.85503 l 0.09848,0.292742 -0.510121,-0.01576 1.80144,5.35964 132.884996,1.34823 c -0.10294,-0.09599 -0.21126,-0.191049 -0.32446,-0.284345 z m -109.692,23.6196 c -6.67293,0.109156 -13.151199,0.363957 -17.910599,1.90831 l 0,0.148237 c -0.138389,0.04188 -0.276052,0.08469 -0.411642,0.128748 l 0,2.67738 19.848401,0 c 0.0145,-0.09236 0.0261,-0.184415 0.0345,-0.276985 l 0.37712,0 c 0.22878,-1.46163 -0.30083,-2.98122 -1.93775,-4.5857 z m -21.670599,31.040101 -0.429161,3.14687 0.391739,-2.87341 -0.37422,0.004 -0.429161,3.14687 130.254992,0.66738 c 0.72947,-0.0103 1.64211,-0.28849 2.22873,-0.76762 0.57688,-0.32104 1.00625,-0.7871 1.00625,-1.36191 -26.7193,-0.388 -53.4384,-0.24578 -80.1572,-0.0584 l -2.72693,-1.71872 c -16.5889,-0.2009 -33.178,-0.33089 -49.764992,-0.18462 z m 5.75926,18.6329 -6.85413,13.9581 -0.275741,0 -0.135901,0.27698 -13.4933,0 c -0.312956,-0.0913 -0.267448,-0.71589 -0.143572,-0.92808 l 8.96034,-13.03 0.221111,0 -8.76981,12.753 8.96034,-13.03 11.5306,0 z m 23.917999,25.1374 -0.6029,0.002 0.19126,-4.2e-4 0,0.27543 c -36.436401,0.15363 -72.872701,-0.90797 -109.3090013,-1.04087 0.1573593,-0.33659 0.4926023,-0.64871 0.9845823,-0.93855 l -0.01182,0.009 0.01202,-0.01 c 4.43798,-3.45288 30.1045,-3.89956 56.7998,-2.59497 l 1.24322,-1.37477 0.161091,0 -1.24975,1.38223 1.5003,-1.65911 25.7846,0 1.57877,2.09387 20.436708,-0.59409 2.48136,1.65942 0,2.79006 z m -15.3708,-0.002 c -1.13862,-0.005 -2.27756,-0.0101 -3.41598,-0.0163 1.13842,0.006 2.27756,0.0118 3.41598,0.0163 z m -93.938299,-1.03869 c 0.02861,-0.0616 0.06354,-0.12211 0.104388,-0.18192 -0.04064,0.0598 -0.07578,0.12087 -0.104388,0.18192 z m 0.115687,-0.19799 c 0.03524,-0.0502 0.07412,-0.0996 0.117242,-0.14865 -0.04333,0.0492 -0.0822,0.0985 -0.117242,0.14865 z m 0.165756,-0.20204 c 0.03421,-0.0363 0.07059,-0.0721 0.10926,-0.10791 -0.03867,0.0358 -0.07484,0.0714 -0.10926,0.10791 z m 137.820996,-44.6415 104.815,0 -2.1e-4,-45.501199 -104.815,-2.08e-4 -3.24493,2.51484 -0.90497,-1.16765 3.64445,-2.82438 79.9029,2.08e-4 0,-2.82241 c -1.40141,-3.04984 -5.12764,-4.93597 -8.09082,-6.07045 -2.42631,-0.929227 -4.98532,-1.60624 -7.52255,-2.15348 -3.11567,-0.671937 -6.28223,-1.15894 -9.44486,-1.54809 -7.77787,-0.957526 -15.6988,-1.36202 -23.5296,-1.58727 -9.26417,-0.266619 -18.5463,-0.254076 -27.8131,-0.1472 l -13.9405,3.76729 -0.40148,-2.64266 -55.248997,-0.89989 6.93592,18.3957 c 0.551171,0.198409 0.979814,0.25335 1.55078,0.0566 0.388214,-0.149688 0.532719,-0.133724 0.989973,-0.134968 3.5583,-0.0079 7.1163,0.01856 10.674394,0.03773 5.25701,0.02809 10.0567,0.0537 15.3373,-0.08252 4.24911,-0.109571 8.6366,-0.298858 12.8451,-0.910671 l 0.84475,-0.12284 0,1.90904 5.69208,3.02403 0.28216,6.24916 -2.83277,3.26287 7.3e-4,13.2966 2.83277,3.26287 -0.28238,6.249268 -5.69188,3.02403 0,1.90904 -0.84494,-0.12284 c -4.20826,-0.61181 -8.59597,-0.8012 -12.8449,-0.91078 -5.11126,-0.13165 -10.225,-0.10977 -15.3373,-0.0824 -3.558102,0.0192 -7.116402,0.0455 -10.674402,0.0376 -0.37619,-9.3e-4 -0.638869,5.2e-4 -0.99018,-0.13486 -0.570971,-0.19675 -0.999613,-0.14181 -1.55089,0.0566 l -6.93561,18.3957 55.248402,-0.89989 0.40127,-2.64266 13.9405,3.76729 c 9.26708,0.10687 18.549,0.11942 27.8134,-0.1472 7.83063,-0.22526 15.7516,-0.62985 23.5296,-1.58727 3.16242,-0.38925 6.32898,-0.87626 9.44465,-1.54809 2.53754,-0.54734 5.09623,-1.22435 7.52275,-2.15348 2.96328,-1.13448 6.68921,-3.02061 8.09082,-6.07045 l 0,-2.82344 -79.9031,0 -3.64424,-2.82438 0.90476,-1.16775 3.24493,2.51494 z m -36.1849,-29.720899 -15.803396,0.277192 0.181409,0.471455 -5.19917,1.23793 7.25e-4,9.96856 5.19917,1.23783 -0.181616,0.471455 15.799998,0.277296 0.12408,-0.085 c 6.8305,-4.67578 6.67293,-9.05861 -0.009,-13.7779 l -0.11175,-0.07878 z m -15.991696,-0.211989 15.751696,-0.276259 -4.26165,-11.0205 c -1.922,-9.33e-4 -3.84389,-0.01026 -5.76465,-0.02063 -3.365796,-0.01804 -6.732016,-0.04281 -10.097996,-0.03867 l 4.37267,11.3561 z m 40.606096,-31.7306 -0.0385,-0.253868 7.38281,-11.8571 3.16335,-0.790734 0,-6.7542 15.5074,-7.43817 0,-3.28526 0.31835,-0.220075 c 12.5539,-8.6872904 27.2273,-13.3833004 42.518,-13.3833004 36.0859,0 65.8561,25.8820004 75.0438,60.1425004 l 0.18514,0.690078 -3.04994,0.927257 c 1.17418,14.0687 1.17418,28.2039 3.1e-4,42.2726 l 3.04963,0.92715 -0.18514,0.69008 c -9.18767,34.2606 -38.9575,60.1426 -75.0434,60.1426 -15.2911,0 -29.9642,-4.69599 -42.5183,-13.3833 l -0.31835,-0.22018 0,-3.28526 -15.5074,-7.43806 0,-6.7542 -3.16335,-0.79073 -7.38281,-11.8572 0.0387,-0.25356 -33.9876,0.55345 -9.214828,20.1234 3.23819,0 0.197684,0.14948 c 0.422008,0.31908 0.844016,0.63815 1.26592,0.95722 l 18.701894,0 0.0641,0.0113 c 1.98927,0.35286 3.70799,0.94446 5.36047,2.09885 3.43422,0.11009 6.78292,2.5504 6.78292,6.19681 0,3.6459 -3.34849,6.08621 -6.7824,6.1963 -0.88466,0.62705 -1.88841,1.2512 -2.99573,1.2709 -6.83299,0.12108 -13.6544,-0.38365 -20.478201,-0.64955 l -1.84746,1.56343 -22.1277,-0.25563 -1.81844,-1.21222 c -4.34717,-0.019 -8.69424,5.2e-4 -13.0413,0.0192 -5.50943,0.024 -11.0198,0.0496 -16.5292,-0.005 -5.14205,-0.051 -10.2943,-0.16628 -15.4282,-0.47032 -4.40647,-0.26071 -8.86953,-0.65234 -13.2211,-1.40628 -3.31304,-0.57356 -6.8971499,-1.40524 -9.9480299,-2.84843 l -0.422734,-0.19996 0,-5.61579 0.244228,-0.22008 c 1.49491,-1.34667 5.06202,-2.05914 6.9943899,-2.40931 4.24921,-0.7701 8.69331,-1.16029 12.9981,-1.47884 5.88282,-0.43558 11.7896,-0.69381 17.6848,-0.89667 6.83247,-0.2349 13.6691,-0.38428 20.5048,-0.5037 l 17.0583,-21.1649 7.50772,-19.9132 0.299169,-0.12159 c 0.889939,-0.36168 1.62221,-0.50774 2.44839,-0.32405 l 4.27057,-11.090902 -4.69081,-1.11675 -7.26e-4,-12.302 4.69081,-1.11675 -4.27036,-11.091 c -0.826394,0.183689 -1.55835,0.03773 -2.44839,-0.323944 l -0.299169,-0.121596 -7.50803,-19.9132 -17.0582,-21.1649 c -6.83548,-0.119419 -13.6721,-0.268899 -20.5046,-0.503694 -5.89526,-0.202867 -11.802,-0.461192 -17.6852,-0.896677 -4.30467,-0.318553 -8.74887,-0.708841 -12.998,-1.47895 -1.9321595,-0.350067 -5.4994795,-1.06254 -6.9943895,-2.40921 l -0.244228,-0.220178 0,-5.61568 0.42263,-0.199964 c 3.05119,-1.44318 6.6350995,-2.27486 9.9483395,-2.84853 4.35132,-0.75383 8.81469,-1.14557 13.2208,-1.40628 5.13397,-0.304041 10.2861,-0.419209 15.4284,-0.470211 5.50912,-0.05442 11.0196,-0.02882 16.5292,-0.005 4.34686,0.01876 8.69424,0.03825 13.0413,0.01928 l 1.81813,-1.21233 22.1278,-0.2555275 1.84767,1.5633305 c 6.823871,-0.265893 13.645001,-0.770624 20.478201,-0.649443 1.10742,0.0197 2.11087,0.643845 2.99542,1.2709 3.43401,0.109985 6.78281,2.55029 6.78281,6.1963 0,3.64642 -3.34901,6.08672 -6.78323,6.19681 -1.65248,1.15438 -3.37119,1.74598 -5.36047,2.09874 l -0.0641,0.0114 -18.701594,0 c -0.422008,0.319072 -0.844016,0.638144 -1.26623,0.957215 l -0.197684,0.149377 -3.23799,0 9.214618,20.1235 33.9881,0.553659 z m -15.3543,112.998998 0,-10.1593 c -1.41499,-0.95618 -2.88108,-1.44567 -4.57492,-1.75168 l -19.066796,0 -0.197684,-0.14948 c -0.421905,-0.31907 -0.843705,-0.63814 -1.26571,-0.95721 l -5.04409,0 9.8792,-21.574 -19.9595,0.32498 -0.274186,0.14948 -17.2309,21.3793 -0.345402,0.006 c -6.94225,0.12014 -13.8857,0.27035 -20.8249,0.50887 -5.87598,0.20214 -11.7633,0.45974 -17.627,0.89347 -3.33346,0.24692 -15.8250003,1.16703 -18.8683003,3.31905 l 0,3.99078 c 2.83174,1.26426 6.1231103,2.01073 9.1456903,2.53412 4.29638,0.74429 8.70554,1.12981 13.0561,1.38731 5.10981,0.30238 10.2379,0.41713 15.3556,0.46762 5.50248,0.0543 11.0058,0.0287 16.5083,0.005 4.42533,-0.019 8.85098,-0.0387 13.2764,-0.0182 l 0.221629,0.001 1.8231,1.21544 21.139,0.24423 1.86467,-1.57815 0.286626,0.0109 c 6.890513,0.26196 13.782593,0.78213 20.681993,0.65981 0.67629,-0.012 1.44121,-0.48897 2.041,-0.90901 z m -8.3e-4,-138.010998 0,-10.1594 c -0.59948,-0.420039 -1.3644,-0.896884 -2.04069,-0.908909 -6.89943,-0.122425 -13.7917,0.397855 -20.682296,0.659809 l -0.286315,0.01078 -1.86488,-1.57815 -21.1391,0.244228 -1.82279,1.21554 -0.221837,9.33e-4 c -4.42544,0.02042 -8.85077,7.26e-4 -13.2762,-0.01814 -5.50248,-0.02395 -11.006,-0.04955 -16.5083,0.0049 -5.1179,0.05048 -10.246,0.165237 -15.3556,0.467516 -4.35059,0.257497 -8.75965,0.643119 -13.0563,1.38731 -3.02227,0.523493 -6.3139496,1.26996 -9.1456896,2.53412 l 0,3.99089 c 3.04341,2.15202 15.5347996,3.07202 18.8685996,3.31895 5.86364,0.433826 11.7509,0.691322 17.6267,0.893463 6.93934,0.23863 13.8828,0.388733 20.8249,0.508877 l 0.345402,0.0059 17.2309,21.3794 0.274497,0.149377 19.959199,0.324981 -9.878889,-21.574 5.04378,0 c 0.422008,-0.319072 0.844016,-0.638144 1.26602,-0.957215 l 0.197684,-0.149377 19.066795,0 c 1.69384,-0.30601 3.15962,-0.795503 4.5745,-1.75168 z m -13.7602,82.405598 4.26144,-11.020498 -15.751696,-0.276259 -4.37247,11.356197 c 3.3657,0.004 6.73202,-0.0207 10.097996,-0.0387 1.92075,-0.0104 3.84265,-0.0197 5.76465,-0.0207 z m 121.561,-42.707798 25.4176,0 2.1e-4,48.455598 -25.4176,0 0,3.13308 -0.0605,0.14015 c -1.53606,3.55602 -5.54468,5.68514 -8.97931,7.0003 -2.49774,0.95628 -5.12764,1.65445 -7.73951,2.21775 -3.159,0.68127 -6.3691,1.17563 -9.57557,1.57027 -7.8242,0.96313 -15.7906,1.37114 -23.6675,1.59764 -9.31559,0.26807 -18.6487,0.2548 -27.9668,0.14668 l -0.0938,-9.3e-4 -12.5238,-3.38457 -0.33452,2.20199 6.77825,10.8867 3.7026,0.92539 0,6.9777 15.5074,7.43817 0,3.43961 c 12.2366,8.3761 26.498,12.9018 41.3595,12.9018 35.1735,0 64.2029,-25.0876 73.4288,-58.3586 l -2.82334,-0.85853 0.0512,-0.59585 c 1.23389,-14.380095 1.23389,-28.831795 -2.1e-4,-43.211995 l -0.051,-0.595746 2.82313,-0.858529 C 269.86577,30.86609 240.8367,5.7785896 205.6629,5.7785896 c -14.8614,0 -29.1226,4.5255704 -41.3592,12.9018004 l 0,3.43961 -15.5074,7.43806 0,6.9777 -3.7026,0.925495 -6.77825,10.8866 0.33452,2.20199 12.5238,-3.38446 0.0936,-9.33e-4 c 9.31828,-0.10812 18.6514,-0.121388 27.9668,0.146682 7.87707,0.226502 15.8433,0.634412 23.6674,1.59754 3.20679,0.394745 6.41668,0.889109 9.57568,1.57027 2.61208,0.5633 5.24198,1.26157 7.73941,2.21775 3.43474,1.31516 7.44356,3.44428 8.97931,7.0004 l 0.0607,0.140047 0,3.13215 z m -18.4807,24.2283 c 3.1e-4,3.21404 -2.60648,5.82104 -5.82052,5.82104 -3.21435,0 -5.82114,-2.60669 -5.82114,-5.82104 0,-3.21415 2.60679,-5.82083 5.82083,-5.82083 3.21415,0 5.82083,2.60669 5.82083,5.82083 z m -1.47718,0 c 0,-2.39874 -1.94491,-4.34365 -4.34365,-4.34365 -2.39864,0 -4.34365,1.9447 -4.34365,4.34365 0,2.39895 1.94501,4.34385 4.34396,4.34385 2.39864,0 4.34365,-1.94491 4.34334,-4.34385 z m -55.2723,-2.12746 4.91171,0 2.34255,-2.8393 18.2786,-1.14681 2.03292,-2.03292 0.21614,-0.04478 c 4.34862,-0.900823 8.74669,-1.71913 13.1267,-2.44249 2.12911,-0.351829 4.26683,-0.680541 6.40849,-0.94488 1.63952,-0.202141 3.38135,-0.400343 5.03352,-0.400343 6.61457,0 11.9788,5.36441 11.9788,11.979 2e-4,6.61436 -5.3642,11.9787 -11.9785,11.9787 -1.65248,0 -3.3941,-0.197891 -5.03352,-0.400239 -2.14166,-0.264235 -4.27969,-0.593154 -6.40849,-0.944672 -4.38034,-0.723354 -8.77821,-1.54166 -13.1268,-2.44259 l -0.21635,-0.04478 -2.03292,-2.03281 -18.2786,-1.14681 -2.34235,-2.83941 -4.91161,0 c -3.94807,4.08149 -9.99883,4.80059 -15.411,4.79199 l -0.73734,-0.0012 0,-4.44855 0.27055,-0.221526 c 1.91619,-1.56996 1.80787,-2.91892 -0.0174,-4.51054 l -0.25314,-0.220904 0,-4.43477 0.73734,-0.0012 c 5.41199,-0.0086 11.4627,0.710603 15.4107,4.79199 z m -14.6709,5.28718 0,2.2788 c 4.87201,-0.05598 10.365,-0.798198 13.808,-4.549 l 0.21966,-0.239356 6.25113,0 2.37801,2.88253 18.1967,1.14163 2.11533,2.11533 c 4.25844,0.878847 8.56373,1.6785 12.8517,2.38661 2.109,0.348304 4.22703,0.674322 6.34847,0.936276 1.57763,0.19447 3.26287,0.38894 4.85283,0.38894 5.79885,0 10.5015,-4.70232 10.5013,-10.5015 0,-5.79917 -4.70242,-10.5018 -10.5016,-10.5018 -1.58966,0 -3.2751,0.194677 -4.85252,0.389251 -2.12175,0.261643 -4.23947,0.587867 -6.34868,0.935965 -4.28798,0.708323 -8.59307,1.50797 -12.8517,2.38692 l -2.11512,2.11533 -18.1967,1.14163 -2.37801,2.88243 -6.25113,0 -0.21966,-0.239252 c -3.44334,-3.7508 -8.93598,-4.49313 -13.808,-4.549 l 0,2.29166 c 2.18478,2.0552 2.26968,4.283 0,6.30659 z"
       inkscape:connector-curvature="0"
       style="fill:#005fbe" /><path
       id="_79046224-3"
       class="fil1"
       d="m 127.741,156.201 c 0,-0.54018 -0.10708,-1.06917 -0.31389,-1.56799 -0.75269,-1.81543 -2.59767,-2.88937 -4.4952,-3.11193 l 0,9.35965 c 1.89784,-0.22267 3.74324,-1.29681 4.49562,-3.11266 0.2066,-0.49851 0.31348,-1.02729 0.31348,-1.56706 z"
       inkscape:connector-curvature="0"
       style="fill:#d1f3ff" /><path
       id="_79046152-4"
       class="fil2"
       d="m 148.38,109.947 104.815,0 0,-45.5011 -104.815,-1.04e-4 -3.24493,2.51474 -0.90487,-1.16755 3.64434,-2.82438 79.903,1.04e-4 0,-2.8223 c -1.40151,-3.04984 -5.12754,-4.93597 -8.09082,-6.07066 -2.42642,-0.929019 -4.98521,-1.60614 -7.52265,-2.15337 -3.11567,-0.671834 -6.28223,-1.15884 -9.44475,-1.54809 -7.77797,-0.957423 -15.6989,-1.36191 -23.5296,-1.58717 -9.26428,-0.266619 -18.5463,-0.254179 -27.8133,-0.1472 l -13.9405,3.76729 -0.40138,-2.64266 -55.248995,-0.89989 6.93582,18.3957 c 0.551171,0.198305 0.979814,0.25335 1.55078,0.0565 0.388318,-0.149688 0.532719,-0.13362 0.990076,-0.134864 3.5582,-0.008 7.1163,0.01856 10.674399,0.03763 5.25701,0.0282 10.0567,0.05359 15.3373,-0.08252 4.249,-0.109571 8.6366,-0.298754 12.845,-0.910671 l 0.84485,-0.122736 0,1.90904 5.69198,3.02393 0.28227,6.24916 -2.83277,3.26297 5.2e-4,13.2964 2.83277,3.26297 -0.28227,6.249271 -5.69198,3.02393 0,1.90904 -0.84485,-0.12274 c -4.20837,-0.61191 -8.59597,-0.8012 -12.845,-0.91067 -5.11116,-0.13175 -10.2251,-0.10998 -15.3374,-0.0825 -3.557991,0.0191 -7.116191,0.0455 -10.674301,0.0375 -0.37619,-9.3e-4 -0.638973,5.2e-4 -0.990076,-0.13476 -0.570971,-0.19685 -0.999613,-0.14181 -1.55089,0.0565 l -6.93572,18.3957 55.248397,-0.89979 0.40138,-2.64276 13.9405,3.76729 c 9.26697,0.10698 18.549,0.11942 27.8133,-0.1472 7.83073,-0.22526 15.7517,-0.62975 23.5296,-1.58727 3.16252,-0.38925 6.32909,-0.87615 9.44475,-1.54809 2.53744,-0.54713 5.09623,-1.22435 7.52265,-2.15337 2.96328,-1.13458 6.68931,-3.02071 8.09082,-6.07055 l 0,-2.82344 -79.903,0 -3.64434,-2.82438 0.90487,-1.16755 3.24493,2.51474 z m -36.1848,-29.7207 -15.8035,0.277089 0.181512,0.471455 -5.19917,1.23804 5.18e-4,9.96835 5.19917,1.23793 -0.181512,0.471455 15.800002,0.277089 0.12408,-0.0849 c 6.8305,-4.67578 6.67304,-9.0583 -0.009,-13.7777 l -0.11165,-0.07878 z m -15.9918,-0.212093 15.7517,-0.276259 -4.26155,-11.0205 c -1.922,-8.29e-4 -3.84389,-0.01037 -5.76465,-0.02063 -3.36591,-0.01804 -6.73212,-0.04271 -10.098,-0.03867 l 4.37257,11.3561 z m 40.6062,-31.7305 -0.0386,-0.253972 7.38281,-11.857 3.16335,-0.790941 0,-6.7542 15.5074,-7.43806 0,-3.28515 0.31834,-0.220178 c 12.554,-8.68729 27.2273,-13.3834 42.5182,-13.3834 36.0859,0 65.8559,25.882 75.0435,60.1426 l 0.18514,0.690078 -3.04984,0.927361 c 1.17408,14.0686 1.17387,28.2037 0,42.272305 l 3.04984,0.92725 -0.18514,0.69008 c -9.18767,34.2606 -38.9576,60.1426 -75.0435,60.1426 -15.291,0 -29.9642,-4.6961 -42.5182,-13.3833 l -0.31834,-0.22018 0,-3.28515 -15.5074,-7.43817 0,-6.7542 -3.16335,-0.79084 -7.38281,-11.8571 0.0386,-0.25366 -33.9876,0.55346 -9.21473,20.1236 3.23809,0 0.197684,0.14927 c 0.422112,0.31907 0.84412,0.63814 1.26602,0.95732 l 18.701796,0 0.0641,0.0114 c 1.98927,0.35276 3.70799,0.94436 5.36047,2.09864 3.43422,0.11009 6.78302,2.5505 6.78302,6.19681 0,3.64611 -3.3486,6.08631 -6.78261,6.1964 -0.88455,0.62695 -1.8882,1.2512 -2.99552,1.27079 -6.83309,0.12108 -13.6544,-0.38345 -20.478203,-0.64944 l -1.84757,1.56333 -22.1278,-0.25553 -1.81823,-1.21222 c -4.34717,-0.0189 -8.69434,4.1e-4 -13.0413,0.0193 -5.50953,0.0238 -11.02,0.0495 -16.5292,-0.005 -5.14226,-0.0509 -10.2944,-0.16628 -15.4283,-0.47022 -4.40636,-0.26071 -8.86953,-0.65255 -13.221,-1.40628 -3.31314,-0.57376 -6.8971499,-1.40535 -9.9482399,-2.84853 l -0.422734,-0.20006 0,-5.61558 0.244228,-0.22008 c 1.49491,-1.34688 5.06223,-2.05925 6.9944899,-2.40942 4.24911,-0.7701 8.6932,-1.16039 12.998,-1.47895 5.88303,-0.43538 11.7898,-0.69381 17.6851,-0.89657 6.83247,-0.235 13.6691,-0.38438 20.5047,-0.5037 l 17.0582,-21.165 7.50793,-19.9132 0.299169,-0.12159 c 0.889939,-0.36168 1.622,-0.50753 2.44839,-0.32395 l 4.27046,-11.090896 -4.69081,-1.11685 -5.18e-4,-12.3018 4.69081,-1.11685 -4.27046,-11.091 c -0.82629,0.183689 -1.55835,0.03784 -2.44839,-0.32384 l -0.299169,-0.121596 -7.50783,-19.9133 -17.0583,-21.165 c -6.83558,-0.119211 -13.6722,-0.268692 -20.5047,-0.503694 -5.89526,-0.202763 -11.802,-0.461089 -17.685,-0.896469 -4.30477,-0.318657 -8.74887,-0.708841 -12.9981,-1.47895 -1.9322602,-0.35017 -5.4994802,-1.06254 -6.9943902,-2.40942 l -0.244228,-0.220075 0,-5.61568 0.422734,-0.199964 c 3.05098,-1.44329 6.6349902,-2.27476 9.9481402,-2.84853 4.35142,-0.753727 8.81469,-1.14557 13.221,-1.40628 5.13397,-0.303937 10.2862,-0.419313 15.4283,-0.470315 5.50933,-0.05432 11.0197,-0.02871 16.5292,-0.0049 4.34696,0.01887 8.69424,0.03815 13.0413,0.01918 l 1.81834,-1.21212 22.1277,-0.2555275 1.84757,1.5633305 c 6.823871,-0.265997 13.645101,-0.770624 20.478201,-0.649443 1.10742,0.01949 2.11097,0.643741 2.99563,1.27069 3.43391,0.110193 6.78261,2.5504 6.78261,6.1964 0,3.64631 -3.34891,6.08683 -6.78313,6.19681 -1.65248,1.15428 -3.37119,1.74598 -5.36047,2.09874 l -0.064,0.0113 -18.701801,0 c -0.422008,0.319175 -0.844016,0.638247 -1.26613,0.957319 l -0.197684,0.149377 -3.23809,0 9.214735,20.1236 33.9881,0.553659 z m -13.8774,103.238003 0,9.35965 c 1.89784,-0.22267 3.74324,-1.29681 4.49562,-3.11266 0.2066,-0.49851 0.31347,-1.02729 0.31347,-1.56706 0,-0.54019 -0.10708,-1.06917 -0.31389,-1.56799 -0.75269,-1.81543 -2.59766,-2.88937 -4.4952,-3.11193 z m -1.47718,9.76123 0,-10.1594 c -1.41488,-0.95618 -2.88087,-1.44567 -4.57471,-1.75158 l -19.0668,0 -0.197684,-0.14938 c -0.421905,-0.31907 -0.843809,-0.63825 -1.26582,-0.95721 l -5.04399,0 9.879104,-21.574 -19.959404,0.32498 -0.274393,0.14937 -17.2308,21.3793 -0.345402,0.006 c -6.94214,0.12025 -13.8856,0.27046 -20.8249,0.50898 -5.87588,0.20214 -11.7632,0.45954 -17.6269,0.89347 -3.33356,0.24681 -15.825,1.16692 -18.8685,3.31895 l 0,3.99089 c 2.83184,1.26426 6.12332,2.01073 9.14579,2.53412 4.29648,0.74408 8.70564,1.12971 13.0562,1.38721 5.10971,0.30248 10.2378,0.41703 15.3556,0.46761 5.50238,0.0544 11.0058,0.0288 16.5083,0.005 4.42533,-0.0191 8.85087,-0.0388 13.2763,-0.0182 l 0.221733,9.3e-4 1.8229,1.21544 21.1391,0.24423 1.86478,-1.57805 0.286418,0.0109 c 6.890618,0.26175 13.782798,0.78203 20.682198,0.6596 0.67629,-0.0119 1.44121,-0.48876 2.04079,-0.90891 z m 1.47677,-147.769003 0,9.35975 c 1.89743,-0.222562 3.74241,-1.2965 4.4952,-3.11193 0.20681,-0.498822 0.31389,-1.02791 0.31389,-1.5681 0,-0.539768 -0.10698,-1.06844 -0.31358,-1.56696 -0.75238,-1.81585 -2.59777,-2.88999 -4.49551,-3.11276 z m -1.47718,9.75781 0,-10.1593 c -0.59969,-0.420142 -1.36461,-0.897091 -2.0409,-0.909012 -6.89943,-0.122321 -13.7916,0.397855 -20.6821,0.659705 l -0.286522,0.01089 -1.86478,-1.57805 -21.139,0.244228 -1.823,1.21533 -0.221733,0.001 c -4.42533,0.02052 -8.85087,8.29e-4 -13.2763,-0.01824 -5.50248,-0.02384 -11.0059,-0.04945 -16.5083,0.0049 -5.1178,0.05069 -10.2459,0.165237 -15.3556,0.467723 -4.35059,0.257497 -8.75965,0.643016 -13.0562,1.38721 -3.02237,0.52339 -6.31395,1.26986 -9.14569,2.53412 l 0,3.99078 c 3.04331,2.15202 15.5348,3.07223 18.8685,3.31905 5.86364,0.433929 11.7509,0.691322 17.6268,0.893463 6.93924,0.238526 13.8827,0.388733 20.8249,0.508981 l 0.345402,0.0059 17.2309,21.3792 0.274393,0.149481 19.9593,0.324981 -9.87899,-21.574 5.04388,0 c 0.422008,-0.318968 0.843913,-0.638144 1.26592,-0.957215 l 0.197684,-0.149481 19.066796,0 c 1.69384,-0.305907 3.15983,-0.795295 4.57471,-1.75158 z m -13.7605,82.405603 4.26144,-11.020503 -15.7516,-0.276259 -4.37267,11.356202 c 3.36591,0.004 6.73223,-0.0207 10.098,-0.0387 1.92086,-0.0104 3.84265,-0.0198 5.76475,-0.0207 z m 1.58323,0.002 c 2.67935,0.006 5.35839,0.0331 8.03536,0.10211 4.02509,0.10376 8.16774,0.27999 12.1746,0.80846 l 0,-1.0954 5.73158,-3.04487 0.21748,-4.817281 -2.80758,-3.23415 -5.2e-4,-14.3999 2.80769,-3.23415 -0.21758,-4.81738 -5.73158,-3.04487 0,-1.09529 c -4.00685,0.528469 -8.1495,0.704591 -12.1746,0.808357 -2.67686,0.06904 -5.35601,0.0961 -8.03536,0.102211 l 4.06521,10.5128 c 7.2948,5.24001 7.44117,10.754 -0.002,15.942 l -4.06303,10.507403 z m 119.978,-42.709398 25.4176,0 0,48.455498 -25.4176,0 0,3.13308 -0.0606,0.14026 c -1.53586,3.55592 -5.54457,5.68514 -8.97931,7.0003 -2.49753,0.95618 -5.12744,1.65455 -7.73941,2.21775 -3.159,0.68116 -6.369,1.17553 -9.57557,1.57017 -7.8242,0.96312 -15.7905,1.37114 -23.6675,1.59774 -9.31549,0.26807 -18.6486,0.2548 -27.9668,0.14668 l -0.0937,-0.001 -12.5238,-3.38446 -0.33452,2.20209 6.77825,10.8865 3.7026,0.9256 0,6.9777 15.5074,7.43806 0,3.43971 c 12.2366,8.3761 26.4979,12.9017 41.3594,12.9017 35.1736,0 64.2029,-25.0877 73.4288,-58.3587 l -2.82324,-0.85853 0.0511,-0.59585 c 1.23389,-14.379998 1.23399,-28.831698 0,-43.211798 l -0.0511,-0.595746 2.82324,-0.858529 c -9.22592,-33.2712 -38.2552,-58.3587997 -73.4288,-58.3587997 -14.8615,0 -29.1228,4.5256797 -41.3594,12.9017997 l 0,3.43961 -15.5074,7.43817 0,6.9777 -3.7026,0.925598 -6.77825,10.8865 0.33452,2.20209 12.5238,-3.38446 0.0937,-0.0011 c 9.31818,-0.108016 18.6513,-0.121388 27.9668,0.146785 7.87697,0.226605 15.8433,0.634515 23.6675,1.59764 3.20658,0.394641 6.41658,0.889006 9.57557,1.57027 2.61197,0.563196 5.24188,1.26157 7.73941,2.21775 3.43474,1.31506 7.44345,3.44428 8.97931,7.0003 l 0.0606,0.140151 0,3.13205 z m -18.4806,24.2283 c 0,3.21404 -2.60679,5.82093 -5.82083,5.82093 -3.21425,0 -5.82104,-2.60669 -5.82104,-5.82093 0,-3.21415 2.60689,-5.82083 5.82104,-5.82083 3.21404,0 5.82083,2.60669 5.82083,5.82083 z m -1.47718,0 c 0,-2.39874 -1.94501,-4.34365 -4.34365,-4.34365 -2.39884,0 -4.34385,1.9448 -4.34385,4.34365 0,2.39884 1.94501,4.34375 4.34385,4.34375 2.39874,0 4.34365,-1.94491 4.34365,-4.34375 z m -55.2723,-2.12746 4.91161,0 2.34245,-2.8392 18.2786,-1.14692 2.03292,-2.03292 0.21624,-0.04478 c 4.34862,-0.90072 8.74659,-1.71924 13.1267,-2.44249 2.12901,-0.351725 4.26694,-0.680541 6.40859,-0.944776 1.63942,-0.202245 3.38114,-0.400343 5.03352,-0.400343 6.61436,0 11.9787,5.36441 11.9787,11.9789 0,6.61436 -5.36441,11.9788 -11.9787,11.9788 -1.65237,0 -3.3941,-0.197995 -5.03352,-0.400343 -2.14166,-0.264235 -4.27958,-0.593154 -6.40859,-0.944672 -4.38014,-0.723354 -8.7781,-1.54187 -13.1267,-2.44249 l -0.21624,-0.04489 -2.03292,-2.03281 -18.2786,-1.14692 -2.34245,-2.8393 -4.91161,0 c -3.94807,4.08138 -9.99883,4.80049 -15.4109,4.79188 l -0.73735,-0.0012 0,-4.44855 0.27056,-0.221526 c 1.9163,-1.57007 1.80787,-2.91871 -0.0173,-4.51044 l -0.25325,-0.2208 0,-4.43477 0.73735,-0.0011 c 5.41209,-0.0087 11.4628,0.7105 15.4109,4.79178 z m -14.6711,5.28697 0,2.27901 c 4.87201,-0.05608 10.3648,-0.798198 13.8081,-4.54911 l 0.21956,-0.239252 6.25124,0 2.3779,2.88243 18.1967,1.14173 2.11522,2.11512 c 4.25854,0.879054 8.56373,1.6787 12.8517,2.38682 2.10911,0.348408 4.22703,0.674322 6.34857,0.936172 1.57753,0.194574 3.26287,0.389147 4.85273,0.389147 5.79896,0 10.5015,-4.70252 10.5015,-10.5016 0,-5.79917 -4.70232,-10.5017 -10.5015,-10.5017 -1.58986,0 -3.2752,0.194574 -4.85273,0.389251 -2.12155,0.261643 -4.23947,0.587764 -6.34857,0.936068 -4.28798,0.708115 -8.59317,1.50776 -12.8517,2.38682 l -2.11522,2.11522 -18.1967,1.14173 -2.3779,2.88232 -6.25124,0 -0.21956,-0.239148 c -3.44334,-3.75091 -8.93608,-4.49313 -13.8081,-4.54911 l 0,2.29176 c 2.18488,2.0551 2.26968,4.2829 0,6.30628 z"
       inkscape:connector-curvature="0"
       style="fill:#00285a" /><path
       id="_79046080-6"
       class="fil1"
       d="m 122.932,22.8726 c 1.89743,-0.222562 3.74241,-1.2965 4.4952,-3.11193 0.20681,-0.498822 0.31389,-1.02791 0.31389,-1.5681 0,-0.539768 -0.10698,-1.06844 -0.31358,-1.56696 -0.75238,-1.81585 -2.59777,-2.88999 -4.49551,-3.11276 l 0,9.35975 z"
       inkscape:connector-curvature="0"
       style="fill:#d1f3ff" /><path
       id="_79046008-5"
       class="fil3"
       d="m 200.937,87.4738 7.21032,0 c 0,-0.09319 -0.004,-0.185555 -0.0108,-0.276985 l -6.78789,0 c 0,-1.15791 0.54557,-2.18789 1.39415,-2.84739 -1.07954,0.622698 -1.80579,1.78848 -1.80579,3.12437 z m 59.6056,0.785344 11.1926,6.91664 -0.008,-0.536244 -10.7732,-6.65738 -0.68252,-22.9267 c -11.3881,-33.1877 -48.1698,-48.295 -81.4617,-29.4665 l -7.2e-4,0.05162 c 33.1833,-18.4738 69.7094,-3.35948 81.0508,29.6917 l 0.68251,22.9268 z m 11.1623,-23.8126 2.13793,-0.797161 c -0.0101,-0.03753 -0.0218,-0.07402 -0.032,-0.11154 l -2.10766,0.785862 0.002,0.12284 z m -103.529,-41.3096 c -0.13673,0.09029 -0.27522,0.175293 -0.41164,0.266826 l 0,2.76456 0.41164,-0.196025 0,-2.83536 z m -13.837,9.50363 -0.41164,0.196025 0,9.44278 14.1197,0.928086 10.3169,-4.78359 0.001,-0.08666 -9.90636,4.59327 -14.1197,-0.928086 0,-9.36182 z m -8.13954,43.1955 32.6286,0 c 11.5776,-1.56861 26.3516,-3.59925 29.9424,-3.47123 7.56287,0.219867 13.0706,5.68939 13.112,13.7882 l 28.5366,0 0,-0.276985 -28.125,0 c -0.0414,-8.0988 -5.54913,-13.5683 -13.112,-13.7882 -3.59075,-0.128023 -18.3648,1.90261 -29.9424,3.47123 l -32.6286,0 0,-5.60459 2.96826,-2.29622 -0.0535,0 -3.32641,2.5731 0,5.6047 z m 65.9562,12.4946 c 0.36344,-7.46761 -6.689,-10.7734 -11.6293,-7.65254 4.94945,-3.58183 12.4147,-0.301864 12.041,7.37555 l 2.82572,0 c -0.002,0.09205 -0.006,0.184415 -0.0105,0.276985 l -3.2269,0 z m -15.0394,-3.54421 c -0.0394,0.08853 -0.0794,0.176225 -0.11714,0.267033 l -34.5568,1.17097 0,-1.71353 0.41164,-0.02446 0,1.46101 34.2623,-1.16101 z m -15.8779,-1.64325 c 0.44119,-0.576672 0.97525,-1.02833 1.53316,-1.43624 l 0.0646,-0.01348 c -0.51105,0.403142 -0.98873,0.859255 -1.37539,1.43655 l -0.22235,0.01317 z m -31.1374,3.00983 c -0.0204,-0.09257 -0.054,-0.184829 -0.099,-0.276985 l -6.35386,0 c -0.1558,-0.634204 -0.67401,-0.973387 -1.35652,-1.17802 l 0.0308,-1.75614 c -0.13652,-0.0029 -0.27242,-0.0038 -0.40677,-0.0018 l -0.0357,2.03478 c 0.68251,0.204733 1.20072,0.543915 1.35652,1.17812 l 6.8645,0 z m -30.2948,-68.3044 c -36.4364,0.40366 -72.6576,-0.275119 -109.166,0.230026 0.0962,-0.292016 0.371628,-0.558946 0.811466,-0.803899 -0.202037,0.166378 -0.338664,0.341255 -0.399825,0.526914 36.3706,-0.503279 72.4565,0.168451 108.753999,-0.225569 l 0,0.272528 z m -45.7565,-3.58152 1.33092,-1.32957 0.13445,0 -1.33071,1.32915 -0.134657,4.15e-4 z m 14.6619,42.2683 132.885,1.34823 c -0.10294,-0.09609 -0.21137,-0.190945 -0.32467,-0.284552 l -132.149,-1.34066 -1.70296,-5.0669 -0.510121,-0.01586 1.80144,5.35974 z m 4.95857,26.74 c -0.138492,0.04198 -0.275948,0.08469 -0.411642,0.128748 l 0,2.67738 19.848502,0 c 0.0143,-0.09216 0.026,-0.184311 0.0343,-0.276985 l -19.4712,0 0,-2.52915 z m -4.17178,29.260496 -0.429161,3.14687 130.255001,0.66759 c 0.72978,-0.0104 1.64346,-0.28911 2.23029,-0.76907 -0.55387,0.30881 -1.24332,0.48389 -1.81865,0.49208 l -130.255001,-0.66758 0.391843,-2.8732 -0.374324,0.003 z m 29.6773,43.7705 c -36.4363,0.15373 -72.8727,-0.90797 -109.309,-1.04087 0.157463,-0.33648 0.492913,-0.64902 0.984789,-0.93876 -0.269521,0.20961 -0.464717,0.42989 -0.573147,0.66178 36.2992,0.13237 72.5985,1.18631 108.896998,1.04232 l 0,0.27553 z m -51.5245,-4.5745 1.24312,-1.37477 0.161194,0 -1.24985,1.38213 -0.154456,-0.007 z m 20.8883,-6.88171 -0.136005,0.27699 -13.4934,0 c -0.312852,-0.0913 -0.267241,-0.7161 -0.143468,-0.92819 l 8.96034,-13.03 0.221215,0 -8.76991,12.753 c -0.123772,0.21209 -0.169384,0.83686 0.143468,0.92819 l 13.2177,0 z"
       inkscape:connector-curvature="0"
       style="fill:#004496" /><path
       id="_79045936-9"
       class="fil4"
       d="m 201.348,87.1968 7.21032,0 c 0,-1.99104 -1.61412,-3.60505 -3.60505,-3.60505 -1.99114,0 -3.60526,1.61391 -3.60526,3.60505 z m 11.219,0.856767 c 0.46855,-9.62792 -11.3913,-12.3414 -15.1565,-3.27717 l -34.5568,1.17097 0,-1.71353 18.6067,-1.1039 c 0.47322,-0.706457 1.08213,-1.23192 1.72245,-1.70006 7.48119,-1.56063 15.0617,-2.97116 23.0188,-3.86566 5.50435,0.103662 9.88998,4.79323 9.59226,10.4894 l -3.2269,0 z m -62.0547,-2.17763 c -0.36178,-1.63485 -4.68304,-3.26629 -8.18536,-3.2129 l -0.0357,2.03489 c 0.68251,0.204629 1.20072,0.543811 1.35652,1.17802 l 6.8645,0 z m -3.90153,-10.317 32.6286,0 c 11.5776,-1.56861 26.3516,-3.59925 29.9424,-3.47123 7.56287,0.219867 13.0706,5.68939 13.112,13.7882 l 28.5366,0 0,-18.4948 -100.893,0 -3.32641,2.5732 0,5.60459 z m 114.343,12.4232 11.1926,6.91664 -0.44367,-30.5751 2.55133,-0.951307 c -12.8221,-47.4659 -67.2832,-66.2519 -106.078,-40.2456 l 0,2.84552 -13.837,6.58731 0,9.44278 14.1197,0.928086 10.3169,-4.78359 0.0341,-2.55786 c 33.2919,-18.8286 70.0736,-3.72126 81.4617,29.4665 l 0.68251,22.9267 z m -134.825,-70.5779 -2.83474,0 0,-2.87165 c 1.91464,0.433411 2.82956,1.40669 2.83474,2.87165 z m -5.91143,0.167414 c -36.4364,0.403556 -72.6576,-0.275223 -109.166,0.229922 1.22435,-3.71494 31.3208,-3.45143 63.1322,-3.53498 l 1.6079,-1.60614 19.8571,0 1.65051,1.86115 20.4366,-0.934099 2.48146,1.65953 0,2.32462 z m -31.0947,38.6867 132.885,1.34823 c -6.59643,-6.15328 -34.6802,-7.29076 -68.7658,-7.25779 l -9.26345,2.40506 c -17.8274,0.200793 -37.2024,-1.26748 -56.6575,-1.85524 l 1.80144,5.35974 z m 22.4574,24.9607 c -6.67283,0.109052 -13.1511,0.363854 -17.9105,1.90811 l 0,2.67738 19.8485,0 c 0.22858,-1.46153 -0.30093,-2.98111 -1.93796,-4.58549 z m -21.6707,31.039799 -0.429161,3.14687 130.255001,0.66759 c 1.17345,-0.0167 2.82324,-0.72616 2.82324,-1.85265 -26.7193,-0.38801 -53.4383,-0.24568 -80.1571,-0.0585 l -2.72704,-1.71861 c -16.589,-0.201 -33.1779,-0.33089 -49.765001,-0.18473 z m 5.75926,18.633 -6.85413,13.9582 -13.4934,0 c -0.312852,-0.0913 -0.267241,-0.7161 -0.143468,-0.92819 l 8.96034,-13.03 11.5306,0 z m 30.4601,25.1559 -2.83474,0 0,-2.87165 c 1.91464,0.43341 2.82956,1.4068 2.83474,2.87165 z m -6.54201,-0.0185 c -36.4363,0.15373 -72.8727,-0.90798 -109.309,-1.04087 1.89961,-4.06158 29.1575,-4.64271 57.5275,-3.24929 l 1.5003,-1.65911 25.7847,0 1.57867,2.09377 20.4367,-0.59409 2.48136,1.65953 0,2.79006 z"
       inkscape:connector-curvature="0"
       style="fill:#48c8f5" /></g></g><text
   xml:space="preserve"
   style="font-size:1.19191873px;font-style:normal;font-variant:normal;font-weight:normal;font-stretch:normal;text-align:start;line-height:125%;letter-spacing:0px;word-spacing:0px;writing-mode:lr-tb;text-anchor:start;fill:#000000;fill-opacity:1;fill-rule:evenodd;stroke:none;font-family:Bitstream Charter;-inkscape-font-specification:Bitstream Charter"
   x="-94.269844"
   y="0.69063461"
   id="text2996-5"
   sodipodi:linespacing="125%"
   transform="scale(-1,1)"><tspan
     sodipodi:role="line"
     id="tspan2998-9"
     x="-94.269844"
     y="0.69063461" /></text>
<text
   xml:space="preserve"
   style="font-size:5.85115433px;font-style:normal;font-variant:normal;font-weight:normal;font-stretch:normal;text-align:start;line-height:125%;letter-spacing:0px;word-spacing:0px;writing-mode:lr-tb;text-anchor:start;fill:#000000;fill-opacity:1;fill-rule:evenodd;stroke:none;font-family:Bitstream Charter;-inkscape-font-specification:Bitstream Charter"
   x="-7.1156764"
   y="18.494932"
   id="text3000-5"
   sodipodi:linespacing="125%"
   transform="scale(-1,1)"><tspan
     sodipodi:role="line"
     id="tspan3002-6"
     x="-7.1156764"
     y="18.494932" /></text>
<text
   xml:space="preserve"
   style="font-size:9.36184691999999963px;font-style:italic;font-variant:normal;font-weight:normal;font-stretch:normal;text-align:start;line-height:125%;letter-spacing:0px;word-spacing:0px;writing-mode:lr-tb;text-anchor:start;fill:#000000;fill-opacity:1;stroke:none;font-family:FreeSerif;-inkscape-font-specification:FreeSerif Italic"
   x="68.462334"
   y="75.666809"
   id="text3058"
   sodipodi:linespacing="125%"><tspan
     sodipodi:role="line"
     id="tspan3060"
     x="68.462334"
     y="75.666809">c</tspan></text>
<text
   xml:space="preserve"
   style="font-size:9.36184691999999963px;font-style:italic;font-variant:normal;font-weight:normal;font-stretch:normal;text-align:start;line-height:125%;letter-spacing:0px;word-spacing:0px;writing-mode:lr-tb;text-anchor:start;fill:#000000;fill-opacity:1;stroke:none;font-family:Bitstream Charter;-inkscape-font-specification:Bitstream Charter Italic"
   x="18.051565"
   y="16.740713"
   id="text3062"
   sodipodi:linespacing="125%"><tspan
     sodipodi:role="line"
     id="tspan3064"
     x="18.051565"
     y="16.740713">c</tspan></text>
<text
   xml:space="preserve"
   style="font-size:9.36184691999999963px;font-style:italic;font-variant:normal;font-weight:normal;font-stretch:normal;text-align:start;line-height:125%;letter-spacing:0px;word-spacing:0px;writing-mode:lr-tb;text-anchor:start;fill:#ff0000;fill-opacity:1;stroke:none;font-family:Bitstream Charter;-inkscape-font-specification:Bitstream Charter Italic"
   x="45.981857"
   y="46.033455"
   id="text3066"
   sodipodi:linespacing="125%"><tspan
     sodipodi:role="line"
     id="tspan3068"
     x="45.981857"
     y="46.033455">c</tspan></text>
</svg>