<?xml version="1.0" encoding="UTF-8"?>
<svg width="596pt" xmlns:xlink="http://www.w3.org/1999/xlink" xmlns="http://www.w3.org/2000/svg" height="842pt" viewBox="0 0 596 842" >
 <g transform="translate(275.08, 303.04)" style="fill:#000000; fill-rule:nonzero; stroke:none; stroke-width:1; stroke-linecap:butt; stroke-linejoin:miter; stroke-dasharray:none;" >
  <path d="M2 1 C2 0.448 1.552 0 1 0 C0.448 0 0 0.448 0 1 C0 1.552 0.448 2 1 2 C1.552 2 2 1.552 2 1 " />
 </g>
 <g transform="translate(186.08, 304.04)" style="fill:none; stroke:#000000; stroke-width:0.5; stroke-linecap:butt; stroke-linejoin:miter; stroke-dasharray:none;" >
  <path d="M0 0 C0 0 308.5 0 308.5 0 " />
 </g>
 <g transform="translate(493.08, 302.24)" style="fill:#000000; fill-rule:nonzero; stroke:none; stroke-width:0.5; stroke-linecap:butt; stroke-linejoin:miter; stroke-dasharray:none;" >
  <path d="M4.5 1.8 C4.5 1.8 0 0 0 0 C0 0 0 3.6 0 3.6 C0 3.6 4.5 1.8 4.5 1.8 Z" />
 </g>
 <g transform="translate(166.08, 300.04)" style="fill:none; stroke:#000000; stroke-width:0.5; stroke-linecap:butt; stroke-linejoin:miter; stroke-dasharray:none;" >
  <path d="M0 4 C1.167 0 1.583 0 2.75 4 " />
 </g>
 <g transform="translate(168.83, 304.04)" style="fill:none; stroke:#000000; stroke-width:0.5; stroke-linecap:butt; stroke-linejoin:miter; stroke-dasharray:none;" >
  <path d="M0 0 C1.167 4 1.583 4 2.75 0 " />
 </g>
 <g transform="translate(171.58, 300.04)" style="fill:none; stroke:#000000; stroke-width:0.5; stroke-linecap:butt; stroke-linejoin:miter; stroke-dasharray:none;" >
  <path d="M0 4 C1.167 0 1.583 0 2.75 4 " />
 </g>
 <g transform="translate(174.33, 304.04)" style="fill:none; stroke:#000000; stroke-width:0.5; stroke-linecap:butt; stroke-linejoin:miter; stroke-dasharray:none;" >
  <path d="M0 0 C1.167 4 1.583 4 2.75 0 " />
 </g>
 <g transform="translate(177.08, 300.04)" style="fill:none; stroke:#000000; stroke-width:0.5; stroke-linecap:butt; stroke-linejoin:miter; stroke-dasharray:none;" >
  <path d="M0 4 C1.167 0 1.583 0 2.75 4 " />
 </g>
 <g transform="translate(179.83, 304.04)" style="fill:none; stroke:#000000; stroke-width:0.5; stroke-linecap:butt; stroke-linejoin:miter; stroke-dasharray:none;" >
  <path d="M0 0 C1.167 4 1.583 4 2.75 0 " />
 </g>
 <g transform="translate(182.58, 300.04)" style="fill:none; stroke:#000000; stroke-width:0.5; stroke-linecap:butt; stroke-linejoin:miter; stroke-dasharray:none;" >
  <path d="M0 4 C1.167 0 1.583 0 2.75 4 " />
 </g>
 <g transform="translate(185.33, 304.04)" style="fill:none; stroke:#000000; stroke-width:0.5; stroke-linecap:butt; stroke-linejoin:miter; stroke-dasharray:none;" >
  <path d="M0 0 C1.167 4 1.583 4 2.75 0 " />
 </g>
 <g transform="translate(188.08, 300.04)" style="fill:none; stroke:#000000; stroke-width:0.5; stroke-linecap:butt; stroke-linejoin:miter; stroke-dasharray:none;" >
  <path d="M0 4 C1.167 0 1.583 0 2.75 4 " />
 </g>
 <g transform="translate(190.83, 304.04)" style="fill:none; stroke:#000000; stroke-width:0.5; stroke-linecap:butt; stroke-linejoin:miter; stroke-dasharray:none;" >
  <path d="M0 0 C1.167 4 1.583 4 2.75 0 " />
 </g>
 <g transform="translate(193.58, 300.04)" style="fill:none; stroke:#000000; stroke-width:0.5; stroke-linecap:butt; stroke-linejoin:miter; stroke-dasharray:none;" >
  <path d="M0 4 C1.167 0 1.583 0 2.75 4 " />
 </g>
 <g transform="translate(196.33, 304.04)" style="fill:none; stroke:#000000; stroke-width:0.5; stroke-linecap:butt; stroke-linejoin:miter; stroke-dasharray:none;" >
  <path d="M0 0 C1.167 4 1.583 4 2.75 0 " />
 </g>
 <g transform="translate(199.08, 300.04)" style="fill:none; stroke:#000000; stroke-width:0.5; stroke-linecap:butt; stroke-linejoin:miter; stroke-dasharray:none;" >
  <path d="M0 4 C1.167 0 1.583 0 2.75 4 " />
 </g>
 <g transform="translate(201.83, 304.04)" style="fill:none; stroke:#000000; stroke-width:0.5; stroke-linecap:butt; stroke-linejoin:miter; stroke-dasharray:none;" >
  <path d="M0 0 C1.167 4 1.583 4 2.75 0 " />
 </g>
 <g transform="translate(204.58, 300.04)" style="fill:none; stroke:#000000; stroke-width:0.5; stroke-linecap:butt; stroke-linejoin:miter; stroke-dasharray:none;" >
  <path d="M0 4 C1.167 0 1.583 0 2.75 4 " />
 </g>
 <g transform="translate(207.33, 304.04)" style="fill:none; stroke:#000000; stroke-width:0.5; stroke-linecap:butt; stroke-linejoin:miter; stroke-dasharray:none;" >
  <path d="M0 0 C1.167 4 1.583 4 2.75 0 " />
 </g>
 <g transform="translate(210.08, 300.04)" style="fill:none; stroke:#000000; stroke-width:0.5; stroke-linecap:butt; stroke-linejoin:miter; stroke-dasharray:none;" >
  <path d="M0 4 C1.167 0 1.583 0 2.75 4 " />
 </g>
 <g transform="translate(212.83, 304.04)" style="fill:none; stroke:#000000; stroke-width:0.5; stroke-linecap:butt; stroke-linejoin:miter; stroke-dasharray:none;" >
  <path d="M0 0 C1.167 4 1.583 4 2.75 0 " />
 </g>
 <g transform="translate(215.58, 300.04)" style="fill:none; stroke:#000000; stroke-width:0.5; stroke-linecap:butt; stroke-linejoin:miter; stroke-dasharray:none;" >
  <path d="M0 4 C1.167 0 1.583 0 2.75 4 " />
 </g>
 <g transform="translate(218.33, 304.04)" style="fill:none; stroke:#000000; stroke-width:0.5; stroke-linecap:butt; stroke-linejoin:miter; stroke-dasharray:none;" >
  <path d="M0 0 C1.167 4 1.583 4 2.75 0 " />
 </g>
 <g transform="translate(221.08, 300.04)" style="fill:none; stroke:#000000; stroke-width:0.5; stroke-linecap:butt; stroke-linejoin:miter; stroke-dasharray:none;" >
  <path d="M0 4 C1.167 0 1.583 0 2.75 4 " />
 </g>
 <g transform="translate(223.83, 304.04)" style="fill:none; stroke:#000000; stroke-width:0.5; stroke-linecap:butt; stroke-linejoin:miter; stroke-dasharray:none;" >
  <path d="M0 0 C1.167 4 1.583 4 2.75 0 " />
 </g>
 <g transform="translate(226.58, 300.04)" style="fill:none; stroke:#000000; stroke-width:0.5; stroke-linecap:butt; stroke-linejoin:miter; stroke-dasharray:none;" >
  <path d="M0 4 C1.167 0 1.583 0 2.75 4 " />
 </g>
 <g transform="translate(229.33, 304.04)" style="fill:none; stroke:#000000; stroke-width:0.5; stroke-linecap:butt; stroke-linejoin:miter; stroke-dasharray:none;" >
  <path d="M0 0 C1.167 4 1.583 4 2.75 0 " />
 </g>
 <g transform="translate(232.08, 300.04)" style="fill:none; stroke:#000000; stroke-width:0.5; stroke-linecap:butt; stroke-linejoin:miter; stroke-dasharray:none;" >
  <path d="M0 4 C1.167 0 1.583 0 2.75 4 " />
 </g>
 <g transform="translate(234.83, 304.04)" style="fill:none; stroke:#000000; stroke-width:0.5; stroke-linecap:butt; stroke-linejoin:miter; stroke-dasharray:none;" >
  <path d="M0 0 C1.167 4 1.583 4 2.75 0 " />
 </g>
 <g transform="translate(237.58, 300.04)" style="fill:none; stroke:#000000; stroke-width:0.5; stroke-linecap:butt; stroke-linejoin:miter; stroke-dasharray:none;" >
  <path d="M0 4 C1.167 0 1.583 0 2.75 4 " />
 </g>
 <g transform="translate(240.33, 304.04)" style="fill:none; stroke:#000000; stroke-width:0.5; stroke-linecap:butt; stroke-linejoin:miter; stroke-dasharray:none;" >
  <path d="M0 0 C1.167 4 1.583 4 2.75 0 " />
 </g>
 <g transform="translate(243.08, 300.04)" style="fill:none; stroke:#000000; stroke-width:0.5; stroke-linecap:butt; stroke-linejoin:miter; stroke-dasharray:none;" >
  <path d="M0 4 C1.167 0 1.583 0 2.75 4 " />
 </g>
 <g transform="translate(245.83, 304.04)" style="fill:none; stroke:#000000; stroke-width:0.5; stroke-linecap:butt; stroke-linejoin:miter; stroke-dasharray:none;" >
  <path d="M0 0 C1.167 4 1.583 4 2.75 0 " />
 </g>
 <g transform="translate(248.58, 300.04)" style="fill:none; stroke:#000000; stroke-width:0.5; stroke-linecap:butt; stroke-linejoin:miter; stroke-dasharray:none;" >
  <path d="M0 4 C1.167 0 1.583 0 2.75 4 " />
 </g>
 <g transform="translate(251.33, 304.04)" style="fill:none; stroke:#000000; stroke-width:0.5; stroke-linecap:butt; stroke-linejoin:miter; stroke-dasharray:none;" >
  <path d="M0 0 C1.167 4 1.583 4 2.75 0 " />
 </g>
 <g transform="translate(254.08, 300.04)" style="fill:none; stroke:#000000; stroke-width:0.5; stroke-linecap:butt; stroke-linejoin:miter; stroke-dasharray:none;" >
  <path d="M0 4 C1.167 0 1.583 0 2.75 4 " />
 </g>
 <g transform="translate(256.83, 304.04)" style="fill:none; stroke:#000000; stroke-width:0.5; stroke-linecap:butt; stroke-linejoin:miter; stroke-dasharray:none;" >
  <path d="M0 0 C1.167 4 1.583 4 2.75 0 " />
 </g>
 <g transform="translate(259.58, 300.04)" style="fill:none; stroke:#000000; stroke-width:0.5; stroke-linecap:butt; stroke-linejoin:miter; stroke-dasharray:none;" >
  <path d="M0 4 C1.167 0 1.583 0 2.75 4 " />
 </g>
 <g transform="translate(262.33, 304.04)" style="fill:none; stroke:#000000; stroke-width:0.5; stroke-linecap:butt; stroke-linejoin:miter; stroke-dasharray:none;" >
  <path d="M0 0 C1.167 4 1.583 4 2.75 0 " />
 </g>
 <g transform="translate(265.08, 300.04)" style="fill:none; stroke:#000000; stroke-width:0.5; stroke-linecap:butt; stroke-linejoin:miter; stroke-dasharray:none;" >
  <path d="M0 4 C1.167 0 1.583 0 2.75 4 " />
 </g>
 <g transform="translate(267.83, 304.04)" style="fill:none; stroke:#000000; stroke-width:0.5; stroke-linecap:butt; stroke-linejoin:miter; stroke-dasharray:none;" >
  <path d="M0 0 C1.167 4 1.583 4 2.75 0 " />
 </g>
 <g transform="translate(270.58, 300.04)" style="fill:none; stroke:#000000; stroke-width:0.5; stroke-linecap:butt; stroke-linejoin:miter; stroke-dasharray:none;" >
  <path d="M0 4 C1.167 0 1.583 0 2.75 4 " />
 </g>
 <g transform="translate(273.33, 304.04)" style="fill:none; stroke:#000000; stroke-width:0.5; stroke-linecap:butt; stroke-linejoin:miter; stroke-dasharray:none;" >
  <path d="M0 0 C1.167 4 1.583 4 2.75 0 " />
 </g>
 <g transform="translate(276.08, 182.04)" style="fill:none; stroke:#000000; stroke-width:0.5; stroke-linecap:butt; stroke-linejoin:miter; stroke-dasharray:none;" >
  <path d="M0 122 C0 122 145 0 145 0 " />
 </g>
 <g transform="translate(276.08, 170.044)" style="fill:none; stroke:#000000; stroke-width:0.706129; stroke-linecap:butt; stroke-linejoin:miter; stroke-dasharray:none;" >
  <path d="M0 133.996 C0 133.996 148.885 0 148.885 0 " />
 </g>
 <g transform="translate(422.645, 168.036)" style="fill:#000000; fill-rule:nonzero; stroke:none; stroke-width:0.706129; stroke-linecap:butt; stroke-linejoin:miter; stroke-dasharray:none;" >
  <path d="M4.55 0 C4.55 0 0 1.673 0 1.673 C0 1.673 2.41 4.349 2.41 4.349 C2.41 4.349 4.55 0 4.55 0 Z" />
 </g>
 <g transform="translate(276.08, 171.04)" style="fill:none; stroke:#000000; stroke-width:0.5; stroke-linecap:butt; stroke-linejoin:miter; stroke-dasharray:none;" >
  <path d="M0 133 C0 133 137 0 137 0 " />
 </g>
 <g transform="translate(426.08, 289.897)" style="fill:none; stroke:#000000; stroke-width:0.5; stroke-linecap:butt; stroke-linejoin:miter; stroke-dasharray:none;" >
  <path d="M5.858 0 C2.108 3.751 0 8.839 0 14.143 C0 17.904 1.061 21.589 3.059 24.774 " />
 </g>
 <g transform="translate(427.63, 313.624)" style="fill:#000000; fill-rule:nonzero; stroke:none; stroke-width:0.702637; stroke-linecap:butt; stroke-linejoin:miter; stroke-dasharray:none;" >
  <path d="M4.212 4.641 C4.212 4.641 0 2.243 0 2.243 C0 2.243 2.815 0 2.815 0 C2.815 0 4.212 4.641 4.212 4.641 Z" />
 </g>
 <g transform="translate(275.08, 303.04)" style="fill:#000000; fill-rule:nonzero; stroke:none; stroke-width:1; stroke-linecap:butt; stroke-linejoin:miter; stroke-dasharray:none;" >
  <path d="M2 1 C2 0.448 1.552 0 1 0 C0.448 0 0 0.448 0 1 C0 1.552 0.448 2 1 2 C1.552 2 2 1.552 2 1 " />
 </g>
 <g transform="translate(230.194, 224.04)" style="fill:none; stroke:#000000; stroke-width:0.5; stroke-linecap:butt; stroke-linejoin:miter; stroke-dasharray:none;" >
  <path d="M97.309 141.283 C115.423 126.084 125.886 103.648 125.886 80 C125.886 35.817 90.069 0 45.886 0 C29.469 0 13.449 5.052 0 14.468 " />
 </g>
 <g transform="translate(218.723, 204.04)" style="fill:none; stroke:#000000; stroke-width:0.5; stroke-linecap:butt; stroke-linejoin:miter; stroke-dasharray:none;" >
  <path d="M121.635 176.605 C144.279 157.605 157.357 129.559 157.357 100 C157.357 44.772 112.585 0 57.357 0 C36.836 0 16.809 6.314 0 18.085 " />
 </g>
 <g transform="translate(207.251, 184.04)" style="fill:none; stroke:#000000; stroke-width:0.5; stroke-linecap:butt; stroke-linejoin:miter; stroke-dasharray:none;" >
  <path d="M145.964 211.926 C173.136 189.126 188.829 155.471 188.829 120 C188.829 53.727 135.103 0 68.829 0 C44.203 0 20.172 7.577 0 21.702 " />
 </g>
 <g transform="translate(195.779, 164.04)" style="fill:none; stroke:#000000; stroke-width:0.5; stroke-linecap:butt; stroke-linejoin:miter; stroke-dasharray:none;" >
  <path d="M170.291 247.246 C201.992 220.647 220.301 181.383 220.301 140 C220.301 62.681 157.62 0 80.301 0 C51.571 0 23.534 8.84 0 25.318 " />
 </g>
 <g transform="translate(184.308, 144.04)" style="fill:none; stroke:#000000; stroke-width:0.5; stroke-linecap:butt; stroke-linejoin:miter; stroke-dasharray:none;" >
  <path d="M194.618 282.567 C230.847 252.167 251.772 207.295 251.772 160 C251.772 71.635 180.137 0 91.772 0 C58.937 0 26.896 10.103 0 28.936 " />
 </g>
 <g transform="translate(172.836, 124.04)" style="fill:none; stroke:#000000; stroke-width:0.5; stroke-linecap:butt; stroke-linejoin:miter; stroke-dasharray:none;" >
  <path d="M218.946 317.888 C259.704 283.688 283.244 233.206 283.244 180 C283.244 80.589 202.655 0 103.244 0 C66.305 0 30.259 11.365 0 32.553 " />
 </g>
 <g transform="translate(273.248, 310.074)" style="fill:#000000; fill-rule:evenodd; stroke:none; stroke-width:0.5; stroke-linecap:butt; stroke-linejoin:miter; stroke-dasharray:none;" >
  <path d="M4.852 4.11 C4.852 3.121 4.793 2.156 4.363 1.25 C3.875 0.262 3.016 0 2.434 0 C1.742 0 0.895 0.344 0.453 1.332 C0.121 2.086 0 2.824 0 4.11 C0 5.266 0.082 6.137 0.512 6.985 C0.977 7.891 1.801 8.176 2.422 8.176 C3.457 8.176 4.055 7.555 4.398 6.864 C4.828 5.973 4.852 4.801 4.852 4.11 Z M2.422 7.938 C2.039 7.938 1.266 7.723 1.039 6.422 C0.906 5.707 0.906 4.801 0.906 3.969 C0.906 2.992 0.906 2.11 1.098 1.406 C1.301 0.606 1.906 0.238 2.422 0.238 C2.875 0.238 3.566 0.512 3.793 1.535 C3.945 2.215 3.945 3.156 3.945 3.969 C3.945 4.766 3.945 5.672 3.816 6.399 C3.59 7.711 2.836 7.938 2.422 7.938 Z" />
 </g>
 <g transform="translate(491.925, 309.979)" style="fill:#000000; fill-rule:evenodd; stroke:none; stroke-width:0.5; stroke-linecap:butt; stroke-linejoin:miter; stroke-dasharray:none;" >
  <path d="M5.734 0.418 C5.828 0.262 5.828 0.25 5.828 0.165 C5.828 0 5.769 0 5.543 0 C5.543 0 0.297 0 0.297 0 C0.297 0 0.168 2.657 0.168 2.657 C0.168 2.657 0.429 2.657 0.429 2.657 C0.512 1.309 0.883 0.344 2.812 0.344 C2.812 0.344 4.719 0.344 4.719 0.344 C4.719 0.344 0 7.856 0 7.856 C0 8.129 0.012 8.141 0.285 8.141 C0.285 8.141 5.695 8.141 5.695 8.141 C5.695 8.141 5.887 4.993 5.887 4.993 C5.887 4.993 5.625 4.993 5.625 4.993 C5.543 6.676 5.293 7.77 3.121 7.77 C3.121 7.77 1.109 7.77 1.109 7.77 C1.109 7.77 5.734 0.418 5.734 0.418 Z" />
 </g>
 <g transform="translate(299.062, 284.757)" style="fill:none; stroke:#000000; stroke-width:0.5; stroke-linecap:butt; stroke-linejoin:miter; stroke-dasharray:0 0 ; stroke-dashoffset:0;" >
  <path d="M5.209 9.022 C4.012 5.734 2.249 2.68 0 0 " />
 </g>
 <g transform="translate(304.271, 293.779)" style="fill:none; stroke:#000000; stroke-width:0.5; stroke-linecap:butt; stroke-linejoin:miter; stroke-dasharray:0 0 ; stroke-dashoffset:0;" >
  <path d="M1.809 10.261 C1.809 6.762 1.196 3.288 0 0 " />
 </g>
 <g transform="translate(301.81, 291.05)" style="fill:#000000; fill-rule:nonzero; stroke:none; stroke-width:0.640856; stroke-linecap:butt; stroke-linejoin:miter; stroke-dasharray:none;" >
  <path d="M3.23 4.844 C3.23 4.844 3.382 0 3.382 0 C3.382 0 0 1.23 0 1.23 C0 1.23 3.23 4.844 3.23 4.844 Z" />
 </g>
 <g transform="translate(313.196, 290.77)" style="fill:#000000; fill-rule:evenodd; stroke:none; stroke-width:0.640856; stroke-linecap:butt; stroke-linejoin:miter; stroke-dasharray:none;" >
  <path d="M4.805 2.394 C4.805 1.179 4.422 0 3.446 0 C1.778 0 0 3.492 0 6.113 C0 6.664 0.121 8.511 1.371 8.511 C2.992 8.511 4.805 5.101 4.805 2.394 Z M1.192 4.074 C1.371 3.371 1.621 2.371 2.098 1.523 C2.492 0.808 2.91 0.238 3.434 0.238 C3.828 0.238 4.09 0.57 4.09 1.714 C4.09 2.144 4.055 2.742 3.707 4.074 C3.707 4.074 1.192 4.074 1.192 4.074 Z M3.625 4.433 C3.325 5.601 3.075 6.351 2.649 7.101 C2.301 7.71 1.883 8.269 1.383 8.269 C1.012 8.269 0.715 7.984 0.715 6.804 C0.715 6.031 0.907 5.218 1.098 4.433 C1.098 4.433 3.625 4.433 3.625 4.433 Z" />
 </g>
 <g transform="translate(381.02, 198.979)" style="fill:#000000; fill-rule:nonzero; stroke:#000000; stroke-width:1.00173; stroke-linecap:butt; stroke-linejoin:miter; stroke-dasharray:none;" >
  <path d="M1.17 1.172 C0 2.343 0.792 5.035 2.939 7.182 C5.086 9.33 7.778 10.122 8.949 8.95 C10.121 7.779 9.329 5.087 7.181 2.94 C5.034 0.792 2.342 0 1.17 1.172 " />
 </g>
 <g transform="translate(417.318, 308.526)" style="fill:#000000; fill-rule:evenodd; stroke:none; stroke-width:1.00173; stroke-linecap:butt; stroke-linejoin:miter; stroke-dasharray:none;" >
  <path d="M4.567 0.11 C4.567 0 4.485 0 4.45 0 C4.34 0 4.328 0.024 4.282 0.227 C4.282 0.227 3.637 2.789 3.637 2.789 C3.602 2.946 3.59 2.957 3.578 2.969 C3.567 2.993 3.485 3.004 3.457 3.004 C1.504 3.172 0 4.782 0 6.27 C0 7.559 0.993 8.344 2.231 8.418 C2.137 8.786 2.051 9.168 1.957 9.536 C1.789 10.168 1.696 10.563 1.696 10.61 C1.696 10.633 1.696 10.707 1.813 10.707 C1.848 10.707 1.899 10.707 1.922 10.657 C1.946 10.633 2.016 10.348 2.063 10.192 C2.063 10.192 2.504 8.418 2.504 8.418 C4.543 8.309 6.094 6.641 6.094 5.137 C6.094 3.934 5.188 3.075 3.864 2.993 C3.864 2.993 4.567 0.11 4.567 0.11 Z M3.793 3.231 C4.578 3.278 5.368 3.719 5.368 4.887 C5.368 6.235 4.426 8.024 2.567 8.168 C2.567 8.168 3.793 3.231 3.793 3.231 Z M2.289 8.18 C1.707 8.141 0.731 7.832 0.731 6.52 C0.731 5.02 1.813 3.352 3.532 3.243 C3.532 3.243 2.289 8.18 2.289 8.18 Z" />
 </g>
 <g transform="translate(157.855, 288.862)" style="fill:#000000; fill-rule:evenodd; stroke:none; stroke-width:1.00173; stroke-linecap:butt; stroke-linejoin:miter; stroke-dasharray:none;" >
  <path d="M1.598 2.492 C1.922 2.492 2.731 2.469 3.305 2.254 C4.211 1.907 4.293 1.215 4.293 1.004 C4.293 0.477 3.84 0 3.055 0 C1.801 0 0 1.133 0 3.254 C0 4.508 0.715 5.379 1.801 5.379 C3.422 5.379 4.45 4.114 4.45 3.957 C4.45 3.887 4.375 3.828 4.329 3.828 C4.293 3.828 4.282 3.84 4.172 3.946 C3.411 4.961 2.278 5.137 1.825 5.137 C1.145 5.137 0.79 4.602 0.79 3.719 C0.79 3.555 0.79 3.254 0.969 2.492 C0.969 2.492 1.598 2.492 1.598 2.492 Z M1.028 2.254 C1.54 0.418 2.672 0.239 3.055 0.239 C3.579 0.239 3.934 0.551 3.934 1.004 C3.934 2.254 2.028 2.254 1.528 2.254 C1.528 2.254 1.028 2.254 1.028 2.254 Z" />
 </g>
 <g transform="translate(162.958, 284.538)" style="fill:#000000; fill-rule:evenodd; stroke:none; stroke-width:1.00173; stroke-linecap:butt; stroke-linejoin:miter; stroke-dasharray:none;" >
  <path d="M2.133 0.305 C2.133 0.129 2.008 0 1.824 0 C1.617 0 1.387 0.191 1.387 0.43 C1.387 0.606 1.512 0.731 1.695 0.731 C1.902 0.731 2.133 0.543 2.133 0.305 Z M0.973 3.219 C0.973 3.219 0.543 4.316 0.543 4.316 C0.5 4.434 0.461 4.531 0.461 4.664 C0.461 5.055 0.766 5.34 1.188 5.34 C1.957 5.34 2.285 4.231 2.285 4.125 C2.285 4.047 2.223 4.024 2.164 4.024 C2.07 4.024 2.055 4.078 2.031 4.156 C1.848 4.793 1.52 5.117 1.203 5.117 C1.105 5.117 1.012 5.078 1.012 4.863 C1.012 4.672 1.066 4.531 1.172 4.285 C1.25 4.07 1.328 3.856 1.418 3.641 C1.418 3.641 1.664 2.996 1.664 2.996 C1.734 2.813 1.832 2.566 1.832 2.434 C1.832 2.035 1.512 1.758 1.105 1.758 C0.336 1.758 0 2.871 0 2.973 C0 3.043 0.055 3.078 0.121 3.078 C0.223 3.078 0.23 3.027 0.254 2.949 C0.477 2.195 0.844 1.981 1.082 1.981 C1.195 1.981 1.273 2.02 1.273 2.242 C1.273 2.32 1.266 2.434 1.188 2.672 C1.188 2.672 0.973 3.219 0.973 3.219 Z" />
 </g>
 <g transform="translate(166.053, 284.284)" style="fill:#000000; fill-rule:evenodd; stroke:none; stroke-width:1.00173; stroke-linecap:butt; stroke-linejoin:miter; stroke-dasharray:none;" >
  <path d="M1.871 0.238 C1.879 0.223 1.902 0.121 1.902 0.113 C1.902 0.07 1.871 0 1.777 0 C1.742 0 1.496 0.024 1.312 0.039 C1.312 0.039 0.867 0.07 0.867 0.07 C0.691 0.086 0.613 0.098 0.613 0.238 C0.613 0.352 0.726 0.352 0.82 0.352 C1.203 0.352 1.203 0.399 1.203 0.469 C1.203 0.492 1.203 0.508 1.164 0.653 C1.164 0.653 0.031 5.176 0.031 5.176 C0 5.293 0 5.34 0 5.348 C0 5.485 0.113 5.594 0.261 5.594 C0.535 5.594 0.597 5.34 0.629 5.231 C0.707 4.895 0.914 4.055 1.004 3.719 C1.441 3.766 1.972 3.918 1.972 4.371 C1.972 4.41 1.972 4.449 1.957 4.531 C1.933 4.633 1.918 4.746 1.918 4.785 C1.918 5.254 2.269 5.594 2.73 5.594 C3.066 5.594 3.273 5.348 3.375 5.199 C3.566 4.903 3.695 4.426 3.695 4.379 C3.695 4.301 3.629 4.278 3.574 4.278 C3.48 4.278 3.461 4.324 3.429 4.465 C3.328 4.84 3.121 5.371 2.746 5.371 C2.539 5.371 2.492 5.199 2.492 4.985 C2.492 4.879 2.5 4.785 2.539 4.602 C2.547 4.57 2.578 4.442 2.578 4.356 C2.578 3.703 1.758 3.563 1.355 3.504 C1.648 3.332 1.918 3.059 2.015 2.957 C2.453 2.528 2.808 2.235 3.191 2.235 C3.297 2.235 3.39 2.258 3.453 2.336 C3.023 2.391 3.023 2.766 3.023 2.774 C3.023 2.949 3.16 3.067 3.336 3.067 C3.551 3.067 3.789 2.895 3.789 2.567 C3.789 2.297 3.597 2.012 3.199 2.012 C2.738 2.012 2.324 2.36 1.871 2.813 C1.41 3.266 1.211 3.356 1.082 3.41 C1.082 3.41 1.871 0.238 1.871 0.238 Z" />
 </g>
 <g transform="translate(170.631, 286.296)" style="fill:#000000; fill-rule:evenodd; stroke:none; stroke-width:1.00173; stroke-linecap:butt; stroke-linejoin:miter; stroke-dasharray:none;" >
  <path d="M0.801 2.812 C1.09 2.519 1.176 2.43 1.879 1.851 C1.965 1.781 2.523 1.32 2.738 1.113 C3.238 0.621 3.547 0.183 3.547 0.094 C3.547 0.023 3.484 0 3.43 0 C3.348 0 3.34 0.016 3.262 0.133 C3.015 0.5 2.84 0.562 2.695 0.562 C2.547 0.562 2.449 0.5 2.289 0.34 C2.086 0.141 1.926 0 1.672 0 C1.035 0 0.637 0.715 0.637 0.93 C0.637 0.937 0.637 1.023 0.762 1.023 C0.844 1.023 0.859 0.992 0.89 0.906 C0.992 0.676 1.336 0.594 1.574 0.594 C1.758 0.594 1.949 0.644 2.14 0.699 C2.473 0.785 2.547 0.785 2.73 0.785 C2.562 0.961 2.34 1.183 1.726 1.683 C1.39 1.961 1.058 2.23 0.844 2.437 C0.254 3.019 0 3.41 0 3.488 C0 3.558 0.055 3.582 0.117 3.582 C0.199 3.582 0.215 3.558 0.254 3.504 C0.414 3.266 0.66 3.019 0.961 3.019 C1.144 3.019 1.223 3.09 1.375 3.242 C1.629 3.488 1.773 3.582 2.004 3.582 C2.832 3.582 3.332 2.598 3.332 2.351 C3.332 2.281 3.277 2.25 3.215 2.25 C3.125 2.25 3.109 2.297 3.078 2.375 C2.926 2.773 2.488 2.988 2.094 2.988 C1.941 2.988 1.765 2.949 1.527 2.883 C1.191 2.797 1.113 2.797 0.992 2.797 C0.914 2.797 0.867 2.797 0.801 2.812 Z" />
 </g>
 <g transform="translate(433.58, 146.539)" style="fill:#000000; fill-rule:evenodd; stroke:none; stroke-width:1.00173; stroke-linecap:butt; stroke-linejoin:miter; stroke-dasharray:none;" >
  <path d="M0 0 C0 0 0 0.344 0 0.344 C0 0.344 0.238 0.344 0.238 0.344 C1.098 0.344 1.133 0.465 1.133 0.906 C1.133 0.906 1.133 7.234 1.133 7.234 C1.133 7.676 1.098 7.797 0.238 7.797 C0.238 7.797 0 7.797 0 7.797 C0 7.797 0 8.141 0 8.141 C0 8.141 4.172 8.141 4.172 8.141 C6.164 8.141 7.762 6.352 7.762 4.149 C7.762 1.848 6.152 0 4.172 0 C4.172 0 0 0 0 0 Z M2.625 7.797 C2.098 7.797 2.074 7.711 2.074 7.316 C2.074 7.316 2.074 0.82 2.074 0.82 C2.074 0.43 2.098 0.344 2.625 0.344 C2.625 0.344 3.875 0.344 3.875 0.344 C4.863 0.344 5.652 0.82 6.141 1.609 C6.676 2.453 6.676 3.66 6.676 4.137 C6.676 4.805 6.664 5.922 5.984 6.805 C5.59 7.305 4.875 7.797 3.875 7.797 C3.875 7.797 2.625 7.797 2.625 7.797 Z" />
 </g>
 <g transform="translate(442.439, 149.363)" style="fill:#000000; fill-rule:evenodd; stroke:none; stroke-width:1.00173; stroke-linecap:butt; stroke-linejoin:miter; stroke-dasharray:none;" >
  <path d="M4.207 2.551 C4.469 2.551 4.493 2.551 4.493 2.325 C4.493 1.121 3.848 0 2.407 0 C1.047 0 0 1.227 0 2.707 C0 4.282 1.215 5.438 2.54 5.438 C3.957 5.438 4.493 4.149 4.493 3.899 C4.493 3.828 4.434 3.778 4.36 3.778 C4.266 3.778 4.243 3.84 4.219 3.899 C3.907 4.899 3.11 5.172 2.61 5.172 C2.11 5.172 0.903 4.84 0.903 2.778 C0.903 2.778 0.903 2.551 0.903 2.551 C0.903 2.551 4.207 2.551 4.207 2.551 Z M0.918 2.325 C1.012 0.453 2.059 0.239 2.395 0.239 C3.668 0.239 3.743 1.918 3.754 2.325 C3.754 2.325 0.918 2.325 0.918 2.325 Z" />
 </g>
 <g transform="translate(447.454, 147.348)" style="fill:#000000; fill-rule:evenodd; stroke:none; stroke-width:1.00173; stroke-linecap:butt; stroke-linejoin:miter; stroke-dasharray:none;" >
  <path d="M1.789 2.539 C1.789 2.539 3.469 2.539 3.469 2.539 C3.469 2.539 3.469 2.195 3.469 2.195 C3.469 2.195 1.789 2.195 1.789 2.195 C1.789 2.195 1.789 0 1.789 0 C1.789 0 1.527 0 1.527 0 C1.512 1.121 1.086 2.265 0 2.3 C0 2.3 0 2.539 0 2.539 C0 2.539 1.012 2.539 1.012 2.539 C1.012 2.539 1.012 5.855 1.012 5.855 C1.012 7.175 1.895 7.453 2.527 7.453 C3.277 7.453 3.672 6.711 3.672 5.855 C3.672 5.855 3.672 5.175 3.672 5.175 C3.672 5.175 3.41 5.175 3.41 5.175 C3.41 5.175 3.41 5.828 3.41 5.828 C3.41 6.687 3.063 7.187 2.598 7.187 C1.789 7.187 1.789 6.082 1.789 5.879 C1.789 5.879 1.789 2.539 1.789 2.539 Z" />
 </g>
 <g transform="translate(452.158, 149.363)" style="fill:#000000; fill-rule:evenodd; stroke:none; stroke-width:1.00173; stroke-linecap:butt; stroke-linejoin:miter; stroke-dasharray:none;" >
  <path d="M4.207 2.551 C4.469 2.551 4.492 2.551 4.492 2.325 C4.492 1.121 3.848 0 2.406 0 C1.047 0 0 1.227 0 2.707 C0 4.282 1.215 5.438 2.539 5.438 C3.957 5.438 4.492 4.149 4.492 3.899 C4.492 3.828 4.434 3.778 4.36 3.778 C4.266 3.778 4.242 3.84 4.219 3.899 C3.906 4.899 3.11 5.172 2.61 5.172 C2.11 5.172 0.903 4.84 0.903 2.778 C0.903 2.778 0.903 2.551 0.903 2.551 C0.903 2.551 4.207 2.551 4.207 2.551 Z M0.918 2.325 C1.012 0.453 2.059 0.239 2.395 0.239 C3.668 0.239 3.742 1.918 3.754 2.325 C3.754 2.325 0.918 2.325 0.918 2.325 Z" />
 </g>
 <g transform="translate(457.376, 149.363)" style="fill:#000000; fill-rule:evenodd; stroke:none; stroke-width:1.00173; stroke-linecap:butt; stroke-linejoin:miter; stroke-dasharray:none;" >
  <path d="M3.898 0.907 C3.754 0.907 3.312 0.907 3.312 1.395 C3.312 1.68 3.516 1.883 3.801 1.883 C4.074 1.883 4.301 1.715 4.301 1.371 C4.301 0.571 3.469 0 2.504 0 C1.109 0 0 1.239 0 2.742 C0 4.266 1.145 5.438 2.492 5.438 C4.062 5.438 4.422 4.004 4.422 3.899 C4.422 3.789 4.34 3.789 4.301 3.789 C4.195 3.789 4.184 3.828 4.148 3.969 C3.887 4.817 3.242 5.172 2.598 5.172 C1.871 5.172 0.906 4.543 0.906 2.731 C0.906 0.75 1.918 0.262 2.516 0.262 C2.969 0.262 3.625 0.442 3.898 0.907 Z" />
 </g>
 <g transform="translate(462.332, 147.348)" style="fill:#000000; fill-rule:evenodd; stroke:none; stroke-width:1.00173; stroke-linecap:butt; stroke-linejoin:miter; stroke-dasharray:none;" >
  <path d="M1.789 2.539 C1.789 2.539 3.469 2.539 3.469 2.539 C3.469 2.539 3.469 2.195 3.469 2.195 C3.469 2.195 1.789 2.195 1.789 2.195 C1.789 2.195 1.789 0 1.789 0 C1.789 0 1.527 0 1.527 0 C1.512 1.121 1.086 2.265 0 2.3 C0 2.3 0 2.539 0 2.539 C0 2.539 1.012 2.539 1.012 2.539 C1.012 2.539 1.012 5.855 1.012 5.855 C1.012 7.175 1.895 7.453 2.527 7.453 C3.277 7.453 3.672 6.711 3.672 5.855 C3.672 5.855 3.672 5.175 3.672 5.175 C3.672 5.175 3.41 5.175 3.41 5.175 C3.41 5.175 3.41 5.828 3.41 5.828 C3.41 6.687 3.063 7.187 2.598 7.187 C1.789 7.187 1.789 6.082 1.789 5.879 C1.789 5.879 1.789 2.539 1.789 2.539 Z" />
 </g>
 <g transform="translate(467.036, 149.363)" style="fill:#000000; fill-rule:evenodd; stroke:none; stroke-width:1.00173; stroke-linecap:butt; stroke-linejoin:miter; stroke-dasharray:none;" >
  <path d="M5.113 2.766 C5.113 1.227 3.945 0 2.563 0 C1.129 0 0 1.262 0 2.766 C0 4.293 1.192 5.438 2.551 5.438 C3.957 5.438 5.113 4.266 5.113 2.766 Z M2.563 5.172 C2.121 5.172 1.582 4.985 1.238 4.399 C0.918 3.864 0.902 3.16 0.902 2.657 C0.902 2.207 0.902 1.477 1.274 0.942 C1.61 0.43 2.133 0.239 2.551 0.239 C3.016 0.239 3.516 0.453 3.836 0.918 C4.207 1.465 4.207 2.219 4.207 2.657 C4.207 3.075 4.207 3.813 3.895 4.375 C3.563 4.946 3.016 5.172 2.563 5.172 Z" />
 </g>
 <g transform="translate(472.889, 149.422)" style="fill:#000000; fill-rule:evenodd; stroke:none; stroke-width:1.00173; stroke-linecap:butt; stroke-linejoin:miter; stroke-dasharray:none;" >
  <path d="M1.66 2.48 C1.66 1.324 2.136 0.238 3.054 0.238 C3.148 0.238 3.172 0.238 3.218 0.25 C3.125 0.301 2.933 0.371 2.933 0.691 C2.933 1.039 3.207 1.168 3.398 1.168 C3.636 1.168 3.875 1.016 3.875 0.691 C3.875 0.336 3.554 0 3.043 0 C2.027 0 1.683 1.098 1.609 1.324 C1.609 1.324 1.597 1.324 1.597 1.324 C1.597 1.324 1.597 0 1.597 0 C1.597 0 0 0.133 0 0.133 C0 0.133 0 0.476 0 0.476 C0.812 0.476 0.906 0.562 0.906 1.144 C0.906 1.144 0.906 4.375 0.906 4.375 C0.906 4.914 0.777 4.914 0 4.914 C0 4.914 0 5.258 0 5.258 C0.336 5.234 0.992 5.234 1.347 5.234 C1.672 5.234 2.515 5.234 2.793 5.258 C2.793 5.258 2.793 4.914 2.793 4.914 C2.793 4.914 2.55 4.914 2.55 4.914 C1.683 4.914 1.66 4.781 1.66 4.351 C1.66 4.351 1.66 2.48 1.66 2.48 Z" />
 </g>
 <g transform="translate(424.076, 176.06)" style="fill:#000000; fill-rule:evenodd; stroke:none; stroke-width:1.00173; stroke-linecap:butt; stroke-linejoin:miter; stroke-dasharray:none;" >
  <path d="M4.223 1.382 C4.078 1.515 3.637 1.933 3.637 2.097 C3.637 2.218 3.746 2.324 3.863 2.324 C3.973 2.324 4.02 2.253 4.102 2.132 C4.387 1.777 4.711 1.55 4.985 1.394 C5.102 1.324 5.188 1.289 5.188 1.156 C5.188 1.05 5.09 0.988 5.02 0.929 C4.688 0.703 4.602 0.382 4.567 0.238 C4.531 0.144 4.496 0 4.328 0 C4.258 0 4.113 0.046 4.113 0.226 C4.113 0.336 4.184 0.621 4.41 0.941 C4.41 0.941 0.406 0.941 0.406 0.941 C0.203 0.941 0 0.941 0 1.168 C0 1.382 0.215 1.382 0.406 1.382 C0.406 1.382 4.223 1.382 4.223 1.382 Z" />
 </g>
 <g transform="translate(422.72, 179.302)" style="fill:#000000; fill-rule:evenodd; stroke:none; stroke-width:1.00173; stroke-linecap:butt; stroke-linejoin:miter; stroke-dasharray:none;" >
  <path d="M4.316 0.383 C3.945 0.453 3.758 0.715 3.758 0.976 C3.758 1.265 3.984 1.359 4.148 1.359 C4.484 1.359 4.758 1.074 4.758 0.715 C4.758 0.336 4.386 0 3.793 0 C3.316 0 2.765 0.215 2.265 0.941 C2.183 0.312 1.707 0 1.23 0 C0.765 0 0.527 0.359 0.383 0.621 C0.179 1.051 0 1.765 0 1.824 C0 1.871 0.051 1.933 0.133 1.933 C0.226 1.933 0.238 1.922 0.312 1.644 C0.492 0.929 0.715 0.238 1.195 0.238 C1.48 0.238 1.562 0.441 1.562 0.789 C1.562 1.051 1.445 1.515 1.359 1.883 C1.359 1.883 1.027 3.172 1.027 3.172 C0.98 3.398 0.847 3.933 0.789 4.148 C0.703 4.461 0.574 5.019 0.574 5.078 C0.574 5.246 0.703 5.379 0.883 5.379 C1.015 5.379 1.242 5.293 1.312 5.054 C1.347 4.961 1.789 3.16 1.859 2.886 C1.922 2.625 1.992 2.375 2.051 2.109 C2.097 1.945 2.148 1.754 2.183 1.597 C2.218 1.492 2.539 0.906 2.84 0.644 C2.98 0.511 3.293 0.238 3.781 0.238 C3.972 0.238 4.16 0.273 4.316 0.383 Z" />
 </g>
 <g transform="translate(390.837, 209.526)" style="fill:#000000; fill-rule:evenodd; stroke:none; stroke-width:1.00173; stroke-linecap:butt; stroke-linejoin:miter; stroke-dasharray:none;" >
  <path d="M5.519 0.297 C5.531 0.25 5.555 0.18 5.555 0.121 C5.555 0 5.437 0 5.414 0 C5.398 0 4.816 0.047 4.758 0.059 C4.555 0.071 4.375 0.098 4.16 0.11 C3.863 0.133 3.777 0.145 3.777 0.36 C3.777 0.477 3.875 0.477 4.043 0.477 C4.625 0.477 4.637 0.586 4.637 0.703 C4.637 0.778 4.613 0.871 4.601 0.907 C4.601 0.907 3.875 3.805 3.875 3.805 C3.742 3.493 3.422 3.016 2.801 3.016 C1.453 3.016 0 4.758 0 6.52 C0 7.703 0.691 8.395 1.504 8.395 C2.156 8.395 2.719 7.879 3.051 7.489 C3.172 8.192 3.73 8.395 4.09 8.395 C4.445 8.395 4.734 8.18 4.945 7.75 C5.137 7.344 5.305 6.618 5.305 6.571 C5.305 6.508 5.258 6.461 5.187 6.461 C5.078 6.461 5.066 6.52 5.019 6.7 C4.84 7.403 4.613 8.153 4.125 8.153 C3.777 8.153 3.754 7.844 3.754 7.606 C3.754 7.559 3.754 7.309 3.84 6.973 C3.84 6.973 5.519 0.297 5.519 0.297 Z M3.113 6.856 C3.051 7.059 3.051 7.082 2.887 7.309 C2.621 7.641 2.098 8.153 1.539 8.153 C1.051 8.153 0.773 7.715 0.773 7.012 C0.773 6.356 1.144 5.02 1.371 4.52 C1.777 3.684 2.336 3.254 2.801 3.254 C3.59 3.254 3.742 4.231 3.742 4.328 C3.742 4.34 3.707 4.496 3.695 4.52 C3.695 4.52 3.113 6.856 3.113 6.856 Z" />
 </g>
 <g transform="translate(397.003, 209.409)" style="fill:#000000; fill-rule:evenodd; stroke:none; stroke-width:1.00173; stroke-linecap:butt; stroke-linejoin:miter; stroke-dasharray:none;" >
  <path d="M7.367 6.531 C7.367 6.531 7.105 6.531 7.105 6.531 C7.047 6.84 6.988 7.153 6.891 7.403 C6.832 7.594 6.797 7.688 6.105 7.688 C6.105 7.688 5.164 7.688 5.164 7.688 C5.305 7.02 5.652 6.449 6.141 5.707 C6.699 4.84 7.25 3.969 7.25 2.981 C7.25 1.332 5.676 0 3.684 0 C1.684 0 0.121 1.344 0.121 2.981 C0.121 3.957 0.656 4.817 1.219 5.684 C1.719 6.461 2.074 7.02 2.207 7.688 C2.207 7.688 1.266 7.688 1.266 7.688 C0.574 7.688 0.539 7.594 0.476 7.414 C0.383 7.164 0.324 6.817 0.262 6.531 C0.262 6.531 0 6.531 0 6.531 C0 6.531 0.383 8.391 0.383 8.391 C0.383 8.391 2.23 8.391 2.23 8.391 C2.492 8.391 2.516 8.391 2.516 8.176 C2.516 7.328 2.137 6.293 1.894 5.684 C1.551 4.742 1.23 3.871 1.23 2.969 C1.23 1.133 2.504 0.238 3.684 0.238 C4.863 0.238 6.141 1.133 6.141 2.969 C6.141 3.871 5.805 4.766 5.473 5.649 C5.269 6.223 4.851 7.317 4.851 8.164 C4.851 8.391 4.887 8.391 5.152 8.391 C5.152 8.391 6.988 8.391 6.988 8.391 C6.988 8.391 7.367 6.531 7.367 6.531 Z" />
 </g>
 <g transform="translate(287.977, 149.689)" style="fill:#000000; fill-rule:evenodd; stroke:none; stroke-width:1.00173; stroke-linecap:butt; stroke-linejoin:miter; stroke-dasharray:none;" >
  <path d="M1.402 2.098 C1.691 2.098 2.429 2.075 2.925 1.868 C3.621 1.571 3.671 0.985 3.671 0.844 C3.671 0.407 3.293 0 2.605 0 C1.503 0 0 0.965 0 2.704 C0 3.715 0.585 4.5 1.562 4.5 C2.984 4.5 3.82 3.446 3.82 3.329 C3.82 3.27 3.761 3.2 3.703 3.2 C3.652 3.2 3.632 3.219 3.574 3.297 C2.785 4.282 1.703 4.282 1.582 4.282 C0.804 4.282 0.718 3.446 0.718 3.129 C0.718 3.012 0.726 2.704 0.875 2.098 C0.875 2.098 1.402 2.098 1.402 2.098 Z M0.937 1.879 C1.324 0.368 2.347 0.219 2.605 0.219 C3.074 0.219 3.343 0.508 3.343 0.844 C3.343 1.879 1.75 1.879 1.343 1.879 C1.343 1.879 0.937 1.879 0.937 1.879 Z" />
 </g>
 <g transform="translate(292.532, 145.82)" style="fill:#000000; fill-rule:evenodd; stroke:none; stroke-width:1.00173; stroke-linecap:butt; stroke-linejoin:miter; stroke-dasharray:none;" >
  <path d="M1.949 0.266 C1.949 0.153 1.864 0 1.668 0 C1.477 0 1.274 0.184 1.274 0.387 C1.274 0.504 1.364 0.653 1.555 0.653 C1.758 0.653 1.949 0.457 1.949 0.266 Z M0.512 3.836 C0.485 3.93 0.449 4.012 0.449 4.133 C0.449 4.465 0.731 4.731 1.117 4.731 C1.824 4.731 2.133 3.762 2.133 3.657 C2.133 3.563 2.039 3.563 2.02 3.563 C1.922 3.563 1.914 3.606 1.887 3.684 C1.723 4.246 1.414 4.535 1.141 4.535 C1 4.535 0.965 4.442 0.965 4.289 C0.965 4.125 1.012 3.992 1.074 3.836 C1.149 3.649 1.223 3.457 1.301 3.274 C1.364 3.106 1.617 2.465 1.645 2.383 C1.668 2.313 1.688 2.227 1.688 2.157 C1.688 1.828 1.406 1.559 1.02 1.559 C0.324 1.559 0 2.516 0 2.637 C0 2.727 0.098 2.727 0.117 2.727 C0.219 2.727 0.223 2.692 0.246 2.614 C0.43 2.012 0.739 1.758 1 1.758 C1.114 1.758 1.176 1.813 1.176 2.004 C1.176 2.164 1.133 2.27 0.957 2.707 C0.957 2.707 0.512 3.836 0.512 3.836 Z" />
 </g>
 <g transform="translate(295.487, 145.602)" style="fill:#000000; fill-rule:evenodd; stroke:none; stroke-width:1.00173; stroke-linecap:butt; stroke-linejoin:miter; stroke-dasharray:none;" >
  <path d="M1.676 0.21 C1.684 0.195 1.703 0.105 1.703 0.097 C1.703 0.062 1.676 0 1.594 0 C1.45 0 0.867 0.054 0.692 0.07 C0.633 0.078 0.535 0.086 0.535 0.23 C0.535 0.332 0.633 0.332 0.719 0.332 C1.059 0.332 1.059 0.378 1.059 0.437 C1.059 0.484 1.043 0.527 1.028 0.589 C1.028 0.589 0.035 4.57 0.035 4.57 C0 4.695 0 4.71 0 4.722 C0 4.828 0.086 4.949 0.239 4.949 C0.43 4.949 0.524 4.808 0.563 4.652 C0.578 4.625 0.879 3.386 0.91 3.289 C1.41 3.339 1.809 3.5 1.809 3.867 C1.809 3.902 1.809 3.937 1.797 4.007 C1.77 4.113 1.77 4.148 1.77 4.226 C1.77 4.722 2.176 4.949 2.516 4.949 C3.2 4.949 3.41 3.878 3.41 3.875 C3.41 3.781 3.317 3.781 3.297 3.781 C3.2 3.781 3.192 3.816 3.157 3.949 C3.071 4.253 2.879 4.753 2.535 4.753 C2.344 4.753 2.289 4.578 2.289 4.386 C2.289 4.265 2.289 4.253 2.332 4.07 C2.34 4.05 2.367 3.929 2.367 3.851 C2.367 3.226 1.524 3.128 1.227 3.105 C1.43 2.98 1.692 2.75 1.809 2.644 C2.168 2.304 2.52 1.976 2.914 1.976 C3 1.976 3.09 1.996 3.149 2.066 C2.844 2.117 2.782 2.355 2.782 2.46 C2.782 2.617 2.903 2.718 3.063 2.718 C3.254 2.718 3.465 2.566 3.465 2.269 C3.465 2.039 3.297 1.777 2.922 1.777 C2.52 1.777 2.157 2.066 1.797 2.398 C1.5 2.679 1.27 2.894 0.981 3.015 C0.981 3.015 1.676 0.21 1.676 0.21 Z" />
 </g>
 <g transform="translate(299.611, 147.379)" style="fill:#000000; fill-rule:evenodd; stroke:none; stroke-width:1.00173; stroke-linecap:butt; stroke-linejoin:miter; stroke-dasharray:none;" >
  <path d="M1.325 1.68 C1.328 1.641 1.493 1.008 1.504 0.973 C1.52 0.914 1.723 0.562 1.95 0.394 C2.028 0.34 2.219 0.199 2.52 0.199 C2.59 0.199 2.766 0.207 2.907 0.297 C2.68 0.359 2.598 0.559 2.598 0.683 C2.598 0.84 2.715 0.941 2.879 0.941 C3.039 0.941 3.274 0.809 3.274 0.516 C3.274 0.148 2.887 0 2.528 0 C2.16 0 1.844 0.148 1.535 0.5 C1.407 0.07 0.977 0 0.809 0 C0.547 0 0.371 0.164 0.258 0.359 C0.098 0.633 0 1.043 0 1.078 C0 1.168 0.098 1.168 0.118 1.168 C0.219 1.168 0.223 1.148 0.274 0.957 C0.379 0.527 0.512 0.199 0.789 0.199 C0.969 0.199 1.02 0.351 1.02 0.543 C1.02 0.676 0.957 0.937 0.907 1.125 C0.86 1.316 0.789 1.605 0.754 1.758 C0.754 1.758 0.528 2.66 0.528 2.66 C0.5 2.75 0.457 2.926 0.457 2.945 C0.457 3.101 0.582 3.172 0.696 3.172 C0.801 3.172 0.942 3.109 1 2.969 C1.012 2.926 1.09 2.617 1.133 2.441 C1.133 2.441 1.325 1.68 1.325 1.68 Z" />
 </g>
 <g transform="translate(287.5, 155.77)" style="fill:#000000; fill-rule:nonzero; stroke:none; stroke-width:0.12; stroke-linecap:butt; stroke-linejoin:miter; stroke-dasharray:none;" >
  <path d="M0 0.48 C0 0.48 16.32 0.48 16.32 0.48 C16.32 0.48 16.32 0 16.32 0 C16.32 0 0 0 0 0 " />
 </g>
 <g transform="translate(293.569, 160.249)" style="fill:#000000; fill-rule:evenodd; stroke:none; stroke-width:0.12; stroke-linecap:butt; stroke-linejoin:miter; stroke-dasharray:none;" >
  <path d="M0.586 3.805 C0.555 3.953 0.496 4.184 0.496 4.23 C0.496 4.41 0.637 4.5 0.785 4.5 C0.907 4.5 1.082 4.422 1.153 4.223 C1.172 4.184 1.512 2.832 1.551 2.652 C1.633 2.324 1.809 1.629 1.871 1.359 C1.91 1.23 2.188 0.766 2.426 0.547 C2.508 0.477 2.797 0.219 3.223 0.219 C3.481 0.219 3.633 0.336 3.641 0.336 C3.344 0.387 3.125 0.625 3.125 0.883 C3.125 1.043 3.235 1.23 3.5 1.23 C3.77 1.23 4.047 1.004 4.047 0.645 C4.047 0.297 3.731 0 3.223 0 C2.578 0 2.137 0.488 1.95 0.766 C1.871 0.316 1.512 0 1.043 0 C0.586 0 0.399 0.387 0.309 0.566 C0.129 0.902 0 1.5 0 1.531 C0 1.629 0.098 1.629 0.118 1.629 C0.219 1.629 0.227 1.617 0.289 1.402 C0.457 0.695 0.657 0.219 1.016 0.219 C1.184 0.219 1.325 0.297 1.325 0.676 C1.325 0.883 1.293 0.992 1.164 1.512 C1.164 1.512 0.586 3.805 0.586 3.805 Z" />
 </g>
</svg>
