<?xml version="1.0" encoding="UTF-8" standalone="no"?>
<!-- Created with Inkscape (http://www.inkscape.org/) -->

<svg
   xmlns:dc="http://purl.org/dc/elements/1.1/"
   xmlns:cc="http://creativecommons.org/ns#"
   xmlns:rdf="http://www.w3.org/1999/02/22-rdf-syntax-ns#"
   xmlns:svg="http://www.w3.org/2000/svg"
   xmlns="http://www.w3.org/2000/svg"
   xmlns:sodipodi="http://sodipodi.sourceforge.net/DTD/sodipodi-0.dtd"
   xmlns:inkscape="http://www.inkscape.org/namespaces/inkscape"
   width="1024"
   height="768"
   id="svg2"
   version="1.1"
   inkscape:version="0.47 r22583"
   sodipodi:docname="hierarchy.svg">
  <sodipodi:namedview
     id="base"
     pagecolor="#ffffff"
     bordercolor="#666666"
     borderopacity="1.0"
     inkscape:pageopacity="0.0"
     inkscape:pageshadow="2"
     inkscape:zoom="0.96354167"
     inkscape:cx="326.22703"
     inkscape:cy="384"
     inkscape:document-units="px"
     inkscape:current-layer="layer6"
     showgrid="false"
     width="1024px"
     inkscape:window-width="1680"
     inkscape:window-height="972"
     inkscape:window-x="0"
     inkscape:window-y="27"
     inkscape:window-maximized="1" />
  <defs
     id="defs4">
    <inkscape:perspective
       sodipodi:type="inkscape:persp3d"
       inkscape:vp_x="0 : 526.18109 : 1"
       inkscape:vp_y="0 : 1000 : 0"
       inkscape:vp_z="744.09448 : 526.18109 : 1"
       inkscape:persp3d-origin="372.04724 : 350.78739 : 1"
       id="perspective10" />
    <inkscape:perspective
       id="perspective3622"
       inkscape:persp3d-origin="0.5 : 0.33333333 : 1"
       inkscape:vp_z="1 : 0.5 : 1"
       inkscape:vp_y="0 : 1000 : 0"
       inkscape:vp_x="0 : 0.5 : 1"
       sodipodi:type="inkscape:persp3d" />
    <inkscape:perspective
       id="perspective4018"
       inkscape:persp3d-origin="0.5 : 0.33333333 : 1"
       inkscape:vp_z="1 : 0.5 : 1"
       inkscape:vp_y="0 : 1000 : 0"
       inkscape:vp_x="0 : 0.5 : 1"
       sodipodi:type="inkscape:persp3d" />
    <inkscape:perspective
       id="perspective4055"
       inkscape:persp3d-origin="0.5 : 0.33333333 : 1"
       inkscape:vp_z="1 : 0.5 : 1"
       inkscape:vp_y="0 : 1000 : 0"
       inkscape:vp_x="0 : 0.5 : 1"
       sodipodi:type="inkscape:persp3d" />
    <inkscape:perspective
       sodipodi:type="inkscape:persp3d"
       inkscape:vp_x="0 : 0.5 : 1"
       inkscape:vp_y="0 : 1000 : 0"
       inkscape:vp_z="1 : 0.5 : 1"
       inkscape:persp3d-origin="0.5 : 0.33333333 : 1"
       id="perspective4290" />
    <inkscape:perspective
       sodipodi:type="inkscape:persp3d"
       inkscape:vp_x="0 : 0.5 : 1"
       inkscape:vp_y="0 : 1000 : 0"
       inkscape:vp_z="1 : 0.5 : 1"
       inkscape:persp3d-origin="0.5 : 0.33333333 : 1"
       id="perspective4315" />
    <inkscape:perspective
       id="perspective4685"
       inkscape:persp3d-origin="0.5 : 0.33333333 : 1"
       inkscape:vp_z="1 : 0.5 : 1"
       inkscape:vp_y="0 : 1000 : 0"
       inkscape:vp_x="0 : 0.5 : 1"
       sodipodi:type="inkscape:persp3d" />
  </defs>
  <metadata
     id="metadata7">
    <rdf:RDF>
      <cc:Work
         rdf:about="">
        <dc:format>image/svg+xml</dc:format>
        <dc:type
           rdf:resource="http://purl.org/dc/dcmitype/StillImage" />
        <dc:title></dc:title>
      </cc:Work>
    </rdf:RDF>
  </metadata>
  <g
     inkscape:label="sm"
     inkscape:groupmode="layer"
     id="layer1"
     transform="translate(0,-284.36218)"
     style="display:inline">
    <path
       style="fill:none;stroke:#000000;stroke-width:1;stroke-linecap:butt;stroke-linejoin:miter;stroke-miterlimit:4;stroke-opacity:1;stroke-dasharray:8, 8;stroke-dashoffset:0"
       d="m 55.005405,398.52434 185.772975,0"
       id="path2826"
       sodipodi:nodetypes="cc" />
    <path
       sodipodi:nodetypes="cc"
       id="path3600"
       d="m 343.505,398.52434 140.10811,0"
       style="fill:none;stroke:#000000;stroke-width:1;stroke-linecap:butt;stroke-linejoin:miter;stroke-miterlimit:4;stroke-opacity:1;stroke-dasharray:8, 8;stroke-dashoffset:0" />
    <path
       sodipodi:type="arc"
       style="color:#000000;fill:#ffffff;fill-opacity:0.97647059;fill-rule:evenodd;stroke:#0000ff;stroke-width:1;stroke-linecap:round;stroke-linejoin:round;stroke-miterlimit:4;stroke-opacity:1;stroke-dasharray:none;stroke-dashoffset:0;marker:none;visibility:visible;display:inline;overflow:visible;enable-background:accumulate"
       id="path3602"
       sodipodi:cx="632.04321"
       sodipodi:cy="111.04865"
       sodipodi:rx="92.367569"
       sodipodi:ry="97.556755"
       d="m 724.41078,111.04865 c 0,53.87911 -41.35437,97.55676 -92.36757,97.55676 -51.0132,0 -92.36757,-43.67765 -92.36757,-97.55676 0,-53.879105 41.35437,-97.556752 92.36757,-97.556752 51.0132,0 92.36757,43.677647 92.36757,97.556752 z"
       transform="translate(-52.92973,287.47569)" />
    <path
       style="fill:none;stroke:#000000;stroke-width:1;stroke-linecap:butt;stroke-linejoin:miter;stroke-miterlimit:4;stroke-opacity:1;stroke-dasharray:8, 8;stroke-dashoffset:0"
       d="m 677.705,398.52434 140.10811,0"
       id="path3604"
       sodipodi:nodetypes="cc" />
    <text
       xml:space="preserve"
       style="font-size:40px;font-style:italic;font-variant:normal;font-weight:normal;font-stretch:normal;text-align:start;line-height:100%;writing-mode:lr-tb;text-anchor:start;fill:#000000;fill-opacity:1;stroke:none;font-family:Times New Roman;-inkscape-font-specification:Times New Roman Italic"
       x="121.42702"
       y="435.88651"
       id="text3606"
       sodipodi:linespacing="100%"><tspan
         sodipodi:role="line"
         id="tspan3608"
         x="121.42702"
         y="435.88651">H</tspan></text>
    <text
       sodipodi:linespacing="100%"
       id="text3610"
       y="435.88651"
       x="374.4267"
       style="font-size:40px;font-style:italic;font-variant:normal;font-weight:normal;font-stretch:normal;text-align:start;line-height:100%;writing-mode:lr-tb;text-anchor:start;fill:#000000;fill-opacity:1;stroke:none;font-family:Times New Roman;-inkscape-font-specification:Times New Roman Italic"
       xml:space="preserve"><tspan
         y="435.88651"
         x="374.4267"
         id="tspan3612"
         sodipodi:role="line">H</tspan></text>
    <text
       sodipodi:linespacing="100%"
       id="text3610-9"
       y="336.00436"
       x="465.86337"
       style="font-size:40px;font-style:italic;font-variant:normal;font-weight:normal;font-stretch:normal;text-align:start;line-height:100%;writing-mode:lr-tb;text-anchor:start;fill:#000000;fill-opacity:1;stroke:none;font-family:Times New Roman;-inkscape-font-specification:Times New Roman Italic"
       xml:space="preserve"><tspan
         y="336.00436"
         x="465.86337"
         id="tspan3612-3"
         sodipodi:role="line">f</tspan></text>
  </g>
  <g
     inkscape:groupmode="layer"
     id="layer2"
     inkscape:label="add1"
     style="display:inline">
    <g
       transform="translate(-270.54595,-74.42398)"
       id="g3658">
      <g
         style="font-style:normal;font-variant:normal;font-weight:normal;font-stretch:normal;letter-spacing:normal;word-spacing:normal;text-anchor:start;fill:none;stroke:#000000;stroke-linecap:butt;stroke-linejoin:miter;stroke-miterlimit:10.43299961;stroke-opacity:1;stroke-dasharray:none;stroke-dashoffset:0"
         id="g4428"
         transform="matrix(1.0971429,0,0,-1.0971429,-192,768)"
         xml:space="preserve"
         stroke-miterlimit="10.433"
         font-style="normal"
         font-variant="normal"
         font-weight="normal"
         font-stretch="normal"
         font-size-adjust="none"
         letter-spacing="normal"
         word-spacing="normal"><path
           style="fill:#000000;stroke-width:0"
           d="m 476.38,408.94 -0.01,-0.07 -0.02,-0.08 -0.01,-0.07 -0.02,-0.08 -0.03,-0.16 -0.04,-0.16 -0.04,-0.16 -0.03,-0.16 -0.04,-0.16 -0.04,-0.16 -0.01,-0.08 -0.02,-0.07 -0.02,-0.07 -0.01,-0.07 -0.02,-0.07 -0.01,-0.07 -0.01,-0.06 -0.02,-0.06 -0.01,-0.05 -0.01,-0.06 -0.01,-0.05 0,-0.04 -0.01,-0.04 0,-0.04 -0.01,-0.03 0,-0.02 c 0,-0.9 0.7,-1.35 1.45,-1.35 0.6,0 1.5,0.4 1.84,1.4 0.05,0.1 0.65,2.44 0.95,3.68 l 1.1,4.49 c 0.29,1.09 0.59,2.19 0.84,3.34 0.2,0.84 0.6,2.28 0.65,2.48 0.75,1.55 3.39,6.08 8.12,6.08 2.24,0 2.69,-1.84 2.69,-3.49 0,-1.24 -0.35,-2.64 -0.75,-4.13 l -1.39,-5.78 -1,-3.79 c -0.2,-0.99 -0.64,-2.68 -0.64,-2.93 0,-0.9 0.69,-1.35 1.44,-1.35 1.54,0 1.84,1.25 2.24,2.84 0.7,2.79 2.54,10.07 2.99,12.01 0.15,0.65 2.79,6.62 8.22,6.62 2.14,0 2.69,-1.69 2.69,-3.49 0,-2.84 -2.1,-8.51 -3.09,-11.15 -0.45,-1.2 -0.65,-1.75 -0.65,-2.74 0,-2.34 1.75,-4.09 4.08,-4.09 4.69,0 6.53,7.28 6.53,7.67 0,0.5 -0.45,0.5 -0.59,0.5 -0.5,0 -0.5,-0.15 -0.75,-0.89 -0.75,-2.64 -2.35,-6.18 -5.08,-6.18 -0.85,0 -1.2,0.5 -1.2,1.64 0,1.25 0.45,2.44 0.9,3.54 0.94,2.59 3.03,8.12 3.03,10.96 0,3.24 -1.99,5.33 -5.72,5.33 -3.74,0 -6.28,-2.2 -8.12,-4.84 -0.05,0.65 -0.2,2.35 -1.6,3.54 -1.24,1.05 -2.84,1.3 -4.08,1.3 -4.48,0 -6.92,-3.19 -7.77,-4.34 -0.25,2.84 -2.34,4.34 -4.58,4.34 -2.3,0 -3.24,-1.95 -3.69,-2.84 -0.9,-1.75 -1.54,-4.68 -1.54,-4.83 0,-0.5 0.49,-0.5 0.59,-0.5 0.5,0 0.55,0.05 0.85,1.14 0.84,3.54 1.84,5.93 3.64,5.93 0.79,0 1.54,-0.4 1.54,-2.29 0,-1.04 -0.15,-1.59 -0.8,-4.18 z"
           id="path3661" /><path
           style="fill:#000000;stroke-width:0"
           d="m 533.99,435.12 0,0.71 -0.02,0.68 -0.03,0.66 -0.04,0.64 -0.06,0.62 -0.08,0.59 -0.09,0.58 -0.11,0.56 -0.12,0.55 -0.15,0.53 -0.17,0.51 -0.19,0.5 -0.21,0.49 -0.24,0.48 -0.26,0.47 -0.14,0.24 -0.15,0.23 c -1.08,1.6 -3.24,2.99 -6.03,2.99 v -0.97 c 1.88,0 3.7,-1.15 4.33,-3.18 0.55,-1.88 0.59,-4.39 0.59,-7.42 0,-2.58 0,-5.17 -0.45,-7.36 -0.7,-3.17 -3.07,-3.94 -4.47,-3.94 h 0 c -1.6,0 -3.73,0.94 -4.43,3.8 -0.49,2.06 -0.49,4.92 -0.49,7.5 0,2.54 0,5.19 0.53,7.11 0.73,2.76 2.96,3.49 4.39,3.49 v 0.97 c -8.09,0 -8.09,-9.52 -8.09,-12.03 0,-2.51 0,-11.82 8.09,-11.82 8.09,0 8.09,9.31 8.09,11.82 z"
           id="path3663" /><path
           style="fill:#000000;stroke-width:0"
           d="m 545.32,412.99 0.03,0.12 0.03,0.11 0.03,0.11 0.03,0.1 0.02,0.09 0.03,0.1 0.03,0.08 0.04,0.08 0.03,0.08 0.04,0.07 0.04,0.06 0.05,0.06 0.05,0.06 0.06,0.05 0.06,0.05 0.07,0.05 0.07,0.04 0.08,0.04 0.09,0.03 0.1,0.03 0.11,0.03 0.05,0.01 0.06,0.02 0.06,0.01 0.07,0.01 0.06,0.01 0.07,0.01 0.07,0 0.08,0.01 0.07,0.01 0.08,0 0.09,0.01 0.08,0.01 0.09,0 0.09,0 0.1,0.01 0.1,0 0.1,0 0.1,0.01 0.11,0 0.11,0 0.12,0 0.12,0 c 0.76,0 1.18,0 1.18,0.77 0,0.14 -0.1,0.49 -0.55,0.49 h -9.17 c -0.22,0 -0.74,0 -0.74,-0.77 0,-0.49 0.42,-0.49 1.12,-0.49 0.03,0 0.7,0 1.32,-0.07 0.74,-0.07 0.81,-0.14 0.81,-0.49 0,-0.03 0,-0.24 -0.14,-0.77 l -2.06,-8.22 h -11.68 l 2.02,8.09 c 0.32,1.18 0.38,1.46 3.07,1.46 0.59,0 1.05,0 1.05,0.77 0,0.14 -0.11,0.49 -0.56,0.49 h -9.18 c -0.2,0 -0.73,0 -0.73,-0.77 0,-0.49 0.42,-0.49 1.12,-0.49 0.04,0 0.7,0 1.33,-0.07 0.73,-0.07 0.8,-0.14 0.8,-0.49 0,-0.07 0,-0.24 -0.14,-0.77 l -4.64,-18.51 c -0.28,-1.18 -0.35,-1.47 -3.07,-1.47 -0.59,0 -1.04,0 -1.04,-0.73 0,-0.34 0.24,-0.52 0.56,-0.52 h 9.16 c 0.18,0 0.74,0 0.74,0.73 0,0.52 -0.35,0.52 -1.15,0.52 -0.56,0 -0.7,0 -1.33,0.07 -0.77,0.11 -0.77,0.18 -0.77,0.53 0,0.03 0,0.24 0.14,0.76 l 2.31,9.14 h 11.68 l -2.27,-9.03 c -0.28,-1.18 -0.35,-1.47 -3.07,-1.47 -0.59,0 -1.05,0 -1.05,-0.73 0,-0.34 0.25,-0.52 0.56,-0.52 h 9.17 c 0.18,0 0.73,0 0.73,0.73 0,0.52 -0.34,0.52 -1.14,0.52 -0.56,0 -0.7,0 -1.33,0.07 -0.77,0.11 -0.77,0.18 -0.77,0.53 0,0.21 0.11,0.56 0.14,0.76 z"
           id="path3665" /></g>    </g>
    <g
       transform="translate(437.12455,-74.42398)"
       id="g3796">
      <g
         style="font-style:normal;font-variant:normal;font-weight:normal;font-stretch:normal;letter-spacing:normal;word-spacing:normal;text-anchor:start;fill:none;stroke:#000000;stroke-linecap:butt;stroke-linejoin:miter;stroke-miterlimit:10.43299961;stroke-opacity:1;stroke-dasharray:none;stroke-dashoffset:0"
         id="g3798"
         transform="matrix(1.0971429,0,0,-1.0971429,-192,768)"
         xml:space="preserve"
         stroke-miterlimit="10.433"
         font-style="normal"
         font-variant="normal"
         font-weight="normal"
         font-stretch="normal"
         font-size-adjust="none"
         letter-spacing="normal"
         word-spacing="normal"><path
           style="fill:#000000;stroke-width:0"
           d="m 476.38,408.94 -0.01,-0.07 -0.02,-0.08 -0.01,-0.07 -0.02,-0.08 -0.03,-0.16 -0.04,-0.16 -0.04,-0.16 -0.03,-0.16 -0.04,-0.16 -0.04,-0.16 -0.01,-0.08 -0.02,-0.07 -0.02,-0.07 -0.01,-0.07 -0.02,-0.07 -0.01,-0.07 -0.01,-0.06 -0.02,-0.06 -0.01,-0.05 -0.01,-0.06 -0.01,-0.05 0,-0.04 -0.01,-0.04 0,-0.04 -0.01,-0.03 0,-0.02 c 0,-0.9 0.7,-1.35 1.45,-1.35 0.6,0 1.5,0.4 1.84,1.4 0.05,0.1 0.65,2.44 0.95,3.68 l 1.1,4.49 c 0.29,1.09 0.59,2.19 0.84,3.34 0.2,0.84 0.6,2.28 0.65,2.48 0.75,1.55 3.39,6.08 8.12,6.08 2.24,0 2.69,-1.84 2.69,-3.49 0,-1.24 -0.35,-2.64 -0.75,-4.13 l -1.39,-5.78 -1,-3.79 c -0.2,-0.99 -0.64,-2.68 -0.64,-2.93 0,-0.9 0.69,-1.35 1.44,-1.35 1.54,0 1.84,1.25 2.24,2.84 0.7,2.79 2.54,10.07 2.99,12.01 0.15,0.65 2.79,6.62 8.22,6.62 2.14,0 2.69,-1.69 2.69,-3.49 0,-2.84 -2.1,-8.51 -3.09,-11.15 -0.45,-1.2 -0.65,-1.75 -0.65,-2.74 0,-2.34 1.75,-4.09 4.08,-4.09 4.69,0 6.53,7.28 6.53,7.67 0,0.5 -0.45,0.5 -0.59,0.5 -0.5,0 -0.5,-0.15 -0.75,-0.89 -0.75,-2.64 -2.35,-6.18 -5.08,-6.18 -0.85,0 -1.2,0.5 -1.2,1.64 0,1.25 0.45,2.44 0.9,3.54 0.94,2.59 3.03,8.12 3.03,10.96 0,3.24 -1.99,5.33 -5.72,5.33 -3.74,0 -6.28,-2.2 -8.12,-4.84 -0.05,0.65 -0.2,2.35 -1.6,3.54 -1.24,1.05 -2.84,1.3 -4.08,1.3 -4.48,0 -6.92,-3.19 -7.77,-4.34 -0.25,2.84 -2.34,4.34 -4.58,4.34 -2.3,0 -3.24,-1.95 -3.69,-2.84 -0.9,-1.75 -1.54,-4.68 -1.54,-4.83 0,-0.5 0.49,-0.5 0.59,-0.5 0.5,0 0.55,0.05 0.85,1.14 0.84,3.54 1.84,5.93 3.64,5.93 0.79,0 1.54,-0.4 1.54,-2.29 0,-1.04 -0.15,-1.59 -0.8,-4.18 z"
           id="path3800" /><path
           style="fill:#000000;stroke-width:0"
           d="m 527.68,446.18 0,0.04 0,0.04 0,0.04 0,0.04 0,0.04 0,0.04 0,0.03 0,0.04 -0.01,0.03 0,0.03 0,0.04 0,0.03 -0.01,0.02 0,0.03 0,0.03 -0.01,0.03 0,0.02 0,0.02 -0.02,0.05 -0.01,0.04 -0.01,0.04 -0.02,0.03 -0.02,0.03 -0.02,0.03 -0.03,0.03 -0.02,0.02 -0.03,0.02 -0.04,0.02 -0.03,0.01 -0.04,0.01 -0.05,0.02 -0.05,0 -0.02,0.01 -0.03,0 -0.03,0.01 -0.02,0 -0.03,0 -0.03,0 -0.04,0 -0.03,0.01 -0.03,0 -0.04,0 -0.03,0 -0.04,0 -0.04,0 -0.04,0 -0.04,0 -0.04,0 -0.05,0 -0.04,0 c -2.24,-2.19 -5.41,-2.23 -6.84,-2.23 v -1.25 c 0.84,0 3.14,0 5.05,0.97 v -17.78 c 0,-1.15 0,-1.61 -3.48,-1.61 h -1.33 V 424 h 12.45 v 1.25 h -1.32 c -3.49,0 -3.49,0.46 -3.49,1.61 z"
           id="path3802" /><path
           style="fill:#000000;stroke-width:0"
           d="m 545.32,412.99 0.03,0.12 0.03,0.11 0.03,0.11 0.03,0.1 0.02,0.09 0.03,0.1 0.03,0.08 0.04,0.08 0.03,0.08 0.04,0.07 0.04,0.06 0.05,0.06 0.05,0.06 0.06,0.05 0.06,0.05 0.07,0.05 0.07,0.04 0.08,0.04 0.09,0.03 0.1,0.03 0.11,0.03 0.05,0.01 0.06,0.02 0.06,0.01 0.07,0.01 0.06,0.01 0.07,0.01 0.07,0 0.08,0.01 0.07,0.01 0.08,0 0.09,0.01 0.08,0.01 0.09,0 0.09,0 0.1,0.01 0.1,0 0.1,0 0.1,0.01 0.11,0 0.11,0 0.12,0 0.12,0 c 0.76,0 1.18,0 1.18,0.77 0,0.14 -0.1,0.49 -0.55,0.49 h -9.17 c -0.22,0 -0.74,0 -0.74,-0.77 0,-0.49 0.42,-0.49 1.12,-0.49 0.03,0 0.7,0 1.32,-0.07 0.74,-0.07 0.81,-0.14 0.81,-0.49 0,-0.03 0,-0.24 -0.14,-0.77 l -2.06,-8.22 h -11.68 l 2.02,8.09 c 0.32,1.18 0.38,1.46 3.07,1.46 0.59,0 1.05,0 1.05,0.77 0,0.14 -0.11,0.49 -0.56,0.49 h -9.18 c -0.2,0 -0.73,0 -0.73,-0.77 0,-0.49 0.42,-0.49 1.12,-0.49 0.04,0 0.7,0 1.33,-0.07 0.73,-0.07 0.8,-0.14 0.8,-0.49 0,-0.07 0,-0.24 -0.14,-0.77 l -4.64,-18.51 c -0.28,-1.18 -0.35,-1.47 -3.07,-1.47 -0.59,0 -1.04,0 -1.04,-0.73 0,-0.34 0.24,-0.52 0.56,-0.52 h 9.16 c 0.18,0 0.74,0 0.74,0.73 0,0.52 -0.35,0.52 -1.15,0.52 -0.56,0 -0.7,0 -1.33,0.07 -0.77,0.11 -0.77,0.18 -0.77,0.53 0,0.03 0,0.24 0.14,0.76 l 2.31,9.14 h 11.68 l -2.27,-9.03 c -0.28,-1.18 -0.35,-1.47 -3.07,-1.47 -0.59,0 -1.05,0 -1.05,-0.73 0,-0.34 0.25,-0.52 0.56,-0.52 h 9.17 c 0.18,0 0.73,0 0.73,0.73 0,0.52 -0.34,0.52 -1.14,0.52 -0.56,0 -0.7,0 -1.33,0.07 -0.77,0.11 -0.77,0.18 -0.77,0.53 0,0.21 0.11,0.56 0.14,0.76 z"
           id="path3804" /></g>    </g>
    <g
       transform="translate(-263.61081,13.491892)"
       id="g4147">
      <g
         style="font-style:normal;font-variant:normal;font-weight:normal;font-stretch:normal;letter-spacing:normal;word-spacing:normal;text-anchor:start;fill:none;stroke:#000000;stroke-linecap:butt;stroke-linejoin:miter;stroke-miterlimit:10.43299961;stroke-opacity:1;stroke-dasharray:none;stroke-dashoffset:0"
         id="g4149"
         transform="matrix(1.0971429,0,0,-1.0971429,-192,768)"
         xml:space="preserve"
         stroke-miterlimit="10.433"
         font-style="normal"
         font-variant="normal"
         font-weight="normal"
         font-stretch="normal"
         font-size-adjust="none"
         letter-spacing="normal"
         word-spacing="normal"><path
           style="fill:#000000;stroke-width:0"
           d="m 478.02,433.77 -0.04,0.06 -0.03,0.06 -0.03,0.05 -0.02,0.05 -0.03,0.06 -0.03,0.04 -0.03,0.05 -0.02,0.04 -0.03,0.05 -0.03,0.04 -0.02,0.03 -0.03,0.04 -0.03,0.03 -0.03,0.03 -0.03,0.03 -0.03,0.03 -0.04,0.03 -0.03,0.02 -0.04,0.02 -0.04,0.02 -0.04,0.02 -0.04,0.02 -0.05,0.02 -0.05,0.01 -0.05,0.01 -0.05,0.01 -0.06,0.01 -0.06,0.01 -0.07,0 -0.07,0.01 -0.07,0 -0.08,0 c -0.84,0 -0.94,-0.25 -1.29,-0.9 l -0.3,-4.09 13.4,-26.89 h -26.85 l 13.45,26.89 0.3,4.09 L 458.59,400 c -0.25,-0.45 -0.25,-0.55 -0.25,-0.6 0,-0.4 0.3,-0.4 1.1,-0.4 h 34.57 c 0.79,0 1.09,0 1.09,0.4 0,0.05 0,0.15 -0.24,0.6 z"
           id="path4151" /><path
           style="fill:#000000;stroke-width:0"
           d="m 501.38,401.94 -0.01,-0.07 -0.02,-0.08 -0.01,-0.07 -0.02,-0.08 -0.03,-0.16 -0.04,-0.16 -0.04,-0.16 -0.03,-0.16 -0.04,-0.16 -0.04,-0.16 -0.01,-0.08 -0.02,-0.07 -0.02,-0.07 -0.01,-0.07 -0.02,-0.07 -0.01,-0.07 -0.01,-0.06 -0.02,-0.06 -0.01,-0.05 -0.01,-0.06 -0.01,-0.05 0,-0.04 -0.01,-0.04 0,-0.04 -0.01,-0.03 0,-0.02 c 0,-0.9 0.7,-1.35 1.45,-1.35 0.6,0 1.5,0.4 1.84,1.4 0.05,0.1 0.65,2.44 0.95,3.68 l 1.1,4.49 c 0.29,1.09 0.59,2.19 0.84,3.34 0.2,0.84 0.6,2.28 0.65,2.48 0.75,1.55 3.39,6.08 8.12,6.08 2.24,0 2.69,-1.84 2.69,-3.49 0,-1.24 -0.35,-2.64 -0.75,-4.13 l -1.39,-5.78 -1,-3.79 c -0.2,-0.99 -0.65,-2.68 -0.65,-2.93 0,-0.9 0.7,-1.35 1.45,-1.35 1.54,0 1.84,1.25 2.24,2.84 0.7,2.79 2.54,10.07 2.99,12.01 0.15,0.65 2.79,6.62 8.22,6.62 2.14,0 2.69,-1.69 2.69,-3.49 0,-2.84 -2.1,-8.51 -3.09,-11.15 -0.45,-1.2 -0.65,-1.75 -0.65,-2.74 0,-2.34 1.75,-4.09 4.09,-4.09 4.68,0 6.52,7.28 6.52,7.67 0,0.5 -0.45,0.5 -0.59,0.5 -0.5,0 -0.5,-0.15 -0.75,-0.89 -0.75,-2.64 -2.35,-6.18 -5.08,-6.18 -0.85,0 -1.2,0.5 -1.2,1.64 0,1.25 0.45,2.44 0.9,3.54 0.95,2.59 3.03,8.12 3.03,10.96 0,3.24 -1.99,5.33 -5.72,5.33 -3.74,0 -6.28,-2.2 -8.12,-4.84 -0.05,0.65 -0.2,2.35 -1.6,3.54 -1.24,1.05 -2.84,1.3 -4.08,1.3 -4.48,0 -6.92,-3.19 -7.77,-4.34 -0.25,2.84 -2.34,4.34 -4.58,4.34 -2.3,0 -3.24,-1.95 -3.69,-2.84 -0.9,-1.75 -1.54,-4.68 -1.54,-4.83 0,-0.5 0.49,-0.5 0.59,-0.5 0.5,0 0.55,0.05 0.85,1.14 0.84,3.54 1.84,5.93 3.64,5.93 0.79,0 1.54,-0.4 1.54,-2.29 0,-1.04 -0.15,-1.59 -0.8,-4.18 z"
           id="path4153" /><path
           style="fill:#000000;stroke-width:0"
           d="m 558.61,423.35 h -1.19 c -0.1,-0.77 -0.45,-2.83 -0.9,-3.18 -0.28,-0.21 -2.97,-0.21 -3.45,-0.21 h -6.42 c 3.66,3.25 4.88,4.22 6.97,5.86 2.58,2.06 4.99,4.22 4.99,7.54 0,4.21 -3.7,6.79 -8.16,6.79 -4.33,0 -7.25,-3.03 -7.25,-6.24 0,-1.78 1.5,-1.95 1.84,-1.95 0.84,0 1.86,0.59 1.86,1.85 0,0.62 -0.25,1.85 -2.06,1.85 1.08,2.47 3.45,3.24 5.09,3.24 3.48,0 5.3,-2.72 5.3,-5.54 0,-3.04 -2.16,-5.45 -3.28,-6.7 l -8.4,-8.3 c -0.35,-0.31 -0.35,-0.38 -0.35,-1.36 h 14.36 z"
           id="path4155" /><path
           style="fill:#000000;stroke-width:0"
           d="m 570.32,406.99 0.03,0.12 0.03,0.11 0.03,0.11 0.03,0.1 0.02,0.09 0.03,0.1 0.03,0.08 0.04,0.08 0.03,0.08 0.04,0.07 0.04,0.06 0.05,0.06 0.05,0.06 0.06,0.05 0.06,0.05 0.07,0.05 0.07,0.04 0.08,0.04 0.09,0.03 0.1,0.03 0.11,0.03 0.05,0.01 0.06,0.02 0.06,0.01 0.07,0.01 0.06,0.01 0.07,0.01 0.07,0 0.08,0.01 0.07,0.01 0.08,0 0.09,0.01 0.08,0.01 0.09,0 0.09,0 0.1,0.01 0.1,0 0.1,0 0.1,0.01 0.11,0 0.11,0 0.12,0 0.12,0 c 0.76,0 1.18,0 1.18,0.77 0,0.14 -0.1,0.49 -0.55,0.49 h -9.17 c -0.22,0 -0.74,0 -0.74,-0.77 0,-0.49 0.42,-0.49 1.12,-0.49 0.03,0 0.7,0 1.32,-0.07 0.74,-0.07 0.81,-0.14 0.81,-0.49 0,-0.03 0,-0.24 -0.14,-0.77 l -2.06,-8.22 h -11.68 l 2.02,8.09 c 0.32,1.18 0.38,1.46 3.07,1.46 0.59,0 1.05,0 1.05,0.77 0,0.14 -0.11,0.49 -0.56,0.49 h -9.18 c -0.2,0 -0.73,0 -0.73,-0.77 0,-0.49 0.42,-0.49 1.12,-0.49 0.04,0 0.7,0 1.33,-0.07 0.73,-0.07 0.8,-0.14 0.8,-0.49 0,-0.07 0,-0.24 -0.14,-0.77 l -4.64,-18.51 c -0.28,-1.18 -0.35,-1.47 -3.07,-1.47 -0.59,0 -1.04,0 -1.04,-0.73 0,-0.34 0.24,-0.52 0.56,-0.52 h 9.16 c 0.18,0 0.74,0 0.74,0.73 0,0.52 -0.35,0.52 -1.15,0.52 -0.56,0 -0.7,0 -1.33,0.07 -0.77,0.11 -0.77,0.18 -0.77,0.53 0,0.03 0,0.24 0.14,0.76 l 2.31,9.14 h 11.68 l -2.27,-9.03 c -0.28,-1.18 -0.35,-1.47 -3.07,-1.47 -0.59,0 -1.05,0 -1.05,-0.73 0,-0.34 0.25,-0.52 0.56,-0.52 h 9.17 c 0.18,0 0.73,0 0.73,0.73 0,0.52 -0.34,0.52 -1.14,0.52 -0.56,0 -0.7,0 -1.33,0.07 -0.77,0.11 -0.77,0.18 -0.77,0.53 0,0.21 0.11,0.56 0.14,0.76 z"
           id="path4157" /><path
           style="fill:#000000;stroke-width:0"
           d="m 626.22,415.29 0.14,0 0.15,0 0.15,0.01 0.07,0 0.07,0 0.07,0.01 0.08,0.01 0.07,0.01 0.07,0.01 0.06,0.02 0.07,0.01 0.07,0.02 0.06,0.02 0.06,0.03 0.06,0.03 0.05,0.03 0.06,0.03 0.05,0.04 0.04,0.04 0.05,0.05 0.03,0.05 0.02,0.03 0.02,0.02 0.02,0.03 0.01,0.03 0.02,0.03 0.01,0.04 0.01,0.03 0.01,0.04 0.01,0.03 0.01,0.04 0.01,0.04 0,0.04 0.01,0.04 0,0.04 0,0.05 0,0.05 c 0,0.99 -0.94,0.99 -1.64,0.99 h -29.84 c -0.7,0 -1.64,0 -1.64,-0.99 0,-1 0.94,-1 1.69,-1 z"
           id="path4159" /><path
           style="fill:#000000;stroke-width:0"
           d="m 626.27,405.62 0.13,0.01 0.14,0 0.14,0 0.07,0.01 0.07,0 0.07,0.01 0.07,0.01 0.07,0.01 0.07,0.01 0.06,0.01 0.07,0.02 0.06,0.02 0.06,0.02 0.06,0.02 0.06,0.03 0.06,0.03 0.05,0.04 0.05,0.04 0.04,0.04 0.05,0.04 0.02,0.03 0.02,0.03 0.01,0.02 0.02,0.03 0.02,0.03 0.01,0.03 0.02,0.03 0.01,0.03 0.01,0.04 0.01,0.03 0.01,0.04 0.01,0.04 0.01,0.04 0,0.04 0.01,0.04 0,0.04 0,0.05 0,0.04 c 0,1 -0.94,1 -1.69,1 h -29.74 c -0.75,0 -1.69,0 -1.69,-1 0,-1 0.94,-1 1.64,-1 z"
           id="path4161" /><path
           style="fill:#000000;stroke-width:0"
           d="m 661.49,387.04 0,0.03 0,0.03 -0.01,0.01 0,0.02 0,0.01 -0.01,0.02 0,0.02 -0.01,0.01 -0.01,0.02 -0.01,0.02 -0.01,0.03 -0.01,0.02 -0.02,0.02 -0.02,0.03 -0.02,0.03 -0.02,0.03 -0.03,0.03 -0.03,0.04 -0.01,0.02 -0.02,0.02 -0.02,0.02 -0.02,0.02 -0.02,0.02 -0.02,0.03 -0.02,0.02 -0.02,0.02 -0.02,0.03 -0.03,0.02 -0.02,0.03 -0.03,0.03 -0.02,0.03 -0.03,0.03 -0.03,0.03 -0.03,0.03 -0.03,0.03 -0.03,0.03 -0.04,0.04 -0.03,0.03 -0.04,0.04 -0.03,0.03 -0.04,0.04 -0.04,0.04 c -6.23,6.28 -7.82,15.69 -7.82,23.31 0,8.67 1.9,17.34 8.02,23.57 0.65,0.59 0.65,0.69 0.65,0.84 0,0.35 -0.2,0.5 -0.5,0.5 -0.5,0 -4.98,-3.39 -7.92,-9.72 -2.54,-5.47 -3.14,-11 -3.14,-15.19 0,-3.88 0.55,-9.91 3.29,-15.54 2.99,-6.12 7.27,-9.36 7.77,-9.36 0.3,0 0.5,0.15 0.5,0.49 z"
           id="path4163" /><path
           style="fill:#000000;stroke-width:0"
           d="m 668.38,401.94 -0.01,-0.07 -0.02,-0.08 -0.01,-0.07 -0.02,-0.08 -0.03,-0.16 -0.04,-0.16 -0.04,-0.16 -0.03,-0.16 -0.04,-0.16 -0.04,-0.16 -0.01,-0.08 -0.02,-0.07 -0.02,-0.07 -0.01,-0.07 -0.02,-0.07 -0.01,-0.07 -0.01,-0.06 -0.02,-0.06 -0.01,-0.05 -0.01,-0.06 -0.01,-0.05 0,-0.04 -0.01,-0.04 0,-0.04 -0.01,-0.03 0,-0.02 c 0,-0.9 0.7,-1.35 1.45,-1.35 0.6,0 1.5,0.4 1.84,1.4 0.05,0.1 0.65,2.44 0.95,3.68 l 1.1,4.49 c 0.29,1.09 0.59,2.19 0.84,3.34 0.2,0.84 0.6,2.28 0.65,2.48 0.75,1.55 3.39,6.08 8.12,6.08 2.24,0 2.69,-1.84 2.69,-3.49 0,-1.24 -0.35,-2.64 -0.75,-4.13 l -1.39,-5.78 -1,-3.79 c -0.2,-0.99 -0.65,-2.68 -0.65,-2.93 0,-0.9 0.7,-1.35 1.45,-1.35 1.54,0 1.84,1.25 2.24,2.84 0.7,2.79 2.54,10.07 2.99,12.01 0.15,0.65 2.79,6.62 8.22,6.62 2.14,0 2.69,-1.69 2.69,-3.49 0,-2.84 -2.1,-8.51 -3.09,-11.15 -0.45,-1.2 -0.65,-1.75 -0.65,-2.74 0,-2.34 1.75,-4.09 4.09,-4.09 4.68,0 6.52,7.28 6.52,7.67 0,0.5 -0.45,0.5 -0.59,0.5 -0.5,0 -0.5,-0.15 -0.75,-0.89 -0.75,-2.64 -2.35,-6.18 -5.08,-6.18 -0.85,0 -1.2,0.5 -1.2,1.64 0,1.25 0.45,2.44 0.9,3.54 0.95,2.59 3.03,8.12 3.03,10.96 0,3.24 -1.99,5.33 -5.72,5.33 -3.74,0 -6.28,-2.2 -8.12,-4.84 -0.05,0.65 -0.2,2.35 -1.6,3.54 -1.24,1.05 -2.84,1.3 -4.08,1.3 -4.48,0 -6.93,-3.19 -7.77,-4.34 -0.25,2.84 -2.34,4.34 -4.58,4.34 -2.3,0 -3.24,-1.95 -3.69,-2.84 -0.9,-1.75 -1.54,-4.68 -1.54,-4.83 0,-0.5 0.49,-0.5 0.59,-0.5 0.5,0 0.55,0.05 0.85,1.14 0.84,3.54 1.84,5.93 3.64,5.93 0.79,0 1.54,-0.4 1.54,-2.29 0,-1.04 -0.15,-1.59 -0.8,-4.18 z"
           id="path4165" /><path
           style="fill:#000000;stroke-width:0"
           d="m 719.68,439.18 0,0.04 0,0.04 0,0.04 0,0.04 0,0.04 0,0.04 0,0.03 0,0.04 -0.01,0.03 0,0.03 0,0.04 0,0.03 -0.01,0.02 0,0.03 0,0.03 -0.01,0.03 0,0.02 0,0.02 -0.02,0.05 -0.01,0.04 -0.01,0.04 -0.02,0.03 -0.02,0.03 -0.02,0.03 -0.03,0.03 -0.02,0.02 -0.03,0.02 -0.04,0.02 -0.03,0.01 -0.04,0.01 -0.05,0.02 -0.05,0 -0.02,0.01 -0.03,0 -0.03,0.01 -0.02,0 -0.03,0 -0.03,0 -0.04,0 -0.03,0.01 -0.03,0 -0.04,0 -0.03,0 -0.04,0 -0.04,0 -0.04,0 -0.04,0 -0.04,0 -0.05,0 -0.04,0 c -2.24,-2.19 -5.41,-2.23 -6.84,-2.23 v -1.25 c 0.84,0 3.14,0 5.05,0.97 v -17.78 c 0,-1.15 0,-1.61 -3.48,-1.61 h -1.33 V 417 h 12.45 v 1.25 h -1.32 c -3.49,0 -3.49,0.46 -3.49,1.61 z"
           id="path4167" /><path
           style="fill:#000000;stroke-width:0"
           d="m 737.32,406.99 0.03,0.12 0.03,0.11 0.03,0.11 0.03,0.1 0.02,0.09 0.03,0.1 0.03,0.08 0.04,0.08 0.03,0.08 0.04,0.07 0.04,0.06 0.05,0.06 0.05,0.06 0.06,0.05 0.06,0.05 0.07,0.05 0.07,0.04 0.08,0.04 0.09,0.03 0.1,0.03 0.11,0.03 0.05,0.01 0.06,0.02 0.06,0.01 0.07,0.01 0.06,0.01 0.07,0.01 0.07,0 0.08,0.01 0.07,0.01 0.08,0 0.09,0.01 0.08,0.01 0.09,0 0.09,0 0.1,0.01 0.1,0 0.1,0 0.1,0.01 0.11,0 0.11,0 0.12,0 0.12,0 c 0.76,0 1.18,0 1.18,0.77 0,0.14 -0.1,0.49 -0.55,0.49 h -9.17 c -0.22,0 -0.74,0 -0.74,-0.77 0,-0.49 0.42,-0.49 1.12,-0.49 0.03,0 0.7,0 1.32,-0.07 0.74,-0.07 0.81,-0.14 0.81,-0.49 0,-0.03 0,-0.24 -0.14,-0.77 l -2.06,-8.22 h -11.68 l 2.02,8.09 c 0.32,1.18 0.38,1.46 3.07,1.46 0.59,0 1.05,0 1.05,0.77 0,0.14 -0.11,0.49 -0.56,0.49 h -9.18 c -0.2,0 -0.73,0 -0.73,-0.77 0,-0.49 0.42,-0.49 1.12,-0.49 0.04,0 0.7,0 1.33,-0.07 0.73,-0.07 0.8,-0.14 0.8,-0.49 0,-0.07 0,-0.24 -0.14,-0.77 l -4.64,-18.51 c -0.28,-1.18 -0.35,-1.47 -3.07,-1.47 -0.59,0 -1.04,0 -1.04,-0.73 0,-0.34 0.24,-0.52 0.56,-0.52 h 9.16 c 0.18,0 0.74,0 0.74,0.73 0,0.52 -0.35,0.52 -1.15,0.52 -0.56,0 -0.7,0 -1.33,0.07 -0.77,0.11 -0.77,0.18 -0.77,0.53 0,0.03 0,0.24 0.14,0.76 l 2.31,9.14 h 11.68 l -2.27,-9.03 c -0.28,-1.18 -0.35,-1.47 -3.07,-1.47 -0.59,0 -1.05,0 -1.05,-0.73 0,-0.34 0.25,-0.52 0.56,-0.52 h 9.17 c 0.18,0 0.73,0 0.73,0.73 0,0.52 -0.34,0.52 -1.14,0.52 -0.56,0 -0.7,0 -1.33,0.07 -0.77,0.11 -0.77,0.18 -0.77,0.53 0,0.21 0.11,0.56 0.14,0.76 z"
           id="path4169" /><path
           style="fill:#000000;stroke-width:0"
           d="m 760.4,411.45 -0.01,0.37 0,0.39 -0.01,0.39 -0.01,0.41 -0.04,0.84 -0.06,0.88 -0.09,0.92 -0.1,0.94 -0.14,0.98 -0.16,1 -0.2,1.02 -0.23,1.04 -0.27,1.05 -0.3,1.06 -0.35,1.06 -0.39,1.07 -0.22,0.53 -0.22,0.54 -0.24,0.53 -0.25,0.53 c -2.99,6.12 -7.27,9.36 -7.77,9.36 -0.3,0 -0.5,-0.2 -0.5,-0.5 0,-0.15 0,-0.25 0.94,-1.15 4.89,-4.92 7.73,-12.85 7.73,-23.26 0,-8.52 -1.85,-17.28 -8.02,-23.56 -0.65,-0.6 -0.65,-0.69 -0.65,-0.85 0,-0.29 0.2,-0.49 0.5,-0.49 0.5,0 4.98,3.38 7.92,9.71 2.54,5.48 3.14,11.01 3.14,15.19 z"
           id="path4171" /><path
           style="fill:#000000;stroke-width:0"
           d="m 782.61,434.35 h -1.19 c -0.1,-0.77 -0.45,-2.83 -0.9,-3.18 -0.28,-0.21 -2.97,-0.21 -3.45,-0.21 h -6.42 c 3.66,3.25 4.88,4.22 6.97,5.86 2.58,2.06 4.99,4.22 4.99,7.54 0,4.21 -3.7,6.79 -8.16,6.79 -4.33,0 -7.25,-3.03 -7.25,-6.24 0,-1.78 1.5,-1.95 1.84,-1.95 0.84,0 1.86,0.59 1.86,1.85 0,0.62 -0.25,1.85 -2.06,1.85 1.08,2.47 3.45,3.24 5.09,3.24 3.48,0 5.3,-2.72 5.3,-5.54 0,-3.04 -2.16,-5.45 -3.28,-6.7 l -8.4,-8.3 c -0.35,-0.31 -0.35,-0.38 -0.35,-1.36 h 14.36 z"
           id="path4173" /><path
           style="fill:#000000;stroke-width:0"
           d="m 831.83,410.46 0.16,0 0.16,0 0.15,0 0.08,0.01 0.08,0 0.07,0.01 0.08,0.01 0.07,0.01 0.07,0.01 0.07,0.01 0.07,0.02 0.06,0.02 0.07,0.02 0.06,0.03 0.05,0.02 0.06,0.04 0.05,0.03 0.05,0.04 0.05,0.04 0.04,0.05 0.04,0.05 0.01,0.02 0.02,0.03 0.02,0.03 0.01,0.03 0.02,0.03 0.01,0.04 0.01,0.03 0.01,0.03 0.01,0.04 0.01,0.04 0,0.04 0.01,0.04 0,0.04 0.01,0.04 0,0.05 0,0.04 c 0,1 -0.9,1 -1.74,1 h -26.95 c -0.85,0 -1.75,0 -1.75,-1 0,-0.99 0.9,-0.99 1.75,-0.99 z"
           id="path4175" /><path
           style="fill:#000000;stroke-width:0"
           d="m 865.49,387.04 0,0.03 0,0.03 -0.01,0.01 0,0.02 0,0.01 -0.01,0.02 0,0.02 -0.01,0.01 -0.01,0.02 -0.01,0.02 -0.01,0.03 -0.01,0.02 -0.02,0.02 -0.02,0.03 -0.02,0.03 -0.02,0.03 -0.03,0.03 -0.03,0.04 -0.01,0.02 -0.02,0.02 -0.02,0.02 -0.02,0.02 -0.02,0.02 -0.02,0.03 -0.02,0.02 -0.02,0.02 -0.02,0.03 -0.03,0.02 -0.02,0.03 -0.03,0.03 -0.02,0.03 -0.03,0.03 -0.03,0.03 -0.03,0.03 -0.03,0.03 -0.03,0.03 -0.04,0.04 -0.03,0.03 -0.04,0.04 -0.03,0.03 -0.04,0.04 -0.04,0.04 c -6.23,6.28 -7.82,15.69 -7.82,23.31 0,8.67 1.9,17.34 8.02,23.57 0.65,0.59 0.65,0.69 0.65,0.84 0,0.35 -0.2,0.5 -0.5,0.5 -0.5,0 -4.98,-3.39 -7.92,-9.72 -2.54,-5.47 -3.14,-11 -3.14,-15.19 0,-3.88 0.55,-9.91 3.29,-15.54 2.99,-6.12 7.27,-9.36 7.77,-9.36 0.3,0 0.5,0.15 0.5,0.49 z"
           id="path4177" /><path
           style="fill:#000000;stroke-width:0"
           d="m 872.38,401.94 -0.01,-0.07 -0.02,-0.08 -0.01,-0.07 -0.02,-0.08 -0.03,-0.16 -0.04,-0.16 -0.04,-0.16 -0.03,-0.16 -0.04,-0.16 -0.04,-0.16 -0.01,-0.08 -0.02,-0.07 -0.02,-0.07 -0.01,-0.07 -0.02,-0.07 -0.01,-0.07 -0.01,-0.06 -0.02,-0.06 -0.01,-0.05 -0.01,-0.06 -0.01,-0.05 0,-0.04 -0.01,-0.04 0,-0.04 -0.01,-0.03 0,-0.02 c 0,-0.9 0.7,-1.35 1.45,-1.35 0.6,0 1.5,0.4 1.84,1.4 0.05,0.1 0.65,2.44 0.95,3.68 l 1.1,4.49 c 0.29,1.09 0.59,2.19 0.84,3.34 0.2,0.84 0.6,2.28 0.65,2.48 0.75,1.55 3.39,6.08 8.12,6.08 2.24,0 2.69,-1.84 2.69,-3.49 0,-1.24 -0.35,-2.64 -0.75,-4.13 l -1.39,-5.78 -1,-3.79 c -0.2,-0.99 -0.65,-2.68 -0.65,-2.93 0,-0.9 0.7,-1.35 1.45,-1.35 1.54,0 1.84,1.25 2.24,2.84 0.7,2.79 2.54,10.07 2.99,12.01 0.15,0.65 2.79,6.62 8.22,6.62 2.14,0 2.69,-1.69 2.69,-3.49 0,-2.84 -2.1,-8.51 -3.09,-11.15 -0.45,-1.2 -0.65,-1.75 -0.65,-2.74 0,-2.34 1.75,-4.09 4.09,-4.09 4.68,0 6.52,7.28 6.52,7.67 0,0.5 -0.45,0.5 -0.59,0.5 -0.5,0 -0.5,-0.15 -0.75,-0.89 -0.75,-2.64 -2.35,-6.18 -5.08,-6.18 -0.85,0 -1.2,0.5 -1.2,1.64 0,1.25 0.45,2.44 0.9,3.54 0.95,2.59 3.03,8.12 3.03,10.96 0,3.24 -1.99,5.33 -5.72,5.33 -3.74,0 -6.28,-2.2 -8.12,-4.84 -0.05,0.65 -0.2,2.35 -1.6,3.54 -1.24,1.05 -2.84,1.3 -4.08,1.3 -4.48,0 -6.93,-3.19 -7.77,-4.34 -0.25,2.84 -2.34,4.34 -4.58,4.34 -2.3,0 -3.24,-1.95 -3.69,-2.84 -0.9,-1.75 -1.54,-4.68 -1.54,-4.83 0,-0.5 0.49,-0.5 0.59,-0.5 0.5,0 0.55,0.05 0.85,1.14 0.84,3.54 1.84,5.93 3.64,5.93 0.79,0 1.54,-0.4 1.54,-2.29 0,-1.04 -0.15,-1.59 -0.8,-4.18 z"
           id="path4179" /><path
           style="fill:#000000;stroke-width:0"
           d="m 929.99,428.12 0,0.71 -0.02,0.68 -0.03,0.66 -0.04,0.64 -0.06,0.62 -0.08,0.59 -0.09,0.58 -0.11,0.56 -0.12,0.55 -0.15,0.53 -0.17,0.51 -0.19,0.5 -0.21,0.49 -0.24,0.48 -0.26,0.47 -0.14,0.24 -0.15,0.23 c -1.08,1.6 -3.24,2.99 -6.03,2.99 v -0.97 c 1.88,0 3.7,-1.15 4.33,-3.18 0.55,-1.88 0.59,-4.39 0.59,-7.42 0,-2.58 0,-5.17 -0.45,-7.36 -0.7,-3.17 -3.07,-3.94 -4.47,-3.94 h 0 c -1.6,0 -3.73,0.94 -4.43,3.8 -0.49,2.06 -0.49,4.92 -0.49,7.5 0,2.54 0,5.19 0.53,7.11 0.73,2.76 2.96,3.49 4.39,3.49 v 0.97 c -8.09,0 -8.09,-9.52 -8.09,-12.03 0,-2.51 0,-11.82 8.09,-11.82 8.09,0 8.09,9.31 8.09,11.82 z"
           id="path4181" /><path
           style="fill:#000000;stroke-width:0"
           d="m 941.32,406.99 0.03,0.12 0.03,0.11 0.03,0.11 0.03,0.1 0.02,0.09 0.03,0.1 0.03,0.08 0.04,0.08 0.03,0.08 0.04,0.07 0.04,0.06 0.05,0.06 0.05,0.06 0.06,0.05 0.06,0.05 0.07,0.05 0.07,0.04 0.08,0.04 0.09,0.03 0.1,0.03 0.11,0.03 0.05,0.01 0.06,0.02 0.06,0.01 0.07,0.01 0.06,0.01 0.07,0.01 0.07,0 0.08,0.01 0.07,0.01 0.08,0 0.09,0.01 0.08,0.01 0.09,0 0.09,0 0.1,0.01 0.1,0 0.1,0 0.1,0.01 0.11,0 0.11,0 0.12,0 0.12,0 c 0.76,0 1.18,0 1.18,0.77 0,0.14 -0.1,0.49 -0.55,0.49 h -9.17 c -0.22,0 -0.74,0 -0.74,-0.77 0,-0.49 0.42,-0.49 1.12,-0.49 0.03,0 0.7,0 1.32,-0.07 0.74,-0.07 0.81,-0.14 0.81,-0.49 0,-0.03 0,-0.24 -0.14,-0.77 l -2.06,-8.22 h -11.68 l 2.02,8.09 c 0.32,1.18 0.38,1.46 3.07,1.46 0.59,0 1.05,0 1.05,0.77 0,0.14 -0.11,0.49 -0.56,0.49 h -9.18 c -0.2,0 -0.73,0 -0.73,-0.77 0,-0.49 0.42,-0.49 1.12,-0.49 0.04,0 0.7,0 1.33,-0.07 0.73,-0.07 0.8,-0.14 0.8,-0.49 0,-0.07 0,-0.24 -0.14,-0.77 l -4.64,-18.51 c -0.28,-1.18 -0.35,-1.47 -3.07,-1.47 -0.59,0 -1.04,0 -1.04,-0.73 0,-0.34 0.24,-0.52 0.56,-0.52 h 9.16 c 0.18,0 0.74,0 0.74,0.73 0,0.52 -0.35,0.52 -1.15,0.52 -0.56,0 -0.7,0 -1.33,0.07 -0.77,0.11 -0.77,0.18 -0.77,0.53 0,0.03 0,0.24 0.14,0.76 l 2.31,9.14 h 11.68 l -2.27,-9.03 c -0.28,-1.18 -0.35,-1.47 -3.07,-1.47 -0.59,0 -1.05,0 -1.05,-0.73 0,-0.34 0.25,-0.52 0.56,-0.52 h 9.17 c 0.18,0 0.73,0 0.73,0.73 0,0.52 -0.34,0.52 -1.14,0.52 -0.56,0 -0.7,0 -1.33,0.07 -0.77,0.11 -0.77,0.18 -0.77,0.53 0,0.21 0.11,0.56 0.14,0.76 z"
           id="path4183" /><path
           style="fill:#000000;stroke-width:0"
           d="m 963.4,411.45 -0.01,0.37 0,0.39 -0.01,0.39 -0.01,0.41 -0.04,0.84 -0.06,0.88 -0.09,0.92 -0.1,0.94 -0.14,0.98 -0.16,1 -0.2,1.02 -0.23,1.04 -0.27,1.05 -0.3,1.06 -0.35,1.06 -0.39,1.07 -0.22,0.53 -0.22,0.54 -0.24,0.53 -0.25,0.53 c -2.99,6.12 -7.27,9.36 -7.77,9.36 -0.3,0 -0.5,-0.2 -0.5,-0.5 0,-0.15 0,-0.25 0.94,-1.15 4.89,-4.92 7.73,-12.85 7.73,-23.26 0,-8.52 -1.85,-17.28 -8.02,-23.56 -0.65,-0.6 -0.65,-0.69 -0.65,-0.85 0,-0.29 0.2,-0.49 0.5,-0.49 0.5,0 4.98,3.38 7.92,9.71 2.54,5.48 3.14,11.01 3.14,15.19 z"
           id="path4185" /><path
           style="fill:#000000;stroke-width:0"
           d="m 986.61,434.35 h -1.19 c -0.1,-0.77 -0.45,-2.83 -0.9,-3.18 -0.28,-0.21 -2.97,-0.21 -3.45,-0.21 h -6.42 c 3.66,3.25 4.88,4.22 6.97,5.86 2.58,2.06 4.99,4.22 4.99,7.54 0,4.21 -3.7,6.79 -8.16,6.79 -4.33,0 -7.25,-3.03 -7.25,-6.24 0,-1.78 1.5,-1.95 1.84,-1.95 0.84,0 1.86,0.59 1.86,1.85 0,0.62 -0.25,1.85 -2.06,1.85 1.08,2.47 3.45,3.24 5.09,3.24 3.48,0 5.3,-2.72 5.3,-5.54 0,-3.04 -2.16,-5.45 -3.28,-6.7 l -8.4,-8.3 c -0.35,-0.31 -0.35,-0.38 -0.35,-1.36 h 14.36 z"
           id="path4187" /><path
           style="fill:#000000;stroke-width:0"
           d="m 1039.2,415.29 0.2,0 0.1,0 0.2,0.01 0,0 0.1,0 0.1,0.01 0,0.01 0.1,0.01 0.1,0.01 0.1,0.02 0,0.01 0.1,0.02 0,0.02 0.1,0.03 0.1,0.03 0,0.03 0.1,0.03 0,0.04 0.1,0.04 0,0.05 0.1,0.05 0,0.03 0,0.02 0,0.03 0,0.03 0,0.03 0,0.04 0.1,0.03 0,0.04 0,0.03 0,0.04 0,0.04 0,0.04 0,0.04 0,0.04 0,0.05 0,0.05 c 0,0.99 -0.9,0.99 -1.6,0.99 h -29.9 c -0.7,0 -1.6,0 -1.6,-0.99 0,-1 0.9,-1 1.7,-1 z"
           id="path4189" /><path
           style="fill:#000000;stroke-width:0"
           d="m 1039.3,405.62 0.1,0.01 0.1,0 0.2,0 0.1,0.01 0,0 0.1,0.01 0.1,0.01 0,0.01 0.1,0.01 0.1,0.01 0,0.02 0.1,0.02 0.1,0.02 0,0.02 0.1,0.03 0,0.03 0.1,0.04 0,0.04 0.1,0.04 0,0.04 0,0.03 0.1,0.03 0,0.02 0,0.03 0,0.03 0,0.03 0,0.03 0,0.03 0.1,0.04 0,0.03 0,0.04 0,0.04 0,0.04 0,0.04 0,0.04 0,0.04 0,0.05 0,0.04 c 0,1 -0.9,1 -1.7,1 h -29.7 c -0.8,0 -1.7,0 -1.7,-1 0,-1 0.9,-1 1.6,-1 z"
           id="path4191" /><path
           style="fill:#000000;stroke-width:0"
           d="m 1090.8,410.46 0.2,0 0.1,0 0.2,0 0.1,0.01 0.1,0 0,0.01 0.1,0.01 0.1,0.01 0,0.01 0.1,0.01 0.1,0.02 0.1,0.02 0,0.02 0.1,0.03 0,0.02 0.1,0.04 0,0.03 0.1,0.04 0,0.04 0.1,0.05 0,0.05 0,0.02 0.1,0.03 0,0.03 0,0.03 0,0.03 0,0.04 0,0.03 0,0.03 0,0.04 0,0.04 0.1,0.04 0,0.04 0,0.04 0,0.04 0,0.05 0,0.04 c 0,1 -0.9,1 -1.8,1 h -26.9 c -0.9,0 -1.8,0 -1.8,-1 0,-0.99 0.9,-0.99 1.8,-0.99 z"
           id="path4193" /><path
           style="fill:#000000;stroke-width:0"
           d="m 1108.8,449.79 0,0.05 0,0.05 0,0.06 0,0.05 0,0.11 0,0.06 0,0.06 0,0.05 -0.1,0.06 0,0.06 0,0.05 0,0.06 0,0.05 0,0.06 0,0.05 -0.1,0.05 0,0.05 0,0.05 0,0.04 -0.1,0.04 0,0.04 0,0.04 -0.1,0.02 0,0.01 0,0.02 0,0.01 -0.1,0.02 0,0.01 0,0.01 0,0.02 -0.1,0.01 0,0.01 0,0 -0.1,0.01 0,0.01 0,0 -0.1,0.01 0,0 0,0 -0.1,0 c -0.8,0 -0.8,-0.8 -0.8,-1.36 v -32.15 c 0,-0.52 0,-1.36 0.8,-1.36 0.9,0 0.9,0.81 0.9,1.36 z"
           id="path4195" /><path
           style="fill:#000000;stroke-width:0"
           d="m 1128.1,434.97 0.3,-0.75 0.4,-0.78 0.3,-0.78 0.3,-0.78 0.3,-0.78 0.4,-0.76 0.1,-0.37 0.2,-0.36 0.1,-0.36 0.2,-0.34 0.1,-0.34 0.1,-0.32 0.2,-0.31 0.1,-0.3 0.1,-0.28 0.1,-0.27 0.1,-0.25 0.1,-0.24 0.1,-0.21 0.1,-0.2 0.1,-0.17 0.1,-0.16 0.1,-0.13 0,-0.1 0.1,-0.09 0,-0.05 c 0.7,-0.84 1.3,-0.84 1.9,-0.84 h 0.7 c 0.6,0 1,0 1,0.42 0,0.17 -0.1,0.28 -0.2,0.35 -0.4,0.38 -0.8,1.19 -0.9,1.5 l -8.5,20.08 c -0.3,0.63 -1,2.2 -4.7,2.2 -0.4,0 -0.9,0 -0.9,-0.49 0,-0.42 0.4,-0.45 0.6,-0.49 0.7,-0.1 1.3,-0.21 2.2,-2.19 l 4.2,-9.77 -10.3,-9.27 c -0.4,-0.35 -0.7,-0.63 -0.7,-1.22 0,-0.84 0.7,-1.19 1.2,-1.19 0.6,0 1,0.46 1.1,0.56 z"
           id="path4197" /><path
           style="fill:#000000;stroke-width:0"
           d="m 1149.9,429.61 h 2.7 c 0.6,0 0.6,0.03 0.7,0.13 0.1,0.1 0.2,0.42 0.2,0.57 0,0.42 -0.4,0.42 -0.8,0.42 h -2.6 c 0.3,1.85 0.7,5.01 1.1,5.38 0.4,0.4 0.7,0.6 1.2,0.6 0.1,0 0.7,0 1.2,-0.27 -1,-0.42 -1,-1.32 -1,-1.42 0,-0.63 0.5,-1.02 1.1,-1.02 0.6,0 1.5,0.55 1.5,1.64 0,1.45 -1.6,1.92 -2.8,1.92 -3.2,0 -3.8,-3.01 -4,-4.09 -0.2,-1.07 -0.1,-0.4 -0.5,-2.74 h -2.3 c -0.4,0 -0.8,0 -0.8,-0.69 0,-0.43 0.3,-0.43 0.8,-0.43 h 2.1 c -0.5,-2.44 -1.5,-9.36 -2.2,-12 -0.2,-0.6 -0.7,-1.87 -1.7,-1.87 -0.2,0 -0.7,0.03 -1.2,0.25 0.7,0.3 1,0.92 1,1.44 0,0.63 -0.4,1.03 -1.1,1.03 -0.6,0 -1.5,-0.55 -1.5,-1.65 0,-1.52 1.8,-1.92 2.8,-1.92 1.4,0 2.5,1.15 3.1,1.92 1,1.4 1.5,4.71 1.6,4.78 z"
           id="path4199" /><path
           style="fill:#000000;stroke-width:0"
           d="m 1166.8,449.79 0,0.05 0,0.05 0,0.06 0,0.05 0,0.11 0,0.06 0,0.06 0,0.05 -0.1,0.06 0,0.06 0,0.05 0,0.06 0,0.05 0,0.06 0,0.05 -0.1,0.05 0,0.05 0,0.05 0,0.04 -0.1,0.04 0,0.04 0,0.04 -0.1,0.02 0,0.01 0,0.02 0,0.01 -0.1,0.02 0,0.01 0,0.01 0,0.02 -0.1,0.01 0,0.01 0,0 -0.1,0.01 0,0.01 0,0 -0.1,0.01 0,0 0,0 -0.1,0 c -0.8,0 -0.8,-0.8 -0.8,-1.36 v -32.15 c 0,-0.52 0,-1.36 0.8,-1.36 0.9,0 0.9,0.81 0.9,1.36 z"
           id="path4201" /><path
           style="fill:#000000;stroke-width:0"
           d="m 1186.7,444.81 h -1.1 c 0,-0.48 -0.3,-2.02 -0.7,-2.27 -0.2,-0.15 -2.3,-0.15 -2.7,-0.15 h -4.8 c 1.6,1.22 3.4,2.62 4.9,3.61 2.3,1.55 4.4,2.99 4.4,5.63 0,3.19 -3,4.96 -6.6,4.96 -3.4,0 -5.8,-1.95 -5.8,-4.39 0,-1.29 1.1,-1.52 1.4,-1.52 0.7,0 1.5,0.45 1.5,1.48 0,0.89 -0.7,1.39 -1.4,1.46 0.7,1.13 2.1,1.87 3.8,1.87 2.4,0 4.4,-1.44 4.4,-3.88 0,-2.09 -1.4,-3.69 -3.4,-5.31 l -6,-5.16 c -0.3,-0.22 -0.3,-0.22 -0.3,-0.39 V 440 h 11.5 z"
           id="path4203" /><polyline
           style="fill:#000000;fill-rule:nonzero;stroke-width:0"
           points="1102,411 1191.3,411 1191.3,413.04 1102,413.04 "
           id="polyline4205" /><path
           style="fill:#000000;stroke-width:0"
           d="m 1127.4,394.59 0.2,0.12 0.3,0.13 0.2,0.13 0.3,0.13 0.2,0.13 0.2,0.14 0.2,0.14 0.2,0.14 0.2,0.14 0.2,0.15 0.2,0.14 0.2,0.15 0.2,0.16 0.1,0.15 0.2,0.16 0.1,0.17 0.2,0.16 0.1,0.17 0.1,0.17 0.1,0.18 0.2,0.18 0.1,0.18 0,0.19 0.1,0.19 0.1,0.19 0.1,0.2 0,0.2 0.1,0.21 0,0.21 0,0.21 0,0.22 0,0.23 c 0,3.38 -3.5,5.19 -6.9,5.19 l 0,-1.01 c 2.7,0 5.1,-1.71 5.1,-4.18 0,-3.1 -3.6,-4.67 -3.7,-4.67 -0.1,0 -0.1,0.03 -0.4,0.17 l -4.2,2.44 c -0.9,0.52 -1.9,1.46 -1.9,2.76 0,2.19 2.6,3.48 5.1,3.48 l 0,1.01 c -3.8,0 -6.9,-2.51 -6.9,-5.82 0,-1.64 0.7,-2.83 1.4,-3.52 0.6,-0.74 0.8,-0.87 2.9,-2.1 -2,-0.83 -5.4,-2.71 -5.4,-6.37 0,-3.88 4,-6.04 8,-6.04 l 0,1.12 c -3.2,0 -5.9,2.06 -5.9,4.92 0,2.57 1.9,4.56 4.4,5.71 h 0 l 4.8,-2.75 c 0.9,-0.52 2.6,-1.57 2.6,-3.63 0,-2.61 -2.9,-4.25 -5.9,-4.25 l 0,-1.12 c 4.4,0 8,2.83 8,6.59 0,2.31 -1.3,4.26 -3.4,5.44 -0.4,0.28 -1.6,0.98 -2.1,1.26 z"
           id="path4207" /><path
           style="fill:#000000;stroke-width:0"
           d="m 1145.8,394.66 h 4.2 c -0.5,-2.09 -1.3,-5.27 -1.3,-8.02 0,-1.4 0.2,-2.34 0.4,-3.1 0.5,-1.75 1,-1.89 1.6,-1.89 0.8,0 1.6,0.73 1.6,1.57 0,0.28 -0.1,0.42 -0.3,0.77 -0.6,1.29 -1.3,3.28 -1.3,6.13 0,0.67 0,2.06 0.5,4.54 h 4.4 c 0.6,0 0.9,0 1.3,0.28 0.4,0.35 0.6,0.9 0.6,1.08 0,1.01 -0.9,1.01 -1.5,1.01 h -13.2 c -1.4,0 -2.4,-0.32 -4,-1.78 -0.9,-0.8 -2.2,-2.68 -2.2,-3 0,-0.42 0.4,-0.42 0.6,-0.42 0.4,0 0.4,0.07 0.6,0.38 1.8,2.45 3.9,2.45 4.7,2.45 h 2.1 c -1.1,-3.84 -2.9,-7.95 -4,-10.05 -0.2,-0.45 -0.5,-1.18 -0.7,-1.32 0,-0.14 -0.1,-0.28 -0.1,-0.52 0,-0.56 0.5,-1.12 1.3,-1.12 1.4,0 1.7,1.57 2.6,4.71 z"
           id="path4209" /><path
           style="fill:#000000;stroke-width:0"
           d="m 1173.7,396.81 h -1.1 c 0,-0.48 -0.3,-2.02 -0.7,-2.27 -0.2,-0.15 -2.3,-0.15 -2.7,-0.15 h -4.8 c 1.6,1.22 3.4,2.62 4.9,3.61 2.3,1.55 4.4,2.99 4.4,5.63 0,3.19 -3,4.96 -6.6,4.96 -3.4,0 -5.8,-1.95 -5.8,-4.39 0,-1.29 1.1,-1.52 1.4,-1.52 0.7,0 1.5,0.45 1.5,1.48 0,0.89 -0.7,1.39 -1.4,1.46 0.7,1.13 2.1,1.87 3.8,1.87 2.4,0 4.4,-1.44 4.4,-3.88 0,-2.09 -1.4,-3.69 -3.4,-5.31 l -6,-5.16 c -0.3,-0.22 -0.3,-0.22 -0.3,-0.39 V 392 h 11.5 z"
           id="path4211" /><path
           style="fill:#000000;stroke-width:0"
           d="m 1215.4,433.62 0,0.04 0,0.05 0,0.04 0,0.04 0,0.04 -0.1,0.04 0,0.07 0,0.07 0,0.06 -0.1,0.06 0,0.05 0,0.05 -0.1,0.05 0,0.05 0,0.04 -0.1,0.04 0,0.03 0,0.03 -0.1,0.03 0,0.02 0,0.03 -0.1,0.02 0,0.02 0,0.01 -0.1,0.02 0,0.01 0,0.01 -0.1,0.01 0,0 -0.1,0.01 0,0 -0.1,0 0,0.01 -0.1,0 0,0 c -0.8,0 -0.9,-0.2 -1.2,-1.05 l -9.5,-29.64 c -0.5,-1.49 -1.5,-3.44 -5,-3.44 V 399 h 10.3 v 1.54 c -2.7,0.05 -3.9,1.4 -3.9,2.59 0,0.25 0,0.4 0.3,1.1 l 7.4,23.21 7.9,-24.51 c 0.3,-0.69 0.3,-0.79 0.3,-0.89 0,-1.5 -3,-1.5 -4.3,-1.5 V 399 h 13.3 v 1.54 c -3.8,0 -3.9,0.3 -4.5,2.15 z"
           id="path4213" /><path
           style="fill:#000000;stroke-width:0"
           d="m 1249.6,423.35 h -1.2 c -0.1,-0.77 -0.4,-2.83 -0.9,-3.18 -0.3,-0.21 -2.9,-0.21 -3.4,-0.21 h -6.4 c 3.6,3.25 4.8,4.22 6.9,5.86 2.6,2.06 5,4.22 5,7.54 0,4.21 -3.7,6.79 -8.2,6.79 -4.3,0 -7.2,-3.03 -7.2,-6.24 0,-1.78 1.5,-1.95 1.8,-1.95 0.9,0 1.9,0.59 1.9,1.85 0,0.62 -0.2,1.85 -2.1,1.85 1.1,2.47 3.5,3.24 5.1,3.24 3.5,0 5.3,-2.72 5.3,-5.54 0,-3.04 -2.1,-5.45 -3.3,-6.7 l -8.3,-8.3 c -0.4,-0.31 -0.4,-0.38 -0.4,-1.36 h 14.4 z"
           id="path4215" /></g>    </g>
  </g>
  <g
     inkscape:groupmode="layer"
     id="layer3"
     inkscape:label="scalar"
     style="display:inline">
    <path
       transform="translate(0,-284.36218)"
       style="fill:none;stroke:#000000;stroke-width:1;stroke-linecap:butt;stroke-linejoin:miter;stroke-miterlimit:4;stroke-opacity:1;stroke-dasharray:8, 8;stroke-dashoffset:0;display:inline"
       d="m 306.68109,879.04326 337.29729,0"
       id="path2826-1"
       sodipodi:nodetypes="cc" />
    <path
       sodipodi:type="arc"
       style="color:#000000;fill:#ffffff;fill-opacity:0.97647059;fill-rule:evenodd;stroke:#0000ff;stroke-width:1;stroke-linecap:round;stroke-linejoin:round;stroke-miterlimit:4;stroke-opacity:1;stroke-dasharray:8, 8;stroke-dashoffset:0;marker:none;visibility:visible;display:inline;overflow:visible;enable-background:accumulate"
       id="path3602-8"
       sodipodi:cx="632.04321"
       sodipodi:cy="111.04865"
       sodipodi:rx="92.367569"
       sodipodi:ry="97.556755"
       d="m 724.41078,111.04865 a 92.367569,97.556755 0 1 1 -184.73514,0 92.367569,97.556755 0 1 1 184.73514,0 z"
       transform="translate(-165.01618,384)" />
    <text
       transform="translate(0,-284.36218)"
       xml:space="preserve"
       style="font-size:40px;font-style:italic;font-variant:normal;font-weight:normal;font-stretch:normal;text-align:start;line-height:100%;writing-mode:lr-tb;text-anchor:start;fill:#000000;fill-opacity:1;stroke:none;display:inline;font-family:Times New Roman;-inkscape-font-specification:Times New Roman Italic"
       x="266.59854"
       y="889.17194"
       id="text3606-0"
       sodipodi:linespacing="100%"><tspan
         sodipodi:role="line"
         id="tspan3608-7"
         x="266.59854"
         y="889.17194">H</tspan></text>
    <text
       transform="translate(0,-284.36218)"
       xml:space="preserve"
       style="font-size:40px;font-style:italic;font-variant:normal;font-weight:normal;font-stretch:normal;text-align:start;line-height:100%;writing-mode:lr-tb;text-anchor:start;fill:#000000;fill-opacity:1;stroke:none;display:inline;font-family:Times New Roman;-inkscape-font-specification:Times New Roman Italic"
       x="340.28503"
       y="721.04218"
       id="text3606-0-3"
       sodipodi:linespacing="100%"><tspan
         sodipodi:role="line"
         id="tspan3608-7-9"
         x="340.28503"
         y="721.04218">S</tspan></text>
  </g>
  <g
     inkscape:groupmode="layer"
     id="layer6"
     inkscape:label="scalar_label"
     style="display:inline">
    <g
       style="display:inline"
       transform="translate(-232.47568,362.20541)"
       id="g4808">
      <g
         style="font-style:normal;font-variant:normal;font-weight:normal;font-stretch:normal;letter-spacing:normal;word-spacing:normal;text-anchor:start;fill:none;stroke:#000000;stroke-linecap:butt;stroke-linejoin:miter;stroke-miterlimit:10.43299961;stroke-opacity:1;stroke-dasharray:none;stroke-dashoffset:0"
         id="g4810"
         transform="matrix(1.0971429,0,0,-1.0971429,-192,768)"
         xml:space="preserve"
         stroke-miterlimit="10.433"
         font-style="normal"
         font-variant="normal"
         font-weight="normal"
         font-stretch="normal"
         font-size-adjust="none"
         letter-spacing="normal"
         word-spacing="normal"><path
           style="fill:#000000;stroke-width:0"
           d="m 478.02,435.77 -0.04,0.06 -0.03,0.06 -0.03,0.05 -0.02,0.05 -0.03,0.06 -0.03,0.04 -0.03,0.05 -0.02,0.04 -0.03,0.05 -0.03,0.04 -0.02,0.03 -0.03,0.04 -0.03,0.03 -0.03,0.03 -0.03,0.03 -0.03,0.03 -0.04,0.03 -0.03,0.02 -0.04,0.02 -0.04,0.02 -0.04,0.02 -0.04,0.02 -0.05,0.02 -0.05,0.01 -0.05,0.01 -0.05,0.01 -0.06,0.01 -0.06,0.01 -0.07,0 -0.07,0.01 -0.07,0 -0.08,0 c -0.84,0 -0.94,-0.25 -1.29,-0.9 l -0.3,-4.09 13.4,-26.89 h -26.85 l 13.45,26.89 0.3,4.09 L 458.59,402 c -0.25,-0.45 -0.25,-0.55 -0.25,-0.6 0,-0.4 0.3,-0.4 1.1,-0.4 h 34.57 c 0.79,0 1.09,0 1.09,0.4 0,0.05 0,0.15 -0.24,0.6 z"
           id="path4812" /><path
           style="fill:#000000;stroke-width:0"
           d="m 501.38,403.94 -0.01,-0.07 -0.02,-0.08 -0.01,-0.07 -0.02,-0.08 -0.03,-0.16 -0.04,-0.16 -0.04,-0.16 -0.03,-0.16 -0.04,-0.16 -0.04,-0.16 -0.01,-0.08 -0.02,-0.07 -0.02,-0.07 -0.01,-0.07 -0.02,-0.07 -0.01,-0.07 -0.01,-0.06 -0.02,-0.06 -0.01,-0.05 -0.01,-0.06 -0.01,-0.05 0,-0.04 -0.01,-0.04 0,-0.04 -0.01,-0.03 0,-0.02 c 0,-0.9 0.7,-1.35 1.45,-1.35 0.6,0 1.5,0.4 1.84,1.4 0.05,0.1 0.65,2.44 0.95,3.68 l 1.1,4.49 c 0.29,1.09 0.59,2.19 0.84,3.34 0.2,0.84 0.6,2.28 0.65,2.48 0.75,1.55 3.39,6.08 8.12,6.08 2.24,0 2.69,-1.84 2.69,-3.49 0,-1.24 -0.35,-2.64 -0.75,-4.13 l -1.39,-5.78 -1,-3.79 c -0.2,-0.99 -0.65,-2.68 -0.65,-2.93 0,-0.9 0.7,-1.35 1.45,-1.35 1.54,0 1.84,1.25 2.24,2.84 0.7,2.79 2.54,10.07 2.99,12.01 0.15,0.65 2.79,6.62 8.22,6.62 2.14,0 2.69,-1.69 2.69,-3.49 0,-2.84 -2.1,-8.51 -3.09,-11.15 -0.45,-1.2 -0.65,-1.75 -0.65,-2.74 0,-2.34 1.75,-4.09 4.09,-4.09 4.68,0 6.52,7.28 6.52,7.67 0,0.5 -0.45,0.5 -0.59,0.5 -0.5,0 -0.5,-0.15 -0.75,-0.89 -0.75,-2.64 -2.35,-6.18 -5.08,-6.18 -0.85,0 -1.2,0.5 -1.2,1.64 0,1.25 0.45,2.44 0.9,3.54 0.95,2.59 3.03,8.12 3.03,10.96 0,3.24 -1.99,5.33 -5.72,5.33 -3.74,0 -6.28,-2.2 -8.12,-4.84 -0.05,0.65 -0.2,2.35 -1.6,3.54 -1.24,1.05 -2.84,1.3 -4.08,1.3 -4.48,0 -6.92,-3.19 -7.77,-4.34 -0.25,2.84 -2.34,4.34 -4.58,4.34 -2.3,0 -3.24,-1.95 -3.69,-2.84 -0.9,-1.75 -1.54,-4.68 -1.54,-4.83 0,-0.5 0.49,-0.5 0.59,-0.5 0.5,0 0.55,0.05 0.85,1.14 0.84,3.54 1.84,5.93 3.64,5.93 0.79,0 1.54,-0.4 1.54,-2.29 0,-1.04 -0.15,-1.59 -0.8,-4.18 z"
           id="path4814" /><path
           style="fill:#000000;stroke-width:0"
           d="m 558.61,425.35 h -1.19 c -0.1,-0.77 -0.45,-2.83 -0.9,-3.18 -0.28,-0.21 -2.97,-0.21 -3.45,-0.21 h -6.42 c 3.66,3.25 4.88,4.22 6.97,5.86 2.58,2.06 4.99,4.22 4.99,7.54 0,4.21 -3.7,6.79 -8.16,6.79 -4.33,0 -7.25,-3.03 -7.25,-6.24 0,-1.78 1.5,-1.95 1.84,-1.95 0.84,0 1.86,0.59 1.86,1.85 0,0.62 -0.25,1.85 -2.06,1.85 1.08,2.47 3.45,3.24 5.09,3.24 3.48,0 5.3,-2.72 5.3,-5.54 0,-3.04 -2.16,-5.45 -3.28,-6.7 l -8.4,-8.3 c -0.35,-0.31 -0.35,-0.38 -0.35,-1.36 h 14.36 z"
           id="path4816" /><path
           style="fill:#000000;stroke-width:0"
           d="m 570.32,407.99 0.03,0.12 0.03,0.11 0.03,0.11 0.03,0.1 0.02,0.09 0.03,0.1 0.03,0.08 0.04,0.08 0.03,0.08 0.04,0.07 0.04,0.06 0.05,0.06 0.05,0.06 0.06,0.05 0.06,0.05 0.07,0.05 0.07,0.04 0.08,0.04 0.09,0.03 0.1,0.03 0.11,0.03 0.05,0.01 0.06,0.02 0.06,0.01 0.07,0.01 0.06,0.01 0.07,0.01 0.07,0 0.08,0.01 0.07,0.01 0.08,0 0.09,0.01 0.08,0.01 0.09,0 0.09,0 0.1,0.01 0.1,0 0.1,0 0.1,0.01 0.11,0 0.11,0 0.12,0 0.12,0 c 0.76,0 1.18,0 1.18,0.77 0,0.14 -0.1,0.49 -0.55,0.49 h -9.17 c -0.22,0 -0.74,0 -0.74,-0.77 0,-0.49 0.42,-0.49 1.12,-0.49 0.03,0 0.7,0 1.32,-0.07 0.74,-0.07 0.81,-0.14 0.81,-0.49 0,-0.03 0,-0.24 -0.14,-0.77 l -2.06,-8.22 h -11.68 l 2.02,8.09 c 0.32,1.18 0.38,1.46 3.07,1.46 0.59,0 1.05,0 1.05,0.77 0,0.14 -0.11,0.49 -0.56,0.49 h -9.18 c -0.2,0 -0.73,0 -0.73,-0.77 0,-0.49 0.42,-0.49 1.12,-0.49 0.04,0 0.7,0 1.33,-0.07 0.73,-0.07 0.8,-0.14 0.8,-0.49 0,-0.07 0,-0.24 -0.14,-0.77 l -4.64,-18.51 c -0.28,-1.18 -0.35,-1.47 -3.07,-1.47 -0.59,0 -1.04,0 -1.04,-0.73 0,-0.34 0.24,-0.52 0.56,-0.52 h 9.16 c 0.18,0 0.74,0 0.74,0.73 0,0.52 -0.35,0.52 -1.15,0.52 -0.56,0 -0.7,0 -1.33,0.07 -0.77,0.11 -0.77,0.18 -0.77,0.53 0,0.03 0,0.24 0.14,0.76 l 2.31,9.14 h 11.68 l -2.27,-9.03 c -0.28,-1.18 -0.35,-1.47 -3.07,-1.47 -0.59,0 -1.05,0 -1.05,-0.73 0,-0.34 0.25,-0.52 0.56,-0.52 h 9.17 c 0.18,0 0.73,0 0.73,0.73 0,0.52 -0.34,0.52 -1.14,0.52 -0.56,0 -0.7,0 -1.33,0.07 -0.77,0.11 -0.77,0.18 -0.77,0.53 0,0.21 0.11,0.56 0.14,0.76 z"
           id="path4818" /><path
           style="fill:#000000;stroke-width:0"
           d="m 626.22,417.29 0.14,0 0.15,0 0.15,0.01 0.07,0 0.07,0 0.07,0.01 0.08,0.01 0.07,0.01 0.07,0.01 0.06,0.02 0.07,0.01 0.07,0.02 0.06,0.02 0.06,0.03 0.06,0.03 0.05,0.03 0.06,0.03 0.05,0.04 0.04,0.04 0.05,0.05 0.03,0.05 0.02,0.03 0.02,0.02 0.02,0.03 0.01,0.03 0.02,0.03 0.01,0.04 0.01,0.03 0.01,0.04 0.01,0.03 0.01,0.04 0.01,0.04 0,0.04 0.01,0.04 0,0.04 0,0.05 0,0.05 c 0,0.99 -0.94,0.99 -1.64,0.99 h -29.84 c -0.7,0 -1.64,0 -1.64,-0.99 0,-1 0.94,-1 1.69,-1 z"
           id="path4820" /><path
           style="fill:#000000;stroke-width:0"
           d="m 626.27,407.62 0.13,0.01 0.14,0 0.14,0 0.07,0.01 0.07,0 0.07,0.01 0.07,0.01 0.07,0.01 0.07,0.01 0.06,0.01 0.07,0.02 0.06,0.02 0.06,0.02 0.06,0.02 0.06,0.03 0.06,0.03 0.05,0.04 0.05,0.04 0.04,0.04 0.05,0.04 0.02,0.03 0.02,0.03 0.01,0.02 0.02,0.03 0.02,0.03 0.01,0.03 0.02,0.03 0.01,0.03 0.01,0.04 0.01,0.03 0.01,0.04 0.01,0.04 0.01,0.04 0,0.04 0.01,0.04 0,0.04 0,0.05 0,0.04 c 0,1 -0.94,1 -1.69,1 h -29.74 c -0.75,0 -1.69,0 -1.69,-1 0,-1 0.94,-1 1.64,-1 z"
           id="path4822" /><path
           style="fill:#000000;stroke-width:0"
           d="m 657.77,449.79 0,0.05 0,0.05 0,0.06 -0.01,0.05 0,0.11 0,0.06 -0.01,0.06 0,0.05 -0.01,0.06 -0.01,0.06 -0.01,0.05 -0.01,0.06 -0.01,0.05 -0.02,0.06 -0.02,0.05 -0.02,0.05 -0.02,0.05 -0.03,0.05 -0.03,0.04 -0.03,0.04 -0.04,0.04 -0.03,0.04 -0.03,0.02 -0.02,0.01 -0.02,0.02 -0.02,0.01 -0.03,0.02 -0.02,0.01 -0.03,0.01 -0.03,0.02 -0.02,0.01 -0.03,0.01 -0.03,0 -0.04,0.01 -0.03,0.01 -0.03,0 -0.04,0.01 -0.03,0 -0.04,0 -0.04,0 c -0.88,0 -0.88,-0.8 -0.88,-1.36 v -32.15 c 0,-0.52 0,-1.36 0.85,-1.36 0.87,0 0.87,0.81 0.87,1.36 z"
           id="path4824" /><path
           style="fill:#000000;stroke-width:0"
           d="m 677.09,434.97 0.33,-0.75 0.33,-0.78 0.33,-0.78 0.33,-0.78 0.33,-0.78 0.31,-0.76 0.16,-0.37 0.15,-0.36 0.15,-0.36 0.14,-0.34 0.15,-0.34 0.13,-0.32 0.13,-0.31 0.13,-0.3 0.12,-0.28 0.12,-0.27 0.11,-0.25 0.1,-0.24 0.1,-0.21 0.09,-0.2 0.08,-0.17 0.08,-0.16 0.06,-0.13 0.06,-0.1 0.05,-0.09 0.04,-0.05 c 0.66,-0.84 1.29,-0.84 1.85,-0.84 h 0.7 c 0.66,0 1.01,0 1.01,0.42 0,0.17 -0.11,0.28 -0.17,0.35 -0.43,0.38 -0.77,1.19 -0.91,1.5 L 675.17,447 c -0.24,0.63 -0.94,2.2 -4.64,2.2 -0.42,0 -0.91,0 -0.91,-0.49 0,-0.42 0.35,-0.45 0.53,-0.49 0.73,-0.1 1.39,-0.21 2.26,-2.19 l 4.15,-9.77 -10.28,-9.27 c -0.42,-0.35 -0.7,-0.63 -0.7,-1.22 0,-0.84 0.7,-1.19 1.19,-1.19 0.66,0 1.08,0.46 1.18,0.56 z"
           id="path4826" /><path
           style="fill:#000000;stroke-width:0"
           d="m 707.38,437.21 -0.01,0 0,0 0,0.01 0,0 0,0 0,0.01 0,0.01 0,0.01 0,0.01 0,0.02 0,0.01 -0.01,0.01 0,0.02 -0.01,0.01 0,0.02 -0.01,0.01 -0.01,0.02 0,0.01 -0.01,0.02 -0.02,0.01 -0.01,0.02 -0.01,0.01 -0.01,0.01 -0.01,0.01 -0.01,0.01 0,0 -0.01,0.01 -0.01,0.01 -0.01,0 -0.01,0.01 -0.01,0 -0.01,0.01 -0.02,0 -0.01,0.01 -0.01,0 -0.01,0.01 -0.02,0 -0.01,0 -0.02,0.01 -0.01,0 -0.02,0 -0.01,0.01 -0.02,0 -0.02,0 -0.01,0 -0.02,0 c -0.2,0 -0.23,-0.02 -0.53,-0.35 -0.3,-0.3 -1.02,-1.12 -1.32,-1.44 -0.62,0.79 -1.99,1.79 -4.63,1.79 -3.91,0 -7.27,-2.72 -7.27,-5.51 0,-1.79 1.37,-3.09 3.26,-3.61 0.27,-0.07 2.36,-0.49 2.89,-0.6 2.14,-0.44 2.59,-0.54 3.26,-1.09 0.6,-0.47 0.95,-1.12 0.95,-1.89 0,-2 -2.39,-4.29 -5.75,-4.29 -1.82,0 -5.54,0.38 -5.54,3.44 0,0.35 0.05,0.72 0.13,1.07 0.02,0.1 0.05,0.13 0.05,0.2 0,0.37 -0.35,0.37 -0.52,0.37 -0.33,0 -0.45,-0.02 -0.58,-0.49 l -1.22,-4.96 c 0,-0.05 -0.1,-0.38 -0.1,-0.4 0,-0.05 0.03,-0.35 0.43,-0.35 0.15,0 0.17,0.03 0.52,0.35 0.3,0.3 1,1.07 1.27,1.37 1.42,-1.37 3.59,-1.72 5.48,-1.72 4.16,0 7.45,3.07 7.45,5.98 0,1.82 -1.35,3.36 -3.39,3.86 -0.32,0.07 -2.69,0.57 -3.26,0.67 -1.72,0.38 -2.15,0.45 -2.89,1.02 -0.5,0.4 -0.83,0.98 -0.83,1.65 0,1.94 2.52,3.88 5.59,3.88 2.21,0 4.6,-0.8 4.6,-3.91 0,-0.4 -0.05,-0.74 -0.05,-0.89 0,-0.35 0.37,-0.35 0.5,-0.35 0.45,0 0.45,0.05 0.57,0.52 z"
           id="path4828" /><path
           style="fill:#000000;stroke-width:0"
           d="m 717.77,449.79 0,0.05 0,0.05 0,0.06 -0.01,0.05 0,0.11 0,0.06 -0.01,0.06 0,0.05 -0.01,0.06 -0.01,0.06 -0.01,0.05 -0.01,0.06 -0.01,0.05 -0.02,0.06 -0.02,0.05 -0.02,0.05 -0.02,0.05 -0.03,0.05 -0.03,0.04 -0.03,0.04 -0.04,0.04 -0.03,0.04 -0.03,0.02 -0.02,0.01 -0.02,0.02 -0.02,0.01 -0.03,0.02 -0.02,0.01 -0.03,0.01 -0.03,0.02 -0.02,0.01 -0.03,0.01 -0.03,0 -0.04,0.01 -0.03,0.01 -0.03,0 -0.04,0.01 -0.03,0 -0.04,0 -0.04,0 c -0.88,0 -0.88,-0.8 -0.88,-1.36 v -32.15 c 0,-0.52 0,-1.36 0.85,-1.36 0.87,0 0.87,0.81 0.87,1.36 z"
           id="path4830" /><path
           style="fill:#000000;stroke-width:0"
           d="m 737.67,444.81 h -1.05 c -0.07,-0.48 -0.32,-2.02 -0.72,-2.27 -0.2,-0.15 -2.29,-0.15 -2.66,-0.15 h -4.89 c 1.65,1.22 3.49,2.62 4.99,3.61 2.24,1.55 4.33,2.99 4.33,5.63 0,3.19 -3.01,4.96 -6.58,4.96 -3.36,0 -5.82,-1.95 -5.82,-4.39 0,-1.29 1.09,-1.52 1.44,-1.52 0.67,0 1.47,0.45 1.47,1.48 0,0.89 -0.65,1.39 -1.42,1.46 0.7,1.13 2.14,1.87 3.81,1.87 2.42,0 4.43,-1.44 4.43,-3.88 0,-2.09 -1.44,-3.69 -3.35,-5.31 l -6.08,-5.16 c -0.25,-0.22 -0.28,-0.22 -0.3,-0.39 V 440 h 11.58 z"
           id="path4832" /><polyline
           style="fill:#000000;fill-rule:nonzero;stroke-width:0"
           points="651,412 742.92,412 742.92,414.04 651,414.04 "
           id="polyline4834" /><path
           style="fill:#000000;stroke-width:0"
           d="m 677.38,396.59 0.25,0.12 0.25,0.13 0.24,0.13 0.23,0.13 0.23,0.13 0.22,0.14 0.22,0.14 0.2,0.14 0.21,0.14 0.19,0.15 0.19,0.14 0.18,0.15 0.17,0.16 0.16,0.15 0.16,0.16 0.15,0.17 0.14,0.16 0.14,0.17 0.12,0.17 0.12,0.18 0.11,0.18 0.1,0.18 0.09,0.19 0.08,0.19 0.07,0.19 0.06,0.2 0.06,0.2 0.04,0.21 0.04,0.21 0.02,0.21 0.02,0.22 0,0.23 c 0,3.38 -3.52,5.19 -6.9,5.19 l -0.07,-1.01 c 2.72,0 5.12,-1.71 5.12,-4.18 0,-3.1 -3.62,-4.67 -3.69,-4.67 -0.07,0 -0.14,0.03 -0.39,0.17 l -4.21,2.44 c -0.91,0.52 -1.89,1.46 -1.89,2.76 0,2.19 2.54,3.48 5.06,3.48 l 0.07,1.01 c -3.84,0 -6.97,-2.51 -6.97,-5.82 0,-1.64 0.76,-2.83 1.39,-3.52 0.62,-0.74 0.87,-0.87 2.93,-2.1 -1.95,-0.83 -5.41,-2.71 -5.41,-6.37 0,-3.88 4.02,-6.04 7.99,-6.04 l 0.07,1.12 c -3.21,0 -5.96,2.06 -5.96,4.92 0,2.57 1.92,4.56 4.42,5.71 h 0 l 4.78,-2.75 c 0.91,-0.52 2.65,-1.57 2.65,-3.63 0,-2.61 -2.89,-4.25 -5.89,-4.25 l -0.07,-1.12 c 4.43,0 8.05,2.83 8.05,6.59 0,2.31 -1.36,4.26 -3.38,5.44 -0.45,0.28 -1.67,0.98 -2.16,1.26 z"
           id="path4836" /><path
           style="fill:#000000;stroke-width:0"
           d="m 695.84,396.66 h 4.15 c -0.52,-2.09 -1.29,-5.27 -1.29,-8.02 0,-1.4 0.18,-2.34 0.39,-3.1 0.56,-1.75 1.01,-1.89 1.57,-1.89 0.8,0 1.64,0.73 1.64,1.57 0,0.28 -0.07,0.42 -0.28,0.77 -0.67,1.29 -1.29,3.28 -1.29,6.13 0,0.67 0,2.06 0.49,4.54 h 4.35 c 0.63,0 0.91,0 1.29,0.28 0.49,0.35 0.6,0.9 0.6,1.08 0,1.01 -0.91,1.01 -1.5,1.01 h -13.15 c -1.43,0 -2.4,-0.32 -3.97,-1.78 -0.91,-0.8 -2.27,-2.68 -2.27,-3 0,-0.42 0.45,-0.42 0.59,-0.42 0.39,0 0.42,0.07 0.63,0.38 1.78,2.45 3.94,2.45 4.71,2.45 h 2.12 c -1.08,-3.84 -2.96,-7.95 -4.01,-10.05 -0.2,-0.45 -0.56,-1.18 -0.66,-1.32 -0.03,-0.14 -0.1,-0.28 -0.1,-0.52 0,-0.56 0.42,-1.12 1.22,-1.12 1.39,0 1.77,1.57 2.61,4.71 z"
           id="path4838" /><path
           style="fill:#000000;stroke-width:0"
           d="m 723.67,397.81 h -1.05 c -0.07,-0.48 -0.32,-2.02 -0.72,-2.27 -0.2,-0.15 -2.29,-0.15 -2.66,-0.15 h -4.89 c 1.65,1.22 3.49,2.62 4.99,3.61 2.24,1.55 4.33,2.99 4.33,5.63 0,3.19 -3.01,4.96 -6.58,4.96 -3.36,0 -5.82,-1.95 -5.82,-4.39 0,-1.29 1.09,-1.52 1.44,-1.52 0.67,0 1.47,0.45 1.47,1.48 0,0.89 -0.65,1.39 -1.42,1.46 0.7,1.13 2.14,1.87 3.81,1.87 2.42,0 4.43,-1.44 4.43,-3.88 0,-2.09 -1.44,-3.69 -3.35,-5.31 l -6.08,-5.16 c -0.25,-0.22 -0.28,-0.22 -0.3,-0.39 V 393 h 11.58 z"
           id="path4840" /><polygon
           style="fill:#000000;stroke-width:0"
           points="776.62,385.26 769.05,385.26 769.05,441 776.62,441 776.62,442.99 767.06,442.99 767.06,383.27 776.62,383.27 "
           id="polygon4842" /><path
           style="fill:#000000;stroke-width:0"
           d="m 796.43,435.62 -0.01,0.04 -0.02,0.05 -0.01,0.04 -0.02,0.04 -0.01,0.04 -0.01,0.04 -0.03,0.07 -0.03,0.07 -0.03,0.06 -0.03,0.06 -0.03,0.05 -0.03,0.05 -0.03,0.05 -0.03,0.05 -0.03,0.04 -0.03,0.04 -0.03,0.03 -0.04,0.03 -0.03,0.03 -0.03,0.02 -0.04,0.03 -0.03,0.02 -0.04,0.02 -0.04,0.01 -0.04,0.02 -0.04,0.01 -0.04,0.01 -0.04,0.01 -0.04,0 -0.05,0.01 -0.04,0 -0.05,0 -0.05,0.01 -0.04,0 -0.06,0 c -0.79,0 -0.89,-0.2 -1.14,-1.05 l -9.57,-29.64 c -0.49,-1.49 -1.49,-3.44 -4.98,-3.44 V 401 h 10.26 v 1.54 c -2.69,0.05 -3.83,1.4 -3.83,2.59 0,0.25 0,0.4 0.25,1.1 l 7.47,23.21 7.87,-24.51 c 0.25,-0.69 0.25,-0.79 0.25,-0.89 0,-1.5 -2.94,-1.5 -4.24,-1.5 V 401 h 13.31 v 1.54 c -3.79,0 -3.94,0.3 -4.53,2.15 z"
           id="path4844" /><path
           style="fill:#000000;stroke-width:0"
           d="m 829.61,425.35 h -1.19 c -0.1,-0.77 -0.45,-2.83 -0.9,-3.18 -0.28,-0.21 -2.97,-0.21 -3.45,-0.21 h -6.42 c 3.66,3.25 4.88,4.22 6.97,5.86 2.58,2.06 4.99,4.22 4.99,7.54 0,4.21 -3.7,6.79 -8.16,6.79 -4.33,0 -7.25,-3.03 -7.25,-6.24 0,-1.78 1.5,-1.95 1.84,-1.95 0.84,0 1.86,0.59 1.86,1.85 0,0.62 -0.25,1.85 -2.06,1.85 1.08,2.47 3.45,3.24 5.09,3.24 3.48,0 5.3,-2.72 5.3,-5.54 0,-3.04 -2.16,-5.45 -3.28,-6.7 l -8.4,-8.3 c -0.35,-0.31 -0.35,-0.38 -0.35,-1.36 h 14.36 z"
           id="path4846" /><path
           style="fill:#000000;stroke-width:0"
           d="m 878.83,412.46 0.16,0 0.16,0 0.15,0 0.08,0.01 0.08,0 0.07,0.01 0.08,0.01 0.07,0.01 0.07,0.01 0.07,0.01 0.07,0.02 0.06,0.02 0.07,0.02 0.06,0.03 0.05,0.02 0.06,0.04 0.05,0.03 0.05,0.04 0.05,0.04 0.04,0.05 0.04,0.05 0.01,0.02 0.02,0.03 0.02,0.03 0.01,0.03 0.02,0.03 0.01,0.04 0.01,0.03 0.01,0.03 0.01,0.04 0.01,0.04 0,0.04 0.01,0.04 0,0.04 0.01,0.04 0,0.05 0,0.04 c 0,1 -0.9,1 -1.74,1 h -26.95 c -0.85,0 -1.75,0 -1.75,-1 0,-0.99 0.9,-0.99 1.75,-0.99 z"
           id="path4848" /><path
           style="fill:#000000;stroke-width:0"
           d="m 902.33,404.84 5.27,5.12 c 7.78,6.88 10.77,9.57 10.77,14.55 0,5.68 -4.49,9.67 -10.57,9.67 -5.62,0 -9.31,-4.59 -9.31,-9.02 0,-2.79 2.49,-2.79 2.64,-2.79 0.85,0 2.59,0.6 2.59,2.64 0,1.29 -0.9,2.59 -2.64,2.59 -0.4,0 -0.5,0 -0.65,-0.05 1.15,3.24 3.84,5.08 6.73,5.08 4.53,0 6.67,-4.03 6.67,-8.12 0,-3.98 -2.49,-7.92 -5.23,-11.01 l -9.56,-10.66 c -0.55,-0.54 -0.55,-0.64 -0.55,-1.84 h 18.48 l 1.4,8.67 h -1.25 c -0.25,-1.5 -0.6,-3.69 -1.1,-4.44 -0.34,-0.39 -3.63,-0.39 -4.73,-0.39 z"
           id="path4850" /><path
           style="fill:#000000;stroke-width:0"
           d="m 925.38,403.94 -0.01,-0.07 -0.02,-0.08 -0.01,-0.07 -0.02,-0.08 -0.03,-0.16 -0.04,-0.16 -0.04,-0.16 -0.03,-0.16 -0.04,-0.16 -0.04,-0.16 -0.01,-0.08 -0.02,-0.07 -0.02,-0.07 -0.01,-0.07 -0.02,-0.07 -0.01,-0.07 -0.01,-0.06 -0.02,-0.06 -0.01,-0.05 -0.01,-0.06 -0.01,-0.05 0,-0.04 -0.01,-0.04 0,-0.04 -0.01,-0.03 0,-0.02 c 0,-0.9 0.7,-1.35 1.45,-1.35 0.6,0 1.5,0.4 1.84,1.4 0.05,0.1 0.65,2.44 0.95,3.68 l 1.1,4.49 c 0.29,1.09 0.59,2.19 0.84,3.34 0.2,0.84 0.6,2.28 0.65,2.48 0.75,1.55 3.39,6.08 8.12,6.08 2.24,0 2.69,-1.84 2.69,-3.49 0,-1.24 -0.35,-2.64 -0.75,-4.13 l -1.39,-5.78 -1,-3.79 c -0.2,-0.99 -0.65,-2.68 -0.65,-2.93 0,-0.9 0.7,-1.35 1.45,-1.35 1.54,0 1.84,1.25 2.24,2.84 0.7,2.79 2.54,10.07 2.99,12.01 0.15,0.65 2.79,6.62 8.22,6.62 2.14,0 2.69,-1.69 2.69,-3.49 0,-2.84 -2.1,-8.51 -3.09,-11.15 -0.45,-1.2 -0.65,-1.75 -0.65,-2.74 0,-2.34 1.75,-4.09 4.09,-4.09 4.68,0 6.52,7.28 6.52,7.67 0,0.5 -0.45,0.5 -0.59,0.5 -0.5,0 -0.5,-0.15 -0.75,-0.89 -0.75,-2.64 -2.35,-6.18 -5.08,-6.18 -0.85,0 -1.2,0.5 -1.2,1.64 0,1.25 0.45,2.44 0.9,3.54 0.95,2.59 3.03,8.12 3.03,10.96 0,3.24 -1.99,5.33 -5.72,5.33 -3.74,0 -6.28,-2.2 -8.12,-4.84 -0.05,0.65 -0.2,2.35 -1.6,3.54 -1.24,1.05 -2.84,1.3 -4.08,1.3 -4.48,0 -6.93,-3.19 -7.77,-4.34 -0.25,2.84 -2.34,4.34 -4.58,4.34 -2.3,0 -3.24,-1.95 -3.69,-2.84 -0.9,-1.75 -1.54,-4.68 -1.54,-4.83 0,-0.5 0.49,-0.5 0.59,-0.5 0.5,0 0.55,0.05 0.85,1.14 0.84,3.54 1.84,5.93 3.64,5.93 0.79,0 1.54,-0.4 1.54,-2.29 0,-1.04 -0.15,-1.59 -0.8,-4.18 z"
           id="path4852" /><path
           style="fill:#000000;stroke-width:0"
           d="m 981.61,425.35 h -1.19 c -0.1,-0.77 -0.45,-2.83 -0.9,-3.18 -0.28,-0.21 -2.97,-0.21 -3.45,-0.21 h -6.42 c 3.66,3.25 4.88,4.22 6.97,5.86 2.58,2.06 4.99,4.22 4.99,7.54 0,4.21 -3.7,6.79 -8.16,6.79 -4.33,0 -7.25,-3.03 -7.25,-6.24 0,-1.78 1.5,-1.95 1.84,-1.95 0.84,0 1.86,0.59 1.86,1.85 0,0.62 -0.25,1.85 -2.06,1.85 1.08,2.47 3.45,3.24 5.09,3.24 3.48,0 5.3,-2.72 5.3,-5.54 0,-3.04 -2.16,-5.45 -3.28,-6.7 l -8.4,-8.3 c -0.35,-0.31 -0.35,-0.38 -0.35,-1.36 h 14.36 z"
           id="path4854" /><path
           style="fill:#000000;stroke-width:0"
           d="m 988.76,411.06 0,0.02 0,0.01 0,0.02 -0.01,0.02 0,0.02 0,0.02 -0.01,0.01 0,0.02 -0.01,0.02 -0.01,0.02 -0.01,0.02 0,0.02 -0.01,0.02 -0.01,0.02 -0.02,0.01 -0.01,0.02 -0.01,0.02 -0.02,0.01 -0.01,0.02 -0.02,0.01 -0.02,0.02 -0.02,0.01 -0.02,0.01 -0.02,0.02 -0.02,0.01 -0.02,0.01 -0.03,0 -0.03,0.01 -0.01,0 -0.01,0 -0.02,0.01 -0.01,0 -0.02,0 -0.01,0 -0.02,0 -0.02,0 c -0.21,0 -0.24,-0.03 -0.7,-0.49 l -1.7,-1.98 c -1.33,1.85 -3.52,2.47 -5.65,2.47 -4.92,0 -9.28,-3.97 -9.28,-7.98 0,-0.53 0.11,-1.92 1.15,-3.21 1.19,-1.39 2.48,-1.71 4.85,-2.27 0.7,-0.17 2.44,-0.55 2.96,-0.69 1.12,-0.28 3.25,-1.05 3.25,-3.66 0,-2.83 -2.96,-6.14 -6.94,-6.14 -3.07,0 -6.77,1.08 -6.77,4.95 0,0.35 0.07,1.11 0.21,1.74 0.04,0.14 0.04,0.18 0.04,0.21 0,0.45 -0.42,0.45 -0.56,0.45 -0.49,0 -0.52,-0.07 -0.66,-0.69 l -1.78,-6.98 c -0.04,-0.13 -0.11,-0.35 -0.11,-0.52 0,-0.21 0.14,-0.42 0.49,-0.42 0.21,0 0.25,0.04 0.7,0.49 0.38,0.42 1.29,1.53 1.67,1.95 1.85,-2.02 4.57,-2.44 6.66,-2.44 5.27,0 9.52,4.54 9.52,8.65 0,1.53 -0.62,2.93 -1.39,3.73 -1.22,1.26 -1.74,1.39 -6.24,2.44 -0.74,0.18 -1.89,0.45 -2.2,0.56 -0.87,0.31 -2.34,1.19 -2.34,3.17 0,2.76 3.11,5.55 6.74,5.55 3.76,0 5.57,-2.13 5.57,-5.44 0,-0.46 -0.14,-1.26 -0.14,-1.57 0,-0.49 0.42,-0.49 0.6,-0.49 0.52,0 0.55,0.17 0.7,0.77 z"
           id="path4856" /><path
           style="fill:#000000;stroke-width:0"
           d="m 1009.8,435.57 -7.2,-0.55 v -1.54 c 3.5,0 3.9,-0.35 3.9,-2.79 v -25.9 c 0,-2.25 -0.5,-2.25 -3.9,-2.25 V 401 h 11.1 v 1.54 c -3.3,0 -3.9,0 -3.9,2.25 z"
           id="path4858" /><path
           style="fill:#000000;stroke-width:0"
           d="m 1020.5,418.14 v -13.35 c 0,-2.25 -0.6,-2.25 -3.9,-2.25 V 401 h 11.2 v 1.54 c -3.3,0 -3.9,0 -3.9,2.25 v 9.16 c 0,5.18 3.5,7.97 6.7,7.97 3.2,0 3.7,-2.69 3.7,-5.53 v -11.6 c 0,-2.25 -0.5,-2.25 -3.9,-2.25 V 401 h 11.3 v 1.54 c -2.6,0 -3.9,0 -3.9,1.5 v 9.51 c 0,4.29 0,5.83 -1.6,7.63 -0.7,0.84 -2.3,1.84 -5.2,1.84 -3.6,0 -6,-2.14 -7.4,-5.23 v 5.23 l -7,-0.55 v -1.54 c 3.5,0 3.9,-0.35 3.9,-2.79 z"
           id="path4860" /><path
           style="fill:#000000;stroke-width:0"
           d="m 1059.5,389.04 0,0.03 0,0.03 0,0.01 0,0.02 0,0.01 0,0.02 0,0.02 0,0.01 0,0.02 -0.1,0.02 0,0.03 0,0.02 0,0.02 0,0.03 0,0.03 -0.1,0.03 0,0.03 0,0.04 0,0.02 -0.1,0.02 0,0.02 0,0.02 0,0.02 0,0.03 0,0.02 -0.1,0.02 0,0.03 0,0.02 0,0.03 -0.1,0.03 0,0.03 0,0.03 0,0.03 -0.1,0.03 0,0.03 0,0.03 -0.1,0.04 0,0.03 0,0.04 -0.1,0.03 0,0.04 -0.1,0.04 c -6.2,6.28 -7.8,15.69 -7.8,23.31 0,8.67 1.9,17.34 8,23.57 0.7,0.59 0.7,0.69 0.7,0.84 0,0.35 -0.2,0.5 -0.5,0.5 -0.5,0 -5,-3.39 -7.9,-9.72 -2.6,-5.47 -3.2,-11 -3.2,-15.19 0,-3.88 0.6,-9.91 3.3,-15.54 3,-6.12 7.3,-9.36 7.8,-9.36 0.3,0 0.5,0.15 0.5,0.49 z"
           id="path4862" /><path
           style="fill:#000000;stroke-width:0"
           d="m 1080.4,435.62 0,0.04 0,0.05 0,0.04 0,0.04 0,0.04 -0.1,0.04 0,0.07 0,0.07 0,0.06 -0.1,0.06 0,0.05 0,0.05 -0.1,0.05 0,0.05 0,0.04 -0.1,0.04 0,0.03 0,0.03 -0.1,0.03 0,0.02 0,0.03 -0.1,0.02 0,0.02 0,0.01 -0.1,0.02 0,0.01 0,0.01 -0.1,0.01 0,0 -0.1,0.01 0,0 -0.1,0 0,0.01 -0.1,0 0,0 c -0.8,0 -0.9,-0.2 -1.2,-1.05 l -9.5,-29.64 c -0.5,-1.49 -1.5,-3.44 -5,-3.44 V 401 h 10.3 v 1.54 c -2.7,0.05 -3.9,1.4 -3.9,2.59 0,0.25 0,0.4 0.3,1.1 l 7.4,23.21 7.9,-24.51 c 0.3,-0.69 0.3,-0.79 0.3,-0.89 0,-1.5 -3,-1.5 -4.3,-1.5 V 401 h 13.3 v 1.54 c -3.8,0 -3.9,0.3 -4.5,2.15 z"
           id="path4864" /><path
           style="fill:#000000;stroke-width:0"
           d="m 1118.9,436.47 0,0.03 0,0.03 0,0.03 0,0.02 0,0.03 0,0.03 0.1,0.05 0,0.05 0,0.05 0,0.04 0,0.04 0,0.04 0,0.04 0,0.04 0.1,0.03 0,0.03 0,0.03 0,0.03 0,0.03 0,0.02 0,0.03 0,0.02 0,0.02 0,0.02 0,0.01 0,0.02 0,0.01 0,0.02 0,0.01 0,0.01 0,0.01 0,0 0,0.01 0,0.01 0,0 c 0,0.55 -0.4,1 -1,1 -0.3,0 -0.7,-0.15 -0.8,-0.45 L 1100,390.44 c -0.3,-0.65 -0.3,-0.85 -0.3,-0.9 0,-0.54 0.5,-0.99 1,-0.99 0.7,0 0.8,0.34 1.1,1.19 z"
           id="path4866" /><path
           style="fill:#000000;stroke-width:0"
           d="m 1126.4,403.94 0,-0.07 0,-0.08 -0.1,-0.07 0,-0.08 0,-0.16 -0.1,-0.16 0,-0.16 0,-0.16 -0.1,-0.16 0,-0.16 0,-0.08 0,-0.07 -0.1,-0.07 0,-0.07 0,-0.07 0,-0.07 0,-0.06 0,-0.06 0,-0.05 0,-0.06 0,-0.05 -0.1,-0.04 0,-0.04 0,-0.04 0,-0.03 0,-0.02 c 0,-0.9 0.7,-1.35 1.5,-1.35 0.6,0 1.5,0.4 1.8,1.4 0.1,0.1 0.7,2.44 1,3.68 l 1.1,4.49 c 0.3,1.09 0.6,2.19 0.8,3.34 0.2,0.84 0.6,2.28 0.7,2.48 0.7,1.55 3.4,6.08 8.1,6.08 2.2,0 2.7,-1.84 2.7,-3.49 0,-1.24 -0.4,-2.64 -0.8,-4.13 l -1.4,-5.78 -1,-3.79 c -0.2,-0.99 -0.6,-2.68 -0.6,-2.93 0,-0.9 0.7,-1.35 1.4,-1.35 1.6,0 1.9,1.25 2.3,2.84 0.7,2.79 2.5,10.07 3,12.01 0.1,0.65 2.7,6.62 8.2,6.62 2.1,0 2.7,-1.69 2.7,-3.49 0,-2.84 -2.1,-8.51 -3.1,-11.15 -0.5,-1.2 -0.7,-1.75 -0.7,-2.74 0,-2.34 1.8,-4.09 4.1,-4.09 4.7,0 6.5,7.28 6.5,7.67 0,0.5 -0.4,0.5 -0.6,0.5 -0.5,0 -0.5,-0.15 -0.7,-0.89 -0.7,-2.64 -2.3,-6.18 -5.1,-6.18 -0.8,0 -1.2,0.5 -1.2,1.64 0,1.25 0.5,2.44 0.9,3.54 1,2.59 3.1,8.12 3.1,10.96 0,3.24 -2,5.33 -5.8,5.33 -3.7,0 -6.2,-2.2 -8.1,-4.84 0,0.65 -0.2,2.35 -1.6,3.54 -1.2,1.05 -2.8,1.3 -4.1,1.3 -4.4,0 -6.9,-3.19 -7.7,-4.34 -0.3,2.84 -2.4,4.34 -4.6,4.34 -2.3,0 -3.3,-1.95 -3.7,-2.84 -0.9,-1.75 -1.6,-4.68 -1.6,-4.83 0,-0.5 0.5,-0.5 0.6,-0.5 0.5,0 0.6,0.05 0.9,1.14 0.8,3.54 1.8,5.93 3.6,5.93 0.8,0 1.6,-0.4 1.6,-2.29 0,-1.04 -0.2,-1.59 -0.8,-4.18 z"
           id="path4868" /><path
           style="fill:#000000;stroke-width:0"
           d="m 1189.8,417.06 0,0.02 0,0.01 0,0.02 0,0.02 0,0.02 -0.1,0.02 0,0.01 0,0.02 0,0.02 0,0.02 0,0.02 0,0.02 0,0.02 0,0.02 0,0.01 0,0.02 -0.1,0.02 0,0.01 0,0.02 0,0.01 0,0.02 0,0.01 -0.1,0.01 0,0.02 0,0.01 0,0.01 -0.1,0 0,0.01 0,0 0,0 0,0.01 0,0 -0.1,0 0,0 0,0 0,0 c -0.2,0 -0.2,-0.03 -0.7,-0.49 l -1.7,-1.98 c -1.3,1.85 -3.5,2.47 -5.7,2.47 -4.9,0 -9.2,-3.97 -9.2,-7.98 0,-0.53 0.1,-1.92 1.1,-3.21 1.2,-1.39 2.5,-1.71 4.9,-2.27 0.7,-0.17 2.4,-0.55 2.9,-0.69 1.2,-0.28 3.3,-1.05 3.3,-3.66 0,-2.83 -3,-6.14 -7,-6.14 -3,0 -6.7,1.08 -6.7,4.95 0,0.35 0,1.11 0.2,1.74 0,0.14 0,0.18 0,0.21 0,0.45 -0.4,0.45 -0.5,0.45 -0.5,0 -0.6,-0.07 -0.7,-0.69 l -1.8,-6.98 c 0,-0.13 -0.1,-0.35 -0.1,-0.52 0,-0.21 0.2,-0.42 0.5,-0.42 0.2,0 0.2,0.04 0.7,0.49 0.4,0.42 1.3,1.53 1.7,1.95 1.8,-2.02 4.5,-2.44 6.6,-2.44 5.3,0 9.6,4.54 9.6,8.65 0,1.53 -0.7,2.93 -1.4,3.73 -1.3,1.26 -1.8,1.39 -6.3,2.44 -0.7,0.18 -1.9,0.45 -2.2,0.56 -0.9,0.31 -2.3,1.19 -2.3,3.17 0,2.76 3.1,5.55 6.7,5.55 3.8,0 5.6,-2.13 5.6,-5.44 0,-0.46 -0.1,-1.26 -0.1,-1.57 0,-0.49 0.4,-0.49 0.5,-0.49 0.6,0 0.6,0.17 0.7,0.77 z"
           id="path4870" /><path
           style="fill:#000000;stroke-width:0"
           d="m 1208.4,413.45 0,0.37 0,0.39 0,0.39 0,0.41 -0.1,0.84 0,0.88 -0.1,0.92 -0.1,0.94 -0.2,0.98 -0.1,1 -0.2,1.02 -0.2,1.04 -0.3,1.05 -0.3,1.06 -0.4,1.06 -0.4,1.07 -0.2,0.53 -0.2,0.54 -0.2,0.53 -0.3,0.53 c -3,6.12 -7.3,9.36 -7.8,9.36 -0.3,0 -0.5,-0.2 -0.5,-0.5 0,-0.15 0,-0.25 1,-1.15 4.9,-4.92 7.7,-12.85 7.7,-23.26 0,-8.52 -1.8,-17.28 -8,-23.56 -0.7,-0.6 -0.7,-0.69 -0.7,-0.85 0,-0.29 0.2,-0.49 0.5,-0.49 0.5,0 5,3.38 8,9.71 2.5,5.48 3.1,11.01 3.1,15.19 z"
           id="path4872" /><polygon
           style="fill:#000000;stroke-width:0"
           points="1215.1,442.99 1215.1,441 1222.7,441 1222.7,385.26 1215.1,385.26 1215.1,383.27 1224.7,383.27 1224.7,442.99 "
           id="polygon4874" /></g>    </g>
  </g>
  <g
     inkscape:groupmode="layer"
     id="layer4"
     inkscape:label="cancel"
     style="display:inline">
    <path
       style="fill:none;stroke:#fd0000;stroke-width:5;stroke-linecap:butt;stroke-linejoin:miter;stroke-miterlimit:4;stroke-opacity:1;stroke-dasharray:none"
       d="M 732.71351,405.79459 912.25946,247.00541"
       id="path4660" />
    <path
       style="fill:none;stroke:#fd0000;stroke-width:5;stroke-linecap:butt;stroke-linejoin:miter;stroke-miterlimit:4;stroke-opacity:1;stroke-dasharray:none"
       d="M 356.49729,759.17838 536.04324,600.3892"
       id="path4660-0" />
    <g
       id="g5178"
       transform="translate(332.10811,199.26486)"
       style="fill:#ff0000;fill-opacity:1;display:inline">
      <g
         word-spacing="normal"
         letter-spacing="normal"
         font-size-adjust="none"
         font-stretch="normal"
         font-weight="normal"
         font-variant="normal"
         font-style="normal"
         stroke-miterlimit="10.433"
         xml:space="preserve"
         transform="matrix(1.0971429,0,0,-1.0971429,-192,768)"
         id="content"
         style="font-style:normal;font-variant:normal;font-weight:normal;font-stretch:normal;letter-spacing:normal;word-spacing:normal;text-anchor:start;fill:#ff0000;fill-opacity:1;stroke:#000000;stroke-linecap:butt;stroke-linejoin:miter;stroke-miterlimit:10.43299961;stroke-opacity:1;stroke-dasharray:none;stroke-dashoffset:0"><path
           id="path5181"
           d="m 473.79,420.55 0.19,-0.5 0.19,-0.51 0.39,-1.05 0.4,-1.08 0.39,-1.1 0.39,-1.1 0.38,-1.09 0.38,-1.07 0.18,-0.52 0.18,-0.51 0.18,-0.5 0.17,-0.49 0.17,-0.47 0.17,-0.46 0.16,-0.43 0.15,-0.42 0.15,-0.4 0.14,-0.37 0.13,-0.34 0.13,-0.32 0.12,-0.29 0.11,-0.27 0.11,-0.23 0.1,-0.19 0.09,-0.17 0.08,-0.12 c 0.79,-1.1 1.29,-1.1 2.63,-1.1 h 1.1 c 0.5,0.05 0.55,0.35 0.55,0.5 0,0.15 -0.1,0.25 -0.25,0.45 -0.5,0.55 -0.8,1.3 -1.15,2.29 l -10.16,28.35 c -1.04,2.88 -3.74,3.53 -6.08,3.53 -0.25,0 -0.89,0 -0.89,-0.55 0,-0.4 0.39,-0.5 0.44,-0.5 1.65,-0.29 2,-0.59 3.24,-3.98 l 4.84,-13.55 -13.75,-13.65 c -0.6,-0.6 -0.9,-0.89 -0.9,-1.54 0,-0.85 0.7,-1.45 1.49,-1.45 0.8,0 1.25,0.55 1.65,1.05 z"
           style="fill:#ff0000;fill-opacity:1;stroke-width:0" /><path
           id="path5183"
           d="m 499.19,412.77 h 3.42 c 0.69,0 1.15,0 1.15,0.77 0,0.49 -0.46,0.49 -1.08,0.49 h -3.24 c 0.8,4.43 1.08,6.03 1.36,7.04 0.17,0.77 0.94,1.5 1.77,1.5 0.04,0 0.98,0 1.64,-0.42 -1.42,-0.45 -1.53,-1.7 -1.53,-1.92 0,-0.76 0.59,-1.28 1.39,-1.28 0.95,0 1.99,0.8 1.99,2.12 0,1.61 -1.71,2.48 -3.49,2.48 -1.53,0 -3.24,-0.87 -4.18,-2.62 -0.7,-1.29 -0.98,-2.86 -1.71,-6.9 h -2.75 c -0.7,0 -1.15,0 -1.15,-0.77 0,-0.49 0.45,-0.49 1.08,-0.49 h 2.58 c -0.04,-0.21 -2.23,-12.76 -3.07,-16.49 -0.17,-0.77 -0.77,-3.42 -2.44,-3.42 -0.04,0 -0.88,0 -1.54,0.42 1.43,0.45 1.54,1.71 1.54,1.92 0,0.76 -0.59,1.29 -1.4,1.29 -0.94,0 -1.98,-0.8 -1.98,-2.13 0,-1.57 1.63,-2.47 3.38,-2.47 2.23,0 3.77,2.3 4.18,3.07 1.26,2.33 2.06,6.62 2.13,7.04 z"
           style="fill:#ff0000;fill-opacity:1;stroke-width:0" /><path
           id="path5185"
           d="m 558.22,422.29 0.14,0 0.15,0 0.15,0.01 0.07,0 0.07,0 0.07,0.01 0.08,0.01 0.07,0.01 0.07,0.01 0.06,0.02 0.07,0.01 0.07,0.02 0.06,0.02 0.06,0.03 0.06,0.03 0.05,0.03 0.06,0.03 0.05,0.04 0.04,0.04 0.05,0.05 0.03,0.05 0.02,0.03 0.02,0.02 0.02,0.03 0.01,0.03 0.02,0.03 0.01,0.04 0.01,0.03 0.01,0.04 0.01,0.03 0.01,0.04 0.01,0.04 0,0.04 0.01,0.04 0,0.04 0,0.05 0,0.05 c 0,0.99 -0.94,0.99 -1.64,0.99 h -29.84 c -0.7,0 -1.64,0 -1.64,-0.99 0,-1 0.94,-1 1.69,-1 z"
           style="fill:#ff0000;fill-opacity:1;stroke-width:0" /><path
           id="path5187"
           d="m 558.27,412.62 0.13,0.01 0.14,0 0.14,0 0.07,0.01 0.07,0 0.07,0.01 0.07,0.01 0.07,0.01 0.07,0.01 0.06,0.01 0.07,0.02 0.06,0.02 0.06,0.02 0.06,0.02 0.06,0.03 0.06,0.03 0.05,0.04 0.05,0.04 0.04,0.04 0.05,0.04 0.02,0.03 0.02,0.03 0.01,0.02 0.02,0.03 0.02,0.03 0.01,0.03 0.02,0.03 0.01,0.03 0.01,0.04 0.01,0.03 0.01,0.04 0.01,0.04 0.01,0.04 0,0.04 0.01,0.04 0,0.04 0,0.05 0,0.04 c 0,1 -0.94,1 -1.69,1 h -29.74 c -0.75,0 -1.69,0 -1.69,-1 0,-1 0.94,-1 1.64,-1 z"
           style="fill:#ff0000;fill-opacity:1;stroke-width:0" /><path
           id="path5189"
           d="m 594.78,420.55 0.2,-0.5 0.19,-0.51 0.39,-1.05 0.4,-1.08 0.39,-1.1 0.39,-1.1 0.38,-1.09 0.38,-1.07 0.18,-0.52 0.18,-0.51 0.18,-0.5 0.17,-0.49 0.17,-0.47 0.17,-0.46 0.16,-0.43 0.15,-0.42 0.15,-0.4 0.14,-0.37 0.13,-0.34 0.13,-0.32 0.12,-0.29 0.11,-0.27 0.11,-0.23 0.1,-0.19 0.09,-0.17 0.08,-0.12 c 0.79,-1.1 1.29,-1.1 2.63,-1.1 h 1.1 c 0.5,0.05 0.55,0.35 0.55,0.5 0,0.15 -0.1,0.25 -0.25,0.45 -0.5,0.55 -0.8,1.3 -1.15,2.29 l -10.16,28.35 c -1.04,2.88 -3.74,3.53 -6.08,3.53 -0.25,0 -0.89,0 -0.89,-0.55 0,-0.4 0.39,-0.5 0.45,-0.5 1.64,-0.29 1.99,-0.59 3.23,-3.98 l 4.83,-13.55 -13.75,-13.65 c -0.59,-0.6 -0.89,-0.89 -0.89,-1.54 0,-0.85 0.7,-1.45 1.49,-1.45 0.8,0 1.25,0.55 1.65,1.05 z"
           style="fill:#ff0000;fill-opacity:1;stroke-width:0" /><path
           id="path5191"
           d="m 630.76,423.06 0,0.02 0,0.01 0,0.02 -0.01,0.02 0,0.02 0,0.02 -0.01,0.01 0,0.02 -0.01,0.02 -0.01,0.02 -0.01,0.02 0,0.02 -0.01,0.02 -0.01,0.02 -0.02,0.01 -0.01,0.02 -0.01,0.02 -0.02,0.01 -0.01,0.02 -0.02,0.01 -0.02,0.02 -0.02,0.01 -0.02,0.01 -0.02,0.02 -0.02,0.01 -0.02,0.01 -0.03,0 -0.03,0.01 -0.01,0 -0.01,0 -0.02,0.01 -0.01,0 -0.02,0 -0.01,0 -0.02,0 -0.02,0 c -0.21,0 -0.24,-0.03 -0.7,-0.49 l -1.7,-1.98 c -1.33,1.85 -3.52,2.47 -5.65,2.47 -4.92,0 -9.28,-3.97 -9.28,-7.98 0,-0.53 0.11,-1.92 1.15,-3.21 1.19,-1.39 2.48,-1.71 4.85,-2.27 0.7,-0.17 2.44,-0.55 2.96,-0.69 1.12,-0.28 3.25,-1.05 3.25,-3.66 0,-2.83 -2.96,-6.14 -6.94,-6.14 -3.07,0 -6.77,1.08 -6.77,4.95 0,0.35 0.07,1.11 0.21,1.74 0.04,0.14 0.04,0.18 0.04,0.21 0,0.45 -0.42,0.45 -0.56,0.45 -0.49,0 -0.52,-0.07 -0.66,-0.69 l -1.78,-6.98 c -0.04,-0.13 -0.11,-0.35 -0.11,-0.52 0,-0.21 0.14,-0.42 0.49,-0.42 0.21,0 0.25,0.04 0.7,0.49 0.38,0.42 1.29,1.53 1.67,1.95 1.85,-2.02 4.57,-2.44 6.66,-2.44 5.27,0 9.52,4.54 9.52,8.65 0,1.53 -0.62,2.93 -1.39,3.73 -1.22,1.26 -1.74,1.39 -6.24,2.44 -0.74,0.18 -1.89,0.45 -2.2,0.56 -0.87,0.31 -2.34,1.19 -2.34,3.17 0,2.76 3.11,5.55 6.74,5.55 3.76,0 5.57,-2.13 5.57,-5.44 0,-0.46 -0.14,-1.26 -0.14,-1.57 0,-0.49 0.42,-0.49 0.6,-0.49 0.52,0 0.55,0.17 0.7,0.77 z"
           style="fill:#ff0000;fill-opacity:1;stroke-width:0" /></g>    </g>
  </g>
  <g
     inkscape:groupmode="layer"
     id="layer5"
     inkscape:label="fin"
     style="display:inline">
    <g
       id="g5792"
       transform="translate(-232.47567,358.86486)"
       style="fill:#ff0000;fill-opacity:1;display:inline">
      <g
         word-spacing="normal"
         letter-spacing="normal"
         font-size-adjust="none"
         font-stretch="normal"
         font-weight="normal"
         font-variant="normal"
         font-style="normal"
         stroke-miterlimit="10.433"
         xml:space="preserve"
         transform="matrix(1.0971429,0,0,-1.0971429,-192,768)"
         id="g5794"
         style="font-style:normal;font-variant:normal;font-weight:normal;font-stretch:normal;letter-spacing:normal;word-spacing:normal;text-anchor:start;fill:#ff0000;fill-opacity:1;stroke:#000000;stroke-linecap:butt;stroke-linejoin:miter;stroke-miterlimit:10.43299961;stroke-opacity:1;stroke-dasharray:none;stroke-dashoffset:0"><path
           id="path5796"
           d="m 478.02,433.77 -0.04,0.06 -0.03,0.06 -0.03,0.05 -0.02,0.05 -0.03,0.06 -0.03,0.04 -0.03,0.05 -0.02,0.04 -0.03,0.05 -0.03,0.04 -0.02,0.03 -0.03,0.04 -0.03,0.03 -0.03,0.03 -0.03,0.03 -0.03,0.03 -0.04,0.03 -0.03,0.02 -0.04,0.02 -0.04,0.02 -0.04,0.02 -0.04,0.02 -0.05,0.02 -0.05,0.01 -0.05,0.01 -0.05,0.01 -0.06,0.01 -0.06,0.01 -0.07,0 -0.07,0.01 -0.07,0 -0.08,0 c -0.84,0 -0.94,-0.25 -1.29,-0.9 l -0.3,-4.09 13.4,-26.89 h -26.85 l 13.45,26.89 0.3,4.09 L 458.59,400 c -0.25,-0.45 -0.25,-0.55 -0.25,-0.6 0,-0.4 0.3,-0.4 1.1,-0.4 h 34.57 c 0.79,0 1.09,0 1.09,0.4 0,0.05 0,0.15 -0.24,0.6 z"
           style="fill:#ff0000;fill-opacity:1;stroke-width:0" /><path
           id="path5798"
           d="m 501.38,401.94 -0.01,-0.07 -0.02,-0.08 -0.01,-0.07 -0.02,-0.08 -0.03,-0.16 -0.04,-0.16 -0.04,-0.16 -0.03,-0.16 -0.04,-0.16 -0.04,-0.16 -0.01,-0.08 -0.02,-0.07 -0.02,-0.07 -0.01,-0.07 -0.02,-0.07 -0.01,-0.07 -0.01,-0.06 -0.02,-0.06 -0.01,-0.05 -0.01,-0.06 -0.01,-0.05 0,-0.04 -0.01,-0.04 0,-0.04 -0.01,-0.03 0,-0.02 c 0,-0.9 0.7,-1.35 1.45,-1.35 0.6,0 1.5,0.4 1.84,1.4 0.05,0.1 0.65,2.44 0.95,3.68 l 1.1,4.49 c 0.29,1.09 0.59,2.19 0.84,3.34 0.2,0.84 0.6,2.28 0.65,2.48 0.75,1.55 3.39,6.08 8.12,6.08 2.24,0 2.69,-1.84 2.69,-3.49 0,-1.24 -0.35,-2.64 -0.75,-4.13 l -1.39,-5.78 -1,-3.79 c -0.2,-0.99 -0.65,-2.68 -0.65,-2.93 0,-0.9 0.7,-1.35 1.45,-1.35 1.54,0 1.84,1.25 2.24,2.84 0.7,2.79 2.54,10.07 2.99,12.01 0.15,0.65 2.79,6.62 8.22,6.62 2.14,0 2.69,-1.69 2.69,-3.49 0,-2.84 -2.1,-8.51 -3.09,-11.15 -0.45,-1.2 -0.65,-1.75 -0.65,-2.74 0,-2.34 1.75,-4.09 4.09,-4.09 4.68,0 6.52,7.28 6.52,7.67 0,0.5 -0.45,0.5 -0.59,0.5 -0.5,0 -0.5,-0.15 -0.75,-0.89 -0.75,-2.64 -2.35,-6.18 -5.08,-6.18 -0.85,0 -1.2,0.5 -1.2,1.64 0,1.25 0.45,2.44 0.9,3.54 0.95,2.59 3.03,8.12 3.03,10.96 0,3.24 -1.99,5.33 -5.72,5.33 -3.74,0 -6.28,-2.2 -8.12,-4.84 -0.05,0.65 -0.2,2.35 -1.6,3.54 -1.24,1.05 -2.84,1.3 -4.08,1.3 -4.48,0 -6.92,-3.19 -7.77,-4.34 -0.25,2.84 -2.34,4.34 -4.58,4.34 -2.3,0 -3.24,-1.95 -3.69,-2.84 -0.9,-1.75 -1.54,-4.68 -1.54,-4.83 0,-0.5 0.49,-0.5 0.59,-0.5 0.5,0 0.55,0.05 0.85,1.14 0.84,3.54 1.84,5.93 3.64,5.93 0.79,0 1.54,-0.4 1.54,-2.29 0,-1.04 -0.15,-1.59 -0.8,-4.18 z"
           style="fill:#ff0000;fill-opacity:1;stroke-width:0" /><path
           id="path5800"
           d="m 558.61,423.35 h -1.19 c -0.1,-0.77 -0.45,-2.83 -0.9,-3.18 -0.28,-0.21 -2.97,-0.21 -3.45,-0.21 h -6.42 c 3.66,3.25 4.88,4.22 6.97,5.86 2.58,2.06 4.99,4.22 4.99,7.54 0,4.21 -3.7,6.79 -8.16,6.79 -4.33,0 -7.25,-3.03 -7.25,-6.24 0,-1.78 1.5,-1.95 1.84,-1.95 0.84,0 1.86,0.59 1.86,1.85 0,0.62 -0.25,1.85 -2.06,1.85 1.08,2.47 3.45,3.24 5.09,3.24 3.48,0 5.3,-2.72 5.3,-5.54 0,-3.04 -2.16,-5.45 -3.28,-6.7 l -8.4,-8.3 c -0.35,-0.31 -0.35,-0.38 -0.35,-1.36 h 14.36 z"
           style="fill:#ff0000;fill-opacity:1;stroke-width:0" /><path
           id="path5802"
           d="m 570.32,406.99 0.03,0.12 0.03,0.11 0.03,0.11 0.03,0.1 0.02,0.09 0.03,0.1 0.03,0.08 0.04,0.08 0.03,0.08 0.04,0.07 0.04,0.06 0.05,0.06 0.05,0.06 0.06,0.05 0.06,0.05 0.07,0.05 0.07,0.04 0.08,0.04 0.09,0.03 0.1,0.03 0.11,0.03 0.05,0.01 0.06,0.02 0.06,0.01 0.07,0.01 0.06,0.01 0.07,0.01 0.07,0 0.08,0.01 0.07,0.01 0.08,0 0.09,0.01 0.08,0.01 0.09,0 0.09,0 0.1,0.01 0.1,0 0.1,0 0.1,0.01 0.11,0 0.11,0 0.12,0 0.12,0 c 0.76,0 1.18,0 1.18,0.77 0,0.14 -0.1,0.49 -0.55,0.49 h -9.17 c -0.22,0 -0.74,0 -0.74,-0.77 0,-0.49 0.42,-0.49 1.12,-0.49 0.03,0 0.7,0 1.32,-0.07 0.74,-0.07 0.81,-0.14 0.81,-0.49 0,-0.03 0,-0.24 -0.14,-0.77 l -2.06,-8.22 h -11.68 l 2.02,8.09 c 0.32,1.18 0.38,1.46 3.07,1.46 0.59,0 1.05,0 1.05,0.77 0,0.14 -0.11,0.49 -0.56,0.49 h -9.18 c -0.2,0 -0.73,0 -0.73,-0.77 0,-0.49 0.42,-0.49 1.12,-0.49 0.04,0 0.7,0 1.33,-0.07 0.73,-0.07 0.8,-0.14 0.8,-0.49 0,-0.07 0,-0.24 -0.14,-0.77 l -4.64,-18.51 c -0.28,-1.18 -0.35,-1.47 -3.07,-1.47 -0.59,0 -1.04,0 -1.04,-0.73 0,-0.34 0.24,-0.52 0.56,-0.52 h 9.16 c 0.18,0 0.74,0 0.74,0.73 0,0.52 -0.35,0.52 -1.15,0.52 -0.56,0 -0.7,0 -1.33,0.07 -0.77,0.11 -0.77,0.18 -0.77,0.53 0,0.03 0,0.24 0.14,0.76 l 2.31,9.14 h 11.68 l -2.27,-9.03 c -0.28,-1.18 -0.35,-1.47 -3.07,-1.47 -0.59,0 -1.05,0 -1.05,-0.73 0,-0.34 0.25,-0.52 0.56,-0.52 h 9.17 c 0.18,0 0.73,0 0.73,0.73 0,0.52 -0.34,0.52 -1.14,0.52 -0.56,0 -0.7,0 -1.33,0.07 -0.77,0.11 -0.77,0.18 -0.77,0.53 0,0.21 0.11,0.56 0.14,0.76 z"
           style="fill:#ff0000;fill-opacity:1;stroke-width:0" /><path
           id="path5804"
           d="m 626.22,415.29 0.14,0 0.15,0 0.15,0.01 0.07,0 0.07,0 0.07,0.01 0.08,0.01 0.07,0.01 0.07,0.01 0.06,0.02 0.07,0.01 0.07,0.02 0.06,0.02 0.06,0.03 0.06,0.03 0.05,0.03 0.06,0.03 0.05,0.04 0.04,0.04 0.05,0.05 0.03,0.05 0.02,0.03 0.02,0.02 0.02,0.03 0.01,0.03 0.02,0.03 0.01,0.04 0.01,0.03 0.01,0.04 0.01,0.03 0.01,0.04 0.01,0.04 0,0.04 0.01,0.04 0,0.04 0,0.05 0,0.05 c 0,0.99 -0.94,0.99 -1.64,0.99 h -29.84 c -0.7,0 -1.64,0 -1.64,-0.99 0,-1 0.94,-1 1.69,-1 z"
           style="fill:#ff0000;fill-opacity:1;stroke-width:0" /><path
           id="path5806"
           d="m 626.27,405.62 0.13,0.01 0.14,0 0.14,0 0.07,0.01 0.07,0 0.07,0.01 0.07,0.01 0.07,0.01 0.07,0.01 0.06,0.01 0.07,0.02 0.06,0.02 0.06,0.02 0.06,0.02 0.06,0.03 0.06,0.03 0.05,0.04 0.05,0.04 0.04,0.04 0.05,0.04 0.02,0.03 0.02,0.03 0.01,0.02 0.02,0.03 0.02,0.03 0.01,0.03 0.02,0.03 0.01,0.03 0.01,0.04 0.01,0.03 0.01,0.04 0.01,0.04 0.01,0.04 0,0.04 0.01,0.04 0,0.04 0,0.05 0,0.04 c 0,1 -0.94,1 -1.69,1 h -29.74 c -0.75,0 -1.69,0 -1.69,-1 0,-1 0.94,-1 1.64,-1 z"
           style="fill:#ff0000;fill-opacity:1;stroke-width:0" /><path
           id="path5808"
           d="m 657.77,449.79 0,0.05 0,0.05 0,0.06 -0.01,0.05 0,0.11 0,0.06 -0.01,0.06 0,0.05 -0.01,0.06 -0.01,0.06 -0.01,0.05 -0.01,0.06 -0.01,0.05 -0.02,0.06 -0.02,0.05 -0.02,0.05 -0.02,0.05 -0.03,0.05 -0.03,0.04 -0.03,0.04 -0.04,0.04 -0.03,0.04 -0.03,0.02 -0.02,0.01 -0.02,0.02 -0.02,0.01 -0.03,0.02 -0.02,0.01 -0.03,0.01 -0.03,0.02 -0.02,0.01 -0.03,0.01 -0.03,0 -0.04,0.01 -0.03,0.01 -0.03,0 -0.04,0.01 -0.03,0 -0.04,0 -0.04,0 c -0.88,0 -0.88,-0.8 -0.88,-1.36 v -32.15 c 0,-0.52 0,-1.36 0.85,-1.36 0.87,0 0.87,0.81 0.87,1.36 z"
           style="fill:#ff0000;fill-opacity:1;stroke-width:0" /><path
           id="path5810"
           d="m 677.09,434.97 0.33,-0.75 0.33,-0.78 0.33,-0.78 0.33,-0.78 0.33,-0.78 0.31,-0.76 0.16,-0.37 0.15,-0.36 0.15,-0.36 0.14,-0.34 0.15,-0.34 0.13,-0.32 0.13,-0.31 0.13,-0.3 0.12,-0.28 0.12,-0.27 0.11,-0.25 0.1,-0.24 0.1,-0.21 0.09,-0.2 0.08,-0.17 0.08,-0.16 0.06,-0.13 0.06,-0.1 0.05,-0.09 0.04,-0.05 c 0.66,-0.84 1.29,-0.84 1.85,-0.84 h 0.7 c 0.66,0 1.01,0 1.01,0.42 0,0.17 -0.11,0.28 -0.17,0.35 -0.43,0.38 -0.77,1.19 -0.91,1.5 L 675.17,447 c -0.24,0.63 -0.94,2.2 -4.64,2.2 -0.42,0 -0.91,0 -0.91,-0.49 0,-0.42 0.35,-0.45 0.53,-0.49 0.73,-0.1 1.39,-0.21 2.26,-2.19 l 4.15,-9.77 -10.28,-9.27 c -0.42,-0.35 -0.7,-0.63 -0.7,-1.22 0,-0.84 0.7,-1.19 1.19,-1.19 0.66,0 1.08,0.46 1.18,0.56 z"
           style="fill:#ff0000;fill-opacity:1;stroke-width:0" /><path
           id="path5812"
           d="m 698.85,429.61 h 2.8 c 0.52,0 0.54,0.03 0.67,0.13 0.12,0.1 0.2,0.42 0.2,0.57 0,0.42 -0.37,0.42 -0.8,0.42 h -2.67 c 0.3,1.85 0.8,5.01 1.13,5.38 0.37,0.4 0.77,0.6 1.19,0.6 0.15,0 0.7,0 1.22,-0.27 -1,-0.42 -1,-1.32 -1,-1.42 0,-0.63 0.48,-1.02 1.1,-1.02 0.65,0 1.54,0.55 1.54,1.64 0,1.45 -1.64,1.92 -2.83,1.92 -3.17,0 -3.79,-3.01 -4.01,-4.09 -0.23,-1.07 -0.08,-0.4 -0.5,-2.74 h -2.27 c -0.47,0 -0.87,0 -0.87,-0.69 0,-0.43 0.37,-0.43 0.8,-0.43 h 2.17 c -0.48,-2.44 -1.52,-9.36 -2.22,-12 -0.15,-0.6 -0.75,-1.87 -1.72,-1.87 -0.15,0 -0.7,0.03 -1.15,0.25 0.67,0.3 1,0.92 1,1.44 0,0.63 -0.47,1.03 -1.1,1.03 -0.64,0 -1.54,-0.55 -1.54,-1.65 0,-1.52 1.79,-1.92 2.76,-1.92 1.45,0 2.54,1.15 3.12,1.92 0.99,1.4 1.57,4.71 1.59,4.78 z"
           style="fill:#ff0000;fill-opacity:1;stroke-width:0" /><path
           id="path5814"
           d="m 715.77,449.79 0,0.05 0,0.05 0,0.06 -0.01,0.05 0,0.11 0,0.06 -0.01,0.06 0,0.05 -0.01,0.06 -0.01,0.06 -0.01,0.05 -0.01,0.06 -0.01,0.05 -0.02,0.06 -0.02,0.05 -0.02,0.05 -0.02,0.05 -0.03,0.05 -0.03,0.04 -0.03,0.04 -0.04,0.04 -0.03,0.04 -0.03,0.02 -0.02,0.01 -0.02,0.02 -0.02,0.01 -0.03,0.02 -0.02,0.01 -0.03,0.01 -0.03,0.02 -0.02,0.01 -0.03,0.01 -0.03,0 -0.04,0.01 -0.03,0.01 -0.03,0 -0.04,0.01 -0.03,0 -0.04,0 -0.04,0 c -0.88,0 -0.88,-0.8 -0.88,-1.36 v -32.15 c 0,-0.52 0,-1.36 0.85,-1.36 0.87,0 0.87,0.81 0.87,1.36 z"
           style="fill:#ff0000;fill-opacity:1;stroke-width:0" /><path
           id="path5816"
           d="m 735.67,444.81 h -1.05 c -0.07,-0.48 -0.32,-2.02 -0.72,-2.27 -0.2,-0.15 -2.29,-0.15 -2.66,-0.15 h -4.89 c 1.65,1.22 3.49,2.62 4.99,3.61 2.24,1.55 4.33,2.99 4.33,5.63 0,3.19 -3.01,4.96 -6.58,4.96 -3.36,0 -5.82,-1.95 -5.82,-4.39 0,-1.29 1.09,-1.52 1.44,-1.52 0.67,0 1.47,0.45 1.47,1.48 0,0.89 -0.65,1.39 -1.42,1.46 0.7,1.13 2.14,1.87 3.81,1.87 2.42,0 4.43,-1.44 4.43,-3.88 0,-2.09 -1.44,-3.69 -3.35,-5.31 l -6.08,-5.16 c -0.25,-0.22 -0.28,-0.22 -0.3,-0.39 V 440 h 11.58 z"
           style="fill:#ff0000;fill-opacity:1;stroke-width:0" /><polyline
           id="polyline5818"
           points="651,411 740.28,411 740.28,413.04 651,413.04 "
           style="fill:#ff0000;fill-opacity:1;fill-rule:nonzero;stroke-width:0" /><path
           id="path5820"
           d="m 676.38,394.59 0.25,0.12 0.25,0.13 0.24,0.13 0.23,0.13 0.23,0.13 0.22,0.14 0.22,0.14 0.2,0.14 0.21,0.14 0.19,0.15 0.19,0.14 0.18,0.15 0.17,0.16 0.16,0.15 0.16,0.16 0.15,0.17 0.14,0.16 0.14,0.17 0.12,0.17 0.12,0.18 0.11,0.18 0.1,0.18 0.09,0.19 0.08,0.19 0.07,0.19 0.06,0.2 0.06,0.2 0.04,0.21 0.04,0.21 0.02,0.21 0.02,0.22 0,0.23 c 0,3.38 -3.52,5.19 -6.9,5.19 l -0.07,-1.01 c 2.72,0 5.12,-1.71 5.12,-4.18 0,-3.1 -3.62,-4.67 -3.69,-4.67 -0.07,0 -0.14,0.03 -0.39,0.17 l -4.21,2.44 c -0.91,0.52 -1.89,1.46 -1.89,2.76 0,2.19 2.54,3.48 5.06,3.48 l 0.07,1.01 c -3.84,0 -6.97,-2.51 -6.97,-5.82 0,-1.64 0.76,-2.83 1.39,-3.52 0.62,-0.74 0.87,-0.87 2.93,-2.1 -1.95,-0.83 -5.41,-2.71 -5.41,-6.37 0,-3.88 4.02,-6.04 7.99,-6.04 l 0.07,1.12 c -3.21,0 -5.96,2.06 -5.96,4.92 0,2.57 1.92,4.56 4.42,5.71 h 0 l 4.78,-2.75 c 0.91,-0.52 2.65,-1.57 2.65,-3.63 0,-2.61 -2.89,-4.25 -5.89,-4.25 l -0.07,-1.12 c 4.43,0 8.05,2.83 8.05,6.59 0,2.31 -1.36,4.26 -3.38,5.44 -0.45,0.28 -1.67,0.98 -2.16,1.26 z"
           style="fill:#ff0000;fill-opacity:1;stroke-width:0" /><path
           id="path5822"
           d="m 694.84,394.66 h 4.15 c -0.52,-2.09 -1.29,-5.27 -1.29,-8.02 0,-1.4 0.18,-2.34 0.39,-3.1 0.56,-1.75 1.01,-1.89 1.57,-1.89 0.8,0 1.64,0.73 1.64,1.57 0,0.28 -0.07,0.42 -0.28,0.77 -0.67,1.29 -1.29,3.28 -1.29,6.13 0,0.67 0,2.06 0.49,4.54 h 4.35 c 0.63,0 0.91,0 1.29,0.28 0.49,0.35 0.6,0.9 0.6,1.08 0,1.01 -0.91,1.01 -1.5,1.01 h -13.15 c -1.43,0 -2.4,-0.32 -3.97,-1.78 -0.91,-0.8 -2.27,-2.68 -2.27,-3 0,-0.42 0.45,-0.42 0.59,-0.42 0.39,0 0.42,0.07 0.63,0.38 1.78,2.45 3.94,2.45 4.71,2.45 h 2.12 c -1.08,-3.84 -2.96,-7.95 -4.01,-10.05 -0.2,-0.45 -0.56,-1.18 -0.66,-1.32 -0.03,-0.14 -0.1,-0.28 -0.1,-0.52 0,-0.56 0.42,-1.12 1.22,-1.12 1.39,0 1.77,1.57 2.61,4.71 z"
           style="fill:#ff0000;fill-opacity:1;stroke-width:0" /><path
           id="path5824"
           d="m 722.67,396.81 h -1.05 c -0.07,-0.48 -0.32,-2.02 -0.72,-2.27 -0.2,-0.15 -2.29,-0.15 -2.66,-0.15 h -4.89 c 1.65,1.22 3.49,2.62 4.99,3.61 2.24,1.55 4.33,2.99 4.33,5.63 0,3.19 -3.01,4.96 -6.58,4.96 -3.36,0 -5.82,-1.95 -5.82,-4.39 0,-1.29 1.09,-1.52 1.44,-1.52 0.67,0 1.47,0.45 1.47,1.48 0,0.89 -0.65,1.39 -1.42,1.46 0.7,1.13 2.14,1.87 3.81,1.87 2.42,0 4.43,-1.44 4.43,-3.88 0,-2.09 -1.44,-3.69 -3.35,-5.31 l -6.08,-5.16 c -0.25,-0.22 -0.28,-0.22 -0.3,-0.39 V 392 h 11.58 z"
           style="fill:#ff0000;fill-opacity:1;stroke-width:0" /><path
           id="path5826"
           d="m 750.38,401.94 -0.01,-0.07 -0.02,-0.08 -0.01,-0.07 -0.02,-0.08 -0.03,-0.16 -0.04,-0.16 -0.04,-0.16 -0.03,-0.16 -0.04,-0.16 -0.04,-0.16 -0.01,-0.08 -0.02,-0.07 -0.02,-0.07 -0.01,-0.07 -0.02,-0.07 -0.01,-0.07 -0.01,-0.06 -0.02,-0.06 -0.01,-0.05 -0.01,-0.06 -0.01,-0.05 0,-0.04 -0.01,-0.04 0,-0.04 -0.01,-0.03 0,-0.02 c 0,-0.9 0.7,-1.35 1.45,-1.35 0.6,0 1.5,0.4 1.84,1.4 0.05,0.1 0.65,2.44 0.95,3.68 l 1.1,4.49 c 0.29,1.09 0.59,2.19 0.84,3.34 0.2,0.84 0.6,2.28 0.65,2.48 0.75,1.55 3.39,6.08 8.12,6.08 2.24,0 2.69,-1.84 2.69,-3.49 0,-1.24 -0.35,-2.64 -0.75,-4.13 l -1.39,-5.78 -1,-3.79 c -0.2,-0.99 -0.65,-2.68 -0.65,-2.93 0,-0.9 0.7,-1.35 1.45,-1.35 1.54,0 1.84,1.25 2.24,2.84 0.7,2.79 2.54,10.07 2.99,12.01 0.15,0.65 2.79,6.62 8.22,6.62 2.14,0 2.69,-1.69 2.69,-3.49 0,-2.84 -2.1,-8.51 -3.09,-11.15 -0.45,-1.2 -0.65,-1.75 -0.65,-2.74 0,-2.34 1.75,-4.09 4.09,-4.09 4.68,0 6.52,7.28 6.52,7.67 0,0.5 -0.45,0.5 -0.59,0.5 -0.5,0 -0.5,-0.15 -0.75,-0.89 -0.75,-2.64 -2.35,-6.18 -5.08,-6.18 -0.85,0 -1.2,0.5 -1.2,1.64 0,1.25 0.45,2.44 0.9,3.54 0.95,2.59 3.03,8.12 3.03,10.96 0,3.24 -1.99,5.33 -5.72,5.33 -3.74,0 -6.28,-2.2 -8.12,-4.84 -0.05,0.65 -0.2,2.35 -1.6,3.54 -1.24,1.05 -2.84,1.3 -4.08,1.3 -4.48,0 -6.93,-3.19 -7.77,-4.34 -0.25,2.84 -2.34,4.34 -4.58,4.34 -2.3,0 -3.24,-1.95 -3.69,-2.84 -0.9,-1.75 -1.54,-4.68 -1.54,-4.83 0,-0.5 0.49,-0.5 0.59,-0.5 0.5,0 0.55,0.05 0.85,1.14 0.84,3.54 1.84,5.93 3.64,5.93 0.79,0 1.54,-0.4 1.54,-2.29 0,-1.04 -0.15,-1.59 -0.8,-4.18 z"
           style="fill:#ff0000;fill-opacity:1;stroke-width:0" /><path
           id="path5828"
           d="m 807.61,423.35 h -1.19 c -0.1,-0.77 -0.45,-2.83 -0.9,-3.18 -0.28,-0.21 -2.97,-0.21 -3.45,-0.21 h -6.42 c 3.66,3.25 4.88,4.22 6.97,5.86 2.58,2.06 4.99,4.22 4.99,7.54 0,4.21 -3.7,6.79 -8.16,6.79 -4.33,0 -7.25,-3.03 -7.25,-6.24 0,-1.78 1.5,-1.95 1.84,-1.95 0.84,0 1.86,0.59 1.86,1.85 0,0.62 -0.25,1.85 -2.06,1.85 1.08,2.47 3.45,3.24 5.09,3.24 3.48,0 5.3,-2.72 5.3,-5.54 0,-3.04 -2.16,-5.45 -3.28,-6.7 l -8.4,-8.3 c -0.35,-0.31 -0.35,-0.38 -0.35,-1.36 h 14.36 z"
           style="fill:#ff0000;fill-opacity:1;stroke-width:0" /><path
           id="path5830"
           d="m 814.76,410.06 0,0.02 0,0.01 0,0.02 -0.01,0.02 0,0.02 0,0.02 -0.01,0.01 0,0.02 -0.01,0.02 -0.01,0.02 -0.01,0.02 0,0.02 -0.01,0.02 -0.01,0.02 -0.02,0.01 -0.01,0.02 -0.01,0.02 -0.02,0.01 -0.01,0.02 -0.02,0.01 -0.02,0.02 -0.02,0.01 -0.02,0.01 -0.02,0.02 -0.02,0.01 -0.02,0.01 -0.03,0 -0.03,0.01 -0.01,0 -0.01,0 -0.02,0.01 -0.01,0 -0.02,0 -0.01,0 -0.02,0 -0.02,0 c -0.21,0 -0.24,-0.03 -0.7,-0.49 l -1.7,-1.98 c -1.33,1.85 -3.52,2.47 -5.65,2.47 -4.92,0 -9.28,-3.97 -9.28,-7.98 0,-0.53 0.11,-1.92 1.15,-3.21 1.19,-1.39 2.48,-1.71 4.85,-2.27 0.7,-0.17 2.44,-0.55 2.96,-0.69 1.12,-0.28 3.25,-1.05 3.25,-3.66 0,-2.83 -2.96,-6.14 -6.94,-6.14 -3.07,0 -6.77,1.08 -6.77,4.95 0,0.35 0.07,1.11 0.21,1.74 0.04,0.14 0.04,0.18 0.04,0.21 0,0.45 -0.42,0.45 -0.56,0.45 -0.49,0 -0.52,-0.07 -0.66,-0.69 l -1.78,-6.98 c -0.04,-0.13 -0.11,-0.35 -0.11,-0.52 0,-0.21 0.14,-0.42 0.49,-0.42 0.21,0 0.25,0.04 0.7,0.49 0.38,0.42 1.29,1.53 1.67,1.95 1.85,-2.02 4.57,-2.44 6.66,-2.44 5.27,0 9.52,4.54 9.52,8.65 0,1.53 -0.62,2.93 -1.39,3.73 -1.22,1.26 -1.74,1.39 -6.24,2.44 -0.74,0.18 -1.89,0.45 -2.2,0.56 -0.87,0.31 -2.34,1.19 -2.34,3.17 0,2.76 3.11,5.55 6.74,5.55 3.76,0 5.57,-2.13 5.57,-5.44 0,-0.46 -0.14,-1.26 -0.14,-1.57 0,-0.49 0.42,-0.49 0.6,-0.49 0.52,0 0.55,0.17 0.7,0.77 z"
           style="fill:#ff0000;fill-opacity:1;stroke-width:0" /><path
           id="path5832"
           d="m 835.82,433.57 -7.17,-0.55 v -1.54 c 3.48,0 3.88,-0.35 3.88,-2.79 v -25.9 c 0,-2.25 -0.55,-2.25 -3.88,-2.25 V 399 h 11.05 v 1.54 c -3.34,0 -3.88,0 -3.88,2.25 z"
           style="fill:#ff0000;fill-opacity:1;stroke-width:0" /><path
           id="path5834"
           d="m 846.48,416.14 v -13.35 c 0,-2.25 -0.55,-2.25 -3.89,-2.25 V 399 h 11.21 v 1.54 c -3.33,0 -3.88,0 -3.88,2.25 v 9.16 c 0,5.18 3.53,7.97 6.72,7.97 3.14,0 3.69,-2.69 3.69,-5.53 v -11.6 c 0,-2.25 -0.55,-2.25 -3.89,-2.25 V 399 h 11.21 v 1.54 c -2.59,0 -3.84,0 -3.88,1.5 v 9.51 c 0,4.29 0,5.83 -1.55,7.63 -0.7,0.84 -2.34,1.84 -5.23,1.84 -3.64,0 -5.98,-2.14 -7.37,-5.23 v 5.23 l -7.03,-0.55 v -1.54 c 3.49,0 3.89,-0.35 3.89,-2.79 z"
           style="fill:#ff0000;fill-opacity:1;stroke-width:0" /><path
           id="path5836"
           d="m 885.49,387.04 0,0.03 0,0.03 -0.01,0.01 0,0.02 0,0.01 -0.01,0.02 0,0.02 -0.01,0.01 -0.01,0.02 -0.01,0.02 -0.01,0.03 -0.01,0.02 -0.02,0.02 -0.02,0.03 -0.02,0.03 -0.02,0.03 -0.03,0.03 -0.03,0.04 -0.01,0.02 -0.02,0.02 -0.02,0.02 -0.02,0.02 -0.02,0.02 -0.02,0.03 -0.02,0.02 -0.02,0.02 -0.02,0.03 -0.03,0.02 -0.02,0.03 -0.03,0.03 -0.02,0.03 -0.03,0.03 -0.03,0.03 -0.03,0.03 -0.03,0.03 -0.03,0.03 -0.04,0.04 -0.03,0.03 -0.04,0.04 -0.03,0.03 -0.04,0.04 -0.04,0.04 c -6.23,6.28 -7.82,15.69 -7.82,23.31 0,8.67 1.9,17.34 8.02,23.57 0.65,0.59 0.65,0.69 0.65,0.84 0,0.35 -0.2,0.5 -0.5,0.5 -0.5,0 -4.98,-3.39 -7.92,-9.72 -2.54,-5.47 -3.14,-11 -3.14,-15.19 0,-3.88 0.55,-9.91 3.29,-15.54 2.99,-6.12 7.27,-9.36 7.77,-9.36 0.3,0 0.5,0.15 0.5,0.49 z"
           style="fill:#ff0000;fill-opacity:1;stroke-width:0" /><path
           id="path5838"
           d="m 906.43,433.62 -0.01,0.04 -0.02,0.05 -0.01,0.04 -0.02,0.04 -0.01,0.04 -0.01,0.04 -0.03,0.07 -0.03,0.07 -0.03,0.06 -0.03,0.06 -0.03,0.05 -0.03,0.05 -0.03,0.05 -0.03,0.05 -0.03,0.04 -0.03,0.04 -0.03,0.03 -0.04,0.03 -0.03,0.03 -0.03,0.02 -0.04,0.03 -0.03,0.02 -0.04,0.02 -0.04,0.01 -0.04,0.02 -0.04,0.01 -0.04,0.01 -0.04,0.01 -0.04,0 -0.05,0.01 -0.04,0 -0.05,0 -0.05,0.01 -0.04,0 -0.06,0 c -0.79,0 -0.89,-0.2 -1.14,-1.05 l -9.57,-29.64 c -0.49,-1.49 -1.49,-3.44 -4.98,-3.44 V 399 h 10.26 v 1.54 c -2.69,0.05 -3.83,1.4 -3.83,2.59 0,0.25 0,0.4 0.25,1.1 l 7.47,23.21 7.87,-24.51 c 0.25,-0.69 0.25,-0.79 0.25,-0.89 0,-1.5 -2.94,-1.5 -4.24,-1.5 V 399 h 13.31 v 1.54 c -3.79,0 -3.94,0.3 -4.53,2.15 z"
           style="fill:#ff0000;fill-opacity:1;stroke-width:0" /><path
           id="path5840"
           d="m 943.87,434.47 0.01,0.03 0.01,0.03 0.01,0.03 0.01,0.02 0.01,0.03 0.01,0.03 0.02,0.05 0.02,0.05 0.01,0.05 0.02,0.04 0.01,0.04 0.01,0.04 0.02,0.04 0.01,0.04 0.01,0.03 0,0.03 0.01,0.03 0.01,0.03 0.01,0.03 0,0.02 0.01,0.03 0,0.02 0,0.02 0.01,0.02 0,0.01 0,0.02 0,0.01 0,0.02 0.01,0.01 0,0.01 0,0.01 0,0 0,0.01 0,0.01 0,0 c 0,0.55 -0.45,1 -1,1 -0.35,0 -0.7,-0.15 -0.85,-0.45 l -17.28,-47.47 c -0.25,-0.65 -0.25,-0.85 -0.25,-0.9 0,-0.54 0.45,-0.99 0.99,-0.99 0.65,0 0.8,0.34 1.1,1.19 z"
           style="fill:#ff0000;fill-opacity:1;stroke-width:0" /><path
           id="path5842"
           d="m 951.38,401.94 -0.01,-0.07 -0.02,-0.08 -0.01,-0.07 -0.02,-0.08 -0.03,-0.16 -0.04,-0.16 -0.04,-0.16 -0.03,-0.16 -0.04,-0.16 -0.04,-0.16 -0.01,-0.08 -0.02,-0.07 -0.02,-0.07 -0.01,-0.07 -0.02,-0.07 -0.01,-0.07 -0.01,-0.06 -0.02,-0.06 -0.01,-0.05 -0.01,-0.06 -0.01,-0.05 0,-0.04 -0.01,-0.04 0,-0.04 -0.01,-0.03 0,-0.02 c 0,-0.9 0.7,-1.35 1.45,-1.35 0.6,0 1.5,0.4 1.84,1.4 0.05,0.1 0.65,2.44 0.95,3.68 l 1.1,4.49 c 0.29,1.09 0.59,2.19 0.84,3.34 0.2,0.84 0.6,2.28 0.65,2.48 0.75,1.55 3.39,6.08 8.12,6.08 2.24,0 2.69,-1.84 2.69,-3.49 0,-1.24 -0.35,-2.64 -0.75,-4.13 l -1.39,-5.78 -1,-3.79 c -0.2,-0.99 -0.65,-2.68 -0.65,-2.93 0,-0.9 0.7,-1.35 1.45,-1.35 1.54,0 1.84,1.25 2.24,2.84 0.7,2.79 2.54,10.07 2.99,12.01 0.15,0.65 2.79,6.62 8.22,6.62 2.14,0 2.69,-1.69 2.69,-3.49 0,-2.84 -2.1,-8.51 -3.09,-11.15 -0.45,-1.2 -0.65,-1.75 -0.65,-2.74 0,-2.34 1.75,-4.09 4.09,-4.09 4.68,0 6.52,7.28 6.52,7.67 0,0.5 -0.45,0.5 -0.59,0.5 -0.5,0 -0.5,-0.15 -0.75,-0.89 -0.75,-2.64 -2.35,-6.18 -5.08,-6.18 -0.85,0 -1.2,0.5 -1.2,1.64 0,1.25 0.45,2.44 0.9,3.54 0.95,2.59 3.03,8.12 3.03,10.96 0,3.24 -1.99,5.33 -5.72,5.33 -3.74,0 -6.28,-2.2 -8.12,-4.84 -0.05,0.65 -0.2,2.35 -1.6,3.54 -1.24,1.05 -2.84,1.3 -4.08,1.3 -4.48,0 -6.93,-3.19 -7.77,-4.34 -0.25,2.84 -2.34,4.34 -4.58,4.34 -2.3,0 -3.24,-1.95 -3.69,-2.84 -0.9,-1.75 -1.54,-4.68 -1.54,-4.83 0,-0.5 0.49,-0.5 0.59,-0.5 0.5,0 0.55,0.05 0.85,1.14 0.84,3.54 1.84,5.93 3.64,5.93 0.79,0 1.54,-0.4 1.54,-2.29 0,-1.04 -0.15,-1.59 -0.8,-4.18 z"
           style="fill:#ff0000;fill-opacity:1;stroke-width:0" /><path
           id="path5844"
           d="m 1015.8,416.06 0,0.02 0,0.01 0,0.02 0,0.02 0,0.02 -0.1,0.02 0,0.01 0,0.02 0,0.02 0,0.02 0,0.02 0,0.02 0,0.02 0,0.02 0,0.01 0,0.02 -0.1,0.02 0,0.01 0,0.02 0,0.01 0,0.02 0,0.01 -0.1,0.01 0,0.02 0,0.01 0,0.01 -0.1,0 0,0.01 0,0 0,0 0,0.01 0,0 -0.1,0 0,0 0,0 0,0 c -0.2,0 -0.2,-0.03 -0.7,-0.49 l -1.7,-1.98 c -1.3,1.85 -3.5,2.47 -5.7,2.47 -4.9,0 -9.23,-3.97 -9.23,-7.98 0,-0.53 0.11,-1.92 1.15,-3.21 1.18,-1.39 2.48,-1.71 4.88,-2.27 0.7,-0.17 2.4,-0.55 2.9,-0.69 1.1,-0.28 3.3,-1.05 3.3,-3.66 0,-2.83 -3,-6.14 -7,-6.14 -3,0 -6.73,1.08 -6.73,4.95 0,0.35 0.07,1.11 0.21,1.74 0.04,0.14 0.04,0.18 0.04,0.21 0,0.45 -0.42,0.45 -0.56,0.45 -0.49,0 -0.52,-0.07 -0.66,-0.69 l -1.78,-6.98 c -0.04,-0.13 -0.11,-0.35 -0.11,-0.52 0,-0.21 0.14,-0.42 0.49,-0.42 0.21,0 0.25,0.04 0.7,0.49 0.38,0.42 1.29,1.53 1.67,1.95 1.85,-2.02 4.53,-2.44 6.63,-2.44 5.3,0 9.6,4.54 9.6,8.65 0,1.53 -0.7,2.93 -1.4,3.73 -1.3,1.26 -1.8,1.39 -6.3,2.44 -0.7,0.18 -1.9,0.45 -2.2,0.56 -0.8,0.31 -2.3,1.19 -2.3,3.17 0,2.76 3.1,5.55 6.7,5.55 3.8,0 5.6,-2.13 5.6,-5.44 0,-0.46 -0.1,-1.26 -0.1,-1.57 0,-0.49 0.4,-0.49 0.5,-0.49 0.6,0 0.6,0.17 0.8,0.77 z"
           style="fill:#ff0000;fill-opacity:1;stroke-width:0" /><path
           id="path5846"
           d="m 1034.4,411.45 0,0.37 0,0.39 0,0.39 0,0.41 -0.1,0.84 0,0.88 -0.1,0.92 -0.1,0.94 -0.2,0.98 -0.1,1 -0.2,1.02 -0.2,1.04 -0.3,1.05 -0.3,1.06 -0.4,1.06 -0.4,1.07 -0.2,0.53 -0.2,0.54 -0.2,0.53 -0.3,0.53 c -3,6.12 -7.3,9.36 -7.8,9.36 -0.3,0 -0.5,-0.2 -0.5,-0.5 0,-0.15 0,-0.25 1,-1.15 4.9,-4.92 7.7,-12.85 7.7,-23.26 0,-8.52 -1.8,-17.28 -8,-23.56 -0.7,-0.6 -0.7,-0.69 -0.7,-0.85 0,-0.29 0.2,-0.49 0.5,-0.49 0.5,0 5,3.38 8,9.71 2.5,5.48 3.1,11.01 3.1,15.19 z"
           style="fill:#ff0000;fill-opacity:1;stroke-width:0" /></g>    </g>
  </g>
</svg>
