<?xml version="1.0" encoding="UTF-8" standalone="no"?>
<svg
   xmlns:dc="http://purl.org/dc/elements/1.1/"
   xmlns:cc="http://creativecommons.org/ns#"
   xmlns:rdf="http://www.w3.org/1999/02/22-rdf-syntax-ns#"
   xmlns:svg="http://www.w3.org/2000/svg"
   xmlns="http://www.w3.org/2000/svg"
   xmlns:sodipodi="http://sodipodi.sourceforge.net/DTD/sodipodi-0.dtd"
   xmlns:inkscape="http://www.inkscape.org/namespaces/inkscape"
   width="318pt"
   height="155pt"
   viewBox="0 0 318 155"
   version="1.1"
   id="svg4197"
   inkscape:version="0.48.5 r10040"
   sodipodi:docname="highlight_circle.svg">
  <metadata
     id="metadata4211">
    <rdf:RDF>
      <cc:Work
         rdf:about="">
        <dc:format>image/svg+xml</dc:format>
        <dc:type
           rdf:resource="http://purl.org/dc/dcmitype/StillImage" />
        <dc:title></dc:title>
      </cc:Work>
    </rdf:RDF>
  </metadata>
  <defs
     id="defs4209" />
  <sodipodi:namedview
     pagecolor="#ffffff"
     bordercolor="#666666"
     borderopacity="1"
     objecttolerance="10"
     gridtolerance="10"
     guidetolerance="10"
     inkscape:pageopacity="0"
     inkscape:pageshadow="2"
     inkscape:window-width="1366"
     inkscape:window-height="702"
     id="namedview4207"
     showgrid="false"
     inkscape:zoom="0.88805031"
     inkscape:cx="198.75"
     inkscape:cy="96.875"
     inkscape:window-x="0"
     inkscape:window-y="27"
     inkscape:window-maximized="1"
     inkscape:current-layer="svg4197" />
  <path
     style="fill:#ffff00"
     d="m 168.59719,2.9697137 c -1.75407,-4.8e-4 -3.52,0.08 -5.275,0.25 -31.96,0.32 -64.020001,4.43496 -94.750001,13.3749603 -16.48,5.19008 -33.055,11.36 -46.875,22 -8.82,6.78008 -16.4999999,15.86 -18.9999999,26.95008 -2.72000003,13.390004 1.005,27.934964 9.9749999,38.274966 9.29,11.36 22.87,17.84 36.2,23.2 -4.91,0.34 -9.87,-0.085 -14.75,0.72504 8.08,1.25992 16.445,-0.025 24.425,1.97496 -13.7,1.15 -27.59,1.76 -41.25,-0.15 17.05,3.76 34.655,4.82496 52.075,3.87504 3.46,-0.18008 6.85,0.69 10.25,1.2 -1.88,0.6 -4.26,0.3 -5.65,1.94992 4.92,0.14 9.87,-1.15496 14.75,-0.075 -18.42,2.52 -37.025,3.37496 -55.575,4.12504 21.72,1.59992 43.56,-0.0701 65.15,-2.55008 4.600001,-0.39 9.180001,0.46 13.750001,0.8 18.83,1.27 37.76,1.83504 56.55,-0.22496 5.3,-0.4 10.055,-2.93 15.125,-4.3 -16.81,-0.54 -33.765,0.95504 -50.475,-1.37504 15.64,-1.4 31.515,0.075 47.075,-2.57496 1.12,-0.27 2.235,-0.6 3.325,-1 -9.79,-0.96 -19.67,-0.37496 -29.5,-0.62504 19.05,-4.7 38.14,-9.38496 56.6,-16.12496 15.75,-5.74 31.34,-12.39504 45.3,-21.775042 8.99,-6.12992 17.6,-13.53 22.65,-23.349924 4.6,-8.34008 5.6,-18.77504 1.85,-27.62504 -3.24,-7.79 -9.66,-13.77496 -16.7,-18.17496 -12.39,-7.59008 -26.61,-11.43008 -40.75,-14.2000003 -12.79,-2.22004 -25.735,-3.82508 -38.725,-4.12508 -5.265,0.11248 -10.51283,-0.44856 -15.775,-0.45 z m -1.05,14.7249603 c 18.24749,0.0249 36.49,1.16256 54.4,4.8 11.33,2.3 22.68,5.47504 32.75,11.32504 4.87,2.96 9.71,6.72 11.95,12.15 1.79,4.02 0.79,8.52496 -0.15,12.62496 1.05,0.66 2.075,1.33504 3.075,2.07504 -1.11,-0.54 -2.21,-1.06504 -3.3,-1.62496 -4.05,7.36992 -10.185,13.330004 -17.075,18.049924 -14.76,10.17 -31.525,16.9 -48.375,22.75008 -32.94,11.040002 -67.135,18.059922 -101.525001,22.749922 -7.31,1.12 -14.53,-0.95496 -21.65,-2.32496 -16.28,-3.29 -32.705,-8.19 -46.325,-18 -5.67,-4.410002 -10.965,-9.800002 -13.525,-16.650002 -2.69,-7.13 -3.17,-15.54496 0.5,-22.425044 3.52,-6.84992 9.575,-11.93 15.825,-16.2 11.75,-7.66992 24.985,-12.75496 38.375,-16.72496 24.96,-7.33 50.890001,-10.75504 76.800001,-12.27504 6.07,-0.18496 12.16749,-0.30824 18.25,-0.3 z"
     id="path4201-1"
     inkscape:connector-curvature="0" />
</svg>
