<?xml version="1.0" encoding="UTF-8" standalone="no"?>
<svg
   xmlns:dc="http://purl.org/dc/elements/1.1/"
   xmlns:cc="http://creativecommons.org/ns#"
   xmlns:rdf="http://www.w3.org/1999/02/22-rdf-syntax-ns#"
   xmlns:svg="http://www.w3.org/2000/svg"
   xmlns="http://www.w3.org/2000/svg"
   xmlns:sodipodi="http://sodipodi.sourceforge.net/DTD/sodipodi-0.dtd"
   xmlns:inkscape="http://www.inkscape.org/namespaces/inkscape"
   version="1.0"
   width="369.69327pt"
   height="588.30359pt"
   viewBox="0 0 369.69327 588.30359"
   preserveAspectRatio="xMidYMid meet"
   id="svg3754"
   sodipodi:docname="l5d.svg"
   inkscape:version="0.92.1 r15371">
  <sodipodi:namedview
     pagecolor="#ffffff"
     bordercolor="#666666"
     borderopacity="1"
     objecttolerance="10"
     gridtolerance="10"
     guidetolerance="10"
     inkscape:pageopacity="0"
     inkscape:pageshadow="2"
     inkscape:window-width="1920"
     inkscape:window-height="1043"
     id="namedview3756"
     showgrid="false"
     inkscape:zoom="0.77196193"
     inkscape:cx="-26.271648"
     inkscape:cy="411.03046"
     inkscape:window-x="0"
     inkscape:window-y="0"
     inkscape:window-maximized="1"
     inkscape:current-layer="layer26"
     showguides="true"
     fit-margin-top="0"
     fit-margin-left="0"
     fit-margin-right="0"
     fit-margin-bottom="0" />
  <metadata
     id="metadata3760">
    <rdf:RDF>
      <cc:Work
         rdf:about="">
        <dc:format>image/svg+xml</dc:format>
        <dc:type
           rdf:resource="http://purl.org/dc/dcmitype/StillImage" />
        <dc:title />
      </cc:Work>
    </rdf:RDF>
  </metadata>
  <defs
     id="defs3758">
    <marker
       inkscape:stockid="Arrow1Mend"
       orient="auto"
       refY="0.0"
       refX="0.0"
       id="marker12542"
       style="overflow:visible;"
       inkscape:isstock="true">
      <path
         id="path12540"
         d="M 0.0,0.0 L 5.0,-5.0 L -12.5,0.0 L 5.0,5.0 L 0.0,0.0 z "
         style="fill-rule:evenodd;stroke:#ff0000;stroke-width:1pt;stroke-opacity:1;fill:#ff0000;fill-opacity:1"
         transform="scale(0.4) rotate(180) translate(10,0)" />
    </marker>
    <marker
       inkscape:stockid="Arrow1Sstart"
       orient="auto"
       refY="0.0"
       refX="0.0"
       id="Arrow1Sstart"
       style="overflow:visible"
       inkscape:isstock="true">
      <path
         id="path11050"
         d="M 0.0,0.0 L 5.0,-5.0 L -12.5,0.0 L 5.0,5.0 L 0.0,0.0 z "
         style="fill-rule:evenodd;stroke:#ff0000;stroke-width:1pt;stroke-opacity:1;fill:#ff0000;fill-opacity:1"
         transform="scale(0.2) translate(6,0)" />
    </marker>
    <marker
       inkscape:stockid="Arrow1Mend"
       orient="auto"
       refY="0.0"
       refX="0.0"
       id="Arrow1Mend"
       style="overflow:visible;"
       inkscape:isstock="true">
      <path
         id="path11047"
         d="M 0.0,0.0 L 5.0,-5.0 L -12.5,0.0 L 5.0,5.0 L 0.0,0.0 z "
         style="fill-rule:evenodd;stroke:#000000;stroke-width:1pt;stroke-opacity:1;fill:#000000;fill-opacity:1"
         transform="scale(0.4) rotate(180) translate(10,0)" />
    </marker>
    <marker
       inkscape:stockid="Arrow2Mstart"
       orient="auto"
       refY="0"
       refX="0"
       id="marker12324"
       style="overflow:visible"
       inkscape:isstock="true">
      <path
         inkscape:connector-curvature="0"
         id="path12322"
         style="fill:#000000;fill-opacity:1;fill-rule:evenodd;stroke:#000000;stroke-width:0.625;stroke-linejoin:round;stroke-opacity:1"
         d="M 8.7185878,4.0337352 -2.2072895,0.01601326 8.7185884,-4.0017078 c -1.7454984,2.3720609 -1.7354408,5.6174519 -6e-7,8.035443 z"
         transform="scale(0.6)" />
    </marker>
    <marker
       inkscape:isstock="true"
       style="overflow:visible"
       id="marker4998"
       refX="0"
       refY="0"
       orient="auto"
       inkscape:stockid="Arrow2Mstart">
      <path
         transform="scale(0.6)"
         d="M 8.7185878,4.0337352 -2.2072895,0.01601326 8.7185884,-4.0017078 c -1.7454984,2.3720609 -1.7354408,5.6174519 -6e-7,8.035443 z"
         style="fill:#ff0000;fill-opacity:1;fill-rule:evenodd;stroke:#ff0000;stroke-width:0.625;stroke-linejoin:round;stroke-opacity:1"
         id="path4996"
         inkscape:connector-curvature="0" />
    </marker>
    <marker
       inkscape:isstock="true"
       style="overflow:visible"
       id="marker4355"
       refX="0"
       refY="0"
       orient="auto"
       inkscape:stockid="Arrow2Mstart">
      <path
         transform="scale(0.6)"
         d="M 8.7185878,4.0337352 -2.2072895,0.01601326 8.7185884,-4.0017078 c -1.7454984,2.3720609 -1.7354408,5.6174519 -6e-7,8.035443 z"
         style="fill:#000000;fill-opacity:1;fill-rule:evenodd;stroke:#000000;stroke-width:0.625;stroke-linejoin:round;stroke-opacity:1"
         id="path4353"
         inkscape:connector-curvature="0" />
    </marker>
    <marker
       inkscape:stockid="Arrow1Mstart"
       orient="auto"
       refY="0"
       refX="0"
       id="Arrow1Mstart"
       style="overflow:visible"
       inkscape:isstock="true">
      <path
         id="path10961"
         d="M 0,0 5,-5 -12.5,0 5,5 Z"
         style="fill:#808080;fill-opacity:1;fill-rule:evenodd;stroke:#ff0000;stroke-width:1.00000003pt;stroke-opacity:1"
         transform="matrix(0.4,0,0,0.4,4,0)"
         inkscape:connector-curvature="0" />
    </marker>
    <marker
       inkscape:stockid="Arrow2Mstart"
       orient="auto"
       refY="0"
       refX="0"
       id="marker13608"
       style="overflow:visible"
       inkscape:isstock="true">
      <path
         id="path13606"
         style="fill:#808080;fill-opacity:1;fill-rule:evenodd;stroke:#ff0000;stroke-width:0.625;stroke-linejoin:round;stroke-opacity:1"
         d="M 8.7185878,4.0337352 -2.2072895,0.01601326 8.7185884,-4.0017078 c -1.7454984,2.3720609 -1.7354408,5.6174519 -6e-7,8.035443 z"
         transform="scale(0.6)"
         inkscape:connector-curvature="0" />
    </marker>
    <marker
       inkscape:isstock="true"
       style="overflow:visible"
       id="marker11250"
       refX="0"
       refY="0"
       orient="auto"
       inkscape:stockid="Arrow2Mstart"
       inkscape:collect="always">
      <path
         transform="scale(0.6)"
         d="M 8.7185878,4.0337352 -2.2072895,0.01601326 8.7185884,-4.0017078 c -1.7454984,2.3720609 -1.7354408,5.6174519 -6e-7,8.035443 z"
         style="fill:#000000;fill-opacity:1;fill-rule:evenodd;stroke:#000000;stroke-width:0.625;stroke-linejoin:round;stroke-opacity:1"
         id="path11248"
         inkscape:connector-curvature="0" />
    </marker>
    <marker
       inkscape:stockid="Arrow2Mstart"
       orient="auto"
       refY="0"
       refX="0"
       id="Arrow2Mstart"
       style="overflow:visible"
       inkscape:isstock="true"
       inkscape:collect="always">
      <path
         id="path10979"
         style="fill:#000000;fill-opacity:1;fill-rule:evenodd;stroke:#000000;stroke-width:0.625;stroke-linejoin:round;stroke-opacity:1"
         d="M 8.7185878,4.0337352 -2.2072895,0.01601326 8.7185884,-4.0017078 c -1.7454984,2.3720609 -1.7354408,5.6174519 -6e-7,8.035443 z"
         transform="scale(0.6)"
         inkscape:connector-curvature="0" />
    </marker>
    <marker
       inkscape:isstock="true"
       style="overflow:visible"
       id="marker10935"
       refX="0"
       refY="0"
       orient="auto"
       inkscape:stockid="Arrow1Lend">
      <path
         transform="matrix(-0.8,0,0,-0.8,-10,0)"
         style="fill:#000000;fill-opacity:1;fill-rule:evenodd;stroke:#000000;stroke-width:1.00000003pt;stroke-opacity:1"
         d="M 0,0 5,-5 -12.5,0 5,5 Z"
         id="path10933"
         inkscape:connector-curvature="0" />
    </marker>
    <inkscape:perspective
       id="perspective6357"
       inkscape:persp3d-origin="683.00003 : 256 : 1"
       inkscape:vp_z="1366.0001 : 384 : 1"
       inkscape:vp_y="0 : 1000 : 0"
       inkscape:vp_x="0 : 384 : 1"
       sodipodi:type="inkscape:persp3d" />
  </defs>
  <g
     inkscape:groupmode="layer"
     id="layer26"
     inkscape:label="Layer 1"
     style="display:inline"
     transform="translate(-366.06149,-41.346393)">
    <text
       xml:space="preserve"
       style="font-style:normal;font-variant:normal;font-weight:bold;font-stretch:normal;font-size:36px;line-height:125%;font-family:'Asana Math';-inkscape-font-specification:'Asana Math Bold';text-align:start;letter-spacing:0px;word-spacing:0px;writing-mode:lr-tb;text-anchor:start;fill:#000000;fill-opacity:1;stroke:none;stroke-width:0.75px;stroke-linecap:butt;stroke-linejoin:miter;stroke-opacity:1"
       x="121.53192"
       y="537.19147"
       id="text8216"><tspan
         sodipodi:role="line"
         id="tspan8214"
         x="121.53192"
         y="567.59436"
         style="stroke-width:0.75px" /></text>
    <flowRoot
       style="font-style:normal;font-variant:normal;font-weight:normal;font-stretch:normal;font-size:42.66666794px;line-height:1.25;font-family:'Fira Sans';-inkscape-font-specification:'Fira Sans, Normal';font-variant-ligatures:normal;font-variant-caps:normal;font-variant-numeric:normal;font-feature-settings:normal;text-align:start;letter-spacing:0px;word-spacing:0px;writing-mode:lr-tb;text-anchor:start;fill:#000000;fill-opacity:1;stroke:none"
       id="flowRoot5750"
       xml:space="preserve"><flowRegion
         id="flowRegion5752"><rect
           y="867.08966"
           x="1271.4138"
           height="186.73666"
           width="281.5553"
           id="rect5754" /></flowRegion><flowPara
         id="flowPara5756" /></flowRoot>    <path
       style="fill:none;stroke:#000000;stroke-width:6;stroke-linecap:butt;stroke-linejoin:miter;stroke-miterlimit:4;stroke-dasharray:none;stroke-opacity:1;marker-mid:url(#Arrow2Mstart)"
       d="m 536.58759,422.96151 -61.25092,76.38564 -61.25091,76.38565"
       id="path10923"
       inkscape:connector-curvature="0"
       sodipodi:nodetypes="ccc" />
    <path
       sodipodi:nodetypes="ccc"
       inkscape:connector-curvature="0"
       id="path11246"
       d="m 683.58759,241.46151 -61.25092,76.38564 -61.25091,76.38565"
       style="fill:none;stroke:#000000;stroke-width:6;stroke-linecap:butt;stroke-linejoin:miter;stroke-miterlimit:4;stroke-dasharray:none;stroke-opacity:1;marker-mid:url(#marker11250)" />
    <path
       sodipodi:nodetypes="ccc"
       inkscape:connector-curvature="0"
       id="path4992"
       d="m 561.08576,422.96151 61.25092,76.38564 61.25091,76.38565"
       style="fill:none;stroke:#ff0000;stroke-width:6;stroke-linecap:butt;stroke-linejoin:miter;stroke-miterlimit:4;stroke-dasharray:23.99999973, 23.99999972999999898;stroke-dashoffset:0;stroke-opacity:1;marker-mid:url(#marker12542)" />
    <path
       style="fill:none;stroke:#000000;stroke-width:6;stroke-linecap:butt;stroke-linejoin:miter;stroke-miterlimit:4;stroke-dasharray:23.99999973, 23.99999972999999898;stroke-dashoffset:0;stroke-opacity:1;marker-mid:url(#Arrow1Mend)"
       d="m 414.08576,241.46151 61.25092,76.38564 61.25091,76.38565"
       id="path4994"
       inkscape:connector-curvature="0"
       sodipodi:nodetypes="ccc" />
    <ellipse
       style="fill:#000000;fill-opacity:1;stroke:#000000;stroke-width:1.71344316;stroke-miterlimit:4;stroke-dasharray:none;stroke-dashoffset:0"
       id="path10910"
       ry="31.199137"
       rx="36.643276"
       cy="409.34229"
       cx="544.97626" />
    <text
       xml:space="preserve"
       style="font-style:normal;font-variant:normal;font-weight:normal;font-stretch:normal;font-size:20px;line-height:1.25;font-family:'Fira Sans';-inkscape-font-specification:'Fira Sans, Normal';font-variant-ligatures:normal;font-variant-caps:normal;font-variant-numeric:normal;font-feature-settings:normal;text-align:start;letter-spacing:0px;word-spacing:0px;writing-mode:lr-tb;text-anchor:start;fill:#000000;fill-opacity:1;stroke:none;stroke-width:0.75"
       x="389.59177"
       y="219.07396"
       id="text5086"><tspan
         sodipodi:role="line"
         id="tspan5084"
         x="389.59177"
         y="219.07396"
         style="font-style:italic;font-variant:normal;font-weight:normal;font-stretch:normal;font-size:48px;font-family:'Fira Sans';-inkscape-font-specification:'Fira Sans Italic';stroke-width:0.75">H                    ν<tspan
   style="font-size:36px;baseline-shift:sub"
   id="tspan5090">R</tspan></tspan><tspan
         sodipodi:role="line"
         x="389.59177"
         y="253.75729"
         style="font-style:italic;font-variant:normal;font-weight:normal;font-stretch:normal;font-size:48px;font-family:'Fira Sans';-inkscape-font-specification:'Fira Sans Italic';stroke-width:0.75"
         id="tspan5094" /><tspan
         sodipodi:role="line"
         x="389.59177"
         y="278.75729"
         style="font-style:italic;font-variant:normal;font-weight:normal;font-stretch:normal;font-size:48px;font-family:'Fira Sans';-inkscape-font-specification:'Fira Sans Italic';stroke-width:0.75"
         id="tspan5096" /><tspan
         sodipodi:role="line"
         x="389.59177"
         y="303.75729"
         style="font-style:italic;font-variant:normal;font-weight:normal;font-stretch:normal;font-size:48px;font-family:'Fira Sans';-inkscape-font-specification:'Fira Sans Italic';stroke-width:0.75"
         id="tspan5098" /><tspan
         sodipodi:role="line"
         x="389.59177"
         y="328.75729"
         style="font-style:italic;font-variant:normal;font-weight:normal;font-stretch:normal;font-size:48px;font-family:'Fira Sans';-inkscape-font-specification:'Fira Sans Italic';stroke-width:0.75"
         id="tspan5100" /><tspan
         sodipodi:role="line"
         x="389.59177"
         y="353.75729"
         style="font-style:italic;font-variant:normal;font-weight:normal;font-stretch:normal;font-size:48px;font-family:'Fira Sans';-inkscape-font-specification:'Fira Sans Italic';stroke-width:0.75"
         id="tspan5102" /><tspan
         sodipodi:role="line"
         x="389.59177"
         y="378.75729"
         style="font-style:italic;font-variant:normal;font-weight:normal;font-stretch:normal;font-size:48px;font-family:'Fira Sans';-inkscape-font-specification:'Fira Sans Italic';stroke-width:0.75"
         id="tspan5104" /><tspan
         sodipodi:role="line"
         x="389.59177"
         y="403.75729"
         style="font-style:italic;font-variant:normal;font-weight:normal;font-stretch:normal;font-size:48px;font-family:'Fira Sans';-inkscape-font-specification:'Fira Sans Italic';stroke-width:0.75"
         id="tspan5106" /><tspan
         sodipodi:role="line"
         x="389.59177"
         y="428.75729"
         style="font-style:italic;font-variant:normal;font-weight:normal;font-stretch:normal;font-size:48px;font-family:'Fira Sans';-inkscape-font-specification:'Fira Sans Italic';stroke-width:0.75"
         id="tspan5108" /><tspan
         sodipodi:role="line"
         x="389.59177"
         y="453.75729"
         style="font-style:italic;font-variant:normal;font-weight:normal;font-stretch:normal;font-size:48px;font-family:'Fira Sans';-inkscape-font-specification:'Fira Sans Italic';stroke-width:0.75"
         id="tspan5110" /><tspan
         sodipodi:role="line"
         x="389.59177"
         y="478.75729"
         style="font-style:italic;font-variant:normal;font-weight:normal;font-stretch:normal;font-size:48px;font-family:'Fira Sans';-inkscape-font-specification:'Fira Sans Italic';stroke-width:0.75"
         id="tspan5112" /><tspan
         sodipodi:role="line"
         x="389.59177"
         y="503.75729"
         style="font-style:italic;font-variant:normal;font-weight:normal;font-stretch:normal;font-size:48px;font-family:'Fira Sans';-inkscape-font-specification:'Fira Sans Italic';stroke-width:0.75"
         id="tspan5114" /><tspan
         sodipodi:role="line"
         x="389.59177"
         y="528.75726"
         style="font-style:italic;font-variant:normal;font-weight:normal;font-stretch:normal;font-size:48px;font-family:'Fira Sans';-inkscape-font-specification:'Fira Sans Italic';stroke-width:0.75"
         id="tspan5116" /><tspan
         sodipodi:role="line"
         x="389.59177"
         y="553.75726"
         style="font-style:italic;font-variant:normal;font-weight:normal;font-stretch:normal;font-size:48px;font-family:'Fira Sans';-inkscape-font-specification:'Fira Sans Italic';stroke-width:0.75"
         id="tspan5118" /><tspan
         sodipodi:role="line"
         x="389.59177"
         y="578.75726"
         style="font-style:italic;font-variant:normal;font-weight:normal;font-stretch:normal;font-size:48px;font-family:'Fira Sans';-inkscape-font-specification:'Fira Sans Italic';stroke-width:0.75"
         id="tspan5120" /><tspan
         sodipodi:role="line"
         x="389.59177"
         y="629.07397"
         style="font-style:italic;font-variant:normal;font-weight:normal;font-stretch:normal;font-size:48px;font-family:'Fira Sans';-inkscape-font-specification:'Fira Sans Italic';stroke-width:0.75"
         id="tspan5122">L                    <tspan
   style="fill:#ff0000"
   id="tspan5124">S</tspan></tspan></text>
  </g>
  <g
     style="display:inline"
     inkscape:label="u1bl"
     id="layer3"
     inkscape:groupmode="layer"
     transform="translate(-366.06149,-41.346393)">
    <g
       id="g10411"
       transform="matrix(0.67128678,0,0,0.67128678,-163.55367,-400.39674)"
       style="display:inline;fill:#ff0000">
      <g
         word-spacing="normal"
         letter-spacing="normal"
         font-size-adjust="none"
         font-stretch="normal"
         font-weight="normal"
         font-variant="normal"
         font-style="normal"
         stroke-miterlimit="10.433"
         xml:space="preserve"
         transform="matrix(1.0971429,0,0,-1.0971429,-192,1024.5)"
         id="g13829"
         style="font-style:normal;font-variant:normal;font-weight:normal;font-stretch:normal;letter-spacing:normal;word-spacing:normal;text-anchor:start;fill:#ff0000;fill-opacity:1;fill-rule:evenodd;stroke:#000000;stroke-linecap:butt;stroke-linejoin:miter;stroke-miterlimit:10.43299961;stroke-dasharray:none;stroke-dashoffset:0;stroke-opacity:1"><path
           id="path10404"
           d="m 1220.4,332.11 v 0.02 0.03 l 0.1,0.02 v 0.03 0.04 0.04 0.05 0.03 l 0.1,0.04 v 0.04 0.03 0.03 0.03 0.03 0.03 0.02 0.03 0.02 0.03 0.02 l 0.1,0.02 v 0.02 0.02 0.03 0.04 0.04 0.04 0.04 0.02 0.03 c 0,0.54 -0.5,0.98 -1,0.98 -0.5,0 -0.8,-0.25 -1.2,-1.14 L 1209.8,310 c -0.1,-0.31 -0.2,-0.61 -0.2,-0.91 0,-0.14 0,-0.25 0.2,-0.84 l 8.7,-22.87 c 0.2,-0.55 0.5,-1.19 1.2,-1.19 0.5,0 1,0.45 1,1 0,0.14 0,0.25 -0.3,0.79 l -8.8,23.11 z"
           inkscape:connector-curvature="0"
           style="fill:#ff0000;stroke-width:0" /><path
           id="path10406"
           d="m 1255.5,331.27 v 0.01 0.02 0.01 0.02 0.02 0.02 0.02 0.02 0.02 0.02 0.02 0.02 0.02 0.02 l -0.1,0.02 v 0.02 0.02 0.02 0.02 0.02 l -0.1,0.02 v 0.01 0.02 0.01 l -0.1,0.01 v 0.01 0.01 0 0.01 h -0.1 v 0 0.01 0 0 h -0.1 v 0 0.01 0 c -0.3,0 -0.3,-0.05 -0.9,-0.75 l -2.4,-2.85 c -1.3,2.35 -3.9,3.6 -7.1,3.6 -6.4,0 -12.3,-5.74 -12.3,-11.77 0,-4.03 2.6,-6.33 5.1,-7.06 l 5.4,-1.41 c 1.8,-0.44 4.6,-1.19 4.6,-5.28 0,-4.48 -4.1,-9.16 -9,-9.16 -3.2,0 -8.7,1.1 -8.7,7.27 0,1.2 0.2,2.39 0.3,2.69 0,0.2 0.1,0.25 0.1,0.36 0,0.5 -0.4,0.54 -0.6,0.54 -0.3,0 -0.4,-0.04 -0.5,-0.2 -0.2,-0.2 -3,-11.56 -3,-11.7 0,-0.3 0.2,-0.5 0.5,-0.5 0.3,0 0.3,0.04 0.9,0.75 l 2.5,2.82 c 2.1,-2.89 5.5,-3.57 8.4,-3.57 6.8,0 12.6,6.62 12.6,12.79 0,3.44 -1.7,5.14 -2.4,5.83 -1.1,1.16 -1.9,1.35 -6.3,2.5 -1.1,0.3 -2.9,0.8 -3.4,0.89 -1.3,0.46 -3,1.89 -3,4.53 0,4.05 4,8.29 8.7,8.29 4.2,0 7.2,-2.15 7.2,-7.74 0,-1.59 -0.2,-2.48 -0.2,-2.78 0,-0.05 0,-0.5 0.6,-0.5 0.5,0 0.5,0.16 0.7,1 z"
           inkscape:connector-curvature="0"
           style="fill:#ff0000;stroke-width:0" /><path
           id="path10408"
           d="m 1270.5,308.25 v 0.03 0.02 0.03 0.03 0.02 0.02 0.03 l 0.1,0.02 v 0.02 0.02 0.03 0.02 0.04 0.03 0.04 0.03 0.03 l 0.1,0.03 v 0.03 0.02 0.03 0.02 0.02 0.02 0.02 0.02 0.02 0.02 0.01 0.02 0.01 0.01 0.03 0.03 0.02 c 0,0.16 0,0.25 -0.2,0.85 l -8.7,22.92 c -0.4,0.84 -0.6,1.14 -1.2,1.14 -0.5,0 -1,-0.44 -1,-0.98 0,-0.16 0,-0.25 0.3,-0.8 l 8.8,-23.13 -8.8,-23.01 c -0.3,-0.55 -0.3,-0.64 -0.3,-0.89 0,-0.55 0.5,-1 1,-1 0.7,0 0.8,0.5 1.1,1 z"
           inkscape:connector-curvature="0"
           style="fill:#ff0000;stroke-width:0" /></g>    </g>
    <g
       transform="translate(-486.46244,-586.48409)"
       id="g8390"
       style="display:inline">
      <g
         style="font-style:normal;font-variant:normal;font-weight:normal;font-stretch:normal;letter-spacing:normal;word-spacing:normal;text-anchor:start;fill:none;fill-opacity:1;fill-rule:evenodd;stroke:#000000;stroke-linecap:butt;stroke-linejoin:miter;stroke-miterlimit:10.43299961;stroke-dasharray:none;stroke-dashoffset:0;stroke-opacity:1"
         id="g8388"
         transform="matrix(1.0971429,0,0,-1.0971429,-192,1024.5)"
         xml:space="preserve"
         stroke-miterlimit="10.433"
         font-style="normal"
         font-variant="normal"
         font-weight="normal"
         font-stretch="normal"
         font-size-adjust="none"
         letter-spacing="normal"
         word-spacing="normal"><path
           style="fill:#000000;stroke-width:0"
           inkscape:connector-curvature="0"
           d="m 979.4,308.16 -0.02,-0.66 -0.04,-0.63 -0.07,-0.62 -0.09,-0.6 -0.12,-0.58 -0.14,-0.56 -0.17,-0.55 -0.18,-0.52 -0.21,-0.5 -0.23,-0.49 -0.25,-0.46 -0.26,-0.44 -0.29,-0.43 -0.3,-0.4 -0.31,-0.39 -0.33,-0.36 -0.35,-0.34 -0.36,-0.32 -0.36,-0.3 -0.38,-0.28 -0.4,-0.26 -0.4,-0.24 -0.4,-0.21 -0.42,-0.19 -0.42,-0.17 -0.43,-0.15 -0.43,-0.13 -0.44,-0.1 -0.44,-0.08 -0.44,-0.06 -0.44,-0.03 -0.44,-0.02 c -2.35,0 -8.24,1.24 -8.24,10.71 v 18.98 c 0,1.8 0.11,2.34 3.94,2.34 h 1.2 v 1.55 c -1.75,-0.15 -5.44,-0.15 -7.33,-0.15 -1.89,0 -5.62,0 -7.37,0.15 v -1.55 h 1.2 c 3.83,0 3.94,-0.54 3.94,-2.34 V 308 c 0,-7.03 5.78,-12.45 12.55,-12.45 5.73,0 10.22,4.62 11.06,10.31 0.16,1 0.16,1.44 0.16,3.44 v 15.93 c 0,1.65 0,3.89 5.12,3.89 v 1.55 c -1.8,-0.05 -4.19,-0.15 -5.87,-0.15 -1.75,0 -4.15,0.1 -5.94,0.15 v -1.55 c 5.14,0 5.14,-2.34 5.14,-3.68 z"
           id="path8358" /><path
           style="fill:#000000;stroke-width:0"
           inkscape:connector-curvature="0"
           d="m 1004.2,284.69 v 0.02 0.03 0.01 0.02 0.01 0.02 0.02 0.01 0.02 0.02 l -0.1,0.02 v 0.03 0.02 0.03 0.03 0.03 l -0.1,0.04 v 0.03 0.02 0.02 l -0.1,0.02 v 0.02 0.02 0.03 0.02 l -0.1,0.02 v 0.03 0.03 0.02 l -0.1,0.03 v 0.03 0.03 0.03 l -0.1,0.03 v 0.03 0.03 l -0.1,0.04 v 0.03 0.04 l -0.1,0.03 v 0.04 0.04 c -6.26,6.28 -7.86,15.69 -7.86,23.31 0,8.68 1.89,17.35 8.06,23.57 0.6,0.61 0.6,0.7 0.6,0.86 0,0.34 -0.2,0.48 -0.5,0.48 -0.5,0 -4.97,-3.38 -7.91,-9.7 -2.54,-5.49 -3.14,-11.02 -3.14,-15.21 0,-3.89 0.55,-9.9 3.28,-15.54 2.99,-6.13 7.27,-9.36 7.77,-9.36 0.3,0 0.5,0.14 0.5,0.5 z"
           id="path8360" /><path
           style="fill:#000000;stroke-width:0"
           inkscape:connector-curvature="0"
           d="m 1021.7,328.53 v 0.06 0.05 0.05 0.05 0.05 0.05 0.04 0.05 0.04 0.04 0.04 0.04 0.04 0.04 0.03 0.03 l -0.1,0.07 v 0.06 0.05 0.05 0.05 0.04 0.04 l -0.1,0.03 v 0.04 0.02 l -0.1,0.03 v 0.02 l -0.1,0.02 v 0.01 0.01 0 l -0.1,0.01 v 0.01 0 0.01 h -0.1 v 0.01 0 h -0.1 v 0.01 h -0.1 v 0 0 h -0.1 v 0.01 h -0.1 v 0 h -0.1 v 0 h -0.1 c -3.1,-3.19 -7.4,-3.19 -9,-3.19 v -1.55 c 1,0 3.9,0 6.5,1.3 v -25.81 c 0,-1.8 -0.2,-2.39 -4.6,-2.39 h -1.6 v -1.55 c 1.7,0.16 6,0.16 8,0.16 2,0 6.4,0 8.1,-0.16 v 1.55 h -1.6 c -4.5,0 -4.6,0.54 -4.6,2.39 z"
           id="path8362" /><path
           style="fill:#000000;stroke-width:0"
           inkscape:connector-curvature="0"
           d="m 1046.4,309.09 v 0.37 0.39 0.39 0.41 l -0.1,0.84 v 0.88 l -0.1,0.92 -0.1,0.95 -0.2,0.98 -0.1,1 -0.2,1.02 -0.3,1.04 -0.2,1.05 -0.3,1.06 -0.4,1.06 -0.4,1.07 -0.2,0.53 -0.2,0.53 -0.3,0.53 -0.2,0.53 c -3,6.13 -7.3,9.36 -7.8,9.36 -0.3,0 -0.5,-0.19 -0.5,-0.48 0,-0.16 0,-0.25 1,-1.16 4.9,-4.92 7.7,-12.84 7.7,-23.27 0,-8.51 -1.8,-17.28 -8,-23.56 -0.7,-0.59 -0.7,-0.7 -0.7,-0.84 0,-0.3 0.2,-0.5 0.5,-0.5 0.5,0 5,3.39 7.9,9.72 2.6,5.47 3.2,11 3.2,15.18 z"
           id="path8364" /><path
           style="fill:#000000;stroke-width:0"
           inkscape:connector-curvature="0"
           d="m 1057.9,291.8 v -0.11 -0.11 -0.09 l -0.1,-0.1 v -0.09 -0.08 l -0.1,-0.08 V 291.07 291 l -0.1,-0.07 v -0.06 l -0.1,-0.06 v -0.05 l -0.1,-0.05 v -0.05 l -0.1,-0.04 -0.1,-0.04 -0.1,-0.04 -0.1,-0.03 -0.1,-0.03 -0.1,-0.03 v -0.01 l -0.1,-0.01 -0.1,-0.01 v -0.01 l -0.1,-0.01 -0.1,-0.01 v -0.01 l -0.1,-0.01 h -0.1 l -0.1,-0.01 h -0.1 l -0.1,-0.01 v 0 l -0.1,-0.01 h -0.1 -0.1 l -0.1,-0.01 h -0.2 -0.1 -0.1 -0.1 -0.1 c -0.6,0 -1.1,0 -1.1,-0.74 0,-0.51 0.4,-0.51 1.1,-0.51 h 13.4 c 5.9,0 10.4,4 10.4,7.45 0,2.49 -2.3,4.61 -6,4.99 4.3,0.76 7.8,3.42 7.8,6.4 0,2.66 -2.7,4.96 -7.2,4.96 l -0.6,-1.26 c 3.6,0 4.4,-2.34 4.4,-3.65 0,-2.83 -3.2,-6.03 -7.9,-6.03 h -5.7 l -0.2,-0.99 h 7.4 c 3.2,0 4.5,-2.15 4.5,-4.17 0,-3.45 -3.5,-6.45 -7.7,-6.45 h -5.7 c -1,0 -1.1,0.05 -1.1,0.36 0,0.03 0,0.2 0.2,0.72 l 2.4,9.54 0.2,0.99 2.2,8.5 c 0.2,1.08 0.3,1.18 1.7,1.18 h 5.3 l 0.6,1.26 h -12.7 c -0.7,0 -1.1,0 -1.1,-0.77 0,-0.49 0.4,-0.49 1.1,-0.49 0,0 0.7,0 1.3,-0.07 0.8,-0.07 0.8,-0.14 0.8,-0.49 0,-0.06 0,-0.23 -0.1,-0.76 z"
           id="path8366" /><path
           style="fill:#000000;stroke-width:0"
           inkscape:connector-curvature="0"
           d="m 1109,296.95 h 0.1 v 0 h 0.1 0.1 l 0.1,0.01 v 0 l 0.1,0.01 h 0.1 v 0.01 l 0.1,0.01 V 297 l 0.1,0.01 v 0.01 l 0.1,0.02 v 0.02 l 0.1,0.02 v 0.02 l 0.1,0.03 v 0.03 l 0.1,0.03 v 0.04 l 0.1,0.04 v 0.02 0.02 0.02 0.03 0.02 0.03 l 0.1,0.02 v 0.03 0.03 0.03 0.03 0.03 0.03 0.04 0.03 0.04 0.04 0.04 c 0,0.86 -0.8,0.86 -1.4,0.86 h -20.7 c -0.6,0 -1.4,0 -1.4,-0.83 0,-0.88 0.8,-0.88 1.4,-0.88 z"
           id="path8368" /><path
           style="fill:#000000;stroke-width:0"
           inkscape:connector-curvature="0"
           d="m 1128.6,310.02 v 0.11 0.11 0.11 l 0.1,0.1 v 0.09 0.09 l 0.1,0.09 v 0.08 0.08 l 0.1,0.07 v 0.07 l 0.1,0.06 0.1,0.06 v 0.06 l 0.1,0.05 0.1,0.04 0.1,0.05 0.1,0.04 0.1,0.04 0.1,0.03 0.1,0.03 0.1,0.01 0.1,0.02 0.1,0.01 v 0.01 l 0.1,0.01 0.1,0.01 0.1,0.01 0.1,0.01 0.1,0.01 h 0.1 l 0.1,0.01 0.1,0.01 h 0.1 l 0.1,0.01 h 0.1 l 0.2,0.01 h 0.1 0.1 0.2 0.1 0.1 0.2 c 1.1,0 1.4,0 1.4,0.77 0,0.03 0,0.49 -0.6,0.49 -0.8,0 -1.7,-0.07 -2.6,-0.11 -0.8,-0.04 -1.9,-0.04 -2.7,-0.04 -0.8,0 -1.7,0.04 -2.5,0.04 -0.7,0 -1.5,0.11 -2.2,0.11 -0.2,0 -0.8,0 -0.8,-0.77 0,-0.49 0.5,-0.49 1.2,-0.49 0,0 0.7,0 1.3,-0.07 0.7,-0.07 0.8,-0.14 0.8,-0.49 0,-0.06 0,-0.23 -0.2,-0.76 l -4.6,-18.5 c -0.3,-1.19 -0.4,-1.47 -3,-1.47 -0.6,0 -1.1,0 -1.1,-0.74 0,-0.51 0.4,-0.51 1.1,-0.51 h 17.5 c 0.8,0 0.9,0.03 1.1,0.7 0.4,0.94 3,7.69 3,7.97 0,0.11 -0.1,0.5 -0.6,0.5 -0.4,0 -0.5,-0.19 -0.7,-0.73 -1.3,-3.32 -2.8,-7.19 -9.2,-7.19 h -4 c -1,0 -1.1,0.05 -1.1,0.36 0,0.03 0,0.2 0.2,0.72 z"
           id="path8370" /><path
           style="fill:#ff0000;stroke-width:0"
           inkscape:connector-curvature="0"
           d="m 1199.6,308.09 -0.3,-0.19 -0.2,-0.2 -0.3,-0.19 -0.2,-0.2 -0.2,-0.19 -0.2,-0.19 -0.3,-0.19 -0.1,-0.18 -0.2,-0.19 -0.2,-0.18 -0.2,-0.18 -0.2,-0.18 -0.1,-0.17 -0.2,-0.17 -0.1,-0.16 -0.2,-0.17 -0.1,-0.15 -0.1,-0.16 -0.1,-0.14 -0.2,-0.15 -0.1,-0.14 -0.1,-0.13 -0.1,-0.13 -0.1,-0.12 v -0.11 l -0.1,-0.11 -0.1,-0.1 v -0.1 l -0.1,-0.09 -0.1,-0.08 v -0.07 -0.07 c -2.3,-3.43 -2.7,-6.58 -2.7,-6.62 0,-0.6 0.6,-0.6 1,-0.6 0.9,0 0.9,0.1 1.1,1 1.2,4.88 4.1,9.07 9.7,11.36 0.6,0.19 0.8,0.3 0.8,0.64 0,0.35 -0.3,0.5 -0.4,0.55 -2.2,0.84 -8.2,3.34 -10.1,11.72 -0.2,0.59 -0.2,0.73 -1.1,0.73 -0.4,0 -1,0 -1,-0.59 0,-0.09 0.5,-3.23 2.6,-6.58 1,-1.48 2.4,-3.23 4.6,-4.83 h -37.1 c -0.9,0 -1.8,0 -1.8,-1 0,-1 0.9,-1 1.8,-1 z"
           id="path8372" /><path
           style="fill:#ff0000;stroke-width:0"
           inkscape:connector-curvature="0"
           d="m 1257.5,329.47 v 0.04 0.04 0.04 0.04 0.04 0.05 0.04 l 0.1,0.05 v 0.05 0.04 0.05 0.06 0.05 0.05 0.05 0.03 0.03 c 0,0.45 -0.2,0.45 -1.2,0.45 h -21.1 c -1.1,0 -1.2,-0.05 -1.5,-1 l -2.7,-8.97 c -0.1,-0.25 -0.2,-0.59 -0.2,-0.7 0,-0.05 0,-0.55 0.6,-0.55 0.5,0 0.6,0.36 0.7,0.5 1.9,5.89 4.4,9.17 12.2,9.17 h 8.1 l -27.8,-31.14 c 0,-0.04 -0.2,-0.75 -0.2,-0.89 0,-0.45 0.3,-0.45 1.2,-0.45 h 21.7 c 1.2,0 1.2,0.05 1.6,1 l 3.5,11 c 0,0.2 0.2,0.56 0.2,0.75 0,0.25 -0.2,0.55 -0.7,0.55 -0.4,0 -0.5,-0.19 -0.8,-1.24 -2.2,-6.78 -4.6,-10.37 -13.1,-10.37 h -8.5 z"
           id="path8374" /><path
           style="fill:#ff0000;stroke-width:0"
           inkscape:connector-curvature="0"
           d="m 1284.6,309.08 0.1,0.24 0.1,0.25 v 0.11 0.12 l 0.1,0.11 v 0.12 l 0.1,0.1 0.1,0.11 v 0.11 l 0.1,0.1 0.1,0.1 0.1,0.09 0.1,0.09 0.1,0.09 0.1,0.08 0.1,0.09 0.1,0.07 0.1,0.07 0.1,0.07 0.2,0.07 0.1,0.06 0.2,0.05 0.2,0.05 0.2,0.04 0.2,0.04 0.2,0.04 0.2,0.03 0.1,0.01 0.1,0.01 0.1,0.01 h 0.2 l 0.1,0.01 h 0.1 c 0.2,0 0.7,0.04 0.7,0.77 0,0.2 -0.2,0.49 -0.5,0.49 -1.2,0 -2.5,-0.15 -3.6,-0.15 -0.9,0 -2.9,0.15 -3.7,0.15 -0.2,0 -0.7,0 -0.7,-0.77 0,-0.45 0.4,-0.49 0.7,-0.49 1.7,-0.03 2.3,-0.56 2.3,-1.43 0,-0.27 -0.1,-0.46 -0.2,-0.83 l -3.8,-15.19 -8.8,18.11 c -0.3,0.6 -0.4,0.6 -1.2,0.6 h -4.8 c -0.6,0 -1.1,0 -1.1,-0.77 0,-0.49 0.4,-0.49 1.2,-0.49 0.7,0 1.5,-0.03 2.2,-0.17 l -4.7,-18.64 c -0.3,-1.33 -0.9,-2.37 -3.6,-2.48 -0.3,0 -0.7,-0.03 -0.7,-0.74 0,-0.37 0.2,-0.51 0.5,-0.51 1.1,0 2.4,0.14 3.6,0.14 0.8,0 2.9,-0.14 3.7,-0.14 0.4,0 0.7,0.17 0.7,0.73 0,0.49 -0.4,0.52 -0.8,0.52 -2.2,0.08 -2.2,0.98 -2.2,1.47 0,0.14 0,0.31 0.1,0.87 l 4.5,17.83 10.2,-20.83 c 0.3,-0.56 0.4,-0.59 0.7,-0.59 0.6,0 0.6,0.11 0.8,0.73 z"
           id="path8376" /></g>    </g>
  </g>
</svg>
