<?xml version="1.0" encoding="UTF-8" standalone="no"?>
<svg
   xmlns:dc="http://purl.org/dc/elements/1.1/"
   xmlns:cc="http://creativecommons.org/ns#"
   xmlns:rdf="http://www.w3.org/1999/02/22-rdf-syntax-ns#"
   xmlns:svg="http://www.w3.org/2000/svg"
   xmlns="http://www.w3.org/2000/svg"
   xmlns:sodipodi="http://sodipodi.sourceforge.net/DTD/sodipodi-0.dtd"
   xmlns:inkscape="http://www.inkscape.org/namespaces/inkscape"
   width="576pt"
   version="1.1"
   height="432pt"
   viewBox="0 0 576 432"
   id="svg4335"
   inkscape:version="0.48.3.1 r9886"
   sodipodi:docname="LoverWlZnu_Dm23_500_500_random-page001.svg">
  <metadata
     id="metadata4672">
    <rdf:RDF>
      <cc:Work
         rdf:about="">
        <dc:format>image/svg+xml</dc:format>
        <dc:type
           rdf:resource="http://purl.org/dc/dcmitype/StillImage" />
      </cc:Work>
    </rdf:RDF>
  </metadata>
  <sodipodi:namedview
     pagecolor="#ffffff"
     bordercolor="#666666"
     borderopacity="1"
     objecttolerance="10"
     gridtolerance="10"
     guidetolerance="10"
     inkscape:pageopacity="0"
     inkscape:pageshadow="2"
     inkscape:window-width="1366"
     inkscape:window-height="709"
     id="namedview4670"
     showgrid="false"
     inkscape:zoom="12.954598"
     inkscape:cx="323.98625"
     inkscape:cy="376.23654"
     inkscape:window-x="0"
     inkscape:window-y="27"
     inkscape:window-maximized="1"
     inkscape:current-layer="svg4335" />
  <defs
     id="defs4337">
    <clipPath
       id="Clip0">
      <path
         d="M0 0 L576 0 L576 432 L0 432 L0 0 Z"
         transform="translate(0, 0)"
         id="path4340" />
    </clipPath>
  </defs>
  <g
     id="Background">
    <g
       id="Group1"
       clip-path="url(#Clip0)">
      <path
         style="fill:none;stroke:#ffffff; stroke-width:1; stroke-linecap:square; stroke-linejoin:round; stroke-dasharray:none;"
         d="M0 0 L0 414.996 "
         transform="translate(19, 0)"
         id="path4344" />
      <path
         style="fill:#009449;fill-rule:nonzero;stroke:#000000;stroke-width:1;stroke-linecap:square;stroke-linejoin:round;stroke-dasharray:none;fill-opacity:1"
         d="M0 345.602 L10.566 345.602 L10.566 0 L0 0 L0 345.602 Z"
         transform="translate(254.035, 26.1992)"
         id="path4346" />
      <path
         style="fill:none;stroke:#000000; stroke-width:0.5; stroke-linecap:butt; stroke-linejoin:round; stroke-dasharray:1 3 ; stroke-dashoffset:0;"
         d="M0 345.602 L0 0 "
         transform="translate(189.59, 26.1992)"
         id="path4348" />
      <path
         style="fill:none;stroke:#000000; stroke-width:0.5; stroke-linecap:butt; stroke-linejoin:round; stroke-dasharray:none;"
         d="M0 4 L0 0 "
         transform="translate(189.59, 367.801)"
         id="path4350" />
      <path
         style="fill:none;stroke:#000000; stroke-width:0.5; stroke-linecap:butt; stroke-linejoin:round; stroke-dasharray:none;"
         d="M0 0 L0 4 "
         transform="translate(189.59, 26.1992)"
         id="path4352" />
      <path
         style="fill:none;stroke:#000000; stroke-width:0.5; stroke-linecap:butt; stroke-linejoin:round; stroke-dasharray:1 3 ; stroke-dashoffset:0;"
         d="M0 345.602 L0 0 "
         transform="translate(364.137, 26.1992)"
         id="path4354" />
      <path
         style="fill:none;stroke:#000000; stroke-width:0.5; stroke-linecap:butt; stroke-linejoin:round; stroke-dasharray:none;"
         d="M0 4 L0 0 "
         transform="translate(364.137, 367.801)"
         id="path4356" />
      <path
         style="fill:none;stroke:#000000; stroke-width:0.5; stroke-linecap:butt; stroke-linejoin:round; stroke-dasharray:none;"
         d="M0 0 L0 4 "
         transform="translate(364.137, 26.1992)"
         id="path4358" />
      <path
         style="fill:none;stroke:#000000; stroke-width:0.5; stroke-linecap:butt; stroke-linejoin:round; stroke-dasharray:none;"
         d="M0 2 L0 0 "
         transform="translate(98.3242, 369.801)"
         id="path4360" />
      <path
         style="fill:none;stroke:#000000; stroke-width:0.5; stroke-linecap:butt; stroke-linejoin:round; stroke-dasharray:none;"
         d="M0 0 L0 2 "
         transform="translate(98.3242, 26.1992)"
         id="path4362" />
      <path
         style="fill:none;stroke:#000000; stroke-width:0.5; stroke-linecap:butt; stroke-linejoin:round; stroke-dasharray:none;"
         d="M0 2 L0 0 "
         transform="translate(120.133, 369.801)"
         id="path4364" />
      <path
         style="fill:none;stroke:#000000; stroke-width:0.5; stroke-linecap:butt; stroke-linejoin:round; stroke-dasharray:none;"
         d="M0 0 L0 2 "
         transform="translate(120.133, 26.1992)"
         id="path4366" />
      <path
         style="fill:none;stroke:#000000; stroke-width:0.5; stroke-linecap:butt; stroke-linejoin:round; stroke-dasharray:none;"
         d="M0 2 L0 0 "
         transform="translate(137.047, 369.801)"
         id="path4368" />
      <path
         style="fill:none;stroke:#000000; stroke-width:0.5; stroke-linecap:butt; stroke-linejoin:round; stroke-dasharray:none;"
         d="M0 0 L0 2 "
         transform="translate(137.047, 26.1992)"
         id="path4370" />
      <path
         style="fill:none;stroke:#000000; stroke-width:0.5; stroke-linecap:butt; stroke-linejoin:round; stroke-dasharray:none;"
         d="M0 2 L0 0 "
         transform="translate(150.867, 369.801)"
         id="path4372" />
      <path
         style="fill:none;stroke:#000000; stroke-width:0.5; stroke-linecap:butt; stroke-linejoin:round; stroke-dasharray:none;"
         d="M0 0 L0 2 "
         transform="translate(150.867, 26.1992)"
         id="path4374" />
      <path
         style="fill:none;stroke:#000000; stroke-width:0.5; stroke-linecap:butt; stroke-linejoin:round; stroke-dasharray:none;"
         d="M0 2 L0 0 "
         transform="translate(162.551, 369.801)"
         id="path4376" />
      <path
         style="fill:none;stroke:#000000; stroke-width:0.5; stroke-linecap:butt; stroke-linejoin:round; stroke-dasharray:none;"
         d="M0 0 L0 2 "
         transform="translate(162.551, 26.1992)"
         id="path4378" />
      <path
         style="fill:none;stroke:#000000; stroke-width:0.5; stroke-linecap:butt; stroke-linejoin:round; stroke-dasharray:none;"
         d="M0 2 L0 0 "
         transform="translate(172.676, 369.801)"
         id="path4380" />
      <path
         style="fill:none;stroke:#000000; stroke-width:0.5; stroke-linecap:butt; stroke-linejoin:round; stroke-dasharray:none;"
         d="M0 0 L0 2 "
         transform="translate(172.676, 26.1992)"
         id="path4382" />
      <path
         style="fill:none;stroke:#000000; stroke-width:0.5; stroke-linecap:butt; stroke-linejoin:round; stroke-dasharray:none;"
         d="M0 2 L0 0 "
         transform="translate(181.602, 369.801)"
         id="path4384" />
      <path
         style="fill:none;stroke:#000000; stroke-width:0.5; stroke-linecap:butt; stroke-linejoin:round; stroke-dasharray:none;"
         d="M0 0 L0 2 "
         transform="translate(181.602, 26.1992)"
         id="path4386" />
      <path
         style="fill:none;stroke:#000000; stroke-width:0.5; stroke-linecap:butt; stroke-linejoin:round; stroke-dasharray:none;"
         d="M0 2 L0 0 "
         transform="translate(242.133, 369.801)"
         id="path4388" />
      <path
         style="fill:none;stroke:#000000; stroke-width:0.5; stroke-linecap:butt; stroke-linejoin:round; stroke-dasharray:none;"
         d="M0 0 L0 2 "
         transform="translate(242.133, 26.1992)"
         id="path4390" />
      <path
         style="fill:none;stroke:#000000; stroke-width:0.5; stroke-linecap:butt; stroke-linejoin:round; stroke-dasharray:none;"
         d="M0 2 L0 0 "
         transform="translate(272.867, 369.801)"
         id="path4392" />
      <path
         style="fill:none;stroke:#000000; stroke-width:0.5; stroke-linecap:butt; stroke-linejoin:round; stroke-dasharray:none;"
         d="M0 0 L0 2 "
         transform="translate(272.867, 26.1992)"
         id="path4394" />
      <path
         style="fill:none;stroke:#000000; stroke-width:0.5; stroke-linecap:butt; stroke-linejoin:round; stroke-dasharray:none;"
         d="M0 2 L0 0 "
         transform="translate(294.676, 369.801)"
         id="path4396" />
      <path
         style="fill:none;stroke:#000000; stroke-width:0.5; stroke-linecap:butt; stroke-linejoin:round; stroke-dasharray:none;"
         d="M0 0 L0 2 "
         transform="translate(294.676, 26.1992)"
         id="path4398" />
      <path
         style="fill:none;stroke:#000000; stroke-width:0.5; stroke-linecap:butt; stroke-linejoin:round; stroke-dasharray:none;"
         d="M0 2 L0 0 "
         transform="translate(311.594, 369.801)"
         id="path4400" />
      <path
         style="fill:none;stroke:#000000; stroke-width:0.5; stroke-linecap:butt; stroke-linejoin:round; stroke-dasharray:none;"
         d="M0 0 L0 2 "
         transform="translate(311.594, 26.1992)"
         id="path4402" />
      <path
         style="fill:none;stroke:#000000; stroke-width:0.5; stroke-linecap:butt; stroke-linejoin:round; stroke-dasharray:none;"
         d="M0 2 L0 0 "
         transform="translate(325.41, 369.801)"
         id="path4404" />
      <path
         style="fill:none;stroke:#000000; stroke-width:0.5; stroke-linecap:butt; stroke-linejoin:round; stroke-dasharray:none;"
         d="M0 0 L0 2 "
         transform="translate(325.41, 26.1992)"
         id="path4406" />
      <path
         style="fill:none;stroke:#000000; stroke-width:0.5; stroke-linecap:butt; stroke-linejoin:round; stroke-dasharray:none;"
         d="M0 2 L0 0 "
         transform="translate(337.098, 369.801)"
         id="path4408" />
      <path
         style="fill:none;stroke:#000000; stroke-width:0.5; stroke-linecap:butt; stroke-linejoin:round; stroke-dasharray:none;"
         d="M0 0 L0 2 "
         transform="translate(337.098, 26.1992)"
         id="path4410" />
      <path
         style="fill:none;stroke:#000000; stroke-width:0.5; stroke-linecap:butt; stroke-linejoin:round; stroke-dasharray:none;"
         d="M0 2 L0 0 "
         transform="translate(347.219, 369.801)"
         id="path4412" />
      <path
         style="fill:none;stroke:#000000; stroke-width:0.5; stroke-linecap:butt; stroke-linejoin:round; stroke-dasharray:none;"
         d="M0 0 L0 2 "
         transform="translate(347.219, 26.1992)"
         id="path4414" />
      <path
         style="fill:none;stroke:#000000; stroke-width:0.5; stroke-linecap:butt; stroke-linejoin:round; stroke-dasharray:none;"
         d="M0 2 L0 0 "
         transform="translate(356.148, 369.801)"
         id="path4416" />
      <path
         style="fill:none;stroke:#000000; stroke-width:0.5; stroke-linecap:butt; stroke-linejoin:round; stroke-dasharray:none;"
         d="M0 0 L0 2 "
         transform="translate(356.148, 26.1992)"
         id="path4418" />
      <path
         style="fill:none;stroke:#000000; stroke-width:0.5; stroke-linecap:butt; stroke-linejoin:round; stroke-dasharray:none;"
         d="M0 2 L0 0 "
         transform="translate(416.68, 369.801)"
         id="path4420" />
      <path
         style="fill:none;stroke:#000000; stroke-width:0.5; stroke-linecap:butt; stroke-linejoin:round; stroke-dasharray:none;"
         d="M0 0 L0 2 "
         transform="translate(416.68, 26.1992)"
         id="path4422" />
      <path
         style="fill:none;stroke:#000000; stroke-width:0.5; stroke-linecap:butt; stroke-linejoin:round; stroke-dasharray:none;"
         d="M0 2 L0 0 "
         transform="translate(447.414, 369.801)"
         id="path4424" />
      <path
         style="fill:none;stroke:#000000; stroke-width:0.5; stroke-linecap:butt; stroke-linejoin:round; stroke-dasharray:none;"
         d="M0 0 L0 2 "
         transform="translate(447.414, 26.1992)"
         id="path4426" />
      <path
         style="fill:none;stroke:#000000; stroke-width:0.5; stroke-linecap:butt; stroke-linejoin:round; stroke-dasharray:none;"
         d="M0 2 L0 0 "
         transform="translate(469.223, 369.801)"
         id="path4428" />
      <path
         style="fill:none;stroke:#000000; stroke-width:0.5; stroke-linecap:butt; stroke-linejoin:round; stroke-dasharray:none;"
         d="M0 0 L0 2 "
         transform="translate(469.223, 26.1992)"
         id="path4430" />
      <path
         style="fill:none;stroke:#000000; stroke-width:0.5; stroke-linecap:butt; stroke-linejoin:round; stroke-dasharray:none;"
         d="M0 2 L0 0 "
         transform="translate(486.137, 369.801)"
         id="path4432" />
      <path
         style="fill:none;stroke:#000000; stroke-width:0.5; stroke-linecap:butt; stroke-linejoin:round; stroke-dasharray:none;"
         d="M0 0 L0 2 "
         transform="translate(486.137, 26.1992)"
         id="path4434" />
      <path
         style="fill:none;stroke:#000000; stroke-width:0.5; stroke-linecap:butt; stroke-linejoin:round; stroke-dasharray:none;"
         d="M0 2 L0 0 "
         transform="translate(499.957, 369.801)"
         id="path4436" />
      <path
         style="fill:none;stroke:#000000; stroke-width:0.5; stroke-linecap:butt; stroke-linejoin:round; stroke-dasharray:none;"
         d="M0 0 L0 2 "
         transform="translate(499.957, 26.1992)"
         id="path4438" />
      <path
         style="fill:none;stroke:#000000; stroke-width:0.5; stroke-linecap:butt; stroke-linejoin:round; stroke-dasharray:none;"
         d="M0 2 L0 0 "
         transform="translate(511.645, 369.801)"
         id="path4440" />
      <path
         style="fill:none;stroke:#000000; stroke-width:0.5; stroke-linecap:butt; stroke-linejoin:round; stroke-dasharray:none;"
         d="M0 0 L0 2 "
         transform="translate(511.645, 26.1992)"
         id="path4442" />
      <path
         style="fill:none;stroke:#000000; stroke-width:0.5; stroke-linecap:butt; stroke-linejoin:round; stroke-dasharray:none;"
         d="M0 2 L0 0 "
         transform="translate(521.766, 369.801)"
         id="path4444" />
      <path
         style="fill:none;stroke:#000000; stroke-width:0.5; stroke-linecap:butt; stroke-linejoin:round; stroke-dasharray:none;"
         d="M0 0 L0 2 "
         transform="translate(521.766, 26.1992)"
         id="path4446" />
      <path
         style="fill:none;stroke:#000000; stroke-width:0.5; stroke-linecap:butt; stroke-linejoin:round; stroke-dasharray:none;"
         d="M0 2 L0 0 "
         transform="translate(530.695, 369.801)"
         id="path4448" />
      <path
         style="fill:none;stroke:#000000; stroke-width:0.5; stroke-linecap:butt; stroke-linejoin:round; stroke-dasharray:none;"
         d="M0 0 L0 2 "
         transform="translate(530.695, 26.1992)"
         id="path4450" />
      <path
         style="fill:none;stroke:#000000; stroke-width:0.5; stroke-linecap:butt; stroke-linejoin:round; stroke-dasharray:1 3 ; stroke-dashoffset:0;"
         d="M0 0 L446.398 0 "
         transform="translate(91, 229.617)"
         id="path4452" />
      <path
         style="fill:none;stroke:#000000; stroke-width:0.5; stroke-linecap:butt; stroke-linejoin:round; stroke-dasharray:none;"
         d="M0 0 L4 0 "
         transform="translate(91, 229.617)"
         id="path4454" />
      <path
         style="fill:none;stroke:#000000; stroke-width:0.5; stroke-linecap:butt; stroke-linejoin:round; stroke-dasharray:none;"
         d="M4 0 L0 0 "
         transform="translate(533.398, 229.617)"
         id="path4456" />
      <path
         style="fill:none;stroke:#000000; stroke-width:0.5; stroke-linecap:butt; stroke-linejoin:round; stroke-dasharray:1 3 ; stroke-dashoffset:0;"
         d="M0 0 L446.398 0 "
         transform="translate(91, 26.1992)"
         id="path4458" />
      <path
         style="fill:none;stroke:#000000; stroke-width:0.5; stroke-linecap:butt; stroke-linejoin:round; stroke-dasharray:none;"
         d="M0 0 L4 0 "
         transform="translate(91, 26.1992)"
         id="path4460" />
      <path
         style="fill:none;stroke:#000000; stroke-width:0.5; stroke-linecap:butt; stroke-linejoin:round; stroke-dasharray:none;"
         d="M4 0 L0 0 "
         transform="translate(533.398, 26.1992)"
         id="path4462" />
      <path
         style="fill:none;stroke:#000000; stroke-width:0.5; stroke-linecap:butt; stroke-linejoin:round; stroke-dasharray:none;"
         d="M0 0 L2 0 "
         transform="translate(91, 371.801)"
         id="path4464" />
      <path
         style="fill:none;stroke:#000000; stroke-width:0.5; stroke-linecap:butt; stroke-linejoin:round; stroke-dasharray:none;"
         d="M2 0 L0 0 "
         transform="translate(535.398, 371.801)"
         id="path4466" />
      <path
         style="fill:none;stroke:#000000; stroke-width:0.5; stroke-linecap:butt; stroke-linejoin:round; stroke-dasharray:none;"
         d="M0 0 L2 0 "
         transform="translate(91, 335.98)"
         id="path4468" />
      <path
         style="fill:none;stroke:#000000; stroke-width:0.5; stroke-linecap:butt; stroke-linejoin:round; stroke-dasharray:none;"
         d="M2 0 L0 0 "
         transform="translate(535.398, 335.98)"
         id="path4470" />
      <path
         style="fill:none;stroke:#000000; stroke-width:0.5; stroke-linecap:butt; stroke-linejoin:round; stroke-dasharray:none;"
         d="M0 0 L2 0 "
         transform="translate(91, 310.566)"
         id="path4472" />
      <path
         style="fill:none;stroke:#000000; stroke-width:0.5; stroke-linecap:butt; stroke-linejoin:round; stroke-dasharray:none;"
         d="M2 0 L0 0 "
         transform="translate(535.398, 310.566)"
         id="path4474" />
      <path
         style="fill:none;stroke:#000000; stroke-width:0.5; stroke-linecap:butt; stroke-linejoin:round; stroke-dasharray:none;"
         d="M0 0 L2 0 "
         transform="translate(91, 290.852)"
         id="path4476" />
      <path
         style="fill:none;stroke:#000000; stroke-width:0.5; stroke-linecap:butt; stroke-linejoin:round; stroke-dasharray:none;"
         d="M2 0 L0 0 "
         transform="translate(535.398, 290.852)"
         id="path4478" />
      <path
         style="fill:none;stroke:#000000; stroke-width:0.5; stroke-linecap:butt; stroke-linejoin:round; stroke-dasharray:none;"
         d="M0 0 L2 0 "
         transform="translate(91, 274.746)"
         id="path4480" />
      <path
         style="fill:none;stroke:#000000; stroke-width:0.5; stroke-linecap:butt; stroke-linejoin:round; stroke-dasharray:none;"
         d="M2 0 L0 0 "
         transform="translate(535.398, 274.746)"
         id="path4482" />
      <path
         style="fill:none;stroke:#000000; stroke-width:0.5; stroke-linecap:butt; stroke-linejoin:round; stroke-dasharray:none;"
         d="M0 0 L2 0 "
         transform="translate(91, 261.129)"
         id="path4484" />
      <path
         style="fill:none;stroke:#000000; stroke-width:0.5; stroke-linecap:butt; stroke-linejoin:round; stroke-dasharray:none;"
         d="M2 0 L0 0 "
         transform="translate(535.398, 261.129)"
         id="path4486" />
      <path
         style="fill:none;stroke:#000000; stroke-width:0.5; stroke-linecap:butt; stroke-linejoin:round; stroke-dasharray:none;"
         d="M0 0 L2 0 "
         transform="translate(91, 249.332)"
         id="path4488" />
      <path
         style="fill:none;stroke:#000000; stroke-width:0.5; stroke-linecap:butt; stroke-linejoin:round; stroke-dasharray:none;"
         d="M2 0 L0 0 "
         transform="translate(535.398, 249.332)"
         id="path4490" />
      <path
         style="fill:none;stroke:#000000; stroke-width:0.5; stroke-linecap:butt; stroke-linejoin:round; stroke-dasharray:none;"
         d="M0 0 L2 0 "
         transform="translate(91, 238.926)"
         id="path4492" />
      <path
         style="fill:none;stroke:#000000; stroke-width:0.5; stroke-linecap:butt; stroke-linejoin:round; stroke-dasharray:none;"
         d="M2 0 L0 0 "
         transform="translate(535.398, 238.926)"
         id="path4494" />
      <path
         style="fill:none;stroke:#000000; stroke-width:0.5; stroke-linecap:butt; stroke-linejoin:round; stroke-dasharray:none;"
         d="M0 0 L2 0 "
         transform="translate(91, 168.383)"
         id="path4496" />
      <path
         style="fill:none;stroke:#000000; stroke-width:0.5; stroke-linecap:butt; stroke-linejoin:round; stroke-dasharray:none;"
         d="M2 0 L0 0 "
         transform="translate(535.398, 168.383)"
         id="path4498" />
      <path
         style="fill:none;stroke:#000000; stroke-width:0.5; stroke-linecap:butt; stroke-linejoin:round; stroke-dasharray:none;"
         d="M0 0 L2 0 "
         transform="translate(91, 132.562)"
         id="path4500" />
      <path
         style="fill:none;stroke:#000000; stroke-width:0.5; stroke-linecap:butt; stroke-linejoin:round; stroke-dasharray:none;"
         d="M2 0 L0 0 "
         transform="translate(535.398, 132.562)"
         id="path4502" />
      <path
         style="fill:none;stroke:#000000; stroke-width:0.5; stroke-linecap:butt; stroke-linejoin:round; stroke-dasharray:none;"
         d="M0 0 L2 0 "
         transform="translate(91, 107.148)"
         id="path4504" />
      <path
         style="fill:none;stroke:#000000; stroke-width:0.5; stroke-linecap:butt; stroke-linejoin:round; stroke-dasharray:none;"
         d="M2 0 L0 0 "
         transform="translate(535.398, 107.148)"
         id="path4506" />
      <path
         style="fill:none;stroke:#000000; stroke-width:0.5; stroke-linecap:butt; stroke-linejoin:round; stroke-dasharray:none;"
         d="M0 0 L2 0 "
         transform="translate(91, 87.4336)"
         id="path4508" />
      <path
         style="fill:none;stroke:#000000; stroke-width:0.5; stroke-linecap:butt; stroke-linejoin:round; stroke-dasharray:none;"
         d="M2 0 L0 0 "
         transform="translate(535.398, 87.4336)"
         id="path4510" />
      <path
         style="fill:none;stroke:#000000; stroke-width:0.5; stroke-linecap:butt; stroke-linejoin:round; stroke-dasharray:none;"
         d="M0 0 L2 0 "
         transform="translate(91, 71.3281)"
         id="path4512" />
      <path
         style="fill:none;stroke:#000000; stroke-width:0.5; stroke-linecap:butt; stroke-linejoin:round; stroke-dasharray:none;"
         d="M2 0 L0 0 "
         transform="translate(535.398, 71.3281)"
         id="path4514" />
      <path
         style="fill:none;stroke:#000000; stroke-width:0.5; stroke-linecap:butt; stroke-linejoin:round; stroke-dasharray:none;"
         d="M0 0 L2 0 "
         transform="translate(91, 57.7109)"
         id="path4516" />
      <path
         style="fill:none;stroke:#000000; stroke-width:0.5; stroke-linecap:butt; stroke-linejoin:round; stroke-dasharray:none;"
         d="M2 0 L0 0 "
         transform="translate(535.398, 57.7109)"
         id="path4518" />
      <path
         style="fill:none;stroke:#000000; stroke-width:0.5; stroke-linecap:butt; stroke-linejoin:round; stroke-dasharray:none;"
         d="M0 0 L2 0 "
         transform="translate(91, 45.9141)"
         id="path4520" />
      <path
         style="fill:none;stroke:#000000; stroke-width:0.5; stroke-linecap:butt; stroke-linejoin:round; stroke-dasharray:none;"
         d="M2 0 L0 0 "
         transform="translate(535.398, 45.9141)"
         id="path4522" />
      <path
         style="fill:none;stroke:#000000; stroke-width:0.5; stroke-linecap:butt; stroke-linejoin:round; stroke-dasharray:none;"
         d="M0 0 L2 0 "
         transform="translate(91, 35.5078)"
         id="path4524" />
      <path
         style="fill:none;stroke:#000000; stroke-width:0.5; stroke-linecap:butt; stroke-linejoin:round; stroke-dasharray:none;"
         d="M2 0 L0 0 "
         transform="translate(535.398, 35.5078)"
         id="path4526" />
      <path
         style="fill:none;stroke:#000000; stroke-width:1; stroke-linecap:square; stroke-linejoin:round; stroke-dasharray:none;"
         d="M0 0 L446.398 0 "
         transform="translate(91, 26.1992)"
         id="path4528" />
      <path
         style="fill:none;stroke:#000000; stroke-width:1; stroke-linecap:square; stroke-linejoin:round; stroke-dasharray:none;"
         d="M0 345.602 L0 0 "
         transform="translate(537.398, 26.1992)"
         id="path4530" />
      <path
         style="fill:none;stroke:#000000; stroke-width:1; stroke-linecap:square; stroke-linejoin:round; stroke-dasharray:none;"
         d="M0 0 L446.398 0 "
         transform="translate(91, 371.801)"
         id="path4532" />
      <path
         style="fill:none;stroke:#000000; stroke-width:1; stroke-linecap:square; stroke-linejoin:round; stroke-dasharray:none;"
         d="M0 345.602 L0 0 "
         transform="translate(91, 26.1992)"
         id="path4534" />
      <path
         style="fill:#ffffff; fill-rule:nonzero;stroke:#000000; stroke-width:1; stroke-linecap:square; stroke-linejoin:round; stroke-dasharray:none;"
         d="M0 42.8907 L152.215 42.8907 L152.215 0 L0 0 L0 42.8907 Z"
         transform="translate(377.984, 33.4023)"
         id="path4536" />
      <path
         style="fill:#000000; fill-rule:nonzero;stroke:none;"
         d="M2.351 0.285 C2.351 0.011 2.351 0 2.113 0 C1.828 0.32 1.23 0.765 0 0.765 L0 1.109 C0.273 1.109 0.871 1.109 1.527 0.801 L1.527 7.027 C1.527 7.461 1.492 7.601 0.441 7.601 L0.07 7.601 L0.07 7.949 C0.39 7.926 1.555 7.926 1.945 7.926 C2.34 7.926 3.488 7.926 3.812 7.949 L3.812 7.601 L3.441 7.601 C2.39 7.601 2.351 7.461 2.351 7.027 L2.351 0.285 Z"
         transform="translate(179.34, 377.301)"
         id="path4538" />
      <path
         style="fill:#000000; fill-rule:nonzero;stroke:none;"
         d="M4.867 4.125 C4.867 3.133 4.809 2.164 4.379 1.254 C3.887 0.261 3.028 0 2.442 0 C1.746 0 0.899 0.344 0.457 1.34 C0.121 2.09 0 2.832 0 4.125 C0 5.285 0.086 6.156 0.516 7.004 C0.985 7.914 1.809 8.199 2.43 8.199 C3.469 8.199 4.067 7.578 4.414 6.887 C4.844 5.988 4.867 4.816 4.867 4.125 Z M2.43 7.961 C2.047 7.961 1.27 7.746 1.043 6.441 C0.91 5.726 0.91 4.816 0.91 3.98 C0.91 3 0.91 2.113 1.102 1.41 C1.305 0.609 1.914 0.238 2.43 0.238 C2.883 0.238 3.574 0.511 3.805 1.543 C3.957 2.222 3.957 3.168 3.957 3.98 C3.957 4.781 3.957 5.687 3.828 6.418 C3.602 7.734 2.848 7.961 2.43 7.961 Z"
         transform="translate(184.738, 377.301)"
         id="path4540" />
      <path
         style="fill:#000000; fill-rule:nonzero;stroke:none;"
         d="M4.871 0.367 C5 0.367 5.176 0.367 5.176 0.184 C5.176 0 5 0 4.871 0 L0.305 0 C0.18 0 0 0 0 0.184 C0 0.367 0.18 0.367 0.305 0.367 L4.871 0.367 Z"
         transform="translate(190.699, 378.824)"
         id="path4542" />
      <path
         style="fill:#000000; fill-rule:nonzero;stroke:none;"
         d="M1.664 2.641 C2.293 2.641 2.695 3.102 2.695 3.938 C2.695 4.934 2.128 5.231 1.707 5.231 C1.265 5.231 0.668 5.071 0.39 4.649 C0.675 4.649 0.875 4.465 0.875 4.199 C0.875 3.946 0.691 3.762 0.437 3.762 C0.222 3.762 0 3.899 0 4.215 C0 4.973 0.812 5.469 1.718 5.469 C2.781 5.469 3.519 4.735 3.519 3.938 C3.519 3.278 2.996 2.672 2.183 2.496 C2.812 2.274 3.285 1.731 3.285 1.094 C3.285 0.453 2.566 0 1.738 0 C0.882 0 0.238 0.461 0.238 1.071 C0.238 1.363 0.437 1.492 0.644 1.492 C0.89 1.492 1.05 1.317 1.05 1.086 C1.05 0.789 0.796 0.68 0.621 0.668 C0.957 0.231 1.57 0.207 1.71 0.207 C1.918 0.207 2.527 0.274 2.527 1.094 C2.527 1.653 2.293 1.985 2.183 2.113 C1.945 2.36 1.761 2.375 1.273 2.406 C1.125 2.414 1.058 2.422 1.058 2.528 C1.058 2.641 1.128 2.641 1.265 2.641 L1.664 2.641 Z"
         transform="translate(197.102, 375.699)"
         id="path4544" />
      <path
         style="fill:#000000; fill-rule:nonzero;stroke:none;"
         d="M2.351 0.285 C2.351 0.011 2.351 0 2.113 0 C1.828 0.32 1.23 0.765 0 0.765 L0 1.109 C0.273 1.109 0.871 1.109 1.527 0.801 L1.527 7.027 C1.527 7.461 1.492 7.601 0.441 7.601 L0.07 7.601 L0.07 7.949 C0.39 7.926 1.555 7.926 1.945 7.926 C2.34 7.926 3.488 7.926 3.812 7.949 L3.812 7.601 L3.441 7.601 C2.39 7.601 2.351 7.461 2.351 7.027 L2.351 0.285 Z"
         transform="translate(353.84, 377.301)"
         id="path4546" />
      <path
         style="fill:#000000; fill-rule:nonzero;stroke:none;"
         d="M4.867 4.125 C4.867 3.133 4.809 2.164 4.379 1.254 C3.887 0.261 3.028 0 2.442 0 C1.746 0 0.899 0.344 0.457 1.34 C0.121 2.09 0 2.832 0 4.125 C0 5.285 0.086 6.156 0.516 7.004 C0.985 7.914 1.809 8.199 2.43 8.199 C3.469 8.199 4.067 7.578 4.414 6.887 C4.844 5.988 4.867 4.816 4.867 4.125 Z M2.43 7.961 C2.047 7.961 1.27 7.746 1.043 6.441 C0.91 5.726 0.91 4.816 0.91 3.98 C0.91 3 0.91 2.113 1.102 1.41 C1.305 0.609 1.914 0.238 2.43 0.238 C2.883 0.238 3.574 0.511 3.805 1.543 C3.957 2.222 3.957 3.168 3.957 3.98 C3.957 4.781 3.957 5.687 3.828 6.418 C3.602 7.734 2.848 7.961 2.43 7.961 Z"
         transform="translate(359.238, 377.301)"
         id="path4548" />
      <path
         style="fill:#000000; fill-rule:nonzero;stroke:none;"
         d="M4.871 0.367 C5 0.367 5.176 0.367 5.176 0.184 C5.176 0 5 0 4.871 0 L0.305 0 C0.18 0 0 0 0 0.184 C0 0.367 0.18 0.367 0.305 0.367 L4.871 0.367 Z"
         transform="translate(365.449, 378.824)"
         id="path4550" />
      <path
         style="fill:#000000; fill-rule:nonzero;stroke:none;"
         d="M1.824 3.676 C1.953 3.555 2.289 3.293 2.414 3.18 C2.91 2.727 3.379 2.289 3.379 1.563 C3.379 0.613 2.582 0 1.586 0 C0.629 0 0 0.727 0 1.438 C0 1.824 0.312 1.883 0.422 1.883 C0.59 1.883 0.836 1.762 0.836 1.457 C0.836 1.043 0.437 1.043 0.344 1.043 C0.574 0.461 1.109 0.266 1.5 0.266 C2.238 0.266 2.625 0.895 2.625 1.563 C2.625 2.391 2.043 2.996 1.101 3.961 L0.098 4.996 C0 5.086 0 5.102 0 5.301 L3.148 5.301 L3.379 3.875 L3.133 3.875 C3.109 4.031 3.047 4.434 2.949 4.582 C2.902 4.649 2.297 4.649 2.168 4.649 L0.75 4.649 L1.824 3.676 Z"
         transform="translate(371.672, 375.699)"
         id="path4552" />
      <path
         style="fill:#000000; fill-rule:nonzero;stroke:none;"
         d="M7.352 0.34 C7.192 0 7.114 0 6.953 0 C6.715 0 6.696 0.039 6.555 0.316 L0.098 13.746 C0.078 13.785 0 13.969 0 13.984 C0 14.066 0.02 14.086 0.379 14.086 L13.508 14.086 C13.867 14.086 13.887 14.066 13.887 13.984 C13.887 13.969 13.809 13.785 13.785 13.746 L7.352 0.34 Z M6.453 1.512 L11.973 12.969 L0.914 12.969 L6.453 1.512 Z"
         transform="translate(269.988, 392.414)"
         id="path4554" />
      <path
         style="fill:#000000; fill-rule:nonzero;stroke:none;"
         d="M3.566 2.945 C3.606 2.828 4.106 1.832 4.84 1.191 C5.359 0.715 6.035 0.394 6.813 0.394 C7.609 0.394 7.891 0.996 7.891 1.793 C7.891 1.91 7.891 2.308 7.649 3.246 L7.152 5.297 C6.992 5.894 6.613 7.371 6.574 7.59 C6.492 7.89 6.375 8.406 6.375 8.484 C6.375 8.765 6.594 8.984 6.895 8.984 C7.492 8.984 7.59 8.527 7.77 7.808 L8.965 3.047 C9.004 2.887 10.039 0.394 12.234 0.394 C13.031 0.394 13.309 0.996 13.309 1.793 C13.309 2.906 12.531 5.078 12.094 6.273 C11.914 6.754 11.816 7.012 11.816 7.371 C11.816 8.265 12.434 8.984 13.391 8.984 C15.242 8.984 15.941 6.055 15.941 5.933 C15.941 5.836 15.859 5.758 15.738 5.758 C15.563 5.758 15.539 5.816 15.441 6.156 C14.981 7.75 14.246 8.586 13.449 8.586 C13.25 8.586 12.93 8.566 12.93 7.93 C12.93 7.41 13.172 6.773 13.25 6.555 C13.606 5.597 14.504 3.246 14.504 2.09 C14.504 0.894 13.809 0 12.293 0 C10.957 0 9.883 0.754 9.086 1.93 C9.023 0.855 8.367 0 6.871 0 C5.102 0 4.164 1.254 3.805 1.754 C3.746 0.617 2.93 0 2.051 0 C1.473 0 1.016 0.277 0.637 1.035 C0.277 1.754 0 2.969 0 3.047 C0 3.125 0.078 3.226 0.219 3.226 C0.379 3.226 0.399 3.207 0.516 2.75 C0.816 1.57 1.195 0.394 1.992 0.394 C2.449 0.394 2.609 0.715 2.609 1.312 C2.609 1.754 2.41 2.527 2.27 3.144 L1.715 5.297 C1.633 5.676 1.414 6.574 1.316 6.93 C1.176 7.449 0.953 8.387 0.953 8.484 C0.953 8.765 1.176 8.984 1.473 8.984 C1.715 8.984 1.992 8.863 2.149 8.566 C2.191 8.469 2.371 7.769 2.469 7.371 L2.906 5.578 L3.566 2.945 Z"
         transform="translate(285.289, 397.715)"
         id="path4556" />
      <path
         style="fill:#000000; fill-rule:nonzero;stroke:none;"
         d="M5.453 6.929 L5.144 6.929 C5.105 7.168 4.992 7.933 4.851 8.156 C4.754 8.285 3.961 8.285 3.543 8.285 L0.961 8.285 C1.339 7.961 2.187 7.07 2.55 6.734 C4.671 4.781 5.453 4.054 5.453 2.675 C5.453 1.074 4.183 0 2.566 0 C0.949 0 0 1.378 0 2.578 C0 3.289 0.613 3.289 0.656 3.289 C0.949 3.289 1.308 3.082 1.308 2.632 C1.308 2.246 1.046 1.976 0.656 1.976 C0.531 1.976 0.504 1.976 0.461 1.992 C0.726 1.043 1.476 0.402 2.382 0.402 C3.57 0.402 4.296 1.39 4.296 2.675 C4.296 3.863 3.613 4.894 2.816 5.785 L0 8.937 L0 9.273 L5.089 9.273 L5.453 6.929 Z"
         transform="translate(302.434, 389.977)"
         id="path4558" />
      <path
         style="fill:#000000; fill-rule:nonzero;stroke:none;"
         d="M1.996 4.265 C1.758 4.281 1.703 4.293 1.703 4.418 C1.703 4.558 1.774 4.558 2.024 4.558 L2.664 4.558 C3.852 4.558 4.379 5.535 4.379 6.875 C4.379 8.703 3.434 9.187 2.75 9.187 C2.078 9.187 0.938 8.871 0.532 7.949 C0.977 8.019 1.383 7.765 1.383 7.265 C1.383 6.859 1.09 6.582 0.7 6.582 C0.364 6.582 0 6.777 0 7.304 C0 8.546 1.242 9.566 2.789 9.566 C4.45 9.566 5.676 8.296 5.676 6.886 C5.676 5.605 4.649 4.601 3.309 4.363 C4.52 4.015 5.301 2.996 5.301 1.91 C5.301 0.808 4.16 0 2.805 0 C1.41 0 0.379 0.847 0.379 1.867 C0.379 2.425 0.813 2.539 1.02 2.539 C1.313 2.539 1.649 2.328 1.649 1.91 C1.649 1.461 1.313 1.265 1.004 1.265 C0.922 1.265 0.895 1.265 0.852 1.281 C1.383 0.332 2.696 0.332 2.762 0.332 C3.223 0.332 4.129 0.543 4.129 1.91 C4.129 2.171 4.086 2.957 3.684 3.554 C3.266 4.168 2.789 4.211 2.414 4.222 L1.996 4.265 Z"
         transform="translate(302.32, 402.227)"
         id="path4560" />
      <path
         style="fill:#000000; fill-rule:nonzero;stroke:none;"
         d="M5.453 6.929 L5.144 6.929 C5.105 7.168 4.992 7.933 4.851 8.156 C4.754 8.285 3.961 8.285 3.543 8.285 L0.961 8.285 C1.339 7.961 2.187 7.07 2.55 6.734 C4.671 4.781 5.453 4.054 5.453 2.675 C5.453 1.074 4.183 0 2.566 0 C0.949 0 0 1.378 0 2.578 C0 3.289 0.613 3.289 0.656 3.289 C0.949 3.289 1.308 3.082 1.308 2.632 C1.308 2.246 1.046 1.976 0.656 1.976 C0.531 1.976 0.504 1.976 0.461 1.992 C0.726 1.043 1.476 0.402 2.382 0.402 C3.57 0.402 4.296 1.39 4.296 2.675 C4.296 3.863 3.613 4.894 2.816 5.785 L0 8.937 L0 9.273 L5.089 9.273 L5.453 6.929 Z"
         transform="translate(309.184, 402.227)"
         id="path4562" />
      <path
         style="fill:#000000; fill-rule:nonzero;stroke:none;"
         d="M4.84 0 C3.644 0.734 3.008 1.254 2.332 2.051 C0.816 3.844 0 6.137 0 8.547 C0 10.816 0.715 12.949 2.051 14.723 C2.808 15.68 3.484 16.277 4.84 17.113 L4.84 16.379 C2.847 14.625 2.051 12.375 2.051 8.547 C2.051 4.723 2.847 2.488 4.84 0.734 L4.84 0 Z"
         transform="translate(322.219, 391.836)"
         id="path4564" />
      <path
         style="fill:#000000; fill-rule:nonzero;stroke:none;"
         d="M8.571 5.102 C8.59 2.113 6.899 0 4.465 0 C1.914 0 0 2.215 0 5.203 C0 7.992 1.817 9.887 4.504 9.887 C6.399 9.887 7.754 8.949 8.571 7.055 L7.871 6.676 C7.055 8.211 6.219 8.809 4.883 8.809 C3.867 8.809 3.129 8.371 2.614 7.492 C2.254 6.898 2.094 6.199 2.114 5.102 L8.571 5.102 Z M2.133 4.246 C2.133 3.629 2.215 3.191 2.414 2.633 C2.832 1.438 3.469 0.859 4.426 0.859 C5.641 0.859 6.438 1.914 6.438 3.508 C6.438 4.086 6.258 4.246 5.621 4.246 L2.133 4.246 Z"
         transform="translate(328.695, 396.914)"
         id="path4566" />
      <path
         style="fill:#000000; fill-rule:nonzero;stroke:none;"
         d="M7.992 11.297 L4.344 2.032 C4.246 1.793 4.183 1.555 4.183 1.438 C4.183 1.078 4.523 0.938 5.422 0.938 L6.219 0.938 L6.219 0 L0 0 L0 0.938 L0.398 0.938 C1.297 0.938 1.555 1.137 1.933 2.051 L6.972 14.688 L7.769 14.688 L12.355 2.891 C12.953 1.336 13.39 0.938 14.527 0.938 L14.726 0.938 L14.726 0 L9.324 0 L9.324 0.938 L9.703 0.938 C10.722 0.938 11.316 1.336 11.316 1.973 C11.316 2.25 11.219 2.711 11.078 3.09 L7.992 11.297 Z"
         transform="translate(337.84, 392.113)"
         id="path4568" />
      <path
         style="fill:#000000; fill-rule:nonzero;stroke:none;"
         d="M0 17.113 C1.196 16.379 1.836 15.859 2.512 15.043 C4.028 13.269 4.844 10.957 4.844 8.547 C4.844 6.273 4.125 4.144 2.789 2.391 C2.035 1.414 1.356 0.816 0 0 L0 0.734 C1.992 2.488 2.789 4.723 2.789 8.547 C2.789 12.394 1.992 14.625 0 16.379 L0 17.113 Z"
         transform="translate(353.574, 391.836)"
         id="path4570" />
      <path
         style="fill:#000000; fill-rule:nonzero;stroke:none;"
         d="M2.3555 0.285 C2.3555 0.011 2.3555 0 2.1133 0 C1.8282 0.32 1.2305 0.765 0 0.765 L0 1.109 C0.2735 1.109 0.8711 1.109 1.5274 0.801 L1.5274 7.027 C1.5274 7.461 1.4922 7.601 0.4414 7.601 L0.0704 7.601 L0.0704 7.949 C0.3907 7.926 1.5547 7.926 1.9454 7.926 C2.3399 7.926 3.4883 7.926 3.8125 7.949 L3.8125 7.601 L3.4414 7.601 C2.3868 7.601 2.3555 7.461 2.3555 7.027 L2.3555 0.285 Z"
         transform="translate(65.5898, 226.301)"
         id="path4572" />
      <path
         style="fill:#000000; fill-rule:nonzero;stroke:none;"
         d="M4.8672 4.125 C4.8672 3.133 4.8086 2.164 4.3789 1.254 C3.8867 0.261 3.0273 0 2.4414 0 C1.7461 0 0.8984 0.344 0.457 1.34 C0.1211 2.09 0 2.832 0 4.125 C0 5.285 0.0859 6.156 0.5156 7.004 C0.9805 7.914 1.8047 8.199 2.4297 8.199 C3.4687 8.199 4.0664 7.578 4.414 6.887 C4.8437 5.988 4.8672 4.816 4.8672 4.125 Z M2.4297 7.961 C2.0469 7.961 1.2695 7.746 1.0429 6.441 C0.9101 5.726 0.9101 4.816 0.9101 3.98 C0.9101 3 0.9101 2.113 1.1015 1.41 C1.3047 0.609 1.914 0.238 2.4297 0.238 C2.8828 0.238 3.5781 0.511 3.8047 1.543 C3.9609 2.222 3.9609 3.168 3.9609 3.98 C3.9609 4.781 3.9609 5.687 3.8281 6.418 C3.6015 7.734 2.8476 7.961 2.4297 7.961 Z"
         transform="translate(70.7383, 226.301)"
         id="path4574" />
      <path
         style="fill:#000000; fill-rule:nonzero;stroke:none;"
         d="M4.8672 0.367 C4.9961 0.367 5.1719 0.367 5.1719 0.184 C5.1719 0 4.9961 0 4.8672 0 L0.3008 0 C0.1758 0 0 0 0 0.184 C0 0.367 0.1758 0.367 0.3008 0.367 L4.8672 0.367 Z"
         transform="translate(76.9531, 227.824)"
         id="path4576" />
      <path
         style="fill:#000000; fill-rule:nonzero;stroke:none;"
         d="M1.7383 0.223 C1.7383 0.008 1.7188 0 1.5078 0 C1.1797 0.321 0.7578 0.512 0 0.512 L0 0.774 C0.2149 0.774 0.6446 0.774 1.1055 0.559 L1.1055 4.649 C1.1055 4.942 1.0821 5.039 0.3282 5.039 L0.0459 5.039 L0.0459 5.301 C0.375 5.278 1.0586 5.278 1.418 5.278 C1.7774 5.278 2.4688 5.278 2.7959 5.301 L2.7959 5.039 L2.5156 5.039 C1.7617 5.039 1.7383 4.942 1.7383 4.649 L1.7383 0.223 Z"
         transform="translate(83.5156, 224.699)"
         id="path4578" />
      <path
         style="fill:#000000; fill-rule:nonzero;stroke:none;"
         d="M2.3555 0.2851 C2.3555 0.0117 2.3555 0 2.1133 0 C1.8282 0.3203 1.2305 0.7656 0 0.7656 L0 1.1094 C0.2735 1.1094 0.8711 1.1094 1.5274 0.8008 L1.5274 7.0273 C1.5274 7.4609 1.4922 7.6015 0.4414 7.6015 L0.0704 7.6015 L0.0704 7.9492 C0.3907 7.9258 1.5547 7.9258 1.9454 7.9258 C2.3399 7.9258 3.4883 7.9258 3.8125 7.9492 L3.8125 7.6015 L3.4414 7.6015 C2.3868 7.6015 2.3555 7.4609 2.3555 7.0273 L2.3555 0.2851 Z"
         transform="translate(72.0898, 23.0508)"
         id="path4580" />
      <path
         style="fill:#000000; fill-rule:nonzero;stroke:none;"
         d="M4.8672 4.125 C4.8672 3.1289 4.8086 2.164 4.3789 1.2539 C3.8867 0.2617 3.0273 0 2.4414 0 C1.7461 0 0.8984 0.3476 0.457 1.3398 C0.1211 2.0898 0 2.832 0 4.125 C0 5.2851 0.0859 6.1562 0.5156 7.0039 C0.9805 7.914 1.8047 8.1992 2.4297 8.1992 C3.4687 8.1992 4.0664 7.5781 4.414 6.8828 C4.8437 5.9883 4.8672 4.8164 4.8672 4.125 Z M2.4297 7.9609 C2.0469 7.9609 1.2695 7.7461 1.0429 6.4414 C0.9101 5.7265 0.9101 4.8164 0.9101 3.9804 C0.9101 3 0.9101 2.1133 1.1015 1.4101 C1.3047 0.6094 1.914 0.2383 2.4297 0.2383 C2.8828 0.2383 3.5781 0.5117 3.8047 1.543 C3.9609 2.2226 3.9609 3.168 3.9609 3.9804 C3.9609 4.7812 3.9609 5.6875 3.8281 6.418 C3.6015 7.7344 2.8476 7.9609 2.4297 7.9609 Z"
         transform="translate(77.4883, 23.0508)"
         id="path4582" />
      <path
         style="fill:#000000; fill-rule:nonzero;stroke:none;"
         d="M3.5703 2.7578 C3.5703 1.9063 3.4805 1.3867 3.2188 0.8789 C2.8672 0.1758 2.2227 0 1.7852 0 C0.7774 0 0.4141 0.75 0.3008 0.9727 C0.0157 1.5547 0 2.3438 0 2.7578 C0 3.2852 0.0235 4.0899 0.4063 4.7266 C0.7696 5.3164 1.3633 5.4688 1.7852 5.4688 C2.168 5.4688 2.8516 5.3477 3.25 4.5586 C3.543 3.9844 3.5703 3.2774 3.5703 2.7578 Z M1.7852 5.2461 C1.5117 5.2461 0.961 5.1172 0.7969 4.2813 C0.7071 3.8281 0.7071 3.0781 0.7071 2.6641 C0.7071 2.1133 0.7071 1.5547 0.7969 1.1172 C0.961 0.3047 1.586 0.2227 1.7852 0.2227 C2.0547 0.2227 2.6055 0.3594 2.7657 1.086 C2.8604 1.5235 2.8604 2.1211 2.8604 2.6641 C2.8604 3.1328 2.8604 3.8516 2.7657 4.2969 C2.5977 5.1328 2.0469 5.2461 1.7852 5.2461 Z"
         transform="translate(83.0781, 21.1992)"
         id="path4584" />
      <path
         style="fill:#000000; fill-rule:nonzero;stroke:none;"
         d="M1.5352 5.262 C0.7774 5.082 0.5782 5.023 0.5782 3.269 C0.5782 2.73 0.5782 2.594 0.1992 2.594 C0 2.594 0 2.808 0 2.89 C0 3.289 0.0391 3.746 0.0391 4.144 L0.0391 6.816 C0.0391 7.195 0 7.633 0 8.012 C0 8.172 0 8.39 0.3789 8.39 C0.5782 8.39 0.5782 8.211 0.5782 7.914 C0.5782 6.695 0.7383 6.695 0.9571 6.695 C0.9961 6.695 1.1172 6.695 1.4141 6.777 L12.1367 9.465 C12.8321 9.644 13.0313 9.683 13.0313 11.082 C13.0313 11.457 13.0313 11.656 13.3906 11.656 C13.6094 11.656 13.6094 11.539 13.6094 11.14 L13.6094 2.215 C13.6094 1.773 13.5899 1.754 13.2305 1.613 L8.9883 0.082 C8.8867 0.043 8.7656 0 8.7071 0 C8.586 0 8.5078 0.101 8.5078 0.199 C8.5078 0.219 8.5078 0.32 8.586 0.359 C8.6094 0.398 8.6485 0.398 9.0274 0.558 C10.7813 1.195 13.0313 2.094 13.0313 5.461 L13.0313 7.375 C13.0313 7.652 13.0313 7.691 13.0117 7.812 C12.9922 8.031 12.9532 8.051 12.793 8.051 C12.6524 8.051 12.5313 8.012 12.3555 7.972 L1.5352 5.262 Z"
         transform="translate(40.8906, 308.176)"
         id="path4586" />
      <path
         style="fill:#000000; fill-rule:nonzero;stroke:none;"
         d="M0.7383 0.121 C0.7187 0.121 0.418 0 0.3789 0 C0.1406 0 0 0.199 0 0.359 C0 0.457 0 0.637 0.4375 0.797 L19.1875 7.473 C19.2109 7.473 19.5068 7.594 19.5469 7.594 C19.7891 7.594 19.9258 7.395 19.9258 7.234 C19.9258 7.113 19.9062 6.934 19.4883 6.797 L0.7383 0.121 Z"
         transform="translate(39.5547, 298.582)"
         id="path4588" />
      <path
         style="fill:#000000; fill-rule:nonzero;stroke:none;"
         d="M0 12.754 L0.9375 12.754 L0.9375 12.395 C0.9375 10.782 1.039 10.602 1.875 10.602 L12.5156 10.602 C13.3515 10.602 13.4482 10.782 13.4482 12.395 L13.4482 12.754 L14.3867 12.754 L14.3867 5.52 C14.3867 2.075 12.914 0 10.4805 0 C8.5078 0 7.3555 1.278 6.875 3.989 C6.6758 3.032 6.4961 2.59 6.1172 2.094 C5.5 1.258 4.5234 0.758 3.5078 0.758 C2.2305 0.758 0.9765 1.555 0.4805 2.711 C0.1601 3.43 0 4.426 0 5.602 L0 12.754 Z M6.4765 8.373 L1.9336 8.373 C1.1562 8.373 0.9375 8.09 0.9375 7.055 L0.9375 6.258 C0.9375 5.34 1.0781 4.582 1.3555 4.164 C1.7929 3.45 2.6523 3.071 3.7656 3.071 C5.7187 3.071 6.4765 4.047 6.4765 6.598 L6.4765 8.373 Z M7.414 8.373 L7.414 6.618 C7.414 5.34 7.5312 4.485 7.7929 3.887 C8.2305 2.95 9.1055 2.454 10.4219 2.454 C11.6758 2.454 12.6133 2.891 12.9922 3.668 C13.3086 4.286 13.4482 5.123 13.4482 6.379 L13.4482 7.215 C13.4482 8.231 13.2929 8.373 12.1953 8.373 L7.414 8.373 Z"
         transform="translate(40.1133, 284.398)"
         id="path4590" />
      <path
         style="fill:#000000; fill-rule:nonzero;stroke:none;"
         d="M0.3007 4.723 L0.5195 8.25 L1.375 8.25 L1.375 7.434 C1.375 6.695 1.5156 6.574 2.3711 6.574 L7.9336 6.574 C8.7304 6.574 8.8671 6.797 8.8671 8.09 L8.8671 8.172 L9.5859 8.172 L9.5859 2.852 L8.8671 2.852 L8.8671 3.23 C8.8671 4.504 8.7304 4.723 7.9336 4.723 L6.9336 4.723 C5.4414 4.723 3.9257 4.441 2.7929 3.945 C1.6757 3.469 1.0586 2.789 0.957 1.953 C1.2773 2.23 1.4765 2.314 1.8554 2.314 C2.4921 2.314 2.9492 1.856 2.9492 1.215 C2.9492 0.5 2.414 0 1.5976 0 C0.6406 0 0 0.68 0 1.734 C0 2.988 1.0195 4.086 2.7695 4.723 L0.3007 4.723 Z"
         transform="translate(44.9141, 274.582)"
         id="path4592" />
      <path
         style="fill:#000000; fill-rule:nonzero;stroke:none;"
         d="M19.7813 0 C19.7657 0 19.7227 0 19.6641 0.063 C18.7266 0.977 16.1758 3.426 9.961 3.426 C3.7461 3.426 1.211 1.016 0.2149 0.039 C0.1992 0.039 0.1563 0 0.0977 0 C0.0391 0 0 0.063 0 0.141 C0 0.36 1.4727 2.051 3.6641 3.032 C5.875 4.028 8.0274 4.305 9.9414 4.305 C11.375 4.305 13.8047 4.164 16.375 2.969 C18.4492 2.012 19.9024 0.379 19.9024 0.141 C19.9024 0.039 19.8633 0 19.7813 0 Z"
         transform="translate(39.5781, 268.152)"
         id="path4594" />
      <path
         style="fill:#000000; fill-rule:nonzero;stroke:none;"
         d="M0 0.218 C0.6562 0.894 1.0351 1.277 1.0351 1.894 C1.0351 2.332 0.8164 2.629 0.5195 3.046 C0.2383 3.449 0 3.765 0 4.203 C0 4.921 0.5781 5.421 1.4922 6.257 L1.7148 6.039 C1.0547 5.359 0.6758 4.98 0.6758 4.363 C0.6758 3.925 0.8945 3.629 1.1953 3.207 C1.4726 2.808 1.7148 2.492 1.7148 2.05 C1.7148 1.337 1.1367 0.837 0.2187 0 L0 0.218 Z"
         transform="translate(41.4297, 257.059)"
         id="path4596" />
      <path
         style="fill:#000000; fill-rule:nonzero;stroke:none;"
         d="M5.5782 5.024 C3.9258 5.563 4.0821 5.442 2.6875 5.938 C0.9766 6.559 0.836 6.715 0.5547 6.996 C0.2383 7.356 0 8.032 0 8.731 C0 9.844 1.0352 10.383 1.293 10.383 C1.4141 10.383 1.4737 10.282 1.4737 10.164 C1.4737 10.004 1.375 9.965 1.293 9.946 C0.5157 9.645 0.3946 9.028 0.3946 8.848 C0.3946 8.27 1.8321 7.711 2.7891 7.356 C4.004 6.875 4.8399 6.637 6.7735 6.098 L12.1133 10.801 C12.3321 10.981 12.4102 10.981 12.4336 10.981 C12.5899 10.981 12.629 10.879 12.629 10.801 C12.629 10.719 12.5899 10.66 12.5313 10.602 C11.9737 10.043 10.5 8.809 9.9024 8.289 L7.2696 5.981 C10.3399 5 10.379 5 11.1172 4.703 C11.875 4.383 12.8516 3.965 12.8516 2.274 C12.8516 1.137 11.8321 0.619 11.5547 0.619 C11.4141 0.619 11.375 0.739 11.375 0.836 C11.375 0.996 11.4532 1.02 11.6133 1.078 C12.1719 1.297 12.4493 1.817 12.4493 2.133 C12.4493 2.395 12.4493 2.711 10.2383 3.586 C8.9024 4.106 7.3125 4.567 6.0743 4.903 L0.6954 0.18 C0.5157 0.024 0.4961 0 0.418 0 C0.2774 0 0.2188 0.102 0.2188 0.2 C0.2188 0.258 0.2188 0.321 0.4375 0.52 L5.5782 5.024 Z"
         transform="translate(45.7148, 255.652)"
         id="path4598" />
      <path
         style="fill:#000000; fill-rule:nonzero;stroke:none;"
         d="M4.8125 0 C3.6562 0 2.5273 0.066 1.4687 0.57 C0.3085 1.141 0 2.144 0 2.828 C0 3.637 0.4062 4.629 1.5625 5.144 C2.4414 5.535 3.3085 5.676 4.8125 5.676 C6.1679 5.676 7.1835 5.574 8.1757 5.074 C9.2343 4.531 9.5703 3.566 9.5703 2.844 C9.5703 1.629 8.8437 0.934 8.0351 0.527 C6.9921 0.023 5.6211 0 4.8125 0 Z M9.2929 2.844 C9.2929 3.289 9.039 4.195 7.5195 4.461 C6.6835 4.613 5.6211 4.613 4.6445 4.613 C3.5039 4.613 2.4726 4.613 1.6484 4.391 C0.7158 4.152 0.2812 3.441 0.2812 2.844 C0.2812 2.312 0.6015 1.504 1.8007 1.238 C2.5976 1.058 3.6992 1.058 4.6445 1.058 C5.582 1.058 6.6406 1.058 7.4921 1.211 C9.0273 1.476 9.2929 2.355 9.2929 2.844 Z"
         transform="translate(37.9727, 248.754)"
         id="path4600" />
      <path
         style="fill:#000000; fill-rule:nonzero;stroke:none;"
         d="M0.3359 1.703 C0.0156 1.703 0 1.703 0 1.981 C0.3789 2.317 0.8945 3.012 0.8945 4.449 L1.3007 4.449 C1.3007 4.129 1.3007 3.434 0.9375 2.664 L8.2031 2.664 C8.7031 2.664 8.8711 2.707 8.8711 3.934 L8.8711 4.367 L9.2773 4.367 C9.25 3.989 9.25 2.637 9.25 2.176 C9.25 1.715 9.25 0.375 9.2773 0 L8.8711 0 L8.8711 0.434 C8.8711 1.66 8.7031 1.703 8.2031 1.703 L0.3359 1.703 Z"
         transform="translate(50.2227, 249.281)"
         id="path4602" />
      <path
         style="fill:#000000; fill-rule:nonzero;stroke:none;"
         d="M5.5977 2.172 C6.4336 3.269 7.25 3.805 7.5117 3.965 C8.8867 4.859 10.1406 5.019 10.1602 5.019 C10.3985 5.019 10.3985 4.781 10.3985 4.621 C10.3985 4.281 10.3594 4.266 10 4.184 C8.0469 3.727 6.375 2.551 5.457 0.301 C5.3789 0.059 5.3359 0 5.1992 0 C5.0586 0 5 0.117 4.9805 0.16 C4.6406 1.035 3.6445 3.445 0.2969 4.203 C0.0586 4.266 0 4.281 0 4.621 C0 4.781 0 5.019 0.2383 5.019 C0.2774 5.019 1.5313 4.844 2.8682 4.004 C3.4649 3.605 4.1602 3.027 4.8008 2.172 L4.8008 16.977 C4.8008 17.336 4.8008 17.691 5.1992 17.691 C5.5977 17.691 5.5977 17.336 5.5977 16.977 L5.5977 2.172 Z"
         transform="translate(44.3203, 223.461)"
         id="path4604" />
      <path
         style="fill:#000000; fill-rule:nonzero;stroke:none;"
         d="M2.211 2.449 C1.4336 1.992 0.6992 1.55 0.5782 0.355 C0.5586 0.175 0.5391 0 0.2188 0 C0 0 0 0.175 0 0.238 L0 3.523 C0 3.644 0 3.882 0.3789 3.882 C0.5586 3.882 0.5782 3.722 0.5782 3.605 C0.5977 3.207 0.7188 2.57 1.336 2.57 C1.5938 2.57 1.7344 2.648 2.0742 2.847 L11.5977 8.289 L1.2149 9.003 C0.9766 9.003 0.5977 8.785 0.5782 7.668 C0.5782 7.41 0.5782 7.211 0.1992 7.211 C0 7.211 0 7.41 0 7.507 L0 11.656 C0 11.773 0 12.011 0.3789 12.011 C0.5782 12.011 0.5782 11.875 0.5782 11.535 C0.5782 10.617 0.5977 10.617 1.8125 10.539 L2.5313 10.476 L11.5977 15.64 L1.3164 16.379 C1.0977 16.379 0.5977 16.379 0.5782 15.019 C0.5782 14.8 0.5782 14.582 0.2188 14.582 C0 14.582 0 14.761 0 14.882 L0 19.027 C0 19.144 0 19.386 0.3789 19.386 C0.5782 19.386 0.5782 19.226 0.5782 18.949 C0.5782 18.011 0.6992 17.992 1.336 17.953 L13.5703 17.074 C13.9063 17.054 14.0274 17.035 14.0274 16.796 C14.0274 16.593 13.9492 16.554 13.6485 16.379 L3.2696 10.437 L13.5703 9.703 C13.9063 9.679 14.0274 9.664 14.0274 9.421 C14.0274 9.222 13.9297 9.164 13.6485 9.003 L2.211 2.449 Z"
         transform="translate(40.8906, 196.309)"
         id="path4606" />
      <path
         style="fill:#000000; fill-rule:nonzero;stroke:none;"
         d="M10.6406 6.02 C11.875 7.274 12.1757 7.594 12.2539 7.594 C12.332 7.594 12.4726 7.512 12.4726 7.372 C12.4726 7.274 11.375 6.137 11.1992 5.981 C12.5351 5.86 14.2656 5.364 14.2656 3.805 C14.2656 3.008 13.7695 2.293 13.5312 1.973 C13.3281 1.715 12.5117 0.758 12.332 0.758 C12.2343 0.758 12.1132 0.86 12.1132 0.957 C12.1132 1.04 12.414 1.336 12.4921 1.414 C13.1718 2.114 13.8671 2.993 13.8671 3.79 C13.8671 4.864 12.3125 5 11.2382 5 C11.039 5 10.2031 5 10.0429 4.864 C8.8281 3.688 5.0195 0 1.4961 0 C0.6953 0 0 0.301 0 1.157 C0 3.008 4.1054 4.625 4.8632 4.903 C5.0585 4.985 8.1289 6.137 10.6406 6.02 Z M9.4062 4.825 C9.2851 4.801 4.0625 3.907 1.2734 2.235 C0.7382 1.895 0.3984 1.555 0.3984 1.157 C0.3984 0.481 1.0351 0.442 1.4765 0.442 C2.1718 0.442 3.9658 0.637 6.4765 2.372 C7.2109 2.891 8.207 3.688 9.4062 4.825 Z"
         transform="translate(40.4727, 187.898)"
         id="path4608" />
      <path
         style="fill:#000000; fill-rule:nonzero;stroke:none;"
         d="M6.5977 5.898 L6.5977 0.617 C6.5977 0.34 6.5977 0 6.2579 0 C5.8985 0 5.8985 0.32 5.8985 0.617 L5.8985 5.898 L0.6172 5.898 C0.3399 5.898 0 5.898 0 6.238 C0 6.598 0.3204 6.598 0.6172 6.598 L5.8985 6.598 L5.8985 11.875 C5.8985 12.156 5.8985 12.492 6.2383 12.492 C6.5977 12.492 6.5977 12.176 6.5977 11.875 L6.5977 6.598 L11.875 6.598 C12.1573 6.598 12.4961 6.598 12.4961 6.258 C12.4961 5.898 12.1758 5.898 11.875 5.898 L6.5977 5.898 Z"
         transform="translate(43.2812, 169.59)"
         id="path4610" />
      <path
         style="fill:#000000; fill-rule:nonzero;stroke:none;"
         d="M0.6172 0.223 C0.4766 0.102 0.3594 0 0.1602 0 C0.0196 0 0 0.023 0 0.48 L0 8.707 C0 9.168 0.0196 9.188 0.3789 9.309 L3.9649 10.402 C4.1641 10.461 4.2032 10.461 4.2461 10.461 C4.3242 10.461 4.4453 10.402 4.4453 10.262 C4.4453 10.106 4.3633 10.063 4.1055 9.984 C1.9532 9.246 0.5782 8.27 0.5782 5.121 L0.5782 1.856 L12.9336 12.773 C13.1524 12.953 13.2305 13.031 13.4492 13.031 C13.6094 13.031 13.6094 12.934 13.6094 12.555 L13.6094 4.047 C13.6094 3.59 13.5899 3.566 13.2305 3.449 L8.8282 2.055 C8.7656 2.031 8.6289 1.992 8.5508 1.992 C8.4492 1.992 8.3477 2.074 8.3477 2.191 C8.3477 2.352 8.3711 2.371 8.8672 2.531 C11.4375 3.367 12.9922 4.246 12.9922 7.711 L12.9922 11.16 L0.6172 0.223 Z"
         transform="translate(40.8906, 150.082)"
         id="path4612" />
      <path
         style="fill:#000000; fill-rule:nonzero;stroke:none;"
         d="M0.1954 5.859 C0.1172 5.859 0 5.918 0 6.078 C0 6.219 0.1797 8.09 0.1954 8.387 C0.2188 8.609 0.2383 8.808 0.5938 8.808 C0.7969 8.808 0.7969 8.648 0.7969 8.371 C0.7969 7.433 0.9336 7.375 1.1524 7.375 C1.2344 7.375 1.4737 7.414 1.5547 7.433 L8.586 9.187 C8.668 9.187 8.7852 9.125 8.7852 8.988 L8.7852 8.566 C8.7852 8.289 8.0664 5.262 5.6758 2.93 C3.0274 0.359 0.5743 0 0.4961 0 C0.1797 0 0 0.262 0 0.519 C0 1.097 0.5352 1.234 0.6758 1.273 C4.8399 2.453 7.3125 5.18 8.1875 7.832 L0.1954 5.859 Z"
         transform="translate(45.7148, 139.258)"
         id="path4614" />
      <path
         style="fill:#000000; fill-rule:nonzero;stroke:none;"
         d="M9.961 0 C8.5235 0 6.0938 0.136 3.5235 1.332 C1.4531 2.289 0 3.922 0 4.164 C0 4.222 0.0157 4.3 0.1172 4.3 C0.1563 4.3 0.1758 4.281 0.2149 4.261 C1.211 3.304 3.7461 0.875 9.9414 0.875 C16.1563 0.875 18.6875 3.285 19.6836 4.261 C19.7227 4.281 19.7461 4.3 19.7813 4.3 C19.8828 4.3 19.9024 4.222 19.9024 4.164 C19.9024 3.941 18.4297 2.25 16.2383 1.273 C14.0235 0.277 11.875 0 9.961 0 Z"
         transform="translate(39.5781, 133.512)"
         id="path4616" />
      <path
         style="fill:#000000; fill-rule:nonzero;stroke:none;"
         d="M0 0 C0.7383 1.196 1.2539 1.832 2.0508 2.508 C3.8438 4.024 6.1368 4.84 8.5469 4.84 C10.8203 4.84 12.9493 4.125 14.7227 2.789 C15.6797 2.032 16.2774 1.356 17.1172 0 L16.3789 0 C14.625 1.993 12.375 2.789 8.5469 2.789 C4.7227 2.789 2.4883 1.993 0.7383 0 L0 0 Z"
         transform="translate(39.8359, 120.441)"
         id="path4618" />
      <path
         style="fill:#000000; fill-rule:nonzero;stroke:none;"
         d="M0.3007 13.293 L0.5195 16.84 L1.375 16.84 L1.375 16.024 C1.375 15.285 1.5156 15.164 2.3711 15.164 L7.914 15.164 C8.7304 15.164 8.8671 15.383 8.8671 16.66 L8.8671 16.738 L9.5859 16.738 L9.5859 11.719 L8.8671 11.719 L8.8671 11.797 C8.8671 13.07 8.7304 13.293 7.914 13.293 L4.3047 13.293 C2.5312 13.293 1.2187 12.317 1.2187 11.02 C1.2187 10.5 1.4961 9.945 1.875 9.703 C2.2539 9.426 2.832 9.309 3.6474 9.309 L7.9336 9.309 C8.7304 9.309 8.8671 9.527 8.8671 10.82 L8.8671 10.902 L9.5859 10.902 L9.5859 5.859 L8.8671 5.859 L8.8671 5.942 C8.8671 7.215 8.7304 7.434 7.9336 7.434 L4.4843 7.434 C2.4921 7.434 1.2187 6.535 1.2187 5.145 C1.2187 4.485 1.5976 3.945 2.2148 3.688 C2.6523 3.508 3.0898 3.449 3.8671 3.449 L7.9336 3.449 C8.7304 3.449 8.8671 3.668 8.8671 4.961 L8.8671 5.043 L9.5859 5.043 L9.5859 0 L8.8671 0 L8.8671 0.082 C8.8671 1.356 8.7304 1.574 7.914 1.574 L3.4687 1.574 C2.2343 1.574 1.8164 1.695 1.1367 2.215 C0.4023 2.789 0 3.609 0 4.567 C0 5.859 0.6171 6.817 1.9921 7.672 C0.8007 8.012 0 9.086 0 10.422 C0 11.617 0.5781 12.516 1.8359 13.293 L0.3007 13.293 Z"
         transform="translate(44.9141, 102.203)"
         id="path4620" />
      <path
         style="fill:#000000; fill-rule:nonzero;stroke:none;"
         d="M0.3007 13.2891 L0.5195 16.836 L1.375 16.836 L1.375 16.02 C1.375 15.2813 1.5156 15.1602 2.3711 15.1602 L7.914 15.1602 C8.7304 15.1602 8.8671 15.3789 8.8671 16.656 L8.8671 16.734 L9.5859 16.734 L9.5859 11.7149 L8.8671 11.7149 L8.8671 11.793 C8.8671 13.0703 8.7304 13.2891 7.914 13.2891 L4.3047 13.2891 C2.5312 13.2891 1.2187 12.3125 1.2187 11.0157 C1.2187 10.5 1.4961 9.9414 1.875 9.6992 C2.2539 9.4219 2.832 9.3047 3.6474 9.3047 L7.9336 9.3047 C8.7304 9.3047 8.8671 9.5235 8.8671 10.8164 L8.8671 10.8946 L9.5859 10.8946 L9.5859 5.8555 L8.8671 5.8555 L8.8671 5.9375 C8.8671 7.211 8.7304 7.4297 7.9336 7.4297 L4.4843 7.4297 C2.4921 7.4297 1.2187 6.5313 1.2187 5.1368 C1.2187 4.4815 1.5976 3.9453 2.2148 3.6836 C2.6523 3.5039 3.0898 3.4453 3.8671 3.4453 L7.9336 3.4453 C8.7304 3.4453 8.8671 3.6641 8.8671 4.9571 L8.8671 5.0391 L9.5859 5.0391 L9.5859 0 L8.8671 0 L8.8671 0.0782 C8.8671 1.3516 8.7304 1.5742 7.914 1.5742 L3.4687 1.5742 C2.2343 1.5742 1.8164 1.6914 1.1367 2.211 C0.4023 2.7852 0 3.6055 0 4.5625 C0 5.8555 0.6171 6.8125 1.9921 7.668 C0.8007 8.0078 0 9.0821 0 10.418 C0 11.6133 0.5781 12.5118 1.8359 13.2891 L0.3007 13.2891 Z"
         transform="translate(44.9141, 84.457)"
         id="path4622" />
      <path
         style="fill:#000000; fill-rule:nonzero;stroke:none;"
         d="M17.1172 4.8399 C16.3789 3.6446 15.8594 3.0078 15.043 2.3321 C13.2696 0.8164 10.9571 0 8.5469 0 C6.2735 0 4.1446 0.7188 2.3907 2.0547 C1.4141 2.8086 0.8164 3.4883 0 4.8399 L0.7383 4.8399 C2.4883 2.8477 4.7227 2.0547 8.5469 2.0547 C12.3907 2.0547 14.625 2.8477 16.3789 4.8399 L17.1172 4.8399 Z"
         transform="translate(39.8359, 78.082)"
         id="path4624" />
      <path
         style="fill:#000000; fill-rule:nonzero;stroke:none;"
         d="M2.566 2.125 C2.597 2.039 2.957 1.3203 3.484 0.8633 C3.859 0.5195 4.347 0.289 4.906 0.289 C5.48 0.289 5.679 0.7187 5.679 1.2929 C5.679 1.3789 5.679 1.6679 5.508 2.3398 L5.152 3.8164 C5.035 4.2461 4.761 5.3086 4.734 5.4687 C4.675 5.6836 4.593 6.0547 4.593 6.1133 C4.593 6.3125 4.75 6.4726 4.965 6.4726 C5.394 6.4726 5.468 6.1406 5.593 5.625 L6.457 2.1953 C6.484 2.082 7.23 0.289 8.808 0.289 C9.383 0.289 9.586 0.7187 9.586 1.2929 C9.586 2.0976 9.023 3.6601 8.711 4.5195 C8.582 4.8633 8.508 5.0508 8.508 5.3086 C8.508 5.957 8.953 6.4726 9.64 6.4726 C10.976 6.4726 11.476 4.3633 11.476 4.2773 C11.476 4.207 11.422 4.1484 11.336 4.1484 C11.207 4.1484 11.191 4.1914 11.121 4.4336 C10.789 5.582 10.258 6.1836 9.683 6.1836 C9.543 6.1836 9.312 6.1719 9.312 5.7109 C9.312 5.3398 9.484 4.8789 9.543 4.7226 C9.801 4.0351 10.445 2.3398 10.445 1.5078 C10.445 0.6484 9.941 0 8.851 0 C7.89 0 7.117 0.5469 6.543 1.3945 C6.5 0.6172 6.027 0 4.949 0 C3.672 0 3 0.9062 2.742 1.2617 C2.699 0.4453 2.109 0 1.476 0 C1.062 0 0.73 0.2031 0.461 0.7461 C0.203 1.2617 0 2.1367 0 2.1953 C0 2.2539 0.058 2.3242 0.16 2.3242 C0.273 2.3242 0.289 2.3125 0.375 1.9804 C0.59 1.1328 0.859 0.289 1.433 0.289 C1.765 0.289 1.879 0.5195 1.879 0.9492 C1.879 1.2617 1.734 1.8242 1.636 2.2695 L1.234 3.8164 C1.175 4.0898 1.019 4.7343 0.949 4.9922 C0.847 5.3672 0.687 6.0429 0.687 6.1133 C0.687 6.3125 0.847 6.4726 1.062 6.4726 C1.234 6.4726 1.433 6.3867 1.551 6.1719 C1.578 6.0976 1.707 5.5976 1.777 5.3086 L2.093 4.0195 L2.566 2.125 Z"
         transform="translate(424.387, 43.4219)"
         id="path4626" />
      <path
         style="fill:#000000; fill-rule:nonzero;stroke:none;"
         d="M2.043 0.2617 C2.043 0.0234 2.043 0 1.812 0 C1.195 0.6406 0.316 0.6406 0 0.6406 L0 0.9492 C0.199 0.9492 0.789 0.9492 1.304 0.6875 L1.304 5.8515 C1.304 6.207 1.273 6.3281 0.379 6.3281 L0.058 6.3281 L0.058 6.6367 C0.41 6.6055 1.273 6.6055 1.675 6.6055 C2.074 6.6055 2.937 6.6055 3.289 6.6367 L3.289 6.3281 L2.968 6.3281 C2.074 6.3281 2.043 6.2187 2.043 5.8515 L2.043 0.2617 Z"
         transform="translate(437.137, 45.6133)"
         id="path4628" />
      <path
         style="fill:#000000; fill-rule:nonzero;stroke:none;"
         d="M3.828 0.3789 C3.879 0.25 3.879 0.211 3.879 0.1993 C3.879 0.0899 3.789 0 3.68 0 C3.605 0 3.539 0.0313 3.508 0.0899 L0.051 9.586 C0 9.7149 0 9.7539 0 9.7618 C0 9.875 0.09 9.961 0.199 9.961 C0.332 9.961 0.359 9.8946 0.422 9.7266 L3.828 0.3789 Z"
         transform="translate(441.797, 44.7773)"
         id="path4630" />
      <path
         style="fill:#000000; fill-rule:nonzero;stroke:none;"
         d="M0.77 5.8672 L1.824 4.8437 C3.379 3.4687 3.977 2.9297 3.977 1.9336 C3.977 0.7969 3.078 0 1.863 0 C0.738 0 0 0.9179 0 1.8047 C0 2.3633 0.5 2.3633 0.531 2.3633 C0.699 2.3633 1.047 2.2422 1.047 1.8359 C1.047 1.5781 0.867 1.3164 0.52 1.3164 C0.442 1.3164 0.422 1.3164 0.391 1.3281 C0.621 0.6797 1.156 0.3086 1.734 0.3086 C2.645 0.3086 3.07 1.1172 3.07 1.9336 C3.07 2.7305 2.57 3.5195 2.024 4.1367 L0.109 6.2695 C0 6.3789 0 6.3984 0 6.6367 L3.699 6.6367 L3.977 4.9023 L3.731 4.9023 C3.68 5.2031 3.609 5.6406 3.508 5.789 C3.442 5.8672 2.781 5.8672 2.563 5.8672 L0.77 5.8672 Z"
         transform="translate(446.996, 45.6133)"
         id="path4632" />
      <path
         style="fill:#000000; fill-rule:nonzero;stroke:none;"
         d="M8.911 0.5313 C9.114 0.5313 9.372 0.5313 9.372 0.2735 C9.372 0 9.125 0 8.911 0 L0.461 0 C0.258 0 0 0 0 0.2578 C0 0.5313 0.247 0.5313 0.461 0.5313 L8.911 0.5313 Z M8.911 3.1992 C9.114 3.1992 9.372 3.1992 9.372 2.9414 C9.372 2.668 9.125 2.668 8.911 2.668 L0.461 2.668 C0.258 2.668 0 2.668 0 2.9258 C0 3.1992 0.247 3.1992 0.461 3.1992 L8.911 3.1992 Z"
         transform="translate(456.523, 44.5703)"
         id="path4634" />
      <path
         style="fill:#000000; fill-rule:nonzero;stroke:none;"
         d="M1.133 1.3085 C1.75 1.5078 2.25 1.5234 2.41 1.5234 C4.031 1.5234 5.067 0.332 5.067 0.1289 C5.067 0.0742 5.035 0 4.949 0 C4.922 0 4.891 0 4.762 0.0585 C3.957 0.4023 3.27 0.4453 2.899 0.4453 C1.949 0.4453 1.277 0.1601 1.004 0.0468 C0.902 0 0.875 0 0.859 0 C0.746 0 0.746 0.0859 0.746 0.3164 L0.746 4.5781 C0.746 4.8359 0.746 4.9218 0.918 4.9218 C0.988 4.9218 1.004 4.9101 1.149 4.7343 C1.551 4.1484 2.223 3.8046 2.942 3.8046 C3.699 3.8046 4.074 4.5039 4.188 4.75 C4.434 5.3085 4.445 6.0117 4.445 6.5585 C4.445 7.1015 4.445 7.9218 4.047 8.5664 C3.731 9.082 3.168 9.4414 2.539 9.4414 C1.594 9.4414 0.66 8.7968 0.402 7.7461 C0.473 7.7773 0.559 7.7929 0.633 7.7929 C0.875 7.7929 1.262 7.6484 1.262 7.1601 C1.262 6.7578 0.988 6.5312 0.633 6.5312 C0.371 6.5312 0 6.6601 0 7.2187 C0 8.4375 0.977 9.8281 2.567 9.8281 C4.188 9.8281 5.609 8.4658 5.609 6.6445 C5.609 4.9375 4.461 3.5156 2.953 3.5156 C2.137 3.5156 1.508 3.875 1.133 4.2773 L1.133 1.3085 Z"
         transform="translate(471.203, 40.2227)"
         id="path4636" />
      <path
         style="fill:#000000; fill-rule:nonzero;stroke:none;"
         d="M5.836 4.9493 C5.836 3.7579 5.765 2.5938 5.25 1.5039 C4.66 0.3164 3.629 0 2.926 0 C2.094 0 1.074 0.4141 0.543 1.6055 C0.14 2.5079 0 3.3985 0 4.9493 C0 6.3399 0.098 7.3868 0.613 8.4063 C1.176 9.4961 2.164 9.8399 2.91 9.8399 C4.16 9.8399 4.875 9.0938 5.293 8.2618 C5.808 7.1875 5.836 5.7813 5.836 4.9493 Z M2.91 9.5547 C2.449 9.5547 1.519 9.2969 1.246 7.7305 C1.09 6.8711 1.09 5.7813 1.09 4.7774 C1.09 3.5977 1.09 2.5391 1.316 1.6914 C1.562 0.7305 2.293 0.2852 2.91 0.2852 C3.457 0.2852 4.289 0.6172 4.558 1.8477 C4.746 2.668 4.746 3.8008 4.746 4.7774 C4.746 5.7383 4.746 6.8282 4.59 7.7032 C4.316 9.2813 3.414 9.5547 2.91 9.5547 Z"
         transform="translate(478.34, 40.2109)"
         id="path4638" />
      <path
         style="fill:#000000; fill-rule:nonzero;stroke:none;"
         d="M5.836 4.9493 C5.836 3.7579 5.765 2.5938 5.25 1.5039 C4.66 0.3164 3.629 0 2.926 0 C2.094 0 1.074 0.4141 0.543 1.6055 C0.14 2.5079 0 3.3985 0 4.9493 C0 6.3399 0.098 7.3868 0.613 8.4063 C1.176 9.4961 2.164 9.8399 2.91 9.8399 C4.16 9.8399 4.875 9.0938 5.293 8.2618 C5.808 7.1875 5.836 5.7813 5.836 4.9493 Z M2.91 9.5547 C2.449 9.5547 1.519 9.2969 1.246 7.7305 C1.09 6.8711 1.09 5.7813 1.09 4.7774 C1.09 3.5977 1.09 2.5391 1.316 1.6914 C1.562 0.7305 2.293 0.2852 2.91 0.2852 C3.457 0.2852 4.289 0.6172 4.558 1.8477 C4.746 2.668 4.746 3.8008 4.746 4.7774 C4.746 5.7383 4.746 6.8282 4.59 7.7032 C4.316 9.2813 3.414 9.5547 2.91 9.5547 Z"
         transform="translate(485.34, 40.2109)"
         id="path4640" />
      <path
         style="fill:#000000; fill-rule:nonzero;stroke:none;"
         d="M8.722 0.1172 L8.179 0.1172 L7.621 0.9922 C6.687 0.2461 6.054 0 5.007 0 C3.875 0 2.984 0.3164 2.082 1.0469 C0.66 2.1953 0 3.6445 0 5.582 C0 7.043 0.429 8.2656 1.261 9.1953 C2.152 10.2031 3.472 10.789 4.847 10.789 C6.054 10.789 6.902 10.418 7.836 9.4844 L8.367 10.7773 L8.968 10.7773 L8.968 7.6172 C8.968 6.8437 8.968 6.832 9.054 6.7304 C9.183 6.5859 9.484 6.5273 10.257 6.5273 L10.472 6.5273 L10.472 5.8554 L5.91 5.8554 L5.91 6.5273 L6.183 6.5273 C7.39 6.5273 7.488 6.6015 7.488 7.3906 C7.488 8.0039 7.375 8.582 7.203 8.9258 C6.843 9.625 5.925 10.1133 4.992 10.1133 C4.074 10.1133 3.14 9.6406 2.656 8.9258 C2.125 8.1367 1.894 7.1172 1.894 5.582 C1.894 2.3828 2.957 0.6758 4.949 0.6758 C6.586 0.6758 7.718 1.8515 8.308 4.1484 L8.925 4.1484 L8.722 0.1172 Z"
         transform="translate(496.352, 39.1758)"
         id="path4642" />
      <path
         style="fill:#000000; fill-rule:nonzero;stroke:none;"
         d="M6.168 3.6757 C6.184 1.5234 4.961 0 3.211 0 C1.375 0 0 1.5937 0 3.7461 C0 5.7539 1.305 7.1171 3.238 7.1171 C4.601 7.1171 5.578 6.4414 6.168 5.0781 L5.664 4.8085 C5.078 5.914 4.476 6.3437 3.512 6.3437 C2.781 6.3437 2.25 6.0273 1.879 5.3945 C1.617 4.9648 1.504 4.4648 1.519 3.6757 L6.168 3.6757 Z M1.531 3.0585 C1.531 2.6132 1.59 2.2968 1.734 1.8945 C2.035 1.0351 2.492 0.6211 3.184 0.6211 C4.058 0.6211 4.633 1.3789 4.633 2.5273 C4.633 2.9414 4.504 3.0585 4.043 3.0585 L1.531 3.0585 Z"
         transform="translate(507.254, 42.8477)"
         id="path4644" />
      <path
         style="fill:#000000; fill-rule:nonzero;stroke:none;"
         d="M5.75 8.1367 L3.125 1.4649 C3.054 1.293 3.011 1.1211 3.011 1.0352 C3.011 0.7774 3.254 0.6758 3.898 0.6758 L4.472 0.6758 L4.472 0 L0 0 L0 0.6758 L0.285 0.6758 C0.929 0.6758 1.117 0.8203 1.39 1.4805 L5.019 10.5742 L5.593 10.5742 L8.894 2.0821 C9.324 0.961 9.64 0.6758 10.457 0.6758 L10.601 0.6758 L10.601 0 L6.715 0 L6.715 0.6758 L6.984 0.6758 C7.718 0.6758 8.148 0.961 8.148 1.4219 C8.148 1.6211 8.074 1.9532 7.972 2.2227 L5.75 8.1367 Z"
         transform="translate(513.887, 39.3906)"
         id="path4646" />
      <path
         style="fill:#000000; fill-rule:nonzero;stroke:none;"
         d="M2.566 2.125 C2.597 2.039 2.957 1.3203 3.484 0.8633 C3.859 0.5195 4.347 0.289 4.906 0.289 C5.48 0.289 5.679 0.7187 5.679 1.2929 C5.679 1.3789 5.679 1.6679 5.508 2.3398 L5.152 3.8164 C5.035 4.2461 4.761 5.3086 4.734 5.4687 C4.675 5.6836 4.593 6.0547 4.593 6.1133 C4.593 6.3125 4.75 6.4726 4.965 6.4726 C5.394 6.4726 5.468 6.1406 5.593 5.625 L6.457 2.1953 C6.484 2.082 7.23 0.289 8.808 0.289 C9.383 0.289 9.586 0.7187 9.586 1.2929 C9.586 2.0976 9.023 3.6601 8.711 4.5195 C8.582 4.8633 8.508 5.0508 8.508 5.3086 C8.508 5.957 8.953 6.4726 9.64 6.4726 C10.976 6.4726 11.476 4.3633 11.476 4.2773 C11.476 4.207 11.422 4.1484 11.336 4.1484 C11.207 4.1484 11.191 4.1914 11.121 4.4336 C10.789 5.582 10.258 6.1836 9.683 6.1836 C9.543 6.1836 9.312 6.1719 9.312 5.7109 C9.312 5.3398 9.484 4.8789 9.543 4.7226 C9.801 4.0351 10.445 2.3398 10.445 1.5078 C10.445 0.6484 9.941 0 8.851 0 C7.89 0 7.117 0.5469 6.543 1.3945 C6.5 0.6172 6.027 0 4.949 0 C3.672 0 3 0.9062 2.742 1.2617 C2.699 0.4453 2.109 0 1.476 0 C1.062 0 0.73 0.2031 0.461 0.7461 C0.203 1.2617 0 2.1367 0 2.1953 C0 2.2539 0.058 2.3242 0.16 2.3242 C0.273 2.3242 0.289 2.3125 0.375 1.9804 C0.59 1.1328 0.859 0.289 1.433 0.289 C1.765 0.289 1.879 0.5195 1.879 0.9492 C1.879 1.2617 1.734 1.8242 1.636 2.2695 L1.234 3.8164 C1.175 4.0898 1.019 4.7343 0.949 4.9922 C0.847 5.3672 0.687 6.0429 0.687 6.1133 C0.687 6.3125 0.847 6.4726 1.062 6.4726 C1.234 6.4726 1.433 6.3867 1.551 6.1719 C1.578 6.0976 1.707 5.5976 1.777 5.3086 L2.093 4.0195 L2.566 2.125 Z"
         transform="translate(424.387, 61.9219)"
         id="path4648" />
      <path
         style="fill:#000000; fill-rule:nonzero;stroke:none;"
         d="M4.191 3.4492 C4.191 2.6523 4.14 1.8555 3.793 1.1172 C3.336 0.1601 2.519 0 2.097 0 C1.504 0 0.773 0.2617 0.367 1.1875 C0.047 1.875 0 2.6523 0 3.4492 C0 4.1953 0.039 5.0937 0.445 5.8515 C0.875 6.6562 1.601 6.8555 2.089 6.8555 C2.629 6.8555 3.382 6.6484 3.824 5.6992 C4.14 5.0117 4.191 4.2344 4.191 3.4492 Z M2.089 6.6367 C1.703 6.6367 1.113 6.3867 0.933 5.4297 C0.824 4.832 0.824 3.9179 0.824 3.3281 C0.824 2.6914 0.824 2.0351 0.906 1.4961 C1.093 0.3086 1.839 0.2226 2.089 0.2226 C2.418 0.2226 3.078 0.4023 3.265 1.3867 C3.367 1.9453 3.367 2.7031 3.367 3.3281 C3.367 4.0781 3.367 4.7539 3.254 5.3906 C3.105 6.3398 2.539 6.6367 2.089 6.6367 Z"
         transform="translate(436.641, 63.8633)"
         id="path4650" />
      <path
         style="fill:#000000; fill-rule:nonzero;stroke:none;"
         d="M8.911 0.5313 C9.114 0.5313 9.372 0.5313 9.372 0.2735 C9.372 0 9.125 0 8.911 0 L0.461 0 C0.258 0 0 0 0 0.2578 C0 0.5313 0.247 0.5313 0.461 0.5313 L8.911 0.5313 Z M8.911 3.1992 C9.114 3.1992 9.372 3.1992 9.372 2.9414 C9.372 2.668 9.125 2.668 8.911 2.668 L0.461 2.668 C0.258 2.668 0 2.668 0 2.9258 C0 3.1992 0.247 3.1992 0.461 3.1992 L8.911 3.1992 Z"
         transform="translate(446.523, 63.0703)"
         id="path4652" />
      <path
         style="fill:#000000; fill-rule:nonzero;stroke:none;"
         d="M1.133 1.3085 C1.75 1.5078 2.25 1.5234 2.41 1.5234 C4.031 1.5234 5.067 0.332 5.067 0.1289 C5.067 0.0742 5.035 0 4.949 0 C4.922 0 4.891 0 4.762 0.0585 C3.957 0.4023 3.27 0.4453 2.899 0.4453 C1.949 0.4453 1.277 0.1601 1.004 0.0468 C0.902 0 0.875 0 0.859 0 C0.746 0 0.746 0.0859 0.746 0.3164 L0.746 4.5781 C0.746 4.8359 0.746 4.9218 0.918 4.9218 C0.988 4.9218 1.004 4.9101 1.149 4.7343 C1.551 4.1484 2.223 3.8046 2.942 3.8046 C3.699 3.8046 4.074 4.5039 4.188 4.75 C4.434 5.3085 4.445 6.0117 4.445 6.5585 C4.445 7.1015 4.445 7.9218 4.047 8.5664 C3.731 9.082 3.168 9.4414 2.539 9.4414 C1.594 9.4414 0.66 8.7968 0.402 7.7461 C0.473 7.7773 0.559 7.7929 0.633 7.7929 C0.875 7.7929 1.262 7.6484 1.262 7.1601 C1.262 6.7578 0.988 6.5312 0.633 6.5312 C0.371 6.5312 0 6.6601 0 7.2187 C0 8.4375 0.977 9.8281 2.567 9.8281 C4.188 9.8281 5.609 8.4658 5.609 6.6445 C5.609 4.9375 4.461 3.5156 2.953 3.5156 C2.137 3.5156 1.508 3.875 1.133 4.2773 L1.133 1.3085 Z"
         transform="translate(461.453, 58.7227)"
         id="path4654" />
      <path
         style="fill:#000000; fill-rule:nonzero;stroke:none;"
         d="M5.836 4.9493 C5.836 3.7579 5.765 2.5938 5.25 1.5039 C4.66 0.3164 3.629 0 2.926 0 C2.094 0 1.074 0.4141 0.543 1.6055 C0.14 2.5079 0 3.3985 0 4.9493 C0 6.3399 0.098 7.3868 0.613 8.4063 C1.176 9.4961 2.164 9.8399 2.91 9.8399 C4.16 9.8399 4.875 9.0938 5.293 8.2618 C5.808 7.1875 5.836 5.7813 5.836 4.9493 Z M2.91 9.5547 C2.449 9.5547 1.519 9.2969 1.246 7.7305 C1.09 6.8711 1.09 5.7813 1.09 4.7774 C1.09 3.5977 1.09 2.5391 1.316 1.6914 C1.562 0.7305 2.293 0.2852 2.91 0.2852 C3.457 0.2852 4.289 0.6172 4.558 1.8477 C4.746 2.668 4.746 3.8008 4.746 4.7774 C4.746 5.7383 4.746 6.8282 4.59 7.7032 C4.316 9.2813 3.414 9.5547 2.91 9.5547 Z"
         transform="translate(468.34, 58.7109)"
         id="path4656" />
      <path
         style="fill:#000000; fill-rule:nonzero;stroke:none;"
         d="M5.836 4.9493 C5.836 3.7579 5.765 2.5938 5.25 1.5039 C4.66 0.3164 3.629 0 2.926 0 C2.094 0 1.074 0.4141 0.543 1.6055 C0.14 2.5079 0 3.3985 0 4.9493 C0 6.3399 0.098 7.3868 0.613 8.4063 C1.176 9.4961 2.164 9.8399 2.91 9.8399 C4.16 9.8399 4.875 9.0938 5.293 8.2618 C5.808 7.1875 5.836 5.7813 5.836 4.9493 Z M2.91 9.5547 C2.449 9.5547 1.519 9.2969 1.246 7.7305 C1.09 6.8711 1.09 5.7813 1.09 4.7774 C1.09 3.5977 1.09 2.5391 1.316 1.6914 C1.562 0.7305 2.293 0.2852 2.91 0.2852 C3.457 0.2852 4.289 0.6172 4.558 1.8477 C4.746 2.668 4.746 3.8008 4.746 4.7774 C4.746 5.7383 4.746 6.8282 4.59 7.7032 C4.316 9.2813 3.414 9.5547 2.91 9.5547 Z"
         transform="translate(475.34, 58.7109)"
         id="path4658" />
      <path
         style="fill:#000000; fill-rule:nonzero;stroke:none;"
         d="M8.722 0.1172 L8.179 0.1172 L7.621 0.9922 C6.687 0.2461 6.054 0 5.007 0 C3.875 0 2.984 0.3164 2.082 1.0469 C0.66 2.1953 0 3.6445 0 5.582 C0 7.043 0.429 8.2656 1.261 9.1953 C2.152 10.2031 3.472 10.789 4.847 10.789 C6.054 10.789 6.902 10.418 7.836 9.4844 L8.367 10.7773 L8.968 10.7773 L8.968 7.6172 C8.968 6.8437 8.968 6.832 9.054 6.7304 C9.183 6.5859 9.484 6.5273 10.257 6.5273 L10.472 6.5273 L10.472 5.8554 L5.91 5.8554 L5.91 6.5273 L6.183 6.5273 C7.39 6.5273 7.488 6.6015 7.488 7.3906 C7.488 8.0039 7.375 8.582 7.203 8.9258 C6.843 9.625 5.925 10.1133 4.992 10.1133 C4.074 10.1133 3.14 9.6406 2.656 8.9258 C2.125 8.1367 1.894 7.1172 1.894 5.582 C1.894 2.3828 2.957 0.6758 4.949 0.6758 C6.586 0.6758 7.718 1.8515 8.308 4.1484 L8.925 4.1484 L8.722 0.1172 Z"
         transform="translate(486.352, 57.6758)"
         id="path4660" />
      <path
         style="fill:#000000; fill-rule:nonzero;stroke:none;"
         d="M6.168 3.6757 C6.184 1.5234 4.961 0 3.211 0 C1.375 0 0 1.5937 0 3.7461 C0 5.7539 1.305 7.1171 3.238 7.1171 C4.601 7.1171 5.578 6.4414 6.168 5.0781 L5.664 4.8085 C5.078 5.914 4.476 6.3437 3.512 6.3437 C2.781 6.3437 2.25 6.0273 1.879 5.3945 C1.617 4.9648 1.504 4.4648 1.519 3.6757 L6.168 3.6757 Z M1.531 3.0585 C1.531 2.6132 1.59 2.2968 1.734 1.8945 C2.035 1.0351 2.492 0.6211 3.184 0.6211 C4.058 0.6211 4.633 1.3789 4.633 2.5273 C4.633 2.9414 4.504 3.0585 4.043 3.0585 L1.531 3.0585 Z"
         transform="translate(497.504, 61.3477)"
         id="path4662" />
      <path
         style="fill:#000000; fill-rule:nonzero;stroke:none;"
         d="M5.75 8.1367 L3.125 1.4649 C3.054 1.293 3.011 1.1211 3.011 1.0352 C3.011 0.7774 3.254 0.6758 3.898 0.6758 L4.472 0.6758 L4.472 0 L0 0 L0 0.6758 L0.285 0.6758 C0.929 0.6758 1.117 0.8203 1.39 1.4805 L5.019 10.5742 L5.593 10.5742 L8.894 2.0821 C9.324 0.961 9.64 0.6758 10.457 0.6758 L10.601 0.6758 L10.601 0 L6.715 0 L6.715 0.6758 L6.984 0.6758 C7.718 0.6758 8.148 0.961 8.148 1.4219 C8.148 1.6211 8.074 1.9532 7.972 2.2227 L5.75 8.1367 Z"
         transform="translate(503.887, 57.8906)"
         id="path4664" />
      <path
         style="fill:#00adef;fill-rule:nonzero;stroke:none;fill-opacity:1"
         d="M0 7.7187 L87.0197 52.6289 L257.52 148.066 L445.637 258.566 L445.637 249.441 L349.621 191.879 L214.207 103.066 C186.25 84.7932 160.614 67.2932 130.328 48.2422 C111.508 39.1836 93.4607 30.7031 73.8637 23.3906 C55.4417 17.2383 36.2857 11.0859 17.3947 4.9336 L0 0 L0 7.7187 Z"
         transform="translate(91.1523, 46.0508)"
         id="path4666" />
      <path
         style="fill:#0000fe; fill-rule:nonzero;stroke:none;"
         d="M0 15.8955 L30.238 15.8955 L30.238 0 L0 0 L0 15.8955 Z"
         transform="translate(382.613, 46.4336)"
         id="path4668" />
      <path
         id="path4698"
         transform="translate(91.1523,46.0508)"
         d="m 162.73401,94.968681 10.79132,6.139989 -0.0617,-24.977482 -10.70032,-6.951612 z"
         style="fill:#9fd0d5;fill-opacity:1;fill-rule:nonzero;stroke:none"
         inkscape:connector-curvature="0"
         sodipodi:nodetypes="ccccc" />
    </g>
  </g>
</svg>
