<?xml version="1.0" encoding="UTF-8" standalone="no"?>
<svg
   xmlns:dc="http://purl.org/dc/elements/1.1/"
   xmlns:cc="http://creativecommons.org/ns#"
   xmlns:rdf="http://www.w3.org/1999/02/22-rdf-syntax-ns#"
   xmlns:svg="http://www.w3.org/2000/svg"
   xmlns="http://www.w3.org/2000/svg"
   xmlns:sodipodi="http://sodipodi.sourceforge.net/DTD/sodipodi-0.dtd"
   xmlns:inkscape="http://www.inkscape.org/namespaces/inkscape"
   width="201pt"
   version="1.1"
   height="120pt"
   viewBox="0 0 201 120"
   id="svg4146"
   inkscape:version="0.48.5 r10040"
   sodipodi:docname="nudm.svg">
  <metadata
     id="metadata4217">
    <rdf:RDF>
      <cc:Work
         rdf:about="">
        <dc:format>image/svg+xml</dc:format>
        <dc:type
           rdf:resource="http://purl.org/dc/dcmitype/StillImage" />
        <dc:title></dc:title>
      </cc:Work>
    </rdf:RDF>
  </metadata>
  <sodipodi:namedview
     pagecolor="#ffffff"
     bordercolor="#666666"
     borderopacity="1"
     objecttolerance="10"
     gridtolerance="10"
     guidetolerance="10"
     inkscape:pageopacity="0"
     inkscape:pageshadow="2"
     inkscape:window-width="1366"
     inkscape:window-height="732"
     id="namedview4215"
     showgrid="false"
     inkscape:zoom="3.36"
     inkscape:cx="167.22842"
     inkscape:cy="74.126659"
     inkscape:window-x="0"
     inkscape:window-y="0"
     inkscape:window-maximized="1"
     inkscape:current-layer="layer4" />
  <defs
     id="defs4148">
    <marker
       inkscape:stockid="DotL"
       orient="auto"
       refY="0.0"
       refX="0.0"
       id="DotL"
       style="overflow:visible">
      <path
         id="path3995"
         d="M -2.5,-1.0 C -2.5,1.7600000 -4.7400000,4.0 -7.5,4.0 C -10.260000,4.0 -12.5,1.7600000 -12.5,-1.0 C -12.5,-3.7600000 -10.260000,-6.0 -7.5,-6.0 C -4.7400000,-6.0 -2.5,-3.7600000 -2.5,-1.0 z "
         style="fill-rule:evenodd;stroke:#000000;stroke-width:1.0pt"
         transform="scale(0.8) translate(7.4, 1)" />
    </marker>
    <clipPath
       id="Clip0">
      <path
         d="M0 0 L201 0 L201 120 L0 120 L0 0 Z"
         transform="translate(0, 0)"
         id="path4151" />
    </clipPath>
    <clipPath
       id="Clip1">
      <path
         d="M0 0 L201 0 L201 120 L0 120 L0 0 Z"
         transform="translate(0, 0)"
         id="path4154" />
    </clipPath>
    <clipPath
       id="Clip0-9">
      <path
         inkscape:connector-curvature="0"
         d="M 0,0 201,0 201,120 0,120 0,0 z"
         id="path4151-8" />
    </clipPath>
    <clipPath
       id="Clip1-7">
      <path
         inkscape:connector-curvature="0"
         d="M 0,0 201,0 201,120 0,120 0,0 z"
         id="path4154-1" />
    </clipPath>
    <marker
       inkscape:stockid="DotL"
       orient="auto"
       refY="0"
       refX="0"
       id="DotL-0"
       style="overflow:visible">
      <path
         inkscape:connector-curvature="0"
         id="path3995-5"
         d="m -2.5,-1 c 0,2.76 -2.24,5 -5,5 -2.76,0 -5,-2.24 -5,-5 0,-2.76 2.24,-5 5,-5 2.76,0 5,2.24 5,5 z"
         style="fill-rule:evenodd;stroke:#000000;stroke-width:1pt"
         transform="matrix(0.8,0,0,0.8,5.92,0.8)" />
    </marker>
  </defs>
  <g
     inkscape:groupmode="layer"
     id="layer1"
     inkscape:label="Layer"
     style="display:inline">
    <g
       id="Background">
      <g
         id="Group1"
         clip-path="url(#Clip0-9)">
        <g
           id="Group2"
           clip-path="url(#Clip1-7)">
          <path
             inkscape:connector-curvature="0"
             style="fill:none;stroke:#000000;stroke-width:0.80000001;stroke-linecap:butt;stroke-linejoin:miter;stroke-dasharray:none;marker-end:url(#DotL)"
             d="M 0,0 60,0"
             transform="translate(0.681641,99.375)"
             id="path4159" />
          <path
             inkscape:connector-curvature="0"
             style="fill:#000000;fill-rule:nonzero;stroke:none"
             d="M 5.3994,2.1602 0,0 0,4.3202 5.3994,2.1602"
             transform="translate(27.9824,97.2148)"
             id="path4161" />
          <path
             inkscape:connector-curvature="0"
             style="fill:none;stroke:#000000;stroke-width:0.80000001;stroke-linecap:butt;stroke-linejoin:miter;stroke-dasharray:none"
             d="M 60,0 0,0"
             transform="translate(140.682,99.375)"
             id="path4167" />
          <path
             inkscape:connector-curvature="0"
             style="fill:#000000;fill-rule:nonzero;stroke:none"
             d="M 0,2.1602 5.4,4.3202 5.4,0 0,2.1602"
             transform="translate(167.982,97.2148)"
             id="path4169" />
        </g>
      </g>
    </g>
    <text
       sodipodi:linespacing="125%"
       id="text5222"
       y="115.38889"
       x="25.80039"
       style="font-size:12.80000019px;font-style:italic;font-variant:normal;font-weight:normal;font-stretch:normal;text-align:start;line-height:125%;letter-spacing:0px;word-spacing:0px;writing-mode:lr-tb;text-anchor:start;fill:#ff0000;fill-opacity:1;stroke:none;font-family:Fira Sans;-inkscape-font-specification:Fira Sans Italic"
       xml:space="preserve"><tspan
         y="115.38889"
         x="25.80039"
         id="tspan5224"
         sodipodi:role="line"
         style="fill:#000000">L</tspan></text>
    <text
       xml:space="preserve"
       style="font-size:12.80000019px;font-style:italic;font-variant:normal;font-weight:normal;font-stretch:normal;text-align:start;line-height:125%;letter-spacing:0px;word-spacing:0px;writing-mode:lr-tb;text-anchor:start;fill:#ff0000;fill-opacity:1;stroke:none;font-family:Fira Sans;-inkscape-font-specification:Fira Sans Italic"
       x="165.0004"
       y="115.38889"
       id="text5228"
       sodipodi:linespacing="125%"><tspan
         style="fill:#000000"
         sodipodi:role="line"
         id="tspan5230"
         x="165.0004"
         y="115.38889">L</tspan></text>
  </g>
  <g
     inkscape:groupmode="layer"
     id="layer3"
     inkscape:label="Layer#1"
     style="display:inline">
    <path
       style="fill:none;stroke:#000000;stroke-width:1;stroke-linecap:butt;stroke-linejoin:miter;stroke-miterlimit:4;stroke-opacity:1;stroke-dasharray:6, 6;stroke-dashoffset:0"
       d="m 76.785714,124.40476 0,-100.892855"
       id="path3369"
       inkscape:connector-curvature="0"
       sodipodi:nodetypes="cc"
       transform="scale(0.8,0.8)" />
    <path
       sodipodi:nodetypes="cc"
       inkscape:connector-curvature="0"
       id="path4152"
       d="m 139.82857,99.523808 0,-80.714284"
       style="fill:none;stroke:#000000;stroke-width:0.80000001;stroke-linecap:butt;stroke-linejoin:miter;stroke-miterlimit:4;stroke-opacity:1;stroke-dasharray:4.8, 4.8;stroke-dashoffset:0" />
    <path
       inkscape:connector-curvature="0"
       style="fill:none;stroke:#000000;stroke-width:0.80000001;stroke-linecap:butt;stroke-linejoin:miter;stroke-dasharray:none;display:inline"
       d="m 60.6816,99.375 80.0004,0"
       id="path4163-8" />
    <path
       inkscape:connector-curvature="0"
       style="fill:#000000;fill-rule:nonzero;stroke:none;display:inline"
       d="m 103.382,99.375 -5.3996,-2.1602 0,4.3202 5.3996,-2.16"
       id="path4165-2" />
    <text
       xml:space="preserve"
       style="font-size:12.80000019px;font-style:italic;font-variant:normal;font-weight:normal;font-stretch:normal;text-align:start;line-height:125%;letter-spacing:0px;word-spacing:0px;writing-mode:lr-tb;text-anchor:start;fill:#000000;fill-opacity:1;stroke:none;display:inline;font-family:Fira Sans;-inkscape-font-specification:Fira Sans Italic"
       x="94.173759"
       y="112.86987"
       id="text4335-1"
       sodipodi:linespacing="125%"><tspan
         sodipodi:role="line"
         id="tspan4337-3"
         x="94.173759"
         y="112.86987">Ψ=<tspan
   style="font-style:normal;-inkscape-font-specification:Fira Sans"
   id="tspan4241"><tspan
     style="font-weight:bold;-inkscape-font-specification:Fira Sans Bold"
     id="tspan4243">1, 3 </tspan></tspan></tspan></text>
    <text
       xml:space="preserve"
       style="font-size:12.80000019px;font-style:italic;font-variant:normal;font-weight:normal;font-stretch:normal;text-align:start;line-height:125%;letter-spacing:0px;word-spacing:0px;writing-mode:lr-tb;text-anchor:start;fill:#ff0000;fill-opacity:1;stroke:none;display:inline;font-family:Fira Sans;-inkscape-font-specification:Fira Sans Italic"
       x="56.200367"
       y="12.988896"
       id="text6457-2"
       sodipodi:linespacing="125%"><tspan
         style="fill:#000000"
         sodipodi:role="line"
         id="tspan6459-2"
         x="56.200367"
         y="12.988896">H</tspan></text>
    <text
       sodipodi:linespacing="125%"
       id="text6461-2"
       y="12.988896"
       x="136.59709"
       style="font-size:12.80000019px;font-style:italic;font-variant:normal;font-weight:normal;font-stretch:normal;text-align:start;line-height:125%;letter-spacing:0px;word-spacing:0px;writing-mode:lr-tb;text-anchor:start;fill:#ff0000;fill-opacity:1;stroke:none;display:inline;font-family:Fira Sans;-inkscape-font-specification:Fira Sans Italic"
       xml:space="preserve"><tspan
         y="12.988896"
         x="136.59709"
         id="tspan6463-9"
         sodipodi:role="line"
         style="fill:#000000">H</tspan></text>
  </g>
  <g
     inkscape:groupmode="layer"
     id="layer4"
     inkscape:label="Layer#2"
     style="display:none">
    <path
       style="fill:none;stroke:#ff0000;stroke-width:0.80000001;stroke-linecap:butt;stroke-linejoin:miter;stroke-miterlimit:4;stroke-opacity:1;stroke-dasharray:4.8, 4.8;stroke-dashoffset:0;display:inline"
       d="m 61.428571,99.523808 0,-80.714288"
       id="path3369-7"
       inkscape:connector-curvature="0"
       sodipodi:nodetypes="cc" />
    <path
       sodipodi:nodetypes="cc"
       inkscape:connector-curvature="0"
       id="path4152-9"
       d="m 139.82857,99.523808 0,-80.714288"
       style="fill:none;stroke:#ff0000;stroke-width:0.80000001;stroke-linecap:butt;stroke-linejoin:miter;stroke-miterlimit:4;stroke-opacity:1;stroke-dasharray:4.8, 4.8;stroke-dashoffset:0;display:inline" />
    <path
       inkscape:connector-curvature="0"
       style="fill:none;stroke:#ff0000;stroke-width:0.80000001;stroke-linecap:butt;stroke-linejoin:miter;stroke-dasharray:none;display:inline"
       d="m 60.6816,99.375 80.0004,0"
       id="path4163-8-5" />
    <path
       inkscape:connector-curvature="0"
       style="fill:#ff0000;fill-rule:nonzero;stroke:#ff0000;display:inline"
       d="m 103.382,99.375 -5.3996,-2.160204 0,4.320204 5.3996,-2.16"
       id="path4165-2-4" />
    <path
       inkscape:connector-curvature="0"
       style="fill:#ff0000;fill-rule:evenodd;stroke:none;display:inline"
       d="m 53.9346,49.1113 c 0,-0.1093 -0.0821,-0.1093 -0.1172,-0.1093 -0.1094,0 -0.1211,0.0234 -0.168,0.2265 l -0.6445,2.5625 c -0.0352,0.1563 -0.0469,0.168 -0.0586,0.1797 -0.0117,0.0234 -0.0938,0.0352 -0.1211,0.0352 -1.9531,0.1679 -3.457,1.7773 -3.457,3.2656 0,1.289 0.9922,2.0742 2.2304,2.1484 -0.0937,0.3672 -0.1797,0.75 -0.2734,1.1172 -0.168,0.6328 -0.2617,1.0274 -0.2617,1.0742 0,0.0235 0,0.0977 0.1172,0.0977 0.0351,0 0.0859,0 0.1093,-0.0508 0.0235,-0.0234 0.0938,-0.3086 0.1407,-0.4648 l 0.4414,-1.7735 c 2.039,-0.1094 3.5898,-1.7773 3.5898,-3.2812 0,-1.2032 -0.9062,-2.0625 -2.2305,-2.1446 l 0.7032,-2.8828 z m -0.7735,3.1211 c 0.7852,0.0469 1.5743,0.4883 1.5743,1.6563 0,1.3476 -0.9415,3.1367 -2.8008,3.2812 l 1.2265,-4.9375 z m -1.5039,4.9492 c -0.582,-0.039 -1.5586,-0.3476 -1.5586,-1.6601 0,-1.5 1.0821,-3.168 2.8008,-3.2774 l -1.2422,4.9375 z"
       id="path4209-7" />
    <path
       inkscape:connector-curvature="0"
       style="fill:#ff0000;fill-rule:evenodd;stroke:none;display:inline"
       d="m 151.443,49.1113 c 0,-0.1093 -0.082,-0.1093 -0.117,-0.1093 -0.109,0 -0.121,0.0234 -0.168,0.2265 l -0.645,2.5625 c -0.035,0.1563 -0.046,0.168 -0.058,0.1797 -0.012,0.0234 -0.094,0.0352 -0.121,0.0352 -1.953,0.1679 -3.457,1.7773 -3.457,3.2656 0,1.289 0.992,2.0742 2.23,2.1484 -0.094,0.3672 -0.179,0.75 -0.273,1.1172 -0.168,0.6328 -0.262,1.0274 -0.262,1.0742 0,0.0235 0,0.0977 0.117,0.0977 0.035,0 0.086,0 0.11,-0.0508 0.023,-0.0234 0.093,-0.3086 0.14,-0.4648 l 0.442,-1.7735 c 2.039,-0.1094 3.59,-1.7773 3.59,-3.2812 0,-1.2032 -0.907,-2.0625 -2.231,-2.1446 l 0.703,-2.8828 z m -0.773,3.1211 c 0.785,0.0469 1.574,0.4883 1.574,1.6563 0,1.3476 -0.941,3.1367 -2.801,3.2812 l 1.227,-4.9375 z m -1.504,4.9492 c -0.582,-0.039 -1.559,-0.3476 -1.559,-1.6601 0,-1.5 1.082,-3.168 2.801,-3.2774 l -1.242,4.9375 z"
       id="path4211-9" />
    <path
       inkscape:connector-curvature="0"
       style="fill:#ff0000;fill-rule:evenodd;stroke:none;display:inline"
       d="m 155.358,49.1719 c 0.039,-0.1055 0.071,-0.1602 0.071,-0.2383 0,-0.2617 -0.239,-0.4375 -0.461,-0.4375 -0.317,0 -0.407,0.2773 -0.438,0.3867 l -1.012,3.4258 c -0.031,0.0976 -0.031,0.1211 -0.031,0.1289 0,0.0703 0.047,0.0859 0.129,0.1094 0.141,0.0664 0.156,0.0664 0.176,0.0664 0.023,0 0.07,0 0.125,-0.1367 l 1.441,-3.3047 z"
       id="path4213-0" />
    <text
       xml:space="preserve"
       style="font-size:12.80000019px;font-style:italic;font-variant:normal;font-weight:normal;font-stretch:normal;text-align:start;line-height:125%;letter-spacing:0px;word-spacing:0px;writing-mode:lr-tb;text-anchor:start;fill:#ff0000;fill-opacity:1;stroke:none;display:inline;font-family:Fira Sans;-inkscape-font-specification:Fira Sans Italic"
       x="94.173759"
       y="112.86987"
       id="text4335-1-9"
       sodipodi:linespacing="125%"><tspan
         sodipodi:role="line"
         id="tspan4337-3-0"
         x="94.173759"
         y="112.86987">Ψ=<tspan
   style="font-style:normal;fill:#ff0000;-inkscape-font-specification:Fira Sans"
   id="tspan4241-8"><tspan
     style="font-weight:bold;fill:#ff0000;-inkscape-font-specification:Fira Sans Bold"
     id="tspan4243-0">1, 2, 3 </tspan></tspan></tspan></text>
    <text
       xml:space="preserve"
       style="font-size:40px;font-style:normal;font-variant:normal;font-weight:normal;font-stretch:normal;text-align:start;line-height:125%;letter-spacing:0px;word-spacing:0px;writing-mode:lr-tb;text-anchor:start;fill:#000000;fill-opacity:1;stroke:none;font-family:Fira Sans;-inkscape-font-specification:Fira Sans"
       x="197.61905"
       y="69.345238"
       id="text4324"
       sodipodi:linespacing="125%"
       transform="scale(0.8,0.8)"><tspan
         sodipodi:role="line"
         id="tspan4326"
         x="197.61905"
         y="69.345238"></tspan></text>
    <text
       sodipodi:linespacing="125%"
       id="text4328"
       y="59.536541"
       x="85.926094"
       style="font-size:12.80000019px;font-style:italic;font-variant:normal;font-weight:normal;font-stretch:normal;text-align:start;line-height:125%;letter-spacing:0px;word-spacing:0px;writing-mode:lr-tb;text-anchor:start;fill:#ff0000;fill-opacity:1;stroke:none;display:inline;font-family:Fira Sans;-inkscape-font-specification:Fira Sans Italic"
       xml:space="preserve"><tspan
         y="59.536541"
         x="85.926094"
         id="tspan4330"
         sodipodi:role="line">Z<tspan
   style="font-size:52.00042725%;font-style:normal;baseline-shift:sub;-inkscape-font-specification:Fira Sans"
   id="tspan4336">2</tspan><tspan
   style="font-style:normal;-inkscape-font-specification:Fira Sans"
   id="tspan4340">                  = </tspan><tspan
   id="tspan4332"
   style="font-style:normal;font-weight:bold;fill:#ff0000;-inkscape-font-specification:Fira Sans Bold">1, 2, 3 </tspan></tspan></text>
    <path
       inkscape:connector-curvature="0"
       style="fill:none;stroke:#000000;stroke-width:0.80000001;stroke-linecap:butt;stroke-linejoin:miter;stroke-dasharray:3, 3;stroke-dashoffset:0;display:inline"
       d="m 0.681641,19.375 59.6,0"
       id="path4183-8"
       sodipodi:nodetypes="cc" />
    <path
       inkscape:connector-curvature="0"
       style="fill:none;stroke:#000000;stroke-width:0.80000001;stroke-linecap:butt;stroke-linejoin:miter;stroke-dasharray:3, 3;stroke-dashoffset:0;display:inline"
       d="m 200.682,19.375 -61.2,0"
       id="path4189-7"
       sodipodi:nodetypes="cc" />
    <text
       xml:space="preserve"
       style="font-size:12.80000019px;font-style:italic;font-variant:normal;font-weight:normal;font-stretch:normal;text-align:start;line-height:125%;letter-spacing:0px;word-spacing:0px;writing-mode:lr-tb;text-anchor:start;fill:#ff0000;fill-opacity:1;stroke:none;display:inline;font-family:Fira Sans;-inkscape-font-specification:Fira Sans Italic"
       x="56.200367"
       y="12.988896"
       id="text6457-3"
       sodipodi:linespacing="125%"><tspan
         style="fill:#000000"
         sodipodi:role="line"
         id="tspan6459-1"
         x="56.200367"
         y="12.988896">H</tspan></text>
    <text
       sodipodi:linespacing="125%"
       id="text6461-4"
       y="12.988896"
       x="136.59709"
       style="font-size:12.80000019px;font-style:italic;font-variant:normal;font-weight:normal;font-stretch:normal;text-align:start;line-height:125%;letter-spacing:0px;word-spacing:0px;writing-mode:lr-tb;text-anchor:start;fill:#ff0000;fill-opacity:1;stroke:none;display:inline;font-family:Fira Sans;-inkscape-font-specification:Fira Sans Italic"
       xml:space="preserve"><tspan
         y="12.988896"
         x="136.59709"
         id="tspan6463-5"
         sodipodi:role="line"
         style="fill:#000000">H</tspan></text>
  </g>
  <g
     inkscape:groupmode="layer"
     id="layer2"
     inkscape:label="over"
     style="display:none">
    <path
       inkscape:connector-curvature="0"
       style="fill:none;stroke:#ff0000;stroke-width:0.80000001;stroke-linecap:butt;stroke-linejoin:miter;stroke-dasharray:none;display:inline"
       d="m 60.6816,99.375 80.0004,0"
       id="path4163" />
    <path
       inkscape:connector-curvature="0"
       style="fill:#000000;fill-rule:nonzero;stroke:none;display:inline"
       d="m 103.382,99.375 -5.399599,-2.1602 0,4.3202 5.399599,-2.16"
       id="path4165" />
    <path
       inkscape:connector-curvature="0"
       style="fill:none;stroke:#ff0000;stroke-width:0.80000001;stroke-linecap:butt;stroke-linejoin:miter;stroke-dasharray:4, 4;stroke-dashoffset:0;display:inline"
       d="m 100.682,19.375 -20.000399,40"
       id="path4171" />
    <path
       inkscape:connector-curvature="0"
       style="fill:none;stroke:#ff0000;stroke-width:0.80000001;stroke-linecap:butt;stroke-linejoin:miter;stroke-dasharray:4, 4;stroke-dashoffset:0;display:inline"
       d="m 80.681601,59.375 -20.000001,40"
       id="path4173" />
    <path
       inkscape:connector-curvature="0"
       style="fill:none;stroke:#000000;stroke-width:0.80000001;stroke-linecap:butt;stroke-linejoin:miter;stroke-dasharray:4, 4;stroke-dashoffset:0;display:inline"
       d="m 140.682,99.375 -20,-40"
       id="path4177" />
    <path
       inkscape:connector-curvature="0"
       style="fill:none;stroke:#000000;stroke-width:0.80000001;stroke-linecap:butt;stroke-linejoin:miter;stroke-dasharray:4, 4;stroke-dashoffset:0;display:inline"
       d="m 120.682,59.375 -20,-40"
       id="path4179" />
    <path
       inkscape:connector-curvature="0"
       style="fill:#000000;fill-rule:nonzero;stroke:none;display:inline"
       d="m 119.475,56.96 0.482,5.7959 3.864,-1.9317 -4.346,-3.8642"
       id="path4181" />
    <path
       inkscape:connector-curvature="0"
       style="fill:none;stroke:#000000;stroke-width:0.80000001;stroke-linecap:butt;stroke-linejoin:miter;stroke-dasharray:3, 3;stroke-dashoffset:0;display:inline"
       d="m 0.681641,19.375 50,0"
       id="path4183" />
    <path
       inkscape:connector-curvature="0"
       style="fill:none;stroke:#000000;stroke-width:0.80000001;stroke-linecap:butt;stroke-linejoin:miter;stroke-dasharray:3, 3;stroke-dashoffset:0;display:inline"
       d="m 50.6816,19.375 50.0004,0"
       id="path4185" />
    <path
       inkscape:connector-curvature="0"
       style="fill:#000000;fill-rule:nonzero;stroke:none;display:inline"
       d="m 53.3818,19.375 -5.3994,-2.1602 0,4.3204 5.3994,-2.1602"
       id="path4187" />
    <path
       inkscape:connector-curvature="0"
       style="fill:none;stroke:#000000;stroke-width:0.80000001;stroke-linecap:butt;stroke-linejoin:miter;stroke-dasharray:3, 3;stroke-dashoffset:0;display:inline"
       d="m 200.682,19.375 -50,0"
       id="path4189" />
    <path
       inkscape:connector-curvature="0"
       style="fill:none;stroke:#000000;stroke-width:0.80000001;stroke-linecap:butt;stroke-linejoin:miter;stroke-dasharray:3, 3;stroke-dashoffset:0;display:inline"
       d="m 150.682,19.375 -50,0"
       id="path4191" />
    <path
       inkscape:connector-curvature="0"
       style="fill:#000000;fill-rule:nonzero;stroke:none;display:inline"
       d="m 147.982,19.375 5.4,2.1602 0,-4.3204 -5.4,2.1602"
       id="path4193" />
    <text
       xml:space="preserve"
       style="font-size:12.80000019px;font-style:italic;font-variant:normal;font-weight:normal;font-stretch:normal;text-align:start;line-height:125%;letter-spacing:0px;word-spacing:0px;writing-mode:lr-tb;text-anchor:start;fill:#ff0000;fill-opacity:1;stroke:none;display:inline;font-family:Fira Sans;-inkscape-font-specification:Fira Sans Italic"
       x="56.200367"
       y="12.988896"
       id="text6457"
       sodipodi:linespacing="125%"><tspan
         style="fill:#000000"
         sodipodi:role="line"
         id="tspan6459"
         x="56.200367"
         y="12.988896">H</tspan></text>
    <text
       sodipodi:linespacing="125%"
       id="text6461"
       y="12.988896"
       x="136.59709"
       style="font-size:12.80000019px;font-style:italic;font-variant:normal;font-weight:normal;font-stretch:normal;text-align:start;line-height:125%;letter-spacing:0px;word-spacing:0px;writing-mode:lr-tb;text-anchor:start;fill:#ff0000;fill-opacity:1;stroke:none;display:inline;font-family:Fira Sans;-inkscape-font-specification:Fira Sans Italic"
       xml:space="preserve"><tspan
         y="12.988896"
         x="136.59709"
         id="tspan6463"
         sodipodi:role="line"
         style="fill:#000000">H</tspan></text>
    <text
       xml:space="preserve"
       style="font-size:12.80000019px;font-style:italic;font-variant:normal;font-weight:normal;font-stretch:normal;text-align:start;line-height:125%;letter-spacing:0px;word-spacing:0px;writing-mode:lr-tb;text-anchor:start;fill:#ff0000;fill-opacity:1;stroke:none;display:inline;font-family:Fira Sans;-inkscape-font-specification:Fira Sans Italic"
       x="94.173759"
       y="112.86987"
       id="text4335"
       sodipodi:linespacing="125%"><tspan
         sodipodi:role="line"
         id="tspan4337"
         x="94.173759"
         y="112.86987">Ψ<tspan
   style="font-size:12.80000019px;font-style:normal;baseline-shift:super;fill:#ff0000;-inkscape-font-specification:Fira Sans"
   id="tspan4339" /></tspan></text>
    <path
       inkscape:connector-curvature="0"
       style="fill:#000000;fill-rule:nonzero;stroke:none;display:inline"
       d="M 79.4746,61.79 83.8213,57.9258 79.957,55.9941 79.4746,61.79"
       id="path4175" />
    <path
       inkscape:connector-curvature="0"
       style="fill:#ff0000;fill-rule:evenodd;stroke:none;display:inline"
       d="m 61.9346,49.1113 c 0,-0.1093 -0.0821,-0.1093 -0.1172,-0.1093 -0.1094,0 -0.1211,0.0234 -0.168,0.2265 l -0.6445,2.5625 c -0.0352,0.1563 -0.0469,0.168 -0.0586,0.1797 -0.0117,0.0234 -0.0938,0.0352 -0.1211,0.0352 -1.9531,0.1679 -3.457,1.7773 -3.457,3.2656 0,1.289 0.9922,2.0742 2.2304,2.1484 -0.0937,0.3672 -0.1797,0.75 -0.2734,1.1172 -0.168,0.6328 -0.2617,1.0274 -0.2617,1.0742 0,0.0235 0,0.0977 0.1172,0.0977 0.0351,0 0.0859,0 0.1093,-0.0508 0.0235,-0.0234 0.0938,-0.3086 0.1407,-0.4648 l 0.4414,-1.7735 c 2.039,-0.1094 3.5898,-1.7773 3.5898,-3.2812 0,-1.2032 -0.9062,-2.0625 -2.2305,-2.1446 l 0.7032,-2.8828 z m -0.7735,3.1211 c 0.7852,0.0469 1.5743,0.4883 1.5743,1.6563 0,1.3476 -0.9415,3.1367 -2.8008,3.2812 l 1.2265,-4.9375 z m -1.5039,4.9492 c -0.582,-0.039 -1.5586,-0.3476 -1.5586,-1.6601 0,-1.5 1.0821,-3.168 2.8008,-3.2774 l -1.2422,4.9375 z"
       id="path4209" />
    <path
       inkscape:connector-curvature="0"
       style="fill:#ff0000;fill-rule:evenodd;stroke:none;display:inline"
       d="m 140.243,49.1113 c 0,-0.1093 -0.082,-0.1093 -0.117,-0.1093 -0.109,0 -0.121,0.0234 -0.168,0.2265 l -0.645,2.5625 c -0.035,0.1563 -0.046,0.168 -0.058,0.1797 -0.012,0.0234 -0.094,0.0352 -0.121,0.0352 -1.953,0.1679 -3.457,1.7773 -3.457,3.2656 0,1.289 0.992,2.0742 2.23,2.1484 -0.094,0.3672 -0.179,0.75 -0.273,1.1172 -0.168,0.6328 -0.262,1.0274 -0.262,1.0742 0,0.0235 0,0.0977 0.117,0.0977 0.035,0 0.086,0 0.11,-0.0508 0.023,-0.0234 0.093,-0.3086 0.14,-0.4648 l 0.442,-1.7735 c 2.039,-0.1094 3.59,-1.7773 3.59,-3.2812 0,-1.2032 -0.907,-2.0625 -2.231,-2.1446 l 0.703,-2.8828 z m -0.773,3.1211 c 0.785,0.0469 1.574,0.4883 1.574,1.6563 0,1.3476 -0.941,3.1367 -2.801,3.2812 l 1.227,-4.9375 z m -1.504,4.9492 c -0.582,-0.039 -1.559,-0.3476 -1.559,-1.6601 0,-1.5 1.082,-3.168 2.801,-3.2774 l -1.242,4.9375 z"
       id="path4211" />
    <path
       inkscape:connector-curvature="0"
       style="fill:#ff0000;fill-rule:evenodd;stroke:none;display:inline"
       d="m 144.158,49.1719 c 0.039,-0.1055 0.071,-0.1602 0.071,-0.2383 0,-0.2617 -0.239,-0.4375 -0.461,-0.4375 -0.317,0 -0.407,0.2773 -0.438,0.3867 l -1.012,3.4258 c -0.031,0.0976 -0.031,0.1211 -0.031,0.1289 0,0.0703 0.047,0.0859 0.129,0.1094 0.141,0.0664 0.156,0.0664 0.176,0.0664 0.023,0 0.07,0 0.125,-0.1367 l 1.441,-3.3047 z"
       id="path4213" />
  </g>
</svg>
