<?xml version="1.0" encoding="UTF-8" standalone="no"?>
<!-- Created with Inkscape (http://www.inkscape.org/) -->

<svg
   xmlns:dc="http://purl.org/dc/elements/1.1/"
   xmlns:cc="http://creativecommons.org/ns#"
   xmlns:rdf="http://www.w3.org/1999/02/22-rdf-syntax-ns#"
   xmlns:svg="http://www.w3.org/2000/svg"
   xmlns="http://www.w3.org/2000/svg"
   xmlns:sodipodi="http://sodipodi.sourceforge.net/DTD/sodipodi-0.dtd"
   xmlns:inkscape="http://www.inkscape.org/namespaces/inkscape"
   width="1024"
   height="768"
   id="svg2"
   version="1.1"
   inkscape:version="0.48.4 r9939"
   sodipodi:docname="quark.svg">
  <defs
     id="defs4" />
  <sodipodi:namedview
     id="base"
     pagecolor="#ffffff"
     bordercolor="#666666"
     borderopacity="1.0"
     inkscape:pageopacity="0.0"
     inkscape:pageshadow="2"
     inkscape:zoom="0.77734375"
     inkscape:cx="525.09041"
     inkscape:cy="435.45729"
     inkscape:document-units="px"
     inkscape:current-layer="layer2"
     showgrid="false"
     width="1024px"
     inkscape:window-width="1366"
     inkscape:window-height="744"
     inkscape:window-x="0"
     inkscape:window-y="24"
     inkscape:window-maximized="1" />
  <metadata
     id="metadata7">
    <rdf:RDF>
      <cc:Work
         rdf:about="">
        <dc:format>image/svg+xml</dc:format>
        <dc:type
           rdf:resource="http://purl.org/dc/dcmitype/StillImage" />
        <dc:title></dc:title>
      </cc:Work>
    </rdf:RDF>
  </metadata>
  <g
     inkscape:label="Layer 1"
     inkscape:groupmode="layer"
     id="layer1"
     transform="translate(0,-284.36218)"
     style="display:inline">
    <path
       sodipodi:type="arc"
       style="fill:#cccccc;fill-rule:evenodd;stroke:#000000;stroke-width:1px;stroke-linecap:butt;stroke-linejoin:miter;stroke-opacity:1"
       id="path2985"
       sodipodi:cx="372.42212"
       sodipodi:cy="281.08542"
       sodipodi:rx="196.18091"
       sodipodi:ry="193.60805"
       d="m 568.60303,281.08542 a 196.18091,193.60805 0 1 1 -392.36182,0 196.18091,193.60805 0 1 1 392.36182,0 z"
       transform="translate(-129.92965,394.99535)" />
    <text
       xml:space="preserve"
       style="font-size:56px;font-style:italic;font-variant:normal;font-weight:normal;font-stretch:normal;text-align:start;line-height:125%;letter-spacing:0px;word-spacing:0px;writing-mode:lr-tb;text-anchor:start;fill:#000000;fill-opacity:1;stroke:none;font-family:Times New Roman;-inkscape-font-specification:'Times New Roman, Italic'"
       x="537.72864"
       y="111.9196"
       id="text2987"
       sodipodi:linespacing="125%"
       transform="translate(0,284.36218)"><tspan
         sodipodi:role="line"
         id="tspan2989"
         x="537.72864"
         y="111.9196"
         style="font-size:56px;font-style:italic;font-variant:normal;font-weight:normal;font-stretch:normal;text-align:start;line-height:125%;writing-mode:lr-tb;text-anchor:start;font-family:Times New Roman;-inkscape-font-specification:'Times New Roman, Italic'">m<tspan
   style="font-size:65.00091553%;baseline-shift:sub"
   id="tspan2994">p</tspan>=<tspan
   style="font-style:normal;-inkscape-font-specification:'Times New Roman,'"
   id="tspan2996">1000 MeV</tspan>/c<tspan
   style="font-size:65.00091553%;font-style:normal;baseline-shift:super;-inkscape-font-specification:'Times New Roman,'"
   id="tspan2998">2</tspan></tspan></text>
    <text
       xml:space="preserve"
       style="font-size:56px;font-style:italic;font-variant:normal;font-weight:normal;font-stretch:normal;text-align:start;line-height:125%;letter-spacing:0px;word-spacing:0px;writing-mode:lr-tb;text-anchor:start;fill:#000000;fill-opacity:1;stroke:none;font-family:Times New Roman;-inkscape-font-specification:'Times New Roman, Italic'"
       x="459.25629"
       y="258.57285"
       id="text3000"
       sodipodi:linespacing="125%"
       transform="translate(0,284.36218)"><tspan
         sodipodi:role="line"
         id="tspan3002"
         x="459.25629"
         y="258.57285" /></text>
    <text
       xml:space="preserve"
       style="font-size:56px;font-style:italic;font-variant:normal;font-weight:normal;font-stretch:normal;text-align:start;line-height:125%;letter-spacing:0px;word-spacing:0px;writing-mode:lr-tb;text-anchor:start;fill:#000000;fill-opacity:1;stroke:none;font-family:Times New Roman;-inkscape-font-specification:'Times New Roman, Italic'"
       x="706.25128"
       y="376.92462"
       id="text3052"
       sodipodi:linespacing="125%"
       transform="translate(0,284.36218)"><tspan
         sodipodi:role="line"
         id="tspan3054"
         x="706.25128"
         y="376.92462">  </tspan></text>
    <path
       sodipodi:type="arc"
       style="fill:#ff0000"
       id="path3058"
       sodipodi:cx="138.29146"
       sodipodi:cy="140.2211"
       sodipodi:rx="14.79397"
       sodipodi:ry="16.723618"
       d="m 153.08543,140.2211 a 14.79397,16.723618 0 1 1 -29.58794,0 14.79397,16.723618 0 1 1 29.58794,0 z"
       transform="matrix(0.84493884,0,0,0.74744594,120.7778,459.07459)" />
    <path
       transform="matrix(0.84493884,0,0,0.74744594,18.7778,657.07459)"
       d="m 153.08543,140.2211 a 14.79397,16.723618 0 1 1 -29.58794,0 14.79397,16.723618 0 1 1 29.58794,0 z"
       sodipodi:ry="16.723618"
       sodipodi:rx="14.79397"
       sodipodi:cy="140.2211"
       sodipodi:cx="138.29146"
       id="path3060"
       style="fill:#008000"
       sodipodi:type="arc" />
    <path
       sodipodi:type="arc"
       style="fill:#0000ff"
       id="path3062"
       sodipodi:cx="138.29146"
       sodipodi:cy="140.2211"
       sodipodi:rx="14.79397"
       sodipodi:ry="16.723618"
       d="m 153.08543,140.2211 a 14.79397,16.723618 0 1 1 -29.58794,0 14.79397,16.723618 0 1 1 29.58794,0 z"
       transform="matrix(0.84493884,0,0,0.74744594,224.7778,657.07459)" />
  </g>
  <g
     inkscape:groupmode="layer"
     id="layer2"
     inkscape:label="Layer"
     style="display:none">
    <text
       transform="translate(0,-284.36218)"
       xml:space="preserve"
       style="font-size:56px;font-style:italic;font-variant:normal;font-weight:normal;font-stretch:normal;text-align:start;line-height:125%;letter-spacing:0px;word-spacing:0px;writing-mode:lr-tb;text-anchor:start;fill:#000000;fill-opacity:1;stroke:none;display:inline;font-family:Times New Roman;-inkscape-font-specification:'Times New Roman, Italic'"
       x="479.77747"
       y="596.82141"
       id="text2987-7"
       sodipodi:linespacing="125%"><tspan
         sodipodi:role="line"
         id="tspan2989-1"
         x="479.77747"
         y="596.82141"
         style="font-size:56px;font-style:italic;font-variant:normal;font-weight:normal;font-stretch:normal;text-align:start;line-height:125%;writing-mode:lr-tb;text-anchor:start;font-family:Times New Roman;-inkscape-font-specification:'Times New Roman, Italic'">m<tspan
   style="font-size:65.00091553%;baseline-shift:sub"
   id="tspan2994-4">u</tspan>+m<tspan
   style="font-size:65.00091553%;baseline-shift:sub"
   id="tspan3034">u</tspan>+m<tspan
   style="font-size:65.00091553%;baseline-shift:sub"
   id="tspan3038">d</tspan>=<tspan
   style="font-style:normal;-inkscape-font-specification:'Times New Roman,'"
   id="tspan2996-7">10 MeV</tspan>/c<tspan
   style="font-size:65.00091553%;font-style:normal;baseline-shift:super;-inkscape-font-specification:'Times New Roman,'"
   id="tspan2998-3">2 </tspan></tspan><tspan
         sodipodi:role="line"
         x="479.77747"
         y="666.82141"
         style="font-size:56px;font-style:italic;font-variant:normal;font-weight:normal;font-stretch:normal;text-align:start;line-height:125%;writing-mode:lr-tb;text-anchor:start;font-family:Times New Roman;-inkscape-font-specification:'Times New Roman, Italic'"
         id="tspan3044">                  =<tspan
   style="font-style:normal;-inkscape-font-specification:'Times New Roman,'"
   id="tspan3046">1% </tspan>m<tspan
   style="font-size:65.00091553%;baseline-shift:sub"
   id="tspan3050">p</tspan></tspan></text>
    <path
       transform="matrix(0.50696331,0,0,0.44846756,241.20789,189.25608)"
       d="m 153.08543,140.2211 a 14.79397,16.723618 0 1 1 -29.58794,0 14.79397,16.723618 0 1 1 29.58794,0 z"
       sodipodi:ry="16.723618"
       sodipodi:rx="14.79397"
       sodipodi:cy="140.2211"
       sodipodi:cx="138.29146"
       id="path3074-3"
       style="fill:#4d4d4d;display:inline"
       sodipodi:type="arc" />
    <path
       transform="matrix(0.50696331,0,0,0.44846756,246.35362,272.87418)"
       d="m 153.08543,140.2211 a 14.79397,16.723618 0 1 1 -29.58794,0 14.79397,16.723618 0 1 1 29.58794,0 z"
       sodipodi:ry="16.723618"
       sodipodi:rx="14.79397"
       sodipodi:cy="140.2211"
       sodipodi:cx="138.29146"
       id="path3074-5"
       style="display:inline;fill:#4d4d4d"
       sodipodi:type="arc" />
    <path
       transform="matrix(0.50696331,0,0,0.44846756,46.956631,235.56765)"
       d="m 153.08543,140.2211 a 14.79397,16.723618 0 1 1 -29.58794,0 14.79397,16.723618 0 1 1 29.58794,0 z"
       sodipodi:ry="16.723618"
       sodipodi:rx="14.79397"
       sodipodi:cy="140.2211"
       sodipodi:cx="138.29146"
       id="path3074-1"
       style="display:inline;fill:#4d4d4d"
       sodipodi:type="arc" />
    <path
       transform="matrix(0.50696331,0,0,0.44846756,8.3636665,338.48222)"
       d="m 153.08543,140.2211 a 14.79397,16.723618 0 1 1 -29.58794,0 14.79397,16.723618 0 1 1 29.58794,0 z"
       sodipodi:ry="16.723618"
       sodipodi:rx="14.79397"
       sodipodi:cy="140.2211"
       sodipodi:cx="138.29146"
       id="path3074-4"
       style="display:inline;fill:#4d4d4d"
       sodipodi:type="arc" />
    <path
       transform="matrix(0.50696331,0,0,0.44846756,109.99181,312.75358)"
       d="m 153.08543,140.2211 a 14.79397,16.723618 0 1 1 -29.58794,0 14.79397,16.723618 0 1 1 29.58794,0 z"
       sodipodi:ry="16.723618"
       sodipodi:rx="14.79397"
       sodipodi:cy="140.2211"
       sodipodi:cx="138.29146"
       id="path3074"
       style="display:inline;fill:#4d4d4d"
       sodipodi:type="arc" />
    <path
       transform="matrix(0.50696331,0,0,0.44846756,183.31844,338.48222)"
       d="m 153.08543,140.2211 a 14.79397,16.723618 0 1 1 -29.58794,0 14.79397,16.723618 0 1 1 29.58794,0 z"
       sodipodi:ry="16.723618"
       sodipodi:rx="14.79397"
       sodipodi:cy="140.2211"
       sodipodi:cx="138.29146"
       id="path3074-62"
       style="display:inline;fill:#4d4d4d"
       sodipodi:type="arc" />
    <path
       transform="matrix(0.50696331,0,0,0.44846756,301.6702,330.76363)"
       d="m 153.08543,140.2211 a 14.79397,16.723618 0 1 1 -29.58794,0 14.79397,16.723618 0 1 1 29.58794,0 z"
       sodipodi:ry="16.723618"
       sodipodi:rx="14.79397"
       sodipodi:cy="140.2211"
       sodipodi:cx="138.29146"
       id="path3074-8"
       style="display:inline;fill:#4d4d4d"
       sodipodi:type="arc" />
    <path
       transform="matrix(0.50696331,0,0,0.44846756,188.46417,422.10031)"
       d="m 153.08543,140.2211 a 14.79397,16.723618 0 1 1 -29.58794,0 14.79397,16.723618 0 1 1 29.58794,0 z"
       sodipodi:ry="16.723618"
       sodipodi:rx="14.79397"
       sodipodi:cy="140.2211"
       sodipodi:cx="138.29146"
       id="path3074-9"
       style="display:inline;fill:#4d4d4d"
       sodipodi:type="arc" />
    <path
       transform="matrix(0.50696331,0,0,0.44846756,116.42397,477.41689)"
       d="m 153.08543,140.2211 a 14.79397,16.723618 0 1 1 -29.58794,0 14.79397,16.723618 0 1 1 29.58794,0 z"
       sodipodi:ry="16.723618"
       sodipodi:rx="14.79397"
       sodipodi:cy="140.2211"
       sodipodi:cx="138.29146"
       id="path3074-6"
       style="display:inline;fill:#4d4d4d"
       sodipodi:type="arc" />
    <path
       transform="matrix(0.50696331,0,0,0.44846756,250.21291,465.839)"
       d="m 153.08543,140.2211 a 14.79397,16.723618 0 1 1 -29.58794,0 14.79397,16.723618 0 1 1 29.58794,0 z"
       sodipodi:ry="16.723618"
       sodipodi:rx="14.79397"
       sodipodi:cy="140.2211"
       sodipodi:cx="138.29146"
       id="path3074-34"
       style="display:inline;fill:#4d4d4d"
       sodipodi:type="arc" />
  </g>
</svg>
