<?xml version="1.0" encoding="UTF-8" standalone="no"?>
<!-- Created with Inkscape (http://www.inkscape.org/) -->

<svg
   xmlns:dc="http://purl.org/dc/elements/1.1/"
   xmlns:cc="http://creativecommons.org/ns#"
   xmlns:rdf="http://www.w3.org/1999/02/22-rdf-syntax-ns#"
   xmlns:svg="http://www.w3.org/2000/svg"
   xmlns="http://www.w3.org/2000/svg"
   xmlns:sodipodi="http://sodipodi.sourceforge.net/DTD/sodipodi-0.dtd"
   xmlns:inkscape="http://www.inkscape.org/namespaces/inkscape"
   width="250.89795"
   height="149.01978"
   id="svg3061"
   version="1.1"
   inkscape:version="0.48.3.1 r9886"
   sodipodi:docname="rs.svg">
  <sodipodi:namedview
     id="base"
     pagecolor="#ffffff"
     bordercolor="#666666"
     borderopacity="1.0"
     inkscape:pageopacity="0.0"
     inkscape:pageshadow="2"
     inkscape:zoom="3.7444695"
     inkscape:cx="125.44897"
     inkscape:cy="74.509888"
     inkscape:document-units="px"
     inkscape:current-layer="layer1"
     showgrid="false"
     fit-margin-top="0"
     fit-margin-left="0"
     fit-margin-right="0"
     fit-margin-bottom="0"
     inkscape:window-width="1366"
     inkscape:window-height="720"
     inkscape:window-x="0"
     inkscape:window-y="24"
     inkscape:window-maximized="1" />
  <defs
     id="defs3063">
    <clipPath
       id="Clip0">
      <path
         inkscape:connector-curvature="0"
         id="path7"
         d="M 0,0 201,0 201,120 0,120 0,0 z" />
    </clipPath>
    <clipPath
       id="Clip1">
      <path
         inkscape:connector-curvature="0"
         id="path10"
         d="M 0,0 201,0 201,120 0,120 0,0 z" />
    </clipPath>
  </defs>
  <metadata
     id="metadata3066">
    <rdf:RDF>
      <cc:Work
         rdf:about="">
        <dc:format>image/svg+xml</dc:format>
        <dc:type
           rdf:resource="http://purl.org/dc/dcmitype/StillImage" />
        <dc:title />
      </cc:Work>
    </rdf:RDF>
  </metadata>
  <g
     inkscape:label="Layer 1"
     inkscape:groupmode="layer"
     id="layer1"
     transform="translate(-0.35205124,-902.56115)">
    <g
       transform="matrix(1.25,0,0,1.25,0,902.36218)"
       id="Background">
      <g
         clip-path="url(#Clip0)"
         id="Group1">
        <g
           clip-path="url(#Clip1)"
           id="Group2">
          <path
             inkscape:connector-curvature="0"
             id="path15"
             transform="translate(0.681641,99.375)"
             d="M 0,0 60,0"
             style="fill:none;stroke:#000000;stroke-width:0.80000001;stroke-linecap:butt;stroke-linejoin:miter;stroke-dasharray:none" />
          <path
             inkscape:connector-curvature="0"
             id="path17"
             transform="translate(27.9824,97.2148)"
             d="M 5.3994,2.1602 0,0 0,4.3202 5.3994,2.1602"
             style="fill:#000000;fill-rule:nonzero;stroke:none" />
          <path
             sodipodi:nodetypes="cccc"
             inkscape:connector-curvature="0"
             id="path19"
             transform="translate(60.6816,99.375)"
             d="M 0,0 20.0001,0 40.0002,0 80.0004,0"
             style="fill:none;stroke:#000000;stroke-width:0.80000001;stroke-linecap:butt;stroke-linejoin:miter;stroke-dasharray:none" />
          <path
             inkscape:connector-curvature="0"
             id="path21"
             d="m 115.5824,99.375 5.3996,-2.1602 0,4.3202 -5.3996,-2.16"
             style="fill:#000000;fill-rule:nonzero;stroke:none" />
          <path
             inkscape:connector-curvature="0"
             id="path23"
             transform="translate(140.682,99.375)"
             d="M 60,0 0,0"
             style="fill:none;stroke:#000000;stroke-width:0.80000001;stroke-linecap:butt;stroke-linejoin:miter;stroke-dasharray:none" />
          <path
             inkscape:connector-curvature="0"
             id="path25"
             transform="translate(167.982,97.2148)"
             d="M 0,2.1602 5.4,4.3202 5.4,0 0,2.1602"
             style="fill:#000000;fill-rule:nonzero;stroke:none" />
          <path
             inkscape:connector-curvature="0"
             id="path27"
             transform="translate(80.6816,19.375)"
             d="M 20.0004,0 0,40"
             style="fill:none;stroke:#000000;stroke-width:0.80000001;stroke-linecap:butt;stroke-linejoin:miter;stroke-dasharray:4, 4;stroke-dashoffset:0" />
          <path
             inkscape:connector-curvature="0"
             id="path29"
             transform="translate(60.6816,59.375)"
             d="M 20,0 0,40"
             style="fill:none;stroke:#000000;stroke-width:0.80000001;stroke-linecap:butt;stroke-linejoin:miter;stroke-dasharray:4, 4;stroke-dashoffset:0" />
          <path
             inkscape:connector-curvature="0"
             id="path31"
             transform="translate(79.4746,55.9941)"
             d="M 0,5.7959 4.3467,1.9317 0.4824,0 0,5.7959"
             style="fill:#000000;fill-rule:nonzero;stroke:none" />
          <path
             inkscape:connector-curvature="0"
             id="path33"
             transform="translate(120.682,59.375)"
             d="M 20,40 0,0"
             style="fill:none;stroke:#000000;stroke-width:0.80000001;stroke-linecap:butt;stroke-linejoin:miter;stroke-dasharray:4, 4;stroke-dashoffset:0" />
          <path
             inkscape:connector-curvature="0"
             id="path35"
             transform="translate(100.682,19.375)"
             d="M 20,40 0,0"
             style="fill:none;stroke:#000000;stroke-width:0.80000001;stroke-linecap:butt;stroke-linejoin:miter;stroke-dasharray:4, 4;stroke-dashoffset:0" />
          <path
             inkscape:connector-curvature="0"
             id="path37"
             transform="translate(119.475,56.96)"
             d="M 0,0 0.482,5.7959 4.346,3.8642 0,0"
             style="fill:#000000;fill-rule:nonzero;stroke:none" />
          <path
             inkscape:connector-curvature="0"
             id="path39"
             transform="translate(0.681641,19.375)"
             d="M 0,0 50,0"
             style="fill:none;stroke:#000000;stroke-width:0.80000001;stroke-linecap:butt;stroke-linejoin:miter;stroke-dasharray:3, 3;stroke-dashoffset:0" />
          <path
             inkscape:connector-curvature="0"
             id="path41"
             transform="translate(50.6816,19.375)"
             d="M 0,0 50.0004,0"
             style="fill:none;stroke:#000000;stroke-width:0.80000001;stroke-linecap:butt;stroke-linejoin:miter;stroke-dasharray:3, 3;stroke-dashoffset:0" />
          <path
             inkscape:connector-curvature="0"
             id="path43"
             transform="translate(47.9824,17.2148)"
             d="M 5.3994,2.1602 0,0 0,4.3204 5.3994,2.1602"
             style="fill:#000000;fill-rule:nonzero;stroke:none" />
          <path
             inkscape:connector-curvature="0"
             id="path45"
             transform="translate(150.682,19.375)"
             d="M 50,0 0,0"
             style="fill:none;stroke:#000000;stroke-width:0.80000001;stroke-linecap:butt;stroke-linejoin:miter;stroke-dasharray:3, 3;stroke-dashoffset:0" />
          <path
             inkscape:connector-curvature="0"
             id="path47"
             transform="translate(100.682,19.375)"
             d="M 50,0 0,0"
             style="fill:none;stroke:#000000;stroke-width:0.80000001;stroke-linecap:butt;stroke-linejoin:miter;stroke-dasharray:3, 3;stroke-dashoffset:0" />
          <path
             inkscape:connector-curvature="0"
             id="path49"
             transform="translate(147.982,17.2148)"
             d="M 0,2.1602 5.4,4.3204 5.4,0 0,2.1602"
             style="fill:#000000;fill-rule:nonzero;stroke:none" />
          <path
             inkscape:connector-curvature="0"
             id="path59"
             transform="translate(22.7656,114.117)"
             d="M 1.9883,0.121 C 1.9883,0.074 1.9532,0 1.8594,0 1.7735,0 0.6563,0.11 0.4766,0.121 c -0.1328,0.012 -0.25,0.024 -0.25,0.239 0,0.117 0.0937,0.117 0.2617,0.117 0.5586,0 0.5938,0.086 0.5938,0.215 0,0.046 -0.0235,0.191 -0.0352,0.238 L 0,5.137 c 0,0.051 0.0352,0.121 0.1172,0.121 l 0.25,0 c 0.168,0 1.9805,-0.43 3.375,-1.859 C 5.2813,1.813 5.4961,0.348 5.4961,0.301 5.4961,0.11 5.3399,0 5.1836,0 4.8399,0 4.7539,0.324 4.7305,0.406 4.0274,2.899 2.3946,4.375 0.8086,4.899 L 1.9883,0.121 z"
             style="fill:#000000;fill-rule:evenodd;stroke:none" />
          <path
             inkscape:connector-curvature="0"
             id="path61"
             transform="translate(172.21,114.117)"
             d="M 1.988,0.121 C 1.988,0.074 1.953,0 1.859,0 1.773,0 0.656,0.11 0.477,0.121 0.344,0.133 0.227,0.145 0.227,0.36 c 0,0.117 0.093,0.117 0.261,0.117 0.559,0 0.594,0.086 0.594,0.215 0,0.046 -0.023,0.191 -0.035,0.238 L 0,5.137 c 0,0.051 0.035,0.121 0.117,0.121 l 0.25,0 c 0.168,0 1.981,-0.43 3.375,-1.859 C 5.281,1.813 5.496,0.348 5.496,0.301 5.496,0.11 5.34,0 5.184,0 4.84,0 4.754,0.324 4.73,0.406 4.027,2.899 2.394,4.375 0.809,4.899 L 1.988,0.121 z"
             style="fill:#000000;fill-rule:evenodd;stroke:none" />
          <path
             inkscape:connector-curvature="0"
             style="fill:#000000;fill-rule:nonzero;stroke:none"
             d="m 84.182,99.375 -5.3996,-2.1602 0,4.3202 5.3996,-2.16"
             id="path3069" />
        </g>
      </g>
    </g>
    <g
       id="g3111"
       transform="matrix(1.25,0,0,1.25,44,902.86241)">
      <g
         word-spacing="normal"
         letter-spacing="normal"
         font-size-adjust="none"
         font-stretch="normal"
         font-weight="normal"
         font-variant="normal"
         font-style="normal"
         stroke-miterlimit="10.433"
         xml:space="preserve"
         transform="matrix(0.21428571,0,0,-0.21428571,-37.5,188.4375)"
         id="content"
         style="font-style:normal;font-variant:normal;font-weight:normal;font-stretch:normal;letter-spacing:normal;word-spacing:normal;text-anchor:start;fill:none;stroke:#000000;stroke-linecap:butt;stroke-linejoin:miter;stroke-miterlimit:10.43299961;stroke-opacity:1;stroke-dasharray:none;stroke-dashoffset:0"><path
           id="path3114"
           d="m 474.89,420.04 -9.95,9.92 c -0.61,0.6 -0.7,0.71 -1.11,0.71 -0.48,0 -0.98,-0.46 -0.98,-1 0,-0.36 0.09,-0.46 0.64,-1 l 9.97,-10.02 -9.97,-10.01 c -0.55,-0.55 -0.64,-0.64 -0.64,-1 0,-0.55 0.5,-0.99 0.98,-0.99 0.41,0 0.5,0.1 1.11,0.69 l 9.91,9.92 10.31,-10.31 c 0.11,-0.05 0.45,-0.3 0.75,-0.3 0.59,0 1,0.44 1,0.99 0,0.11 0,0.31 -0.16,0.56 -0.04,0.09 -7.96,7.92 -10.45,10.45 l 9.11,9.13 c 0.25,0.29 1,0.93 1.25,1.23 0.05,0.11 0.25,0.3 0.25,0.66 0,0.54 -0.41,1 -1,1 -0.39,0 -0.59,-0.21 -1.14,-0.75 z"
           inkscape:connector-curvature="0"
           style="fill:#000000;stroke-width:0" /></g>    </g>
    <g
       id="g3203">
      <g
         id="g3205"
         transform="matrix(0.2128854,0,0,-0.2128854,-37.254945,188.1734625)"
         xml:space="preserve"
         stroke="black"
         stroke-linecap="butt"
         stroke-linejoin="miter"
         stroke-miterlimit="10.433"
         stroke-dasharray="none"
         stroke-dashoffset="0"
         stroke-opacity="1"
         fill="none"
         fill-rule="evenodd"
         fill-opacity="1"
         font-style="normal"
         font-variant="normal"
         font-weight="normal"
         font-stretch="normal"
         font-size-adjust="none"
         letter-spacing="normal"
         word-spacing="normal"
         text-anchor="start"><path
           d="M466.68,427.67 L466.68,427.67 L466.68,427.67 L466.68,427.68 L466.68,427.69 L466.67,427.7 L466.67,427.72 L466.67,427.74 L466.67,427.75 L466.67,427.77 L466.66,427.79 L466.66,427.82 L466.65,427.84 L466.64,427.86 L466.63,427.89 L466.62,427.91 L466.61,427.93 L466.6,427.96 L466.58,427.98 L466.56,428.01 L466.54,428.03 L466.52,428.05 L466.51,428.07 L466.49,428.08 L466.48,428.09 L466.47,428.1 L466.45,428.11 L466.44,428.12 L466.42,428.13 L466.41,428.14 L466.39,428.14 L466.37,428.15 L466.35,428.16 L466.33,428.17 L466.31,428.18 L466.29,428.18 L466.27,428.19 L466.25,428.19 L466.22,428.2 L466.2,428.2 L466.17,428.21 L466.15,428.21 L466.12,428.21 L466.09,428.21 L466.06,428.21 L466.04,428.21 C464.88,428.21,461.25,427.82,459.96,427.71 C459.55,427.67,459,427.62,459,426.73 C459,426.12,459.46,426.12,460.21,426.12 C462.6,426.12,462.69,425.78,462.69,425.28 C462.69,424.93,462.1,422.59,461.75,421.25 L458.71,409.04 C458.5,408.29,458.16,406.9,458.16,406.79 C458.16,406.25,458.66,406.2,458.96,406.2 H459.66 C463.14,406.79,468.57,408.75,473.71,413.53 C480.29,419.65,481.63,426.43,481.63,426.87 C481.63,427.71,481.04,428.21,480.18,428.21 C479.79,428.21,478.63,428.03,478.24,426.57 C475.05,415.26,467.47,409.68,461.8,407.84 Z "
           stroke-width="0"
           fill="black"
           id="path3207" /></g>    </g>
    <g
       id="g3293">
      <g
         text-anchor="start"
         word-spacing="normal"
         letter-spacing="normal"
         font-size-adjust="none"
         font-stretch="normal"
         font-weight="normal"
         font-variant="normal"
         font-style="normal"
         fill-opacity="1"
         fill-rule="evenodd"
         fill="none"
         stroke-opacity="1"
         stroke-dashoffset="0"
         stroke-dasharray="none"
         stroke-miterlimit="10.433"
         stroke-linejoin="miter"
         stroke-linecap="butt"
         stroke="black"
         xml:space="preserve"
         transform="matrix(0.2128854,0,0,-0.2128854,-37.254945,188.1734625)"
         id="g3295"><path
           id="path3297"
           fill="black"
           stroke-width="0"
           d="M479.83,420 L479.88,420.16 L479.92,420.33 L479.96,420.48 L480,420.64 L480.04,420.8 L480.07,420.95 L480.1,421.11 L480.13,421.28 L480.15,421.45 L480.18,421.62 L480.19,421.71 L480.19,421.8 L480.2,421.9 L480.21,422 L480.22,422.1 L480.22,422.2 L480.23,422.3 L480.23,422.41 L480.23,422.53 L480.24,422.64 L480.24,422.76 L480.24,422.89 C480.24,426.12,478.24,428.21,474.5,428.21 C470.57,428.21,467.97,425.64,466.79,423.89 C466.54,426.73,464.44,428.21,462.19,428.21 C459.91,428.21,458.96,426.28,458.5,425.39 C457.61,423.68,456.96,420.7,456.96,420.54 C456.96,420.04,457.46,420.04,457.57,420.04 C458.07,420.04,458.11,420.11,458.41,421.2 C459.25,424.73,460.25,427.12,462.05,427.12 C462.89,427.12,463.6,426.73,463.6,424.84 C463.6,423.79,463.44,423.23,462.8,420.65 L459.91,409.14 C459.75,408.39,459.46,407.25,459.46,407 C459.46,406.11,460.16,405.65,460.89,405.65 C461.5,405.65,462.39,406.04,462.74,407.04 C462.8,407.15,463.39,409.48,463.69,410.73 L464.79,415.21 C465.08,416.31,465.38,417.4,465.63,418.56 C465.74,418.86,466.13,420.5,466.18,420.79 C466.33,421.25,467.88,424.04,469.57,425.39 C470.66,426.18,472.21,427.12,474.35,427.12 C476.49,427.12,477.04,425.43,477.04,423.64 C477.04,423.39,477.04,422.5,476.55,420.5 L470.86,397.57 C470.72,396.98,470.72,396.89,470.72,396.78 C470.72,396.04,471.27,395.43,472.11,395.43 C473.66,395.43,474,396.89,474.16,397.43 Z " /></g>    </g>
    <text
       xml:space="preserve"
       style="font-size:24px;font-style:italic;font-variant:normal;font-weight:normal;font-stretch:normal;text-align:center;line-height:125%;letter-spacing:0px;word-spacing:0px;writing-mode:lr-tb;text-anchor:middle;fill:#ff0000;fill-opacity:1;stroke:none;font-family:FreeSerif;-inkscape-font-specification:FreeSerif Italic"
       x="86.927078"
       y="969.92627"
       id="text3343"
       sodipodi:linespacing="125%"><tspan
         sodipodi:role="line"
         id="tspan3345"
         x="86.927078"
         y="969.92627">η</tspan></text>
    <text
       sodipodi:linespacing="125%"
       id="text3347"
       y="969.92627"
       x="160.92708"
       style="font-size:24px;font-style:italic;font-variant:normal;font-weight:normal;font-stretch:normal;text-align:center;line-height:125%;letter-spacing:0px;word-spacing:0px;writing-mode:lr-tb;text-anchor:middle;fill:#ff0000;fill-opacity:1;stroke:none;font-family:FreeSerif;-inkscape-font-specification:FreeSerif Italic"
       xml:space="preserve"><tspan
         y="969.92627"
         x="160.92708"
         id="tspan3349"
         sodipodi:role="line">η</tspan></text>
    <text
       xml:space="preserve"
       style="font-size:32px;font-style:normal;font-variant:normal;font-weight:normal;font-stretch:normal;text-align:center;line-height:125%;letter-spacing:0px;word-spacing:0px;writing-mode:lr-tb;text-anchor:middle;fill:#000000;fill-opacity:1;stroke:none;font-family:FreeSans;-inkscape-font-specification:FreeSans"
       x="91.278259"
       y="139.97945"
       id="text3351"
       sodipodi:linespacing="125%"
       transform="translate(0.35205124,902.56115)"><tspan
         sodipodi:role="line"
         id="tspan3353"
         x="91.278259"
         y="139.97945" /></text>
    <text
       xml:space="preserve"
       style="font-size:24px;font-style:italic;font-variant:normal;font-weight:normal;font-stretch:normal;text-align:center;line-height:125%;letter-spacing:0px;word-spacing:0px;writing-mode:lr-tb;text-anchor:middle;fill:#ff0000;fill-opacity:1;stroke:none;font-family:FreeSerif;-inkscape-font-specification:FreeSerif Italic"
       x="97.171158"
       y="1046.7909"
       id="text3355"
       sodipodi:linespacing="125%"><tspan
         sodipodi:role="line"
         id="tspan3357"
         x="97.171158"
         y="1046.7909">N<tspan
   style="font-size:65.00091553000000033%;baseline-shift:sub;fill:#ff0000"
   id="tspan3359" /></tspan></text>
    <text
       sodipodi:linespacing="125%"
       id="text3361"
       y="1046.7909"
       x="147.17116"
       style="font-size:24px;font-style:italic;font-variant:normal;font-weight:normal;font-stretch:normal;text-align:center;line-height:125%;letter-spacing:0px;word-spacing:0px;writing-mode:lr-tb;text-anchor:middle;fill:#ff0000;fill-opacity:1;stroke:none;font-family:FreeSerif;-inkscape-font-specification:FreeSerif Italic"
       xml:space="preserve"><tspan
         y="1046.7909"
         x="147.17116"
         id="tspan3363"
         sodipodi:role="line">N<tspan
   id="tspan3365"
   style="font-size:65.00091553000000033%;baseline-shift:sub;fill:#ff0000" /></tspan></text>
    <text
       xml:space="preserve"
       style="font-size:15px;font-style:italic;font-variant:normal;font-weight:normal;font-stretch:normal;text-align:start;line-height:58.99999738%;letter-spacing:0px;word-spacing:0px;writing-mode:lr-tb;text-anchor:start;fill:#000000;fill-opacity:1;stroke:none;font-family:FreeSerif;-inkscape-font-specification:FreeSerif Italic"
       x="31.65424"
       y="915.68298"
       id="text3414"
       sodipodi:linespacing="58.999997%"><tspan
         sodipodi:role="line"
         id="tspan3416"
         x="31.65424"
         y="915.68298">h<tspan
   style="font-size:9.75013733px;font-style:normal;baseline-shift:super;-inkscape-font-specification:FreeSerif"
   id="tspan3418">0</tspan></tspan></text>
    <text
       sodipodi:linespacing="58.999997%"
       id="text3440"
       y="915.68298"
       x="206.65411"
       style="font-size:15px;font-style:italic;font-variant:normal;font-weight:normal;font-stretch:normal;text-align:start;line-height:58.99999738%;letter-spacing:0px;word-spacing:0px;writing-mode:lr-tb;text-anchor:start;fill:#000000;fill-opacity:1;stroke:none;font-family:FreeSerif;-inkscape-font-specification:FreeSerif Italic"
       xml:space="preserve"><tspan
         y="915.68298"
         x="206.65411"
         id="tspan3442"
         sodipodi:role="line">h<tspan
   id="tspan3444"
   style="font-size:9.75013733px;font-style:normal;baseline-shift:super;-inkscape-font-specification:FreeSerif">0</tspan></tspan></text>
  </g>
</svg>
