<?xml version="1.0" encoding="UTF-8" standalone="no"?>
<svg
   xmlns:dc="http://purl.org/dc/elements/1.1/"
   xmlns:cc="http://creativecommons.org/ns#"
   xmlns:rdf="http://www.w3.org/1999/02/22-rdf-syntax-ns#"
   xmlns:svg="http://www.w3.org/2000/svg"
   xmlns="http://www.w3.org/2000/svg"
   xmlns:sodipodi="http://sodipodi.sourceforge.net/DTD/sodipodi-0.dtd"
   xmlns:inkscape="http://www.inkscape.org/namespaces/inkscape"
   width="896.40405"
   height="654.74921"
   viewBox="0 0 717.12324 523.79937"
   version="1.1"
   id="svg2"
   inkscape:version="0.47 r22583"
   sodipodi:docname="smtshirtzoom.svg">
  <metadata
     id="metadata270">
    <rdf:RDF>
      <cc:Work
         rdf:about="">
        <dc:format>image/svg+xml</dc:format>
        <dc:type
           rdf:resource="http://purl.org/dc/dcmitype/StillImage" />
        <dc:title></dc:title>
      </cc:Work>
    </rdf:RDF>
  </metadata>
  <defs
     id="defs268">
    <inkscape:perspective
       sodipodi:type="inkscape:persp3d"
       inkscape:vp_x="0 : 365.625 : 1"
       inkscape:vp_y="0 : 1000 : 0"
       inkscape:vp_z="843.75 : 365.625 : 1"
       inkscape:persp3d-origin="421.875 : 243.75 : 1"
       id="perspective272" />
    <inkscape:perspective
       id="perspective4713"
       inkscape:persp3d-origin="0.5 : 0.33333333 : 1"
       inkscape:vp_z="1 : 0.5 : 1"
       inkscape:vp_y="0 : 1000 : 0"
       inkscape:vp_x="0 : 0.5 : 1"
       sodipodi:type="inkscape:persp3d" />
    <inkscape:perspective
       id="perspective4934"
       inkscape:persp3d-origin="0.5 : 0.33333333 : 1"
       inkscape:vp_z="1 : 0.5 : 1"
       inkscape:vp_y="0 : 1000 : 0"
       inkscape:vp_x="0 : 0.5 : 1"
       sodipodi:type="inkscape:persp3d" />
    <inkscape:perspective
       id="perspective4984"
       inkscape:persp3d-origin="0.5 : 0.33333333 : 1"
       inkscape:vp_z="1 : 0.5 : 1"
       inkscape:vp_y="0 : 1000 : 0"
       inkscape:vp_x="0 : 0.5 : 1"
       sodipodi:type="inkscape:persp3d" />
    <inkscape:perspective
       id="perspective5122"
       inkscape:persp3d-origin="0.5 : 0.33333333 : 1"
       inkscape:vp_z="1 : 0.5 : 1"
       inkscape:vp_y="0 : 1000 : 0"
       inkscape:vp_x="0 : 0.5 : 1"
       sodipodi:type="inkscape:persp3d" />
    <inkscape:perspective
       id="perspective5195"
       inkscape:persp3d-origin="0.5 : 0.33333333 : 1"
       inkscape:vp_z="1 : 0.5 : 1"
       inkscape:vp_y="0 : 1000 : 0"
       inkscape:vp_x="0 : 0.5 : 1"
       sodipodi:type="inkscape:persp3d" />
    <inkscape:perspective
       id="perspective5250"
       inkscape:persp3d-origin="0.5 : 0.33333333 : 1"
       inkscape:vp_z="1 : 0.5 : 1"
       inkscape:vp_y="0 : 1000 : 0"
       inkscape:vp_x="0 : 0.5 : 1"
       sodipodi:type="inkscape:persp3d" />
    <inkscape:perspective
       id="perspective5272"
       inkscape:persp3d-origin="0.5 : 0.33333333 : 1"
       inkscape:vp_z="1 : 0.5 : 1"
       inkscape:vp_y="0 : 1000 : 0"
       inkscape:vp_x="0 : 0.5 : 1"
       sodipodi:type="inkscape:persp3d" />
  </defs>
  <sodipodi:namedview
     pagecolor="#ffffff"
     bordercolor="#666666"
     borderopacity="1"
     objecttolerance="10"
     gridtolerance="10"
     guidetolerance="10"
     inkscape:pageopacity="0"
     inkscape:pageshadow="2"
     inkscape:window-width="1680"
     inkscape:window-height="975"
     id="namedview266"
     showgrid="false"
     inkscape:zoom="2.0914089"
     inkscape:cx="415.82289"
     inkscape:cy="373.34091"
     inkscape:window-x="0"
     inkscape:window-y="24"
     inkscape:window-maximized="1"
     inkscape:current-layer="layer1" />
  <g
     inkscape:groupmode="layer"
     id="layer1"
     inkscape:label="Lagrangian"
     style="display:inline"
     transform="translate(-78.134068,-23.40603)">
    <path
       d="m 528.25637,116.28581 c 0.72294,-0.0657 1.44587,-0.12595 2.17976,-0.18072 0.6134,4.13496 -1.97164,8.10562 -5.20841,10.47159 -2.55765,1.77994 -5.20294,3.46131 -7.9687,4.89623 -1.25418,0.15882 -2.43718,-0.54768 -3.61468,-0.88176 -0.20264,-3.7954 0.96392,-7.64558 3.30797,-10.64137 0.38886,-0.59697 1.22133,-0.48743 1.82377,-0.71197 1.88402,2.63432 0.20264,5.62464 -0.89271,8.19324 3.27511,-2.30025 6.43521,-4.83599 9.0312,-7.90298 0.8489,-0.87629 1.01321,-2.11951 1.3418,-3.24226 z"
       id="path8"
       style="fill:#000000" />
    <path
       d="m 505.07867,118.29579 c 0.48743,-0.55862 1.35276,-0.38338 2.01546,-0.55862 0.12048,1.7909 0.0657,3.69133 0.93652,5.32341 0.94748,1.57183 2.77125,2.19071 4.29379,3.05057 -0.14787,1.28156 -1.18845,2.61242 -2.62336,2.21809 -2.07571,-0.87628 -3.32441,-2.82601 -4.6005,-4.57311 -0.29575,1.00225 -0.60792,1.99903 -0.90915,2.9958 -1.2925,-0.18074 -2.53027,-0.5641 -3.77349,-0.91462 -0.99677,2.76029 -1.68137,5.64107 -3.0177,8.26992 -1.99903,-0.79413 -1.91688,-3.19842 -1.78543,-4.98385 0.4491,-4.06378 2.711,-7.65106 5.13721,-10.83306 0.96939,0.5422 1.88949,1.16656 2.79316,1.81828 0.49838,-0.61339 0.99677,-1.22679 1.53349,-1.81281 z"
       id="path12"
       style="fill:#000000" />
    <path
       d="m 479.03114,120.56866 c 2.49193,-0.31766 5.01126,-1.769 7.52508,-0.8489 1.01869,0.47647 0.98583,1.68684 1.18848,2.62337 -4.77576,2.01545 -10.06084,1.87853 -15.03375,3.08342 -0.0219,4.47452 -0.11501,8.94905 -0.19717,13.41809 4.61145,-0.57506 8.83403,-2.70552 13.41262,-3.4175 -0.19716,1.39657 -0.52577,2.93007 -1.81281,3.73516 -3.33535,2.72743 -7.80988,2.82601 -11.89008,3.18748 -0.7065,5.19198 -0.72293,10.45516 -1.51158,15.63619 -0.31218,-0.022 -0.94202,-0.0657 -1.25419,-0.0876 -0.0766,-0.37791 -0.23002,-1.12823 -0.30122,-1.50612 -0.7558,-4.87434 0.14788,-9.79247 0.20812,-14.67775 0.0548,-5.18103 0.63531,-10.33468 0.69555,-15.52118 -0.61339,-0.59697 -1.21584,-1.19941 -1.78543,-1.84019 2.84245,-2.79863 7.05957,-3.00676 10.75638,-3.78445 z"
       id="path14"
       style="fill:#000000" />
    <path
       d="m 413.8247,124.05736 c 3.46131,-0.41623 6.89525,-1.1556 10.38942,-1.27609 3.73516,-0.115 7.52509,-0.94201 11.22192,0.0109 -0.25741,1.02963 -0.45458,2.34953 -1.58279,2.78768 -2.11404,0.15882 -4.2226,-0.23551 -6.33664,-0.18074 -5.17553,-0.10953 -10.31822,0.8489 -15.26922,2.31668 0.19167,0.69555 0.39431,1.3911 0.586,2.08664 0.58055,2.03737 0.76675,4.1514 0.9201,6.25997 4.06924,0.24645 8.05633,-0.82152 12.12009,-0.76675 0.5203,0.56958 1.03512,1.13916 1.54994,1.7197 -3.21487,2.58504 -7.64011,2.53028 -11.53956,2.26191 -0.73389,-0.0877 -1.46231,-0.18074 -2.18523,-0.27931 -0.0712,5.28508 -0.56412,10.55373 -1.23228,15.79501 -0.0439,1.0844 -0.65174,1.98258 -1.28704,2.81506 -0.78866,-0.85439 -1.65399,-1.69233 -2.10857,-2.78221 0.16431,-7.82631 2.45908,-15.57046 1.52255,-23.42415 -0.20264,-1.94973 -1.51707,-3.46133 -2.57956,-5.01125 1.82924,-1.01868 3.69135,-2.08117 5.81087,-2.3331 z"
       id="path18"
       style="fill:#000000" />
    <path
       d="m 380.72307,123.92592 c 0.59149,-0.0494 1.17751,-0.0931 1.769,-0.1424 1.66494,4.40332 2.63981,9.10788 2.02093,13.82337 -0.32313,0.0439 -0.96391,0.12597 -1.28704,0.16979 -2.53028,-4.13497 -2.73839,-9.14622 -2.50289,-13.85076 z"
       id="path20"
       style="fill:#000000" />
    <path
       style="fill:#000000"
       d="m 296.55876,129.21922 c -0.73962,0.0223 -1.45408,0.1554 -2.13594,0.50659 -2.58502,1.56636 -3.7598,4.49096 -5.38092,6.90074 -1.92782,-0.33408 -3.9241,-0.6572 -5.6,-1.75256 -0.24098,-0.18622 -0.72568,-0.55316 -0.97213,-0.73937 -0.84889,-0.67912 -1.7334,-1.31989 -2.64255,-1.91687 -0.64078,1.00224 -1.24596,2.01271 -1.76625,3.08069 2.31667,1.81828 4.71002,3.60097 7.44841,4.75109 l 0.43814,0.0685 c 0.57506,0.0986 1.1556,0.20538 1.72518,0.31492 -2.28929,6.65428 -4.75932,13.3113 -8.3247,19.40147 -2.40429,-0.60245 -4.88801,-1.11727 -7.37994,-0.82152 -0.73389,0.0821 -1.6047,0.31491 -1.97164,1.0269 -1.22132,2.27286 -1.18571,4.94004 -1.30073,7.4484 1.66494,1.03511 3.77897,1.33086 5.61369,0.57507 1.769,-0.73389 3.29701,-1.92234 4.87432,-2.98485 2.51933,2.8315 5.22484,5.76705 8.92714,7.01027 3.6804,1.17751 7.81536,0.9557 11.30954,-0.72566 -0.66269,-0.7339 -1.06796,-2.06748 -2.24548,-2.0401 -2.79862,-0.35052 -5.70132,1.25143 -8.37946,-0.0685 -3.24772,-1.51159 -5.1728,-4.6799 -7.32518,-7.37996 3.36821,-6.38044 6.44342,-12.969 8.39316,-19.93545 0.34503,-1.40753 0.95569,-2.8534 2.45085,-3.34083 3.80088,-1.6978 7.06503,-4.87159 7.96871,-9.05036 -1.20489,-0.0959 -2.49152,-0.36568 -3.72422,-0.32861 z m 0.38338,2.23178 c 0,0.3067 -0.008,0.91189 -0.0136,1.21858 -1.30894,1.06797 -2.67267,2.06749 -4.13496,2.91639 0.8489,-1.85663 1.88127,-3.87757 4.14865,-4.13497 z m -22.79707,30.12225 c 1.07357,0.025 2.17052,0.44807 3.067,0.99951 -1.29253,2.00451 -3.5599,3.02592 -5.86015,3.29976 -0.0821,-1.1556 -0.74757,-2.70005 0.45183,-3.50514 0.68529,-0.58943 1.50633,-0.81356 2.34132,-0.79413 z"
       id="path30" />
    <path
       d="m 371.74117,144.52953 c 1.39657,-1.47873 3.39012,-2.10855 5.39461,-2.09212 3.99805,-0.12597 8.0673,-0.28479 11.99413,0.60792 -0.0821,1.09536 -0.59148,2.07022 -1.80733,2.13046 -3.36274,0.62983 -6.79667,0.0494 -10.1868,0.14788 -1.8128,-0.0767 -3.83373,0.39433 -5.39461,-0.79414 z"
       id="path40"
       style="fill:#000000" />
    <path
       d="m 362.11299,145.75633 c 2.31668,-0.58601 4.69361,-0.88177 7.08148,-1.00225 0.0165,0.46005 0.0548,1.38015 0.0766,1.84019 -2.05927,2.03736 -5.08793,2.14143 -7.79345,2.4536 -3.7242,0.23003 -7.43745,0.81604 -11.1781,0.62983 -1.04605,-0.0657 -2.14141,-0.21359 -2.99579,-0.8708 -0.1424,-0.89819 0.37243,-1.64851 0.78866,-2.39336 4.67169,0.0494 9.44195,0.55863 14.02053,-0.65721 z"
       id="path42"
       style="fill:#000000" />
    <path
       d="m 309.95769,151.52884 c 0.91463,-0.64625 1.86758,-1.413 3.06699,-1.23775 4.14045,0.14789 8.36303,-0.88723 12.42681,0.23004 -0.005,1.04058 -0.0274,2.08117 -0.0603,3.12175 l -0.38886,-0.0165 c -4.36499,-0.37243 -8.75736,0.10953 -13.10591,-0.39981 -0.33409,-0.0657 -1.00774,-0.19716 -1.34729,-0.26288 -0.14787,-0.36146 -0.44362,-1.07893 -0.59149,-1.43492 z"
       id="path48"
       style="fill:#000000" />
    <path
       style="fill:#000000"
       d="m 386.07662,150.00356 c -3.95971,1.69781 -8.57936,2.72471 -11.46014,6.17507 -0.15884,0.23003 -0.49291,0.69554 -0.65722,0.93105 2.3331,2.711 6.27913,2.75208 9.5159,3.60098 -0.20265,2.34954 -0.8626,4.78122 -0.0685,7.09242 0.39432,1.68684 1.61839,3.20939 3.3819,3.53252 0.30123,-3.58729 -0.70924,-7.13898 -0.3423,-10.72078 1.28704,-0.33409 2.97663,-0.11776 3.84743,-1.32812 0.3067,-0.60245 0.21908,-1.3062 0.32861,-1.95795 -1.30347,0.0877 -2.59599,0.23276 -3.88851,0.39707 0.0165,-2.57409 0.79961,-5.38367 -0.65721,-7.72226 z m -1.8621,3.71052 c -0.10406,1.39658 -0.25194,2.79863 -0.41076,4.18973 -1.92234,-0.1643 -3.79814,-0.66268 -5.62738,-1.25966 1.89496,-1.1994 3.95696,-2.1195 6.03814,-2.93007 z"
       id="path50" />
    <path
       d="m 427.02919,150.48278 c 1.47873,0.65722 2.68361,1.74162 3.16557,3.32989 0.95296,0.10953 1.92235,0.15882 2.84245,0.46553 1.2706,1.94972 0.83795,4.4307 0.88176,6.63236 0.006,0.96938 -0.56959,1.77995 -0.9913,2.60146 -0.33956,-0.0219 -1.0132,-0.0712 -1.34729,-0.0931 -0.44909,-0.7065 -0.87627,-1.42396 -1.30347,-2.14142 -1.30347,-0.2574 -3.14913,0.29027 -3.97614,-1.0132 -0.14787,-0.90367 -0.15335,-1.81829 -0.20812,-2.72195 -0.93104,2.89173 -2.26738,5.6356 -3.10532,8.55472 -0.36695,1.02963 -0.66817,2.27833 -1.68137,2.85886 -0.60792,0.022 -1.21584,0.0165 -1.82377,-0.0109 0.16978,-3.23677 1.59922,-6.20517 2.84245,-9.13525 1.47873,-3.15462 2.78768,-6.40235 4.70455,-9.32694 z"
       id="path52"
       style="fill:#000000" />
    <path
       d="m 438.30038,155.64738 c 0.46553,-1.77994 0.0931,-3.97066 1.77448,-5.1865 0.53125,0.59149 1.17202,1.11726 1.56088,1.82376 0.0877,1.23227 -0.0931,2.47003 -0.28479,3.68587 -0.25194,1.3199 -0.48743,2.63981 -0.66817,3.96518 2.59599,-1.79637 4.84147,-4.03638 7.3334,-5.96968 0.69555,-0.58602 1.6485,-0.58054 2.49193,-0.78317 0.15336,2.79315 -1.96616,4.84146 -3.86113,6.56665 -2.68909,2.36049 -6.01897,4.49643 -9.74317,4.30474 l 0.0329,-0.43814 c 0.0931,-2.71101 0.82151,-5.32891 1.3637,-7.96871 z"
       id="path54"
       style="fill:#000000" />
    <path
       d="m 311.0147,156.60581 c 1.87306,-1.35275 4.24451,-1.1063 6.42427,-1.11178 3.0396,0.0657 6.08469,-0.0439 9.10787,0.28479 -0.23003,2.48646 -2.82054,3.40108 -4.94005,3.67492 -3.54895,0.33409 -7.43198,0.58602 -10.55374,-1.47324 -0.006,-0.34505 -0.0274,-1.02965 -0.0383,-1.37469 z"
       id="path62"
       style="fill:#000000" />
    <path
       style="fill:#000000"
       d="m 438.69471,183.65833 c -0.43266,0.10954 -1.2843,0.3204 -1.71149,0.42445 -2.93006,2.04832 -4.84694,5.15912 -7.44841,7.55795 -2.74933,-1.57183 -5.10162,-3.74337 -7.92763,-5.18923 -3.6092,-1.82925 -7.71677,-2.63434 -11.74767,-2.24549 -0.0986,0.79962 -0.18622,1.59648 -0.27384,2.3961 0.41076,0.0712 1.22406,0.20811 1.62933,0.27383 0.67365,0.10953 1.35276,0.2355 2.02641,0.35599 -0.27931,2.88625 -0.47374,5.79169 -0.23276,8.69438 0.25193,3.82827 1.51159,7.61818 0.93105,11.47383 -0.5422,2.86983 -2.6891,4.99482 -4.68264,6.95551 -3.32988,3.23677 -6.70631,6.72274 -8.11932,11.26845 -0.31765,0.88177 -0.15609,1.82377 -0.0959,2.7384 2.95198,-0.98582 4.84147,-3.69957 6.76382,-5.98338 1.65398,-2.8753 3.47774,-5.74787 6.13398,-7.81809 0.11501,1.88401 0.14787,3.7735 0.19168,5.66846 1.69233,0.2793 3.26689,0.93926 4.61419,2.01271 2.25642,1.71423 5.19472,0.39706 7.32518,-0.88997 6.23805,-4.10211 10.81663,-11.24381 10.78924,-18.8401 -0.0439,-3.48871 -2.19619,-6.34759 -4.68264,-8.57115 0.12597,-0.15883 0.38064,-0.49839 0.5066,-0.65722 2.37692,-2.88626 5.7643,-5.63286 6.01076,-9.62543 z m -23.52274,4.03913 c 4.20068,1.38562 8.78475,3.11901 11.36431,6.94181 -3.06152,2.86435 -5.78896,6.11481 -9.22836,8.55746 -0.77223,-5.15365 -0.79961,-10.44421 -2.13595,-15.49927 z m 14.0753,9.44743 c 1.28158,0.0219 1.67864,1.5554 2.31394,2.43716 2.5248,4.78123 0.82426,10.6003 -2.31394,14.66406 -2.92459,3.40108 -7.45935,5.00851 -11.88458,4.7511 l 0.41075,-0.38337 c 0.0329,-3.09438 -0.10954,-6.1915 0.21907,-9.26944 0.48743,-0.90914 1.2131,-1.65399 1.90318,-2.40979 3.13272,-3.24224 5.90122,-6.87608 9.35158,-9.78972 z"
       id="path68" />
    <path
       d="m 381.38576,189.86078 c 7.06504,-0.48743 14.1246,-1.99902 21.22797,-1.06249 0.12597,0.41076 0.37242,1.23775 0.49839,1.65398 -4.66073,2.46455 -10.07179,2.16333 -15.13232,3.09985 -0.33408,2.40978 -0.76676,4.83053 -1.70875,7.09243 -1.61018,3.92684 -4.09663,7.46484 -5.25223,11.58337 2.32215,0.52029 4.69907,1.05154 7.09242,0.83247 2.25643,-0.19169 4.41975,-0.90367 6.65427,-1.2487 -0.16977,1.25418 -0.46004,2.77124 -1.86757,3.18748 -4.28831,1.29252 -8.84499,0.59697 -13.23189,1.11178 -3.96518,4.34308 -4.62786,10.71805 -5.10434,16.35365 -1.32538,-0.19169 -2.57409,-0.69007 -3.69135,-1.40754 0.16977,-4.44714 1.47873,-8.74092 3.48323,-12.69515 0.66817,-1.62661 1.86758,-3.33536 1.413,-5.1646 -1.31442,-2.30572 -3.82278,-3.84469 -4.53477,-6.52283 -0.71745,-1.64303 0.26837,-3.27511 0.97486,-4.72099 0.24099,0.0712 0.72295,0.20812 0.96393,0.27932 2.27285,2.04832 2.86982,5.1865 4.51285,7.66749 2.89174,-5.09341 4.90719,-10.61947 7.49771,-15.86075 -4.82504,-0.13692 -9.65556,0.35052 -14.46964,-0.115 0.32313,-1.14465 0.55864,-2.65624 1.94973,-2.93555 2.84793,-0.7558 5.82729,-0.70103 8.7245,-1.12822 z"
       id="path78"
       style="fill:#000000" />
    <path
       d="m 520.89559,197.0244 c 0.19717,-2.74386 -0.26288,-5.80538 1.32538,-8.22064 4.09115,3.81184 1.6978,9.72127 1.93878,14.52989 2.03736,-1.6759 4.41975,-2.82602 7.01575,-3.31892 1.94425,3.69133 1.46229,8.12204 2.86435,12.0215 0.65721,0.66817 1.59921,0.93653 2.39335,1.4185 -0.59697,2.75481 -5.09888,2.66717 -5.59726,-0.022 -0.32861,-3.09986 -0.25194,-6.26543 -1.00773,-9.31052 -2.54123,0.62435 -3.56538,3.30796 -4.04734,5.60822 -0.60792,2.24547 -0.95295,4.66073 -2.42621,6.55022 -0.47647,-0.69009 -1.00225,-1.36919 -1.22132,-2.19071 -1.57731,-5.54249 -1.31442,-11.36431 -1.23775,-17.06563 z"
       id="path80"
       style="fill:#000000" />
    <path
       d="m 459.55026,199.48347 c 1.88949,-2.8041 2.66171,-6.13398 4.14045,-9.12978 1.43491,1.89496 2.21261,4.32666 1.69231,6.69261 -1.06248,6.28187 -6.11207,10.73448 -8.53281,16.43033 0.61888,-0.0877 1.24323,-0.18074 1.86758,-0.28479 1.73066,-0.32861 3.42299,-0.89272 4.98387,-1.73615 1.69232,-1.51158 2.98483,-3.46131 5.0222,-4.5731 0.76674,1.45683 0.83794,3.09438 0.83246,4.69907 -0.28478,0.9201 -0.78865,1.83472 -1.74709,2.17428 -4.18972,1.90592 -8.75188,2.70552 -13.16616,3.89946 -1.99901,3.57634 -3.18748,7.76059 -6.33663,10.57018 -1.17202,1.00772 -2.49192,2.34952 -4.18425,1.88948 0.70103,-5.08792 3.54895,-9.41458 5.62464,-13.9822 -0.45456,-1.75257 -1.9552,-3.06699 -2.67813,-4.73193 -1.71971,-2.96294 -1.65946,-6.65976 -0.18073,-9.69936 0.35599,-0.0603 1.06796,-0.17526 1.42944,-0.2355 0.81603,3.77896 1.3637,7.70033 3.31892,11.10689 2.90268,-4.19521 5.07696,-8.84499 7.91393,-13.08949 z"
       id="path82"
       style="fill:#000000" />
    <path
       d="m 352.80797,202.00826 c 0.96938,-2.05926 1.82923,-5.15365 4.69906,-4.86885 0.11502,0.3998 0.34504,1.20489 0.46006,1.61017 -0.60793,1.16656 -0.95844,2.55218 -1.96069,3.46133 -1.04059,0.51481 -2.1688,0.0877 -3.19843,-0.20265 z"
       id="path88"
       style="fill:#000000" />
    <path
       d="m 498.08483,198.93579 c 0.89819,0.0877 2.01546,0.12597 2.44265,1.09536 0.30669,1.65399 0.43814,3.33535 0.6353,5.0003 3.81183,-1.07346 7.78797,-1.30348 11.73125,-1.21585 0.0603,2.0264 -1.70876,3.26963 -3.34631,4.01995 -2.66171,1.28156 -5.69037,0.99129 -8.53829,1.413 0.0657,2.28382 0.1643,4.59501 -0.36694,6.8405 -0.90915,-0.18622 -2.19619,0.18073 -2.67266,-0.85986 -0.98035,-1.81281 -0.51482,-3.94327 -0.54768,-5.90396 -2.37145,-0.18073 -4.7648,-0.24098 -7.11981,-0.60793 -1.42396,-0.65172 -1.51159,-2.34953 -1.05702,-3.653 2.65076,0.42171 5.422,0.92558 8.05086,0.0712 0.29027,-2.06474 0.59149,-4.12401 0.78865,-6.1997 z"
       id="path92"
       style="fill:#000000" />
    <path
       d="m 314.38292,211.37902 c 0.0109,-2.5467 -0.38884,-5.39462 1.44587,-7.45937 2.19618,1.72519 2.32215,4.59502 2.53574,7.1472 3.48323,0.13692 6.96646,-0.0767 10.44969,-0.022 -0.52577,2.00997 -2.74386,2.32215 -4.48,2.64528 -1.87305,0.21907 -3.74611,0.43266 -5.61917,0.6134 0.20813,3.75706 1.40753,7.4046 1.25418,11.18904 -1.53897,-0.13691 -2.88078,-1.0351 -3.61467,-2.39882 -1.25418,-2.55765 -1.39657,-5.44392 -1.79638,-8.21516 -0.942,-0.0986 -1.87854,-0.19716 -2.81506,-0.29574 -2.22905,-0.52578 -4.88528,0.30669 -6.80762,-1.11178 0.0821,-0.25741 0.24645,-0.78319 0.33407,-1.04608 0.50935,-0.48196 1.09535,-0.95843 1.8402,-0.96938 2.41525,-0.2136 4.84695,0.0165 7.27315,-0.0767 z"
       id="path98"
       style="fill:#000000" />
    <path
       d="m 555.94694,206.01726 c 3.12724,-1.63756 6.76381,-1.08988 10.14846,-0.93105 1.94973,0.11501 3.64753,1.21584 4.63882,2.88626 -0.64078,0.3998 -1.08987,1.33085 -1.92782,1.25418 -3.9378,-0.21359 -7.90299,-1.64303 -11.83531,-0.5203 -0.10405,0.36695 -0.31216,1.10084 -0.41623,1.46779 -0.24098,1.9771 0.36146,3.89946 0.99129,5.74512 2.40432,0.0821 4.86337,-0.10405 7.21292,0.54768 1.1063,0.12597 1.33085,1.36372 1.84019,2.15786 -2.58504,0.89271 -5.43844,1.69779 -8.12753,0.77221 -3.42298,-1.0132 -6.31472,-4.41974 -5.94778,-8.11109 0.0821,-2.17976 1.24323,-4.52929 3.42299,-5.26866 z"
       id="path102"
       style="fill:#000000" />
    <path
       d="m 352.1398,215.67281 c -0.25742,-3.46133 -0.26837,-7.4265 2.22356,-10.15941 0.4984,0.43814 1.00225,0.87628 1.50064,1.3199 0.87081,3.2532 -0.62435,6.45164 -0.36694,9.69389 0.70103,2.59051 4.07472,1.41301 6.00254,2.30024 0.0439,0.81604 0.0767,1.63208 0.0877,2.44812 -1.86211,0.1424 -3.88852,0.58054 -5.62465,-0.33956 -2.0045,-1.04059 -3.31893,-3.09986 -3.82279,-5.26318 z"
       id="path104"
       style="fill:#000000" />
    <path
       d="m 541.58685,210.34391 c 1.35275,-0.12596 3.13818,0.34503 2.85339,2.09213 -0.2355,0.0931 -0.70651,0.28479 -0.93653,0.37789 -0.72293,0.0877 -1.44039,0.16431 -2.15785,0.23004 -0.15882,-0.91464 -0.006,-1.8183 0.24099,-2.70006 z"
       id="path110"
       style="fill:#000000" />
    <path
       d="m 541.34586,213.04397 c 0.71746,-0.0657 1.43492,-0.14241 2.15785,-0.23004 1.10084,1.30347 1.37468,2.91913 0.50934,4.43071 -1.2487,-0.0274 -2.44264,-0.4929 -3.12176,-1.58826 -0.72841,-0.83247 -0.0274,-1.86211 0.45457,-2.61241 z"
       id="path114"
       style="fill:#000000" />
    <path
       d="m 576.03574,216.25882 c 0.99677,-0.21907 2.66171,-0.64626 3.05056,0.67913 0.48744,1.16655 -0.81056,1.81828 -1.50611,2.47002 -1.15012,-0.71198 -1.73067,-1.79638 -1.54445,-3.14915 z"
       id="path118"
       style="fill:#000000" />
    <path
       d="m 370.68414,257.39486 c 0.36696,0.0274 1.10084,0.0877 1.47326,0.11501 -0.45457,2.96294 -1.76352,5.6849 -2.78768,8.47805 -1.56636,4.19521 -3.29701,8.3466 -5.64107,12.17486 -0.19716,0.35052 -0.59149,1.04606 -0.78866,1.3911 3.48323,1.56088 7.3115,0.78319 10.89877,0.0931 1.06798,-0.19169 2.15786,-0.23551 3.24226,-0.23551 -0.60244,2.63434 -3.4175,3.64754 -5.78895,4.02544 -3.43394,0.7777 -6.95002,0.15335 -10.41682,0.3067 -3.01223,3.32988 -3.45584,8.30279 -6.25995,11.82435 -0.69008,1.03511 -1.98807,0.96391 -3.08342,1.07893 -0.13692,-2.15786 0.18074,-4.34856 1.09535,-6.31472 1.40753,-3.17653 3.37917,-6.05185 5.28509,-8.94358 -1.05701,-1.64303 -2.16881,-3.26415 -3.06152,-5.01124 -1.47325,-2.74386 -1.99355,-6.04088 -1.10631,-9.05858 0.32313,0 0.97487,0 1.298,0 1.02963,2.80958 1.31991,6.05183 3.54894,8.25898 0.43267,0.52028 0.89272,1.01867 1.35825,1.51706 1.30347,-2.76578 2.34953,-5.6356 3.57086,-8.43423 1.91686,-4.01996 4.15138,-7.95228 7.1636,-11.26573 z"
       id="path126"
       style="fill:#000000" />
    <path
       d="m 412.18714,261.04787 c 0.85437,-0.19716 1.71423,-0.34503 2.56312,-0.57506 0.43814,0.72294 1.11726,1.39658 1.06249,2.31667 0.0712,2.78769 0.39981,5.56988 1.10084,8.27541 0.69555,2.97389 1.34728,5.95873 2.4043,8.82855 0.26288,4.10211 0.82152,8.36303 -0.64078,12.31727 -1.15013,1.78543 -2.15785,3.77897 -3.89947,5.06602 -4.17877,0.96938 -9.16263,-2.0538 -9.45838,-6.53927 0.93653,0.13692 1.88401,0.27384 2.8041,0.52576 1.61566,0.48196 3.47228,2.25096 5.08793,0.90367 1.35823,-1.55539 2.30572,-3.45036 2.51931,-5.52058 1.08441,-5.31795 -0.24097,-10.68519 -1.3418,-15.87717 -1.50064,3.20392 -2.44264,6.84596 -5.09341,9.35433 -1.41848,1.45682 -3.78444,2.13047 -5.63559,1.11726 -2.596,-1.40205 -3.81731,-4.36499 -4.32666,-7.12528 -0.33956,-3.37369 -0.46552,-6.98288 1.16109,-10.07179 0.51481,0.0494 1.54445,0.1424 2.05378,0.19169 -0.0274,1.84567 -0.29574,3.6804 -0.36693,5.52607 -0.18622,3.11628 1.09535,6.02444 2.18522,8.86689 2.50289,-0.44362 4.05829,-2.72744 5.04411,-4.8798 1.67589,-3.80089 1.98807,-7.99062 2.43717,-12.06533 0.0877,-0.15882 0.2574,-0.47648 0.33956,-0.63531 z"
       id="path130"
       style="fill:#000000" />
    <path
       style="fill:#000000"
       d="m 509.93383,260.92191 c -2.20166,1.84019 -3.52703,4.43618 -4.84695,6.92811 -0.3286,0.62436 -0.64899,1.25966 -0.97212,1.88949 -2.96293,-1.16108 -5.99707,-2.11404 -9.09144,-2.84792 -0.20264,0.82151 -0.31766,1.65672 -0.38337,2.50562 0.59696,0.31218 1.20489,0.64079 1.80732,0.95844 -2.19618,0.86533 -4.32664,2.16058 -5.53153,4.25818 -1.92782,3.42299 -2.20166,7.66201 -1.06798,11.3917 0.5915,2.1907 2.29478,3.77897 3.83375,5.33984 -1.23775,3.62563 -2.41525,7.27316 -3.58729,10.92617 -0.4491,1.34728 -0.70375,2.79041 -0.36969,4.20342 0.84344,0.14787 1.68959,0.29574 2.53302,0.43814 0.41076,-0.71746 0.81603,-1.43765 1.1775,-2.17701 1.52255,-4.16235 2.50289,-8.52461 4.38142,-12.5555 3.0889,-0.0766 6.07374,-0.94201 8.84498,-2.27287 3.10535,-1.3418 5.09615,-4.35676 6.09292,-7.48948 0.20264,-2.53027 0.4354,-5.30699 -0.91736,-7.58533 -1.04058,-1.79091 -2.84792,-2.89174 -4.54573,-3.97066 0.33957,-0.90366 0.67639,-1.80734 1.0269,-2.71101 0.63531,-1.63755 1.28431,-3.26963 1.79365,-4.95647 -0.0494,-0.76128 -0.1068,-1.51707 -0.178,-2.27286 z m -7.32518,11.72029 c -1.90044,4.92361 -4.67442,9.46934 -6.69535,14.34915 -2.40979,-2.02642 -3.39834,-5.30974 -3.38191,-8.36577 0.12596,-2.27834 1.37466,-5.26045 4.02542,-5.32617 2.04832,0.0766 4.04734,-0.25741 6.05184,-0.65721 z m 2.38239,2.60147 c 1.81281,0.69007 3.40382,2.13594 3.90221,4.05281 1.28704,3.7735 -1.16382,8.39315 -5.05233,9.35159 -1.50611,0.36146 -3.07247,0.1643 -4.60049,0.10954 1.47874,-4.67169 4.06376,-8.91345 5.75061,-13.51394 z"
       id="path132" />
    <path
       d="m 464.50674,263.5891 c 0.85985,-0.88724 2.08665,-1.21585 3.23678,-1.54445 -1.45135,5.49319 -4.69361,10.27442 -7.05409,15.39521 -0.32861,0.71197 -0.6353,1.42943 -0.93653,2.15784 4.58954,1.85662 9.29957,-0.19169 13.97125,-0.30122 0.0439,2.47003 -1.45134,4.77027 -3.87208,5.44938 -4.03637,0.93106 -8.08919,-0.47648 -12.07629,-1.0351 -1.91138,3.72968 -3.71324,7.53603 -5.06601,11.51217 -0.83795,1.56636 -1.72519,3.10533 -2.65075,4.62239 -0.37243,-0.1862 -1.10631,-0.55315 -1.47874,-0.73387 -0.21359,-1.85663 -0.38337,-3.81732 0.41076,-5.56989 1.53898,-3.57086 3.2313,-7.08147 4.75385,-10.66327 0.33956,-0.78866 0.5422,-1.62661 0.56958,-2.48098 -2.03736,-2.45907 -3.75707,-5.2577 -4.48,-8.39589 -0.37243,-1.22681 1.14464,-1.70876 1.80733,-2.43717 2.0757,2.19619 3.21487,5.06054 5.1646,7.36079 2.37145,-4.54024 3.97066,-9.65555 7.70034,-13.33594 z"
       id="path136"
       style="fill:#000000" />
    <path
       d="m 317.90997,263.27144 c 0.31764,-0.27931 0.95844,-0.83247 1.27608,-1.11178 1.16655,2.15236 1.87854,4.52929 1.8183,6.99931 2.41525,0.11502 4.84146,0.22455 7.24577,0.47648 1.01867,-0.006 1.42395,1.05154 2.02092,1.68684 -0.32313,0.20264 -0.97486,0.60793 -1.30347,0.81057 -2.85888,0.73936 -5.82729,0.65174 -8.75736,0.65174 -0.36147,4.83598 -0.2574,9.69935 -0.44909,14.54631 -0.95296,-0.21907 -1.89497,-0.47101 -2.84793,-0.69555 -1.42944,-3.75707 -1.31442,-7.8044 -0.55315,-11.69292 0.0712,-0.39981 0.21907,-1.19393 0.29026,-1.59374 -2.8041,-0.56958 -5.66298,-0.82152 -8.46161,-1.40753 -0.942,-0.20812 -1.94425,-0.44362 -2.65623,-1.14464 -0.83247,-0.59149 -0.37789,-1.6759 -0.33409,-2.50837 3.98162,0.2136 7.95228,0.65175 11.93389,0.83247 0.4984,-1.91687 0.67912,-3.88302 0.77771,-5.84919 z"
       id="path138"
       style="fill:#000000" />
    <path
       d="m 547.99466,268.21697 c 0.0877,-0.827 0.65722,-1.45135 1.12275,-2.0976 0.57506,0.93105 1.12273,1.90043 1.34727,2.99031 1.56636,6.68714 0.87082,13.59882 0.93106,20.3955 1.82376,-1.94973 3.64753,-4.09662 6.21613,-5.07696 1.5335,-0.66269 3.23131,-0.62984 4.86885,-0.64626 1.97712,4.8086 3.82827,9.67197 5.96421,14.41486 -0.006,0.46553 -0.0165,1.39658 -0.0274,1.8621 -1.51707,0.6134 -3.23677,0.1424 -4.65526,-0.51482 -0.73936,-0.75031 -0.81056,-1.86757 -1.08988,-2.82053 -0.60792,-2.9246 -1.48421,-5.78896 -1.94425,-8.74094 -2.63433,0.96941 -5.18103,2.4536 -6.89526,4.72646 -1.30895,1.71423 -1.06249,4.33761 -3.02318,5.56989 -0.91461,-0.9201 -1.99354,-1.71423 -2.66171,-2.83698 -0.64078,-2.42073 -0.86533,-4.94552 -0.99129,-7.44293 -0.13145,-4.25545 -0.11502,-8.51639 -0.0274,-12.77184 0.0986,-2.35501 0.50934,-4.68811 0.86533,-7.01026 z"
       id="path146"
       style="fill:#000000" />
    <path
       d="m 380.21373,278.14636 c 1.85663,-0.97486 3.99257,-0.99678 5.93683,-0.24646 -0.47649,0.87081 -0.98034,1.73066 -1.43492,2.61242 -0.57506,0.21908 -1.14464,0.44362 -1.70875,0.67912 -0.95296,-0.99677 -1.90045,-1.99903 -2.79316,-3.04508 z"
       id="path170"
       style="fill:#000000" />
    <path
       d="m 531.84366,277.6863 c 0.66269,0.0657 1.33086,0.13692 2.0045,0.2136 0.18621,1.80186 0.3067,3.60919 0.51481,5.41653 3.69683,0.12596 7.45389,-0.93105 11.09047,0.13144 -0.62435,1.17203 -1.06796,2.85888 -2.59599,3.09437 -2.90268,0.41624 -5.84372,0.022 -8.76284,0.12597 0.4491,3.0177 0.75032,6.05732 0.99677,9.1024 -1.13917,-0.15334 -2.88625,0.43814 -3.5106,-0.85986 -0.6134,-2.65075 -0.67365,-5.40009 -0.71199,-8.11109 -2.57408,-0.35052 -5.23579,-0.47649 -7.67294,-1.44039 -0.60245,-0.56411 -0.67365,-1.19941 -0.22456,-1.90592 2.59051,-1.3199 5.52059,-0.53125 8.25898,-0.26289 0.15335,-1.84019 0.33408,-3.68039 0.61339,-5.50416 z"
       id="path172"
       style="fill:#000000" />
    <path
       d="m 478.46703,282.19369 c 0.86534,-0.44362 1.77448,-0.77222 2.69459,-1.08988 -0.70652,2.71101 -2.00451,5.23032 -3.66945,7.47032 -1.13918,1.01868 -2.33858,1.96617 -3.54347,2.90816 -0.47649,-0.5422 -0.95297,-1.07344 -1.42944,-1.60469 0.86533,-1.45134 1.81282,-2.8534 2.86983,-4.1733 0.99129,-1.19941 2.02093,-2.36596 3.07794,-3.51061 z"
       id="path178"
       style="fill:#000000" />
    <path
       d="m 425.90645,282.60445 c 1.66493,-1.61018 3.29154,0.98582 3.22035,2.58504 -0.71199,0.50386 -1.43492,0.99676 -2.17429,1.46777 -0.54768,-1.29252 -1.00225,-2.63432 -1.04606,-4.05281 z"
       id="path180"
       style="fill:#000000" />
    <path
       d="m 436.27398,282.15535 c 0.94201,0.12049 1.99354,0.23551 2.57957,1.10083 0.33407,1.2268 -0.43815,2.33311 -0.88725,3.41203 -2.69457,0.37791 -2.67266,-2.85339 -1.69232,-4.51286 z"
       id="path182"
       style="fill:#000000" />
    <path
       d="m 379.31006,284.94851 c 0.39981,0.0548 1.19942,0.16431 1.59922,0.21907 -0.0383,1.5335 -0.15883,3.06699 -0.22455,4.60596 1.08441,0.83248 2.54123,1.54993 2.73292,3.07247 -1.36372,2.22358 -6.39139,0.74484 -5.75609,-2.16879 0.0986,-2.02094 0.73389,-3.94329 1.6485,-5.72871 z"
       id="path184"
       style="fill:#000000" />
    <path
       d="m 590.99828,285.41951 c 2.12499,-0.81604 4.67716,-0.38338 6.18327,1.40205 -0.71745,0.75579 -1.26513,2.09761 -2.5193,1.92235 -4.94005,-0.23002 -9.65008,2.53026 -12.61849,6.35853 0.71745,1.05155 1.3692,2.27286 2.59599,2.81506 2.92459,1.45682 6.31472,1.74162 9.16811,3.37918 0.89819,0.47099 1.15561,1.52801 1.61018,2.36048 -2.6179,2.03189 -6.07375,1.02963 -8.83951,-0.11501 -3.57086,-1.40205 -6.59951,-4.22807 -8.04537,-7.79892 -0.5696,-1.298 -0.15884,-2.83698 0.95294,-3.69682 3.29702,-3.00127 7.32245,-5.15913 11.51218,-6.6269 z"
       id="path186"
       style="fill:#000000" />
    <path
       d="m 423.75408,296.09374 c -0.54768,-3.22034 -0.94201,-6.8624 0.89818,-9.75961 0.84344,0.30123 1.68138,0.61887 2.51932,0.94201 0.29574,2.83148 -0.0494,5.67941 0.0109,8.52185 0.92558,0.0329 1.86211,0.0657 2.79863,0.10954 0.0931,0.32861 0.27932,0.98582 0.3779,1.31443 -1.1556,1.14464 -2.70005,1.9333 -4.33761,2.03188 -1.14463,-0.70102 -1.70875,-1.99902 -2.26738,-3.1601 z"
       id="path188"
       style="fill:#000000" />
    <path
       d="m 433.99017,286.90372 c 0.81055,0.0877 1.6266,0.13692 2.4262,0.3286 0.93106,0.71746 1.02417,1.98806 1.35824,3.03414 0.65721,2.99031 1.9333,6.02445 1.16109,9.1243 -0.36696,2.53575 -1.78543,4.69907 -2.91913,6.93907 -1.16108,0.55863 -2.27833,1.30347 -3.56538,1.53349 -1.98807,-0.36694 -2.68909,-2.47002 -3.53251,-4.01994 2.03735,-0.53125 4.74288,0.21359 5.97515,-1.98807 2.77124,-4.69908 0.42719,-10.1868 -0.90366,-14.95159 z"
       id="path190"
       style="fill:#000000" />
    <path
       d="m 477.26215,289.7133 c 0.45457,-0.0877 1.36372,-0.26289 1.81828,-0.35052 1.19942,1.65399 2.13047,3.60372 1.84568,5.70681 -0.31217,3.02317 -0.94201,6.36401 -3.08342,8.64782 -1.8402,0.6353 -3.8228,0.68459 -5.73967,0.87081 -0.26836,-0.63531 -0.53124,-1.27062 -0.78318,-1.90592 -0.19715,-1.26514 -0.0109,-2.53027 0.20812,-3.77349 1.82377,0.37788 4.26641,2.62336 5.60822,0.26836 1.19941,-2.99033 0.0109,-6.33664 0.12597,-9.46387 z"
       id="path196"
       style="fill:#000000" />
    <path
       d="m 569.27741,299.0512 c 0.82152,-1.0625 1.76351,-2.01546 2.74386,-2.9246 0.38337,0.11501 1.14464,0.35051 1.52254,0.46553 0.31764,1.98807 -1.52254,3.42846 -2.01546,5.25223 -1.08439,-0.18074 -2.16879,-0.36148 -3.23677,-0.59698 0.31218,-0.73936 0.58602,-1.50063 0.98583,-2.19618 z"
       id="path200"
       style="fill:#000000" />
    <path
       d="m 598.67672,301.92651 c 1.77447,-0.71199 3.78444,-0.36148 5.40557,0.56958 0.87081,0.57505 0.471,1.73613 0.6134,2.60694 -1.99355,0.93105 -4.22807,0.71198 -6.11207,-0.36694 0.0219,-0.94201 0.0548,-1.87854 0.0931,-2.80958 z"
       id="path202"
       style="fill:#000000" />
    <path
       d="m 341.12601,320.25178 c -0.0821,-0.90913 1.35276,-0.942 1.54445,-0.11501 0.56411,3.09437 0.69555,6.25447 0.99129,9.38718 0.64079,11.33145 0.0821,22.72314 -1.2268,33.98886 -0.37789,2.43169 -0.14787,5.21389 -1.90591,7.18005 -0.59696,0.18621 -1.21037,0.33408 -1.82377,0.4491 -0.84889,-4.72646 0.26289,-9.4803 0.35599,-14.21771 0.18074,-5.0934 0.62983,-10.17037 0.58602,-15.26924 0.56958,-7.13075 0.88724,-14.27794 1.47873,-21.40323 z"
       id="path206"
       style="fill:#000000" />
    <path
       d="m 407.29637,322.98469 c -0.16429,-3.7954 4.84695,-4.09115 7.50319,-3.12176 1.67041,0.52577 3.32987,1.08441 4.99481,1.62113 l 0.47649,0.15334 c -0.0329,2.13595 -1.01869,4.15141 -2.48099,5.67942 -1.85663,1.74709 -3.9597,3.22034 -5.77799,5.01672 1.82924,0.83794 3.74611,1.50064 5.49867,2.49741 1.09536,0.88725 1.13918,2.32764 0.78866,3.58181 -3.65849,-0.15883 -7.20195,-1.65946 -10.13203,-3.78445 -0.60792,-2.44264 0.92009,-4.82504 2.67814,-6.38592 1.97164,-1.56087 4.19521,-2.80957 5.90944,-4.68264 -1.56088,-0.45457 -3.182,-0.83246 -4.8086,-0.50934 -1.54992,0.21907 -3.12176,0.2848 -4.64979,-0.0657 z"
       id="path208"
       style="fill:#000000" />
    <path
       d="m 505.00199,324.87417 c 0.8982,-0.88723 2.26739,-0.37241 3.39561,-0.4929 0.12597,1.58826 -0.44362,3.24773 -1.90592,4.05281 -3.32988,1.68685 -4.68811,5.3289 -6.71453,8.22611 -4.18425,6.56665 -7.8263,13.99863 -7.72225,21.95638 0.5203,8.06181 3.55443,16.48509 10.01702,21.66611 -1.05701,1.91687 -3.57086,1.88949 -5.37819,1.24872 -4.72098,-3.34083 -7.37172,-8.87786 -8.55472,-14.4094 -1.59374,-7.74963 -0.76674,-15.99217 2.48647,-23.21603 3.34082,-7.28959 8.35207,-13.75766 14.37651,-19.0318 z"
       id="path216"
       style="fill:#000000" />
    <path
       d="m 402.43299,325.92573 c 0.45458,-0.0165 1.37468,-0.0494 1.82925,-0.0603 1.64303,5.70679 -0.0274,11.60527 0.0766,17.40518 -0.006,7.18552 0.5203,14.36009 1.00773,21.52371 0.10405,3.87755 0.15335,7.75512 0.0165,11.63267 -1.49516,0.27383 -4.28283,1.19393 -4.83598,-0.75032 -0.0877,-4.04734 -0.0603,-8.10015 0.0712,-12.14749 0.41076,-5.83275 0.24097,-11.68742 0.72841,-17.50923 0.24646,-5.97517 0.81057,-11.92841 0.76676,-17.90906 0.0439,-0.74483 0.19715,-1.46229 0.33954,-2.18522 z"
       id="path220"
       style="fill:#000000" />
    <path
       d="m 534.91613,326.20503 c 0.81604,0.38885 1.63756,0.78866 2.43716,1.23776 3.29702,1.71423 6.05183,4.30474 8.28089,7.25124 5.08244,6.53927 9.37075,14.03149 10.64137,22.32333 0.78317,5.01672 -1.14465,10.03344 -3.94329,14.1246 -3.30797,4.74835 -7.78248,9.075 -13.52762,10.58111 -3.32988,0.89272 -7.54699,1.18847 -10.00059,-1.72518 5.54797,-3.50513 12.43228,-4.51834 17.5202,-8.83951 3.30249,-2.59051 5.41106,-6.65975 5.37271,-10.88782 0.33956,-5.12078 -1.3199,-10.15942 -3.96518,-14.49702 -2.95746,-4.75383 -6.53379,-9.13525 -10.6578,-12.93065 -1.42944,-1.30348 -2.56861,-2.91365 -3.18201,-4.74837 0.26836,-0.66816 0.65722,-1.27608 1.02416,-1.88949 z"
       id="path224"
       style="fill:#000000" />
    <path
       style="fill:#000000"
       d="m 349.01256,326.82117 c -0.62872,0.0153 -1.26377,0.10953 -1.88949,0.30122 0.59149,1.06798 1.37467,2.04558 1.83473,3.19023 0.10953,2.86434 -0.58054,5.70132 -0.43815,8.57115 0.17526,4.02542 0.55041,8.03442 0.83521,12.04889 0.27384,1.75805 -1.59374,2.62338 -2.30025,3.99805 -0.24645,0.92557 -0.14513,1.90866 -0.15061,2.86161 2.08665,-0.0767 4.46358,0.62436 6.29829,-0.6846 1.27061,-0.77769 2.533,-1.54718 3.82005,-2.28655 4.31022,-2.46455 9.27217,-5.38913 10.54279,-10.57017 0.20812,-2.34953 0.47374,-4.92635 -0.53399,-7.13349 -2.62337,-4.64431 -7.51687,-7.50867 -12.44596,-9.1736 -1.79913,-0.5463 -3.68648,-1.16869 -5.57262,-1.12274 z m 2.06748,3.24499 c 4.7867,1.98259 9.25848,5.30151 11.78875,9.91296 1.32539,2.31119 1.30895,5.57535 -0.73936,7.4758 -1.87306,1.80185 -4.38963,2.78219 -6.53106,4.16233 -0.68459,0.45458 -1.56909,0.19169 -2.34131,0.27384 0.0165,-5.70679 0.11775,-11.41906 -0.67091,-17.08753 -0.58601,-1.54992 -1.08987,-3.13819 -1.50611,-4.7374 z m 1.50611,4.7374 c 0.24022,-0.0949 0.4997,-0.16428 0.75306,-0.19169 -0.25731,0.0254 -0.50866,0.0951 -0.75306,0.19169 z m 5.75062,3.65575 c 0.31095,0.37771 0.62433,0.76073 0.91736,1.15012 -0.29486,-0.3921 -0.60444,-0.76977 -0.91736,-1.15012 z m 2.09486,3.16284 c 0.063,0.22181 0.0959,0.45466 0.12323,0.6846 -0.0271,-0.22946 -0.0605,-0.46317 -0.12323,-0.6846 z m 0.0959,2.08117 c -0.0712,0.45924 -0.19935,0.91381 -0.36967,1.34182 0.16926,-0.42902 0.30016,-0.88137 0.36967,-1.34182 z m -1.3418,2.76577 c -0.0841,0.0788 -0.17136,0.15966 -0.26015,0.23277 0.0913,-0.0751 0.17376,-0.1517 0.26015,-0.23277 z m -1.41027,0.99952 c -0.4087,0.22488 -0.83196,0.42299 -1.25966,0.61613 0.42821,-0.19314 0.85027,-0.39125 1.25966,-0.61613 z"
       id="path226" />
    <path
       d="m 478.55466,333.70821 c 1.22132,-1.75804 2.06475,-4.67716 4.62787,-4.62239 2.19619,3.77898 -0.89271,7.74416 -2.82601,10.9152 -2.10856,3.19844 -3.23129,6.89527 -4.61143,10.43873 -1.99904,5.35629 -4.81409,10.4716 -5.62466,16.20029 -0.63531,2.96295 -1.30895,6.77477 -4.5238,7.97967 -2.3605,-4.11306 -3.24226,-8.81213 -4.73193,-13.26475 -3.18201,-9.20098 -6.64881,-18.37458 -8.29184,-28.01369 -0.20812,-1.22132 -0.0931,-2.47002 0.0439,-3.69135 1.10083,0.46553 2.57955,0.72294 2.90269,2.08665 3.83374,11.46289 7.56341,22.96411 11.18904,34.4982 5.23031,-10.35657 6.57213,-22.19188 11.84626,-32.52656 z"
       id="path232"
       style="fill:#000000" />
    <path
       style="fill:#000000"
       d="m 528.21257,328.77912 c -2.66172,2.1688 -2.9383,5.96146 -4.69635,8.77653 -1.2487,2.1195 -2.85887,4.61418 -5.55891,4.83325 -3.93233,0.62982 -8.5602,-0.0301 -11.69291,2.94377 -3.76254,3.68038 -4.95375,9.29682 -4.61419,14.39022 0.0986,4.04186 2.54122,7.4977 5.06601,10.46063 -1.08987,3.17104 -1.90865,6.44342 -1.90318,9.81711 0.59698,1.19942 1.33361,2.30846 2.17702,3.35452 1.58279,-2.88625 1.70876,-6.24625 2.65625,-9.35158 0.16976,-0.67912 0.33955,-1.35824 0.52028,-2.02641 2.24548,0.16431 4.50191,0.36421 6.76382,0.28753 2.59052,-0.471 5.16459,-1.35002 7.31149,-2.91638 3.78993,-2.9465 6.78025,-6.74464 10.10465,-10.1731 0.76126,-0.85986 1.63755,-1.6978 2.05379,-2.79315 -0.64626,-1.86758 -1.94973,-3.40382 -3.067,-4.99757 -2.52478,-3.47227 -5.27961,-6.77476 -8.26992,-9.85819 1.09536,-2.99578 2.7959,-5.73691 3.84743,-8.74913 0.59697,-1.38564 -0.19443,-2.73839 -0.69828,-3.99805 z m -4.31297,16.78631 c 3.7735,2.91364 4.31297,8.04537 7.46211,11.44645 -2.5248,3.85565 -5.2358,7.7825 -9.33791,10.10464 -3.17105,1.94974 -7.07051,1.86759 -10.62493,1.36919 2.00997,-4.91265 3.70778,-9.94308 5.91492,-14.77358 1.57731,-3.11081 3.44762,-6.38318 6.58581,-8.1467 z m -7.57164,1.10904 c 0.3573,-0.006 0.70856,-0.003 1.06798,0.0137 -1.64304,3.85566 -3.97614,7.37722 -5.69585,11.20001 -1.30347,2.55765 -2.15237,5.31246 -3.47775,7.85916 -2.77124,-5.55893 -1.91961,-12.25154 0.78045,-17.66259 2.37211,-0.76196 4.82411,-1.36325 7.32517,-1.41027 z"
       id="path234" />
    <path
       style="fill:#000000"
       d="m 397.44092,332.32533 c -0.95843,0.33956 -1.86485,0.89819 -2.34132,1.83472 -0.58054,1.67041 -1.50611,3.17926 -2.51931,4.61418 -1.36372,-1.30347 -3.12177,-2.24548 -5.06602,-1.80733 -6.26543,0.49838 -10.55373,6.90072 -10.26895,12.8704 -0.0821,3.10535 1.48695,5.90945 3.32714,8.29731 -1.44587,4.53478 -3.94327,8.77106 -4.43618,13.56871 -0.38338,1.49517 1.2843,2.23727 2.23178,3.02592 0.36148,0.16978 1.0844,0.50113 1.45135,0.6709 0.87627,-1.36371 1.89496,-2.72469 2.16332,-4.36771 0.79414,-3.31346 -0.0301,-7.076 1.90318,-10.04989 2.73291,-2.82054 7.30327,-1.08167 10.36479,-3.29975 0.94749,-0.71199 1.94973,-1.67864 1.97164,-2.94377 0.0165,-4.11305 -1.55814,-8.12206 -1.16381,-12.24059 1.1063,-2.32763 3.39012,-4.17329 3.53251,-6.90073 -0.1643,-1.15559 -0.70102,-2.20987 -1.15012,-3.27237 z m -9.72127,8.74915 c 0.48744,0.7284 1.01047,1.45134 1.41026,2.24546 -0.68459,1.84568 -2.2126,3.20118 -3.23129,4.86064 -1.30347,1.72518 -2.00724,3.82553 -3.35452,5.51786 -1.50064,-3.22035 -1.82103,-7.0048 -1.0269,-10.43326 1.92783,-1.05154 4.09937,-1.58827 6.20245,-2.1907 z m 4.34035,6.46259 c 0.14238,2.24 0.56136,4.45535 0.69828,6.69536 -1.39657,1.72518 -3.69956,2.19343 -5.7643,2.61515 1.32538,-3.28606 3.17653,-6.32568 5.06602,-9.31051 z"
       id="path240" />
    <path
       d="m 313.96669,336.45207 c 0.90366,0.31766 1.91687,0.59698 2.46454,1.46779 0.86534,2.23999 0.69556,4.69906 0.67365,7.05407 2.65076,0.20813 5.30152,0.14788 7.95775,0.20813 0.7777,-0.0712 1.42944,0.37241 2.08665,0.72293 -0.7558,1.54445 -1.78543,2.91912 -2.82601,4.27735 -2.53028,-0.0219 -5.05507,0.0165 -7.58533,-0.0603 -1.27609,3.42846 0.21907,7.04861 -0.67912,10.4935 -0.51482,-0.0165 -1.54446,-0.0439 -2.05379,-0.0603 -2.27286,-3.16557 -0.46553,-7.0267 -0.48196,-10.53731 -3.03412,-0.0165 -6.07921,0.13692 -9.11335,-0.0657 -0.93653,-0.12597 -1.82377,-0.46552 -2.711,-0.77222 0.19716,-1.13917 -0.31765,-2.97389 1.04058,-3.49965 3.67492,-0.37791 7.37174,-0.44911 11.06857,-0.5696 -0.0383,-2.88625 -0.20265,-5.78894 0.15882,-8.65877 z"
       id="path246"
       style="fill:#000000" />
    <path
       d="m 431.4599,352.76191 c 5.81634,-0.88724 11.95031,-2.43169 17.73379,-0.65722 -0.1643,1.64303 0.50934,3.64206 -0.71746,4.99482 -1.30895,0.25741 -2.65076,0.15335 -3.97066,0.16978 -5.23032,-0.0657 -10.46064,0.12049 -15.69095,0.0657 -0.63531,-1.64851 -1.28705,-3.29701 -1.69781,-5.01672 1.51159,-0.29028 2.8534,0.8708 4.34309,0.44362 z"
       id="path258"
       style="fill:#000000" />
    <path
       d="m 360.61784,357.33501 c 0.86533,-1.27061 2.96294,-0.48195 3.0177,0.96391 0.18073,1.77995 0.13144,3.57633 0.26288,5.36724 1.183,-0.91462 2.25096,-2.01545 3.59277,-2.70004 1.50611,-0.35599 2.8315,0.82698 3.7735,1.8621 1.92235,2.46454 2.80411,5.80538 2.15237,8.88879 -1.01869,-0.29026 -2.03188,-0.58601 -3.05056,-0.88175 -0.38338,-2.15238 -0.78866,-4.31023 -1.57731,-6.35853 -1.99902,1.17202 -3.37918,3.06151 -4.97292,4.69358 -1.23775,-0.92009 -2.32762,-2.00997 -3.37369,-3.1327 -0.64625,1.01319 -1.27061,2.03735 -1.85115,3.0889 -1.30894,2.39882 -2.61789,4.82503 -4.52929,6.8131 -0.74483,-0.46006 -1.46777,-1.02416 -1.62112,-1.93878 0.42719,-3.99805 3.13271,-7.13623 4.92909,-10.58113 1.17751,-1.97711 1.96617,-4.17329 3.24773,-6.08469 z"
       id="path260"
       style="fill:#000000" />
    <path
       d="m 295.09373,384.42861 c 0.89271,-0.29027 1.19941,0.0165 0.91462,0.91461 -0.89271,0.27932 -1.19393,-0.0274 -0.91462,-0.91461 z"
       id="path264"
       style="fill:#a6a4ad" />
  </g>
  <g
     inkscape:groupmode="layer"
     id="layer4"
     inkscape:label="Higgs"
     style="display:none">
    <path
       d="m 292.55007,233.98883 c 0.36696,0.0274 1.10084,0.0877 1.47326,0.11501 -0.45457,2.96294 -1.76352,5.6849 -2.78768,8.47805 -1.56636,4.19521 -3.29701,8.3466 -5.64107,12.17486 -0.19716,0.35052 -0.59149,1.04606 -0.78866,1.3911 3.48323,1.56088 7.3115,0.78319 10.89877,0.0931 1.06798,-0.19169 2.15786,-0.23551 3.24226,-0.23551 -0.60244,2.63434 -3.4175,3.64754 -5.78895,4.02544 -3.43394,0.7777 -6.95002,0.15335 -10.41682,0.3067 -3.01223,3.32988 -3.45584,8.30279 -6.25995,11.82435 -0.69008,1.03511 -1.98807,0.96391 -3.08342,1.07893 -0.13692,-2.15786 0.18074,-4.34856 1.09535,-6.31472 1.40753,-3.17653 3.37917,-6.05185 5.28509,-8.94358 -1.05701,-1.64303 -2.16881,-3.26415 -3.06152,-5.01124 -1.47325,-2.74386 -1.99355,-6.04088 -1.10631,-9.05858 0.32313,0 0.97487,0 1.298,0 1.02963,2.80958 1.31991,6.05183 3.54894,8.25898 0.43267,0.52028 0.89272,1.01867 1.35825,1.51706 1.30347,-2.76578 2.34953,-5.6356 3.57086,-8.43423 1.91686,-4.01996 4.15138,-7.95228 7.1636,-11.26573 z"
       id="path126-3"
       style="fill:#4178c5;fill-opacity:1;display:inline" />
    <path
       d="m 334.05307,237.64184 c 0.85437,-0.19716 1.71423,-0.34503 2.56312,-0.57506 0.43815,0.72294 1.11727,1.39658 1.06249,2.31667 0.0712,2.78769 0.39982,5.56988 1.10084,8.27541 0.69555,2.97389 1.34728,5.95873 2.4043,8.82855 0.26288,4.10211 0.82152,8.36303 -0.64078,12.31727 -1.15013,1.78543 -2.15785,3.77897 -3.89946,5.06602 -4.17878,0.96938 -9.16264,-2.0538 -9.45839,-6.53927 0.93653,0.13692 1.88401,0.27384 2.80411,0.52576 1.61565,0.48196 3.47228,2.25096 5.08792,0.90367 1.35824,-1.55539 2.30572,-3.45036 2.51932,-5.52058 1.0844,-5.31795 -0.24098,-10.68519 -1.3418,-15.87717 -1.50064,3.20392 -2.44264,6.84596 -5.09342,9.35433 -1.41848,1.45682 -3.78444,2.13047 -5.63558,1.11726 -2.596,-1.40205 -3.81732,-4.36499 -4.32667,-7.12528 -0.33956,-3.37369 -0.46552,-6.98288 1.16109,-10.07179 0.51482,0.0494 1.54446,0.1424 2.05378,0.19169 -0.0274,1.84567 -0.29574,3.6804 -0.36692,5.52607 -0.18623,3.11628 1.09534,6.02444 2.18521,8.86689 2.50289,-0.44362 4.05829,-2.72744 5.04411,-4.8798 1.67589,-3.80089 1.98808,-7.99062 2.43717,-12.06533 0.0877,-0.15882 0.2574,-0.47648 0.33956,-0.63531 z"
       id="path130-6"
       style="fill:#4178c5;fill-opacity:1;display:inline" />
    <path
       style="fill:#4178c5;fill-opacity:1;display:inline"
       d="m 431.79976,237.51588 c -2.20165,1.84019 -3.52702,4.43618 -4.84694,6.92811 -0.3286,0.62436 -0.64899,1.25966 -0.97212,1.88949 -2.96294,-1.16108 -5.99707,-2.11404 -9.09144,-2.84792 -0.20264,0.82151 -0.31767,1.65672 -0.38338,2.50562 0.59696,0.31218 1.2049,0.64079 1.80732,0.95844 -2.19617,0.86533 -4.32664,2.16058 -5.53153,4.25818 -1.92781,3.42299 -2.20165,7.66201 -1.06797,11.3917 0.59149,2.1907 2.29477,3.77897 3.83374,5.33984 -1.23774,3.62563 -2.41525,7.27316 -3.58729,10.92617 -0.44909,1.34728 -0.70375,2.79041 -0.36968,4.20342 0.84344,0.14787 1.68959,0.29574 2.53301,0.43814 0.41076,-0.71746 0.81603,-1.43765 1.17751,-2.17701 1.52255,-4.16235 2.50288,-8.52461 4.38141,-12.5555 3.08891,-0.0766 6.07375,-0.94201 8.84499,-2.27287 3.10535,-1.3418 5.09615,-4.35676 6.09292,-7.48948 0.20264,-2.53027 0.4354,-5.30699 -0.91736,-7.58533 -1.04059,-1.79091 -2.84792,-2.89174 -4.54573,-3.97066 0.33957,-0.90366 0.67638,-1.80734 1.02689,-2.71101 0.63532,-1.63755 1.28432,-3.26963 1.79365,-4.95647 -0.0494,-0.76128 -0.1068,-1.51707 -0.178,-2.27286 z m -7.32517,11.72029 c -1.90044,4.92361 -4.67443,9.46934 -6.69536,14.34915 -2.40979,-2.02642 -3.39833,-5.30974 -3.38191,-8.36577 0.12596,-2.27834 1.37467,-5.26045 4.02543,-5.32617 2.04832,0.0766 4.04733,-0.25741 6.05184,-0.65721 z m 2.38239,2.60147 c 1.81281,0.69007 3.40381,2.13594 3.90221,4.05281 1.28704,3.7735 -1.16383,8.39315 -5.05233,9.35159 -1.50611,0.36146 -3.07247,0.1643 -4.6005,0.10954 1.47875,-4.67169 4.06376,-8.91345 5.75062,-13.51394 z"
       id="path132-1" />
    <path
       d="m 386.37267,240.18307 c 0.85985,-0.88724 2.08665,-1.21585 3.23679,-1.54445 -1.45135,5.49319 -4.69362,10.27442 -7.0541,15.39521 -0.32861,0.71197 -0.63529,1.42943 -0.93653,2.15784 4.58955,1.85662 9.29957,-0.19169 13.97125,-0.30122 0.0439,2.47003 -1.45133,4.77027 -3.87208,5.44938 -4.03637,0.93106 -8.08918,-0.47648 -12.07629,-1.0351 -1.91137,3.72968 -3.71324,7.53603 -5.06601,11.51217 -0.83795,1.56636 -1.72519,3.10533 -2.65075,4.62239 -0.37243,-0.1862 -1.10631,-0.55315 -1.47873,-0.73387 -0.2136,-1.85663 -0.38338,-3.81732 0.41076,-5.56989 1.53897,-3.57086 3.23129,-7.08147 4.75384,-10.66327 0.33957,-0.78866 0.54221,-1.62661 0.56958,-2.48098 -2.03736,-2.45907 -3.75706,-5.2577 -4.48,-8.39589 -0.37242,-1.22681 1.14464,-1.70876 1.80734,-2.43717 2.07569,2.19619 3.21486,5.06054 5.1646,7.36079 2.37145,-4.54024 3.97065,-9.65555 7.70033,-13.33594 z"
       id="path136-0"
       style="fill:#4178c5;fill-opacity:1;display:inline" />
    <path
       d="m 239.7759,239.86541 c 0.31764,-0.27931 0.95844,-0.83247 1.27608,-1.11178 1.16655,2.15236 1.87854,4.52929 1.8183,6.99931 2.41525,0.11502 4.84146,0.22455 7.24577,0.47648 1.01867,-0.006 1.42395,1.05154 2.02092,1.68684 -0.32313,0.20264 -0.97486,0.60793 -1.30347,0.81057 -2.85888,0.73936 -5.82729,0.65174 -8.75736,0.65174 -0.36147,4.83598 -0.2574,9.69935 -0.44909,14.54631 -0.95296,-0.21907 -1.89497,-0.47101 -2.84793,-0.69555 -1.42944,-3.75707 -1.31442,-7.8044 -0.55315,-11.69292 0.0712,-0.39981 0.21907,-1.19393 0.29026,-1.59374 -2.8041,-0.56958 -5.66298,-0.82152 -8.46161,-1.40753 -0.942,-0.20812 -1.94425,-0.44362 -2.65623,-1.14464 -0.83247,-0.59149 -0.37789,-1.6759 -0.33409,-2.50837 3.98162,0.2136 7.95228,0.65175 11.93389,0.83247 0.4984,-1.91687 0.67912,-3.88302 0.77771,-5.84919 z"
       id="path138-5"
       style="fill:#4178c5;fill-opacity:1;display:inline" />
    <path
       d="m 469.86059,244.81094 c 0.0877,-0.827 0.65723,-1.45135 1.12276,-2.0976 0.57505,0.93105 1.12272,1.90043 1.34727,2.99031 1.56636,6.68714 0.87081,13.59882 0.93105,20.3955 1.82376,-1.94973 3.64753,-4.09662 6.21613,-5.07696 1.53351,-0.66269 3.23131,-0.62984 4.86886,-0.64626 1.97712,4.8086 3.82826,9.67197 5.96421,14.41486 -0.006,0.46553 -0.0165,1.39658 -0.0274,1.8621 -1.51708,0.6134 -3.23677,0.1424 -4.65527,-0.51482 -0.73936,-0.75031 -0.81056,-1.86757 -1.08988,-2.82053 -0.60792,-2.9246 -1.48421,-5.78896 -1.94425,-8.74094 -2.63432,0.96941 -5.18103,2.4536 -6.89525,4.72646 -1.30895,1.71423 -1.0625,4.33761 -3.02319,5.56989 -0.9146,-0.9201 -1.99353,-1.71423 -2.66171,-2.83698 -0.64077,-2.42073 -0.86533,-4.94552 -0.99129,-7.44293 -0.13144,-4.25545 -0.11501,-8.51639 -0.0274,-12.77184 0.0986,-2.35501 0.50935,-4.68811 0.86533,-7.01026 z"
       id="path146-4"
       style="fill:#4178c5;fill-opacity:1;display:inline" />
    <path
       d="m 302.07966,254.74033 c 1.85663,-0.97486 3.99257,-0.99678 5.93683,-0.24646 -0.47649,0.87081 -0.98034,1.73066 -1.43492,2.61242 -0.57506,0.21908 -1.14464,0.44362 -1.70875,0.67912 -0.95296,-0.99677 -1.90045,-1.99903 -2.79316,-3.04508 z"
       id="path170-1"
       style="fill:#4178c5;fill-opacity:1;display:inline" />
    <path
       d="m 453.70959,254.28027 c 0.66269,0.0657 1.33087,0.13692 2.00451,0.2136 0.18621,1.80186 0.30669,3.60919 0.51481,5.41653 3.69683,0.12596 7.45388,-0.93105 11.09047,0.13144 -0.62435,1.17203 -1.06796,2.85888 -2.59599,3.09437 -2.90268,0.41624 -5.84372,0.022 -8.76284,0.12597 0.44909,3.0177 0.75032,6.05732 0.99676,9.1024 -1.13916,-0.15334 -2.88624,0.43814 -3.5106,-0.85986 -0.6134,-2.65075 -0.67364,-5.40009 -0.71199,-8.11109 -2.57408,-0.35052 -5.23578,-0.47649 -7.67293,-1.44039 -0.60245,-0.56411 -0.67365,-1.19941 -0.22456,-1.90592 2.59051,-1.3199 5.52059,-0.53125 8.25897,-0.26289 0.15335,-1.84019 0.33408,-3.68039 0.61339,-5.50416 z"
       id="path172-6"
       style="fill:#4178c5;fill-opacity:1;display:inline" />
    <path
       d="m 400.33296,258.78766 c 0.86535,-0.44362 1.77448,-0.77222 2.69459,-1.08988 -0.70652,2.71101 -2.00451,5.23032 -3.66944,7.47032 -1.13919,1.01868 -2.33859,1.96617 -3.54348,2.90816 -0.47648,-0.5422 -0.95296,-1.07344 -1.42944,-1.60469 0.86533,-1.45134 1.81283,-2.8534 2.86984,-4.1733 0.99128,-1.19941 2.02092,-2.36596 3.07793,-3.51061 z"
       id="path178-4"
       style="fill:#4178c5;fill-opacity:1;display:inline" />
    <path
       d="m 347.77238,259.19842 c 1.66493,-1.61018 3.29154,0.98582 3.22036,2.58504 -0.712,0.50386 -1.43492,0.99676 -2.1743,1.46777 -0.54768,-1.29252 -1.00225,-2.63432 -1.04606,-4.05281 z"
       id="path180-0"
       style="fill:#4178c5;fill-opacity:1;display:inline" />
    <path
       d="m 358.13991,258.74932 c 0.94201,0.12049 1.99355,0.23551 2.57957,1.10083 0.33407,1.2268 -0.43814,2.33311 -0.88725,3.41203 -2.69457,0.37791 -2.67265,-2.85339 -1.69232,-4.51286 z"
       id="path182-6"
       style="fill:#4178c5;fill-opacity:1;display:inline" />
    <path
       d="m 301.17599,261.54248 c 0.39981,0.0548 1.19942,0.16431 1.59922,0.21907 -0.0383,1.5335 -0.15883,3.06699 -0.22455,4.60596 1.08441,0.83248 2.54123,1.54993 2.73292,3.07247 -1.36372,2.22358 -6.39139,0.74484 -5.75609,-2.16879 0.0986,-2.02094 0.73389,-3.94329 1.6485,-5.72871 z"
       id="path184-2"
       style="fill:#4178c5;fill-opacity:1;display:inline" />
    <path
       d="m 512.86422,262.01348 c 2.12498,-0.81604 4.67716,-0.38338 6.18326,1.40205 -0.71745,0.75579 -1.26513,2.09761 -2.51929,1.92235 -4.94005,-0.23002 -9.65008,2.53026 -12.61849,6.35853 0.71745,1.05155 1.3692,2.27286 2.59598,2.81506 2.92459,1.45682 6.31472,1.74162 9.16811,3.37918 0.8982,0.47099 1.15561,1.52801 1.61019,2.36048 -2.61791,2.03189 -6.07375,1.02963 -8.83951,-0.11501 -3.57087,-1.40205 -6.59952,-4.22807 -8.04537,-7.79892 -0.5696,-1.298 -0.15884,-2.83698 0.95293,-3.69682 3.29703,-3.00127 7.32245,-5.15913 11.51219,-6.6269 z"
       id="path186-5"
       style="fill:#4178c5;fill-opacity:1;display:inline" />
    <path
       d="m 345.62002,272.68771 c -0.54768,-3.22034 -0.94202,-6.8624 0.89817,-9.75961 0.84344,0.30123 1.68139,0.61887 2.51932,0.94201 0.29575,2.83148 -0.0494,5.67941 0.0109,8.52185 0.92558,0.0329 1.86211,0.0657 2.79863,0.10954 0.0931,0.32861 0.27932,0.98582 0.3779,1.31443 -1.1556,1.14464 -2.70005,1.9333 -4.33761,2.03188 -1.14463,-0.70102 -1.70875,-1.99902 -2.26738,-3.1601 z"
       id="path188-8"
       style="fill:#4178c5;fill-opacity:1;display:inline" />
    <path
       d="m 355.8561,263.49769 c 0.81056,0.0877 1.6266,0.13692 2.4262,0.3286 0.93106,0.71746 1.02417,1.98806 1.35824,3.03414 0.65721,2.99031 1.9333,6.02445 1.16109,9.1243 -0.36696,2.53575 -1.78543,4.69907 -2.91913,6.93907 -1.16108,0.55863 -2.27832,1.30347 -3.56538,1.53349 -1.98806,-0.36694 -2.68909,-2.47002 -3.5325,-4.01994 2.03734,-0.53125 4.74288,0.21359 5.97514,-1.98807 2.77124,-4.69908 0.42719,-10.1868 -0.90366,-14.95159 z"
       id="path190-8"
       style="fill:#4178c5;fill-opacity:1;display:inline" />
    <path
       d="m 399.12808,266.30727 c 0.45458,-0.0877 1.36372,-0.26289 1.81828,-0.35052 1.19943,1.65399 2.13047,3.60372 1.84568,5.70681 -0.31217,3.02317 -0.94201,6.36401 -3.08341,8.64782 -1.8402,0.6353 -3.8228,0.68459 -5.73968,0.87081 -0.26836,-0.63531 -0.53124,-1.27062 -0.78317,-1.90592 -0.19715,-1.26514 -0.0109,-2.53027 0.20812,-3.77349 1.82377,0.37788 4.26641,2.62336 5.60821,0.26836 1.19941,-2.99033 0.0109,-6.33664 0.12597,-9.46387 z"
       id="path196-1"
       style="fill:#4178c5;fill-opacity:1;display:inline" />
    <path
       d="m 491.14335,275.64517 c 0.82152,-1.0625 1.76351,-2.01546 2.74385,-2.9246 0.38338,0.11501 1.14464,0.35051 1.52255,0.46553 0.31764,1.98807 -1.52255,3.42846 -2.01547,5.25223 -1.08438,-0.18074 -2.16878,-0.36148 -3.23677,-0.59698 0.31219,-0.73936 0.58603,-1.50063 0.98584,-2.19618 z"
       id="path200-1"
       style="fill:#4178c5;fill-opacity:1;display:inline" />
    <path
       d="m 520.54266,278.52048 c 1.77446,-0.71199 3.78444,-0.36148 5.40557,0.56958 0.8708,0.57505 0.471,1.73613 0.6134,2.60694 -1.99356,0.93105 -4.22808,0.71198 -6.11208,-0.36694 0.0219,-0.94201 0.0548,-1.87854 0.0931,-2.80958 z"
       id="path202-3"
       style="fill:#4178c5;fill-opacity:1;display:inline" />
    <path
       d="m 262.99194,296.84575 c -0.0821,-0.90913 1.35276,-0.942 1.54445,-0.11501 0.56411,3.09437 0.69555,6.25447 0.99129,9.38718 0.64079,11.33145 0.0821,22.72314 -1.2268,33.98886 -0.37789,2.43169 -0.14787,5.21389 -1.90591,7.18005 -0.59696,0.18621 -1.21037,0.33408 -1.82377,0.4491 -0.84889,-4.72646 0.26289,-9.4803 0.35599,-14.21771 0.18074,-5.0934 0.62983,-10.17037 0.58602,-15.26924 0.56958,-7.13075 0.88724,-14.27794 1.47873,-21.40323 z"
       id="path206-9"
       style="fill:#4178c5;fill-opacity:1;display:inline" />
    <path
       d="m 329.1623,299.57866 c -0.16428,-3.7954 4.84696,-4.09115 7.5032,-3.12176 1.6704,0.52577 3.32987,1.08441 4.9948,1.62113 l 0.4765,0.15334 c -0.0329,2.13595 -1.0187,4.15141 -2.48099,5.67942 -1.85663,1.74709 -3.95971,3.22034 -5.77799,5.01672 1.82924,0.83794 3.74611,1.50064 5.49867,2.49741 1.09536,0.88725 1.13917,2.32764 0.78865,3.58181 -3.65848,-0.15883 -7.20194,-1.65946 -10.13202,-3.78445 -0.60792,-2.44264 0.92009,-4.82504 2.67814,-6.38592 1.97164,-1.56087 4.1952,-2.80957 5.90944,-4.68264 -1.56088,-0.45457 -3.182,-0.83246 -4.8086,-0.50934 -1.54992,0.21907 -3.12176,0.2848 -4.6498,-0.0657 z"
       id="path208-0"
       style="fill:#4178c5;fill-opacity:1;display:inline" />
    <path
       d="m 426.86793,301.46814 c 0.8982,-0.88723 2.26738,-0.37241 3.39561,-0.4929 0.12597,1.58826 -0.44363,3.24773 -1.90592,4.05281 -3.32988,1.68685 -4.68811,5.3289 -6.71453,8.22611 -4.18426,6.56665 -7.8263,13.99863 -7.72225,21.95638 0.5203,8.06181 3.55443,16.48509 10.01702,21.66611 -1.05701,1.91687 -3.57087,1.88949 -5.37819,1.24872 -4.72098,-3.34083 -7.37172,-8.87786 -8.55472,-14.4094 -1.59374,-7.74963 -0.76674,-15.99217 2.48647,-23.21603 3.34081,-7.28959 8.35207,-13.75766 14.37651,-19.0318 z"
       id="path216-8"
       style="fill:#4178c5;fill-opacity:1;display:inline" />
    <path
       d="m 324.29893,302.5197 c 0.45457,-0.0165 1.37468,-0.0494 1.82925,-0.0603 1.64303,5.70679 -0.0274,11.60527 0.0766,17.40518 -0.006,7.18552 0.5203,14.36009 1.00772,21.52371 0.10406,3.87755 0.15336,7.75512 0.0165,11.63267 -1.49516,0.27383 -4.28283,1.19393 -4.83598,-0.75032 -0.0877,-4.04734 -0.0603,-8.10015 0.0712,-12.14749 0.41076,-5.83275 0.24098,-11.68742 0.72842,-17.50923 0.24645,-5.97517 0.81056,-11.92841 0.76676,-17.90906 0.0439,-0.74483 0.19714,-1.46229 0.33953,-2.18522 z"
       id="path220-9"
       style="fill:#4178c5;fill-opacity:1;display:inline" />
    <path
       d="m 456.78207,302.799 c 0.81604,0.38885 1.63756,0.78866 2.43716,1.23776 3.29702,1.71423 6.05183,4.30474 8.28088,7.25124 5.08244,6.53927 9.37076,14.03149 10.64138,22.32333 0.78317,5.01672 -1.14465,10.03344 -3.9433,14.1246 -3.30796,4.74835 -7.78248,9.075 -13.52761,10.58111 -3.32988,0.89272 -7.54699,1.18847 -10.00059,-1.72518 5.54796,-3.50513 12.43228,-4.51834 17.5202,-8.83951 3.30249,-2.59051 5.41106,-6.65975 5.37271,-10.88782 0.33956,-5.12078 -1.3199,-10.15942 -3.96518,-14.49702 -2.95746,-4.75383 -6.53379,-9.13525 -10.6578,-12.93065 -1.42944,-1.30348 -2.56861,-2.91365 -3.18201,-4.74837 0.26836,-0.66816 0.65722,-1.27608 1.02416,-1.88949 z"
       id="path224-6"
       style="fill:#4178c5;fill-opacity:1;display:inline" />
    <path
       style="fill:#4178c5;fill-opacity:1;display:inline"
       d="m 270.87849,303.41514 c -0.62872,0.0153 -1.26377,0.10953 -1.88949,0.30122 0.59149,1.06798 1.37467,2.04558 1.83473,3.19023 0.10953,2.86434 -0.58054,5.70132 -0.43815,8.57115 0.17526,4.02542 0.55041,8.03442 0.83521,12.04889 0.27384,1.75805 -1.59374,2.62338 -2.30025,3.99805 -0.24645,0.92557 -0.14513,1.90866 -0.15061,2.86161 2.08665,-0.0767 4.46358,0.62436 6.2983,-0.6846 1.2706,-0.77769 2.533,-1.54718 3.82004,-2.28655 4.31022,-2.46455 9.27218,-5.38913 10.5428,-10.57017 0.20812,-2.34953 0.47374,-4.92635 -0.534,-7.13349 -2.62336,-4.64431 -7.51686,-7.50867 -12.44596,-9.1736 -1.79912,-0.5463 -3.68648,-1.16869 -5.57262,-1.12274 z m 2.06748,3.24499 c 4.7867,1.98259 9.25848,5.30151 11.78876,9.91296 1.32538,2.31119 1.30894,5.57535 -0.73936,7.4758 -1.87306,1.80185 -4.38964,2.78219 -6.53106,4.16233 -0.6846,0.45458 -1.5691,0.19169 -2.34132,0.27384 0.0165,-5.70679 0.11776,-11.41906 -0.6709,-17.08753 -0.58602,-1.54992 -1.08988,-3.13819 -1.50612,-4.7374 z m 1.50612,4.7374 c 0.24022,-0.0949 0.4997,-0.16428 0.75306,-0.19169 -0.25732,0.0254 -0.50867,0.0951 -0.75306,0.19169 z m 5.75062,3.65575 c 0.31094,0.37771 0.62432,0.76073 0.91736,1.15012 -0.29487,-0.3921 -0.60444,-0.76977 -0.91736,-1.15012 z m 2.09486,3.16284 c 0.063,0.22181 0.0959,0.45466 0.12322,0.6846 -0.0271,-0.22946 -0.0605,-0.46317 -0.12322,-0.6846 z m 0.0959,2.08117 c -0.0712,0.45924 -0.19935,0.91381 -0.36967,1.34182 0.16926,-0.42902 0.30016,-0.88137 0.36967,-1.34182 z m -1.3418,2.76577 c -0.0841,0.0788 -0.17136,0.15966 -0.26015,0.23277 0.0913,-0.0751 0.17376,-0.1517 0.26015,-0.23277 z m -1.41027,0.99952 c -0.4087,0.22488 -0.83196,0.42299 -1.25966,0.61613 0.42821,-0.19314 0.85027,-0.39125 1.25966,-0.61613 z"
       id="path226-5" />
    <path
       d="m 400.42059,310.30218 c 1.22133,-1.75804 2.06476,-4.67716 4.62788,-4.62239 2.19619,3.77898 -0.89272,7.74416 -2.82601,10.9152 -2.10856,3.19844 -3.23129,6.89527 -4.61143,10.43873 -1.99904,5.35629 -4.81409,10.4716 -5.62466,16.20029 -0.63531,2.96295 -1.30895,6.77477 -4.5238,7.97967 -2.3605,-4.11306 -3.24226,-8.81213 -4.73193,-13.26475 -3.18201,-9.20098 -6.64881,-18.37458 -8.29184,-28.01369 -0.20812,-1.22132 -0.0931,-2.47002 0.0439,-3.69135 1.10083,0.46553 2.57955,0.72294 2.90269,2.08665 3.83374,11.46289 7.56342,22.96411 11.18904,34.4982 5.23031,-10.35657 6.57214,-22.19188 11.84626,-32.52656 z"
       id="path232-7"
       style="fill:#4178c5;fill-opacity:1;display:inline" />
    <path
       style="fill:#4178c5;fill-opacity:1;display:inline"
       d="m 450.07851,305.37309 c -2.66172,2.1688 -2.9383,5.96146 -4.69635,8.77653 -1.2487,2.1195 -2.85887,4.61418 -5.55891,4.83325 -3.93233,0.62982 -8.5602,-0.0301 -11.69291,2.94377 -3.76254,3.68038 -4.95375,9.29682 -4.61419,14.39022 0.0986,4.04186 2.54122,7.4977 5.06601,10.46063 -1.08987,3.17104 -1.90865,6.44342 -1.90318,9.81711 0.59698,1.19942 1.33361,2.30846 2.17702,3.35452 1.58279,-2.88625 1.70876,-6.24625 2.65625,-9.35158 0.16976,-0.67912 0.33954,-1.35824 0.52028,-2.02641 2.24548,0.16431 4.5019,0.36421 6.76382,0.28753 2.59052,-0.471 5.16459,-1.35002 7.31149,-2.91638 3.78993,-2.9465 6.78025,-6.74464 10.10465,-10.1731 0.76126,-0.85986 1.63755,-1.6978 2.05379,-2.79315 -0.64626,-1.86758 -1.94973,-3.40382 -3.067,-4.99757 -2.52478,-3.47227 -5.27961,-6.77476 -8.26992,-9.85819 1.09536,-2.99578 2.7959,-5.73691 3.84743,-8.74913 0.59697,-1.38564 -0.19443,-2.73839 -0.69828,-3.99805 z m -4.31297,16.78631 c 3.7735,2.91364 4.31297,8.04537 7.46211,11.44645 -2.5248,3.85565 -5.2358,7.7825 -9.33791,10.10464 -3.17105,1.94974 -7.07051,1.86759 -10.62493,1.36919 2.00997,-4.91265 3.70778,-9.94308 5.91492,-14.77358 1.57731,-3.11081 3.44762,-6.38318 6.58581,-8.1467 z m -7.57164,1.10904 c 0.3573,-0.006 0.70856,-0.003 1.06798,0.0137 -1.64304,3.85566 -3.97614,7.37722 -5.69585,11.20001 -1.30347,2.55765 -2.15237,5.31246 -3.47775,7.85916 -2.77124,-5.55893 -1.91961,-12.25154 0.78045,-17.66259 2.37211,-0.76196 4.82411,-1.36325 7.32517,-1.41027 z"
       id="path234-2" />
    <path
       style="fill:#4178c5;fill-opacity:1;display:inline"
       d="m 319.30686,308.9193 c -0.95844,0.33956 -1.86485,0.89819 -2.34133,1.83472 -0.58053,1.67041 -1.50611,3.17926 -2.51931,4.61418 -1.36372,-1.30347 -3.12177,-2.24548 -5.06601,-1.80733 -6.26544,0.49838 -10.55374,6.90072 -10.26896,12.8704 -0.0821,3.10535 1.48696,5.90945 3.32714,8.29731 -1.44587,4.53478 -3.94326,8.77106 -4.43618,13.56871 -0.38338,1.49517 1.2843,2.23727 2.23178,3.02592 0.36148,0.16978 1.0844,0.50113 1.45136,0.6709 0.87626,-1.36371 1.89495,-2.72469 2.16331,-4.36771 0.79415,-3.31346 -0.0301,-7.076 1.90319,-10.04989 2.73291,-2.82054 7.30327,-1.08167 10.36479,-3.29975 0.94749,-0.71199 1.94973,-1.67864 1.97164,-2.94377 0.0165,-4.11305 -1.55815,-8.12206 -1.16382,-12.24059 1.10631,-2.32763 3.39012,-4.17329 3.53252,-6.90073 -0.1643,-1.15559 -0.70102,-2.20987 -1.15012,-3.27237 z m -9.72128,8.74915 c 0.48744,0.7284 1.01047,1.45134 1.41027,2.24546 -0.6846,1.84568 -2.2126,3.20118 -3.23129,4.86064 -1.30347,1.72518 -2.00724,3.82553 -3.35452,5.51786 -1.50065,-3.22035 -1.82103,-7.0048 -1.02691,-10.43326 1.92784,-1.05154 4.09937,-1.58827 6.20245,-2.1907 z m 4.34035,6.46259 c 0.14239,2.24 0.56136,4.45535 0.69828,6.69536 -1.39656,1.72518 -3.69956,2.19343 -5.76429,2.61515 1.32537,-3.28606 3.17653,-6.32568 5.06601,-9.31051 z"
       id="path240-1" />
    <path
       d="m 235.83262,313.04604 c 0.90366,0.31766 1.91687,0.59698 2.46454,1.46779 0.86534,2.23999 0.69556,4.69906 0.67365,7.05407 2.65076,0.20813 5.30152,0.14788 7.95775,0.20813 0.7777,-0.0712 1.42944,0.37241 2.08665,0.72293 -0.7558,1.54445 -1.78543,2.91912 -2.82601,4.27735 -2.53028,-0.0219 -5.05507,0.0165 -7.58533,-0.0603 -1.27609,3.42846 0.21907,7.04861 -0.67912,10.4935 -0.51482,-0.0165 -1.54446,-0.0439 -2.05379,-0.0603 -2.27286,-3.16557 -0.46553,-7.0267 -0.48196,-10.53731 -3.03412,-0.0165 -6.07921,0.13692 -9.11335,-0.0657 -0.93653,-0.12597 -1.82377,-0.46552 -2.711,-0.77222 0.19716,-1.13917 -0.31765,-2.97389 1.04058,-3.49965 3.67492,-0.37791 7.37174,-0.44911 11.06857,-0.5696 -0.0383,-2.88625 -0.20265,-5.78894 0.15882,-8.65877 z"
       id="path246-0"
       style="fill:#4178c5;fill-opacity:1;display:inline" />
    <path
       d="m 353.32584,329.35588 c 5.81634,-0.88724 11.9503,-2.43169 17.73378,-0.65722 -0.16429,1.64303 0.50935,3.64206 -0.71745,4.99482 -1.30895,0.25741 -2.65076,0.15335 -3.97067,0.16978 -5.23032,-0.0657 -10.46064,0.12049 -15.69094,0.0657 -0.63531,-1.64851 -1.28706,-3.29701 -1.69782,-5.01672 1.5116,-0.29028 2.8534,0.8708 4.3431,0.44362 z"
       id="path258-3"
       style="fill:#4178c5;fill-opacity:1;display:inline" />
    <path
       d="m 282.48377,333.92898 c 0.86534,-1.27061 2.96294,-0.48195 3.0177,0.96391 0.18074,1.77995 0.13144,3.57633 0.26288,5.36724 1.183,-0.91462 2.25096,-2.01545 3.59278,-2.70004 1.5061,-0.35599 2.8315,0.82698 3.7735,1.8621 1.92234,2.46454 2.8041,5.80538 2.15236,8.88879 -1.01868,-0.29026 -2.03188,-0.58601 -3.05056,-0.88175 -0.38338,-2.15238 -0.78866,-4.31023 -1.5773,-6.35853 -1.99902,1.17202 -3.37918,3.06151 -4.97292,4.69358 -1.23776,-0.92009 -2.32762,-2.00997 -3.3737,-3.1327 -0.64625,1.01319 -1.2706,2.03735 -1.85115,3.0889 -1.30893,2.39882 -2.61789,4.82503 -4.52929,6.8131 -0.74483,-0.46006 -1.46776,-1.02416 -1.62112,-1.93878 0.42719,-3.99805 3.13271,-7.13623 4.92909,-10.58113 1.17751,-1.97711 1.96617,-4.17329 3.24773,-6.08469 z"
       id="path260-3"
       style="fill:#4178c5;fill-opacity:1;display:inline" />
  </g>
  <g
     inkscape:groupmode="layer"
     id="layer2"
     inkscape:label="t-shirt"
     style="display:inline"
     transform="translate(-78.134068,-23.40603)">
    <path
       style="fill:#ffffff;fill-opacity:0;stroke:#000000;stroke-width:3.20000005;stroke-linecap:butt;stroke-linejoin:miter;stroke-miterlimit:4;stroke-opacity:1;stroke-dasharray:none"
       d="m 267.7021,25.010073 c -2.86336,0.07733 -5.75467,0.859984 -8.41906,2.398285 L 88.62819,125.939 c -8.526073,4.92254 -11.417953,15.73186 -6.495459,24.25793 l 58.134099,100.70415 c 4.92252,8.52607 15.75683,11.41796 24.28291,6.49542 l 89.18721,-51.48876 0,321.91013 c 0,9.84508 7.94243,17.78751 17.78744,17.78751 l 329.4681,0 c 9.84503,0 17.76251,-7.94243 17.76251,-17.78751 l 0,-322.43476 90.11168,52.01339 c 8.52603,4.92254 19.33535,2.03065 24.25789,-6.49542 l 58.13407,-100.70415 c 4.9225,-8.52607 2.03063,-19.33539 -6.49541,-24.25793 L 614.13328,27.408358 c -3.46377,-1.999771 -7.31925,-2.708594 -10.99229,-2.273407 -0.70563,-0.08447 -1.41938,-0.124878 -2.1485,-0.124878 l -94.38353,0 c -1.39717,11.197325 -32.20146,20.160773 -69.92575,20.160773 -37.72434,0 -68.50365,-8.963448 -69.90084,-20.160773 l -95.25798,0 c -0.57281,0 -1.14007,0.0474 -1.69878,0.09997 -0.70905,-0.06685 -1.40729,-0.119257 -2.12351,-0.09997 z"
       id="path3299"
       sodipodi:nodetypes="ccccccccccccccccccccscccc" />
  </g>
  <g
     inkscape:groupmode="layer"
     id="layer3"
     inkscape:label="cern logo"
     style="display:inline"
     transform="translate(-78.134068,-23.40603)">
    <path
       d="m 727.11683,181.96713 -0.29161,-1.30922 c -3.79678,3.16977 -6.91212,4.63178 -11.57936,5.38789 l -1.68921,1.39157 c 5.42913,-0.48039 9.10156,-1.95392 13.56018,-5.47024 z m 6.348,-6.13618 c 5.14929,-7.14021 6.79031,-14.74813 4.88301,-22.58028 l -1.52591,-0.55032 c 2.12783,7.71614 0.64266,15.2996 -4.44106,22.34888 -1.17258,1.62595 -1.78461,2.28483 -3.09856,3.53375 l 0.18647,1.64668 c 1.66473,-1.54742 2.62804,-2.50177 3.99605,-4.39871 z m -59.13315,-27.53371 c -8.73322,12.10985 -5.92086,28.97414 6.18897,37.70736 8.76615,6.32186 20.41905,7.30681 28.85118,1.71157 l 2.0907,-1.37708 c 2.59909,-1.6988 4.80991,-3.81178 6.69991,-6.43254 8.73385,-12.11072 6.01242,-28.90945 -6.09742,-37.64267 -5.5125,-3.97543 -11.27009,-5.51786 -17.47772,-4.91057 l 2.99995,-1.68343 c 3.9894,-0.008 6.9919,0.78351 10.76602,2.40636 l 26.98154,11.35382 2.15792,1.0061 23.81408,10.03025 -0.91286,1.26581 -21.36979,-9.22959 -2.53455,-0.86712 -21.07257,-8.87705 c 5.30347,4.64855 7.94116,11.08466 9.31095,17.56712 l 3.81155,19.09573 0.31784,1.46635 3.92693,19.31714 -0.97715,1.35495 -3.90245,-19.16128 -0.35208,-2.17803 -2.74959,-13.52227 c -0.46308,5.0238 -2.15599,9.84767 -5.2192,14.09525 -1.43357,1.98785 -2.5014,3.27875 -4.34734,4.69415 l -2.98996,2.24077 c -5.05555,3.77284 -10.73503,5.17159 -16.75723,4.95055 l 16.65555,6.24041 -0.97779,1.35583 -23.72764,-9.00586 c -2.71551,-0.99762 -5.3912,-2.24025 -7.831,-3.99975 -12.74273,-9.18964 -15.70621,-26.98678 -6.6066,-39.79445 l 0.0649,-0.09 c 0,0 0,0 0.0656,-0.0909 l 30.0446,-41.66107 1.26491,0.91222 -24.63559,34.16071 c 4.22362,-2.99881 8.14194,-4.43187 13.26025,-4.86269 l -2.54801,2.00937 c -6.50693,1.21396 -11.95038,4.57018 -16.18681,10.44459 z m 12.68165,-5.9656 c -5.53951,7.68131 -6.68174,16.88608 -4.16689,25.01817 l 1.33522,-0.13601 c -2.48974,-7.97713 -1.29707,-16.87044 3.91651,-24.0998 1.62964,-2.25973 2.82732,-3.73071 5.05029,-5.28748 l 3.45637,-2.31633 c 8.56175,-5.77683 20.65507,-5.02305 29.60306,1.42995 4.60861,3.32358 7.32643,6.79443 9.24654,11.75098 l 1.64219,0.77237 c -1.3799,-4.56697 -3.57845,-7.80154 -7.25509,-11.27687 l -24.6596,-23.14145 -0.71743,0.99481 18.80503,17.54534 c -9.56322,-4.83705 -20.23665,-4.70372 -28.47696,1.57999 l -4.2632,3.24532 c -1.62604,1.30026 -2.21233,2.11324 -3.51604,3.92101 z m 7.25933,38.89121 c -0.27187,-0.19607 -0.54286,-0.3915 -0.81385,-0.58693 l -0.71679,0.99392 c 0.271,0.19543 0.47642,0.48179 0.74828,0.67785 4.78957,3.45408 9.43249,5.01648 14.96228,5.15748 l 2.05288,-1.1293 c -5.94688,0.24386 -10.99218,-1.33366 -16.2328,-5.11302 z m -4.26511,0.76969 c -2.41199,3.34457 -5.80832,4.05382 -8.7901,1.90345 -3.0727,-2.21592 -3.05605,-6.04948 -0.70962,-9.30313 0.78172,-1.08396 1.89999,-2.06341 2.97933,-2.79722 0.29546,0.35127 0.5918,0.70319 0.88853,1.05271 l -0.0656,0.0909 c -0.46641,0.0755 -2.15266,0.50855 -3.32588,2.13538 -2.01986,2.80082 -0.91887,5.65579 1.34085,7.28543 2.7108,1.95494 5.57577,1.41129 7.27034,-0.93848 1.23814,-1.71685 1.33715,-3.56958 1.26095,-4.03512 l 0.83959,0.74101 c -0.10988,1.29475 -0.84177,2.69105 -1.68842,3.86505 z m 1.28962,-13.21775 c 0.32593,-0.45195 0.56182,-0.96882 0.88775,-1.42077 0.09,0.0649 0.20606,0.28546 0.2961,0.3504 0.0909,0.0656 0.33679,0.10603 0.42683,0.17096 -0.32593,0.45195 -0.74189,0.83896 -1.06782,1.2909 l -2.21529,3.07182 4.06663,2.93271 c 0.65121,-0.903 1.82506,-2.53071 2.38689,-3.49953 0.3253,-0.45107 0.71615,-0.99304 0.95116,-1.51056 0.18095,0.13049 0.20606,0.28546 0.38701,0.41596 0.09,0.0649 0.33593,0.10539 0.42596,0.17032 l -4.4968,6.23545 -9.39817,-6.77765 4.43187,-6.14541 c 0.18096,0.1305 0.20542,0.28635 0.38638,0.41685 0.09,0.0649 0.33656,0.10451 0.42659,0.16944 -0.32592,0.45194 -0.74189,0.83896 -1.06719,1.29002 l -1.19831,1.47188 -1.36864,1.8978 3.52376,2.54122 2.21529,-3.07181 z m 0.99262,-10.13786 c 1.69457,-2.34977 3.19922,-2.91237 4.55506,-1.93458 1.62595,1.17258 1.26659,3.38633 0.3399,5.05273 l 5.89554,-0.55594 1.33433,-0.13665 0.55797,-0.0109 c -0.28699,0.20631 -0.48242,0.4773 -0.67785,0.74829 -0.26099,0.36191 -0.45642,0.6329 -0.56093,0.96946 -0.7123,0.0351 -1.26939,0.0466 -1.98258,0.0811 l -3.38161,0.30928 -2.11308,0.26203 -0.91222,1.26492 4.60948,3.32421 c -0.22078,0.1145 -0.41685,0.38638 -0.54734,0.56733 -0.19543,0.27099 -0.32529,0.45106 -0.4298,0.78762 l -9.48909,-6.84322 2.80222,-3.88567 z m 4.24759,3.06322 c 0.66632,-1.30539 0.52967,-2.63971 -0.55517,-3.42206 -0.90389,-0.65186 -1.92677,-0.56567 -2.95501,0.47871 -0.48089,0.47705 -1.62964,2.25973 -2.08543,2.89174 l 3.79564,2.73729 c 0.19543,-0.27099 1.45868,-1.83289 1.79997,-2.68568 z m 15.14793,-9.95666 c -0.40148,-0.0145 -0.86879,0.0605 -1.49081,0.16199 l -11.3545,1.83868 -0.13114,0.18184 7.50124,5.40964 c -0.15522,0.0236 -0.28635,0.20541 -0.35128,0.29545 -0.1305,0.18095 -0.26036,0.36102 -0.23501,0.51752 l -9.48909,-6.84322 0.39086,-0.54199 12.41911,-2.1725 0.0649,-0.09 -7.13933,-5.14865 c 0.13051,-0.18096 0.28547,-0.20606 0.41597,-0.38701 0.1305,-0.18096 0.10539,-0.33593 0.23589,-0.51688 l 9.48909,6.84322 -0.32593,0.45194 z"
       style="fill:#4178c5;fill-opacity:1;fill-rule:nonzero;stroke:none"
       id="path7120"
       sodipodi:nodetypes="ccccccccsccccsccssccccccccccccccccccsccccccsccccccccccccsccsccccccccccccsccccsscccssscccccsccccccsccccscccccccsccccsccccccsccccscccccccccsccccccsccc" />
  </g>
</svg>
