<?xml version="1.0" encoding="UTF-8" standalone="no"?>
<!-- Created with Inkscape (http://www.inkscape.org/) -->
<svg
   xmlns:dc="http://purl.org/dc/elements/1.1/"
   xmlns:cc="http://web.resource.org/cc/"
   xmlns:rdf="http://www.w3.org/1999/02/22-rdf-syntax-ns#"
   xmlns:svg="http://www.w3.org/2000/svg"
   xmlns="http://www.w3.org/2000/svg"
   xmlns:sodipodi="http://sodipodi.sourceforge.net/DTD/sodipodi-0.dtd"
   xmlns:inkscape="http://www.inkscape.org/namespaces/inkscape"
   width="213.11775"
   height="172.51614"
   id="svg69498"
   sodipodi:version="0.32"
   inkscape:version="0.45+devel"
   sodipodi:docbase="C:\Documents and Settings\kit&amp;ryan\Desktop"
   sodipodi:docname="tshirts.svg"
   inkscape:output_extension="org.inkscape.output.svg.inkscape"
   inkscape:export-filename="F:\Joshua's artwork\logos\Spread Open Media\Spread Open Media t-shirt v01.png"
   inkscape:export-xdpi="72"
   inkscape:export-ydpi="72"
   version="1.0"
   sodipodi:modified="true">
  <defs
     id="defs69500">
    <linearGradient
       id="linearGradient52013">
      <stop
         style="stop-color:#9bb0b8;stop-opacity:0.49803922;"
         offset="0"
         id="stop52019" />
      <stop
         id="stop52021"
         offset="0.5"
         style="stop-color:#ffffff;stop-opacity:1;" />
      <stop
         id="stop52017"
         offset="1"
         style="stop-color:#ffffff;stop-opacity:0;" />
    </linearGradient>
  </defs>
  <sodipodi:namedview
     id="base"
     pagecolor="#ffffff"
     bordercolor="#666666"
     borderopacity="1.0"
     gridtolerance="10000"
     guidetolerance="10"
     objecttolerance="10"
     inkscape:pageopacity="0.0"
     inkscape:pageshadow="2"
     inkscape:zoom="0.59142203"
     inkscape:cx="398.78889"
     inkscape:cy="322.60207"
     inkscape:document-units="px"
     inkscape:current-layer="layer1"
     inkscape:window-width="961"
     inkscape:window-height="851"
     inkscape:window-x="-4"
     inkscape:window-y="59"
     showguides="true"
     inkscape:guide-bbox="true" />
  <metadata
     id="metadata69503">
    <rdf:RDF>
      <cc:Work
         rdf:about="">
        <dc:format>image/svg+xml</dc:format>
        <dc:type
           rdf:resource="http://purl.org/dc/dcmitype/StillImage" />
      </cc:Work>
    </rdf:RDF>
  </metadata>
  <g
     inkscape:label="Layer 1"
     inkscape:groupmode="layer"
     id="layer1"
     transform="translate(-6.9193218,-20.292285)">
    <path
       style="fill:#483e37;fill-opacity:1;stroke:#000000;stroke-width:4.46799994;stroke-linecap:butt;stroke-linejoin:miter;stroke-miterlimit:4;stroke-dasharray:none;stroke-opacity:1"
       d="M 64.08848,22.527474 C 63.25164,22.550084 62.40663,22.778814 61.62794,23.228394 L 11.7527,52.024764 C 9.2608903,53.463404 8.4157103,56.622524 9.8543503,59.114334 L 26.84451,88.545924 C 28.28316,91.037734 31.44957,91.882904 33.94138,90.444264 L 60.00705,75.396264 L 60.00705,185.37589 C 60.00705,188.25319 62.32829,190.57443 65.20558,190.57443 L 161.49526,190.57443 C 164.37255,190.57443 166.68649,188.25319 166.68649,185.37589 L 166.68649,75.242934 L 193.02233,90.444264 C 195.51413,91.882904 198.67325,91.037734 200.11189,88.545924 L 217.10205,59.114334 C 218.54068,56.622524 217.69551,53.463404 215.20371,52.024764 L 165.33576,23.228394 C 164.32345,22.643944 163.19665,22.436784 162.12317,22.563974 C 161.91695,22.539284 161.70835,22.527474 161.49526,22.527474 L 133.91091,22.527474 C 133.50257,25.799984 124.49978,28.419624 113.47455,28.419624 C 102.44931,28.419624 93.45382,25.799984 93.04548,22.527474 L 65.20558,22.527474 C 65.03816,22.527474 64.87238,22.541334 64.70909,22.556674 C 64.50186,22.537154 64.2978,22.521814 64.08848,22.527474 z "
       id="path3299" />
  </g>
</svg>
