<?xml version="1.0" encoding="UTF-8" standalone="no"?>
<svg
   xmlns:dc="http://purl.org/dc/elements/1.1/"
   xmlns:cc="http://creativecommons.org/ns#"
   xmlns:rdf="http://www.w3.org/1999/02/22-rdf-syntax-ns#"
   xmlns:svg="http://www.w3.org/2000/svg"
   xmlns="http://www.w3.org/2000/svg"
   xmlns:sodipodi="http://sodipodi.sourceforge.net/DTD/sodipodi-0.dtd"
   xmlns:inkscape="http://www.inkscape.org/namespaces/inkscape"
   width="201pt"
   version="1.1"
   height="121pt"
   viewBox="0 0 201 121"
   id="svg3584"
   inkscape:version="0.48.5 r10040"
   sodipodi:docname="T1-2-a.pdf">
  <sodipodi:namedview
     pagecolor="#ffffff"
     bordercolor="#666666"
     borderopacity="1"
     objecttolerance="10"
     gridtolerance="10"
     guidetolerance="10"
     inkscape:pageopacity="0"
     inkscape:pageshadow="2"
     inkscape:window-width="1366"
     inkscape:window-height="732"
     id="namedview3661"
     showgrid="false"
     inkscape:zoom="3.3322314"
     inkscape:cx="125.625"
     inkscape:cy="75.625"
     inkscape:window-x="0"
     inkscape:window-y="0"
     inkscape:window-maximized="1"
     inkscape:current-layer="svg3584" />
  <metadata
     id="metadata3663">
    <rdf:RDF>
      <cc:Work
         rdf:about="">
        <dc:format>image/svg+xml</dc:format>
        <dc:type
           rdf:resource="http://purl.org/dc/dcmitype/StillImage" />
        <dc:title></dc:title>
      </cc:Work>
    </rdf:RDF>
  </metadata>
  <defs
     id="defs3586">
    <marker
       inkscape:stockid="DotL"
       orient="auto"
       refY="0.0"
       refX="0.0"
       id="DotL"
       style="overflow:visible">
      <path
         id="path3995"
         d="M -2.5,-1.0 C -2.5,1.7600000 -4.7400000,4.0 -7.5,4.0 C -10.260000,4.0 -12.5,1.7600000 -12.5,-1.0 C -12.5,-3.7600000 -10.260000,-6.0 -7.5,-6.0 C -4.7400000,-6.0 -2.5,-3.7600000 -2.5,-1.0 z "
         style="fill-rule:evenodd;stroke:#000000;stroke-width:1.0pt"
         transform="scale(0.8) translate(7.4, 1)" />
    </marker>
    <clipPath
       id="Clip0">
      <path
         d="M0 0 L201 0 L201 121 L0 121 L0 0 Z"
         transform="translate(0, 0)"
         id="path3589" />
    </clipPath>
    <clipPath
       id="Clip1">
      <path
         d="M0 0 L201 0 L201 121 L0 121 L0 0 Z"
         transform="translate(0, 0)"
         id="path3592" />
    </clipPath>
  </defs>
  <g
     id="Background">
    <g
       id="Group1"
       clip-path="url(#Clip0)">
      <g
         id="Group2"
         clip-path="url(#Clip1)">
        <path
           style="fill:none;stroke:#000000;stroke-width:0.80000000000000004;stroke-linecap:butt;stroke-linejoin:miter;stroke-dasharray:none;marker-end:url(#DotL)"
           d="M0 0 L60 0 "
           transform="translate(0.681641, 100.375)"
           id="path3597" />
        <path
           style="fill:#000000; fill-rule:nonzero;stroke:none;"
           d="M5.3994 2.1602 L0 0 L0 4.3202 L5.3994 2.1602 "
           transform="translate(27.9824, 98.2148)"
           id="path3599" />
        <path
           style="fill:none;stroke:#ff0000;stroke-width:0.80000000000000004;stroke-linecap:butt;stroke-linejoin:miter;stroke-dasharray:3 3;stroke-dashoffset:0"
           d="M0 0 L40.0004 0 "
           transform="translate(60.6816, 100.375)"
           id="path3601" />
        <path
           style="fill:none;stroke:#ff0000;stroke-width:0.80000000000000004;stroke-linecap:butt;stroke-linejoin:miter;stroke-dasharray:3 3;stroke-dashoffset:0"
           d="M0 0 L40 0 "
           transform="translate(100.682, 100.375)"
           id="path3603" />
        <path
           style="fill:#000000; fill-rule:nonzero;stroke:none;"
           d="M5.3996 2.1602 L0 0 L0 4.3202 L5.3996 2.1602 "
           transform="translate(97.9824, 98.2148)"
           id="path3605" />
        <path
           style="fill:none;stroke:#000000; stroke-width:0.8; stroke-linecap:butt; stroke-linejoin:miter; stroke-dasharray:4 4 ; stroke-dashoffset:0;"
           d="M30 0 L0 0 "
           transform="translate(170.682, 100.375)"
           id="path3607" />
        <path
           style="fill:none;stroke:#000000; stroke-width:0.8; stroke-linecap:butt; stroke-linejoin:miter; stroke-dasharray:4 4 ; stroke-dashoffset:0;"
           d="M30 0 L0 0 "
           transform="translate(140.682, 100.375)"
           id="path3609" />
        <path
           style="fill:#000000; fill-rule:nonzero;stroke:none;"
           d="M0 2.1602 L5.4 4.3202 L5.4 0 L0 2.1602 "
           transform="translate(167.982, 98.2148)"
           id="path3611" />
        <path
           style="fill:none;stroke:#ff0000;stroke-width:0.80000000000000004;stroke-linecap:butt;stroke-linejoin:miter;stroke-dasharray:none"
           d="M0 0 L0 80 "
           transform="translate(60.6816, 20.375)"
           id="path3613" />
        <path
           style="fill:#000000; fill-rule:nonzero;stroke:none;"
           d="M2.1591 5.4004 L4.3193 0 L0 0 L2.1591 5.4004 "
           transform="translate(58.5225, 57.6748)"
           id="path3615" />
        <path
           style="fill:#ff0000;stroke:#ff0000;stroke-width:0.80000000000000004;stroke-linecap:butt;stroke-linejoin:miter;stroke-dasharray:3 3;stroke-dashoffset:0"
           d="M0 40 L0 0 "
           transform="translate(140.682, 60.375)"
           id="path3617" />
        <path
           style="fill:#ff0000;stroke:#ff0000;stroke-width:0.80000000000000004;stroke-linecap:butt;stroke-linejoin:miter;stroke-dasharray:3 3;stroke-dashoffset:0"
           d="M0 40 L0 0 "
           transform="translate(140.682, 20.375)"
           id="path3619" />
        <path
           style="fill:#000000; fill-rule:nonzero;stroke:none;"
           d="M2.16 0 L0 5.4004 L4.32 5.4004 L2.16 0 "
           transform="translate(138.522, 57.6748)"
           id="path3621" />
        <path
           style="fill:none;stroke:#000000; stroke-width:0.8; stroke-linecap:butt; stroke-linejoin:miter; stroke-dasharray:4 4 ; stroke-dashoffset:0;"
           d="M0 0 L30 0 "
           transform="translate(0.681641, 20.375)"
           id="path3623" />
        <path
           style="fill:none;stroke:#000000; stroke-width:0.8; stroke-linecap:butt; stroke-linejoin:miter; stroke-dasharray:4 4 ; stroke-dashoffset:0;"
           d="M0 0 L30 0 "
           transform="translate(30.6816, 20.375)"
           id="path3625" />
        <path
           style="fill:#000000; fill-rule:nonzero;stroke:none;"
           d="M5.3994 2.1602 L0 0 L0 4.3204 L5.3994 2.1602 "
           transform="translate(27.9824, 18.2148)"
           id="path3627" />
        <path
           style="fill:none;stroke:#000000;stroke-width:0.80000000000000004;stroke-linecap:butt;stroke-linejoin:miter;stroke-dasharray:none"
           d="M60 0 L0 0 "
           transform="translate(140.682, 20.375)"
           id="path3629" />
        <path
           style="fill:#000000; fill-rule:nonzero;stroke:none;"
           d="M0 2.1602 L5.4 4.3204 L5.4 0 L0 2.1602 "
           transform="translate(167.982, 18.2148)"
           id="path3631" />
        <path
           style="fill:#ff0000;stroke:#ff0000;stroke-width:0.80000000000000004;stroke-linecap:butt;stroke-linejoin:miter;stroke-dasharray:none"
           d="M80.0004 0 L0 0 "
           transform="translate(60.6816, 20.375)"
           id="path3633" />
        <path
           style="fill:#000000; fill-rule:nonzero;stroke:none;"
           d="M0 2.1602 L5.3996 4.3204 L5.3996 0 L0 2.1602 "
           transform="translate(97.9824, 18.2148)"
           id="path3635" />
        <path
           style="fill:#ff0000;fill-rule:evenodd;stroke:none"
           d="m 102.002,106.1113 c 0,-0.1093 -0.082,-0.1093 -0.118,-0.1093 -0.109,0 -0.121,0.0234 -0.168,0.2265 l -0.644,2.5625 c -0.035,0.1563 -0.047,0.168 -0.059,0.1797 -0.011,0.0234 -0.093,0.0352 -0.121,0.0352 -1.953,0.1679 -3.457,1.7773 -3.457,3.2656 0,1.289 0.992,2.0742 2.231,2.1484 -0.094,0.3672 -0.18,0.75 -0.274,1.1172 -0.168,0.6328 -0.262,1.0274 -0.262,1.0742 0,0.0235 0,0.0977 0.118,0.0977 0.035,0 0.086,0 0.109,-0.0508 0.023,-0.0234 0.094,-0.3086 0.141,-0.4648 l 0.441,-1.7735 c 2.039,-0.1094 3.59,-1.7773 3.59,-3.2812 0,-1.2032 -0.906,-2.0625 -2.231,-2.1446 l 0.704,-2.8828 z m -0.774,3.1211 c 0.785,0.0469 1.574,0.4883 1.574,1.6563 0,1.3476 -0.941,3.1367 -2.8,3.2812 l 1.226,-4.9375 z m -1.504,4.9492 c -0.582,-0.039 -1.558,-0.3476 -1.558,-1.6601 0,-1.5 1.082,-3.168 2.8,-3.2774 l -1.242,4.9375 z"
           id="path3659"
           inkscape:connector-curvature="0" />
      </g>
    </g>
  </g>
  <text
     xml:space="preserve"
     style="font-size:12.80000019px;font-style:italic;font-variant:normal;font-weight:normal;font-stretch:normal;text-align:start;line-height:125%;letter-spacing:0px;word-spacing:0px;writing-mode:lr-tb;text-anchor:start;fill:#ff0000;fill-opacity:1;stroke:none;font-family:Fira Sans;-inkscape-font-specification:Fira Sans Italic"
     x="97.611488"
     y="14.004788"
     id="text4335"
     sodipodi:linespacing="125%"><tspan
       sodipodi:role="line"
       id="tspan4337"
       x="97.611488"
       y="14.004788">Ψ<tspan
   id="tspan3308"
   style="font-size:52.00042725%;baseline-shift:sub">R</tspan><tspan
   id="tspan3310"
   style="font-size:52.00042725%;font-style:normal;baseline-shift:super;-inkscape-font-specification:Fira Sans">-</tspan></tspan></text>
  <text
     sodipodi:linespacing="125%"
     id="text6457"
     y="15.257596"
     x="22.532084"
     style="font-size:12.80000019px;font-style:italic;font-variant:normal;font-weight:normal;font-stretch:normal;text-align:start;line-height:125%;letter-spacing:0px;word-spacing:0px;writing-mode:lr-tb;text-anchor:start;fill:#ff0000;fill-opacity:1;stroke:none;font-family:Fira Sans;-inkscape-font-specification:Fira Sans Italic"
     xml:space="preserve"><tspan
       y="15.257596"
       x="22.532084"
       id="tspan6459"
       sodipodi:role="line"
       style="fill:#000000">h<tspan
   id="tspan3033"
   style="font-size:6.6560545px;font-style:normal;baseline-shift:super;-inkscape-font-specification:Fira Sans">0</tspan></tspan></text>
  <g
     inkscape:transform-center-x="6.5523764"
     transform="matrix(1.4926549,0,0,1.4926549,-78.527783,-35.491846)"
     id="g3875"
     style="display:inline">
    <g
       style="font-style:normal;font-variant:normal;font-weight:normal;font-stretch:normal;letter-spacing:normal;word-spacing:normal;text-anchor:start;fill:none;stroke:#000000;stroke-linecap:butt;stroke-linejoin:miter;stroke-miterlimit:10.43299961;stroke-opacity:1;stroke-dasharray:none;stroke-dashoffset:0"
       id="content-2"
       transform="matrix(0.21428571,0,0,-0.21428571,-37.5,188.4375)"
       xml:space="preserve"
       stroke-miterlimit="10.433"
       font-style="normal"
       font-variant="normal"
       font-weight="normal"
       font-stretch="normal"
       font-size-adjust="none"
       letter-spacing="normal"
       word-spacing="normal"><path
         style="fill:#000000;stroke-width:0"
         inkscape:connector-curvature="0"
         d="m 491.63,427.67 0,0 0,0 0,0.01 0,0.01 0,0.01 0,0.02 0,0.02 0,0.01 -0.01,0.02 0,0.02 -0.01,0.03 0,0.02 -0.01,0.02 -0.01,0.03 -0.01,0.02 -0.01,0.02 -0.02,0.03 -0.01,0.02 -0.02,0.03 -0.02,0.02 -0.02,0.02 -0.02,0.02 -0.01,0.01 -0.01,0.01 -0.02,0.01 -0.01,0.01 -0.02,0.01 -0.01,0.01 -0.02,0.01 -0.01,0 -0.02,0.01 -0.02,0.01 -0.02,0.01 -0.02,0.01 -0.02,0 -0.02,0.01 -0.03,0 -0.02,0.01 -0.02,0 -0.03,0.01 -0.03,0 -0.02,0 -0.03,0 -0.03,0 -0.03,0 c -1.15,0 -4.78,-0.39 -6.08,-0.5 -0.4,-0.04 -0.95,-0.09 -0.95,-0.98 0,-0.61 0.45,-0.61 1.2,-0.61 2.39,0 2.49,-0.34 2.49,-0.84 0,-0.35 -0.6,-2.69 -0.94,-4.03 l -3.05,-12.21 c -0.2,-0.75 -0.54,-2.14 -0.54,-2.25 0,-0.54 0.5,-0.59 0.79,-0.59 h 0.71 c 3.48,0.59 8.9,2.55 14.04,7.33 6.58,6.12 7.93,12.9 7.93,13.34 0,0.84 -0.6,1.34 -1.46,1.34 -0.39,0 -1.54,-0.18 -1.93,-1.64 -3.19,-11.31 -10.77,-16.89 -16.44,-18.73 z"
         id="path3880" /></g>  </g>
  <text
     xml:space="preserve"
     style="font-size:12.80000019px;font-style:italic;font-variant:normal;font-weight:normal;font-stretch:normal;text-align:start;line-height:125%;letter-spacing:0px;word-spacing:0px;writing-mode:lr-tb;text-anchor:start;fill:#ff0000;fill-opacity:1;stroke:none;font-family:Fira Sans;-inkscape-font-specification:Fira Sans Italic"
     x="164.93216"
     y="116.05753"
     id="text3393"
     sodipodi:linespacing="125%"><tspan
       style="fill:#000000"
       sodipodi:role="line"
       id="tspan3395"
       x="164.93216"
       y="116.05753">h<tspan
   style="font-size:6.6560545px;font-style:normal;baseline-shift:super;-inkscape-font-specification:Fira Sans"
   id="tspan3397">0</tspan></tspan></text>
  <g
     style="display:inline"
     id="g3399"
     transform="matrix(1.4926549,0,0,1.4926549,71.872217,-135.57201)"
     inkscape:transform-center-x="6.5523764">
    <g
       word-spacing="normal"
       letter-spacing="normal"
       font-size-adjust="none"
       font-stretch="normal"
       font-weight="normal"
       font-variant="normal"
       font-style="normal"
       stroke-miterlimit="10.433"
       xml:space="preserve"
       transform="matrix(0.21428571,0,0,-0.21428571,-37.5,188.4375)"
       id="g3401"
       style="font-style:normal;font-variant:normal;font-weight:normal;font-stretch:normal;letter-spacing:normal;word-spacing:normal;text-anchor:start;fill:none;stroke:#000000;stroke-linecap:butt;stroke-linejoin:miter;stroke-miterlimit:10.43299961;stroke-opacity:1;stroke-dasharray:none;stroke-dashoffset:0"><path
         id="path3403"
         d="m 491.63,427.67 0,0 0,0 0,0.01 0,0.01 0,0.01 0,0.02 0,0.02 0,0.01 -0.01,0.02 0,0.02 -0.01,0.03 0,0.02 -0.01,0.02 -0.01,0.03 -0.01,0.02 -0.01,0.02 -0.02,0.03 -0.01,0.02 -0.02,0.03 -0.02,0.02 -0.02,0.02 -0.02,0.02 -0.01,0.01 -0.01,0.01 -0.02,0.01 -0.01,0.01 -0.02,0.01 -0.01,0.01 -0.02,0.01 -0.01,0 -0.02,0.01 -0.02,0.01 -0.02,0.01 -0.02,0.01 -0.02,0 -0.02,0.01 -0.03,0 -0.02,0.01 -0.02,0 -0.03,0.01 -0.03,0 -0.02,0 -0.03,0 -0.03,0 -0.03,0 c -1.15,0 -4.78,-0.39 -6.08,-0.5 -0.4,-0.04 -0.95,-0.09 -0.95,-0.98 0,-0.61 0.45,-0.61 1.2,-0.61 2.39,0 2.49,-0.34 2.49,-0.84 0,-0.35 -0.6,-2.69 -0.94,-4.03 l -3.05,-12.21 c -0.2,-0.75 -0.54,-2.14 -0.54,-2.25 0,-0.54 0.5,-0.59 0.79,-0.59 h 0.71 c 3.48,0.59 8.9,2.55 14.04,7.33 6.58,6.12 7.93,12.9 7.93,13.34 0,0.84 -0.6,1.34 -1.46,1.34 -0.39,0 -1.54,-0.18 -1.93,-1.64 -3.19,-11.31 -10.77,-16.89 -16.44,-18.73 z"
         inkscape:connector-curvature="0"
         style="fill:#000000;stroke-width:0" /></g>  </g>
  <g
     style="fill:#ff0000"
     transform="matrix(1.3249951,0,0,1.3249951,-47.855702,-70.649448)"
     id="g3463">
    <g
       style="font-style:normal;font-variant:normal;font-weight:normal;font-stretch:normal;letter-spacing:normal;word-spacing:normal;text-anchor:start;fill:#ff0000;stroke:#000000;stroke-linecap:butt;stroke-linejoin:miter;stroke-miterlimit:10.43299961;stroke-opacity:1;stroke-dasharray:none;stroke-dashoffset:0"
       id="g3465"
       transform="matrix(0.21428571,0,0,-0.21428571,-37.5,188.4375)"
       xml:space="preserve"
       stroke-miterlimit="10.433"
       font-style="normal"
       font-variant="normal"
       font-weight="normal"
       font-stretch="normal"
       font-size-adjust="none"
       letter-spacing="normal"
       word-spacing="normal"><path
         style="fill:#ff0000;stroke-width:0"
         inkscape:connector-curvature="0"
         d="m 476.8,436.29 0,0.16 0,0.15 0,0.14 0.01,0.14 0.01,0.13 0.01,0.13 0.02,0.12 0.02,0.12 0.04,0.11 0.04,0.11 0.04,0.1 0.06,0.09 0.07,0.09 0.08,0.09 0.09,0.08 0.1,0.07 0.12,0.07 0.06,0.03 0.07,0.04 0.07,0.03 0.08,0.03 0.08,0.03 0.08,0.02 0.09,0.03 0.09,0.02 0.1,0.03 0.1,0.02 0.11,0.02 0.11,0.02 0.12,0.02 0.12,0.02 0.13,0.01 0.13,0.02 0.14,0.01 0.14,0.02 0.15,0.01 0.16,0.01 0.16,0.01 0.16,0.01 0.17,0.01 0.18,0.01 0.19,0 0.19,0.01 0.2,0 0.2,0 0.21,0 0.22,0 h 1.66 v 1.55 c -1.8,-0.16 -6.38,-0.16 -8.43,-0.16 -2.04,0 -6.67,0 -8.46,0.16 v -1.55 h 1.64 c 4.73,0 4.73,-0.65 4.73,-2.39 v -22.12 c -6.53,1.75 -6.78,9.42 -6.78,12.65 -0.05,6.04 -2.24,6.97 -4.44,6.97 h -1.84 c -0.74,0 -1.24,0 -1.24,-0.54 0,-0.25 0.14,-0.49 0.44,-0.55 1.66,-0.19 2.89,-0.89 2.95,-6.77 0,-1.15 0.14,-5.09 2.54,-8.42 1.95,-2.69 4.98,-4.14 8.37,-4.59 v -2.78 c 0,-1.71 0,-2.39 -4.73,-2.39 h -1.64 v -1.55 c 1.79,0.16 6.37,0.16 8.42,0.16 2.03,0 6.67,0 8.47,-0.16 v 1.55 h -1.66 c -4.72,0 -4.72,0.64 -4.72,2.39 v 2.78 c 3.58,0.45 6.63,1.95 8.56,4.54 2.6,3.54 2.64,7.47 2.64,9.66 0,0.8 0.05,5.24 2.74,5.58 0.3,0.06 0.65,0.11 0.65,0.55 0,0.54 -0.4,0.54 -1.2,0.54 h -1.89 c -1.94,0 -4.39,-0.34 -4.44,-7.56 -0.04,-5.48 -1.68,-10.77 -7.06,-12.06 z"
         id="path3467" /><path
         style="fill:#ff0000;stroke-width:0"
         inkscape:connector-curvature="0"
         d="m 510.42,435.32 h 10.66 c 0.45,0 1.28,0 1.28,0.84 0,0.86 -0.8,0.86 -1.28,0.86 h -10.66 v 10.7 c 0,0.46 0,1.28 -0.84,1.28 -0.88,0 -0.88,-0.79 -0.88,-1.28 v -10.7 h -10.68 c -0.46,0 -1.3,0 -1.3,-0.83 0,-0.87 0.8,-0.87 1.3,-0.87 h 10.68 v -10.71 c 0,-0.45 0,-1.28 0.85,-1.28 0.87,0 0.87,0.8 0.87,1.28 z"
         id="path3469" /><path
         style="fill:#ff0000;stroke-width:0"
         inkscape:connector-curvature="0"
         d="m 508.64,412.5 0.03,0.11 0.03,0.11 0.03,0.11 0.02,0.1 0.03,0.09 0.04,0.09 0.03,0.09 0.04,0.08 0.04,0.08 0.04,0.07 0.05,0.07 0.06,0.06 0.06,0.06 0.07,0.06 0.08,0.05 0.08,0.05 0.09,0.04 0.1,0.04 0.11,0.04 0.12,0.03 0.07,0.02 0.07,0.01 0.07,0.01 0.07,0.02 0.07,0.01 0.08,0.01 0.09,0.01 0.08,0.01 0.09,0.01 0.09,0.01 0.1,0.01 0.1,0.01 0.1,0 0.11,0.01 0.11,0 0.11,0.01 0.12,0 0.12,0.01 0.13,0 0.13,0 0.14,0 0.13,0 0.15,0 0.15,0.01 c 1.07,0 1.42,0 1.42,0.76 0,0.03 -0.03,0.49 -0.6,0.49 -0.79,0 -1.73,-0.07 -2.57,-0.11 -0.88,-0.04 -1.91,-0.04 -2.79,-0.04 -0.73,0 -1.67,0.04 -2.4,0.04 -0.74,0 -1.56,0.11 -2.27,0.11 -0.2,0 -0.73,0 -0.73,-0.77 0,-0.48 0.42,-0.48 1.12,-0.48 0.03,0 0.69,0 1.32,-0.08 0.73,-0.07 0.81,-0.14 0.81,-0.49 0,-0.06 0,-0.23 -0.14,-0.76 l -4.64,-18.5 c -0.32,-1.19 -0.39,-1.47 -3.07,-1.47 -0.59,0 -1.04,0 -1.04,-0.74 0,-0.51 0.42,-0.51 1.04,-0.51 h 17.52 c 0.87,0 0.91,0.03 1.19,0.7 0.36,0.94 2.97,7.69 2.97,7.97 0,0.11 -0.08,0.5 -0.6,0.5 -0.42,0 -0.48,-0.19 -0.7,-0.73 -1.31,-3.32 -2.86,-7.19 -9.23,-7.19 h -3.94 c -1.08,0 -1.11,0.05 -1.11,0.36 0,0.03 0,0.2 0.14,0.72 z"
         id="path3471" /></g>  </g>
  <text
     sodipodi:linespacing="125%"
     id="text3579"
     y="111.07619"
     x="104.91628"
     style="font-size:32px;font-style:normal;font-variant:normal;font-weight:normal;font-stretch:normal;text-align:start;line-height:125%;letter-spacing:0px;word-spacing:0px;writing-mode:lr-tb;text-anchor:start;fill:#000000;fill-opacity:1;stroke:none;font-family:Fira Sans;-inkscape-font-specification:Fira Sans"
     xml:space="preserve"><tspan
       style="font-size:9.60000038px;fill:#ff0000"
       y="111.07619"
       x="104.91628"
       id="tspan3581"
       sodipodi:role="line">-</tspan></text>
  <g
     id="g4818"
     transform="matrix(1.2901587,0,0,1.2901587,67.747928,-65.942285)"
     style="fill:#ff0000">
    <g
       word-spacing="normal"
       letter-spacing="normal"
       font-size-adjust="none"
       font-stretch="normal"
       font-weight="normal"
       font-variant="normal"
       font-style="normal"
       stroke-miterlimit="10.433"
       xml:space="preserve"
       transform="matrix(0.21607143,0,0,-0.21607143,-37.8125,188.4375)"
       id="content"
       style="font-style:normal;font-variant:normal;font-weight:normal;font-stretch:normal;letter-spacing:normal;word-spacing:normal;text-anchor:start;fill:#ff0000;stroke:#000000;stroke-linecap:butt;stroke-linejoin:miter;stroke-miterlimit:10.43299960999999954;stroke-opacity:1;stroke-dasharray:none;stroke-dashoffset:0"><path
         id="path4821"
         d="m 475.39,412.92 0.72,0.07 0.71,0.09 0.69,0.11 0.67,0.14 0.66,0.15 0.64,0.18 0.63,0.2 0.61,0.21 0.59,0.23 0.58,0.26 0.55,0.26 0.54,0.29 0.51,0.3 0.5,0.31 0.47,0.33 0.45,0.34 0.43,0.36 0.41,0.37 0.38,0.37 0.36,0.4 0.33,0.4 0.31,0.41 0.28,0.42 0.25,0.42 0.23,0.44 0.19,0.44 0.17,0.45 0.14,0.45 0.11,0.46 0.08,0.47 0.05,0.46 0.01,0.47 c 0,5.19 -5.67,9.72 -13.25,10.32 v -1.1 c 6.88,-0.79 8.29,-5.37 8.29,-9.17 0,-2.98 -0.75,-8.31 -8.29,-9.2 v 18.37 1.1 2.79 c 0,1.69 0,2.39 4.74,2.39 h 1.64 v 1.55 c -1.78,-0.16 -6.38,-0.16 -8.41,-0.16 -2.04,0 -6.68,0 -8.48,0.16 v -1.55 h 1.66 c 4.73,0 4.73,-0.65 4.73,-2.39 v -2.79 -1.14 -18.29 c -7.08,0.94 -7.98,6.04 -7.98,9.11 0,2.6 0.5,8.18 7.98,9.18 v 1.14 c -7.63,-0.74 -12.95,-5.33 -12.95,-10.27 0,-5.12 5.51,-9.56 12.95,-10.31 v -2.78 c 0,-1.71 0,-2.39 -4.73,-2.39 h -1.66 v -1.55 c 1.8,0.16 6.39,0.16 8.42,0.16 2.05,0 6.69,0 8.47,-0.16 v 1.55 h -1.64 c -4.74,0 -4.74,0.64 -4.74,2.39 z"
         inkscape:connector-curvature="0"
         style="fill:#ff0000;stroke-width:0" /><path
         id="path4823"
         d="m 507.66,432.07 h 10.66 c 0.45,0 1.28,0 1.28,0.85 0,0.86 -0.8,0.86 -1.28,0.86 h -10.66 v 10.7 c 0,0.45 0,1.28 -0.84,1.28 -0.88,0 -0.88,-0.8 -0.88,-1.28 v -10.7 h -10.69 c -0.45,0 -1.29,0 -1.29,-0.83 0,-0.88 0.79,-0.88 1.29,-0.88 h 10.69 v -10.7 c 0,-0.45 0,-1.28 0.85,-1.28 0.87,0 0.87,0.8 0.87,1.28 z"
         inkscape:connector-curvature="0"
         style="fill:#ff0000;stroke-width:0" /></g>  </g>
</svg>
