<?xml version="1.0" encoding="UTF-8" standalone="no"?>
<!-- Created with Inkscape (http://www.inkscape.org/) -->

<svg
   xmlns:dc="http://purl.org/dc/elements/1.1/"
   xmlns:cc="http://creativecommons.org/ns#"
   xmlns:rdf="http://www.w3.org/1999/02/22-rdf-syntax-ns#"
   xmlns:svg="http://www.w3.org/2000/svg"
   xmlns="http://www.w3.org/2000/svg"
   xmlns:sodipodi="http://sodipodi.sourceforge.net/DTD/sodipodi-0.dtd"
   xmlns:inkscape="http://www.inkscape.org/namespaces/inkscape"
   width="50.799999mm"
   height="25.074572mm"
   viewBox="0 0 50.799999 25.074572"
   version="1.1"
   id="svg3398"
   inkscape:version="0.92.1 r15371"
   sodipodi:docname="T1-2-A.svg">
  <defs
     id="defs3392">
    <clipPath
       id="clip21">
      <path
         inkscape:connector-curvature="0"
         d="m 399,151.85547 h 61.01172 V 214 H 399 Z m 0,0"
         id="path714" />
    </clipPath>
    <clipPath
       id="clip20">
      <path
         inkscape:connector-curvature="0"
         d="m 393,218 h 5 v 4.93359 h -5 z m 0,0"
         id="path711" />
    </clipPath>
    <clipPath
       id="clip19">
      <path
         inkscape:connector-curvature="0"
         d="m 388,218 h 3 v 4.93359 h -3 z m 0,0"
         id="path708" />
    </clipPath>
    <clipPath
       id="clip18">
      <path
         inkscape:connector-curvature="0"
         d="m 383,218 h 5 v 4.93359 h -5 z m 0,0"
         id="path705" />
    </clipPath>
    <clipPath
       id="clip17">
      <path
         inkscape:connector-curvature="0"
         d="m 379,218 h 4 v 4.93359 h -4 z m 0,0"
         id="path702" />
    </clipPath>
    <clipPath
       id="clip16">
      <path
         inkscape:connector-curvature="0"
         d="m 316.01172,214 h 144 v 1 h -144 z m 0,0"
         id="path699" />
    </clipPath>
    <clipPath
       id="clip15">
      <path
         inkscape:connector-curvature="0"
         d="m 459,151.85547 h 1.01172 V 215 H 459 Z m 0,0"
         id="path696" />
    </clipPath>
    <clipPath
       id="clip14">
      <path
         inkscape:connector-curvature="0"
         d="M 316.01172,151.85547 H 317 V 215 h -0.98828 z m 0,0"
         id="path693" />
    </clipPath>
    <clipPath
       id="clip13">
      <path
         inkscape:connector-curvature="0"
         d="m 316.01172,151.85547 h 144 V 153 h -144 z m 0,0"
         id="path690" />
    </clipPath>
    <clipPath
       id="clip12">
      <path
         inkscape:connector-curvature="0"
         d="m 410,151.85547 h 19 V 169 h -19 z m 0,0"
         id="path687" />
    </clipPath>
    <clipPath
       id="clip11">
      <path
         inkscape:connector-curvature="0"
         d="m 348,151.85547 h 18 V 169 h -18 z m 0,0"
         id="path684" />
    </clipPath>
  </defs>
  <sodipodi:namedview
     id="base"
     pagecolor="#ffffff"
     bordercolor="#666666"
     borderopacity="1.0"
     inkscape:pageopacity="0.0"
     inkscape:pageshadow="2"
     inkscape:zoom="7.2760418"
     inkscape:cx="95.999999"
     inkscape:cy="47.385017"
     inkscape:document-units="mm"
     inkscape:current-layer="layer1"
     showgrid="false"
     fit-margin-top="0"
     fit-margin-left="0"
     fit-margin-right="0"
     fit-margin-bottom="0"
     inkscape:window-width="1920"
     inkscape:window-height="1011"
     inkscape:window-x="0"
     inkscape:window-y="0"
     inkscape:window-maximized="1" />
  <metadata
     id="metadata3395">
    <rdf:RDF>
      <cc:Work
         rdf:about="">
        <dc:format>image/svg+xml</dc:format>
        <dc:type
           rdf:resource="http://purl.org/dc/dcmitype/StillImage" />
        <dc:title></dc:title>
      </cc:Work>
    </rdf:RDF>
  </metadata>
  <g
     inkscape:label="Layer 1"
     inkscape:groupmode="layer"
     id="layer1"
     transform="translate(-36.588096,-53.897238)">
    <path
       inkscape:connector-curvature="0"
       id="path2089"
       d="m 46.209559,68.752486 v -0.04823 l 0.0055,-0.0055 v -0.01101 l 0.0041,-0.0055 v -0.0041 l 0.0055,-0.0041 0.0041,-0.0041 0.01101,-0.0083 0.0041,-0.0028 0.0055,-0.0014 v -0.0014 l 0.0041,-0.0028 h 0.0055 l 0.0055,-0.0014 0.0028,-0.0014 v -0.0014 l 0.01101,-0.0028 0.03443,-0.0055 0.0193,-0.0028 h 0.0097 l 0.0055,-0.0014 h 0.0193 l 0.0055,-0.0014 h 0.151585 v -0.07717 c -0.08819,0.0083 -0.314191,0.0083 -0.412034,0.0083 -0.103353,0 -0.327973,0 -0.416168,-0.0083 v 0.07717 h 0.07855 c 0.234266,0 0.234266,0.03168 0.234266,0.117133 v 1.083141 c -0.322448,-0.08422 -0.333473,-0.460421 -0.333473,-0.620275 -0.0041,-0.294898 -0.111622,-0.340374 -0.220486,-0.340374 h -0.08682 c -0.03583,0 -0.06064,0 -0.06064,0.02618 0,0.01242 0.0055,0.02342 0.02067,0.02755 0.08268,0.0083 0.141937,0.04272 0.146071,0.330729 0,0.0565 0.0055,0.249424 0.122643,0.413413 0.09371,0.130912 0.24667,0.202572 0.412034,0.224621 v 0.136426 c 0,0.08268 0,0.117133 -0.234265,0.117133 H 45.6955 v 0.07579 c 0.08819,-0.0083 0.312815,-0.0083 0.412034,-0.0083 0.09646,0 0.327973,0 0.416168,0.0083 v -0.07579 h -0.08406 c -0.230131,0 -0.230131,-0.03168 -0.230131,-0.117133 v -0.136426 c 0.176389,-0.02205 0.323836,-0.09508 0.421679,-0.223245 0.126778,-0.17363 0.126778,-0.365178 0.126778,-0.472666 0,-0.03996 0.0055,-0.256314 0.132291,-0.272852 0.01517,-0.0041 0.03583,-0.0069 0.03583,-0.02755 0,-0.02618 -0.02067,-0.02618 -0.05926,-0.02618 h -0.09371 c -0.0937,0 -0.214972,0.01654 -0.214972,0.369312 -0.0055,0.268718 -0.08406,0.527791 -0.348643,0.591182 z m 0,0"
       style="fill:#000000;fill-opacity:1;fill-rule:evenodd;stroke:none;stroke-width:0.35277775" />
    <path
       inkscape:connector-curvature="0"
       id="path2091"
       d="m 47.832887,70.017525 0.0193,-0.0055 0.02067,-0.0041 0.0193,-0.0069 0.0193,-0.0055 0.01379,-0.0069 0.02067,-0.0055 0.0193,-0.0083 0.01379,-0.0069 0.02067,-0.0083 0.0303,-0.01654 0.01379,-0.0096 0.01517,-0.0083 0.0441,-0.0303 0.01379,-0.01101 0.0096,-0.01101 0.01517,-0.01101 0.0096,-0.01101 0.02067,-0.0248 0.0083,-0.01101 0.0055,-0.01242 0.0096,-0.01379 0.02067,-0.05236 v -0.01379 l 0.0041,-0.01517 v -0.01379 c 0,-0.146071 -0.176389,-0.263203 -0.421679,-0.263203 h -0.523652 c -0.03583,0 -0.05512,0 -0.05512,0.03858 0,0.02342 0.0193,0.02342 0.05512,0.02342 0,0 0.03306,0 0.06339,0.0041 0.03305,0.0028 0.03859,0.0069 0.03859,0.02342 0,0.0041 0,0.01242 -0.0055,0.03721 l -0.228751,0.906752 c -0.01101,0.05788 -0.01517,0.07303 -0.147451,0.07303 -0.0303,0 -0.05375,0 -0.05375,0.03583 0,0.01655 0.01379,0.0248 0.02893,0.0248 0.0303,0 0.0689,-0.0055 0.10335,-0.0055 0.03306,0 0.08268,-0.0014 0.111622,-0.0014 0.03447,0 0.07442,0.0014 0.112999,0.0014 0.03447,0 0.07855,0.0055 0.113002,0.0055 0.01101,0 0.03443,0 0.03443,-0.03583 0,-0.0248 -0.01517,-0.0248 -0.05374,-0.0248 -0.0303,0 -0.03447,0 -0.06339,-0.0041 -0.03996,-0.0041 -0.03996,-0.0083 -0.03996,-0.0248 0,-0.0028 0,-0.01242 0.0041,-0.03859 l 0.108863,-0.431327 h 0.234266 v -0.04823 h -0.219107 l 0.107488,-0.439596 c 0.01517,-0.04685 0.01517,-0.05237 0.05374,-0.05788 h 0.108867 c 0.159851,0 0.356909,0 0.356909,0.176389 0,0.07028 -0.03443,0.177768 -0.112998,0.2384 -0.0689,0.05512 -0.176389,0.08268 -0.294901,0.08268 v 0.04823 c 0.14745,0 0.206706,0.07304 0.206706,0.152965 0,0.02205 -0.01379,0.0813 -0.0193,0.119888 -0.0248,0.07855 -0.02893,0.103353 -0.02893,0.132291 0,0.135047 0.121267,0.188793 0.249424,0.188793 0.157099,0 0.226,-0.16812 0.226,-0.198438 0,-0.0041 0,-0.02342 -0.02893,-0.02342 -0.02067,0 -0.0248,0.01101 -0.0303,0.02893 -0.0248,0.07441 -0.0882,0.144695 -0.157096,0.144695 -0.0441,0 -0.07855,-0.01792 -0.07855,-0.111623 0,-0.04272 0.0097,-0.130912 0.01517,-0.177764 0.0096,-0.04548 0.0096,-0.06201 0.0096,-0.07993 0,-0.0193 0,-0.07441 -0.04823,-0.126778 -0.03583,-0.03447 -0.07855,-0.0565 -0.118512,-0.07028 z m 0,0"
       style="fill:#000000;fill-opacity:1;fill-rule:evenodd;stroke:none;stroke-width:0.35277775" />
    <path
       inkscape:connector-curvature="0"
       id="path2093"
       d="m 49.63536,62.257794 v -0.04823 l 0.0041,-0.0055 v -0.01101 l 0.0041,-0.0055 v -0.0041 l 0.01101,-0.0083 0.0041,-0.0041 0.0055,-0.0041 0.0041,-0.0028 0.0055,-0.0014 v -0.0014 l 0.0055,-0.0028 h 0.0041 l 0.0055,-0.0014 0.0041,-0.0014 v -0.0014 l 0.01101,-0.0028 0.0028,-0.0014 0.0303,-0.0041 0.0096,-0.0014 0.01101,-0.0014 h 0.0096 l 0.0041,-0.0014 h 0.0193 l 0.0055,-0.0014 h 0.151585 v -0.07717 c -0.08819,0.0083 -0.312815,0.0083 -0.412034,0.0083 -0.103353,0 -0.32797,0 -0.416165,-0.0083 v 0.07717 h 0.07855 c 0.234266,0 0.234266,0.03168 0.234266,0.117133 v 1.083114 c -0.322181,-0.08406 -0.333205,-0.460266 -0.333205,-0.620116 -0.0041,-0.294901 -0.111619,-0.340378 -0.219107,-0.340378 h -0.08819 c -0.03583,0 -0.05926,0 -0.05926,0.02618 0,0.01242 0.0055,0.02342 0.0193,0.02755 0.08268,0.0083 0.141936,0.04272 0.14745,0.330729 0,0.0565 0.0041,0.249425 0.121268,0.41341 0.0937,0.130916 0.246665,0.202572 0.41203,0.224621 v 0.136426 c 0,0.08268 0,0.117133 -0.234266,0.117133 h -0.07855 v 0.07579 c 0.0882,-0.0083 0.312812,-0.0083 0.412031,-0.0083 0.09784,0 0.327973,0 0.416168,0.0083 v -0.07579 h -0.08268 c -0.230134,0 -0.230134,-0.03168 -0.230134,-0.117133 v -0.136426 c 0.176389,-0.02205 0.322463,-0.09508 0.420303,-0.223242 0.128157,-0.173633 0.128157,-0.365181 0.128157,-0.472669 0,-0.03996 0.0041,-0.256314 0.132291,-0.272849 0.01379,-0.0041 0.03447,-0.0069 0.03447,-0.02755 0,-0.02618 -0.02067,-0.02618 -0.05926,-0.02618 h -0.09371 c -0.09233,0 -0.214973,0.01654 -0.214973,0.369316 -0.0041,0.268718 -0.08268,0.527787 -0.347267,0.591178 z m 0,0"
       style="fill:#000000;fill-opacity:1;fill-rule:evenodd;stroke:none;stroke-width:0.35277775" />
    <path
       inkscape:connector-curvature="0"
       id="path2095"
       d="m 51.193921,63.076348 0.0041,-0.0055 v -0.01101 l 0.0055,-0.0041 v -0.01379 l 0.0041,-0.0041 v -0.0028 l 0.0055,-0.0041 v -0.0041 l 0.0041,-0.0014 v -0.0041 l 0.02067,-0.0096 0.01379,-0.0055 h 0.0055 v -0.0014 l 0.0193,-0.0028 h 0.0055 l 0.0041,-0.0014 h 0.0193 l 0.0055,-0.0014 h 0.0055 l 0.0041,-0.0014 h 0.05374 c 0.04961,0 0.0689,0 0.0689,-0.03721 0,-0.0014 -0.0055,-0.0248 -0.02893,-0.0248 -0.03996,0 -0.08406,0.0041 -0.128157,0.0069 -0.0441,0.0014 -0.09233,0.0014 -0.137802,0.0014 -0.03305,0 -0.07717,-0.0014 -0.117137,-0.0014 -0.03443,0 -0.07303,-0.0069 -0.107484,-0.0069 -0.0097,0 -0.03996,0 -0.03996,0.03859 0,0.02342 0.02067,0.02342 0.05925,0.02342 0,0 0.0303,0 0.06477,0.0041 0.03306,0.0028 0.03858,0.0069 0.03858,0.02342 0,0.0041 0,0.01242 -0.0096,0.03721 l -0.226,0.906748 c -0.01379,0.05788 -0.0193,0.07304 -0.151581,0.07304 -0.02893,0 -0.04961,0 -0.04961,0.03583 0,0.0248 0.02067,0.0248 0.04961,0.0248 h 0.857137 c 0.0441,0 0.04961,-0.0014 0.05926,-0.03447 0.0193,-0.04548 0.147451,-0.376205 0.147451,-0.389985 0,-0.0055 -0.0055,-0.0248 -0.02893,-0.0248 -0.02067,0 -0.0248,0.0096 -0.03583,0.03583 -0.06339,0.162609 -0.14194,0.352777 -0.450621,0.352777 h -0.195679 c -0.04961,0 -0.05375,-0.0028 -0.05375,-0.01792 0,-0.0014 0,-0.0096 0.0097,-0.03583 z m 0,0"
       style="fill:#000000;fill-opacity:1;fill-rule:evenodd;stroke:none;stroke-width:0.35277775" />
    <path
       inkscape:connector-curvature="0"
       id="path2097"
       d="m 61.599489,56.712569 v -0.01101 l 0.0041,-0.0014 v -0.02342 c 0,-0.0248 -0.01517,-0.02755 -0.02893,-0.02755 -0.0248,0 -0.0248,0.0055 -0.03443,0.04823 l -0.407899,1.615059 c -0.186038,-0.02067 -0.274232,-0.111619 -0.274232,-0.274229 0,-0.04823 0,-0.111622 0.128157,-0.453375 0.0097,-0.02893 0.02893,-0.07028 0.02893,-0.119888 0,-0.110244 -0.07855,-0.199817 -0.201196,-0.199817 -0.230131,0 -0.32246,0.354157 -0.32246,0.376205 0,0.0248 0.02342,0.0248 0.02893,0.0248 0.0248,0 0.02893,-0.0055 0.03996,-0.0441 0.06752,-0.232886 0.165365,-0.303166 0.249424,-0.303166 0.01517,0 0.05788,0 0.05788,0.07717 0,0.06477 -0.02342,0.124022 -0.05788,0.210837 -0.112998,0.307305 -0.112998,0.370692 -0.112998,0.412034 0,0.23289 0.186038,0.333484 0.421679,0.347268 -0.0193,0.08682 -0.0193,0.09233 -0.05374,0.221862 -0.0055,0.02755 -0.05374,0.22462 -0.05374,0.232889 0,0.0014 0,0.0248 0.02893,0.0248 0.0055,0 0.01517,0 0.0193,-0.01101 0.0096,-0.0041 0.0248,-0.06615 0.0303,-0.09922 l 0.09233,-0.363802 c 0.09371,0 0.304546,0 0.534681,-0.261828 0.101973,-0.112998 0.151581,-0.219107 0.180523,-0.293522 0.02067,-0.06063 0.07441,-0.272849 0.07441,-0.380337 0,-0.136426 -0.06477,-0.170878 -0.107484,-0.170878 -0.05926,0 -0.124026,0.06339 -0.124026,0.117133 0,0.03168 0.01517,0.04548 0.03996,0.06615 0.0248,0.02617 0.08819,0.08957 0.08819,0.206706 0,0.157096 -0.128157,0.356913 -0.214972,0.445107 -0.210814,0.217729 -0.36791,0.217729 -0.456104,0.217729 z m 0,0"
       style="fill:#000000;fill-opacity:1;fill-rule:evenodd;stroke:none;stroke-width:0.35277775" />
    <path
       inkscape:connector-curvature="0"
       id="path2099"
       d="m 63.093282,58.134704 0.03996,-0.0096 0.03859,-0.01101 0.01516,-0.0069 0.03858,-0.01379 0.01516,-0.0083 0.01929,-0.0083 0.01516,-0.0083 0.01378,-0.0083 0.0303,-0.01792 0.02893,-0.0193 0.01378,-0.01101 0.01516,-0.01101 0.0096,-0.01101 0.01516,-0.01101 0.01101,-0.01101 0.0083,-0.01101 0.01929,-0.0248 0.0055,-0.01242 0.0096,-0.01242 0.01516,-0.03997 0.0055,-0.01379 v -0.01379 l 0.0041,-0.01379 v -0.01516 c 0,-0.146071 -0.176387,-0.261828 -0.421683,-0.261828 h -0.525031 c -0.03306,0 -0.05374,0 -0.05374,0.03721 0,0.02342 0.02067,0.02342 0.05374,0.02342 0,0 0.03447,0 0.06477,0.0041 0.03443,0.0041 0.03858,0.0069 0.03858,0.0248 0,0.0014 0,0.0096 -0.0041,0.03721 l -0.23151,0.905369 c -0.01379,0.05926 -0.01379,0.07304 -0.146071,0.07304 -0.02893,0 -0.05374,0 -0.05374,0.03583 0,0.01654 0.01379,0.0248 0.02893,0.0248 0.02893,0 0.0689,-0.0055 0.103354,-0.0055 0.03443,0 0.08268,-0.0014 0.112998,-0.0014 0.03306,0 0.07304,0.0014 0.111622,0.0014 0.03443,0 0.07855,0.0055 0.112999,0.0055 0.0096,0 0.03443,0 0.03443,-0.03583 0,-0.0248 -0.01517,-0.0248 -0.05374,-0.0248 -0.02893,0 -0.03447,0 -0.0689,-0.0041 -0.03447,-0.0055 -0.03447,-0.0082 -0.03447,-0.0248 0,-0.0014 0,-0.01242 0.0055,-0.03858 l 0.107485,-0.431327 h 0.235645 v -0.04823 h -0.220486 l 0.107488,-0.439593 c 0.01517,-0.04685 0.01517,-0.05237 0.05374,-0.05788 h 0.107487 c 0.16261,0 0.358291,0 0.358291,0.176389 0,0.0689 -0.03446,0.177765 -0.113001,0.2384 -0.0689,0.05512 -0.176389,0.08268 -0.293521,0.08268 v 0.04823 c 0.146074,0 0.210841,0.07166 0.210841,0.152961 0,0.02205 -0.02066,0.07993 -0.02479,0.119892 -0.02479,0.07855 -0.02893,0.104729 -0.02893,0.132291 0,0.136427 0.126778,0.188789 0.249425,0.188789 0.157094,0 0.225997,-0.168119 0.225997,-0.197058 0,-0.0069 0,-0.0248 -0.03031,-0.0248 -0.01929,0 -0.02342,0.01242 -0.02893,0.02893 -0.02479,0.07579 -0.08819,0.144696 -0.157097,0.144696 -0.04409,0 -0.07855,-0.01792 -0.07855,-0.110243 0,-0.04272 0.0097,-0.132292 0.01929,-0.177769 0.0055,-0.04685 0.0055,-0.06339 0.0055,-0.07993 0,-0.02067 0,-0.07579 -0.04823,-0.126781 -0.0303,-0.03583 -0.07855,-0.05788 -0.118512,-0.07166 z m 0,0"
       style="fill:#000000;fill-opacity:1;fill-rule:evenodd;stroke:none;stroke-width:0.35277775" />
    <path
       inkscape:connector-curvature="0"
       id="path2101"
       d="m 77.958179,63.736427 v -0.01101 l 0.0041,-0.0014 v -0.0248 c 0,-0.0248 -0.01516,-0.02755 -0.02893,-0.02755 -0.02479,0 -0.02479,0.0055 -0.03447,0.04961 l -0.406485,1.615059 c -0.18604,-0.02342 -0.274233,-0.112998 -0.274233,-0.275607 0,-0.04685 0,-0.111623 0.12678,-0.453376 0.0096,-0.02893 0.03031,-0.07028 0.03031,-0.119888 0,-0.108864 -0.07855,-0.199817 -0.202573,-0.199817 -0.230135,0 -0.322464,0.354157 -0.322464,0.376206 0,0.0248 0.02479,0.0248 0.02893,0.0248 0.02479,0 0.02893,-0.0055 0.03996,-0.0441 0.06752,-0.232887 0.16674,-0.303167 0.249425,-0.303167 0.01516,0 0.05926,0 0.05926,0.07855 0,0.06339 -0.02479,0.124026 -0.05926,0.209462 -0.112998,0.307304 -0.112998,0.372071 -0.112998,0.413413 0,0.23151 0.186034,0.332105 0.42168,0.347264 -0.01929,0.08682 -0.01929,0.09233 -0.05375,0.220486 -0.0055,0.02755 -0.05374,0.226 -0.05374,0.23289 0,0.0028 0,0.0248 0.02893,0.0248 0.0055,0 0.01516,0 0.01929,-0.0096 0.01101,-0.0055 0.02617,-0.06615 0.0303,-0.100598 l 0.09233,-0.363802 c 0.0937,0 0.304546,0 0.534678,-0.260449 0.103354,-0.114377 0.151585,-0.221865 0.181904,-0.294901 0.01929,-0.05926 0.07303,-0.272849 0.07303,-0.380337 0,-0.137805 -0.06339,-0.170878 -0.107489,-0.170878 -0.05926,0 -0.122645,0.06477 -0.122645,0.117133 0,0.03168 0.01516,0.04686 0.03859,0.06615 0.02479,0.02618 0.08819,0.08957 0.08819,0.208085 0,0.155717 -0.12678,0.355533 -0.214976,0.443728 -0.210836,0.217731 -0.367935,0.217731 -0.456131,0.217731 z m 0,0"
       style="fill:#000000;fill-opacity:1;fill-rule:evenodd;stroke:none;stroke-width:0.35277775" />
    <path
       inkscape:connector-curvature="0"
       id="path2103"
       d="m 79.070255,64.712079 0.0055,-0.0055 v -0.01101 l 0.0055,-0.0041 v -0.01379 l 0.0041,-0.0041 v -0.0041 l 0.0055,-0.0028 v -0.0041 l 0.0041,-0.0028 v -0.0028 l 0.0041,-0.0028 0.0055,-0.0028 0.0055,-0.0014 0.0041,-0.0028 0.0055,-0.0014 0.0041,-0.0028 0.0055,-0.0014 h 0.0055 v -0.0014 l 0.0096,-0.0014 v -0.0014 h 0.01516 l 0.0041,-0.0014 h 0.0055 l 0.0041,-0.0014 h 0.02893 l 0.0055,-0.0014 h 0.0441 c 0.04961,0 0.0689,0 0.0689,-0.03721 0,-0.0014 0,-0.02342 -0.02893,-0.02342 -0.03996,0 -0.08406,0.0028 -0.128156,0.0041 -0.0441,0.0028 -0.09371,0.0028 -0.136427,0.0028 -0.03583,0 -0.07855,-0.0028 -0.118512,-0.0028 -0.03443,0 -0.07304,-0.0041 -0.107487,-0.0041 -0.0096,0 -0.03858,0 -0.03858,0.03721 0,0.02342 0.02341,0.02342 0.05374,0.02342 0.0041,0 0.03306,0 0.06753,0.0041 0.03446,0.0041 0.03996,0.0069 0.03996,0.02342 0,0.0028 0,0.01101 -0.01101,0.03858 l -0.224621,0.905372 c -0.01516,0.05926 -0.01929,0.07166 -0.151585,0.07166 -0.0303,0 -0.04961,0 -0.04961,0.03721 0,0.0248 0.01929,0.0248 0.04961,0.0248 h 0.857139 c 0.0441,0 0.04961,-0.0014 0.05926,-0.03447 0.01929,-0.04548 0.146071,-0.376206 0.146071,-0.389985 0,-0.0055 -0.0041,-0.0248 -0.02893,-0.0248 -0.01929,0 -0.02479,0.0096 -0.03443,0.03583 -0.06339,0.16261 -0.141941,0.351399 -0.450622,0.351399 h -0.195681 c -0.04961,0 -0.05374,-0.0014 -0.05374,-0.01654 0,-0.0014 0,-0.0096 0.0096,-0.03583 z m 0,0"
       style="fill:#000000;fill-opacity:1;fill-rule:evenodd;stroke:none;stroke-width:0.35277775" />
    <path
       inkscape:connector-curvature="0"
       id="path2105"
       d="m 62.460761,74.504418 h 0.01517 l 0.0041,-0.0014 h 0.01101 l 0.0041,-0.0014 h 0.0055 l 0.0041,-0.0014 0.0097,-0.0014 0.01101,-0.0028 0.0083,-0.0028 v -0.0014 l 0.01101,-0.0055 0.0041,-0.0028 0.0097,-0.0069 v -0.0014 l 0.0055,-0.0028 v -0.0041 l 0.0041,-0.0014 v -0.0055 l 0.0055,-0.0014 v -0.0083 l 0.0055,-0.0041 v -0.02755 c 0,-0.05788 -0.04961,-0.05788 -0.09371,-0.05788 H 61.92597 c -0.366561,0 -0.636655,0.403765 -0.636655,0.693152 0,0.214976 0.141937,0.385851 0.362423,0.385851 l 0.0055,-0.05374 c -0.122646,0 -0.216351,-0.08819 -0.216351,-0.263208 0,-0.07304 0.0303,-0.274228 0.112998,-0.418923 0.103353,-0.166741 0.250804,-0.201193 0.333484,-0.201193 0.206707,0 0.226,0.159854 0.226,0.237024 0,0.114374 -0.04961,0.314191 -0.133671,0.439593 -0.09646,0.143316 -0.228755,0.206707 -0.32246,0.206707 l -0.0055,0.05374 c 0.289391,0 0.617361,-0.294901 0.617361,-0.671103 0,-0.04134 0,-0.159855 -0.07855,-0.265963 z m 0,0"
       style="fill:#000000;fill-opacity:1;fill-rule:evenodd;stroke:none;stroke-width:0.35277775" />
    <path
       inkscape:connector-curvature="0"
       id="path2107"
       d="M 43.191655,73.291744 H 37.521027"
       style="fill:none;stroke:#211e1e;stroke-width:0.11815042;stroke-linecap:butt;stroke-linejoin:miter;stroke-miterlimit:10;stroke-opacity:1" />
    <path
       inkscape:connector-curvature="0"
       id="path2109"
       d="m 43.487932,73.291744 -0.591178,-0.237024 0.117133,0.237024 -0.117133,0.235645 z m 0,0"
       style="fill:none;stroke:#211e1e;stroke-width:0.11815042;stroke-linecap:butt;stroke-linejoin:miter;stroke-miterlimit:10;stroke-opacity:1" />
    <path
       inkscape:connector-curvature="0"
       id="path2111"
       d="m 43.487932,73.291744 -0.591178,-0.23702 0.117133,0.23702 -0.117133,0.235645"
       style="fill:#211e1e;fill-opacity:1;fill-rule:nonzero;stroke:none;stroke-width:0.35277775" />
    <path
       inkscape:connector-curvature="0"
       id="path2113"
       d="M 48.863658,73.291744 H 43.191655"
       style="fill:none;stroke:#211e1e;stroke-width:0.11815042;stroke-linecap:butt;stroke-linejoin:miter;stroke-miterlimit:10;stroke-opacity:1" />
    <path
       inkscape:connector-curvature="0"
       id="path2115"
       d="M 81.000888,73.291744 H 75.328885"
       style="fill:none;stroke:#211e1e;stroke-width:0.11815042;stroke-linecap:butt;stroke-linejoin:miter;stroke-miterlimit:10;stroke-opacity:1" />
    <path
       inkscape:connector-curvature="0"
       id="path2117"
       d="m 81.29579,73.291744 -0.589804,-0.237024 0.117133,0.237024 -0.117133,0.235645 z m 0,0"
       style="fill:none;stroke:#211e1e;stroke-width:0.11815042;stroke-linecap:butt;stroke-linejoin:miter;stroke-miterlimit:10;stroke-opacity:1" />
    <path
       inkscape:connector-curvature="0"
       id="path2119"
       d="m 81.29579,73.291744 -0.589804,-0.23702 0.117133,0.23702 -0.117133,0.235645"
       style="fill:#211e1e;fill-opacity:1;fill-rule:nonzero;stroke:none;stroke-width:0.35277775" />
    <path
       inkscape:connector-curvature="0"
       id="path2121"
       d="M 86.671514,73.291744 H 81.000888"
       style="fill:none;stroke:#211e1e;stroke-width:0.11815042;stroke-linecap:butt;stroke-linejoin:miter;stroke-miterlimit:10;stroke-opacity:1" />
    <path
       inkscape:connector-curvature="0"
       id="path2123"
       d="m 52.526486,58.109897 2.953135,3.720705"
       style="fill:none;stroke:#211e1e;stroke-width:0.11815042;stroke-linecap:butt;stroke-linejoin:miter;stroke-miterlimit:10;stroke-dasharray:0.95028573, 0.95028573;stroke-opacity:1" />
    <path
       inkscape:connector-curvature="0"
       id="path2125"
       d="m 52.709765,58.341407 -0.181903,-0.610471 -0.112998,0.239779 -0.257694,0.05374 z m 0,0"
       style="fill:none;stroke:#211e1e;stroke-width:0.11815042;stroke-linecap:butt;stroke-linejoin:miter;stroke-miterlimit:10;stroke-opacity:1" />
    <path
       inkscape:connector-curvature="0"
       id="path2127"
       d="m 52.709765,58.341407 -0.181903,-0.610468 -0.112998,0.239776 -0.257694,0.05375"
       style="fill:#211e1e;fill-opacity:1;fill-rule:nonzero;stroke:none;stroke-width:0.35277775" />
    <g
       transform="matrix(0.35277777,0,0,0.35277777,-74.893814,0.32600348)"
       style="clip-rule:nonzero"
       id="g2131"
       clip-path="url(#clip11)">
      <path
         inkscape:connector-curvature="0"
         id="path2129"
         transform="matrix(0.6,0,0,-0.6,316.013,151.85626)"
         d="M 61.33901,-2.316383 75.297344,-19.901019"
         style="fill:none;stroke:#211e1e;stroke-width:0.558191;stroke-linecap:butt;stroke-linejoin:miter;stroke-miterlimit:10;stroke-dasharray:4.489539, 4.489539;stroke-opacity:1" />
    </g>
    <g
       transform="matrix(0.35277777,0,0,0.35277777,-74.893814,0.32600348)"
       id="g2135"
       style="fill:#211e1e;fill-opacity:1">
      <g
         id="use2133"
         transform="matrix(0.26458333,0,0,0.26458333,334.62482,212.09677)">
        <path
           inkscape:connector-curvature="0"
           id="path3628"
           d="M -0.078125,0 -0.03125,-0.265625 H 0.4375 l 0.609375,-3.125 h -0.46875 l 0.046875,-0.25 H 2.046875 L 2,-3.390625 H 1.53125 L 0.9375,-0.296875 H 2.609375 L 2.71875,-0.90625 H 3.015625 L 2.84375,0 Z m 0,0"
           style="stroke:none" />
      </g>
    </g>
    <g
       transform="matrix(0.35277777,0,0,0.35277777,-74.893814,0.32600348)"
       id="g2139"
       style="fill:#211e1e;fill-opacity:1">
      <g
         id="use2137"
         transform="matrix(0.26458333,0,0,0.26458333,441.409,211.37331)">
        <path
           inkscape:connector-curvature="0"
           id="path3640"
           d="M 0.859375,-0.28125 C 1.078125,-0.363281 1.3125,-0.5 1.5625,-0.6875 1.71875,-0.800781 1.898438,-1 2.109375,-1.28125 2.242188,-1.457031 2.332031,-1.625 2.375,-1.78125 2.414062,-1.9375 2.410156,-2.070312 2.359375,-2.1875 c -0.0625,-0.15625 -0.148437,-0.242188 -0.25,-0.265625 L 2.125,-2.59375 h 0.28125 c 0.164062,0.085938 0.296875,0.214844 0.390625,0.390625 0.070313,0.136719 0.09375,0.289063 0.0625,0.453125 -0.023437,0.117188 -0.0625,0.226562 -0.125,0.328125 C 2.679688,-1.347656 2.582031,-1.226562 2.4375,-1.0625 2.238281,-0.851562 2.023438,-0.671875 1.796875,-0.515625 1.378906,-0.242188 1.050781,-0.0703125 0.8125,0 H 0.359375 L 0.8125,-2.328125 H 0.390625 L 0.4375,-2.59375 h 0.875 z m 0,0"
           style="stroke:none" />
      </g>
    </g>
    <g
       transform="matrix(0.35277777,0,0,0.35277777,-74.893814,0.32600348)"
       id="g2143"
       style="fill:#211e1e;fill-opacity:1">
      <g
         id="use2141"
         transform="matrix(0.26458333,0,0,0.26458333,443.73993,212.09677)">
        <path
           inkscape:connector-curvature="0"
           id="path3644"
           d="m 1.4375,-1.078125 c 0.0625,0.011719 0.113281,0.042969 0.15625,0.09375 0.039062,0.042969 0.070312,0.105469 0.09375,0.1875 L 1.875,-0.15625 H 2.140625 L 2.125,0 H 1.609375 l -0.21875,-0.703125 c -0.03125,-0.125 -0.074219,-0.207031 -0.125,-0.25 -0.042969,-0.039063 -0.117187,-0.0625 -0.21875,-0.0625 h -0.3125 L 0.5625,-0.15625 H 0.875 L 0.84375,0 h -0.890625 l 0.03125,-0.15625 h 0.28125 L 0.625,-2.03125 H 0.34375 L 0.375,-2.1875 h 1.109375 c 0.21875,0 0.375,0.054688 0.46875,0.15625 0.09375,0.105469 0.125,0.246094 0.09375,0.421875 C 2.015625,-1.453125 1.945312,-1.332031 1.84375,-1.25 1.738281,-1.164062 1.601562,-1.109375 1.4375,-1.078125 Z M 0.75,-1.171875 h 0.4375 c 0.144531,0 0.257812,-0.035156 0.34375,-0.109375 0.082031,-0.070312 0.140625,-0.179688 0.171875,-0.328125 0.03125,-0.144531 0.015625,-0.25 -0.046875,-0.3125 C 1.601562,-1.992188 1.503906,-2.03125 1.359375,-2.03125 h -0.4375 z m 0,0"
           style="stroke:none" />
      </g>
    </g>
    <g
       transform="matrix(0.35277777,0,0,0.35277777,-74.893814,0.32600348)"
       id="g2147"
       style="fill:#211e1e;fill-opacity:1">
      <g
         id="use2145"
         transform="matrix(0.26458333,0,0,0.26458333,365.32962,160.05101)">
        <path
           inkscape:connector-curvature="0"
           id="path3632"
           d="M -0.078125,0 -0.03125,-0.265625 H 0.4375 l 0.609375,-3.125 h -0.46875 l 0.046875,-0.25 H 2.046875 L 2,-3.390625 H 1.53125 L 1.296875,-2.125 H 3.1875 L 3.421875,-3.390625 H 2.96875 l 0.046875,-0.25 H 4.4375 l -0.046875,0.25 h -0.46875 l -0.609375,3.125 H 3.78125 L 3.734375,0 H 2.3125 l 0.046875,-0.265625 h 0.46875 L 3.125,-1.828125 H 1.234375 L 0.9375,-0.265625 H 1.390625 L 1.34375,0 Z m 0,0"
           style="stroke:none" />
      </g>
    </g>
    <path
       inkscape:connector-curvature="0"
       id="path2149"
       d="m 71.666057,58.109897 -2.953136,3.720705"
       style="fill:none;stroke:#211e1e;stroke-width:0.11815042;stroke-linecap:butt;stroke-linejoin:miter;stroke-miterlimit:10;stroke-dasharray:0.95028573, 0.95028573;stroke-opacity:1" />
    <path
       inkscape:connector-curvature="0"
       id="path2151"
       d="m 71.850715,57.878386 -0.552596,0.315571 0.259072,0.05375 0.110244,0.239776 z m 0,0"
       style="fill:none;stroke:#211e1e;stroke-width:0.11815042;stroke-linecap:butt;stroke-linejoin:miter;stroke-miterlimit:10;stroke-opacity:1" />
    <path
       inkscape:connector-curvature="0"
       id="path2153"
       d="m 71.850715,57.878386 -0.552596,0.315574 0.259072,0.05374 0.110244,0.23978"
       style="fill:#211e1e;fill-opacity:1;fill-rule:nonzero;stroke:none;stroke-width:0.35277775" />
    <g
       transform="matrix(0.35277777,0,0,0.35277777,-74.893814,0.32600348)"
       style="clip-rule:nonzero"
       id="g2157"
       clip-path="url(#clip12)">
      <path
         inkscape:connector-curvature="0"
         id="path2155"
         transform="matrix(0.6,0,0,-0.6,316.013,151.85626)"
         d="M 179.67885,-2.316383 165.72052,-19.901019"
         style="fill:none;stroke:#211e1e;stroke-width:0.558191;stroke-linecap:butt;stroke-linejoin:miter;stroke-miterlimit:10;stroke-dasharray:4.489539, 4.489539;stroke-opacity:1" />
    </g>
    <g
       transform="matrix(0.35277777,0,0,0.35277777,-74.893814,0.32600348)"
       id="g2161"
       style="fill:#211e1e;fill-opacity:1">
      <g
         id="use2159"
         transform="matrix(0.26458333,0,0,0.26458333,406.36365,160.05096)">
        <path
           inkscape:connector-curvature="0"
           id="path3636"
           d="M 0.140625,-0.171875 0.3125,-1 h 0.28125 c -0.054688,0.273438 -0.015625,0.476562 0.109375,0.609375 0.125,0.136719 0.34375,0.203125 0.65625,0.203125 0.289063,0 0.523437,-0.054688 0.703125,-0.171875 0.175781,-0.113281 0.285156,-0.28125 0.328125,-0.5 0.03125,-0.175781 0.00781,-0.3125 -0.0625,-0.40625 -0.074219,-0.09375 -0.25,-0.1875 -0.53125,-0.28125 L 1.34375,-1.6875 C 1.019531,-1.789062 0.800781,-1.921875 0.6875,-2.078125 0.570312,-2.242188 0.539062,-2.460938 0.59375,-2.734375 c 0.0625,-0.3125 0.21875,-0.550781 0.46875,-0.71875 0.257812,-0.175781 0.585938,-0.265625 0.984375,-0.265625 0.164063,0 0.34375,0.023438 0.53125,0.0625 0.195313,0.042969 0.40625,0.09375 0.625,0.15625 l -0.15625,0.78125 H 2.78125 C 2.800781,-2.976562 2.75,-3.164062 2.625,-3.28125 2.5,-3.394531 2.289062,-3.453125 2,-3.453125 c -0.261719,0 -0.46875,0.054687 -0.625,0.15625 -0.148438,0.105469 -0.242188,0.261719 -0.28125,0.46875 -0.03125,0.167969 -0.011719,0.304687 0.0625,0.40625 C 1.238281,-2.328125 1.4375,-2.226562 1.75,-2.125 L 2.171875,-2 c 0.3125,0.105469 0.519531,0.234375 0.625,0.390625 0.113281,0.148437 0.144531,0.351563 0.09375,0.609375 -0.0625,0.355469 -0.226563,0.625 -0.484375,0.8125 -0.261719,0.1796875 -0.617188,0.265625 -1.0625,0.265625 -0.199219,0 -0.402344,-0.0234375 -0.609375,-0.0625 -0.199219,-0.0390625 -0.398437,-0.1015625 -0.59375,-0.1875 z m 0,0"
           style="stroke:none" />
      </g>
    </g>
    <path
       inkscape:connector-curvature="0"
       id="path2163"
       d="m 48.863658,73.291744 c -0.0014,-4.728051 2.521811,-9.096431 6.615963,-11.461142"
       style="fill:none;stroke:#211e1e;stroke-width:0.11815042;stroke-linecap:butt;stroke-linejoin:miter;stroke-miterlimit:10;stroke-opacity:1" />
    <path
       inkscape:connector-curvature="0"
       id="path2165"
       d="m 50.783267,66.419467 -0.08957,0.629765 -0.147451,-0.22049 -0.263204,-0.01654 z m 0,0"
       style="fill:none;stroke:#211e1e;stroke-width:0.11815042;stroke-linecap:butt;stroke-linejoin:miter;stroke-miterlimit:10;stroke-opacity:1" />
    <path
       inkscape:connector-curvature="0"
       id="path2167"
       d="m 50.783267,66.419467 -0.08957,0.629765 -0.147451,-0.220486 -0.263204,-0.01654"
       style="fill:#211e1e;fill-opacity:1;fill-rule:nonzero;stroke:none;stroke-width:0.35277775" />
    <path
       inkscape:connector-curvature="0"
       id="path2169"
       d="M 75.328885,73.291744 C 75.193834,68.6009 72.707854,64.294532 68.712921,61.830602"
       style="fill:none;stroke:#211e1e;stroke-width:0.11815042;stroke-linecap:butt;stroke-linejoin:miter;stroke-miterlimit:10;stroke-opacity:1" />
    <path
       inkscape:connector-curvature="0"
       id="path2171"
       d="m 73.615983,66.981707 -0.09095,-0.629765 -0.146071,0.220486 -0.263205,0.01655 z m 0,0"
       style="fill:none;stroke:#211e1e;stroke-width:0.11815042;stroke-linecap:butt;stroke-linejoin:miter;stroke-miterlimit:10;stroke-opacity:1" />
    <path
       inkscape:connector-curvature="0"
       id="path2173"
       d="m 73.615983,66.981707 -0.09095,-0.629761 -0.146071,0.220486 -0.263205,0.01654"
       style="fill:#211e1e;fill-opacity:1;fill-rule:nonzero;stroke:none;stroke-width:0.35277775" />
    <path
       inkscape:connector-curvature="0"
       id="path2175"
       d="M 62.095583,73.291744 H 48.863658"
       style="fill:none;stroke:#211e1e;stroke-width:0.11815042;stroke-linecap:butt;stroke-linejoin:miter;stroke-miterlimit:10;stroke-dasharray:1.20298482, 1.20298482;stroke-opacity:1" />
    <path
       inkscape:connector-curvature="0"
       id="path2177"
       d="m 61.800682,73.291744 0.591178,0.235645 -0.118512,-0.235645 0.118512,-0.237024 z m 0,0"
       style="fill:none;stroke:#211e1e;stroke-width:0.11815042;stroke-linecap:butt;stroke-linejoin:miter;stroke-miterlimit:10;stroke-opacity:1" />
    <path
       inkscape:connector-curvature="0"
       id="path2179"
       d="m 61.800682,73.291744 0.591178,0.235645 -0.118512,-0.235645 0.118512,-0.23702"
       style="fill:#211e1e;fill-opacity:1;fill-rule:nonzero;stroke:none;stroke-width:0.35277775" />
    <path
       inkscape:connector-curvature="0"
       id="path2181"
       d="M 75.328885,73.291744 H 62.095583"
       style="fill:none;stroke:#211e1e;stroke-width:0.11815042;stroke-linecap:butt;stroke-linejoin:miter;stroke-miterlimit:10;stroke-dasharray:1.20298482, 1.20298482;stroke-opacity:1" />
    <path
       inkscape:connector-curvature="0"
       id="path2183"
       d="m 55.479621,61.830602 c 4.094152,-2.363336 9.137769,-2.363336 13.2333,0"
       style="fill:none;stroke:#211e1e;stroke-width:0.11815042;stroke-linecap:butt;stroke-linejoin:miter;stroke-miterlimit:10;stroke-opacity:1" />
    <path
       inkscape:connector-curvature="0"
       id="path2185"
       d="m 62.39186,60.058444 -0.591178,0.23702 0.118509,-0.23702 -0.118509,-0.235645 z m 0,0"
       style="fill:none;stroke:#211e1e;stroke-width:0.11815042;stroke-linecap:butt;stroke-linejoin:miter;stroke-miterlimit:10;stroke-opacity:1" />
    <path
       inkscape:connector-curvature="0"
       id="path2187"
       d="m 62.39186,60.058444 -0.591178,0.237024 0.118512,-0.237024 -0.118512,-0.235645"
       style="fill:#211e1e;fill-opacity:1;fill-rule:nonzero;stroke:none;stroke-width:0.35277775" />
    <g
       transform="matrix(0.35277777,0,0,0.35277777,-74.893814,0.32600348)"
       style="clip-rule:nonzero"
       id="g2191"
       clip-path="url(#clip13)">
      <path
         inkscape:connector-curvature="0"
         id="path2189"
         d="m 316.01172,151.85547 h 144 v 0.16406 h -144 z m 0,0"
         style="fill:#ffffff;fill-opacity:1;fill-rule:nonzero;stroke:none" />
    </g>
    <g
       transform="matrix(0.35277777,0,0,0.35277777,-74.893814,0.32600348)"
       style="clip-rule:nonzero"
       id="g2195"
       clip-path="url(#clip14)">
      <path
         inkscape:connector-curvature="0"
         id="path2193"
         d="m 316.01172,151.9375 h 0.16406 v 62.21484 h -0.16406 z m 0,0"
         style="fill:#ffffff;fill-opacity:1;fill-rule:nonzero;stroke:none" />
    </g>
    <g
       transform="matrix(0.35277777,0,0,0.35277777,-74.893814,0.32600348)"
       style="clip-rule:nonzero"
       id="g2199"
       clip-path="url(#clip15)">
      <path
         inkscape:connector-curvature="0"
         id="path2197"
         d="m 459.85156,151.9375 h 0.16016 v 62.21484 h -0.16016 z m 0,0"
         style="fill:#ffffff;fill-opacity:1;fill-rule:nonzero;stroke:none" />
    </g>
    <g
       transform="matrix(0.35277777,0,0,0.35277777,-74.893814,0.32600348)"
       style="clip-rule:nonzero"
       id="g2203"
       clip-path="url(#clip16)">
      <path
         inkscape:connector-curvature="0"
         id="path2201"
         d="m 316.01172,214.07031 h 144 v 0.16016 h -144 z m 0,0"
         style="fill:#ffffff;fill-opacity:1;fill-rule:nonzero;stroke:none" />
    </g>
    <path
       inkscape:connector-curvature="0"
       id="path2235"
       d="M 37.521027,75.99132 H 86.671514"
       style="fill:none;stroke:#007f00;stroke-width:0.9452042;stroke-linecap:butt;stroke-linejoin:miter;stroke-miterlimit:4;stroke-opacity:0.43255801" />
    <path
       inkscape:connector-curvature="0"
       id="path2237"
       d="m 58.701473,74.842037 v 2.29719 l 3.209452,-1.147907 z m 0,0"
       style="fill:#007f00;fill-opacity:0.43137303;fill-rule:nonzero;stroke:none;stroke-width:0.35277775" />
    <g
       transform="matrix(0.35277777,0,0,0.35277777,-74.893814,0.32600348)"
       style="clip-rule:nonzero"
       id="g2241"
       clip-path="url(#clip21)">
      <path
         inkscape:connector-curvature="0"
         id="path2239"
         transform="matrix(-0.6,0,0,-0.6,316.013,151.85626)"
         d="m -236.61245,-76.79555 h 44.79818 c 7.24609,19.309896 14.55729,31.809896 27.21354,41.24349 l -24.79818,28.567708"
         style="fill:none;stroke:#0000ff;stroke-width:4.46553183;stroke-linecap:butt;stroke-linejoin:miter;stroke-miterlimit:4;stroke-opacity:0.43255801" />
    </g>
    <path
       inkscape:connector-curvature="0"
       id="path2243"
       d="m 77.080369,66.695075 -2.011937,1.106565 -0.538811,-3.365168 z m 0,0"
       style="fill:#0000ff;fill-opacity:0.43137303;fill-rule:nonzero;stroke:none;stroke-width:0.35277775" />
    <path
       inkscape:connector-curvature="0"
       id="path2245"
       d="m 70.359677,66.78327 c 0,2.353687 -3.728969,4.262271 -8.33024,4.262271 -4.599894,0 -8.330243,-1.908584 -8.330243,-4.262271 0,-2.355067 3.730349,-4.263651 8.330243,-4.263651 4.601271,0 8.33024,1.908584 8.33024,4.263651 z m 0,0"
       style="fill:none;stroke:#ff0000;stroke-width:1.07964087;stroke-linecap:butt;stroke-linejoin:miter;stroke-miterlimit:4;stroke-opacity:0.43255801" />
    <path
       inkscape:connector-curvature="0"
       id="path2247"
       d="m 62.839722,69.887989 v 2.295814 l -3.208073,-1.146527 z m 0,0"
       style="fill:#ff0000;fill-opacity:0.43137303;fill-rule:nonzero;stroke:none;stroke-width:0.35277775" />
  </g>
</svg>
