<?xml version="1.0" encoding="UTF-8" standalone="no"?>
<svg
   xmlns:dc="http://purl.org/dc/elements/1.1/"
   xmlns:cc="http://creativecommons.org/ns#"
   xmlns:rdf="http://www.w3.org/1999/02/22-rdf-syntax-ns#"
   xmlns:svg="http://www.w3.org/2000/svg"
   xmlns="http://www.w3.org/2000/svg"
   xmlns:sodipodi="http://sodipodi.sourceforge.net/DTD/sodipodi-0.dtd"
   xmlns:inkscape="http://www.inkscape.org/namespaces/inkscape"
   width="201pt"
   version="1.1"
   height="121pt"
   viewBox="0 0 201 121"
   id="svg3584"
   inkscape:version="0.48.3.1 r9886"
   sodipodi:docname="T1-2.svg">
  <metadata
     id="metadata3663">
    <rdf:RDF>
      <cc:Work
         rdf:about="">
        <dc:format>image/svg+xml</dc:format>
        <dc:type
           rdf:resource="http://purl.org/dc/dcmitype/StillImage" />
      </cc:Work>
    </rdf:RDF>
  </metadata>
  <sodipodi:namedview
     pagecolor="#ffffff"
     bordercolor="#666666"
     borderopacity="1"
     objecttolerance="10"
     gridtolerance="10"
     guidetolerance="10"
     inkscape:pageopacity="0"
     inkscape:pageshadow="2"
     inkscape:window-width="640"
     inkscape:window-height="480"
     id="namedview3661"
     showgrid="false"
     inkscape:zoom="1.4083333"
     inkscape:cx="125.625"
     inkscape:cy="75.625"
     inkscape:window-x="0"
     inkscape:window-y="24"
     inkscape:window-maximized="0"
     inkscape:current-layer="svg3584" />
  <defs
     id="defs3586">
    <clipPath
       id="Clip0">
      <path
         d="M0 0 L201 0 L201 121 L0 121 L0 0 Z"
         transform="translate(0, 0)"
         id="path3589" />
    </clipPath>
    <clipPath
       id="Clip1">
      <path
         d="M0 0 L201 0 L201 121 L0 121 L0 0 Z"
         transform="translate(0, 0)"
         id="path3592" />
    </clipPath>
  </defs>
  <g
     id="Background">
    <g
       id="Group1"
       clip-path="url(#Clip0)">
      <g
         id="Group2"
         clip-path="url(#Clip1)">
        <path
           style="fill:none;stroke:#000000; stroke-width:0.8; stroke-linecap:butt; stroke-linejoin:miter; stroke-dasharray:none;"
           d="M0 0 L60 0 "
           transform="translate(0.681641, 100.375)"
           id="path3597" />
        <path
           style="fill:#000000; fill-rule:nonzero;stroke:none;"
           d="M5.3994 2.1602 L0 0 L0 4.3202 L5.3994 2.1602 "
           transform="translate(27.9824, 98.2148)"
           id="path3599" />
        <path
           style="fill:none;stroke:#000000; stroke-width:0.8; stroke-linecap:butt; stroke-linejoin:miter; stroke-dasharray:3 3 ; stroke-dashoffset:0;"
           d="M0 0 L40.0004 0 "
           transform="translate(60.6816, 100.375)"
           id="path3601" />
        <path
           style="fill:none;stroke:#000000; stroke-width:0.8; stroke-linecap:butt; stroke-linejoin:miter; stroke-dasharray:3 3 ; stroke-dashoffset:0;"
           d="M0 0 L40 0 "
           transform="translate(100.682, 100.375)"
           id="path3603" />
        <path
           style="fill:#000000; fill-rule:nonzero;stroke:none;"
           d="M5.3996 2.1602 L0 0 L0 4.3202 L5.3996 2.1602 "
           transform="translate(97.9824, 98.2148)"
           id="path3605" />
        <path
           style="fill:none;stroke:#000000; stroke-width:0.8; stroke-linecap:butt; stroke-linejoin:miter; stroke-dasharray:4 4 ; stroke-dashoffset:0;"
           d="M30 0 L0 0 "
           transform="translate(170.682, 100.375)"
           id="path3607" />
        <path
           style="fill:none;stroke:#000000; stroke-width:0.8; stroke-linecap:butt; stroke-linejoin:miter; stroke-dasharray:4 4 ; stroke-dashoffset:0;"
           d="M30 0 L0 0 "
           transform="translate(140.682, 100.375)"
           id="path3609" />
        <path
           style="fill:#000000; fill-rule:nonzero;stroke:none;"
           d="M0 2.1602 L5.4 4.3202 L5.4 0 L0 2.1602 "
           transform="translate(167.982, 98.2148)"
           id="path3611" />
        <path
           style="fill:none;stroke:#000000; stroke-width:0.8; stroke-linecap:butt; stroke-linejoin:miter; stroke-dasharray:none;"
           d="M0 0 L0 80 "
           transform="translate(60.6816, 20.375)"
           id="path3613" />
        <path
           style="fill:#000000; fill-rule:nonzero;stroke:none;"
           d="M2.1591 5.4004 L4.3193 0 L0 0 L2.1591 5.4004 "
           transform="translate(58.5225, 57.6748)"
           id="path3615" />
        <path
           style="fill:none;stroke:#000000; stroke-width:0.8; stroke-linecap:butt; stroke-linejoin:miter; stroke-dasharray:3 3 ; stroke-dashoffset:0;"
           d="M0 40 L0 0 "
           transform="translate(140.682, 60.375)"
           id="path3617" />
        <path
           style="fill:none;stroke:#000000; stroke-width:0.8; stroke-linecap:butt; stroke-linejoin:miter; stroke-dasharray:3 3 ; stroke-dashoffset:0;"
           d="M0 40 L0 0 "
           transform="translate(140.682, 20.375)"
           id="path3619" />
        <path
           style="fill:#000000; fill-rule:nonzero;stroke:none;"
           d="M2.16 0 L0 5.4004 L4.32 5.4004 L2.16 0 "
           transform="translate(138.522, 57.6748)"
           id="path3621" />
        <path
           style="fill:none;stroke:#000000; stroke-width:0.8; stroke-linecap:butt; stroke-linejoin:miter; stroke-dasharray:4 4 ; stroke-dashoffset:0;"
           d="M0 0 L30 0 "
           transform="translate(0.681641, 20.375)"
           id="path3623" />
        <path
           style="fill:none;stroke:#000000; stroke-width:0.8; stroke-linecap:butt; stroke-linejoin:miter; stroke-dasharray:4 4 ; stroke-dashoffset:0;"
           d="M0 0 L30 0 "
           transform="translate(30.6816, 20.375)"
           id="path3625" />
        <path
           style="fill:#000000; fill-rule:nonzero;stroke:none;"
           d="M5.3994 2.1602 L0 0 L0 4.3204 L5.3994 2.1602 "
           transform="translate(27.9824, 18.2148)"
           id="path3627" />
        <path
           style="fill:none;stroke:#000000; stroke-width:0.8; stroke-linecap:butt; stroke-linejoin:miter; stroke-dasharray:none;"
           d="M60 0 L0 0 "
           transform="translate(140.682, 20.375)"
           id="path3629" />
        <path
           style="fill:#000000; fill-rule:nonzero;stroke:none;"
           d="M0 2.1602 L5.4 4.3204 L5.4 0 L0 2.1602 "
           transform="translate(167.982, 18.2148)"
           id="path3631" />
        <path
           style="fill:none;stroke:#000000; stroke-width:0.8; stroke-linecap:butt; stroke-linejoin:miter; stroke-dasharray:none;"
           d="M80.0004 0 L0 0 "
           transform="translate(60.6816, 20.375)"
           id="path3633" />
        <path
           style="fill:#000000; fill-rule:nonzero;stroke:none;"
           d="M0 2.1602 L5.3996 4.3204 L5.3996 0 L0 2.1602 "
           transform="translate(97.9824, 18.2148)"
           id="path3635" />
        <path
           style="fill:#000000; fill-rule:evenodd;stroke:none;"
           d="M1.988 0.1211 C1.988 0.07422 1.953 0 1.859 0 C1.773 0 0.656 0.10938 0.476 0.1211 C0.343 0.13282 0.226 0.14454 0.226 0.35938 C0.226 0.47657 0.32 0.47657 0.488 0.47657 C1.046 0.47657 1.082 0.5625 1.082 0.69141 C1.082 0.73829 1.058 0.88282 1.046 0.92969 L0 5.13669 C0 5.18749 0.035 5.25779 0.117 5.25779 L0.367 5.25779 C0.535 5.25779 2.347 4.82809 3.742 3.39844 C5.281 1.8125 5.496 0.34766 5.496 0.30079 C5.496 0.10938 5.339 0 5.183 0 C4.839 0 4.754 0.32422 4.73 0.40625 C4.027 2.89844 2.394 4.375 0.808 4.89849 L1.988 0.1211 Z"
           transform="translate(167.225, 5.52441)"
           id="path3641" />
        <path
           style="fill:#000000; fill-rule:evenodd;stroke:none;"
           d="M1.9882 0.121 C1.9882 0.074 1.9531 0 1.8593 0 C1.7734 0 0.6562 0.11 0.4765 0.121 C0.3437 0.133 0.2265 0.145 0.2265 0.36 C0.2265 0.477 0.3203 0.477 0.4882 0.477 C1.0468 0.477 1.082 0.563 1.082 0.692 C1.082 0.738 1.0585 0.883 1.0468 0.93 L0 5.137 C0 5.188 0.0351 5.258 0.1171 5.258 L0.3671 5.258 C0.5351 5.258 2.3476 4.828 3.7421 3.399 C5.2812 1.813 5.496 0.348 5.496 0.301 C5.496 0.11 5.3398 0 5.1835 0 C4.8398 0 4.7539 0.324 4.7304 0.406 C4.0273 2.899 2.3945 4.375 0.8085 4.899 L1.9882 0.121 Z"
           transform="translate(27.752, 115.117)"
           id="path3643" />
        <path
           style="fill:#000000; fill-rule:evenodd;stroke:none;"
           d="M4.5668 0.11 C4.5668 0 4.4848 0 4.4488 0 C4.3398 0 4.3278 0.024 4.2808 0.227 L3.6367 2.789 C3.6015 2.946 3.5898 2.957 3.5781 2.969 C3.5664 2.992 3.4843 3.004 3.457 3.004 C1.5039 3.172 0 4.782 0 6.27 C0 7.559 0.9922 8.344 2.2304 8.418 C2.1367 8.785 2.0508 9.168 1.957 9.535 C1.789 10.168 1.6953 10.563 1.6953 10.61 C1.6953 10.633 1.6953 10.707 1.8125 10.707 C1.8476 10.707 1.8984 10.707 1.9218 10.657 C1.9453 10.633 2.0156 10.348 2.0625 10.192 L2.5039 8.418 C4.5428 8.309 6.0938 6.641 6.0938 5.137 C6.0938 3.934 5.1878 3.075 3.8633 2.992 L4.5668 0.11 Z M3.7929 3.231 C4.5778 3.278 5.3668 3.719 5.3668 4.887 C5.3668 6.235 4.4258 8.024 2.5664 8.168 L3.7929 3.231 Z M2.289 8.18 C1.707 8.141 0.7304 7.832 0.7304 6.52 C0.7304 5.02 1.8125 3.352 3.5312 3.242 L2.289 8.18 Z"
           transform="translate(95.8262, 109.779)"
           id="path3649" />
        <path
           style="fill:#000000; fill-rule:evenodd;stroke:none;"
           d="M1.871 0.676 C1.91 0.571 1.941 0.516 1.941 0.438 C1.941 0.176 1.703 0 1.48 0 C1.164 0 1.074 0.278 1.043 0.387 L0.031 3.813 C0 3.911 0 3.934 0 3.942 C0 4.012 0.046 4.028 0.128 4.051 C0.269 4.118 0.285 4.118 0.304 4.118 C0.328 4.118 0.375 4.118 0.429 3.981 L1.871 0.676 Z"
           transform="translate(102.436, 109.273)"
           id="path3651" />
        <path
           style="fill:#000000; fill-rule:evenodd;stroke:none;"
           d="M5.2813 0.2851 C5.2813 0.2734 5.3282 0.121 5.3282 0.1093 C5.3282 0 5.2344 0 5.1993 0 C5.0899 0 5.0782 0.0585 5.0313 0.2382 L3.0664 8.1289 C2.0743 8.0117 1.7071 7.5117 1.7071 6.7968 C1.7071 6.5312 1.7071 6.2578 2.2657 4.7812 C2.4219 4.3515 2.4805 4.1953 2.4805 3.9804 C2.4805 3.4453 2.0977 3.0156 1.5391 3.0156 C0.4414 3.0156 0 4.746 0 4.8398 C0 4.8867 0.0508 4.9492 0.1329 4.9492 C0.2383 4.9492 0.25 4.8984 0.3008 4.7343 C0.586 3.6953 1.0625 3.2539 1.504 3.2539 C1.6094 3.2539 1.8125 3.2656 1.8125 3.6484 C1.8125 3.6953 1.8125 3.957 1.6094 4.4843 C0.9688 6.1757 0.9688 6.4375 0.9688 6.7109 C0.9688 7.8554 1.9219 8.2968 2.9922 8.3789 C2.8985 8.75 2.8164 9.1328 2.7188 9.5 C2.5274 10.2148 2.4454 10.5507 2.4454 10.5976 C2.4454 10.707 2.5391 10.707 2.5782 10.707 C2.6016 10.707 2.6485 10.707 2.6719 10.6562 C2.7188 10.6093 3.2071 8.6054 3.254 8.3945 C3.6954 8.3945 4.6368 8.3945 5.711 7.2851 C6.1055 6.8554 6.461 6.3046 6.6641 5.7929 C6.7852 5.4843 7.0704 4.4218 7.0704 3.8164 C7.0704 3.1015 6.711 3.0156 6.5938 3.0156 C6.3086 3.0156 6.0469 3.3007 6.0469 3.5429 C6.0469 3.6835 6.129 3.7656 6.1758 3.8164 C6.2852 3.9218 6.6055 4.246 6.6055 4.8632 C6.6055 5.2929 6.3672 6.1757 5.6055 7.0351 C4.6016 8.1523 3.6836 8.1523 3.3282 8.1523 L5.2813 0.2851 Z"
           transform="translate(45.2148, 50.002)"
           id="path3653" />
        <path
           style="fill:#000000; fill-rule:evenodd;stroke:none;"
           d="M1.8711 0.6758 C1.9102 0.5703 1.9414 0.5156 1.9414 0.4375 C1.9414 0.1758 1.7032 0 1.4805 0 C1.1641 0 1.0743 0.2773 1.043 0.3867 L0.0313 3.8125 C0 3.9101 0 3.9336 0 3.9414 C0 4.0117 0.0469 4.0273 0.1289 4.0508 C0.2696 4.1172 0.2852 4.1172 0.3047 4.1172 C0.3282 4.1172 0.375 4.1172 0.4297 3.9805 L1.8711 0.6758 Z"
           transform="translate(53.1777, 49.4961)"
           id="path3655" />
        <path
           style="fill:#000000; fill-rule:evenodd;stroke:none;"
           d="M5.2812 0.285157 C5.2812 0.273438 5.3282 0.121094 5.3282 0.109375 C5.3282 0 5.2342 0 5.1992 0 C5.0902 0 5.0782 0.058594 5.0312 0.238282 L3.0664 8.12891 C2.0742 8.01172 1.707 7.51172 1.707 6.79688 C1.707 6.53125 1.707 6.25782 2.2656 4.78125 C2.4219 4.35157 2.4805 4.19532 2.4805 3.98047 C2.4805 3.44532 2.0977 3.01563 1.5391 3.01563 C0.4414 3.01563 0 4.7461 0 4.83985 C0 4.88672 0.0508 4.94922 0.1328 4.94922 C0.2383 4.94922 0.25 4.89844 0.3008 4.73438 C0.5859 3.69532 1.0625 3.25391 1.5039 3.25391 C1.6094 3.25391 1.8125 3.26563 1.8125 3.64844 C1.8125 3.69532 1.8125 3.95703 1.6094 4.48438 C0.9688 6.17578 0.9688 6.4375 0.9688 6.71094 C0.9688 7.85547 1.9219 8.29688 2.9922 8.37891 C2.8984 8.75 2.8164 9.13282 2.7188 9.5 C2.5273 10.2149 2.4453 10.5508 2.4453 10.5977 C2.4453 10.7071 2.5391 10.7071 2.5781 10.7071 C2.6016 10.7071 2.6484 10.7071 2.6719 10.6563 C2.7188 10.6094 3.207 8.60547 3.2539 8.39453 C3.6952 8.39453 4.6372 8.39453 5.7112 7.28516 C6.1052 6.85547 6.4612 6.30469 6.6642 5.79297 C6.7852 5.48438 7.0702 4.42188 7.0702 3.81641 C7.0702 3.10157 6.7112 3.01563 6.5942 3.01563 C6.3082 3.01563 6.0472 3.30078 6.0472 3.54297 C6.0472 3.6836 6.1292 3.76563 6.1762 3.81641 C6.2852 3.92188 6.6052 4.2461 6.6052 4.86328 C6.6052 5.29297 6.3672 6.17578 5.6052 7.03516 C4.6012 8.15235 3.6832 8.15235 3.3281 8.15235 L5.2812 0.285157 Z"
           transform="translate(96.4248, 0.186523)"
           id="path3657" />
        <path
           style="fill:#000000; fill-rule:evenodd;stroke:none;"
           d="M4.567 0.1093 C4.567 0 4.485 0 4.449 0 C4.34 0 4.328 0.0234 4.281 0.2265 L3.637 2.789 C3.602 2.9453 3.59 2.957 3.578 2.9687 C3.567 2.9921 3.485 3.0039 3.457 3.0039 C1.504 3.1718 0 4.7812 0 6.2695 C0 7.5585 0.992 8.3437 2.231 8.4179 C2.137 8.7851 2.051 9.1679 1.957 9.5351 C1.789 10.1679 1.695 10.5625 1.695 10.6093 C1.695 10.6328 1.695 10.707 1.813 10.707 C1.848 10.707 1.899 10.707 1.922 10.6562 C1.945 10.6328 2.016 10.3476 2.063 10.1914 L2.504 8.4179 C4.543 8.3085 6.094 6.6406 6.094 5.1367 C6.094 3.9335 5.188 3.0742 3.863 2.9921 L4.567 0.1093 Z M3.793 3.2304 C4.578 3.2773 5.367 3.7187 5.367 4.8867 C5.367 6.2343 4.426 8.0234 2.567 8.1679 L3.793 3.2304 Z M2.289 8.1796 C1.707 8.1406 0.731 7.832 0.731 6.5195 C0.731 5.0195 1.813 3.3515 3.531 3.2421 L2.289 8.1796 Z"
           transform="translate(147.035, 50.002)"
           id="path3659" />
      </g>
    </g>
  </g>
  <text
     xml:space="preserve"
     style="font-size:12px;font-style:italic;font-variant:normal;font-weight:normal;font-stretch:normal;text-align:start;line-height:58.99999738%;letter-spacing:0px;word-spacing:0px;writing-mode:lr-tb;text-anchor:start;fill:#000000;fill-opacity:1;stroke:none;font-family:FreeSerif;-inkscape-font-specification:FreeSerif Italic"
     x="25.041752"
     y="12.281627"
     id="text3414"
     sodipodi:linespacing="58.999997%"><tspan
       sodipodi:role="line"
       id="tspan3416"
       x="25.041752"
       y="12.281627">h<tspan
   style="font-size:7.80010986px;font-style:normal;baseline-shift:super;-inkscape-font-specification:FreeSerif"
   id="tspan3418">0</tspan></tspan></text>
  <text
     sodipodi:linespacing="58.999997%"
     id="text3703"
     y="120.21062"
     x="168.18968"
     style="font-size:12px;font-style:italic;font-variant:normal;font-weight:normal;font-stretch:normal;text-align:start;line-height:58.99999738%;letter-spacing:0px;word-spacing:0px;writing-mode:lr-tb;text-anchor:start;fill:#000000;fill-opacity:1;stroke:none;font-family:FreeSerif;-inkscape-font-specification:FreeSerif Italic"
     xml:space="preserve"><tspan
       y="120.21062"
       x="168.18968"
       id="tspan3705"
       sodipodi:role="line">h<tspan
   id="tspan3707"
   style="font-size:7.80010986px;font-style:normal;baseline-shift:super;-inkscape-font-specification:FreeSerif">0</tspan></tspan></text>
</svg>
