<?xml version="1.0" encoding="UTF-8" standalone="no"?>
<svg
   xmlns:dc="http://purl.org/dc/elements/1.1/"
   xmlns:cc="http://creativecommons.org/ns#"
   xmlns:rdf="http://www.w3.org/1999/02/22-rdf-syntax-ns#"
   xmlns:svg="http://www.w3.org/2000/svg"
   xmlns="http://www.w3.org/2000/svg"
   xmlns:sodipodi="http://sodipodi.sourceforge.net/DTD/sodipodi-0.dtd"
   xmlns:inkscape="http://www.inkscape.org/namespaces/inkscape"
   width="201pt"
   version="1.1"
   height="120pt"
   viewBox="0 0 201 120"
   id="svg3862"
   inkscape:version="0.48.3.1 r9886"
   sodipodi:docname="T1-3.svg">
  <metadata
     id="metadata3937">
    <rdf:RDF>
      <cc:Work
         rdf:about="">
        <dc:format>image/svg+xml</dc:format>
        <dc:type
           rdf:resource="http://purl.org/dc/dcmitype/StillImage" />
      </cc:Work>
    </rdf:RDF>
  </metadata>
  <sodipodi:namedview
     pagecolor="#ffffff"
     bordercolor="#666666"
     borderopacity="1"
     objecttolerance="10"
     gridtolerance="10"
     guidetolerance="10"
     inkscape:pageopacity="0"
     inkscape:pageshadow="2"
     inkscape:window-width="640"
     inkscape:window-height="480"
     id="namedview3935"
     showgrid="false"
     inkscape:zoom="1.4083333"
     inkscape:cx="125.625"
     inkscape:cy="75"
     inkscape:window-x="0"
     inkscape:window-y="24"
     inkscape:window-maximized="0"
     inkscape:current-layer="svg3862" />
  <defs
     id="defs3864">
    <clipPath
       id="Clip0">
      <path
         d="M0 0 L201 0 L201 120 L0 120 L0 0 Z"
         transform="translate(0, 0)"
         id="path3867" />
    </clipPath>
    <clipPath
       id="Clip1">
      <path
         d="M0 0 L201 0 L201 120 L0 120 L0 0 Z"
         transform="translate(0, 0)"
         id="path3870" />
    </clipPath>
  </defs>
  <g
     id="Background">
    <g
       id="Group1"
       clip-path="url(#Clip0)">
      <g
         id="Group2"
         clip-path="url(#Clip1)">
        <path
           style="fill:none;stroke:#000000; stroke-width:0.8; stroke-linecap:butt; stroke-linejoin:miter; stroke-dasharray:none;"
           d="M0 0 L60 0 "
           transform="translate(0.681641, 99.375)"
           id="path3875" />
        <path
           style="fill:#000000; fill-rule:nonzero;stroke:none;"
           d="M5.3994 2.1602 L0 0 L0 4.3202 L5.3994 2.1602 "
           transform="translate(27.9824, 97.2148)"
           id="path3877" />
        <path
           style="fill:none;stroke:#000000; stroke-width:0.8; stroke-linecap:butt; stroke-linejoin:miter; stroke-dasharray:3 3 ; stroke-dashoffset:0;"
           d="M0 0 L40.0004 0 "
           transform="translate(60.6816, 99.375)"
           id="path3879" />
        <path
           style="fill:none;stroke:#000000; stroke-width:0.8; stroke-linecap:butt; stroke-linejoin:miter; stroke-dasharray:3 3 ; stroke-dashoffset:0;"
           d="M0 0 L40 0 "
           transform="translate(100.682, 99.375)"
           id="path3881" />
        <path
           style="fill:#000000; fill-rule:nonzero;stroke:none;"
           d="M5.3996 2.1602 L0 0 L0 4.3202 L5.3996 2.1602 "
           transform="translate(97.9824, 97.2148)"
           id="path3883" />
        <path
           style="fill:none;stroke:#000000; stroke-width:0.8; stroke-linecap:butt; stroke-linejoin:miter; stroke-dasharray:none;"
           d="M60 0 L0 0 "
           transform="translate(140.682, 99.375)"
           id="path3885" />
        <path
           style="fill:#000000; fill-rule:nonzero;stroke:none;"
           d="M0 2.1602 L5.4 4.3202 L5.4 0 L0 2.1602 "
           transform="translate(167.982, 97.2148)"
           id="path3887" />
        <path
           style="fill:none;stroke:#000000; stroke-width:0.8; stroke-linecap:butt; stroke-linejoin:miter; stroke-dasharray:none;"
           d="M0 0 L0 80 "
           transform="translate(60.6816, 19.375)"
           id="path3889" />
        <path
           style="fill:#000000; fill-rule:nonzero;stroke:none;"
           d="M2.1591 5.4004 L4.3193 0 L0 0 L2.1591 5.4004 "
           transform="translate(58.5225, 56.6748)"
           id="path3891" />
        <path
           style="fill:none;stroke:#000000; stroke-width:0.8; stroke-linecap:butt; stroke-linejoin:miter; stroke-dasharray:none;"
           d="M0 80 L0 0 "
           transform="translate(140.682, 19.375)"
           id="path3893" />
        <path
           style="fill:#000000; fill-rule:nonzero;stroke:none;"
           d="M2.16 0 L0 5.4004 L4.32 5.4004 L2.16 0 "
           transform="translate(138.522, 56.6748)"
           id="path3895" />
        <path
           style="fill:none;stroke:#000000; stroke-width:0.8; stroke-linecap:butt; stroke-linejoin:miter; stroke-dasharray:4 4 ; stroke-dashoffset:0;"
           d="M0 0 L30 0 "
           transform="translate(0.681641, 19.375)"
           id="path3897" />
        <path
           style="fill:none;stroke:#000000; stroke-width:0.8; stroke-linecap:butt; stroke-linejoin:miter; stroke-dasharray:4 4 ; stroke-dashoffset:0;"
           d="M0 0 L30 0 "
           transform="translate(30.6816, 19.375)"
           id="path3899" />
        <path
           style="fill:#000000; fill-rule:nonzero;stroke:none;"
           d="M5.3994 2.1602 L0 0 L0 4.3204 L5.3994 2.1602 "
           transform="translate(27.9824, 17.2148)"
           id="path3901" />
        <path
           style="fill:none;stroke:#000000; stroke-width:0.8; stroke-linecap:butt; stroke-linejoin:miter; stroke-dasharray:4 4 ; stroke-dashoffset:0;"
           d="M30 0 L0 0 "
           transform="translate(170.682, 19.375)"
           id="path3903" />
        <path
           style="fill:none;stroke:#000000; stroke-width:0.8; stroke-linecap:butt; stroke-linejoin:miter; stroke-dasharray:4 4 ; stroke-dashoffset:0;"
           d="M30 0 L0 0 "
           transform="translate(140.682, 19.375)"
           id="path3905" />
        <path
           style="fill:#000000; fill-rule:nonzero;stroke:none;"
           d="M0 2.1602 L5.4 4.3204 L5.4 0 L0 2.1602 "
           transform="translate(167.982, 17.2148)"
           id="path3907" />
        <path
           style="fill:none;stroke:#000000; stroke-width:0.8; stroke-linecap:butt; stroke-linejoin:miter; stroke-dasharray:none;"
           d="M80.0004 0 L0 0 "
           transform="translate(60.6816, 19.375)"
           id="path3909" />
        <path
           style="fill:#000000; fill-rule:nonzero;stroke:none;"
           d="M0 2.1602 L5.3996 4.3204 L5.3996 0 L0 2.1602 "
           transform="translate(97.9824, 17.2148)"
           id="path3911" />
        <path
           style="fill:#000000; fill-rule:evenodd;stroke:none;"
           d="M1.9882 0.121 C1.9882 0.074 1.9531 0 1.8593 0 C1.7734 0 0.6562 0.11 0.4765 0.121 C0.3437 0.133 0.2265 0.145 0.2265 0.36 C0.2265 0.477 0.3203 0.477 0.4882 0.477 C1.0468 0.477 1.082 0.563 1.082 0.692 C1.082 0.738 1.0585 0.883 1.0468 0.93 L0 5.137 C0 5.188 0.0351 5.258 0.1171 5.258 L0.3671 5.258 C0.5351 5.258 2.3476 4.828 3.7421 3.399 C5.2812 1.813 5.496 0.348 5.496 0.301 C5.496 0.11 5.3398 0 5.1835 0 C4.8398 0 4.7539 0.324 4.7304 0.406 C4.0273 2.899 2.3945 4.375 0.8085 4.899 L1.9882 0.121 Z"
           transform="translate(27.752, 114.117)"
           id="path3921" />
        <path
           style="fill:#000000; fill-rule:evenodd;stroke:none;"
           d="M1.988 0.121 C1.988 0.074 1.953 0 1.859 0 C1.773 0 0.656 0.11 0.476 0.121 C0.343 0.133 0.226 0.145 0.226 0.36 C0.226 0.477 0.32 0.477 0.488 0.477 C1.046 0.477 1.082 0.563 1.082 0.692 C1.082 0.738 1.058 0.883 1.046 0.93 L0 5.137 C0 5.188 0.035 5.258 0.117 5.258 L0.367 5.258 C0.535 5.258 2.347 4.828 3.742 3.399 C5.281 1.813 5.496 0.348 5.496 0.301 C5.496 0.11 5.339 0 5.183 0 C4.839 0 4.754 0.324 4.73 0.406 C4.027 2.899 2.394 4.375 0.808 4.899 L1.988 0.121 Z"
           transform="translate(167.225, 114.117)"
           id="path3923" />
        <path
           style="fill:#000000; fill-rule:evenodd;stroke:none;"
           d="M4.5663 0.11 C4.5663 0 4.4843 0 4.4493 0 C4.3403 0 4.3283 0.024 4.2813 0.227 L3.6363 2.789 C3.6013 2.946 3.5903 2.957 3.5783 2.969 C3.5663 2.992 3.4843 3.004 3.4573 3.004 C1.5039 3.172 0 4.782 0 6.27 C0 7.559 0.9922 8.344 2.2305 8.418 C2.1367 8.785 2.0508 9.168 1.957 9.535 C1.7891 10.168 1.6953 10.563 1.6953 10.61 C1.6953 10.633 1.6953 10.707 1.8125 10.707 C1.8477 10.707 1.8984 10.707 1.9219 10.657 C1.9453 10.633 2.0156 10.348 2.0625 10.192 L2.5039 8.418 C4.5433 8.309 6.0933 6.641 6.0933 5.137 C6.0933 3.934 5.1873 3.074 3.8633 2.992 L4.5663 0.11 Z M3.7933 3.231 C4.5783 3.278 5.3673 3.719 5.3673 4.887 C5.3673 6.235 4.4253 8.024 2.5664 8.168 L3.7933 3.231 Z M2.2891 8.18 C1.707 8.141 0.7305 7.832 0.7305 6.52 C0.7305 5.02 1.8125 3.352 3.5313 3.242 L2.2891 8.18 Z"
           transform="translate(97.2207, 108.78)"
           id="path3925" />
        <path
           style="fill:#000000; fill-rule:evenodd;stroke:none;"
           d="M5.2812 0.2851 C5.2812 0.2734 5.3281 0.121 5.3281 0.1093 C5.3281 0 5.2343 0 5.1992 0 C5.0898 0 5.0781 0.0585 5.0312 0.2382 L3.0664 8.1289 C2.0742 8.0117 1.707 7.5117 1.707 6.7968 C1.707 6.5312 1.707 6.2578 2.2656 4.7812 C2.4218 4.3515 2.4804 4.1953 2.4804 3.9804 C2.4804 3.4453 2.0976 3.0156 1.539 3.0156 C0.4414 3.0156 0 4.746 0 4.8398 C0 4.8867 0.0507 4.9492 0.1328 4.9492 C0.2382 4.9492 0.25 4.8984 0.3007 4.7343 C0.5859 3.6953 1.0625 3.2539 1.5039 3.2539 C1.6093 3.2539 1.8125 3.2656 1.8125 3.6484 C1.8125 3.6953 1.8125 3.957 1.6093 4.4843 C0.9687 6.1757 0.9687 6.4375 0.9687 6.7109 C0.9687 7.8554 1.9218 8.2968 2.9922 8.3789 C2.8984 8.75 2.8164 9.1328 2.7187 9.5 C2.5273 10.2148 2.4453 10.5507 2.4453 10.5976 C2.4453 10.707 2.539 10.707 2.5781 10.707 C2.6015 10.707 2.6484 10.707 2.6718 10.6562 C2.7187 10.6093 3.207 8.6054 3.2539 8.3945 C3.6953 8.3945 4.6367 8.3945 5.7109 7.2851 C6.1054 6.8554 6.4609 6.3046 6.664 5.7929 C6.7851 5.4843 7.0703 4.4218 7.0703 3.8164 C7.0703 3.1015 6.7109 3.0156 6.5937 3.0156 C6.3086 3.0156 6.0468 3.3007 6.0468 3.5429 C6.0468 3.6835 6.1289 3.7656 6.1757 3.8164 C6.2851 3.9218 6.6054 4.246 6.6054 4.8632 C6.6054 5.2929 6.3672 6.1757 5.6054 7.0351 C4.6015 8.1523 3.6836 8.1523 3.3281 8.1523 L5.2812 0.2851 Z"
           transform="translate(45.2139, 49.002)"
           id="path3927" />
        <path
           style="fill:#000000; fill-rule:evenodd;stroke:none;"
           d="M1.8711 0.6758 C1.9102 0.5703 1.9414 0.5156 1.9414 0.4375 C1.9414 0.1758 1.7032 0 1.4805 0 C1.1641 0 1.0743 0.2773 1.043 0.3867 L0.0313 3.8125 C0 3.9101 0 3.9336 0 3.9414 C0 4.0117 0.0469 4.0273 0.1289 4.0508 C0.2696 4.1172 0.2852 4.1172 0.3047 4.1172 C0.3282 4.1172 0.375 4.1172 0.4297 3.9805 L1.8711 0.6758 Z"
           transform="translate(53.1777, 48.4961)"
           id="path3929" />
        <path
           style="fill:#000000; fill-rule:evenodd;stroke:none;"
           d="M4.3005 0.91797 C4.3005 0.48828 4.3285 0.34375 5.3635 0.34375 L5.7225 0.34375 L5.7225 0 C5.3985 0.02344 4.2425 0.02344 3.8515 0.02344 C3.457 0.02344 2.3008 0.02344 1.9766 0 L1.9766 0.34375 L2.336 0.34375 C3.3711 0.34375 3.3985 0.48828 3.3985 0.91797 L3.3985 6.28125 C1.7774 5.88672 1.7383 3.95703 1.7383 3.20703 C1.7266 2.01172 1.3711 1.52344 0.668 1.52344 L0.2852 1.52344 C0.0938 1.52344 0 1.52344 0 1.64453 C0 1.73828 0.0703 1.75 0.1172 1.76172 C0.668 1.84766 0.8203 2.34766 0.832 3.41016 C0.8477 5.11328 1.7149 6.32813 3.3985 6.55469 L3.3985 7.22266 C3.3985 7.65235 3.3711 7.79688 2.336 7.79688 L1.9766 7.79688 L1.9766 8.14063 C2.3008 8.11719 3.457 8.11719 3.8515 8.11719 C4.2425 8.11719 5.3985 8.11719 5.7225 8.14063 L5.7225 7.79688 L5.3635 7.79688 C4.3285 7.79688 4.3005 7.65235 4.3005 7.22266 L4.3005 6.55469 C6.6285 6.26953 6.9145 4.38672 6.9255 3.13281 C6.9255 2.58594 7.0425 1.84766 7.6285 1.76172 C7.6995 1.75 7.7735 1.73828 7.7735 1.64453 C7.7735 1.52344 7.6755 1.52344 7.4845 1.52344 L7.0935 1.52344 C6.5315 1.52344 6.0315 1.72656 6.0195 3.35938 C6.0075 4.63672 5.6485 5.97266 4.3005 6.29297 L4.3005 0.91797 Z"
           transform="translate(96.2285, 1.6416)"
           id="path3931" />
        <path
           style="fill:#000000; fill-rule:evenodd;stroke:none;"
           d="M5.282 0.2851 C5.282 0.2734 5.328 0.121 5.328 0.1093 C5.328 0 5.235 0 5.199 0 C5.09 0 5.078 0.0585 5.032 0.2382 L3.067 8.1289 C2.074 8.0117 1.707 7.5117 1.707 6.7968 C1.707 6.5312 1.707 6.2578 2.266 4.7812 C2.422 4.3515 2.481 4.1953 2.481 3.9804 C2.481 3.4453 2.098 3.0156 1.539 3.0156 C0.442 3.0156 0 4.746 0 4.8398 C0 4.8867 0.051 4.9492 0.133 4.9492 C0.239 4.9492 0.25 4.8984 0.301 4.7343 C0.586 3.6953 1.063 3.2539 1.504 3.2539 C1.61 3.2539 1.813 3.2656 1.813 3.6484 C1.813 3.6953 1.813 3.957 1.61 4.4843 C0.969 6.1757 0.969 6.4375 0.969 6.7109 C0.969 7.8554 1.922 8.2968 2.992 8.3789 C2.899 8.75 2.817 9.1328 2.719 9.5 C2.528 10.2148 2.446 10.5507 2.446 10.5976 C2.446 10.707 2.539 10.707 2.578 10.707 C2.602 10.707 2.649 10.707 2.672 10.6562 C2.719 10.6093 3.207 8.6054 3.254 8.3945 C3.696 8.3945 4.637 8.3945 5.711 7.2851 C6.106 6.8554 6.461 6.3046 6.664 5.7929 C6.785 5.4843 7.071 4.4218 7.071 3.8164 C7.071 3.1015 6.711 3.0156 6.594 3.0156 C6.309 3.0156 6.047 3.3007 6.047 3.5429 C6.047 3.6835 6.129 3.7656 6.176 3.8164 C6.285 3.9218 6.606 4.246 6.606 4.8632 C6.606 5.2929 6.367 6.1757 5.606 7.0351 C4.602 8.1523 3.684 8.1523 3.328 8.1523 L5.282 0.2851 Z"
           transform="translate(146.239, 49.002)"
           id="path3933" />
      </g>
    </g>
  </g>
  <text
     xml:space="preserve"
     style="font-size:12px;font-style:italic;font-variant:normal;font-weight:normal;font-stretch:normal;text-align:start;line-height:58.99999738%;letter-spacing:0px;word-spacing:0px;writing-mode:lr-tb;text-anchor:start;fill:#000000;fill-opacity:1;stroke:none;font-family:FreeSerif;-inkscape-font-specification:FreeSerif Italic"
     x="25.041752"
     y="11.281627"
     id="text3414"
     sodipodi:linespacing="58.999997%"><tspan
       sodipodi:role="line"
       id="tspan3416"
       x="25.041752"
       y="11.281627">h<tspan
   style="font-size:7.80010986px;font-style:normal;baseline-shift:super;-inkscape-font-specification:FreeSerif"
   id="tspan3418">0</tspan></tspan></text>
  <text
     sodipodi:linespacing="58.999997%"
     id="text3440"
     y="11.281627"
     x="165.04164"
     style="font-size:12px;font-style:italic;font-variant:normal;font-weight:normal;font-stretch:normal;text-align:start;line-height:58.99999738%;letter-spacing:0px;word-spacing:0px;writing-mode:lr-tb;text-anchor:start;fill:#000000;fill-opacity:1;stroke:none;font-family:FreeSerif;-inkscape-font-specification:FreeSerif Italic"
     xml:space="preserve"><tspan
       y="11.281627"
       x="165.04164"
       id="tspan3442"
       sodipodi:role="line">h<tspan
   id="tspan3444"
   style="font-size:7.80010986px;font-style:normal;baseline-shift:super;-inkscape-font-specification:FreeSerif">0</tspan></tspan></text>
</svg>
