<?xml version="1.0" encoding="UTF-8" standalone="no"?>
<svg
   xmlns:dc="http://purl.org/dc/elements/1.1/"
   xmlns:cc="http://creativecommons.org/ns#"
   xmlns:rdf="http://www.w3.org/1999/02/22-rdf-syntax-ns#"
   xmlns:svg="http://www.w3.org/2000/svg"
   xmlns="http://www.w3.org/2000/svg"
   xmlns:sodipodi="http://sodipodi.sourceforge.net/DTD/sodipodi-0.dtd"
   xmlns:inkscape="http://www.inkscape.org/namespaces/inkscape"
   width="201pt"
   version="1.1"
   height="120pt"
   viewBox="0 0 201 120"
   id="svg4146"
   inkscape:version="0.48.5 r10040"
   sodipodi:docname="T3.svg">
  <metadata
     id="metadata4217">
    <rdf:RDF>
      <cc:Work
         rdf:about="">
        <dc:format>image/svg+xml</dc:format>
        <dc:type
           rdf:resource="http://purl.org/dc/dcmitype/StillImage" />
      </cc:Work>
    </rdf:RDF>
  </metadata>
  <sodipodi:namedview
     pagecolor="#ffffff"
     bordercolor="#666666"
     borderopacity="1"
     objecttolerance="10"
     gridtolerance="10"
     guidetolerance="10"
     inkscape:pageopacity="0"
     inkscape:pageshadow="2"
     inkscape:window-width="1366"
     inkscape:window-height="702"
     id="namedview4215"
     showgrid="false"
     inkscape:zoom="3.36"
     inkscape:cx="73.095238"
     inkscape:cy="75"
     inkscape:window-x="0"
     inkscape:window-y="27"
     inkscape:window-maximized="1"
     inkscape:current-layer="svg4146" />
  <defs
     id="defs4148">
    <marker
       inkscape:stockid="DotL"
       orient="auto"
       refY="0.0"
       refX="0.0"
       id="DotL"
       style="overflow:visible">
      <path
         id="path3995"
         d="M -2.5,-1.0 C -2.5,1.7600000 -4.7400000,4.0 -7.5,4.0 C -10.260000,4.0 -12.5,1.7600000 -12.5,-1.0 C -12.5,-3.7600000 -10.260000,-6.0 -7.5,-6.0 C -4.7400000,-6.0 -2.5,-3.7600000 -2.5,-1.0 z "
         style="fill-rule:evenodd;stroke:#000000;stroke-width:1.0pt"
         transform="scale(0.8) translate(7.4, 1)" />
    </marker>
    <clipPath
       id="Clip0">
      <path
         d="M0 0 L201 0 L201 120 L0 120 L0 0 Z"
         transform="translate(0, 0)"
         id="path4151" />
    </clipPath>
    <clipPath
       id="Clip1">
      <path
         d="M0 0 L201 0 L201 120 L0 120 L0 0 Z"
         transform="translate(0, 0)"
         id="path4154" />
    </clipPath>
  </defs>
  <g
     id="Background">
    <g
       id="Group1"
       clip-path="url(#Clip0)">
      <g
         id="Group2"
         clip-path="url(#Clip1)">
        <path
           style="fill:none;stroke:#000000;stroke-width:0.80000000000000004;stroke-linecap:butt;stroke-linejoin:miter;stroke-dasharray:none;marker-end:url(#DotL)"
           d="M0 0 L60 0 "
           transform="translate(0.681641, 99.375)"
           id="path4159" />
        <path
           style="fill:#000000; fill-rule:nonzero;stroke:none;"
           d="M5.3994 2.1602 L0 0 L0 4.3202 L5.3994 2.1602 "
           transform="translate(27.9824, 97.2148)"
           id="path4161" />
        <path
           style="fill:none;stroke:#ff0000;stroke-width:0.80000000000000004;stroke-linecap:butt;stroke-linejoin:miter;stroke-dasharray:none"
           d="M0 0 L80.0004 0 "
           transform="translate(60.6816, 99.375)"
           id="path4163" />
        <path
           style="fill:#000000; fill-rule:nonzero;stroke:none;"
           d="M5.3996 2.1602 L0 0 L0 4.3202 L5.3996 2.1602 "
           transform="translate(97.9824, 97.2148)"
           id="path4165" />
        <path
           style="fill:none;stroke:#000000; stroke-width:0.8; stroke-linecap:butt; stroke-linejoin:miter; stroke-dasharray:none;"
           d="M60 0 L0 0 "
           transform="translate(140.682, 99.375)"
           id="path4167" />
        <path
           style="fill:#000000; fill-rule:nonzero;stroke:none;"
           d="M0 2.1602 L5.4 4.3202 L5.4 0 L0 2.1602 "
           transform="translate(167.982, 97.2148)"
           id="path4169" />
        <path
           style="fill:none;stroke:#ff0000;stroke-width:0.80000000000000004;stroke-linecap:butt;stroke-linejoin:miter;stroke-dasharray:4 4;stroke-dashoffset:0"
           d="M20.0004 0 L0 40 "
           transform="translate(80.6816, 19.375)"
           id="path4171" />
        <path
           style="fill:none;stroke:#ff0000;stroke-width:0.80000000000000004;stroke-linecap:butt;stroke-linejoin:miter;stroke-dasharray:4 4;stroke-dashoffset:0"
           d="M20 0 L0 40 "
           transform="translate(60.6816, 59.375)"
           id="path4173" />
        <path
           style="fill:#000000; fill-rule:nonzero;stroke:none;"
           d="M0 5.7959 L4.3467 1.9317 L0.4824 0 L0 5.7959 "
           transform="translate(79.4746, 55.9941)"
           id="path4175" />
        <path
           style="fill:none;stroke:#000000; stroke-width:0.8; stroke-linecap:butt; stroke-linejoin:miter; stroke-dasharray:4 4 ; stroke-dashoffset:0;"
           d="M20 40 L0 0 "
           transform="translate(120.682, 59.375)"
           id="path4177" />
        <path
           style="fill:none;stroke:#000000; stroke-width:0.8; stroke-linecap:butt; stroke-linejoin:miter; stroke-dasharray:4 4 ; stroke-dashoffset:0;"
           d="M20 40 L0 0 "
           transform="translate(100.682, 19.375)"
           id="path4179" />
        <path
           style="fill:#000000; fill-rule:nonzero;stroke:none;"
           d="M0 0 L0.482 5.7959 L4.346 3.8642 L0 0 "
           transform="translate(119.475, 56.96)"
           id="path4181" />
        <path
           style="fill:none;stroke:#000000; stroke-width:0.8; stroke-linecap:butt; stroke-linejoin:miter; stroke-dasharray:3 3 ; stroke-dashoffset:0;"
           d="M0 0 L50 0 "
           transform="translate(0.681641, 19.375)"
           id="path4183" />
        <path
           style="fill:none;stroke:#000000; stroke-width:0.8; stroke-linecap:butt; stroke-linejoin:miter; stroke-dasharray:3 3 ; stroke-dashoffset:0;"
           d="M0 0 L50.0004 0 "
           transform="translate(50.6816, 19.375)"
           id="path4185" />
        <path
           style="fill:#000000; fill-rule:nonzero;stroke:none;"
           d="M5.3994 2.1602 L0 0 L0 4.3204 L5.3994 2.1602 "
           transform="translate(47.9824, 17.2148)"
           id="path4187" />
        <path
           style="fill:none;stroke:#000000; stroke-width:0.8; stroke-linecap:butt; stroke-linejoin:miter; stroke-dasharray:3 3 ; stroke-dashoffset:0;"
           d="M50 0 L0 0 "
           transform="translate(150.682, 19.375)"
           id="path4189" />
        <path
           style="fill:none;stroke:#000000; stroke-width:0.8; stroke-linecap:butt; stroke-linejoin:miter; stroke-dasharray:3 3 ; stroke-dashoffset:0;"
           d="M50 0 L0 0 "
           transform="translate(100.682, 19.375)"
           id="path4191" />
        <path
           style="fill:#000000; fill-rule:nonzero;stroke:none;"
           d="M0 2.1602 L5.4 4.3204 L5.4 0 L0 2.1602 "
           transform="translate(147.982, 17.2148)"
           id="path4193" />
        <path
           style="fill:#ff0000;fill-rule:evenodd;stroke:none"
           d="M4.5664 0.1093 C4.5664 0 4.4843 0 4.4492 0 C4.3398 0 4.3281 0.0234 4.2812 0.2265 L3.6367 2.789 C3.6015 2.9453 3.5898 2.957 3.5781 2.9687 C3.5664 2.9921 3.4843 3.0039 3.457 3.0039 C1.5039 3.1718 0 4.7812 0 6.2695 C0 7.5585 0.9922 8.3437 2.2304 8.4179 C2.1367 8.7851 2.0507 9.1679 1.957 9.5351 C1.789 10.1679 1.6953 10.5625 1.6953 10.6093 C1.6953 10.6328 1.6953 10.707 1.8125 10.707 C1.8476 10.707 1.8984 10.707 1.9218 10.6562 C1.9453 10.6328 2.0156 10.3476 2.0625 10.1914 L2.5039 8.4179 C4.5429 8.3085 6.0937 6.6406 6.0937 5.1367 C6.0937 3.9335 5.1875 3.0742 3.8632 2.9921 L4.5664 0.1093 Z M3.7929 3.2304 C4.5781 3.2773 5.3672 3.7187 5.3672 4.8867 C5.3672 6.2343 4.4257 8.0234 2.5664 8.1679 L3.7929 3.2304 Z M2.289 8.1796 C1.707 8.1406 0.7304 7.832 0.7304 6.5195 C0.7304 5.0195 1.8125 3.3515 3.5312 3.2421 L2.289 8.1796 Z"
           transform="translate(57.3682, 49.002)"
           id="path4209" />
        <path
           style="fill:#ff0000;fill-rule:evenodd;stroke:none"
           d="M4.566 0.1093 C4.566 0 4.484 0 4.449 0 C4.34 0 4.328 0.0234 4.281 0.2265 L3.636 2.789 C3.601 2.9453 3.59 2.957 3.578 2.9687 C3.566 2.9921 3.484 3.0039 3.457 3.0039 C1.504 3.1718 0 4.7812 0 6.2695 C0 7.5585 0.992 8.3437 2.23 8.4179 C2.136 8.7851 2.051 9.1679 1.957 9.5351 C1.789 10.1679 1.695 10.5625 1.695 10.6093 C1.695 10.6328 1.695 10.707 1.812 10.707 C1.847 10.707 1.898 10.707 1.922 10.6562 C1.945 10.6328 2.015 10.3476 2.062 10.1914 L2.504 8.4179 C4.543 8.3085 6.094 6.6406 6.094 5.1367 C6.094 3.9335 5.187 3.0742 3.863 2.9921 L4.566 0.1093 Z M3.793 3.2304 C4.578 3.2773 5.367 3.7187 5.367 4.8867 C5.367 6.2343 4.426 8.0234 2.566 8.1679 L3.793 3.2304 Z M2.289 8.1796 C1.707 8.1406 0.73 7.832 0.73 6.5195 C0.73 5.0195 1.812 3.3515 3.531 3.2421 L2.289 8.1796 Z"
           transform="translate(135.677, 49.002)"
           id="path4211" />
        <path
           style="fill:#ff0000;fill-rule:evenodd;stroke:none"
           d="M1.871 0.6758 C1.91 0.5703 1.942 0.5156 1.942 0.4375 C1.942 0.1758 1.703 0 1.481 0 C1.164 0 1.074 0.2773 1.043 0.3867 L0.031 3.8125 C0 3.9101 0 3.9336 0 3.9414 C0 4.0117 0.047 4.0273 0.129 4.0508 C0.27 4.1172 0.285 4.1172 0.305 4.1172 C0.328 4.1172 0.375 4.1172 0.43 3.9805 L1.871 0.6758 Z"
           transform="translate(142.287, 48.4961)"
           id="path4213" />
      </g>
    </g>
  </g>
  <text
     sodipodi:linespacing="125%"
     id="text5222"
     y="115.38889"
     x="25.80039"
     style="font-size:12.80000019px;font-style:italic;font-variant:normal;font-weight:normal;font-stretch:normal;text-align:start;line-height:125%;letter-spacing:0px;word-spacing:0px;writing-mode:lr-tb;text-anchor:start;fill:#ff0000;fill-opacity:1;stroke:none;font-family:Fira Sans;-inkscape-font-specification:Fira Sans Italic"
     xml:space="preserve"><tspan
       y="115.38889"
       x="25.80039"
       id="tspan5224"
       sodipodi:role="line"
       style="fill:#000000">L</tspan></text>
  <text
     xml:space="preserve"
     style="font-size:12.80000019px;font-style:italic;font-variant:normal;font-weight:normal;font-stretch:normal;text-align:start;line-height:125%;letter-spacing:0px;word-spacing:0px;writing-mode:lr-tb;text-anchor:start;fill:#ff0000;fill-opacity:1;stroke:none;font-family:Fira Sans;-inkscape-font-specification:Fira Sans Italic"
     x="165.0004"
     y="115.38889"
     id="text5228"
     sodipodi:linespacing="125%"><tspan
       style="fill:#000000"
       sodipodi:role="line"
       id="tspan5230"
       x="165.0004"
       y="115.38889">L</tspan></text>
  <text
     xml:space="preserve"
     style="font-size:12.80000019px;font-style:italic;font-variant:normal;font-weight:normal;font-stretch:normal;text-align:start;line-height:125%;letter-spacing:0px;word-spacing:0px;writing-mode:lr-tb;text-anchor:start;fill:#ff0000;fill-opacity:1;stroke:none;font-family:Fira Sans;-inkscape-font-specification:Fira Sans Italic"
     x="25.80039"
     y="12.988896"
     id="text6457"
     sodipodi:linespacing="125%"><tspan
       style="fill:#000000"
       sodipodi:role="line"
       id="tspan6459"
       x="25.80039"
       y="12.988896">H</tspan></text>
  <text
     sodipodi:linespacing="125%"
     id="text6461"
     y="12.988896"
     x="163.7972"
     style="font-size:12.80000019px;font-style:italic;font-variant:normal;font-weight:normal;font-stretch:normal;text-align:start;line-height:125%;letter-spacing:0px;word-spacing:0px;writing-mode:lr-tb;text-anchor:start;fill:#ff0000;fill-opacity:1;stroke:none;font-family:Fira Sans;-inkscape-font-specification:Fira Sans Italic"
     xml:space="preserve"><tspan
       y="12.988896"
       x="163.7972"
       id="tspan6463"
       sodipodi:role="line"
       style="fill:#000000">H</tspan></text>
  <text
     xml:space="preserve"
     style="font-size:12.80000019px;font-style:italic;font-variant:normal;font-weight:normal;font-stretch:normal;text-align:start;line-height:125%;letter-spacing:0px;word-spacing:0px;writing-mode:lr-tb;text-anchor:start;fill:#ff0000;fill-opacity:1;stroke:none;font-family:Fira Sans;-inkscape-font-specification:Fira Sans Italic"
     x="94.173759"
     y="112.86987"
     id="text4335"
     sodipodi:linespacing="125%"><tspan
       sodipodi:role="line"
       id="tspan4337"
       x="94.173759"
       y="112.86987">Ψ<tspan
   style="font-size:12.80000019px;font-style:normal;baseline-shift:super;fill:#ff0000;-inkscape-font-specification:Fira Sans"
   id="tspan4339" /></tspan></text>
</svg>
