<?xml version="1.0" encoding="UTF-8" standalone="no"?>
<svg
   xmlns:dc="http://purl.org/dc/elements/1.1/"
   xmlns:cc="http://creativecommons.org/ns#"
   xmlns:rdf="http://www.w3.org/1999/02/22-rdf-syntax-ns#"
   xmlns:svg="http://www.w3.org/2000/svg"
   xmlns="http://www.w3.org/2000/svg"
   xmlns:sodipodi="http://sodipodi.sourceforge.net/DTD/sodipodi-0.dtd"
   xmlns:inkscape="http://www.inkscape.org/namespaces/inkscape"
   width="201pt"
   version="1.1"
   height="120pt"
   viewBox="0 0 201 120"
   id="svg4146"
   inkscape:version="0.48.3.1 r9886"
   sodipodi:docname="T3.svg">
  <metadata
     id="metadata4217">
    <rdf:RDF>
      <cc:Work
         rdf:about="">
        <dc:format>image/svg+xml</dc:format>
        <dc:type
           rdf:resource="http://purl.org/dc/dcmitype/StillImage" />
      </cc:Work>
    </rdf:RDF>
  </metadata>
  <sodipodi:namedview
     pagecolor="#ffffff"
     bordercolor="#666666"
     borderopacity="1"
     objecttolerance="10"
     gridtolerance="10"
     guidetolerance="10"
     inkscape:pageopacity="0"
     inkscape:pageshadow="2"
     inkscape:window-width="640"
     inkscape:window-height="480"
     id="namedview4215"
     showgrid="false"
     inkscape:zoom="1.4083333"
     inkscape:cx="125.625"
     inkscape:cy="75"
     inkscape:window-x="0"
     inkscape:window-y="24"
     inkscape:window-maximized="0"
     inkscape:current-layer="svg4146" />
  <defs
     id="defs4148">
    <clipPath
       id="Clip0">
      <path
         d="M0 0 L201 0 L201 120 L0 120 L0 0 Z"
         transform="translate(0, 0)"
         id="path4151" />
    </clipPath>
    <clipPath
       id="Clip1">
      <path
         d="M0 0 L201 0 L201 120 L0 120 L0 0 Z"
         transform="translate(0, 0)"
         id="path4154" />
    </clipPath>
  </defs>
  <g
     id="Background">
    <g
       id="Group1"
       clip-path="url(#Clip0)">
      <g
         id="Group2"
         clip-path="url(#Clip1)">
        <path
           style="fill:none;stroke:#000000; stroke-width:0.8; stroke-linecap:butt; stroke-linejoin:miter; stroke-dasharray:none;"
           d="M0 0 L60 0 "
           transform="translate(0.681641, 99.375)"
           id="path4159" />
        <path
           style="fill:#000000; fill-rule:nonzero;stroke:none;"
           d="M5.3994 2.1602 L0 0 L0 4.3202 L5.3994 2.1602 "
           transform="translate(27.9824, 97.2148)"
           id="path4161" />
        <path
           style="fill:none;stroke:#000000; stroke-width:0.8; stroke-linecap:butt; stroke-linejoin:miter; stroke-dasharray:none;"
           d="M0 0 L80.0004 0 "
           transform="translate(60.6816, 99.375)"
           id="path4163" />
        <path
           style="fill:#000000; fill-rule:nonzero;stroke:none;"
           d="M5.3996 2.1602 L0 0 L0 4.3202 L5.3996 2.1602 "
           transform="translate(97.9824, 97.2148)"
           id="path4165" />
        <path
           style="fill:none;stroke:#000000; stroke-width:0.8; stroke-linecap:butt; stroke-linejoin:miter; stroke-dasharray:none;"
           d="M60 0 L0 0 "
           transform="translate(140.682, 99.375)"
           id="path4167" />
        <path
           style="fill:#000000; fill-rule:nonzero;stroke:none;"
           d="M0 2.1602 L5.4 4.3202 L5.4 0 L0 2.1602 "
           transform="translate(167.982, 97.2148)"
           id="path4169" />
        <path
           style="fill:none;stroke:#000000; stroke-width:0.8; stroke-linecap:butt; stroke-linejoin:miter; stroke-dasharray:4 4 ; stroke-dashoffset:0;"
           d="M20.0004 0 L0 40 "
           transform="translate(80.6816, 19.375)"
           id="path4171" />
        <path
           style="fill:none;stroke:#000000; stroke-width:0.8; stroke-linecap:butt; stroke-linejoin:miter; stroke-dasharray:4 4 ; stroke-dashoffset:0;"
           d="M20 0 L0 40 "
           transform="translate(60.6816, 59.375)"
           id="path4173" />
        <path
           style="fill:#000000; fill-rule:nonzero;stroke:none;"
           d="M0 5.7959 L4.3467 1.9317 L0.4824 0 L0 5.7959 "
           transform="translate(79.4746, 55.9941)"
           id="path4175" />
        <path
           style="fill:none;stroke:#000000; stroke-width:0.8; stroke-linecap:butt; stroke-linejoin:miter; stroke-dasharray:4 4 ; stroke-dashoffset:0;"
           d="M20 40 L0 0 "
           transform="translate(120.682, 59.375)"
           id="path4177" />
        <path
           style="fill:none;stroke:#000000; stroke-width:0.8; stroke-linecap:butt; stroke-linejoin:miter; stroke-dasharray:4 4 ; stroke-dashoffset:0;"
           d="M20 40 L0 0 "
           transform="translate(100.682, 19.375)"
           id="path4179" />
        <path
           style="fill:#000000; fill-rule:nonzero;stroke:none;"
           d="M0 0 L0.482 5.7959 L4.346 3.8642 L0 0 "
           transform="translate(119.475, 56.96)"
           id="path4181" />
        <path
           style="fill:none;stroke:#000000; stroke-width:0.8; stroke-linecap:butt; stroke-linejoin:miter; stroke-dasharray:3 3 ; stroke-dashoffset:0;"
           d="M0 0 L50 0 "
           transform="translate(0.681641, 19.375)"
           id="path4183" />
        <path
           style="fill:none;stroke:#000000; stroke-width:0.8; stroke-linecap:butt; stroke-linejoin:miter; stroke-dasharray:3 3 ; stroke-dashoffset:0;"
           d="M0 0 L50.0004 0 "
           transform="translate(50.6816, 19.375)"
           id="path4185" />
        <path
           style="fill:#000000; fill-rule:nonzero;stroke:none;"
           d="M5.3994 2.1602 L0 0 L0 4.3204 L5.3994 2.1602 "
           transform="translate(47.9824, 17.2148)"
           id="path4187" />
        <path
           style="fill:none;stroke:#000000; stroke-width:0.8; stroke-linecap:butt; stroke-linejoin:miter; stroke-dasharray:3 3 ; stroke-dashoffset:0;"
           d="M50 0 L0 0 "
           transform="translate(150.682, 19.375)"
           id="path4189" />
        <path
           style="fill:none;stroke:#000000; stroke-width:0.8; stroke-linecap:butt; stroke-linejoin:miter; stroke-dasharray:3 3 ; stroke-dashoffset:0;"
           d="M50 0 L0 0 "
           transform="translate(100.682, 19.375)"
           id="path4191" />
        <path
           style="fill:#000000; fill-rule:nonzero;stroke:none;"
           d="M0 2.1602 L5.4 4.3204 L5.4 0 L0 2.1602 "
           transform="translate(147.982, 17.2148)"
           id="path4193" />
        <path
           style="fill:#000000; fill-rule:evenodd;stroke:none;"
           d="M1.9883 0.121 C1.9883 0.074 1.9532 0 1.8594 0 C1.7735 0 0.6563 0.11 0.4766 0.121 C0.3438 0.133 0.2266 0.145 0.2266 0.36 C0.2266 0.477 0.3203 0.477 0.4883 0.477 C1.0469 0.477 1.0821 0.563 1.0821 0.692 C1.0821 0.738 1.0586 0.883 1.0469 0.93 L0 5.137 C0 5.188 0.0352 5.258 0.1172 5.258 L0.3672 5.258 C0.5352 5.258 2.3477 4.828 3.7422 3.399 C5.2813 1.813 5.4961 0.348 5.4961 0.301 C5.4961 0.11 5.3399 0 5.1836 0 C4.8399 0 4.7539 0.324 4.7305 0.406 C4.0274 2.899 2.3946 4.375 0.8086 4.899 L1.9883 0.121 Z"
           transform="translate(22.7656, 114.117)"
           id="path4203" />
        <path
           style="fill:#000000; fill-rule:evenodd;stroke:none;"
           d="M1.988 0.121 C1.988 0.074 1.953 0 1.859 0 C1.773 0 0.656 0.11 0.477 0.121 C0.344 0.133 0.227 0.145 0.227 0.36 C0.227 0.477 0.32 0.477 0.488 0.477 C1.047 0.477 1.082 0.563 1.082 0.692 C1.082 0.738 1.059 0.883 1.047 0.93 L0 5.137 C0 5.188 0.035 5.258 0.117 5.258 L0.367 5.258 C0.535 5.258 2.348 4.828 3.742 3.399 C5.281 1.813 5.496 0.348 5.496 0.301 C5.496 0.11 5.34 0 5.184 0 C4.84 0 4.754 0.324 4.73 0.406 C4.027 2.899 2.394 4.375 0.809 4.899 L1.988 0.121 Z"
           transform="translate(172.21, 114.117)"
           id="path4205" />
        <path
           style="fill:#000000; fill-rule:evenodd;stroke:none;"
           d="M5.2812 0.285 C5.2812 0.274 5.3282 0.121 5.3282 0.11 C5.3282 0 5.2342 0 5.1992 0 C5.0902 0 5.0782 0.059 5.0312 0.239 L3.0664 8.129 C2.0742 8.012 1.7071 7.512 1.7071 6.797 C1.7071 6.532 1.7071 6.258 2.2657 4.782 C2.4219 4.352 2.4805 4.196 2.4805 3.981 C2.4805 3.446 2.0977 3.016 1.5391 3.016 C0.4414 3.016 0 4.746 0 4.84 C0 4.887 0.0508 4.949 0.1328 4.949 C0.2383 4.949 0.25 4.899 0.3008 4.735 C0.586 3.696 1.0625 3.254 1.5039 3.254 C1.6094 3.254 1.8125 3.266 1.8125 3.649 C1.8125 3.696 1.8125 3.957 1.6094 4.485 C0.9688 6.176 0.9688 6.438 0.9688 6.711 C0.9688 7.856 1.9219 8.297 2.9922 8.379 C2.8985 8.75 2.8164 9.133 2.7188 9.5 C2.5274 10.215 2.4453 10.551 2.4453 10.598 C2.4453 10.707 2.5391 10.707 2.5782 10.707 C2.6016 10.707 2.6485 10.707 2.6719 10.657 C2.7188 10.61 3.2071 8.606 3.2539 8.395 C3.6952 8.395 4.6372 8.395 5.7112 7.285 C6.1052 6.856 6.4612 6.305 6.6642 5.793 C6.7852 5.485 7.0702 4.422 7.0702 3.817 C7.0702 3.102 6.7112 3.016 6.5942 3.016 C6.3082 3.016 6.0472 3.301 6.0472 3.543 C6.0472 3.684 6.1292 3.766 6.1762 3.817 C6.2852 3.922 6.6052 4.246 6.6052 4.864 C6.6052 5.293 6.3672 6.176 5.6052 7.035 C4.6012 8.153 3.6832 8.153 3.3282 8.153 L5.2812 0.285 Z"
           transform="translate(96.4238, 108.78)"
           id="path4207" />
        <path
           style="fill:#000000; fill-rule:evenodd;stroke:none;"
           d="M4.5664 0.1093 C4.5664 0 4.4843 0 4.4492 0 C4.3398 0 4.3281 0.0234 4.2812 0.2265 L3.6367 2.789 C3.6015 2.9453 3.5898 2.957 3.5781 2.9687 C3.5664 2.9921 3.4843 3.0039 3.457 3.0039 C1.5039 3.1718 0 4.7812 0 6.2695 C0 7.5585 0.9922 8.3437 2.2304 8.4179 C2.1367 8.7851 2.0507 9.1679 1.957 9.5351 C1.789 10.1679 1.6953 10.5625 1.6953 10.6093 C1.6953 10.6328 1.6953 10.707 1.8125 10.707 C1.8476 10.707 1.8984 10.707 1.9218 10.6562 C1.9453 10.6328 2.0156 10.3476 2.0625 10.1914 L2.5039 8.4179 C4.5429 8.3085 6.0937 6.6406 6.0937 5.1367 C6.0937 3.9335 5.1875 3.0742 3.8632 2.9921 L4.5664 0.1093 Z M3.7929 3.2304 C4.5781 3.2773 5.3672 3.7187 5.3672 4.8867 C5.3672 6.2343 4.4257 8.0234 2.5664 8.1679 L3.7929 3.2304 Z M2.289 8.1796 C1.707 8.1406 0.7304 7.832 0.7304 6.5195 C0.7304 5.0195 1.8125 3.3515 3.5312 3.2421 L2.289 8.1796 Z"
           transform="translate(57.3682, 49.002)"
           id="path4209" />
        <path
           style="fill:#000000; fill-rule:evenodd;stroke:none;"
           d="M4.566 0.1093 C4.566 0 4.484 0 4.449 0 C4.34 0 4.328 0.0234 4.281 0.2265 L3.636 2.789 C3.601 2.9453 3.59 2.957 3.578 2.9687 C3.566 2.9921 3.484 3.0039 3.457 3.0039 C1.504 3.1718 0 4.7812 0 6.2695 C0 7.5585 0.992 8.3437 2.23 8.4179 C2.136 8.7851 2.051 9.1679 1.957 9.5351 C1.789 10.1679 1.695 10.5625 1.695 10.6093 C1.695 10.6328 1.695 10.707 1.812 10.707 C1.847 10.707 1.898 10.707 1.922 10.6562 C1.945 10.6328 2.015 10.3476 2.062 10.1914 L2.504 8.4179 C4.543 8.3085 6.094 6.6406 6.094 5.1367 C6.094 3.9335 5.187 3.0742 3.863 2.9921 L4.566 0.1093 Z M3.793 3.2304 C4.578 3.2773 5.367 3.7187 5.367 4.8867 C5.367 6.2343 4.426 8.0234 2.566 8.1679 L3.793 3.2304 Z M2.289 8.1796 C1.707 8.1406 0.73 7.832 0.73 6.5195 C0.73 5.0195 1.812 3.3515 3.531 3.2421 L2.289 8.1796 Z"
           transform="translate(135.677, 49.002)"
           id="path4211" />
        <path
           style="fill:#000000; fill-rule:evenodd;stroke:none;"
           d="M1.871 0.6758 C1.91 0.5703 1.942 0.5156 1.942 0.4375 C1.942 0.1758 1.703 0 1.481 0 C1.164 0 1.074 0.2773 1.043 0.3867 L0.031 3.8125 C0 3.9101 0 3.9336 0 3.9414 C0 4.0117 0.047 4.0273 0.129 4.0508 C0.27 4.1172 0.285 4.1172 0.305 4.1172 C0.328 4.1172 0.375 4.1172 0.43 3.9805 L1.871 0.6758 Z"
           transform="translate(142.287, 48.4961)"
           id="path4213" />
      </g>
    </g>
  </g>
  <text
     xml:space="preserve"
     style="font-size:12px;font-style:italic;font-variant:normal;font-weight:normal;font-stretch:normal;text-align:start;line-height:58.99999738%;letter-spacing:0px;word-spacing:0px;writing-mode:lr-tb;text-anchor:start;fill:#000000;fill-opacity:1;stroke:none;font-family:FreeSerif;-inkscape-font-specification:FreeSerif Italic"
     x="25.041752"
     y="11.281627"
     id="text3414"
     sodipodi:linespacing="58.999997%"><tspan
       sodipodi:role="line"
       id="tspan3416"
       x="25.041752"
       y="11.281627">h<tspan
   style="font-size:7.80010986px;font-style:normal;baseline-shift:super;-inkscape-font-specification:FreeSerif"
   id="tspan3418">0</tspan></tspan></text>
  <text
     sodipodi:linespacing="58.999997%"
     id="text3440"
     y="11.281627"
     x="165.04164"
     style="font-size:12px;font-style:italic;font-variant:normal;font-weight:normal;font-stretch:normal;text-align:start;line-height:58.99999738%;letter-spacing:0px;word-spacing:0px;writing-mode:lr-tb;text-anchor:start;fill:#000000;fill-opacity:1;stroke:none;font-family:FreeSerif;-inkscape-font-specification:FreeSerif Italic"
     xml:space="preserve"><tspan
       y="11.281627"
       x="165.04164"
       id="tspan3442"
       sodipodi:role="line">h<tspan
   id="tspan3444"
   style="font-size:7.80010986px;font-style:normal;baseline-shift:super;-inkscape-font-specification:FreeSerif">0</tspan></tspan></text>
</svg>
