<?xml version="1.0" encoding="UTF-8" standalone="no"?>
<!-- Created with Inkscape (http://www.inkscape.org/) -->

<svg
   xmlns:dc="http://purl.org/dc/elements/1.1/"
   xmlns:cc="http://creativecommons.org/ns#"
   xmlns:rdf="http://www.w3.org/1999/02/22-rdf-syntax-ns#"
   xmlns:svg="http://www.w3.org/2000/svg"
   xmlns="http://www.w3.org/2000/svg"
   xmlns:sodipodi="http://sodipodi.sourceforge.net/DTD/sodipodi-0.dtd"
   xmlns:inkscape="http://www.inkscape.org/namespaces/inkscape"
   width="254.66284mm"
   height="143.21815mm"
   viewBox="0 0 254.66284 143.21815"
   version="1.1"
   id="svg4614"
   sodipodi:docname="tcdm.svg"
   inkscape:version="0.92.1 r15371">
  <defs
     id="defs4608" />
  <sodipodi:namedview
     id="base"
     pagecolor="#ffffff"
     bordercolor="#666666"
     borderopacity="1.0"
     inkscape:pageopacity="0.0"
     inkscape:pageshadow="2"
     inkscape:zoom="2.9113075"
     inkscape:cx="425.63977"
     inkscape:cy="230.15498"
     inkscape:document-units="mm"
     inkscape:current-layer="layer1"
     showgrid="false"
     inkscape:window-width="1920"
     inkscape:window-height="1043"
     inkscape:window-x="0"
     inkscape:window-y="0"
     inkscape:window-maximized="1" />
  <metadata
     id="metadata4611">
    <rdf:RDF>
      <cc:Work
         rdf:about="">
        <dc:format>image/svg+xml</dc:format>
        <dc:type
           rdf:resource="http://purl.org/dc/dcmitype/StillImage" />
        <dc:title></dc:title>
      </cc:Work>
    </rdf:RDF>
  </metadata>
  <g
     inkscape:label="Layer 1"
     inkscape:groupmode="layer"
     id="layer1"
     style="display:inline"
     transform="translate(22.631623,16.173666)">
    <path
       sodipodi:nodetypes="ccccc"
       inkscape:connector-curvature="0"
       id="path3947-2"
       d="m -21.987226,55.3423 0.881949,47.55446 53.369536,22.78427 -0.276493,-47.47872 z"
       style="display:inline;fill:#ff0000;fill-opacity:1;fill-rule:evenodd;stroke:none;stroke-width:0.26458332px;stroke-linecap:butt;stroke-linejoin:miter;stroke-opacity:1" />
    <path
       style="display:inline;fill:#ff0000;fill-opacity:1;fill-rule:evenodd;stroke:none;stroke-width:0.26458332px;stroke-linecap:butt;stroke-linejoin:miter;stroke-opacity:1"
       d="m 33.222508,78.237579 -0.958249,47.443451 67.45686,-18.05705 V 58.05869 Z"
       id="path4754-9"
       inkscape:connector-curvature="0"
       sodipodi:nodetypes="ccccc" />
    <path
       sodipodi:nodetypes="cccccccccc"
       inkscape:connector-curvature="0"
       id="path4756-1"
       d="M -21.987226,55.3423 32.552228,77.320361 98.133619,58.58786 80.979859,50.78483 c 1.52882,-3.52421 -4.971538,-6.33265 -14.13313,-5.7536 L 53.771928,39.27763 C 56.18569,33.97921 29.401909,28.985 28.482138,39.85421 L 13.775689,44.13497 C 8.1679768,43.17506 -9.6653932,43.83166 -4.1057732,48.6803 Z"
       style="display:inline;fill:#ff0000;fill-opacity:1;fill-rule:evenodd;stroke:none;stroke-width:0.26458332px;stroke-linecap:butt;stroke-linejoin:miter;stroke-opacity:1" />
    <path
       inkscape:connector-curvature="0"
       d="m 37.632233,33.223129 c -3.245556,0.3175 -5.291667,0.881945 -7.47889,1.975556 -1.905,0.9525 -2.398889,1.693334 -2.398889,3.457223 0,0.846666 -0.176388,1.27 -0.599722,1.411111 -0.352778,0.105833 -2.928056,0.846666 -5.750278,1.658055 -2.822222,0.811389 -5.256389,1.481667 -5.468056,1.481667 -0.176389,0 -2.010833,-0.211667 -4.056945,-0.458611 -9.0311113,-1.058333 -17.6388896,1.5875 -17.6388896,5.3975 0,1.446389 0.8819445,1.093612 -10.9361114,4.480278 l -5.820834,1.658056 -0.07056,18.132779 c -0.07055,9.983612 0,21.13139 0.176389,24.835557 l 0.246945,6.70278 26.9875014,11.53583 c 14.8519456,6.35 27.3755576,11.53584 27.8694466,11.53584 0.670277,0.0353 46.213891,-13.15862 64.135004,-18.52084 l 2.892778,-0.88194 V 82.858966 58.058687 l -8.537223,-3.527778 -8.572501,-3.563056 -0.211666,-1.411111 c -0.211667,-1.799167 -0.564445,-2.222501 -2.540001,-3.210278 -2.187222,-1.093612 -6.138333,-1.834445 -9.736667,-1.834445 -3.033889,0 -3.210278,-0.07056 -8.89,-2.398889 l -5.750279,-2.434167 -0.3175,-1.340556 c -0.3175,-1.658055 -1.023055,-2.504722 -2.8575,-3.421944 -2.786944,-1.446389 -9.666111,-2.2225 -14.675556,-1.693334 z m 9.948334,1.552223 c 4.198056,0.776111 6.949722,2.575278 6.067778,3.986389 -1.199445,1.905 -6.0325,3.280833 -11.747501,3.316111 -8.008056,0.03528 -14.075834,-2.116667 -12.770556,-4.586111 1.340555,-2.504723 11.324167,-3.986389 18.450279,-2.716389 z m 12.170834,8.043334 4.374445,1.834444 -2.504723,0.635 c -3.033889,0.740834 -5.362222,1.834445 -5.961945,2.822223 -0.282222,0.458611 -0.423333,2.293055 -0.458611,5.644444 0,4.586112 0.07056,4.974167 0.776111,5.750278 3.421945,3.633612 17.603613,4.30389 23.918335,1.093612 0.917223,-0.458611 1.869723,-1.234723 2.116667,-1.693334 0.211667,-0.423333 0.458611,-2.116667 0.493889,-3.704167 l 0.105833,-2.8575 7.231945,2.998611 c 3.986389,1.658056 7.302501,3.03389 7.373056,3.104445 0.07056,0.07056 -0.740833,0.388056 -1.763889,0.670278 -1.058333,0.3175 -15.628056,4.515556 -32.385002,9.383889 L 32.552232,77.320354 6.4466753,66.313687 C -7.946659,60.281187 -19.799993,55.236464 -19.941104,55.130631 c -0.211667,-0.211667 13.5466674,-4.303889 14.2875007,-4.268612 0.1411112,0 0.2469445,1.305278 0.2469445,2.892778 0,3.351389 0.3527778,3.986389 2.7163891,5.185834 6.0325003,2.998611 20.3552787,2.151945 23.6713907,-1.411111 0.705555,-0.740834 0.776111,-1.164167 0.776111,-5.750278 0,-4.762501 -0.03528,-5.009445 -0.846667,-5.89139 -0.458611,-0.493889 -1.340556,-1.128889 -1.975556,-1.375833 -1.164166,-0.493889 -1.164166,-0.493889 3.563056,-1.834445 2.610556,-0.740833 4.833056,-1.340555 5.009445,-1.340555 0.141111,0 0.246944,1.093611 0.246944,2.434167 0,3.139722 0.352778,4.021667 2.010834,5.115278 2.293056,1.516944 5.08,2.046111 10.865556,2.187222 5.820834,0.141111 8.537223,-0.282222 11.641668,-1.799167 2.398889,-1.164166 2.716389,-1.799166 2.681111,-5.362222 -0.03528,-1.5875 0.03528,-2.928056 0.176389,-2.928056 0.105833,0 2.187222,0.811389 4.621389,1.834445 z m -43.250558,1.975555 c 4.268611,1.411111 5.221111,2.892778 2.892778,4.445001 -2.363612,1.552222 -6.103056,2.328333 -11.0419456,2.363611 -5.9972226,0 -10.0894451,-0.881945 -11.8886119,-2.575278 -1.0936111,-1.023056 -1.0230556,-1.834445 0.2116667,-2.716389 2.57527796,-1.834445 6.0677782,-2.504723 12.3825008,-2.363611 4.056945,0.07055 5.609167,0.246944 7.443612,0.846666 z m 60.007503,1.658056 c 6.350001,1.728611 6.279445,4.409722 -0.105833,6.173611 -7.408334,2.046112 -19.649723,0.282223 -20.002501,-2.892778 -0.07056,-0.670277 0.141111,-1.093611 0.881944,-1.5875 1.375834,-0.987778 3.810001,-1.834444 6.279445,-2.2225 2.928056,-0.423333 10.512779,-0.141111 12.946945,0.529167 z m -91.898617,11.853334 c 5.6444453,2.398889 12.3472235,5.185834 36.512503,15.345834 l 10.865556,4.550834 V 90.9023 c 0,6.985 0.105833,17.67417 0.246944,23.70667 0.105834,6.06778 0.105834,11.04194 -0.03528,11.04194 -0.141111,0 -7.831667,-3.24555 -17.074446,-7.16139 -9.278056,-3.95111 -21.2372234,-9.06639 -26.599446,-11.35944 l -9.807223,-4.16278 v -6.596944 c 0,-3.633612 -0.105833,-14.216946 -0.246944,-23.565557 -0.105834,-9.348612 -0.141111,-17.00389 -0.03528,-17.00389 0.141111,0 2.892778,1.128889 6.173611,2.504722 z m 113.982508,24.694446 -0.105834,23.706673 -11.1125,3.24555 c -46.108059,13.58195 -53.728059,15.73389 -54.010282,15.45167 -0.176388,-0.17639 -0.282222,-10.01889 -0.246944,-23.74195 L 33.22251,78.237577 38.337788,76.75591 c 10.054168,-2.892778 44.767503,-12.946945 52.211115,-15.134168 4.162778,-1.234722 7.690556,-2.2225 7.866945,-2.257778 0.141111,-0.03528 0.211666,10.618612 0.176389,23.636113 z"
       id="path3740-0"
       style="fill:#000000;stroke:none;stroke-width:0.03527778" />
    <path
       inkscape:connector-curvature="0"
       d="m 30.576677,54.389797 c -3.104445,0.423334 -5.926667,1.446389 -7.443612,2.786945 l -1.446389,1.199445 0.141111,5.009444 c 0.07056,3.527778 0.246945,5.185834 0.599723,5.57389 1.446389,1.799166 6.914445,3.245555 12.488334,3.386666 5.3975,0.141112 11.394723,-1.305277 13.264445,-3.175 L 49.2739,68.077576 V 63.56202 c 0,-2.504722 -0.141111,-4.938889 -0.3175,-5.3975 -1.128889,-2.928056 -10.512778,-4.868334 -18.379723,-3.774723 z m 12.841112,1.728612 c 2.469444,0.670277 3.915833,1.516944 4.586111,2.645833 0.3175,0.493889 0.176389,0.776111 -0.776111,1.5875 -3.175,2.716389 -12.55889,3.668889 -19.367501,1.975556 -2.575278,-0.635 -5.044723,-2.187222 -5.044723,-3.175 0,-1.234723 3.633612,-2.998612 7.620001,-3.704167 2.716389,-0.493889 10.195278,-0.105834 12.982223,0.670278 z"
       id="path3742-9"
       style="fill:#000000;stroke:#ffff00;stroke-width:0.03527778" />
    <path
       style="display:inline;fill:#cccccc;fill-opacity:0.30516435;fill-rule:evenodd;stroke:none;stroke-width:0.26458332px;stroke-linecap:butt;stroke-linejoin:miter;stroke-opacity:1"
       d="m -21.987226,55.34231 0.881949,47.55446 53.369536,22.78427 -0.276493,-47.478719 z"
       id="path4758-2"
       inkscape:connector-curvature="0"
       sodipodi:nodetypes="ccccc" />
    <g
       id="text6138"
       style="font-style:normal;font-variant:normal;font-weight:bold;font-stretch:normal;font-size:35.27777863px;line-height:125%;font-family:'Asana Math';-inkscape-font-specification:'Asana Math Bold';text-align:start;letter-spacing:0px;word-spacing:0px;writing-mode:lr-tb;text-anchor:start;display:inline;fill:#000000;fill-opacity:1;stroke:none;stroke-width:0.26458332px;stroke-linecap:butt;stroke-linejoin:miter;stroke-opacity:1"
       aria-label="Ψ"
       transform="translate(-472.40006,-75.004554)">
      <path
         id="path6140"
         style="font-size:42.33333206px;stroke-width:0.26458332px"
         d="m 454.00514,136.40216 c 0,0 0.0574,-0.6886 0.0574,-0.6886 0,0 0.34488,-0.14777 0.34488,-0.14777 1.14954,0.67668 6.66594,3.48407 7.41278,4.46166 2.01049,2.4762 0.80423,19.66609 7.69562,27.5207 1.66488,1.90847 3.90351,3.17369 5.91221,4.04237 0,0 0,-13.78295 0,-13.78295 0,-1.78228 0.11482,-9.45571 -0.68866,-10.8139 -0.57392,-1.02108 -3.78829,-2.41427 -4.70684,-2.87181 0,0 -0.22964,-0.2778 -0.22964,-0.2778 0,0 0,-1.42613 0,-1.42613 0,0 0.22964,-0.0787 0.22964,-0.0787 2.69803,1.28846 5.3381,2.49228 7.97765,3.63649 2.63901,1.14398 5.22012,2.20353 7.85807,3.22823 0,0 0.17202,0.25273 0.17202,0.25273 0,0 0,1.42524 0,1.42524 0,0 -0.17202,0.1036 -0.17202,0.1036 -0.97483,-0.36318 -4.07183,-1.7055 -4.7028,-1.20679 -0.86045,0.63686 -0.68836,8.61132 -0.68836,10.39325 0,0 0,13.60208 0,13.60208 2.00761,0.86821 4.2443,1.53855 5.96456,1.09483 6.76415,-1.94261 5.61793,-20.1312 7.56645,-20.88964 0.85954,-0.33981 6.24473,1.63842 7.50476,2.00659 0,0 0.2291,0.39604 0.2291,0.39604 0,0 0.11458,0.76186 0.11458,0.76186 0,0 -0.22908,0.31616 -0.22908,0.31616 -2.57746,-0.22685 -3.03573,-0.95968 -3.60859,3.83742 -1.54684,11.49888 -3.49498,20.1543 -17.54172,14.19929 0,1.24735 -0.11478,8.91947 0.68835,10.1574 0.68833,1.06949 3.72798,2.38258 4.7028,2.86307 0,0 0.17202,0.25246 0.17202,0.25246 0,0 0,1.42524 0,1.42524 0,0 -0.17202,0.16325 -0.17202,0.16325 -2.63794,-1.31753 -5.21906,-2.49177 -7.85806,-3.63161 -2.63955,-1.14008 -5.27963,-2.1615 -7.97766,-3.20802 0,0 -0.22964,-0.33688 -0.22964,-0.33688 0,0 0,-1.42613 0,-1.42613 0,0 0.22964,-0.0791 0.22964,-0.0791 0.97595,0.36222 3.78856,1.51772 4.53467,1.24596 1.14776,-0.39528 0.86083,-9.13358 0.86083,-9.60886 -14.98662,-6.77734 -15.791,-17.23086 -17.74467,-30.73921 -0.6896,-4.16313 -0.57467,-3.34045 -3.44838,-5.65615 0,0 -0.22993,-0.51588 -0.22993,-0.51588"
         inkscape:connector-curvature="0" />
    </g>
    <g
       transform="translate(-476.92343,-75.025704)"
       aria-label="Ψ"
       style="font-style:normal;font-variant:normal;font-weight:bold;font-stretch:normal;font-size:35.27777863px;line-height:125%;font-family:'Asana Math';-inkscape-font-specification:'Asana Math Bold';text-align:start;letter-spacing:0px;word-spacing:0px;writing-mode:lr-tb;text-anchor:start;display:inline;fill:#000000;fill-opacity:1;stroke:none;stroke-width:0.26458332px;stroke-linecap:butt;stroke-linejoin:miter;stroke-opacity:1"
       id="text6339">
      <path
         inkscape:connector-curvature="0"
         d="m 569.20397,142.407 c 0,0 -0.0653,-0.66931 -0.0653,-0.66931 0,0 -0.39207,-0.17449 -0.39207,-0.17449 -1.30704,0.54599 -7.58391,2.74356 -8.4343,3.61793 -2.28998,2.20451 -0.91591,18.90723 -8.77108,25.87167 -1.89953,1.69468 -4.45483,2.71717 -6.74878,3.37742 0,0 0,-13.32244 0,-13.32244 0,-1.72272 -0.13115,-9.15032 0.78657,-10.38928 0.65541,-0.93408 4.32471,-1.98437 5.37275,-2.34177 0,0 0.262,-0.24719 0.262,-0.24719 0,0 0,-1.37761 0,-1.37761 0,0 -0.262,-0.0972 -0.262,-0.0972 -3.07903,0.99585 -6.09377,1.91584 -9.10969,2.77879 -3.0171,0.86329 -5.96977,1.65074 -8.98925,2.39971 0,0 -0.19696,0.22877 -0.19696,0.22877 0,0 0,1.37928 0,1.37928 0,0 0.19696,0.11603 0.19696,0.11603 1.11603,-0.26203 4.65998,-1.27644 5.3817,-0.73614 0.98405,0.69485 0.78725,8.39151 0.78725,10.11489 0,0 0,13.15512 0,13.15512 -2.29637,0.66094 -4.85599,1.11034 -6.82551,0.52774 -7.75168,-2.48467 -6.43729,-19.99618 -8.6719,-20.90902 -0.98607,-0.40788 -7.16829,1.01601 -8.61593,1.25761 0,0 -0.26323,0.36301 -0.26323,0.36301 0,0 -0.13167,0.72813 -0.13167,0.72813 0,0 0.26325,0.32742 0.26325,0.32742 2.96081,0.0155 3.48705,-0.65289 4.14481,4.04816 1.77567,11.28169 4.0111,19.8404 20.10013,15.3229 0,1.20636 0.13126,8.63647 -0.78724,9.76318 -0.78733,0.97407 -4.26567,1.97793 -5.3817,2.35748 0,0 -0.19697,0.22926 -0.19697,0.22926 0,0 0,1.37927 0,1.37927 0,0 0.19697,0.17301 0.19697,0.17301 3.01947,-1.04416 5.97214,-1.95407 8.98924,-2.82513 3.01592,-0.87072 6.03066,-1.62622 9.1097,-2.40043 0,0 0.26199,-0.30524 0.26199,-0.30524 0,0 0,-1.37761 0,-1.37761 0,0 -0.26199,-0.0966 -0.26199,-0.0966 -1.11355,0.26401 -4.32412,1.13308 -5.17612,0.80481 -1.31097,-0.48309 -0.98321,-8.90417 -0.98321,-9.36357 17.08974,-5.20746 18.00536,-15.22171 20.22853,-28.07558 0.7845,-3.9522 0.65375,-3.16928 3.92167,-5.13682 0,0 0.26137,-0.47614 0.26137,-0.47614"
         style="font-size:42.33333206px;stroke-width:0.26458332px"
         id="path6341" />
    </g>
    <path
       style="display:inline;fill:#ff0000;fill-opacity:1;fill-rule:evenodd;stroke:none;stroke-width:0.26458332px;stroke-linecap:butt;stroke-linejoin:miter;stroke-opacity:1"
       d="M -21.987226,6.1297714 -21.105277,53.684214 32.264259,76.468355 31.987766,28.989779 Z"
       id="path5246"
       inkscape:connector-curvature="0"
       sodipodi:nodetypes="ccccc" />
    <path
       sodipodi:nodetypes="ccccc"
       inkscape:connector-curvature="0"
       id="path5248"
       d="M 33.222508,29.025048 32.264259,76.468355 99.721119,58.411407 V 8.8461599 Z"
       style="display:inline;fill:#ff0000;fill-opacity:1;fill-rule:evenodd;stroke:none;stroke-width:0.26458332px;stroke-linecap:butt;stroke-linejoin:miter;stroke-opacity:1" />
    <path
       style="display:inline;fill:#ff0000;fill-opacity:1;fill-rule:evenodd;stroke:none;stroke-width:0.26458332px;stroke-linecap:butt;stroke-linejoin:miter;stroke-opacity:1"
       d="M -21.987226,6.1297714 32.552228,28.10783 98.133619,9.3753296 80.979859,1.5723038 c 1.52882,-3.5242077 -4.971538,-6.3326458 -14.13313,-5.7535961 L 53.771928,-9.9348893 C 56.18569,-15.233309 29.401909,-20.227519 28.482138,-9.3583096 L 13.775689,-5.077552 C 8.1679768,-6.0374614 -9.6653932,-5.3808617 -4.1057732,-0.53222493 Z"
       id="path5250"
       inkscape:connector-curvature="0"
       sodipodi:nodetypes="cccccccccc" />
    <path
       style="fill:#000000;stroke:none;stroke-width:0.03527778;fill-opacity:1"
       id="path5252"
       d="m 37.632233,-15.98939 c -3.245556,0.3175 -5.291667,0.881945 -7.47889,1.975556 -1.905,0.9525 -2.398889,1.693334 -2.398889,3.457223 0,0.8466657 -0.176388,1.2699994 -0.599722,1.4111104 -0.352778,0.105833 -2.928056,0.8466654 -5.750278,1.6580541 -2.822222,0.8113884 -5.256389,1.4816661 -5.468056,1.4816661 -0.176389,0 -2.010833,-0.211667 -4.056945,-0.4586107 -9.0311113,-1.0583324 -17.6388896,1.5874991 -17.6388896,5.3974965 0,1.44638841 0.8819445,1.09361134 -10.9361114,4.4802755 l -5.820834,1.6580551 -0.07056,18.132776 c -0.07055,9.983612 0,21.13139 0.176389,24.835557 l 0.246945,6.702759 26.9875014,11.535764 C 19.675839,72.628256 32.199451,77.814066 32.69334,77.814066 c 0.670277,0.0353 46.213891,-13.158545 64.135004,-18.520735 l 2.892778,-0.881934 V 33.646435 8.8461569 L 91.183899,5.3183807 82.611398,1.7553268 82.399732,0.34421681 C 82.188065,-1.4549492 81.835287,-1.8782829 79.859731,-2.8660593 c -2.187222,-1.0936113 -6.138333,-1.834444 -9.736667,-1.834444 -3.033889,0 -3.210278,-0.07056 -8.89,-2.3988875 l -5.750279,-2.4341655 -0.3175,-1.3405557 c -0.3175,-1.658055 -1.023055,-2.504722 -2.8575,-3.421944 -2.786944,-1.446389 -9.666111,-2.2225 -14.675556,-1.693334 z m 9.948334,1.552223 c 4.198056,0.776111 6.949722,2.575278 6.067778,3.986389 -1.199445,1.9049991 -6.0325,3.2808312 -11.747501,3.3161092 -8.008056,0.03528 -14.075834,-2.1166658 -12.770556,-4.5861092 1.340555,-2.504723 11.324167,-3.986389 18.450279,-2.716389 z m 12.170834,8.0433319 4.374445,1.8344428 -2.504723,0.6349997 c -3.033889,0.7408332 -5.362222,1.8344436 -5.961945,2.822221 -0.282222,0.45861107 -0.423333,2.2930537 -0.458611,5.6444409 0,4.5861093 0.07056,4.974164 0.776111,5.7502747 3.421945,3.633612 17.603613,4.30389 23.918335,1.093612 0.917223,-0.458611 1.869723,-1.234723 2.116667,-1.6933337 0.211667,-0.4233327 0.458611,-2.1166658 0.493889,-3.7041649 l 0.105833,-2.8574985 7.231945,2.9986095 c 3.986389,1.6580551 7.302501,3.0338882 7.373056,3.1044432 0.07056,0.07056 -0.740833,0.3880557 -1.763889,0.6702777 C 94.394181,10.221989 79.824458,14.420045 63.067512,19.288378 L 32.552232,28.107823 6.4466753,17.101156 C -7.946659,11.068656 -19.799993,6.0239354 -19.941104,5.9181024 -20.152771,5.7064357 -6.3944366,1.6142158 -5.6536033,1.6494928 c 0.1411112,0 0.2469445,1.3052774 0.2469445,2.8927765 0,3.3513869 0.3527778,3.9863866 2.7163891,5.185831 6.0325003,2.9986107 20.3552787,2.1519447 23.6713907,-1.4111101 0.705555,-0.7408337 0.776111,-1.1641664 0.776111,-5.7502747 0,-4.7624981 -0.03528,-5.0094421 -0.846667,-5.8913865 -0.458611,-0.4938886 -1.340556,-1.1288883 -1.975556,-1.3758323 -1.164166,-0.4938887 -1.164166,-0.4938887 3.563056,-1.8344438 2.610556,-0.7408327 4.833056,-1.3405544 5.009445,-1.3405544 0.141111,0 0.246944,1.0936104 0.246944,2.4341658 0,3.1397201 0.352778,4.0216645 2.010834,5.11527484 2.293056,1.51694296 5.08,2.04610966 10.865556,2.18722066 5.820834,0.141111 8.537223,-0.282222 11.641668,-1.79916599 2.398889,-1.16416541 2.716389,-1.79916471 2.681111,-5.36221851 -0.03528,-1.5874991 0.03528,-2.9280545 0.176389,-2.9280545 0.105833,0 2.187222,0.8113887 4.621389,1.8344441 z m -43.250558,1.9755538 c 4.268611,1.41111 5.221111,2.8927761 2.892778,4.44499804 C 17.030009,1.5789378 13.290565,2.3550485 8.3516754,2.3903265 c -5.9972226,0 -10.0894451,-0.8819444 -11.8886119,-2.57527636 -1.0936111,-1.02305534 -1.0230556,-1.83444404 0.2116667,-2.71638744 2.57527796,-1.8344437 6.0677782,-2.5047214 12.3825008,-2.3636094 4.056945,0.07055 5.609167,0.2469437 7.443612,0.8466654 z m 60.007503,1.658055 c 6.350001,1.7286097 6.279445,4.4097191 -0.105833,6.1736072 -7.408334,2.0461108 -19.649723,0.2822227 -20.002501,-2.89277649 -0.07056,-0.67027627 0.141111,-1.09361034 0.881944,-1.58749901 1.375834,-0.9877773 3.810001,-1.8344427 6.279445,-2.2224984 2.928056,-0.4233326 10.512779,-0.141111 12.946945,0.5291667 z M -15.390271,9.0931006 c 5.6444453,2.3988884 12.3472235,5.1858334 36.512503,15.3458334 l 10.865556,4.550834 v 12.700001 c 0,6.985 0.105833,17.674122 0.246944,23.706589 0.105834,6.067744 0.105834,11.041877 -0.03528,11.041877 -0.141111,0 -7.831667,-3.245532 -17.074446,-7.161348 C 5.84695,65.325798 -6.1122174,60.210548 -11.47444,57.91751 l -9.807223,-4.162756 v -6.596929 c 0,-3.633612 -0.105833,-14.216946 -0.246944,-23.565557 -0.105834,-9.348612 -0.141111,-17.0038879 -0.03528,-17.0038879 0.141111,0 2.892778,1.1288884 6.173611,2.5047205 z M 98.592237,33.787546 98.486403,57.494183 87.373903,60.739715 C 41.265844,74.321587 33.645844,76.473515 33.363621,76.191295 33.187233,76.014908 33.081399,66.172462 33.116677,52.44948 l 0.105833,-23.424434 5.115278,-1.481667 c 10.054168,-2.892778 44.767503,-12.946945 52.211115,-15.134168 4.162778,-1.234722 7.690556,-2.2225 7.866945,-2.257778 0.141111,-0.03528 0.211666,10.618612 0.176389,23.636113 z"
       inkscape:connector-curvature="0" />
    <path
       style="fill:#000000;stroke:none;stroke-width:0.03527778"
       id="path5254"
       d="M 30.576677,5.177269 C 27.472232,5.6006027 24.65001,6.6236571 23.133065,7.9642122 L 21.686676,9.1636566 21.827787,14.1731 c 0.07056,3.527778 0.246945,5.185834 0.599723,5.57389 1.446389,1.799166 6.914445,3.245555 12.488334,3.386666 5.3975,0.141112 11.394723,-1.305277 13.264445,-3.175 L 49.2739,18.865045 v -4.515556 c 0,-2.504722 -0.141111,-4.9388884 -0.3175,-5.3974994 C 47.827511,6.0239354 38.443622,4.0836586 30.576677,5.177269 Z m 12.841112,1.7286108 c 2.469444,0.6702767 3.915833,1.5169431 4.586111,2.6458315 0.3175,0.4938887 0.176389,0.7761107 -0.776111,1.5874997 -3.175,2.716389 -12.55889,3.668889 -19.367501,1.975556 -2.575278,-0.635 -5.044723,-2.187222 -5.044723,-3.1749997 0,-1.2347224 3.633612,-2.9986105 7.620001,-3.7041649 2.716389,-0.4938887 10.195278,-0.105834 12.982223,0.6702774 z"
       inkscape:connector-curvature="0" />
    <path
       sodipodi:nodetypes="ccccc"
       inkscape:connector-curvature="0"
       id="path5256"
       d="M -21.987226,6.1297814 -21.105277,53.684224 32.264259,76.468365 31.987766,28.98979 Z"
       style="display:inline;fill:#cccccc;fill-opacity:0.30516435;fill-rule:evenodd;stroke:none;stroke-width:0.26458332px;stroke-linecap:butt;stroke-linejoin:miter;stroke-opacity:1" />
    <g
       transform="translate(-472.40006,-124.21722)"
       aria-label="Ψ"
       style="font-style:normal;font-variant:normal;font-weight:bold;font-stretch:normal;font-size:35.27777863px;line-height:125%;font-family:'Asana Math';-inkscape-font-specification:'Asana Math Bold';text-align:start;letter-spacing:0px;word-spacing:0px;writing-mode:lr-tb;text-anchor:start;display:inline;fill:#000000;fill-opacity:1;stroke:none;stroke-width:0.26458332px;stroke-linecap:butt;stroke-linejoin:miter;stroke-opacity:1"
       id="g5260">
      <path
         inkscape:connector-curvature="0"
         d="m 454.00514,136.40216 c 0,0 0.0574,-0.6886 0.0574,-0.6886 0,0 0.34488,-0.14777 0.34488,-0.14777 1.14954,0.67668 6.66594,3.48407 7.41278,4.46166 2.01049,2.4762 0.80423,19.66609 7.69562,27.5207 1.66488,1.90847 3.90351,3.17369 5.91221,4.04237 0,0 0,-13.78295 0,-13.78295 0,-1.78228 0.11482,-9.45571 -0.68866,-10.8139 -0.57392,-1.02108 -3.78829,-2.41427 -4.70684,-2.87181 0,0 -0.22964,-0.2778 -0.22964,-0.2778 0,0 0,-1.42613 0,-1.42613 0,0 0.22964,-0.0787 0.22964,-0.0787 2.69803,1.28846 5.3381,2.49228 7.97765,3.63649 2.63901,1.14398 5.22012,2.20353 7.85807,3.22823 0,0 0.17202,0.25273 0.17202,0.25273 0,0 0,1.42524 0,1.42524 0,0 -0.17202,0.1036 -0.17202,0.1036 -0.97483,-0.36318 -4.07183,-1.7055 -4.7028,-1.20679 -0.86045,0.63686 -0.68836,8.61132 -0.68836,10.39325 0,0 0,13.60208 0,13.60208 2.00761,0.86821 4.2443,1.53855 5.96456,1.09483 6.76415,-1.94261 5.61793,-20.1312 7.56645,-20.88964 0.85954,-0.33981 6.24473,1.63842 7.50476,2.00659 0,0 0.2291,0.39604 0.2291,0.39604 0,0 0.11458,0.76186 0.11458,0.76186 0,0 -0.22908,0.31616 -0.22908,0.31616 -2.57746,-0.22685 -3.03573,-0.95968 -3.60859,3.83742 -1.54684,11.49888 -3.49498,20.1543 -17.54172,14.19929 0,1.24735 -0.11478,8.91947 0.68835,10.1574 0.68833,1.06949 3.72798,2.38258 4.7028,2.86307 0,0 0.17202,0.25246 0.17202,0.25246 0,0 0,1.42524 0,1.42524 0,0 -0.17202,0.16325 -0.17202,0.16325 -2.63794,-1.31753 -5.21906,-2.49177 -7.85806,-3.63161 -2.63955,-1.14008 -5.27963,-2.1615 -7.97766,-3.20802 0,0 -0.22964,-0.33688 -0.22964,-0.33688 0,0 0,-1.42613 0,-1.42613 0,0 0.22964,-0.0791 0.22964,-0.0791 0.97595,0.36222 3.78856,1.51772 4.53467,1.24596 1.14776,-0.39528 0.86083,-9.13358 0.86083,-9.60886 -14.98662,-6.77734 -15.791,-17.23086 -17.74467,-30.73921 -0.6896,-4.16313 -0.57467,-3.34045 -3.44838,-5.65615 0,0 -0.22993,-0.51588 -0.22993,-0.51588"
         style="font-size:42.33333206px;stroke-width:0.26458332px"
         id="path5258" />
    </g>
    <g
       id="g5264"
       style="font-style:normal;font-variant:normal;font-weight:bold;font-stretch:normal;font-size:35.27777863px;line-height:125%;font-family:'Asana Math';-inkscape-font-specification:'Asana Math Bold';text-align:start;letter-spacing:0px;word-spacing:0px;writing-mode:lr-tb;text-anchor:start;display:inline;fill:#000000;fill-opacity:1;stroke:none;stroke-width:0.26458332px;stroke-linecap:butt;stroke-linejoin:miter;stroke-opacity:1"
       aria-label="Ψ"
       transform="translate(-476.92343,-124.23837)">
      <path
         id="path5262"
         style="font-size:42.33333206px;stroke-width:0.26458332px"
         d="m 569.20397,142.407 c 0,0 -0.0653,-0.66931 -0.0653,-0.66931 0,0 -0.39207,-0.17449 -0.39207,-0.17449 -1.30704,0.54599 -7.58391,2.74356 -8.4343,3.61793 -2.28998,2.20451 -0.91591,18.90723 -8.77108,25.87167 -1.89953,1.69468 -4.45483,2.71717 -6.74878,3.37742 0,0 0,-13.32244 0,-13.32244 0,-1.72272 -0.13115,-9.15032 0.78657,-10.38928 0.65541,-0.93408 4.32471,-1.98437 5.37275,-2.34177 0,0 0.262,-0.24719 0.262,-0.24719 0,0 0,-1.37761 0,-1.37761 0,0 -0.262,-0.0972 -0.262,-0.0972 -3.07903,0.99585 -6.09377,1.91584 -9.10969,2.77879 -3.0171,0.86329 -5.96977,1.65074 -8.98925,2.39971 0,0 -0.19696,0.22877 -0.19696,0.22877 0,0 0,1.37928 0,1.37928 0,0 0.19696,0.11603 0.19696,0.11603 1.11603,-0.26203 4.65998,-1.27644 5.3817,-0.73614 0.98405,0.69485 0.78725,8.39151 0.78725,10.11489 0,0 0,13.15512 0,13.15512 -2.29637,0.66094 -4.85599,1.11034 -6.82551,0.52774 -7.75168,-2.48467 -6.43729,-19.99618 -8.6719,-20.90902 -0.98607,-0.40788 -7.16829,1.01601 -8.61593,1.25761 0,0 -0.26323,0.36301 -0.26323,0.36301 0,0 -0.13167,0.72813 -0.13167,0.72813 0,0 0.26325,0.32742 0.26325,0.32742 2.96081,0.0155 3.48705,-0.65289 4.14481,4.04816 1.77567,11.28169 4.0111,19.8404 20.10013,15.3229 0,1.20636 0.13126,8.63647 -0.78724,9.76318 -0.78733,0.97407 -4.26567,1.97793 -5.3817,2.35748 0,0 -0.19697,0.22926 -0.19697,0.22926 0,0 0,1.37927 0,1.37927 0,0 0.19697,0.17301 0.19697,0.17301 3.01947,-1.04416 5.97214,-1.95407 8.98924,-2.82513 3.01592,-0.87072 6.03066,-1.62622 9.1097,-2.40043 0,0 0.26199,-0.30524 0.26199,-0.30524 0,0 0,-1.37761 0,-1.37761 0,0 -0.26199,-0.0966 -0.26199,-0.0966 -1.11355,0.26401 -4.32412,1.13308 -5.17612,0.80481 -1.31097,-0.48309 -0.98321,-8.90417 -0.98321,-9.36357 17.08974,-5.20746 18.00536,-15.22171 20.22853,-28.07558 0.7845,-3.9522 0.65375,-3.16928 3.92167,-5.13682 0,0 0.26137,-0.47614 0.26137,-0.47614"
         inkscape:connector-curvature="0" />
    </g>
  </g>
  <g
     inkscape:groupmode="layer"
     id="layer2"
     inkscape:label="Layer 2"
     transform="translate(22.631623,16.173666)">
    <path
       style="display:inline;fill:#ffff00;fill-opacity:1;fill-rule:evenodd;stroke:none;stroke-width:0.26458332px;stroke-linecap:butt;stroke-linejoin:miter;stroke-opacity:1"
       d="m 110.30457,55.342299 0.88195,47.554451 53.36985,22.78428 -0.27649,-47.478723 z"
       id="path5295"
       inkscape:connector-curvature="0"
       sodipodi:nodetypes="ccccc" />
    <path
       sodipodi:nodetypes="ccccc"
       inkscape:connector-curvature="0"
       id="path5297"
       d="m 165.51463,78.237576 -0.95826,47.443454 67.45724,-18.05706 V 58.058689 Z"
       style="display:inline;fill:#ffff00;fill-opacity:1;fill-rule:evenodd;stroke:none;stroke-width:0.26458332px;stroke-linecap:butt;stroke-linejoin:miter;stroke-opacity:1" />
    <path
       style="display:inline;fill:#ff0000;fill-opacity:1;fill-rule:evenodd;stroke:none;stroke-width:0.26458332px;stroke-linecap:butt;stroke-linejoin:miter;stroke-opacity:1"
       d="m 110.30457,55.342299 54.53977,21.978059 65.58176,-18.7325 -17.15385,-7.803031 c 1.52882,-3.52421 -4.97157,-6.332649 -14.13321,-5.7536 l -13.07488,-5.7536 c 2.41378,-5.298419 -24.37015,-10.29263 -25.28993,0.57658 l -14.70653,4.28076 c -5.60775,-0.959908 -23.44123,-0.303311 -17.88157,4.54533 z"
       id="path5299"
       inkscape:connector-curvature="0"
       sodipodi:nodetypes="cccccccccc" />
    <path
       style="display:inline;fill:#000000;stroke:#ffff00;stroke-width:0.03527778"
       id="path5301"
       d="m 169.92438,33.223127 c -3.24557,0.3175 -5.2917,0.881943 -7.47893,1.975556 -1.90502,0.9525 -2.39891,1.693334 -2.39891,3.457223 0,0.846664 -0.17639,1.27 -0.59972,1.411111 -0.35278,0.105833 -2.92808,0.846666 -5.75031,1.658053 -2.82224,0.81139 -5.25642,1.48167 -5.46809,1.48167 -0.17639,0 -2.01084,-0.21167 -4.05697,-0.458613 -9.03116,-1.058333 -17.639,1.5875 -17.639,5.3975 0,1.44639 0.88195,1.093613 -10.93617,4.480279 l -5.82087,1.658057 -0.0706,18.132777 c -0.0705,9.983613 0,21.131394 0.17639,24.835554 l 0.24695,6.702776 26.98766,11.53584 c 14.85203,6.35 27.37571,11.53583 27.8696,11.53583 0.67029,0.0353 46.21416,-13.15861 64.13538,-18.52083 l 2.89279,-0.88195 V 82.858963 58.058686 l -8.53727,-3.52778 -8.57255,-3.563056 -0.21168,-1.41111 c -0.21166,-1.799167 -0.56444,-2.2225 -2.54001,-3.21028 -2.18723,-1.09361 -6.13836,-1.834443 -9.73672,-1.834443 -3.0339,0 -3.21029,-0.07056 -8.89005,-2.39889 l -5.75031,-2.434167 -0.3175,-1.340556 c -0.3175,-1.658054 -1.02306,-2.504721 -2.85752,-3.421944 -2.78696,-1.44639 -9.66616,-2.2225 -14.67564,-1.693333 z m 9.94839,1.552223 c 4.19808,0.77611 6.94976,2.575277 6.06781,3.98639 -1.19945,1.905 -6.03253,3.28083 -11.74757,3.31611 -8.0081,0.03528 -14.07591,-2.116667 -12.77062,-4.586113 1.34056,-2.50472 11.32423,-3.986387 18.45038,-2.716387 z m 12.1709,8.043333 4.37447,1.834444 -2.50474,0.635 c -3.0339,0.740833 -5.36225,1.834446 -5.96197,2.822223 -0.28223,0.458613 -0.42334,2.293056 -0.45862,5.644444 0,4.586112 0.0706,4.974169 0.77612,5.750279 3.42196,3.633613 17.60371,4.30389 23.91847,1.093613 0.91723,-0.458613 1.86973,-1.234723 2.11667,-1.693336 0.21167,-0.423333 0.45861,-2.116667 0.49389,-3.704167 l 0.10585,-2.8575 7.23198,2.998611 c 3.98641,1.658056 7.30254,3.033892 7.3731,3.104446 0.0706,0.07056 -0.74084,0.388056 -1.7639,0.670277 -1.05834,0.3175 -15.62815,4.515556 -32.38519,9.383889 l -30.51545,8.819447 -26.10571,-11.006667 c -14.39342,-6.0325 -26.24683,-11.077223 -26.38794,-11.183056 -0.21167,-0.211667 13.54675,-4.30389 14.28759,-4.268613 0.14111,0 0.24694,1.305277 0.24694,2.892777 0,3.351389 0.35278,3.986389 2.71641,5.185836 6.03254,2.99861 20.3554,2.151943 23.67153,-1.411113 0.70556,-0.740834 0.77612,-1.164167 0.77612,-5.750277 0,-4.7625 -0.0353,-5.009446 -0.84668,-5.89139 -0.45861,-0.49389 -1.34056,-1.12889 -1.97556,-1.375833 -1.16418,-0.49389 -1.16418,-0.49389 3.56307,-1.834447 2.61058,-0.74083 4.83309,-1.340553 5.00948,-1.340553 0.14111,0 0.24694,1.09361 0.24694,2.434166 0,3.139723 0.35278,4.021667 2.01085,5.11528 2.29307,1.516943 5.08003,2.04611 10.86562,2.18722 5.82086,0.141111 8.53727,-0.28222 11.64173,-1.799166 2.3989,-1.164167 2.7164,-1.799167 2.68113,-5.362223 -0.0353,-1.5875 0.0353,-2.928054 0.17639,-2.928054 0.10583,0 2.18723,0.811387 4.62141,1.834443 z m -43.2508,1.975557 c 4.26863,1.41111 5.22114,2.892777 2.89279,4.445 -2.36362,1.552223 -6.10309,2.328333 -11.04201,2.36361 -5.99726,0 -10.08951,-0.881944 -11.88868,-2.575277 -1.09362,-1.023056 -1.02306,-1.834446 0.21166,-2.71639 2.5753,-1.834443 6.06782,-2.504723 12.38259,-2.36361 4.05696,0.07055 5.60919,0.246944 7.44365,0.846667 z m 60.00784,1.658054 c 6.35004,1.728612 6.27948,4.409723 -0.10583,6.173612 -7.40838,2.046111 -19.64984,0.282224 -20.00262,-2.892779 -0.0706,-0.670277 0.14111,-1.09361 0.88195,-1.5875 1.37584,-0.987777 3.81003,-1.834444 6.27948,-2.2225 2.92808,-0.423333 10.51284,-0.14111 12.94702,0.529167 z M 116.90156,58.30563 c 5.64448,2.398887 12.3473,5.185833 36.51272,15.345833 l 10.86562,4.550833 v 12.699998 c 0,6.985 0.10583,17.674166 0.24694,23.706666 0.10584,6.06778 0.10584,11.04195 -0.0353,11.04195 -0.14111,0 -7.8317,-3.24556 -17.07454,-7.16139 -9.27811,-3.95111 -21.23735,-9.0664 -26.59961,-11.35945 l -9.80728,-4.16278 v -6.596936 c 0,-3.63361 -0.10583,-14.216945 -0.24694,-23.565558 -0.10583,-9.34861 -0.14111,-17.00389 -0.0353,-17.00389 0.14111,0 2.89279,1.12889 6.17364,2.504724 z m 113.98317,24.694446 -0.10583,23.706664 -11.11257,3.24555 c -46.10832,13.58195 -53.72836,15.73389 -54.01059,15.45167 -0.17639,-0.17639 -0.28222,-10.01889 -0.24694,-23.74194 l 0.10583,-23.424444 5.11531,-1.481667 c 10.05422,-2.892779 44.76775,-12.946946 52.21141,-15.134169 4.16281,-1.234723 7.69059,-2.2225 7.86699,-2.257777 0.14111,-0.03528 0.21167,10.61861 0.17639,23.636113 z"
       inkscape:connector-curvature="0" />
    <path
       style="display:inline;fill:#000000;stroke:#ffff00;stroke-width:0.03527778"
       id="path5303"
       d="m 162.86878,54.389794 c -3.10446,0.423336 -5.9267,1.446389 -7.44365,2.786946 l -1.4464,1.199446 0.14111,5.009444 c 0.0706,3.527776 0.24695,5.185833 0.59973,5.573889 1.4464,1.799167 6.91448,3.245554 12.48841,3.386667 5.39753,0.14111 11.39478,-1.305277 13.26451,-3.175 l 1.09362,-1.093613 v -4.515556 c 0,-2.504721 -0.14111,-4.938887 -0.3175,-5.3975 -1.1289,-2.928054 -10.51284,-4.868334 -18.37983,-3.774723 z m 12.84119,1.728612 c 2.46945,0.670277 3.91585,1.516944 4.58613,2.645834 0.31751,0.49389 0.17639,0.77611 -0.77611,1.5875 -3.17502,2.71639 -12.55896,3.66889 -19.36761,1.975556 -2.5753,-0.635 -5.04475,-2.187223 -5.04475,-3.175 0,-1.234723 3.63363,-2.998613 7.62004,-3.704166 2.7164,-0.49389 10.19534,-0.105836 12.9823,0.670276 z"
       inkscape:connector-curvature="0" />
    <g
       transform="translate(-340.10756,-75.004556)"
       aria-label="Ψ"
       style="font-style:normal;font-variant:normal;font-weight:bold;font-stretch:normal;font-size:35.27777863px;line-height:125%;font-family:'Asana Math';-inkscape-font-specification:'Asana Math Bold';text-align:start;letter-spacing:0px;word-spacing:0px;writing-mode:lr-tb;text-anchor:start;display:inline;fill:#000000;fill-opacity:1;stroke:none;stroke-width:0.26458332px;stroke-linecap:butt;stroke-linejoin:miter;stroke-opacity:1"
       id="g5309">
      <path
         inkscape:connector-curvature="0"
         d="m 454.00514,136.40216 c 0,0 0.0574,-0.6886 0.0574,-0.6886 0,0 0.34488,-0.14777 0.34488,-0.14777 1.14954,0.67668 6.66594,3.48407 7.41278,4.46166 2.01049,2.4762 0.80423,19.66609 7.69562,27.5207 1.66488,1.90847 3.90351,3.17369 5.91221,4.04237 0,0 0,-13.78295 0,-13.78295 0,-1.78228 0.11482,-9.45571 -0.68866,-10.8139 -0.57392,-1.02108 -3.78829,-2.41427 -4.70684,-2.87181 0,0 -0.22964,-0.2778 -0.22964,-0.2778 0,0 0,-1.42613 0,-1.42613 0,0 0.22964,-0.0787 0.22964,-0.0787 2.69803,1.28846 5.3381,2.49228 7.97765,3.63649 2.63901,1.14398 5.22012,2.20353 7.85807,3.22823 0,0 0.17202,0.25273 0.17202,0.25273 0,0 0,1.42524 0,1.42524 0,0 -0.17202,0.1036 -0.17202,0.1036 -0.97483,-0.36318 -4.07183,-1.7055 -4.7028,-1.20679 -0.86045,0.63686 -0.68836,8.61132 -0.68836,10.39325 0,0 0,13.60208 0,13.60208 2.00761,0.86821 4.2443,1.53855 5.96456,1.09483 6.76415,-1.94261 5.61793,-20.1312 7.56645,-20.88964 0.85954,-0.33981 6.24473,1.63842 7.50476,2.00659 0,0 0.2291,0.39604 0.2291,0.39604 0,0 0.11458,0.76186 0.11458,0.76186 0,0 -0.22908,0.31616 -0.22908,0.31616 -2.57746,-0.22685 -3.03573,-0.95968 -3.60859,3.83742 -1.54684,11.49888 -3.49498,20.1543 -17.54172,14.19929 0,1.24735 -0.11478,8.91947 0.68835,10.1574 0.68833,1.06949 3.72798,2.38258 4.7028,2.86307 0,0 0.17202,0.25246 0.17202,0.25246 0,0 0,1.42524 0,1.42524 0,0 -0.17202,0.16325 -0.17202,0.16325 -2.63794,-1.31753 -5.21906,-2.49177 -7.85806,-3.63161 -2.63955,-1.14008 -5.27963,-2.1615 -7.97766,-3.20802 0,0 -0.22964,-0.33688 -0.22964,-0.33688 0,0 0,-1.42613 0,-1.42613 0,0 0.22964,-0.0791 0.22964,-0.0791 0.97595,0.36222 3.78856,1.51772 4.53467,1.24596 1.14776,-0.39528 0.86083,-9.13358 0.86083,-9.60886 -14.98662,-6.77734 -15.791,-17.23086 -17.74467,-30.73921 -0.6896,-4.16313 -0.57467,-3.34045 -3.44838,-5.65615 0,0 -0.22993,-0.51588 -0.22993,-0.51588"
         style="font-size:42.33333206px;stroke-width:0.26458332px"
         id="path5307" />
    </g>
    <g
       id="g5313"
       style="font-style:normal;font-variant:normal;font-weight:bold;font-stretch:normal;font-size:35.27777863px;line-height:125%;font-family:'Asana Math';-inkscape-font-specification:'Asana Math Bold';text-align:start;letter-spacing:0px;word-spacing:0px;writing-mode:lr-tb;text-anchor:start;display:inline;fill:#000000;fill-opacity:1;stroke:none;stroke-width:0.26458332px;stroke-linecap:butt;stroke-linejoin:miter;stroke-opacity:1"
       aria-label="Ψ"
       transform="translate(-344.63093,-75.025707)">
      <path
         id="path5311"
         style="font-size:42.33333206px;stroke-width:0.26458332px"
         d="m 569.20397,142.407 c 0,0 -0.0653,-0.66931 -0.0653,-0.66931 0,0 -0.39207,-0.17449 -0.39207,-0.17449 -1.30704,0.54599 -7.58391,2.74356 -8.4343,3.61793 -2.28998,2.20451 -0.91591,18.90723 -8.77108,25.87167 -1.89953,1.69468 -4.45483,2.71717 -6.74878,3.37742 0,0 0,-13.32244 0,-13.32244 0,-1.72272 -0.13115,-9.15032 0.78657,-10.38928 0.65541,-0.93408 4.32471,-1.98437 5.37275,-2.34177 0,0 0.262,-0.24719 0.262,-0.24719 0,0 0,-1.37761 0,-1.37761 0,0 -0.262,-0.0972 -0.262,-0.0972 -3.07903,0.99585 -6.09377,1.91584 -9.10969,2.77879 -3.0171,0.86329 -5.96977,1.65074 -8.98925,2.39971 0,0 -0.19696,0.22877 -0.19696,0.22877 0,0 0,1.37928 0,1.37928 0,0 0.19696,0.11603 0.19696,0.11603 1.11603,-0.26203 4.65998,-1.27644 5.3817,-0.73614 0.98405,0.69485 0.78725,8.39151 0.78725,10.11489 0,0 0,13.15512 0,13.15512 -2.29637,0.66094 -4.85599,1.11034 -6.82551,0.52774 -7.75168,-2.48467 -6.43729,-19.99618 -8.6719,-20.90902 -0.98607,-0.40788 -7.16829,1.01601 -8.61593,1.25761 0,0 -0.26323,0.36301 -0.26323,0.36301 0,0 -0.13167,0.72813 -0.13167,0.72813 0,0 0.26325,0.32742 0.26325,0.32742 2.96081,0.0155 3.48705,-0.65289 4.14481,4.04816 1.77567,11.28169 4.0111,19.8404 20.10013,15.3229 0,1.20636 0.13126,8.63647 -0.78724,9.76318 -0.78733,0.97407 -4.26567,1.97793 -5.3817,2.35748 0,0 -0.19697,0.22926 -0.19697,0.22926 0,0 0,1.37927 0,1.37927 0,0 0.19697,0.17301 0.19697,0.17301 3.01947,-1.04416 5.97214,-1.95407 8.98924,-2.82513 3.01592,-0.87072 6.03066,-1.62622 9.1097,-2.40043 0,0 0.26199,-0.30524 0.26199,-0.30524 0,0 0,-1.37761 0,-1.37761 0,0 -0.26199,-0.0966 -0.26199,-0.0966 -1.11355,0.26401 -4.32412,1.13308 -5.17612,0.80481 -1.31097,-0.48309 -0.98321,-8.90417 -0.98321,-9.36357 17.08974,-5.20746 18.00536,-15.22171 20.22853,-28.07558 0.7845,-3.9522 0.65375,-3.16928 3.92167,-5.13682 0,0 0.26137,-0.47614 0.26137,-0.47614"
         inkscape:connector-curvature="0" />
    </g>
    <path
       sodipodi:nodetypes="ccccc"
       inkscape:connector-curvature="0"
       id="path5315"
       d="m 110.30457,6.1297684 0.88195,47.5544426 53.36985,22.784141 -0.27649,-47.478577 z"
       style="display:inline;fill:#ffff00;fill-opacity:1;fill-rule:evenodd;stroke:none;stroke-width:0.26458332px;stroke-linecap:butt;stroke-linejoin:miter;stroke-opacity:1" />
    <path
       style="display:inline;fill:#ffff00;fill-opacity:1;fill-rule:evenodd;stroke:none;stroke-width:0.26458332px;stroke-linecap:butt;stroke-linejoin:miter;stroke-opacity:1"
       d="m 165.51463,29.025047 -0.95826,47.443305 67.45724,-18.056947 V 8.8461574 Z"
       id="path5317"
       inkscape:connector-curvature="0"
       sodipodi:nodetypes="ccccc" />
    <path
       sodipodi:nodetypes="cccccccccc"
       inkscape:connector-curvature="0"
       id="path5319"
       d="M 110.30457,6.1297684 164.84434,28.107826 230.4261,9.3753274 213.27225,1.5723014 c 1.52882,-3.524208 -4.97157,-6.332646 -14.13321,-5.753596 l -13.07488,-5.7535973 c 2.41378,-5.2984201 -24.37015,-10.2926301 -25.28993,0.5765797 l -14.70653,4.2807576 c -5.60775,-0.959909 -23.44123,-0.30331 -17.88157,4.54532697 z"
       style="display:inline;fill:#ffff00;fill-opacity:1;fill-rule:evenodd;stroke:none;stroke-width:0.26458332px;stroke-linecap:butt;stroke-linejoin:miter;stroke-opacity:1" />
    <path
       inkscape:connector-curvature="0"
       d="m 162.86878,5.1772664 c -3.10446,0.423334 -5.9267,1.446388 -7.44365,2.786943 l -1.4464,1.199445 0.14111,5.0094436 c 0.0706,3.527777 0.24695,5.185833 0.59973,5.57389 1.4464,1.799166 6.91448,3.245553 12.48841,3.386666 5.39753,0.14111 11.39478,-1.305277 13.26451,-3.175 l 1.09362,-1.093613 v -4.515556 c 0,-2.504721 -0.14111,-4.9388866 -0.3175,-5.3974976 -1.1289,-2.928055 -10.51284,-4.868331 -18.37983,-3.774721 z m 12.84119,1.728611 c 2.46945,0.670277 3.91585,1.516943 4.58613,2.645832 0.31751,0.4938876 0.17639,0.7761086 -0.77611,1.5874986 -3.17502,2.71639 -12.55896,3.66889 -19.36761,1.975556 -2.5753,-0.635 -5.04475,-2.187223 -5.04475,-3.1749996 0,-1.234722 3.63363,-2.99861 7.62004,-3.704165 2.7164,-0.493888 10.19534,-0.105834 12.9823,0.670278 z"
       id="path5323"
       style="display:inline;fill:#000000;stroke:#ffff00;stroke-width:0.03527778" />
    <g
       id="g5329"
       style="font-style:normal;font-variant:normal;font-weight:bold;font-stretch:normal;font-size:35.27777863px;line-height:125%;font-family:'Asana Math';-inkscape-font-specification:'Asana Math Bold';text-align:start;letter-spacing:0px;word-spacing:0px;writing-mode:lr-tb;text-anchor:start;display:inline;fill:#000000;fill-opacity:1;stroke:none;stroke-width:0.26458332px;stroke-linecap:butt;stroke-linejoin:miter;stroke-opacity:1"
       aria-label="Ψ"
       transform="translate(-340.10756,-124.21723)">
      <path
         id="path5327"
         style="font-size:42.33333206px;stroke-width:0.26458332px"
         d="m 454.00514,136.40216 c 0,0 0.0574,-0.6886 0.0574,-0.6886 0,0 0.34488,-0.14777 0.34488,-0.14777 1.14954,0.67668 6.66594,3.48407 7.41278,4.46166 2.01049,2.4762 0.80423,19.66609 7.69562,27.5207 1.66488,1.90847 3.90351,3.17369 5.91221,4.04237 0,0 0,-13.78295 0,-13.78295 0,-1.78228 0.11482,-9.45571 -0.68866,-10.8139 -0.57392,-1.02108 -3.78829,-2.41427 -4.70684,-2.87181 0,0 -0.22964,-0.2778 -0.22964,-0.2778 0,0 0,-1.42613 0,-1.42613 0,0 0.22964,-0.0787 0.22964,-0.0787 2.69803,1.28846 5.3381,2.49228 7.97765,3.63649 2.63901,1.14398 5.22012,2.20353 7.85807,3.22823 0,0 0.17202,0.25273 0.17202,0.25273 0,0 0,1.42524 0,1.42524 0,0 -0.17202,0.1036 -0.17202,0.1036 -0.97483,-0.36318 -4.07183,-1.7055 -4.7028,-1.20679 -0.86045,0.63686 -0.68836,8.61132 -0.68836,10.39325 0,0 0,13.60208 0,13.60208 2.00761,0.86821 4.2443,1.53855 5.96456,1.09483 6.76415,-1.94261 5.61793,-20.1312 7.56645,-20.88964 0.85954,-0.33981 6.24473,1.63842 7.50476,2.00659 0,0 0.2291,0.39604 0.2291,0.39604 0,0 0.11458,0.76186 0.11458,0.76186 0,0 -0.22908,0.31616 -0.22908,0.31616 -2.57746,-0.22685 -3.03573,-0.95968 -3.60859,3.83742 -1.54684,11.49888 -3.49498,20.1543 -17.54172,14.19929 0,1.24735 -0.11478,8.91947 0.68835,10.1574 0.68833,1.06949 3.72798,2.38258 4.7028,2.86307 0,0 0.17202,0.25246 0.17202,0.25246 0,0 0,1.42524 0,1.42524 0,0 -0.17202,0.16325 -0.17202,0.16325 -2.63794,-1.31753 -5.21906,-2.49177 -7.85806,-3.63161 -2.63955,-1.14008 -5.27963,-2.1615 -7.97766,-3.20802 0,0 -0.22964,-0.33688 -0.22964,-0.33688 0,0 0,-1.42613 0,-1.42613 0,0 0.22964,-0.0791 0.22964,-0.0791 0.97595,0.36222 3.78856,1.51772 4.53467,1.24596 1.14776,-0.39528 0.86083,-9.13358 0.86083,-9.60886 -14.98662,-6.77734 -15.791,-17.23086 -17.74467,-30.73921 -0.6896,-4.16313 -0.57467,-3.34045 -3.44838,-5.65615 0,0 -0.22993,-0.51588 -0.22993,-0.51588"
         inkscape:connector-curvature="0" />
    </g>
    <g
       transform="translate(-344.63093,-124.23837)"
       aria-label="Ψ"
       style="font-style:normal;font-variant:normal;font-weight:bold;font-stretch:normal;font-size:35.27777863px;line-height:125%;font-family:'Asana Math';-inkscape-font-specification:'Asana Math Bold';text-align:start;letter-spacing:0px;word-spacing:0px;writing-mode:lr-tb;text-anchor:start;display:inline;fill:#000000;fill-opacity:1;stroke:none;stroke-width:0.26458332px;stroke-linecap:butt;stroke-linejoin:miter;stroke-opacity:1"
       id="g5333">
      <path
         inkscape:connector-curvature="0"
         d="m 569.20397,142.407 c 0,0 -0.0653,-0.66931 -0.0653,-0.66931 0,0 -0.39207,-0.17449 -0.39207,-0.17449 -1.30704,0.54599 -7.58391,2.74356 -8.4343,3.61793 -2.28998,2.20451 -0.91591,18.90723 -8.77108,25.87167 -1.89953,1.69468 -4.45483,2.71717 -6.74878,3.37742 0,0 0,-13.32244 0,-13.32244 0,-1.72272 -0.13115,-9.15032 0.78657,-10.38928 0.65541,-0.93408 4.32471,-1.98437 5.37275,-2.34177 0,0 0.262,-0.24719 0.262,-0.24719 0,0 0,-1.37761 0,-1.37761 0,0 -0.262,-0.0972 -0.262,-0.0972 -3.07903,0.99585 -6.09377,1.91584 -9.10969,2.77879 -3.0171,0.86329 -5.96977,1.65074 -8.98925,2.39971 0,0 -0.19696,0.22877 -0.19696,0.22877 0,0 0,1.37928 0,1.37928 0,0 0.19696,0.11603 0.19696,0.11603 1.11603,-0.26203 4.65998,-1.27644 5.3817,-0.73614 0.98405,0.69485 0.78725,8.39151 0.78725,10.11489 0,0 0,13.15512 0,13.15512 -2.29637,0.66094 -4.85599,1.11034 -6.82551,0.52774 -7.75168,-2.48467 -6.43729,-19.99618 -8.6719,-20.90902 -0.98607,-0.40788 -7.16829,1.01601 -8.61593,1.25761 0,0 -0.26323,0.36301 -0.26323,0.36301 0,0 -0.13167,0.72813 -0.13167,0.72813 0,0 0.26325,0.32742 0.26325,0.32742 2.96081,0.0155 3.48705,-0.65289 4.14481,4.04816 1.77567,11.28169 4.0111,19.8404 20.10013,15.3229 0,1.20636 0.13126,8.63647 -0.78724,9.76318 -0.78733,0.97407 -4.26567,1.97793 -5.3817,2.35748 0,0 -0.19697,0.22926 -0.19697,0.22926 0,0 0,1.37927 0,1.37927 0,0 0.19697,0.17301 0.19697,0.17301 3.01947,-1.04416 5.97214,-1.95407 8.98924,-2.82513 3.01592,-0.87072 6.03066,-1.62622 9.1097,-2.40043 0,0 0.26199,-0.30524 0.26199,-0.30524 0,0 0,-1.37761 0,-1.37761 0,0 -0.26199,-0.0966 -0.26199,-0.0966 -1.11355,0.26401 -4.32412,1.13308 -5.17612,0.80481 -1.31097,-0.48309 -0.98321,-8.90417 -0.98321,-9.36357 17.08974,-5.20746 18.00536,-15.22171 20.22853,-28.07558 0.7845,-3.9522 0.65375,-3.16928 3.92167,-5.13682 0,0 0.26137,-0.47614 0.26137,-0.47614"
         style="font-size:42.33333206px;stroke-width:0.26458332px"
         id="path5331" />
    </g>
  </g>
  <g
     inkscape:groupmode="layer"
     id="layer3"
     inkscape:label="extra"
     style="display:inline"
     transform="translate(22.631623,16.173666)">
    <path
       inkscape:connector-curvature="0"
       d="m 169.92438,-15.989393 c -3.24557,0.3175 -5.2917,0.881945 -7.47893,1.975556 -1.90502,0.9525 -2.39891,1.693334 -2.39891,3.457223 0,0.8466663 -0.17639,1.2699999 -0.59972,1.4111109 -0.35278,0.1058331 -2.92808,0.8466654 -5.75031,1.6580541 -2.82224,0.8113884 -5.25642,1.4816654 -5.46809,1.4816654 -0.17639,0 -2.01084,-0.2116662 -4.05697,-0.45861 -9.03116,-1.0583323 -17.639,1.587499 -17.639,5.397496 0,1.44638997 0.88195,1.09361197 -10.93617,4.480276 l -5.82087,1.658055 -0.0706,18.1327746 c -0.0705,9.983613 0,21.131392 0.17639,24.835559 l 0.24695,6.702758 26.98766,11.535765 c 14.85203,6.349963 27.37571,11.535775 27.8696,11.535775 0.67029,0.0353 46.21416,-13.158547 64.13538,-18.520735 l 2.89279,-0.881936 V 33.646431 8.8461544 l -8.53727,-3.527776 -8.57255,-3.563054 -0.21168,-1.41111003 c -0.21166,-1.79916597 -0.56444,-2.22249997 -2.54001,-3.21027597 -2.18723,-1.093612 -6.13836,-1.834444 -9.73672,-1.834444 -3.0339,0 -3.21029,-0.07056 -8.89005,-2.3988875 l -5.75031,-2.4341656 -0.3175,-1.3405563 c -0.3175,-1.658055 -1.02306,-2.504722 -2.85752,-3.421944 -2.78696,-1.446389 -9.66616,-2.2225 -14.67564,-1.693334 z m 9.94839,1.552223 c 4.19808,0.776111 6.94976,2.575278 6.06781,3.986389 -1.19945,1.9049997 -6.03253,3.2808317 -11.74757,3.3161097 -8.0081,0.03528 -14.07591,-2.1166656 -12.77062,-4.5861097 1.34056,-2.504723 11.32423,-3.986389 18.45038,-2.716389 z m 12.1709,8.0433325 4.37447,1.8344429 -2.50474,0.634999 c -3.0339,0.740833 -5.36225,1.834444 -5.96197,2.822221 -0.28223,0.45861097 -0.42334,2.293054 -0.45862,5.644442 0,4.58611 0.0706,4.974164 0.77612,5.7502736 3.42196,3.633613 17.60371,4.30389 23.91847,1.093613 0.91723,-0.458613 1.86973,-1.234724 2.11667,-1.6933336 0.21167,-0.423332 0.45861,-2.116666 0.49389,-3.704166 l 0.10585,-2.857498 7.23198,2.998609 c 3.98641,1.658056 7.30254,3.033889 7.3731,3.104445 0.0706,0.07056 -0.74084,0.388054 -1.7639,0.670276 -1.05834,0.3174996 -15.62815,4.5155546 -32.38519,9.3838886 L 164.84435,28.107821 138.73864,17.101154 C 124.34522,11.068654 112.49181,6.0239324 112.3507,5.9180994 c -0.21167,-0.211666 13.54675,-4.303885 14.28759,-4.268609 0.14111,0 0.24694,1.305277 0.24694,2.892777 0,3.351386 0.35278,3.986386 2.71641,5.185832 6.03254,2.9986086 20.3554,2.1519416 23.67153,-1.411111 0.70556,-0.740834 0.77612,-1.164167 0.77612,-5.750276 0,-4.762498 -0.0353,-5.009442 -0.84668,-5.891386 -0.45861,-0.493889 -1.34056,-1.128888 -1.97556,-1.375832 -1.16418,-0.493889 -1.16418,-0.493889 3.56307,-1.8344439 2.61058,-0.7408326 4.83309,-1.3405544 5.00948,-1.3405544 0.14111,0 0.24694,1.0936103 0.24694,2.4341653 0,3.13972 0.35278,4.021665 2.01085,5.11527497 2.29307,1.51694303 5.08003,2.04611003 10.86562,2.18722103 5.82086,0.141111 8.53727,-0.282222 11.64173,-1.79916503 2.3989,-1.16416697 2.7164,-1.79916597 2.68113,-5.36221997 -0.0353,-1.5874986 0.0353,-2.9280539 0.17639,-2.9280539 0.10583,0 2.18723,0.8113887 4.62141,1.834444 z m -43.2508,1.9755539 c 4.26863,1.41111 5.22114,2.892776 2.89279,4.44499797 -2.36362,1.55222103 -6.10309,2.32833203 -11.04201,2.36361003 -5.99726,0 -10.08951,-0.881945 -11.88868,-2.57527703 -1.09362,-1.02305497 -1.02306,-1.83444397 0.21166,-2.71638697 2.5753,-1.834444 6.06782,-2.504722 12.38259,-2.36361 4.05696,0.07055 5.60919,0.246944 7.44365,0.846666 z m 60.00784,1.658055 c 6.35004,1.728609 6.27948,4.409719 -0.10583,6.173607 -7.40838,2.046111 -19.64984,0.282223 -20.00262,-2.89277703 -0.0706,-0.670276 0.14111,-1.09361 0.88195,-1.58749897 1.37584,-0.987777 3.81003,-1.834442 6.27948,-2.222498 2.92808,-0.423333 10.51284,-0.141111 12.94702,0.529167 z m -91.89915,11.853328 c 5.64448,2.3988856 12.3473,5.1858316 36.51272,15.3458316 l 10.86562,4.550833 v 12.700003 c 0,6.985 0.10583,17.674122 0.24694,23.70659 0.10584,6.067743 0.10584,11.041875 -0.0353,11.041875 -0.14111,0 -7.8317,-3.24553 -17.07454,-7.161348 -9.27809,-3.951089 -21.23733,-9.066339 -26.59959,-11.359377 l -9.80728,-4.162756 v -6.596927 c 0,-3.633613 -0.10583,-14.216947 -0.24694,-23.56556 -0.10583,-9.34861 -0.14111,-17.0038856 -0.0353,-17.0038856 0.14111,0 2.89279,1.128887 6.17364,2.504721 z m 113.98317,24.6944446 -0.10583,23.706638 -11.11257,3.24553 c -46.10832,13.581872 -53.72836,15.733802 -54.01059,15.451582 -0.17639,-0.176388 -0.28222,-10.018835 -0.24694,-23.741817 l 0.10583,-23.424433 5.11531,-1.481667 c 10.05422,-2.892779 44.76775,-12.946946 52.21141,-15.134169 4.16281,-1.234723 7.69059,-2.2225 7.86699,-2.257778 0.14111,-0.03528 0.21167,10.618611 0.17639,23.636114 z"
       id="path5321"
       style="display:inline;fill:#000000;stroke:#ffff00;stroke-width:0.03527778" />
    <path
       style="display:inline;fill:#cccccc;fill-opacity:0.30516435;fill-rule:evenodd;stroke:none;stroke-width:0.26458332px;stroke-linecap:butt;stroke-linejoin:miter;stroke-opacity:1"
       d="m 110.30457,6.1297833 0.88195,47.5544437 53.36985,22.784141 -0.27649,-47.478575 z"
       id="path5325"
       inkscape:connector-curvature="0"
       sodipodi:nodetypes="ccccc" />
    <path
       sodipodi:nodetypes="ccccc"
       inkscape:connector-curvature="0"
       id="path5305"
       d="m 110.30457,55.342307 0.88195,47.554453 53.36985,22.78427 -0.27649,-47.47871 z"
       style="display:inline;fill:#cccccc;fill-opacity:0.30516435;fill-rule:evenodd;stroke:none;stroke-width:0.26458332px;stroke-linecap:butt;stroke-linejoin:miter;stroke-opacity:1" />
  </g>
</svg>
