<?xml version="1.0" encoding="UTF-8" standalone="no"?>
<!-- Created with Inkscape (http://www.inkscape.org/) -->

<svg
   xmlns:dc="http://purl.org/dc/elements/1.1/"
   xmlns:cc="http://creativecommons.org/ns#"
   xmlns:rdf="http://www.w3.org/1999/02/22-rdf-syntax-ns#"
   xmlns:svg="http://www.w3.org/2000/svg"
   xmlns="http://www.w3.org/2000/svg"
   xmlns:xlink="http://www.w3.org/1999/xlink"
   xmlns:sodipodi="http://sodipodi.sourceforge.net/DTD/sodipodi-0.dtd"
   xmlns:inkscape="http://www.inkscape.org/namespaces/inkscape"
   width="1024"
   height="768"
   id="svg3717"
   version="1.1"
   inkscape:version="0.48.3.1 r9886"
   sodipodi:docname="tocrs.pdf">
  <defs
     id="defs3719" />
  <sodipodi:namedview
     id="base"
     pagecolor="#ffffff"
     bordercolor="#666666"
     borderopacity="1.0"
     inkscape:pageopacity="0.0"
     inkscape:pageshadow="2"
     inkscape:zoom="0.66536458"
     inkscape:cx="512"
     inkscape:cy="384"
     inkscape:document-units="px"
     inkscape:current-layer="layer24"
     showgrid="false"
     inkscape:window-width="1366"
     inkscape:window-height="709"
     inkscape:window-x="0"
     inkscape:window-y="27"
     inkscape:window-maximized="1"
     showguides="true"
     inkscape:guide-bbox="true" />
  <metadata
     id="metadata3722">
    <rdf:RDF>
      <cc:Work
         rdf:about="">
        <dc:format>image/svg+xml</dc:format>
        <dc:type
           rdf:resource="http://purl.org/dc/dcmitype/StillImage" />
        <dc:title></dc:title>
      </cc:Work>
    </rdf:RDF>
  </metadata>
  <g
     inkscape:groupmode="layer"
     id="layer4"
     inkscape:label="Intensity Frontier"
     style="display:inline">
    <path
       transform="matrix(1.201072,0,0,1.2708361,-243.20301,93.93235)"
       d="m 686.96402,305.72662 a 189.69785,176.80576 0 1 1 -379.39569,0 189.69785,176.80576 0 1 1 379.39569,0 z"
       sodipodi:ry="176.80576"
       sodipodi:rx="189.69785"
       sodipodi:cy="305.72662"
       sodipodi:cx="497.26617"
       id="path5819"
       style="fill:#009449;fill-opacity:1;stroke:none;display:inline"
       sodipodi:type="arc" />
  </g>
  <g
     inkscape:groupmode="layer"
     id="layer2"
     inkscape:label="Energy Frontier"
     transform="translate(0,-284.36218)"
     style="display:inline">
    <path
       sodipodi:type="arc"
       style="fill:#00adef;fill-opacity:1;stroke:none"
       id="path5049"
       sodipodi:cx="497.26617"
       sodipodi:cy="305.72662"
       sodipodi:rx="189.69785"
       sodipodi:ry="176.80576"
       d="m 686.96402,305.72662 a 189.69785,176.80576 0 1 1 -379.39569,0 189.69785,176.80576 0 1 1 379.39569,0 z"
       transform="matrix(1.201072,0,0,1.2708361,-133.62028,183.99237)" />
    <text
       xml:space="preserve"
       style="font-size:14px;font-style:italic;font-variant:normal;font-weight:normal;font-stretch:normal;text-align:start;line-height:125%;letter-spacing:0px;word-spacing:0px;writing-mode:lr-tb;text-anchor:start;fill:#000000;fill-opacity:1;stroke:none;font-family:FreeSerif;-inkscape-font-specification:FreeSerif Italic"
       x="259.51328"
       y="322.04941"
       id="text5942"
       sodipodi:linespacing="125%"
       transform="translate(0,284.36218)"><tspan
         sodipodi:role="line"
         id="tspan5944"
         x="259.51328"
         y="322.04941" /></text>
  </g>
  <g
     inkscape:groupmode="layer"
     id="layer21"
     inkscape:label="EFlabel"
     style="display:none">
    <text
       transform="translate(0,-284.36218)"
       sodipodi:linespacing="125%"
       id="text3390-0-1"
       y="472.19922"
       x="458.86746"
       style="font-size:18px;font-style:normal;font-variant:normal;font-weight:600;font-stretch:normal;text-align:center;line-height:125%;letter-spacing:0px;word-spacing:0px;writing-mode:lr-tb;text-anchor:middle;fill:#ffffff;fill-opacity:1;stroke:none;display:inline;font-family:FreeSans;-inkscape-font-specification:FreeSans Semi-Bold"
       xml:space="preserve"><tspan
         y="472.19922"
         x="458.86746"
         id="tspan3392-0-8"
         sodipodi:role="line"
         style="font-size:32px;text-align:center;text-anchor:middle;fill:#ffffff">Inestable</tspan><tspan
         y="512.19922"
         x="458.86746"
         sodipodi:role="line"
         style="font-size:32px;text-align:center;text-anchor:middle;fill:#ffffff"
         id="tspan185421">neutralino discovery</tspan></text>
  </g>
  <g
     inkscape:groupmode="layer"
     id="layer7"
     inkscape:label="EI"
     style="display:inline">
    <path
       style="fill:#9fd0d5;fill-opacity:1;stroke:none;display:inline"
       d="m 354.0625,257.78125 c -43.29566,0 -83.78011,11.91569 -118.25,32.59375 1.20677,123.07205 102.73001,222.46875 227.8125,222.46875 43.28009,0 83.75693,-11.89818 118.21875,-32.5625 -1.18999,-123.08638 -102.68824,-222.5 -227.78125,-222.5 z"
       id="path5822"
       inkscape:connector-curvature="0" />
  </g>
  <g
     inkscape:groupmode="layer"
     id="layer20"
     inkscape:label="EIlabel"
     style="display:none">
    <text
       sodipodi:linespacing="125%"
       id="text3390-0-1-1"
       y="143.98648"
       x="379.92294"
       style="font-size:18px;font-style:normal;font-variant:normal;font-weight:600;font-stretch:normal;text-align:start;line-height:125%;letter-spacing:0px;word-spacing:0px;writing-mode:lr-tb;text-anchor:start;fill:#000000;fill-opacity:1;stroke:none;display:inline;font-family:FreeSans;-inkscape-font-specification:FreeSans Semi-Bold"
       xml:space="preserve"
       transform="matrix(0.8668253,0.49861198,-0.49861198,0.8668253,0,0)"
       inkscape:transform-center-x="42.931677"><tspan
         y="143.98648"
         x="379.92294"
         id="tspan3392-0-8-9"
         sodipodi:role="line"
         style="font-size:32px;fill:#000000">Neutralino properties</tspan></text>
  </g>
  <g
     inkscape:groupmode="layer"
     id="layer5"
     inkscape:label="Cosmic Frontier"
     style="display:inline">
    <path
       sodipodi:type="arc"
       style="fill:#dc1a22;fill-opacity:1;stroke:none;display:inline"
       id="path5831"
       sodipodi:cx="497.26617"
       sodipodi:cy="305.72662"
       sodipodi:rx="189.69785"
       sodipodi:ry="176.80576"
       d="m 686.96402,305.72662 a 189.69785,176.80576 0 1 1 -379.39569,0 189.69785,176.80576 0 1 1 379.39569,0 z"
       transform="matrix(1.201072,0,0,1.2708361,-21.20301,93.93235)" />
  </g>
  <g
     inkscape:groupmode="layer"
     id="layer11"
     inkscape:label="IC"
     style="display:inline">
    <path
       style="fill:#dfc9b2;fill-opacity:1;stroke:none;display:inline"
       d="m 465.0625,286.1875 c -69.71765,38.42131 -116.84375,111.92414 -116.84375,196.28125 0,84.35711 47.1261,157.82869 116.84375,196.25 69.70451,-38.42494 116.8125,-111.90254 116.8125,-196.25 0,-84.34746 -47.10799,-157.85631 -116.8125,-196.28125 z"
       id="path5833"
       inkscape:connector-curvature="0" />
  </g>
  <g
     inkscape:groupmode="layer"
     id="layer6"
     inkscape:label="intersections"
     style="display:inline">
    <path
       style="fill:#c7c4e2;fill-opacity:1;stroke:none;display:inline"
       d="m 576.0625,257.78125 c -125.64273,0 -227.53594,100.29025 -227.84375,224.125 33.85096,19.65437 73.28239,30.9375 115.40625,30.9375 125.64273,0 227.53594,-100.29025 227.84375,-224.125 -33.85096,-19.65437 -73.28239,-30.9375 -115.40625,-30.9375 z"
       id="path5866"
       inkscape:connector-curvature="0" />
    <path
       style="fill:#ffffff;fill-opacity:1;stroke:none;display:inline"
       d="m 465.0625,286.21875 c -69.55122,38.33827 -116.63468,111.57548 -116.84375,195.6875 1.05784,0.6142 2.11885,1.21474 3.1875,1.8125 1.02948,0.57574 2.05436,1.15844 3.09375,1.71875 0.0533,0.0288 0.10288,0.065 0.15625,0.0937 0.70054,0.37692 1.42003,0.7239 2.125,1.09375 1.09044,0.57226 2.18039,1.13228 3.28125,1.6875 0.21202,0.10691 0.4126,0.23748 0.625,0.34375 1.33566,0.66841 2.68065,1.32568 4.03125,1.96875 0.2194,0.10442 0.43646,0.20875 0.65625,0.3125 0.81177,0.38337 1.65171,0.75086 2.46875,1.125 1.12007,0.5129 2.24518,1.00461 3.375,1.5 0.56299,0.24669 1.12211,0.50769 1.6875,0.75 0.5654,0.24245 1.11973,0.4807 1.6875,0.71875 0.28011,0.11739 0.56307,0.22743 0.84375,0.34375 1.27136,0.52709 2.5608,1.02637 3.84375,1.53125 0.42952,0.16896 0.85044,0.3648 1.28125,0.53125 1.4657,0.56655 2.95721,1.11897 4.4375,1.65625 0.92811,0.33686 1.84752,0.67476 2.78125,1 0.56118,0.19547 1.12431,0.37125 1.6875,0.5625 0.76963,0.26119 1.53916,0.52799 2.3125,0.78125 1.26883,0.41575 2.56513,0.82452 3.84375,1.21875 1.12976,0.34833 2.23776,0.66863 3.375,1 0.38529,0.11226 0.77011,0.23344 1.15625,0.34375 0.53119,0.15162 1.06097,0.2896 1.59375,0.4375 1.56205,0.43406 3.14328,0.87943 4.71875,1.28125 0.17635,0.0449 0.35473,0.0805 0.53125,0.125 1.04188,0.26308 2.07742,0.50115 3.125,0.75 1.22547,0.29111 2.45439,0.57228 3.6875,0.84375 1.14506,0.25188 2.28601,0.51519 3.4375,0.75 0.0939,0.0192 0.18735,0.0435 0.28125,0.0625 0.52972,0.10733 1.06269,0.20881 1.59375,0.3125 1.23913,0.2422 2.47246,0.46522 3.71875,0.6875 0.40627,0.0724 0.81173,0.14847 1.21875,0.21875 1.56607,0.2706 3.14182,0.51114 4.71875,0.75 0.53031,0.0802 1.06224,0.17336 1.59375,0.25 1.19206,0.17188 2.39576,0.31515 3.59375,0.46875 0.27189,0.0349 0.54031,0.091 0.8125,0.125 0.31113,0.0388 0.62598,0.0562 0.9375,0.0937 0.23012,0.0278 0.45716,0.0667 0.6875,0.0937 3.15266,0.37022 6.30916,0.66434 9.5,0.90625 0.28082,0.0213 0.56264,0.0422 0.84375,0.0625 1.69854,0.12282 3.38501,0.25789 5.09375,0.34375 0.0415,0.002 0.0834,-0.002 0.125,0 1.58867,0.079 3.18411,0.14081 4.78125,0.1875 0.34418,0.0101 0.68669,0.0227 1.03125,0.0312 0.63331,0.0157 1.27166,0.0206 1.90625,0.0312 1.31153,0.0219 2.62066,0.0312 3.9375,0.0312 1.3525,0 2.71557,-0.008 4.0625,-0.0312 0.60318,-0.0104 1.21047,-0.0162 1.8125,-0.0312 0.26064,-0.006 0.52083,-0.0239 0.78125,-0.0312 1.20927,-0.0342 2.42052,-0.0723 3.625,-0.125 1.589,-0.0696 3.16959,-0.17976 4.75,-0.28125 0.35481,-0.0228 0.70813,-0.0381 1.0625,-0.0625 0.0624,-0.004 0.12511,0.004 0.1875,0 1.09916,-0.0765 2.18643,-0.18943 3.28125,-0.28125 0.16668,-0.014 0.33342,-0.0169 0.5,-0.0312 1.06246,-0.0914 2.12926,-0.17551 3.1875,-0.28125 1.5773,-0.15772 3.15113,-0.34196 4.71875,-0.53125 0.33507,-0.0404 0.66538,-0.0831 1,-0.125 0.10375,-0.013 0.2088,-0.0181 0.3125,-0.0312 1.79326,-0.22692 3.59504,-0.48221 5.375,-0.75 1.8829,-0.28328 3.75756,-0.57781 5.625,-0.90625 1.86744,-0.32844 3.71111,-0.68948 5.5625,-1.0625 1.77711,-0.35805 3.55072,-0.7264 5.3125,-1.125 0.074,-0.0167 0.14474,-0.0457 0.21875,-0.0625 1.83475,-0.41701 3.65124,-0.85208 5.46875,-1.3125 0.61474,-0.15573 1.23103,-0.3081 1.84375,-0.46875 1.20656,-0.31613 2.39514,-0.63367 3.59375,-0.96875 0.0414,-0.0116 0.0836,-0.0197 0.125,-0.0312 1.58952,-0.44545 3.17484,-0.89657 4.75,-1.375 0.16654,-0.0506 0.33362,-0.10532 0.5,-0.15625 0.72199,-0.2211 1.43736,-0.45953 2.15625,-0.6875 1.05566,-0.33455 2.10737,-0.68199 3.15625,-1.03125 0.16614,-0.0553 0.33403,-0.10053 0.5,-0.15625 1.59234,-0.53428 3.17373,-1.08841 4.75,-1.65625 0.82323,-0.29677 1.64999,-0.60041 2.46875,-0.90625 0.92125,-0.34392 1.8345,-0.67593 2.75,-1.03125 0.27138,-0.10536 0.54163,-0.20615 0.8125,-0.3125 1.44718,-0.56805 2.88011,-1.15372 4.3125,-1.75 0.91156,-0.37958 1.81329,-0.76535 2.71875,-1.15625 0.78061,-0.33692 1.56774,-0.68598 2.34375,-1.03125 1.53187,-0.68185 3.08013,-1.37969 4.59375,-2.09375 0.14772,-0.0697 0.28996,-0.14877 0.4375,-0.21875 0.99581,-0.47237 1.98104,-0.95133 2.96875,-1.4375 0.65411,-0.32195 1.31825,-0.6408 1.96875,-0.96875 0.0958,-0.0483 0.18556,-0.10783 0.28125,-0.15625 1.077,-0.54496 2.15178,-1.09495 3.21875,-1.65625 0.45703,-0.24037 0.91984,-0.4754 1.375,-0.71875 0.35882,-0.19189 0.70484,-0.40002 1.0625,-0.59375 1.24957,-0.67684 2.48358,-1.36335 3.71875,-2.0625 1.5887,-0.89926 3.18566,-1.81436 4.75,-2.75 0.0722,-0.0432 0.1466,-0.0817 0.21875,-0.125 -0.80658,-83.42856 -47.69586,-155.97087 -116.78125,-194.0625 z"
       id="path5871"
       inkscape:connector-curvature="0" />
  </g>
  <g
     inkscape:groupmode="layer"
     id="layer3"
     inkscape:label="labels"
     style="display:none">
    <text
       xml:space="preserve"
       style="font-size:18px;font-style:normal;font-variant:normal;font-weight:600;font-stretch:normal;text-align:center;line-height:125%;letter-spacing:0px;word-spacing:0px;writing-mode:lr-tb;text-anchor:middle;fill:#ffffff;fill-opacity:1;stroke:none;display:inline;font-family:FreeSans;-inkscape-font-specification:FreeSans Semi-Bold"
       x="330.40521"
       y="324.86002"
       id="text5946"
       sodipodi:linespacing="125%"><tspan
         sodipodi:role="line"
         id="tspan5948"
         x="330.40521"
         y="324.86002">Matter/Anti-matter</tspan><tspan
         sodipodi:role="line"
         x="330.40521"
         y="347.36002"
         id="tspan5950">Assymetry</tspan></text>
    <text
       xml:space="preserve"
       style="font-size:18px;font-style:normal;font-variant:normal;font-weight:600;font-stretch:normal;text-align:start;line-height:125%;letter-spacing:0px;word-spacing:0px;writing-mode:lr-tb;text-anchor:start;fill:#000000;fill-opacity:1;stroke:none;display:inline;font-family:FreeSans;-inkscape-font-specification:FreeSans Semi-Bold"
       x="386.20221"
       y="380.13538"
       id="text5952"
       sodipodi:linespacing="125%"><tspan
         sodipodi:role="line"
         id="tspan5954"
         x="386.20221"
         y="380.13538">Origin of Universe</tspan></text>
    <text
       xml:space="preserve"
       style="font-size:18px;font-style:normal;font-variant:normal;font-weight:600;font-stretch:normal;text-align:start;line-height:125%;letter-spacing:0px;word-spacing:0px;writing-mode:lr-tb;text-anchor:start;fill:#000000;fill-opacity:1;stroke:none;font-family:FreeSans;-inkscape-font-specification:FreeSans Semi-Bold"
       x="377.02264"
       y="417.61026"
       id="text5964"
       sodipodi:linespacing="125%"><tspan
         sodipodi:role="line"
         id="tspan5966"
         x="377.02264"
         y="417.61026">Unification of forces</tspan></text>
    <text
       xml:space="preserve"
       style="font-size:17px;font-style:normal;font-variant:normal;font-weight:600;font-stretch:normal;text-align:center;line-height:125%;letter-spacing:0px;word-spacing:0px;writing-mode:lr-tb;text-anchor:middle;fill:#000000;fill-opacity:1;stroke:none;font-family:FreeSans;-inkscape-font-specification:FreeSans Semi-Bold"
       x="465.02704"
       y="451.33759"
       id="text5968"
       sodipodi:linespacing="125%"><tspan
         sodipodi:role="line"
         id="tspan5970"
         x="465.02704"
         y="451.33759">New physics</tspan><tspan
         sodipodi:role="line"
         x="465.02704"
         y="472.58759"
         id="tspan5972">beyond the standard model</tspan></text>
    <text
       xml:space="preserve"
       style="font-size:18px;font-style:normal;font-variant:normal;font-weight:600;font-stretch:normal;text-align:start;line-height:125%;letter-spacing:0px;word-spacing:0px;writing-mode:lr-tb;text-anchor:start;fill:#ffffff;fill-opacity:1;stroke:none;font-family:FreeSans;-inkscape-font-specification:FreeSans Semi-Bold"
       x="171.44739"
       y="529.0979"
       id="text5974"
       sodipodi:linespacing="125%"><tspan
         sodipodi:role="line"
         id="tspan5976"
         x="171.44739"
         y="529.0979">Neutrino physics</tspan></text>
    <text
       xml:space="preserve"
       style="font-size:18px;font-style:normal;font-variant:normal;font-weight:600;font-stretch:normal;text-align:start;line-height:125%;letter-spacing:0px;word-spacing:0px;writing-mode:lr-tb;text-anchor:start;fill:#ffffff;fill-opacity:1;stroke:none;font-family:FreeSans;-inkscape-font-specification:FreeSans Semi-Bold"
       x="226.72278"
       y="618.10065"
       id="text5978"
       sodipodi:linespacing="125%"><tspan
         sodipodi:role="line"
         id="tspan5980"
         x="226.72278"
         y="618.10065">Proton-decays</tspan></text>
    <text
       xml:space="preserve"
       style="font-size:18px;font-style:normal;font-variant:normal;font-weight:600;font-stretch:normal;text-align:start;line-height:125%;letter-spacing:0px;word-spacing:0px;writing-mode:lr-tb;text-anchor:start;fill:#ffffff;fill-opacity:1;stroke:none;font-family:FreeSans;-inkscape-font-specification:FreeSans Semi-Bold"
       x="156.45746"
       y="438.22141"
       id="text5982"
       sodipodi:linespacing="125%"><tspan
         sodipodi:role="line"
         id="tspan5984"
         x="156.45746"
         y="438.22141">B-physics</tspan></text>
    <text
       xml:space="preserve"
       style="font-size:18px;font-style:normal;font-variant:normal;font-weight:600;font-stretch:normal;text-align:start;line-height:125%;letter-spacing:0px;word-spacing:0px;writing-mode:lr-tb;text-anchor:start;fill:#ffffff;fill-opacity:1;stroke:none;font-family:FreeSans;-inkscape-font-specification:FreeSans Semi-Bold"
       x="555.56451"
       y="316.42819"
       id="text5986"
       sodipodi:linespacing="125%"><tspan
         sodipodi:role="line"
         id="tspan5988"
         x="555.56451"
         y="316.42819">Dark Matter</tspan></text>
    <text
       xml:space="preserve"
       style="font-size:18px;font-style:normal;font-variant:normal;font-weight:600;font-stretch:normal;text-align:start;line-height:125%;letter-spacing:0px;word-spacing:0px;writing-mode:lr-tb;text-anchor:start;fill:#ffffff;fill-opacity:1;stroke:none;font-family:FreeSans;-inkscape-font-specification:FreeSans Semi-Bold"
       x="659.55719"
       y="534.71912"
       id="text5990"
       sodipodi:linespacing="125%"><tspan
         sodipodi:role="line"
         id="tspan5992"
         x="659.55719"
         y="534.71912">Dark Energy</tspan></text>
    <text
       xml:space="preserve"
       style="font-size:18px;font-style:normal;font-variant:normal;font-weight:600;font-stretch:normal;text-align:start;line-height:125%;letter-spacing:0px;word-spacing:0px;writing-mode:lr-tb;text-anchor:start;fill:#ffffff;fill-opacity:1;stroke:none;font-family:FreeSans;-inkscape-font-specification:FreeSans Semi-Bold"
       x="566.80695"
       y="628.40625"
       id="text5994"
       sodipodi:linespacing="125%"><tspan
         sodipodi:role="line"
         id="tspan5996"
         x="566.80695"
         y="628.40625">Cosmic particles</tspan></text>
    <path
       style="fill:none;stroke:none"
       d="M 274.41726,160.69065 C 324.29736,92.239809 394.43645,63.717027 474.2446,62.489208 577.53477,76.609114 619.57314,114.80096 657.02158,167.59712"
       id="path6042"
       inkscape:connector-curvature="0"
       sodipodi:nodetypes="ccc" />
    <path
       style="fill:none;stroke:none"
       d="m 11.808109,458.07656 c 0.46251,69.10829 9.13285,114.92686 70.87248,198.92952 56.420301,56.45886 136.661941,97.92792 212.319311,94.32514"
       id="path6122"
       inkscape:connector-curvature="0"
       sodipodi:nodetypes="ccc" />
  </g>
  <g
     inkscape:groupmode="layer"
     id="layer14"
     inkscape:label="intensity frontiers"
     style="display:inline">
    <text
       sodipodi:linespacing="125%"
       id="text6103"
       style="font-size:48px;font-style:normal;font-variant:normal;font-weight:normal;font-stretch:normal;text-align:start;line-height:125%;letter-spacing:0px;word-spacing:0px;writing-mode:lr-tb;text-anchor:start;fill:#000000;fill-opacity:1;stroke:none;display:inline;font-family:FreeSans;-inkscape-font-specification:FreeSans"
       xml:space="preserve"
       transform="translate(67.059692,8.2113909)"><textPath
         xlink:href="#path6122"
         id="textPath6146"><tspan
   id="tspan6105">The intensity frontier</tspan></textPath></text>
  </g>
  <g
     inkscape:groupmode="layer"
     id="layer15"
     inkscape:label="energy frontier"
     style="display:inline">
    <text
       xml:space="preserve"
       style="font-size:48px;font-style:normal;font-variant:normal;font-weight:normal;font-stretch:normal;text-align:start;line-height:125%;letter-spacing:0px;word-spacing:0px;writing-mode:lr-tb;text-anchor:start;fill:#000000;fill-opacity:1;stroke:none;display:inline;font-family:FreeSans;-inkscape-font-specification:FreeSans"
       id="text6038"
       sodipodi:linespacing="125%"
       transform="translate(0,-18)"><textPath
         xlink:href="#path6042"
         id="textPath6107"><tspan
   id="tspan6040">The energy frontier</tspan></textPath></text>
  </g>
  <g
     inkscape:groupmode="layer"
     id="layer16"
     inkscape:label="cosmic frontier"
     style="display:inline">
    <text
       transform="matrix(0.06942182,-0.9975874,0.9975874,0.06942182,83.856601,734.03205)"
       xml:space="preserve"
       style="font-size:48px;font-style:normal;font-variant:normal;font-weight:normal;font-stretch:normal;text-align:start;line-height:125%;letter-spacing:0px;word-spacing:0px;writing-mode:lr-tb;text-anchor:start;fill:#000000;fill-opacity:1;stroke:none;display:inline;font-family:FreeSans;-inkscape-font-specification:FreeSans"
       id="text6149"
       sodipodi:linespacing="125%"><textPath
         id="textPath6151"
         xlink:href="#path6122"><tspan
   id="tspan6153">The cosmic frontier</tspan></textPath></text>
  </g>
  <g
     inkscape:groupmode="layer"
     id="layer13"
     inkscape:label="origin of mass"
     style="display:none"
     sodipodi:insensitive="true">
    <text
       xml:space="preserve"
       style="font-size:18px;font-style:normal;font-variant:normal;font-weight:600;font-stretch:normal;text-align:start;line-height:125%;letter-spacing:0px;word-spacing:0px;writing-mode:lr-tb;text-anchor:start;fill:#ffffff;fill-opacity:1;stroke:none;display:inline;font-family:FreeSans;-inkscape-font-specification:FreeSans Semi-Bold"
       x="409.20038"
       y="462.38596"
       id="text5938"
       sodipodi:linespacing="125%"
       transform="translate(0,-284.36218)"><tspan
         sodipodi:role="line"
         id="tspan5940"
         x="409.20038"
         y="462.38596">Origin of Mass</tspan></text>
  </g>
  <g
     inkscape:groupmode="layer"
     id="layer8"
     inkscape:label="I labels"
     style="display:none">
    <text
       sodipodi:linespacing="125%"
       id="text3390"
       y="529.0979"
       x="171.44739"
       style="font-size:18px;font-style:normal;font-variant:normal;font-weight:600;font-stretch:normal;text-align:start;line-height:125%;letter-spacing:0px;word-spacing:0px;writing-mode:lr-tb;text-anchor:start;fill:#ffff00;fill-opacity:1;stroke:none;display:inline;font-family:FreeSans;-inkscape-font-specification:FreeSans Semi-Bold"
       xml:space="preserve"><tspan
         y="529.0979"
         x="171.44739"
         id="tspan3392"
         sodipodi:role="line">Neutrino physics</tspan></text>
  </g>
  <g
     inkscape:groupmode="layer"
     id="layer9"
     inkscape:label="E label"
     style="display:none">
    <text
       sodipodi:linespacing="125%"
       id="text3375"
       y="451.33759"
       x="465.02704"
       style="font-size:17px;font-style:normal;font-variant:normal;font-weight:600;font-stretch:normal;text-align:center;line-height:125%;letter-spacing:0px;word-spacing:0px;writing-mode:lr-tb;text-anchor:middle;fill:#ff0000;fill-opacity:1;stroke:none;display:inline;font-family:FreeSans;-inkscape-font-specification:FreeSans Semi-Bold"
       xml:space="preserve"><tspan
         y="451.33759"
         x="465.02704"
         id="tspan3377"
         sodipodi:role="line">New physics</tspan><tspan
         id="tspan3379"
         y="472.58759"
         x="465.02704"
         sodipodi:role="line">beyond the standard model</tspan></text>
  </g>
  <g
     inkscape:groupmode="layer"
     id="layer12"
     inkscape:label="C label"
     style="display:none">
    <text
       sodipodi:linespacing="125%"
       id="text3384"
       y="316.42819"
       x="555.56451"
       style="font-size:18px;font-style:normal;font-variant:normal;font-weight:600;font-stretch:normal;text-align:start;line-height:125%;letter-spacing:0px;word-spacing:0px;writing-mode:lr-tb;text-anchor:start;fill:#ffff00;fill-opacity:1;stroke:none;display:inline;font-family:FreeSans;-inkscape-font-specification:FreeSans Semi-Bold"
       xml:space="preserve"><tspan
         y="316.42819"
         x="555.56451"
         id="tspan3386"
         sodipodi:role="line">Dark Matter</tspan></text>
  </g>
  <g
     inkscape:groupmode="layer"
     id="layer1"
     inkscape:label="BRpV"
     style="display:none">
    <text
       sodipodi:linespacing="125%"
       id="text3396"
       y="462.38596"
       x="409.20038"
       style="font-size:18px;font-style:normal;font-variant:normal;font-weight:600;font-stretch:normal;text-align:start;line-height:125%;letter-spacing:0px;word-spacing:0px;writing-mode:lr-tb;text-anchor:start;fill:#ffff00;fill-opacity:1;stroke:none;display:inline;font-family:FreeSans;-inkscape-font-specification:FreeSans Semi-Bold"
       xml:space="preserve"
       transform="translate(0,-284.36218)"><tspan
         y="462.38596"
         x="409.20038"
         id="tspan3398"
         sodipodi:role="line">Hierarchy of masses</tspan></text>
  </g>
  <g
     inkscape:groupmode="layer"
     id="layer10"
     inkscape:label="transparence"
     style="display:none">
    <rect
       style="fill:#ffffff;fill-opacity:0.69194312;stroke:#000000;stroke-width:2.25257897;stroke-miterlimit:4;stroke-opacity:1;stroke-dasharray:none;stroke-dashoffset:0"
       id="rect3050"
       width="1021.7474"
       height="765.74744"
       x="1.1262895"
       y="1.126274" />
  </g>
  <g
     inkscape:groupmode="layer"
     id="layer17"
     inkscape:label="newphysics"
     style="display:none">
    <path
       inkscape:connector-curvature="0"
       id="path3821"
       d="m 465.0625,286.21875 c -69.55122,38.33827 -116.63468,111.57548 -116.84375,195.6875 1.05784,0.6142 2.11885,1.21474 3.1875,1.8125 1.02948,0.57574 2.05436,1.15844 3.09375,1.71875 0.0533,0.0288 0.10288,0.065 0.15625,0.0937 0.70054,0.37692 1.42003,0.7239 2.125,1.09375 1.09044,0.57226 2.18039,1.13228 3.28125,1.6875 0.21202,0.10691 0.4126,0.23748 0.625,0.34375 1.33566,0.66841 2.68065,1.32568 4.03125,1.96875 0.2194,0.10442 0.43646,0.20875 0.65625,0.3125 0.81177,0.38337 1.65171,0.75086 2.46875,1.125 1.12007,0.5129 2.24518,1.00461 3.375,1.5 0.56299,0.24669 1.12211,0.50769 1.6875,0.75 0.5654,0.24245 1.11973,0.4807 1.6875,0.71875 0.28011,0.11739 0.56307,0.22743 0.84375,0.34375 1.27136,0.52709 2.5608,1.02637 3.84375,1.53125 0.42952,0.16896 0.85044,0.3648 1.28125,0.53125 1.4657,0.56655 2.95721,1.11897 4.4375,1.65625 0.92811,0.33686 1.84752,0.67476 2.78125,1 0.56118,0.19547 1.12431,0.37125 1.6875,0.5625 0.76963,0.26119 1.53916,0.52799 2.3125,0.78125 1.26883,0.41575 2.56513,0.82452 3.84375,1.21875 1.12976,0.34833 2.23776,0.66863 3.375,1 0.38529,0.11226 0.77011,0.23344 1.15625,0.34375 0.53119,0.15162 1.06097,0.2896 1.59375,0.4375 1.56205,0.43406 3.14328,0.87943 4.71875,1.28125 0.17635,0.0449 0.35473,0.0805 0.53125,0.125 1.04188,0.26308 2.07742,0.50115 3.125,0.75 1.22547,0.29111 2.45439,0.57228 3.6875,0.84375 1.14506,0.25188 2.28601,0.51519 3.4375,0.75 0.0939,0.0192 0.18735,0.0435 0.28125,0.0625 0.52972,0.10733 1.06269,0.20881 1.59375,0.3125 1.23913,0.2422 2.47246,0.46522 3.71875,0.6875 0.40627,0.0724 0.81173,0.14847 1.21875,0.21875 1.56607,0.2706 3.14182,0.51114 4.71875,0.75 0.53031,0.0802 1.06224,0.17336 1.59375,0.25 1.19206,0.17188 2.39576,0.31515 3.59375,0.46875 0.27189,0.0349 0.54031,0.091 0.8125,0.125 0.31113,0.0388 0.62598,0.0562 0.9375,0.0937 0.23012,0.0278 0.45716,0.0667 0.6875,0.0937 3.15266,0.37022 6.30916,0.66434 9.5,0.90625 0.28082,0.0213 0.56264,0.0422 0.84375,0.0625 1.69854,0.12282 3.38501,0.25789 5.09375,0.34375 0.0415,0.002 0.0834,-0.002 0.125,0 1.58867,0.079 3.18411,0.14081 4.78125,0.1875 0.34418,0.0101 0.68669,0.0227 1.03125,0.0312 0.63331,0.0157 1.27166,0.0206 1.90625,0.0312 1.31153,0.0219 2.62066,0.0312 3.9375,0.0312 1.3525,0 2.71557,-0.008 4.0625,-0.0312 0.60318,-0.0104 1.21047,-0.0162 1.8125,-0.0312 0.26064,-0.006 0.52083,-0.0239 0.78125,-0.0312 1.20927,-0.0342 2.42052,-0.0723 3.625,-0.125 1.589,-0.0696 3.16959,-0.17976 4.75,-0.28125 0.35481,-0.0228 0.70813,-0.0381 1.0625,-0.0625 0.0624,-0.004 0.12511,0.004 0.1875,0 1.09916,-0.0765 2.18643,-0.18943 3.28125,-0.28125 0.16668,-0.014 0.33342,-0.0169 0.5,-0.0312 1.06246,-0.0914 2.12926,-0.17551 3.1875,-0.28125 1.5773,-0.15772 3.15113,-0.34196 4.71875,-0.53125 0.33507,-0.0404 0.66538,-0.0831 1,-0.125 0.10375,-0.013 0.2088,-0.0181 0.3125,-0.0312 1.79326,-0.22692 3.59504,-0.48221 5.375,-0.75 1.8829,-0.28328 3.75756,-0.57781 5.625,-0.90625 1.86744,-0.32844 3.71111,-0.68948 5.5625,-1.0625 1.77711,-0.35805 3.55072,-0.7264 5.3125,-1.125 0.074,-0.0167 0.14474,-0.0457 0.21875,-0.0625 1.83475,-0.41701 3.65124,-0.85208 5.46875,-1.3125 0.61474,-0.15573 1.23103,-0.3081 1.84375,-0.46875 1.20656,-0.31613 2.39514,-0.63367 3.59375,-0.96875 0.0414,-0.0116 0.0836,-0.0197 0.125,-0.0312 1.58952,-0.44545 3.17484,-0.89657 4.75,-1.375 0.16654,-0.0506 0.33362,-0.10532 0.5,-0.15625 0.72199,-0.2211 1.43736,-0.45953 2.15625,-0.6875 1.05566,-0.33455 2.10737,-0.68199 3.15625,-1.03125 0.16614,-0.0553 0.33403,-0.10053 0.5,-0.15625 1.59234,-0.53428 3.17373,-1.08841 4.75,-1.65625 0.82323,-0.29677 1.64999,-0.60041 2.46875,-0.90625 0.92125,-0.34392 1.8345,-0.67593 2.75,-1.03125 0.27138,-0.10536 0.54163,-0.20615 0.8125,-0.3125 1.44718,-0.56805 2.88011,-1.15372 4.3125,-1.75 0.91156,-0.37958 1.81329,-0.76535 2.71875,-1.15625 0.78061,-0.33692 1.56774,-0.68598 2.34375,-1.03125 1.53187,-0.68185 3.08013,-1.37969 4.59375,-2.09375 0.14772,-0.0697 0.28996,-0.14877 0.4375,-0.21875 0.99581,-0.47237 1.98104,-0.95133 2.96875,-1.4375 0.65411,-0.32195 1.31825,-0.6408 1.96875,-0.96875 0.0958,-0.0483 0.18556,-0.10783 0.28125,-0.15625 1.077,-0.54496 2.15178,-1.09495 3.21875,-1.65625 0.45703,-0.24037 0.91984,-0.4754 1.375,-0.71875 0.35882,-0.19189 0.70484,-0.40002 1.0625,-0.59375 1.24957,-0.67684 2.48358,-1.36335 3.71875,-2.0625 1.5887,-0.89926 3.18566,-1.81436 4.75,-2.75 0.0722,-0.0432 0.1466,-0.0817 0.21875,-0.125 -0.80658,-83.42856 -47.69586,-155.97087 -116.78125,-194.0625 z"
       style="fill:#ffffff;fill-opacity:1;stroke:#000000;stroke-width:2;stroke-miterlimit:4;stroke-opacity:1;stroke-dasharray:none;display:inline" />
    <text
       xml:space="preserve"
       style="font-size:20px;font-style:normal;font-variant:normal;font-weight:normal;font-stretch:normal;text-align:start;line-height:125%;letter-spacing:0px;word-spacing:0px;writing-mode:lr-tb;text-anchor:start;fill:#000000;fill-opacity:1;stroke:none;font-family:FreeSerif;-inkscape-font-specification:FreeSerif"
       x="395.87518"
       y="411.99109"
       id="text3834"
       sodipodi:linespacing="125%"><tspan
         sodipodi:role="line"
         id="tspan3836"
         x="395.87518"
         y="411.99109"
         style="font-size:56px;fill:#ff0000">BRpV</tspan></text>
  </g>
  <g
     inkscape:groupmode="layer"
     id="layer18"
     inkscape:label="transparence#1"
     style="display:none">
    <rect
       y="1.126274"
       x="1.1262895"
       height="765.74744"
       width="1021.7474"
       id="rect3877"
       style="fill:#ffffff;fill-opacity:0.71563984;stroke:#000000;stroke-width:2.25257897;stroke-miterlimit:4;stroke-opacity:1;stroke-dasharray:none;stroke-dashoffset:0;display:inline" />
  </g>
  <g
     inkscape:groupmode="layer"
     id="layer19"
     inkscape:label="neutralino"
     style="display:inline">
    <text
       sodipodi:linespacing="125%"
       id="text3390-0"
       y="155.30338"
       x="468.07602"
       style="font-size:18px;font-style:normal;font-variant:normal;font-weight:600;font-stretch:normal;text-align:start;line-height:125%;letter-spacing:0px;word-spacing:0px;writing-mode:lr-tb;text-anchor:start;fill:#ffff00;fill-opacity:1;stroke:none;display:inline;font-family:FreeSans;-inkscape-font-specification:FreeSans Semi-Bold"
       xml:space="preserve"
       transform="matrix(0.61867149,0.78564979,-0.78564979,0.61867149,0,0)"
       inkscape:transform-center-y="-52.47205"><tspan
         y="155.30338"
         x="468.07602"
         id="tspan3392-0"
         sodipodi:role="line"
         style="font-size:32px">Neutrino physics</tspan></text>
  </g>
  <g
     inkscape:groupmode="layer"
     id="layer22"
     inkscape:label="toc"
     style="display:none">
    <text
       xml:space="preserve"
       style="font-size:40px;font-style:normal;font-variant:normal;font-weight:normal;font-stretch:normal;text-align:start;line-height:125%;letter-spacing:0px;word-spacing:0px;writing-mode:lr-tb;text-anchor:start;fill:#000000;fill-opacity:1;stroke:none;font-family:FreeSerif;-inkscape-font-specification:FreeSerif"
       x="373.66461"
       y="144.69565"
       id="text3073"
       sodipodi:linespacing="125%"><tspan
         sodipodi:role="line"
         id="tspan3075"
         x="373.66461"
         y="144.69565" /></text>
    <text
       xml:space="preserve"
       style="font-size:40px;font-style:normal;font-variant:normal;font-weight:normal;font-stretch:normal;text-align:start;line-height:125%;letter-spacing:0px;word-spacing:0px;writing-mode:lr-tb;text-anchor:start;fill:#ffffff;fill-opacity:1;stroke:none;font-family:FreeSans;-inkscape-font-specification:FreeSans"
       x="340.27328"
       y="182.85715"
       id="text3077"
       sodipodi:linespacing="125%"><tspan
         sodipodi:role="line"
         id="tspan3079"
         x="340.27328"
         y="182.85715">NLSP discovery</tspan></text>
    <text
       xml:space="preserve"
       style="font-size:18px;font-style:italic;font-variant:normal;font-weight:normal;font-stretch:normal;text-align:start;line-height:125%;letter-spacing:0px;word-spacing:0px;writing-mode:lr-tb;text-anchor:start;fill:#000000;fill-opacity:1;stroke:none;font-family:FreeSerif;-inkscape-font-specification:FreeSerif Italic"
       x="267.13043"
       y="311.65216"
       id="text3081"
       sodipodi:linespacing="125%"><tspan
         sodipodi:role="line"
         id="tspan3083"
         x="267.13043"
         y="311.65216" /></text>
    <text
       xml:space="preserve"
       style="font-size:32px;font-style:normal;font-variant:normal;font-weight:normal;font-stretch:normal;text-align:center;line-height:125%;letter-spacing:0px;word-spacing:0px;writing-mode:lr-tb;text-anchor:middle;fill:#000000;fill-opacity:1;stroke:none;font-family:FreeSans;-inkscape-font-specification:FreeSans"
       x="318.49728"
       y="310.98175"
       id="text3077-4"
       sodipodi:linespacing="125%"><tspan
         sodipodi:role="line"
         id="tspan3079-4"
         x="322.49728"
         y="310.98175">NLSP </tspan><tspan
         sodipodi:role="line"
         x="318.49728"
         y="350.98175"
         id="tspan3139">properties</tspan></text>
    <text
       xml:space="preserve"
       style="font-size:40px;font-style:normal;font-variant:normal;font-weight:normal;font-stretch:normal;text-align:center;line-height:99.00000095%;letter-spacing:0px;word-spacing:0px;writing-mode:lr-tb;text-anchor:middle;fill:#ffffff;fill-opacity:1;stroke:none;font-family:FreeSans;-inkscape-font-specification:FreeSans"
       x="689.14258"
       y="492.24878"
       id="text3077-1"
       sodipodi:linespacing="99.000001%"><tspan
         sodipodi:role="line"
         x="689.14258"
         y="492.24878"
         id="tspan3301">LSP:</tspan><tspan
         sodipodi:role="line"
         x="689.14258"
         y="531.84875"
         id="tspan3307">Gravitino</tspan><tspan
         sodipodi:role="line"
         x="694.14258"
         y="571.44879"
         id="tspan3305"> decaying </tspan><tspan
         sodipodi:role="line"
         x="694.14258"
         y="611.04877"
         id="tspan3309">DM </tspan></text>
    <text
       xml:space="preserve"
       style="font-size:40px;font-style:normal;font-variant:normal;font-weight:normal;font-stretch:normal;text-align:center;line-height:99.00000095%;letter-spacing:0px;word-spacing:0px;writing-mode:lr-tb;text-anchor:middle;fill:#000000;fill-opacity:1;stroke:none;font-family:FreeSans;-inkscape-font-specification:FreeSans"
       x="461.11801"
       y="545.33307"
       id="text3077-1-6"
       sodipodi:linespacing="99.000001%"><tspan
         sodipodi:role="line"
         x="461.11801"
         y="545.33307"
         id="tspan3301-5" /><tspan
         sodipodi:role="line"
         x="461.11801"
         y="584.93304"
         id="tspan3307-1">Gravitino</tspan><tspan
         sodipodi:role="line"
         x="461.11801"
         y="624.53308"
         id="tspan3309-1"> mass</tspan></text>
  </g>
  <g
     inkscape:groupmode="layer"
     id="layer24"
     inkscape:label="radiativeseesaw"
     style="display:inline">
    <text
       xml:space="preserve"
       style="font-size:18px;font-style:italic;font-variant:normal;font-weight:normal;font-stretch:normal;text-align:start;line-height:125%;letter-spacing:0px;word-spacing:0px;writing-mode:lr-tb;text-anchor:start;fill:#000000;fill-opacity:1;stroke:none;font-family:FreeSerif;-inkscape-font-specification:FreeSerif Italic"
       x="429.31677"
       y="368.89441"
       id="text3088"
       sodipodi:linespacing="125%"><tspan
         sodipodi:role="line"
         id="tspan3090"
         x="429.31677"
         y="368.89441" /></text>
    <text
       xml:space="preserve"
       style="font-size:40px;font-style:normal;font-variant:normal;font-weight:normal;font-stretch:normal;text-align:start;line-height:125%;letter-spacing:0px;word-spacing:0px;writing-mode:lr-tb;text-anchor:start;fill:#ffffff;fill-opacity:1;stroke:none;display:inline;font-family:FreeSans;-inkscape-font-specification:FreeSans"
       x="340.27328"
       y="182.85715"
       id="text3077-7"
       sodipodi:linespacing="125%"><tspan
         sodipodi:role="line"
         id="tspan3079-45"
         x="340.27328"
         y="182.85715">LOP discovery</tspan></text>
    <text
       xml:space="preserve"
       style="font-size:32px;font-style:normal;font-variant:normal;font-weight:normal;font-stretch:normal;text-align:center;line-height:125%;letter-spacing:0px;word-spacing:0px;writing-mode:lr-tb;text-anchor:middle;fill:#000000;fill-opacity:1;stroke:none;display:inline;font-family:FreeSans;-inkscape-font-specification:FreeSans"
       x="318.49728"
       y="310.98175"
       id="text3077-4-8"
       sodipodi:linespacing="125%"><tspan
         sodipodi:role="line"
         id="tspan3079-4-6"
         x="322.49728"
         y="310.98175">NLOP </tspan><tspan
         sodipodi:role="line"
         x="318.49728"
         y="350.98175"
         id="tspan3139-1">properties</tspan></text>
    <text
       xml:space="preserve"
       style="font-size:40px;font-style:normal;font-variant:normal;font-weight:normal;font-stretch:normal;text-align:center;line-height:99.00000095%;letter-spacing:0px;word-spacing:0px;writing-mode:lr-tb;text-anchor:middle;fill:#ffffff;fill-opacity:1;stroke:none;display:inline;font-family:FreeSans;-inkscape-font-specification:FreeSans"
       x="689.14258"
       y="492.24878"
       id="text3077-1-4"
       sodipodi:linespacing="99.000001%"><tspan
         sodipodi:role="line"
         x="689.14258"
         y="492.24878"
         id="tspan3301-58">LOP</tspan><tspan
         sodipodi:role="line"
         x="689.14258"
         y="531.84875"
         id="tspan3307-2">direct</tspan><tspan
         sodipodi:role="line"
         x="694.14258"
         y="571.44879"
         id="tspan3305-1"> detection </tspan><tspan
         sodipodi:role="line"
         x="689.14258"
         y="611.04877"
         id="tspan3309-0" /></text>
    <text
       xml:space="preserve"
       style="font-size:40px;font-style:normal;font-variant:normal;font-weight:normal;font-stretch:normal;text-align:center;line-height:99.00000095%;letter-spacing:0px;word-spacing:0px;writing-mode:lr-tb;text-anchor:middle;fill:#000000;fill-opacity:1;stroke:none;display:inline;font-family:FreeSans;-inkscape-font-specification:FreeSans"
       x="461.11801"
       y="545.33307"
       id="text3077-1-6-9"
       sodipodi:linespacing="99.000001%"><tspan
         sodipodi:role="line"
         x="461.11801"
         y="545.33307"
         id="tspan3301-5-0" /><tspan
         sodipodi:role="line"
         x="461.11801"
         y="584.93304"
         id="tspan3307-1-1">LOP</tspan><tspan
         sodipodi:role="line"
         x="461.11801"
         y="624.53308"
         id="tspan3309-1-9"> mass</tspan></text>
    <text
       xml:space="preserve"
       style="font-size:40px;font-style:normal;font-variant:normal;font-weight:normal;font-stretch:normal;text-align:center;line-height:125%;letter-spacing:0px;word-spacing:0px;writing-mode:lr-tb;text-anchor:middle;fill:#ff0000;fill-opacity:1;stroke:none;display:inline;font-family:FreeSans;-inkscape-font-specification:FreeSans"
       x="464.095"
       y="359.99109"
       id="text3092"
       sodipodi:linespacing="125%"><tspan
         sodipodi:role="line"
         id="tspan3094"
         x="464.095"
         y="359.99109">Odd</tspan><tspan
         sodipodi:role="line"
         x="464.095"
         y="409.99109"
         id="tspan3096">New</tspan><tspan
         sodipodi:role="line"
         x="464.095"
         y="459.99109"
         id="tspan3098">Physics</tspan></text>
    <text
       xml:space="preserve"
       style="font-size:32px;font-style:normal;font-variant:normal;font-weight:normal;font-stretch:normal;text-align:center;line-height:125%;letter-spacing:0px;word-spacing:0px;writing-mode:lr-tb;text-anchor:middle;fill:#000000;fill-opacity:1;stroke:none;display:inline;font-family:FreeSans;-inkscape-font-specification:FreeSans"
       x="608.49731"
       y="310.98175"
       id="text3077-4-8-1"
       sodipodi:linespacing="125%"><tspan
         sodipodi:role="line"
         id="tspan3079-4-6-5"
         x="612.49731"
         y="310.98175">MET </tspan><tspan
         sodipodi:role="line"
         x="608.49731"
         y="350.98175"
         id="tspan3139-1-7">signals</tspan></text>
  </g>
</svg>
