<?xml version="1.0" encoding="UTF-8" standalone="no"?>
<!-- Created with Inkscape (http://www.inkscape.org/) -->

<svg
   xmlns:dc="http://purl.org/dc/elements/1.1/"
   xmlns:cc="http://creativecommons.org/ns#"
   xmlns:rdf="http://www.w3.org/1999/02/22-rdf-syntax-ns#"
   xmlns:svg="http://www.w3.org/2000/svg"
   xmlns="http://www.w3.org/2000/svg"
   xmlns:xlink="http://www.w3.org/1999/xlink"
   xmlns:sodipodi="http://sodipodi.sourceforge.net/DTD/sodipodi-0.dtd"
   xmlns:inkscape="http://www.inkscape.org/namespaces/inkscape"
   width="726.55682"
   height="462.45816"
   id="svg3267"
   version="1.1"
   inkscape:version="0.48.5 r10040"
   sodipodi:docname="triangle.pdf">
  <defs
     id="defs3269">
    <linearGradient
       inkscape:collect="always"
       id="linearGradient5048">
      <stop
         style="stop-color:#ffff00;stop-opacity:1;"
         offset="0"
         id="stop5050" />
      <stop
         style="stop-color:#ffff00;stop-opacity:0;"
         offset="1"
         id="stop5052" />
    </linearGradient>
    <linearGradient
       inkscape:collect="always"
       id="linearGradient5021">
      <stop
         style="stop-color:#ff5400;stop-opacity:1;"
         offset="0"
         id="stop5023" />
      <stop
         style="stop-color:#ff5400;stop-opacity:0;"
         offset="1"
         id="stop5025" />
    </linearGradient>
    <linearGradient
       id="linearGradient5009">
      <stop
         style="stop-color:#00ffff;stop-opacity:1;"
         offset="0"
         id="stop5011" />
      <stop
         style="stop-color:#00ffff;stop-opacity:0;"
         offset="1"
         id="stop5013" />
    </linearGradient>
    <clipPath
       id="p7ff5b81e1d">
      <rect
         height="345.60001"
         width="446.39999"
         x="72"
         y="43.200001"
         id="rect176" />
    </clipPath>
    <clipPath
       id="p7ff5b81e1d-3">
      <rect
         height="345.60001"
         width="446.39999"
         x="72"
         y="43.200001"
         id="rect176-5" />
    </clipPath>
    <linearGradient
       inkscape:collect="always"
       xlink:href="#linearGradient5009"
       id="linearGradient5015"
       x1="368.02631"
       y1="110.84209"
       x2="369.02634"
       y2="327.78946"
       gradientUnits="userSpaceOnUse" />
    <linearGradient
       inkscape:collect="always"
       xlink:href="#linearGradient5021"
       id="linearGradient5027"
       x1="183.30455"
       y1="486.41479"
       x2="622.93616"
       y2="486.41479"
       gradientUnits="userSpaceOnUse" />
    <linearGradient
       inkscape:collect="always"
       xlink:href="#linearGradient5048"
       id="linearGradient5054"
       x1="367.07895"
       y1="529.10529"
       x2="368.07892"
       y2="223.10527"
       gradientUnits="userSpaceOnUse" />
  </defs>
  <sodipodi:namedview
     id="base"
     pagecolor="#ffffff"
     bordercolor="#666666"
     borderopacity="1.0"
     inkscape:pageopacity="0.0"
     inkscape:pageshadow="2"
     inkscape:zoom="1.0898283"
     inkscape:cx="363.27841"
     inkscape:cy="231.22908"
     inkscape:document-units="px"
     inkscape:current-layer="layer1"
     showgrid="false"
     fit-margin-top="0"
     fit-margin-left="0"
     fit-margin-right="0"
     fit-margin-bottom="0"
     inkscape:window-width="1366"
     inkscape:window-height="702"
     inkscape:window-x="0"
     inkscape:window-y="27"
     inkscape:window-maximized="1" />
  <metadata
     id="metadata3272">
    <rdf:RDF>
      <cc:Work
         rdf:about="">
        <dc:format>image/svg+xml</dc:format>
        <dc:type
           rdf:resource="http://purl.org/dc/dcmitype/StillImage" />
        <dc:title></dc:title>
      </cc:Work>
    </rdf:RDF>
  </metadata>
  <g
     inkscape:label="Layer 1"
     inkscape:groupmode="layer"
     id="layer1"
     style="display:inline"
     transform="translate(-54.543281,-142.31776)">
    <g
       transform="matrix(1.25,0,0,1.25,2.8571857,122.36218)"
       id="figure_1">
      <g
         id="patch_1" />
      <g
         id="axes_1">
        <g
           id="line2d_1">
          <path
             inkscape:connector-curvature="0"
             clip-path="url(#p7ff5b81e1d)"
             d="M 94.32,339.105 72,370.611 M 272.88,87.0646 250.56,118.57 m 22.32,31.505 -22.32,-31.505 M 295.2,55.5597 272.88,87.0646 m 22.32,31.5054 -44.64,0 m 44.64,0 -22.32,-31.5054 m 22.32,31.5054 -22.32,31.505 m 22.32,31.505 -22.32,-31.505 m -44.64,0 22.32,-31.505 m -22.32,31.505 44.64,-63.0104 m -44.64,63.0104 44.64,0 m 44.64,63.01 L 295.2,181.58 M 116.64,307.6 94.32,339.105 m 267.84,-126.02 -44.64,0 m 22.32,-31.505 -44.64,0 m 44.64,0 -22.32,31.505 m 22.32,-31.505 22.32,-31.505 m -22.32,31.505 22.32,31.505 m -22.32,31.505 -22.32,-31.505 m 22.32,31.505 22.32,31.505 m -22.32,-31.505 22.32,-31.505 m -44.64,-63.01 -44.64,0 m 44.64,0 -22.32,-31.505 m 22.32,31.505 -22.32,31.505 m 22.32,-31.505 44.64,0 m -44.64,0 22.32,31.505 m -223.2,189.031 -44.64,0 m 44.64,0 -22.32,-31.506 m 223.2,-252.0404 -44.64,0 m 44.64,0 L 295.2,55.5597 M 317.52,87.0646 295.2,118.57 m 22.32,-31.5054 44.64,63.0104 M 384.48,307.6 362.16,276.095 m 22.32,-31.505 -22.32,31.505 m 22.32,-31.505 -22.32,-31.505 m 22.32,31.505 -44.64,0 m 89.28,0 -44.64,0 m 22.32,-31.505 -44.64,-63.01 m 44.64,63.01 -44.64,0 m 44.64,0 -22.32,31.505 m 22.32,-31.505 22.32,31.505 m 0,63.01 22.32,31.505 m -22.32,-31.505 -44.64,0 m 22.32,-31.505 -44.64,0 m 44.64,0 -22.32,31.505 M 406.8,276.095 384.48,244.59 m 22.32,31.505 22.32,-31.505 M 406.8,276.095 429.12,307.6 M 138.96,276.095 72,370.611 m 66.96,-94.516 -44.64,63.01 m 44.64,-63.01 -22.32,31.505 m 357.12,63.011 -22.32,-31.506 m -111.6,-220.535 -44.64,0 m 44.64,0 22.32,31.505 M 339.84,118.57 317.52,150.075 M 339.84,118.57 317.52,87.0646 m 66.96,94.5154 -22.32,-31.505 m 22.32,31.505 -22.32,31.505 m 22.32,-31.505 -44.64,0 m 44.64,0 22.32,31.505 m 111.6,157.526 -44.64,0 m 22.32,-31.506 -44.64,0 m 44.64,0 -22.32,31.506 m 22.32,-31.506 22.32,31.506 M 473.76,307.6 451.44,339.105 m 22.32,-31.505 -44.64,0 m 44.64,0 22.32,31.505 m -357.12,0 -44.64,0 m 44.64,0 -22.32,-31.505 m 22.32,31.505 -22.32,31.506 m 66.96,-157.526 44.64,-63.01 m -44.64,63.01 -44.64,63.01 m 312.48,0 -22.32,-31.505 m 22.32,31.505 -44.64,-63.01 m 44.64,63.01 -22.32,31.505 m 22.32,-31.505 -44.64,0 m 44.64,0 66.96,94.516 m -66.96,-94.516 44.64,63.01 m -44.64,-63.01 22.32,31.505 m -44.64,63.011 22.32,-31.506 m -22.32,31.506 44.64,0 m -66.96,-31.506 44.64,0 m -44.64,0 -22.32,-31.505 m 22.32,31.505 22.32,-31.505 m -22.32,31.505 22.32,31.506 M 339.84,307.6 362.16,276.095 m -22.32,31.505 44.64,0 m -223.2,0 -44.64,0 m 44.64,0 -22.32,-31.505 m 22.32,31.505 -22.32,31.505 m 111.6,-157.525 22.32,-31.505 m -22.32,31.505 44.64,0 m -44.64,0 -22.32,-31.505 m 89.28,126.02 44.64,0 m -44.64,0 22.32,-31.505 m -22.32,31.505 22.32,31.505 m -44.64,-63.01 22.32,-31.505 m -22.32,31.505 44.64,0 m -44.64,0 22.32,31.505 m -111.6,-94.515 22.32,-31.505 m -22.32,31.505 -22.32,31.505 m 22.32,-31.505 44.64,0 m -89.28,189.031 -44.64,0 m 44.64,0 -22.32,-31.506 m 111.6,-94.515 44.64,0 m -89.28,0 -22.32,-31.505 m 22.32,31.505 44.64,0 m -66.96,94.515 -44.64,0 m 44.64,0 -22.32,-31.505 m 22.32,31.505 -22.32,31.506 m 0,-126.021 -22.32,31.505 m 22.32,-31.505 22.32,-31.505 m -22.32,31.505 44.64,0 m 22.32,-31.505 -44.64,0 m 44.64,0 22.32,-31.505 m -22.32,31.505 -22.32,-31.505 m 22.32,31.505 22.32,31.505 m -22.32,-31.505 -22.32,31.505 m 0,63.01 -44.64,0 m 44.64,0 -22.32,31.505 m 0,-63.01 -44.64,0 m 44.64,0 -22.32,31.505 M 183.6,276.095 205.92,244.59 M 183.6,276.095 161.28,244.59 m 22.32,31.505 22.32,31.505 m 66.96,-94.515 22.32,-31.505 m -22.32,31.505 44.64,0 m -44.64,0 -22.32,-31.505 m 22.32,31.505 22.32,31.505 m -22.32,-31.505 -22.32,31.505 m 22.32,-31.505 -44.64,0 m 22.32,94.515 -44.64,0 m 66.96,31.505 -22.32,-31.505 m 44.64,0 44.64,0 m -44.64,0 22.32,-31.505 m -22.32,31.505 -44.64,0 m 44.64,0 -22.32,31.505 m 0,-63.01 44.64,0 m -44.64,0 22.32,-31.505 m -22.32,31.505 -22.32,-31.505 m 22.32,31.505 -22.32,31.505 m 22.32,-31.505 22.32,31.505 m 66.96,31.505 22.32,-31.505 m -22.32,31.505 44.64,0 m -44.64,0 -22.32,-31.505 m -111.6,-31.505 22.32,-31.505 m -22.32,31.505 -22.32,-31.505 m 22.32,31.505 -22.32,31.505 m 22.32,-31.505 -44.64,0 m 44.64,0 22.32,31.505 m -22.32,-31.505 44.64,0 m -66.96,94.516 -44.64,0 m 44.64,0 -22.32,-31.506 m 66.96,31.506 22.32,-31.506 m -22.32,31.506 -44.64,0 m 22.32,-31.506 -44.64,0 m 44.64,0 -22.32,-31.505 m 22.32,31.505 22.32,-31.505 m -22.32,31.505 44.64,0 m -44.64,0 -22.32,31.506 m 22.32,-31.506 22.32,31.506 m 89.28,0 22.32,-31.506 m -66.96,31.506 -22.32,-31.506 m 22.32,31.506 -44.64,0 m 44.64,0 44.64,0 M 317.52,339.105 339.84,307.6 m -22.32,31.505 -44.64,0 m 44.64,0 L 295.2,307.6 m 22.32,31.505 44.64,0 m -44.64,0 22.32,31.506 m -22.32,-31.506 -22.32,31.506 m 89.28,0 44.64,0 m -44.64,0 22.32,-31.506 m -22.32,31.506 -22.32,-31.506 m 22.32,31.506 -44.64,0 0,0"
             style="fill:none;stroke:#808080;stroke-linecap:square"
             id="path14" />
          <path
             id="path4961"
             style="fill:#ff0000;stroke:#808080;stroke-linecap:square"
             d="M 94.32,339.105 72,370.611 M 272.88,87.0646 250.56,118.57 m 22.32,31.505 -22.32,-31.505 M 295.2,55.5597 272.88,87.0646 m 22.32,31.5054 -44.64,0 m 44.64,0 -22.32,-31.5054 m 22.32,31.5054 -22.32,31.505 m 22.32,31.505 -22.32,-31.505 m -44.64,0 22.32,-31.505 m -22.32,31.505 44.64,-63.0104 m -44.64,63.0104 44.64,0 m 44.64,63.01 L 295.2,181.58 M 116.64,307.6 94.32,339.105 m 267.84,-126.02 -44.64,0 m 22.32,-31.505 -44.64,0 m 44.64,0 -22.32,31.505 m 22.32,-31.505 22.32,-31.505 m -22.32,31.505 22.32,31.505 m -22.32,31.505 -22.32,-31.505 m 22.32,31.505 22.32,31.505 m -22.32,-31.505 22.32,-31.505 m -44.64,-63.01 -44.64,0 m 44.64,0 -22.32,-31.505 m 22.32,31.505 -22.32,31.505 m 22.32,-31.505 44.64,0 m -44.64,0 22.32,31.505 m -223.2,189.031 -44.64,0 m 44.64,0 -22.32,-31.506 m 223.2,-252.0404 -44.64,0 m 44.64,0 L 295.2,55.5597 M 317.52,87.0646 295.2,118.57 m 22.32,-31.5054 44.64,63.0104 M 384.48,307.6 362.16,276.095 m 22.32,-31.505 -22.32,31.505 m 22.32,-31.505 -22.32,-31.505 m 22.32,31.505 -44.64,0 m 89.28,0 -44.64,0 m 22.32,-31.505 -44.64,-63.01 m 44.64,63.01 -44.64,0 m 44.64,0 -22.32,31.505 m 22.32,-31.505 22.32,31.505 m 0,63.01 22.32,31.505 m -22.32,-31.505 -44.64,0 m 22.32,-31.505 -44.64,0 m 44.64,0 -22.32,31.505 M 406.8,276.095 384.48,244.59 m 22.32,31.505 22.32,-31.505 M 406.8,276.095 429.12,307.6 M 138.96,276.095 72,370.611 m 66.96,-94.516 -44.64,63.01 m 44.64,-63.01 -22.32,31.505 m 357.12,63.011 -22.32,-31.506 m -111.6,-220.535 -44.64,0 m 44.64,0 22.32,31.505 M 339.84,118.57 317.52,150.075 M 339.84,118.57 317.52,87.0646 m 66.96,94.5154 -22.32,-31.505 m 22.32,31.505 -22.32,31.505 m 22.32,-31.505 -44.64,0 m 44.64,0 22.32,31.505 m 111.6,157.526 -44.64,0 m 22.32,-31.506 -44.64,0 m 44.64,0 -22.32,31.506 m 22.32,-31.506 22.32,31.506 M 473.76,307.6 451.44,339.105 m 22.32,-31.505 -44.64,0 m 44.64,0 22.32,31.505 m -357.12,0 -44.64,0 m 44.64,0 -22.32,-31.505 m 22.32,31.505 -22.32,31.506 m 66.96,-157.526 44.64,-63.01 m -44.64,63.01 -44.64,63.01 m 312.48,0 -22.32,-31.505 m 22.32,31.505 -44.64,-63.01 m 44.64,63.01 -22.32,31.505 m 22.32,-31.505 -44.64,0 m 44.64,0 66.96,94.516 m -66.96,-94.516 44.64,63.01 m -44.64,-63.01 22.32,31.505 m -44.64,63.011 22.32,-31.506 m -22.32,31.506 44.64,0 m -66.96,-31.506 44.64,0 m -44.64,0 -22.32,-31.505 m 22.32,31.505 22.32,-31.505 m -22.32,31.505 22.32,31.506 M 339.84,307.6 362.16,276.095 m -22.32,31.505 44.64,0 m -223.2,0 -44.64,0 m 44.64,0 -22.32,-31.505 m 22.32,31.505 -22.32,31.505 m 111.6,-157.525 22.32,-31.505 m -22.32,31.505 44.64,0 m -44.64,0 -22.32,-31.505 m 89.28,126.02 44.64,0 m -44.64,0 22.32,-31.505 m -22.32,31.505 22.32,31.505 m -44.64,-63.01 22.32,-31.505 m -22.32,31.505 44.64,0 m -44.64,0 22.32,31.505 m -111.6,-94.515 22.32,-31.505 m -22.32,31.505 -22.32,31.505 m 22.32,-31.505 44.64,0 m -89.28,189.031 -44.64,0 m 44.64,0 -22.32,-31.506 m 111.6,-94.515 44.64,0 m -89.28,0 -22.32,-31.505 m 22.32,31.505 44.64,0 m -66.96,94.515 -44.64,0 m 44.64,0 -22.32,-31.505 m 22.32,31.505 -22.32,31.506 m 0,-126.021 -22.32,31.505 m 22.32,-31.505 22.32,-31.505 m -22.32,31.505 44.64,0 m 22.32,-31.505 -44.64,0 m 44.64,0 22.32,-31.505 m -22.32,31.505 -22.32,-31.505 m 22.32,31.505 22.32,31.505 m -22.32,-31.505 -22.32,31.505 m 0,63.01 -44.64,0 m 44.64,0 -22.32,31.505 m 0,-63.01 -44.64,0 m 44.64,0 -22.32,31.505 M 183.6,276.095 205.92,244.59 M 183.6,276.095 161.28,244.59 m 22.32,31.505 22.32,31.505 m 66.96,-94.515 22.32,-31.505 m -22.32,31.505 44.64,0 m -44.64,0 -22.32,-31.505 m 22.32,31.505 22.32,31.505 m -22.32,-31.505 -22.32,31.505 m 22.32,-31.505 -44.64,0 m 22.32,94.515 -44.64,0 m 66.96,31.505 -22.32,-31.505 m 44.64,0 44.64,0 m -44.64,0 22.32,-31.505 m -22.32,31.505 -44.64,0 m 44.64,0 -22.32,31.505 m 0,-63.01 44.64,0 m -44.64,0 22.32,-31.505 m -22.32,31.505 -22.32,-31.505 m 22.32,31.505 -22.32,31.505 m 22.32,-31.505 22.32,31.505 m 66.96,31.505 22.32,-31.505 m -22.32,31.505 44.64,0 m -44.64,0 -22.32,-31.505 m -111.6,-31.505 22.32,-31.505 m -22.32,31.505 -22.32,-31.505 m 22.32,31.505 -22.32,31.505 m 22.32,-31.505 -44.64,0 m 44.64,0 22.32,31.505 m -22.32,-31.505 44.64,0 m -66.96,94.516 -44.64,0 m 44.64,0 -22.32,-31.506 m 66.96,31.506 22.32,-31.506 m -22.32,31.506 -44.64,0 m 22.32,-31.506 -44.64,0 m 44.64,0 -22.32,-31.505 m 22.32,31.505 22.32,-31.505 m -22.32,31.505 44.64,0 m -44.64,0 -22.32,31.506 m 22.32,-31.506 22.32,31.506 m 89.28,0 22.32,-31.506 m -66.96,31.506 -22.32,-31.506 m 22.32,31.506 -44.64,0 m 44.64,0 44.64,0 M 317.52,339.105 339.84,307.6 m -22.32,31.505 -44.64,0 m 44.64,0 L 295.2,307.6 m 22.32,31.505 44.64,0 m -44.64,0 22.32,31.506 m -22.32,-31.506 -22.32,31.506 m 89.28,0 44.64,0 m -44.64,0 22.32,-31.506 m -22.32,31.506 -22.32,-31.506 m 22.32,31.506 -44.64,0 0,0"
             clip-path="url(#p7ff5b81e1d)"
             inkscape:connector-curvature="0" />
        </g>
        <g
           id="line2d_2" />
        <g
           id="text_1">
          <!-- $\mathcal{B}_e$  -->
          <defs
             id="defs18">
            <path
               inkscape:connector-curvature="0"
               d=""
               id="BitstreamVeraSans-Roman-20" />
            <path
               inkscape:connector-curvature="0"
               d="m 20.125,-1.125 q -4.7969,0 -8.3906,2.48438 -3.57815,2.5 -5.46878,6.71874 -1.875,4.23438 -1.875,8.92188 0,7.125 3.59376,13.3906 3.59372,6.2813 9.73442,10.0313 6.1562,3.7656 13.1874,3.7656 4.2969,0 7.5,-2.2187 3.2032,-2.2188 3.2032,-6.375 0,-5.7657 -4.5938,-8.5782 -4.5937,-2.7968 -10.3594,-3.4531 -5.75,-0.6563 -12.7343,-0.6563 l -0.2969,0 q -1.6094,-5.9687 -1.6094,-10.2031 0,-4.4531 2.0469,-7.8281 2.0469,-3.35938 6.25,-3.35938 5.9531,0 11.4375,2.73438 5.5,2.73438 8.9688,7.5625 0.2968,0.2969 0.7812,0.2969 0.5,0 1,-0.5625 0.5156,-0.5625 0.5156,-1.0469 0,-0.3906 -0.1875,-0.59375 -3.6719,-5.125 -9.875,-8.07813 Q 26.7656,-1.125 20.125,-1.125 m -5.9219,26.6094 q 5.8125,0 10.75,0.5312 4.9375,0.5469 8.9375,2.7188 4,2.1718 4,6.7656 0,1.8594 -1.0312,3.25 -1.0156,1.3906 -2.6563,2.125 -1.6406,0.7344 -3.3906,0.7344 -4.25,0 -7.6406,-2.2969 -3.3907,-2.2969 -5.5938,-5.9844 -2.2031,-3.6875 -3.375,-7.8437"
               id="Cmmi10-65" />
            <path
               inkscape:connector-curvature="0"
               d="m 3.71875,-2.20312 q -0.73437,0.39062 -0.73437,0.78124 0,0.29688 0.09374,0.54688 Q 6.39062,5.32812 9,13.25 q 2.625,7.9375 4.5781,16.6094 1.9531,8.6718 3.3125,16.75 1.375,8.0781 2.5,16.5781 L 16.4062,61.7188 Q 14.8906,60.9375 13.375,60.7969 l -0.4844,0 q -0.6875,0.3437 -0.6875,0.8281 0,1.6562 3.9063,3.8594 l 7.4687,3.7968 q 2.1094,1.125 3.7188,1.2344 l 0.5781,0 q 0.7344,-0.25 0.7344,-0.9375 -1.0156,-7.6562 -2.0938,-14.1562 2.5313,3.2187 5.5625,5.875 3.0313,2.6719 6.6094,4.7969 3.5937,2.125 7.5469,3.3124 3.9687,1.2032 7.7656,1.2032 l 0.5938,0 q 4.7812,0 8.2968,-2.7656 3.5156,-2.75 3.5156,-7.4376 0,-6.5 -5.6406,-11.4843 Q 55.125,43.9531 47.4062,40.4844 54,39.3125 58.2969,34.9375 q 4.2969,-4.375 4.2969,-10.8125 0,-5.8594 -3.2188,-10.75 Q 56.1562,8.5 50.875,5 45.6094,1.51562 39.5312,-0.34375 33.4531,-2.20312 27.9844,-2.20312 l -0.5938,0 q -3.9531,0 -7.7187,1.64062 -3.75,1.64062 -6.0469,4.67188 -0.25,0.32812 -0.25,0.57812 0,1.5625 2.875,3.25 2.8906,1.6875 4.8438,1.875 l 0.4843,0 Q 21.9219,9.67188 23.7969,7.89062 25.6875,6.10938 27,5.42188 q 3.5156,-1.70313 7.7188,-1.70313 5.375,0 9.6093,1.75 4.25,1.76563 6.8125,5.37505 2.5782,3.6093 2.5782,8.9843 0,4.7813 -2.5469,8.2031 -2.5313,3.4219 -6.7344,5.2032 -4.2031,1.7812 -8.75,1.7812 -1.6563,0 -4.6875,-0.3906 l -0.5781,0 q -0.3907,0.1875 -0.5625,0.3281 -0.1719,0.1563 -0.1719,0.4531 0,1.125 2.0937,2.6876 2.0157,1.4531 5.8907,2.8437 3.875,1.3906 9.125,3.4219 5.25,2.0312 7.9843,4.7656 2.7344,2.7344 2.7344,6.9844 0,2.625 -1.4375,4.6094 -1.4375,1.9843 -3.8125,2.9843 -2.3594,1 -4.8594,1 -5.5624,0 -9.5624,-3.625 -4,-3.6093 -7.5157,-9.6562 -3.4219,-6.0157 -6.0312,-13.2657 -2.6094,-7.25 -4.625,-15.3593 Q 17.1875,12.75 11.8125,2.39062 10.8438,0.640625 8.5625,-0.671875 6.29688,-2 4.20312,-2.20312 z"
               id="Cmsy10-42" />
          </defs>
          <g
             transform="matrix(0.2,0,0,-0.2,40.752,377.88632)"
             id="g23">
            <use
               height="1052.3622"
               width="744.09448"
               y="0"
               x="0"
               transform="translate(0,0.390625)"
               xlink:href="#Cmsy10-42"
               id="use25" />
            <use
               height="1052.3622"
               width="744.09448"
               y="0"
               x="0"
               transform="matrix(0.7,0,0,0.7,65.576172,-25.11875)"
               xlink:href="#Cmmi10-65"
               id="use27" />
            <use
               height="1052.3622"
               width="744.09448"
               y="0"
               x="0"
               transform="translate(112.06055,0.390625)"
               xlink:href="#BitstreamVeraSans-Roman-20"
               id="use29" />
          </g>
        </g>
        <g
           id="text_2">
          <!-- $\mathcal{B}_\mu$ -->
          <defs
             id="defs32">
            <path
               inkscape:connector-curvature="0"
               d="m 2.78125,-18.7969 q 0,0.5781 0.09375,0.7813 l 14.7031,59.0312 q 0.4375,1.4219 1.5781,2.2969 1.1563,0.875 2.625,0.875 1.2657,0 2.1407,-0.7656 0.8906,-0.75 0.8906,-2.0157 0,-0.2968 -0.0313,-0.4687 Q 24.75,40.7656 24.7031,40.5781 L 18.7969,17.1875 q -0.9688,-4.1563 -0.9688,-7.1719 0,-3.71872 1.75,-6.10935 1.7657,-2.39063 5.3281,-2.39063 7.2657,0 12.7969,9.07818 0.0469,0.0937 0.0625,0.1406 0.0313,0.0625 0.0313,0.1562 l 7.2187,29 q 0.3438,1.3282 1.5625,2.2656 1.2188,0.9532 2.6407,0.9532 1.1718,0 2.0781,-0.7813 0.9062,-0.7812 0.9062,-2.0469 0,-0.5781 -0.1093,-0.7812 L 44.9219,10.6875 q -0.7344,-2.82812 -0.7344,-4.875 0,-4.29688 2.9375,-4.29688 3.125,0 4.7031,3.85938 1.5938,3.85938 2.7657,9.3281 0.1874,0.5781 0.8281,0.5781 l 1.1719,0 q 0.3906,0 0.6562,-0.3124 0.2656,-0.3126 0.2656,-0.6563 Q 55.7656,7.32812 53.6875,3.09375 51.6094,-1.125 46.9219,-1.125 q -3.3125,0 -5.875,1.90625 -2.5625,1.90625 -3.3438,5.125 -2.5,-3.125 -5.8437,-5.078125 Q 28.5156,-1.125 24.8125,-1.125 q -6.25,0 -9.8281,2.9375 L 9.90625,-18.4062 q -0.28125,-1.4219 -1.45313,-2.2969 -1.17187,-0.875 -2.64062,-0.875 -1.21875,0 -2.125,0.7656 -0.90625,0.75 -0.90625,2.0156"
               id="Cmmi10-b9" />
          </defs>
          <g
             transform="matrix(0.2,0,0,-0.2,527.328,377.88632)"
             id="g35">
            <use
               height="1052.3622"
               width="744.09448"
               y="0"
               x="0"
               transform="translate(0,0.390625)"
               xlink:href="#Cmsy10-42"
               id="use37" />
            <use
               height="1052.3622"
               width="744.09448"
               y="0"
               x="0"
               transform="matrix(0.7,0,0,0.7,65.576172,-25.11875)"
               xlink:href="#Cmmi10-b9"
               id="use39" />
          </g>
        </g>
        <g
           id="text_3">
          <!-- $\mathcal{B}_\tau$ -->
          <defs
             id="defs42">
            <path
               inkscape:connector-curvature="0"
               d="m 15.5781,1.51562 q 0,0.6875 0.1407,1.07813 l 10.5,34.32815 -9.0313,0 q -3.6563,0 -6.8437,-2.2969 Q 7.17188,32.3281 5.07812,28.8125 4.89062,28.4219 4.5,28.4219 l -1.17188,0 q -0.9375,0 -0.9375,0.9687 0,0.2032 0.20313,0.5938 3.26563,5.5625 7,9.3437 3.73435,3.7813 8.42185,3.7813 l 30.6719,0 q 1.0625,0 1.7969,-0.7344 0.7344,-0.7188 0.7344,-1.7969 0,-1.4687 -1.0469,-2.5625 -1.0469,-1.0937 -2.5625,-1.0937 L 29.5,36.9219 22.7969,2.39062 Q 22.4062,0.78125 21.3281,-0.265625 20.2656,-1.3125 18.6094,-1.3125 q -1.2813,0 -2.1563,0.8125 -0.875,0.796875 -0.875,2.01562"
               id="Cmmi10-bf" />
          </defs>
          <g
             transform="matrix(0.2,0,0,-0.2,286.272,50.475789)"
             id="g45">
            <use
               height="1052.3622"
               width="744.09448"
               y="0"
               x="0"
               transform="translate(0,0.390625)"
               xlink:href="#Cmsy10-42"
               id="use47" />
            <use
               height="1052.3622"
               width="744.09448"
               y="0"
               x="0"
               transform="matrix(0.7,0,0,0.7,65.576172,-25.11875)"
               xlink:href="#Cmmi10-bf"
               id="use49" />
          </g>
        </g>
        <g
           id="text_4">
          <!-- 0.2 -->
          <defs
             id="defs52">
            <path
               inkscape:connector-curvature="0"
               d="m 19.1875,8.29688 34.4219,0 0,-8.29688 -46.28128,0 0,8.29688 Q 12.9375,14.1094 22.625,23.8906 q 9.7031,9.7969 12.1875,12.6406 4.7344,5.3126 6.6094,9 1.8906,3.6876 1.8906,7.25 0,5.8126 -4.0781,9.4688 -4.0782,3.6719 -10.625,3.6719 -4.6406,0 -9.7969,-1.6094 -5.1406,-1.6094 -11,-4.8906 l 0,9.9687 q 5.9531,2.3906 11.125,3.6094 5.1875,1.2188 9.4844,1.2188 11.3281,0 18.0625,-5.6719 6.7344,-5.6563 6.7344,-15.125 0,-4.5 -1.6876,-8.5313 Q 49.8594,40.875 45.4062,35.4062 44.1875,33.9844 37.6406,27.2188 31.1094,20.4531 19.1875,8.29688"
               id="BitstreamVeraSans-Roman-32" />
            <path
               inkscape:connector-curvature="0"
               d="m 31.7812,66.4062 q -7.6093,0 -11.4531,-7.5 Q 16.5,51.4219 16.5,36.375 q 0,-14.9844 3.8281,-22.4844 3.8438,-7.49998 11.4531,-7.49998 7.6719,0 11.5,7.49998 3.8438,7.5 3.8438,22.4844 0,15.0469 -3.8438,22.5312 -3.8281,7.5 -11.5,7.5 m 0,7.8126 q 12.2657,0 18.7344,-9.7032 6.4688,-9.6875 6.4688,-28.1406 0,-18.4062 -6.4688,-28.10938 -6.4687,-9.6875 -18.7344,-9.6875 -12.25,0 -18.7187,9.6875 -6.46875,9.70318 -6.46875,28.10938 0,18.4531 6.46875,28.1406 6.4687,9.7032 18.7187,9.7032"
               id="BitstreamVeraSans-Roman-30" />
            <path
               inkscape:connector-curvature="0"
               d="M 10.6875,12.4062 21,12.4062 21,0 10.6875,0 z"
               id="BitstreamVeraSans-Roman-2e" />
          </defs>
          <g
             transform="matrix(0.12,0,0,-0.12,121.104,305.12842)"
             id="g57">
            <use
               height="1052.3622"
               width="744.09448"
               y="0"
               x="0"
               xlink:href="#BitstreamVeraSans-Roman-30"
               id="use59" />
            <use
               height="1052.3622"
               width="744.09448"
               y="0"
               x="63.623047"
               xlink:href="#BitstreamVeraSans-Roman-2e"
               id="use61" />
            <use
               height="1052.3622"
               width="744.09448"
               y="0"
               x="95.410156"
               xlink:href="#BitstreamVeraSans-Roman-32"
               id="use63" />
          </g>
        </g>
        <g
           id="text_5">
          <!-- 0.4 -->
          <defs
             id="defs66">
            <path
               inkscape:connector-curvature="0"
               d="m 37.7969,64.3125 -24.9063,-38.9219 24.9063,0 z m -2.5938,8.5937 12.4063,0 0,-47.5156 10.4062,0 0,-8.2031 -10.4062,0 0,-17.1875 -9.8125,0 0,17.1875 -32.90628,0 0,9.5156 z"
               id="BitstreamVeraSans-Roman-34" />
          </defs>
          <g
             transform="matrix(0.12,0,0,-0.12,165.744,243.28421)"
             id="g69">
            <use
               height="1052.3622"
               width="744.09448"
               y="0"
               x="0"
               xlink:href="#BitstreamVeraSans-Roman-30"
               id="use71" />
            <use
               height="1052.3622"
               width="744.09448"
               y="0"
               x="63.623047"
               xlink:href="#BitstreamVeraSans-Roman-2e"
               id="use73" />
            <use
               height="1052.3622"
               width="744.09448"
               y="0"
               x="95.410156"
               xlink:href="#BitstreamVeraSans-Roman-34"
               id="use75" />
          </g>
        </g>
        <g
           id="text_6">
          <!-- 0.6 -->
          <defs
             id="defs78">
            <path
               inkscape:connector-curvature="0"
               d="m 33.0156,40.375 q -6.6406,0 -10.5312,-4.5469 -3.875,-4.5312 -3.875,-12.4375 0,-7.8594 3.875,-12.4375 3.8906,-4.56248 10.5312,-4.56248 6.6406,0 10.5156,4.56248 3.875,4.5781 3.875,12.4375 0,7.9063 -3.875,12.4375 -3.875,4.5469 -10.5156,4.5469 m 19.5782,30.9219 0,-8.9844 q -3.7188,1.75 -7.5,2.6719 -3.7813,0.9375 -7.5,0.9375 -9.7657,0 -14.9219,-6.5938 -5.1407,-6.5937 -5.875,-19.9219 2.875,4.25 7.2187,6.5157 4.3594,2.2656 9.5782,2.2656 10.9843,0 17.3593,-6.6719 6.375,-6.6562 6.375,-18.125 0,-11.2344 -6.6406,-18.03122 -6.6406,-6.78126 -17.6719,-6.78126 -12.6562,0 -19.3437,9.6875 -6.68752,9.70318 -6.68752,28.10938 0,17.2812 8.20312,27.5625 8.2031,10.2813 22.0156,10.2813 3.7188,0 7.5,-0.7344 3.7813,-0.7344 7.8907,-2.1875"
               id="BitstreamVeraSans-Roman-36" />
          </defs>
          <g
             transform="matrix(0.12,0,0,-0.12,210.384,181.44)"
             id="g81">
            <use
               height="1052.3622"
               width="744.09448"
               y="0"
               x="0"
               xlink:href="#BitstreamVeraSans-Roman-30"
               id="use83" />
            <use
               height="1052.3622"
               width="744.09448"
               y="0"
               x="63.623047"
               xlink:href="#BitstreamVeraSans-Roman-2e"
               id="use85" />
            <use
               height="1052.3622"
               width="744.09448"
               y="0"
               x="95.410156"
               xlink:href="#BitstreamVeraSans-Roman-36"
               id="use87" />
          </g>
        </g>
        <g
           id="text_7">
          <!-- 0.8 -->
          <defs
             id="defs90">
            <path
               inkscape:connector-curvature="0"
               d="m 31.7812,34.625 q -7.0312,0 -11.0624,-3.7656 -4.0157,-3.7656 -4.0157,-10.3438 0,-6.5937 4.0157,-10.3594 4.0312,-3.76558 11.0624,-3.76558 7.0313,0 11.0782,3.78128 4.0625,3.7969 4.0625,10.3437 0,6.5782 -4.0313,10.3438 -4.0156,3.7656 -11.1094,3.7656 m -9.8593,4.1875 Q 15.5781,40.375 12.0312,44.7188 8.5,49.0781 8.5,55.3281 q 0,8.7344 6.2188,13.8125 6.2343,5.0782 17.0624,5.0782 10.8907,0 17.0938,-5.0782 6.2031,-5.0781 6.2031,-13.8125 0,-6.25 -3.5469,-10.6093 Q 48,40.375 41.7031,38.8125 q 7.125,-1.6563 11.0938,-6.5 3.9843,-4.8281 3.9843,-11.7969 0,-10.60935 -6.4687,-16.28122 -6.4687,-5.65626 -18.5313,-5.65626 -12.0468,0 -18.5312,5.65626 -6.46875,5.67187 -6.46875,16.28122 0,6.9688 3.99995,11.7969 4.0157,4.8437 11.1407,6.5 m -3.6094,15.5781 q 0,-5.6562 3.5313,-8.8281 3.5468,-3.1719 9.9374,-3.1719 6.3594,0 9.9376,3.1719 3.5937,3.1719 3.5937,8.8281 0,5.6719 -3.5937,8.8438 -3.5782,3.1718 -9.9376,3.1718 -6.3906,0 -9.9374,-3.1718 -3.5313,-3.1719 -3.5313,-8.8438"
               id="BitstreamVeraSans-Roman-38" />
          </defs>
          <g
             transform="matrix(0.12,0,0,-0.12,255.024,119.59579)"
             id="g93">
            <use
               height="1052.3622"
               width="744.09448"
               y="0"
               x="0"
               xlink:href="#BitstreamVeraSans-Roman-30"
               id="use95" />
            <use
               height="1052.3622"
               width="744.09448"
               y="0"
               x="63.623047"
               xlink:href="#BitstreamVeraSans-Roman-2e"
               id="use97" />
            <use
               height="1052.3622"
               width="744.09448"
               y="0"
               x="95.410156"
               xlink:href="#BitstreamVeraSans-Roman-38"
               id="use99" />
          </g>
        </g>
        <g
           id="text_8">
          <!-- 0.8 -->
          <g
             transform="matrix(0.06,-0.10392305,-0.10392305,-0.06,459.33653,318.24643)"
             id="g102">
            <use
               height="1052.3622"
               width="744.09448"
               y="0"
               x="0"
               xlink:href="#BitstreamVeraSans-Roman-30"
               id="use104" />
            <use
               height="1052.3622"
               width="744.09448"
               y="0"
               x="63.623047"
               xlink:href="#BitstreamVeraSans-Roman-2e"
               id="use106" />
            <use
               height="1052.3622"
               width="744.09448"
               y="0"
               x="95.410156"
               xlink:href="#BitstreamVeraSans-Roman-38"
               id="use108" />
          </g>
        </g>
        <g
           id="text_9">
          <!-- 0.6 -->
          <g
             transform="matrix(0.06,-0.10392305,-0.10392305,-0.06,414.69653,257.55042)"
             id="g111">
            <use
               height="1052.3622"
               width="744.09448"
               y="0"
               x="0"
               xlink:href="#BitstreamVeraSans-Roman-30"
               id="use113" />
            <use
               height="1052.3622"
               width="744.09448"
               y="0"
               x="63.623047"
               xlink:href="#BitstreamVeraSans-Roman-2e"
               id="use115" />
            <use
               height="1052.3622"
               width="744.09448"
               y="0"
               x="95.410156"
               xlink:href="#BitstreamVeraSans-Roman-36"
               id="use117" />
          </g>
        </g>
        <g
           id="text_10">
          <!-- 0.4 -->
          <g
             transform="matrix(0.06,-0.10392305,-0.10392305,-0.06,370.05653,195.77766)"
             id="g120">
            <use
               height="1052.3622"
               width="744.09448"
               y="0"
               x="0"
               xlink:href="#BitstreamVeraSans-Roman-30"
               id="use122" />
            <use
               height="1052.3622"
               width="744.09448"
               y="0"
               x="63.623047"
               xlink:href="#BitstreamVeraSans-Roman-2e"
               id="use124" />
            <use
               height="1052.3622"
               width="744.09448"
               y="0"
               x="95.410156"
               xlink:href="#BitstreamVeraSans-Roman-34"
               id="use126" />
          </g>
        </g>
        <g
           id="text_11">
          <!-- 0.2 -->
          <g
             transform="matrix(0.06,-0.10392305,-0.10392305,-0.06,325.41653,129.83764)"
             id="g129">
            <use
               height="1052.3622"
               width="744.09448"
               y="0"
               x="0"
               xlink:href="#BitstreamVeraSans-Roman-30"
               id="use131" />
            <use
               height="1052.3622"
               width="744.09448"
               y="0"
               x="63.623047"
               xlink:href="#BitstreamVeraSans-Roman-2e"
               id="use133" />
            <use
               height="1052.3622"
               width="744.09448"
               y="0"
               x="95.410156"
               xlink:href="#BitstreamVeraSans-Roman-32"
               id="use135" />
          </g>
        </g>
        <g
           id="text_12">
          <!-- 0.8 -->
          <g
             transform="matrix(0.06,0.10392305,0.10392305,-0.06,154.51327,351.49988)"
             id="g138">
            <use
               height="1052.3622"
               width="744.09448"
               y="0"
               x="0"
               xlink:href="#BitstreamVeraSans-Roman-30"
               id="use140" />
            <use
               height="1052.3622"
               width="744.09448"
               y="0"
               x="63.623047"
               xlink:href="#BitstreamVeraSans-Roman-2e"
               id="use142" />
            <use
               height="1052.3622"
               width="744.09448"
               y="0"
               x="95.410156"
               xlink:href="#BitstreamVeraSans-Roman-38"
               id="use144" />
          </g>
        </g>
        <g
           id="text_13">
          <!-- 0.6 -->
          <g
             transform="matrix(0.06,0.10392305,0.10392305,-0.06,243.79327,351.49988)"
             id="g147">
            <use
               height="1052.3622"
               width="744.09448"
               y="0"
               x="0"
               xlink:href="#BitstreamVeraSans-Roman-30"
               id="use149" />
            <use
               height="1052.3622"
               width="744.09448"
               y="0"
               x="63.623047"
               xlink:href="#BitstreamVeraSans-Roman-2e"
               id="use151" />
            <use
               height="1052.3622"
               width="744.09448"
               y="0"
               x="95.410156"
               xlink:href="#BitstreamVeraSans-Roman-36"
               id="use153" />
          </g>
        </g>
        <g
           id="text_14">
          <!-- 0.4 -->
          <g
             transform="matrix(0.06,0.10392305,0.10392305,-0.06,333.07327,351.49988)"
             id="g156">
            <use
               height="1052.3622"
               width="744.09448"
               y="0"
               x="0"
               xlink:href="#BitstreamVeraSans-Roman-30"
               id="use158" />
            <use
               height="1052.3622"
               width="744.09448"
               y="0"
               x="63.623047"
               xlink:href="#BitstreamVeraSans-Roman-2e"
               id="use160" />
            <use
               height="1052.3622"
               width="744.09448"
               y="0"
               x="95.410156"
               xlink:href="#BitstreamVeraSans-Roman-34"
               id="use162" />
          </g>
        </g>
        <g
           id="text_15">
          <!-- 0.2 -->
          <g
             transform="matrix(0.06,0.10392305,0.10392305,-0.06,422.35327,351.49988)"
             id="g165">
            <use
               height="1052.3622"
               width="744.09448"
               y="0"
               x="0"
               xlink:href="#BitstreamVeraSans-Roman-30"
               id="use167" />
            <use
               height="1052.3622"
               width="744.09448"
               y="0"
               x="63.623047"
               xlink:href="#BitstreamVeraSans-Roman-2e"
               id="use169" />
            <use
               height="1052.3622"
               width="744.09448"
               y="0"
               x="95.410156"
               xlink:href="#BitstreamVeraSans-Roman-32"
               id="use171" />
          </g>
        </g>
      </g>
    </g>
    <rect
       style="fill:#ff0000;stroke:#000000;stroke-width:0.49839389;stroke-miterlimit:4;stroke-opacity:1;stroke-dasharray:none;stroke-dashoffset:0"
       id="rect4098"
       width="28.421053"
       height="108.24856"
       x="697.27826"
       y="475.48203" />
    <text
       xml:space="preserve"
       style="font-size:28px;font-style:normal;font-weight:normal;line-height:125%;letter-spacing:0px;word-spacing:0px;fill:#000000;fill-opacity:1;stroke:none;font-family:Sans"
       x="729.48877"
       y="163.09901"
       id="text4868"
       sodipodi:linespacing="125%"><tspan
         sodipodi:role="line"
         id="tspan4870"
         x="729.48877"
         y="163.09901">400</tspan><tspan
         sodipodi:role="line"
         x="729.48877"
         y="198.09901"
         id="tspan4872" /></text>
    <text
       xml:space="preserve"
       style="font-size:28px;font-style:normal;font-weight:normal;line-height:125%;letter-spacing:0px;word-spacing:0px;fill:#000000;fill-opacity:1;stroke:none;font-family:Sans"
       x="729.48877"
       y="270.099"
       id="text4880"
       sodipodi:linespacing="125%"><tspan
         sodipodi:role="line"
         id="tspan4882"
         x="729.48877"
         y="270.099">450</tspan><tspan
         sodipodi:role="line"
         x="729.48877"
         y="305.099"
         id="tspan4884" /></text>
    <text
       sodipodi:linespacing="125%"
       id="text4924"
       y="377.099"
       x="729.48877"
       style="font-size:28px;font-style:normal;font-weight:normal;line-height:125%;letter-spacing:0px;word-spacing:0px;fill:#000000;fill-opacity:1;stroke:none;font-family:Sans"
       xml:space="preserve"><tspan
         y="377.099"
         x="729.48877"
         id="tspan4926"
         sodipodi:role="line">500</tspan><tspan
         id="tspan4928"
         y="412.099"
         x="729.48877"
         sodipodi:role="line" /></text>
    <text
       xml:space="preserve"
       style="font-size:28px;font-style:normal;font-weight:normal;line-height:125%;letter-spacing:0px;word-spacing:0px;fill:#000000;fill-opacity:1;stroke:none;font-family:Sans"
       x="729.48877"
       y="484.099"
       id="text4930"
       sodipodi:linespacing="125%"><tspan
         sodipodi:role="line"
         id="tspan4932"
         x="729.48877"
         y="484.099">550</tspan><tspan
         sodipodi:role="line"
         x="729.48877"
         y="519.099"
         id="tspan4934" /></text>
    <text
       sodipodi:linespacing="125%"
       id="text4936"
       y="591.099"
       x="729.48877"
       style="font-size:28px;font-style:normal;font-weight:normal;line-height:125%;letter-spacing:0px;word-spacing:0px;fill:#000000;fill-opacity:1;stroke:none;font-family:Sans"
       xml:space="preserve"><tspan
         y="591.099"
         x="729.48877"
         id="tspan4938"
         sodipodi:role="line">650</tspan><tspan
         id="tspan4940"
         y="626.099"
         x="729.48877"
         sodipodi:role="line" /></text>
    <rect
       y="367.48203"
       x="697.27826"
       height="108.24856"
       width="28.421053"
       id="rect4955"
       style="fill:#ffff00;stroke:#000000;stroke-width:0.49839389;stroke-miterlimit:4;stroke-opacity:1;stroke-dasharray:none;stroke-dashoffset:0" />
    <rect
       style="fill:#00ffff;stroke:#000000;stroke-width:0.49839389;stroke-miterlimit:4;stroke-opacity:1;stroke-dasharray:none;stroke-dashoffset:0"
       id="rect4957"
       width="28.421053"
       height="108.24856"
       x="697.27826"
       y="259.48203" />
    <rect
       y="151.48203"
       x="697.27826"
       height="108.24856"
       width="28.421053"
       id="rect4959"
       style="fill:#000080;stroke:#000000;stroke-width:0.49839389;stroke-miterlimit:4;stroke-opacity:1;stroke-dasharray:none;stroke-dashoffset:0" />
    <path
       style="fill:url(#linearGradient5015);fill-opacity:1;stroke:#000000;stroke-width:1px;stroke-linecap:butt;stroke-linejoin:miter;stroke-opacity:1"
       d="M 202.45936,305.16756 535.93305,304.77515 396,108.8899 l -54.66989,0.84229 z"
       id="path5007"
       inkscape:connector-curvature="0"
       transform="translate(2.8571857,122.36218)"
       sodipodi:nodetypes="ccccc" />
    <path
       style="fill:url(#linearGradient5054);fill-opacity:1;stroke:#000000;stroke-width:1px;stroke-linecap:butt;stroke-linejoin:miter;stroke-opacity:1"
       d="m 147.17706,462.98568 -28.47853,-38.78463 84.03831,-119.14842 333.19621,0.39241 82.47852,117.41623 -26.9762,40.00948 z"
       id="path5046"
       inkscape:connector-curvature="0"
       transform="translate(2.8571857,122.36218)"
       sodipodi:nodetypes="ccccccc" />
  </g>
  <g
     inkscape:groupmode="layer"
     id="layer2"
     inkscape:label="triangles"
     transform="translate(-51.686095,-19.955584)">
    <path
       style="fill:#ff0000;stroke:#000000;stroke-width:1px;stroke-linecap:butt;stroke-linejoin:miter;stroke-opacity:1"
       d="m 90.937654,463.13005 27.130566,-38.68618 27.80047,38.51871 z"
       id="path5001"
       inkscape:connector-curvature="0" />
    <path
       inkscape:connector-curvature="0"
       id="path5003"
       d="m 591.538,463.13005 27.13057,-38.68618 27.80047,38.51871 z"
       style="fill:#ff0000;stroke:#000000;stroke-width:1px;stroke-linecap:butt;stroke-linejoin:miter;stroke-opacity:1" />
    <path
       inkscape:connector-curvature="0"
       id="path5005"
       d="m 340.93765,109.13005 27.13057,-38.68618 27.80047,38.51871 z"
       style="fill:#000080;stroke:#000000;stroke-width:1px;stroke-linecap:butt;stroke-linejoin:miter;stroke-opacity:1" />
  </g>
</svg>
